<svg height="100" viewBox="0 0 195 100" width="195" xmlns="http://www.w3.org/2000/svg" xmlns:xlink="http://www.w3.org/1999/xlink"><linearGradient id="a" x1="34.18253%" x2="81.589532%" y1="10.585822%" y2="83.226202%"><stop offset="0" stop-color="#2a3793"/><stop offset=".09999999" stop-color="#203e98"/><stop offset=".1971" stop-color="#124a9d"/><stop offset=".301" stop-color="#0a4fa4"/><stop offset=".4" stop-color="#005aaa"/><stop offset=".5" stop-color="#0063b1"/><stop offset=".6" stop-color="#0270bb"/><stop offset=".6976" stop-color="#0187d0"/><stop offset=".8" stop-color="#0194d9"/><stop offset=".9" stop-color="#14a7ea"/><stop offset="1" stop-color="#0da4d8"/></linearGradient><linearGradient id="b" x1="-6.347509%" x2="94.268363%" y1="33.428477%" y2="81.640745%"><stop offset="0" stop-color="#c1d26a"/><stop offset=".09999999" stop-color="#cbde46"/><stop offset=".1971" stop-color="#bad246"/><stop offset=".301" stop-color="#a0c441"/><stop offset=".4" stop-color="#89b546"/><stop offset=".5" stop-color="#66a645"/><stop offset=".6" stop-color="#459f47"/><stop offset=".6976" stop-color="#219540"/><stop offset=".8" stop-color="#139246"/><stop offset=".9" stop-color="#088147"/><stop offset="1" stop-color="#176d3e"/></linearGradient><g fill="none" transform="translate(28 23)"><g fill="#052d72"><path d="m.5 34.6v19.2h8.9c3.7 0 5.8-1.3 5.8-5.7 0-2.3-1-3.9-3.4-4.3 1.9-.6 2.9-1.5 2.9-4.2 0-3.7-1.8-4.9-5.6-4.9h-8.6zm3.5 3h4.1c2.4 0 3 .7 3 2.4 0 1.9-.5 2.6-2.9 2.6h-4.2zm0 7.9h5c2 0 2.6.8 2.6 2.7 0 2.2-1 2.6-2.6 2.6h-5z"/><path d="m20.5 53.8h-3.5v-9.4c0-3.6 2-4.7 6.1-4.7 1.4 0 3 .1 3 .1 0 1.8-.6 2.8-2.5 2.8h-1.1c-1.2 0-2 .2-2 1.8z"/><g transform="translate(26.76272 34.433429)"><path d="m4.4 19.4h-3.5v-14.1h3.5z"/><path d="m4.4 4.1h-3.5v-1.1c0-1.4.9-2.4 2.6-2.4h.9z"/></g><g transform="translate(45.006749 34.433429)"><path d="m4.4 19.4h-3.5v-14.1h3.5z"/><path d="m4.4 4.1h-3.5v-1.1c0-1.4.9-2.4 2.6-2.4h.9z"/></g><path d="m43.5 50.9.1 2.7s-1.3.3-2.8.3c-2.8 0-5.2-.8-5.2-4.7v-6.6h-2.6v-2.8h2.6v-2.3c0-1.4.9-2.4 2.8-2.4h.7v4.7h4.9v.6c0 1.6-.8 2.2-2.3 2.2h-2.6v6.6c0 .8.3 1.9 2.1 1.9.7 0 2.3-.2 2.3-.2z"/><path d="m51.7 53.7.1-2.9s2.2.2 4.7.2c2.4 0 2.9-.6 2.9-1.3 0-3-8.2.1-8.2-6 0-3.1 2.1-4.1 6.1-4.1 1.7 0 4.7.3 4.7.3 0 2.4-1.3 2.6-2.1 2.6-1 0-2.5-.2-3.4-.2-1.3 0-1.9.5-1.9 1.3 0 2.9 8.2.1 8.2 6.1 0 2.6-2.1 4.1-6 4.1-3 .1-5.1-.1-5.1-.1z"/><path d="m116.7 53.7.1-2.9s2.2.2 4.7.2c2.4 0 2.9-.6 2.9-1.3 0-3-8.2.1-8.2-6 0-3.1 2.1-4.1 6.1-4.1 1.7 0 4.7.3 4.7.3 0 2.4-1.3 2.6-2.1 2.6-1 0-2.5-.2-3.4-.2-1.3 0-1.9.5-1.9 1.3 0 2.9 8.2.1 8.2 6.1 0 2.6-2.1 4.1-6 4.1-3 .1-5.1-.1-5.1-.1z"/><path d="m68.1 53.8h-3.4v-17.3c0-1.8 1.4-2.3 2.7-2.3h.7v7.1c1-.6 3.6-1.7 5.9-1.7 3.5 0 3.9 2.6 3.9 4.8v9.4h-3.4v-9.3c0-.9-.6-1.7-1.7-1.7-1.3 0-3.5.9-4.6 1.3v9.7z"/><path d="m92.7 42.8h7.3v10.3s-5.5.8-8 .8c-6 0-7.6-3.3-7.6-8.9v-2.3c0-7.1 2.8-8.3 8.2-8.3 2.8 0 6.8.7 6.8.7 0 1.8-1.1 2.7-2.5 2.7-1.1 0-2.9-.4-4.5-.4-2.8 0-4.3.7-4.3 5.9v.9c0 2.4-.4 6.5 4 6.5 1.9 0 4.3-.3 4.3-.3v-4.9h-1.6c-1.3 0-2.1-.7-2.1-2.1z"/><path d="m109.7 39.8c-3.4 0-6.4.3-6.4.3 0 1.7.4 2.6 2.1 2.6.8 0 2.4-.1 4.1-.1 1.3 0 1.6.7 1.6 1.4v.6c-4.4.5-9.2.2-9.2 4.7 0 3 .9 4.5 5 4.5 3.8 0 7.6-.4 7.6-.4v-9.2c-.1-2.7-.7-4.4-4.8-4.4zm1.3 7.4v4s-2.2.1-3.7.1-2.1-.6-2.1-1.7c-.1-2 1.9-2 5.8-2.4z"/></g><path d="m106.6 16.4c1.2-5 5-7.5 16.2-10.9 5.8-1.9 10.8-3.5 15.4-5.1 0 16.6-6.2 24.8-17.8 27.3 3.9-3.1 6.9-9.1 6.9-18.6-16.2 5.5-17.4 5.3-20.7 7.3z" fill="url(#a)"/><path d="m110.5 31.3c-5.6 0-8.7-3.9-8.7-8 0-2.6 1.7-5.5 4.8-7-1.2 7.2 4.9 13.1 13.8 11.4-2 1.5-6.3 3.6-9.9 3.6z" fill="url(#b)"/></g></svg>