<?xml version="1.0" encoding="UTF-8"?>
<svg width="195px" height="100px" viewBox="0 0 195 100" version="1.1" xmlns="http://www.w3.org/2000/svg" xmlns:xlink="http://www.w3.org/1999/xlink">
    <!-- Generator: Sketch 57 (83077) - https://sketch.com -->
    <title>Untitled 5</title>
    <desc>Created with Sketch.</desc>
    <defs>
        <linearGradient x1="34.1825297%" y1="10.5858217%" x2="81.5895322%" y2="83.2262019%" id="linearGradient-1">
            <stop stop-color="#2A3793" offset="0%"></stop>
            <stop stop-color="#203E98" offset="9.999999%"></stop>
            <stop stop-color="#124A9D" offset="19.71%"></stop>
            <stop stop-color="#0A4FA4" offset="30.1%"></stop>
            <stop stop-color="#005AAA" offset="40%"></stop>
            <stop stop-color="#0063B1" offset="50%"></stop>
            <stop stop-color="#0270BB" offset="60%"></stop>
            <stop stop-color="#0187D0" offset="69.76%"></stop>
            <stop stop-color="#0194D9" offset="80%"></stop>
            <stop stop-color="#14A7EA" offset="90%"></stop>
            <stop stop-color="#0DA4D8" offset="100%"></stop>
        </linearGradient>
        <linearGradient x1="-6.34750914%" y1="33.4284768%" x2="94.2683629%" y2="81.6407445%" id="linearGradient-2">
            <stop stop-color="#C1D26A" offset="0%"></stop>
            <stop stop-color="#CBDE46" offset="9.999999%"></stop>
            <stop stop-color="#BAD246" offset="19.71%"></stop>
            <stop stop-color="#A0C441" offset="30.1%"></stop>
            <stop stop-color="#89B546" offset="40%"></stop>
            <stop stop-color="#66A645" offset="50%"></stop>
            <stop stop-color="#459F47" offset="60%"></stop>
            <stop stop-color="#219540" offset="69.76%"></stop>
            <stop stop-color="#139246" offset="80%"></stop>
            <stop stop-color="#088147" offset="90%"></stop>
            <stop stop-color="#176D3E" offset="100%"></stop>
        </linearGradient>
    </defs>
    <g id="Page-1" stroke="none" stroke-width="1" fill="none" fill-rule="evenodd">
        <g id="British_Gas" transform="translate(28.000000, 23.000000)" fill-rule="nonzero">
            <path d="M0.5,34.6 L0.5,53.8 L9.4,53.8 C13.1,53.8 15.2,52.5 15.2,48.1 C15.2,45.8 14.2,44.2 11.8,43.8 C13.7,43.2 14.7,42.3 14.7,39.6 C14.7,35.9 12.9,34.7 9.1,34.7 L0.5,34.7 L0.5,34.6 Z M4,37.6 L8.1,37.6 C10.5,37.6 11.1,38.3 11.1,40 C11.1,41.9 10.6,42.6 8.2,42.6 L4,42.6 L4,37.6 Z M4,45.5 L9,45.5 C11,45.5 11.6,46.3 11.6,48.2 C11.6,50.4 10.6,50.8 9,50.8 L4,50.8 L4,45.5 Z" id="path3130" fill="#052D72"></path>
            <path d="M20.5,53.8 L17,53.8 L17,44.4 C17,40.8 19,39.7 23.1,39.7 C24.5,39.7 26.1,39.8 26.1,39.8 C26.1,41.6 25.5,42.6 23.6,42.6 L22.5,42.6 C21.3,42.6 20.5,42.8 20.5,44.4 L20.5,53.8 Z" id="path3136" fill="#052D72"></path>
            <g id="g3138" transform="translate(26.762720, 34.433429)" fill="#052D72">
                <polygon id="path3140" points="4.4 19.4 0.9 19.4 0.9 5.3 4.4 5.3"></polygon>
                <path d="M4.4,4.1 L0.9,4.1 L0.9,3 C0.9,1.6 1.8,0.6 3.5,0.6 L4.4,0.6 L4.4,4.1 Z" id="path3142"></path>
            </g>
            <g id="g3144" transform="translate(45.006749, 34.433429)" fill="#052D72">
                <polygon id="path3146" points="4.4 19.4 0.9 19.4 0.9 5.3 4.4 5.3"></polygon>
                <path d="M4.4,4.1 L0.9,4.1 L0.9,3 C0.9,1.6 1.8,0.6 3.5,0.6 L4.4,0.6 L4.4,4.1 Z" id="path3148"></path>
            </g>
            <path d="M43.5,50.9 L43.6,53.6 C43.6,53.6 42.3,53.9 40.8,53.9 C38,53.9 35.6,53.1 35.6,49.2 L35.6,42.6 L33,42.6 L33,39.8 L35.6,39.8 L35.6,37.5 C35.6,36.1 36.5,35.1 38.4,35.1 L39.1,35.1 L39.1,39.8 L44,39.8 L44,40.4 C44,42 43.2,42.6 41.7,42.6 L39.1,42.6 L39.1,49.2 C39.1,50 39.4,51.1 41.2,51.1 C41.9,51.1 43.5,50.9 43.5,50.9 Z" id="path3150" fill="#052D72"></path>
            <path d="M51.7,53.7 L51.8,50.8 C51.8,50.8 54,51 56.5,51 C58.9,51 59.4,50.4 59.4,49.7 C59.4,46.7 51.2,49.8 51.2,43.7 C51.2,40.6 53.3,39.6 57.3,39.6 C59,39.6 62,39.9 62,39.9 C62,42.3 60.7,42.5 59.9,42.5 C58.9,42.5 57.4,42.3 56.5,42.3 C55.2,42.3 54.6,42.8 54.6,43.6 C54.6,46.5 62.8,43.7 62.8,49.7 C62.8,52.3 60.7,53.8 56.8,53.8 C53.8,53.9 51.7,53.7 51.7,53.7 Z" id="path3152" fill="#052D72"></path>
            <path d="M116.7,53.7 L116.8,50.8 C116.8,50.8 119,51 121.5,51 C123.9,51 124.4,50.4 124.4,49.7 C124.4,46.7 116.2,49.8 116.2,43.7 C116.2,40.6 118.3,39.6 122.3,39.6 C124,39.6 127,39.9 127,39.9 C127,42.3 125.7,42.5 124.9,42.5 C123.9,42.5 122.4,42.3 121.5,42.3 C120.2,42.3 119.6,42.8 119.6,43.6 C119.6,46.5 127.8,43.7 127.8,49.7 C127.8,52.3 125.7,53.8 121.8,53.8 C118.8,53.9 116.7,53.7 116.7,53.7 Z" id="path3154" fill="#052D72"></path>
            <path d="M68.1,53.8 L64.7,53.8 L64.7,36.5 C64.7,34.7 66.1,34.2 67.4,34.2 L68.1,34.2 L68.1,41.3 C69.1,40.7 71.7,39.6 74,39.6 C77.5,39.6 77.9,42.2 77.9,44.4 L77.9,53.8 L74.5,53.8 L74.5,44.5 C74.5,43.6 73.9,42.8 72.8,42.8 C71.5,42.8 69.3,43.7 68.2,44.1 L68.2,53.8 L68.1,53.8 Z" id="path3156" fill="#052D72"></path>
            <path d="M92.7,42.8 L100,42.8 L100,53.1 C100,53.1 94.5,53.9 92,53.9 C86,53.9 84.4,50.6 84.4,45 L84.4,42.7 C84.4,35.6 87.2,34.4 92.6,34.4 C95.4,34.4 99.4,35.1 99.4,35.1 C99.4,36.9 98.3,37.8 96.9,37.8 C95.8,37.8 94,37.4 92.4,37.4 C89.6,37.4 88.1,38.1 88.1,43.3 L88.1,44.2 C88.1,46.6 87.7,50.7 92.1,50.7 C94,50.7 96.4,50.4 96.4,50.4 L96.4,45.5 L94.8,45.5 C93.5,45.5 92.7,44.8 92.7,43.4 L92.7,42.8 L92.7,42.8 Z" id="path3158" fill="#052D72"></path>
            <path d="M109.7,39.8 C106.3,39.8 103.3,40.1 103.3,40.1 C103.3,41.8 103.7,42.7 105.4,42.7 C106.2,42.7 107.8,42.6 109.5,42.6 C110.8,42.6 111.1,43.3 111.1,44 L111.1,44.6 C106.7,45.1 101.9,44.8 101.9,49.3 C101.9,52.3 102.8,53.8 106.9,53.8 C110.7,53.8 114.5,53.4 114.5,53.4 L114.5,44.2 C114.4,41.5 113.8,39.8 109.7,39.8 Z M111,47.2 L111,51.2 C111,51.2 108.8,51.3 107.3,51.3 C105.8,51.3 105.2,50.7 105.2,49.6 C105.1,47.6 107.1,47.6 111,47.2 Z" id="path3160" fill="#052D72"></path>
            <path d="M106.6,16.4 C107.8,11.4 111.6,8.9 122.8,5.5 C128.6,3.6 133.6,2 138.2,0.4 C138.2,17 132,25.2 120.4,27.7 C124.3,24.6 127.3,18.6 127.3,9.1 C111.1,14.6 109.9,14.4 106.6,16.4 Z" id="path3166" fill="url(#linearGradient-1)"></path>
            <path d="M110.5,31.3 C104.9,31.3 101.8,27.4 101.8,23.3 C101.8,20.7 103.5,17.8 106.6,16.3 C105.4,23.5 111.5,29.4 120.4,27.7 C118.4,29.2 114.1,31.3 110.5,31.3 L110.5,31.3 Z" id="path3164" fill="url(#linearGradient-2)"></path>
        </g>
    </g>
</svg>