<svg height="100" viewBox="0 0 195 100" width="195" xmlns="http://www.w3.org/2000/svg"><path d="m37.75 75.375 1.625-5.5c-.125-.125-.375-.25-.375-.375l-4.25 1.375v-6.375l4.25 2.25c.125-.125.25-.375.375-.375l-2.5-7.5c-.125-.375-.125-.75-.125-1.25 0-2 1.5-3.75 3.5-3.875h.125.5.5.125c1.875.375 3.5 1.875 3.5 3.875 0 .375-.125.75-.125 1.25l-2.5 7.5c.125.125.375.25.5.375l4.25-2.25v6.375l-4.25-1.375c-.125.125-.25.375-.375.375l1.625 5.5h-3.125c-.25 0-3.25 0-3.25 0zm-29.375-58.25c-1.25 0-2.25-.25-3.25-.625s-1.75-1-2.375-1.75-1.25-1.625-1.5-2.625c-.375-1-.5-2.125-.5-3.25s.125-2.25.5-3.25.75-1.875 1.5-2.625c.625-.75 1.375-1.375 2.375-1.75.875-.375 1.875-.625 3.125-.625.5 0 1 .125 1.5.125.5.125.875.25 1.25.375s.75.375 1 .625c.375.25.5.5.75.875v-1.875h2.875v8.875h-7.375v-2.5h4.125v-.125c0-.375-.125-.75-.125-1.125-.125-.375-.375-.75-.625-1.125-.375-.375-.625-.625-1.125-.875s-1.125-.375-1.875-.375-1.5.125-1.875.5c-.5.375-1 .75-1.375 1.25s-.625 1-.75 1.625-.25 1.25-.25 2v.125c0 .625.125 1.375.25 2s.375 1.25.75 1.625c.375.5.75.875 1.375 1.25.5.375 1.25.5 1.875.5.5 0 .875-.125 1.25-.125.375-.125.75-.375 1-.5.375-.25.5-.5.75-.75s.375-.625.625-1l2.875 1.625c-.25.5-.625 1-1 1.5s-1 .875-1.5 1.25-1.25.5-1.875.75c-.75 0-1.5 0-2.375 0zm16.75 0c-1.25 0-2.25-.25-3.25-.625s-1.75-1-2.375-1.75-1.25-1.625-1.5-2.625-.5-2.125-.5-3.25.125-2.25.5-3.25.875-1.875 1.5-2.625 1.5-1.375 2.375-1.75c1-.375 2-.625 3.25-.625s2.25.25 3.25.625 1.75 1 2.375 1.75 1.25 1.625 1.5 2.625.5 2.125.5 3.25-.125 2.25-.5 3.25-.875 1.875-1.5 2.625-1.5 1.375-2.375 1.75c-1 .375-2 .625-3.25.625zm29.625-.25v-10.5c0-.875.125-1.625.5-2.375s.75-1.375 1.375-1.875c.5-.5 1.25-.875 2.125-1.25.75-.25 1.625-.375 2.625-.375s1.875.125 2.625.375 1.5.625 2.125 1.25c.5.5 1 1.125 1.375 1.875s.5 1.5.5 2.375v10.5h-3.25v-10c0-.5-.125-1.125-.25-1.5s-.375-.75-.75-1c-.375-.375-.625-.5-1-.625s-.875-.25-1.25-.25c-.5 0-.875.125-1.25.25s-.75.375-1 .625c-.375.375-.5.625-.75 1-.125.375-.25 1-.25 1.5v10zm-20.75 0 4.625-16.125h4.375l4.625 16.125h-3.625l-3-12.125h-.125l-3.125 12.125zm37 0v-16.125h3.25v4.875l2.125 2.375 4.25-7.25h3.75l-6 9.75 5.625 6.375h-4l-5.75-7v7zm-48.625 50.375c-1.25 0-2.625-.75-3.125-2.125-.75-1.625.125-3.75 1.875-4.375 1.75-.75 3.75.125 4.375 1.875.75 1.625-.125 3.75-1.875 4.375-.375.25-.875.25-1.25.25zm36.875 0c-.375 0-.875-.125-1.25-.25-1.75-.75-2.625-2.75-1.875-4.375s2.625-2.625 4.375-1.875c1.625.75 2.625 2.625 1.875 4.375-.5 1.25-1.75 2.125-3.125 2.125zm-28.375-2.625c-1.25 0-2.625-.75-3.125-2.125-.75-1.625.125-3.75 1.875-4.375 1.75-.75 3.75.125 4.375 1.875.75 1.625-.125 3.75-1.875 4.375-.375.125-.875.25-1.25.25zm19.875 0c-.375 0-.875-.125-1.25-.25-1.75-.75-2.625-2.75-1.875-4.375s2.75-2.625 4.375-1.875 2.625 2.625 1.875 4.375c-.5 1.25-1.75 2.125-3.125 2.125zm-36.125-1.875c-1.25 0-2.625-.75-3.125-2.125-.75-1.625.125-3.75 1.875-4.375s3.75.125 4.375 1.875c.75 1.625-.125 3.75-1.875 4.375-.375.25-.75.25-1.25.25zm52.375 0c-.375 0-.875-.125-1.25-.25-1.75-.75-2.625-2.75-1.875-4.375s2.625-2.625 4.375-1.875c1.625.75 2.625 2.625 1.875 4.375-.5 1.25-1.875 2.125-3.125 2.125zm-41.875-48.625c.75 0 1.375-.125 1.875-.375s1-.625 1.375-1.125.625-1 .75-1.625.375-1.375.375-2.125v-.125c0-.75-.125-1.5-.375-2.125-.125-.625-.5-1.25-.75-1.625-.375-.5-.75-.75-1.375-1.125-.5-.25-1.125-.375-1.875-.375s-1.375.125-1.875.375-1 .625-1.375 1.125-.625 1-.75 1.625-.375 1.375-.375 2.125v.125c0 .75.125 1.5.375 2.125.125.625.5 1.25.75 1.625.375.5.75.75 1.375 1.125.5.25 1.125.375 1.875.375zm-12.75 40.125c-1.25 0-2.625-.75-3.125-2.125-.75-1.625.125-3.75 1.875-4.375 1.75-.75 3.75.125 4.375 1.875.75 1.625-.125 3.75-1.875 4.375-.375.125-.75.25-1.25.25zm56.875 0c-.375 0-.875-.125-1.25-.25-1.75-.75-2.625-2.75-1.875-4.375s2.75-2.625 4.375-1.875 2.625 2.625 1.875 4.375c-.5 1.25-1.875 2.125-3.125 2.125zm-44.625-.875c-2.75-3.75-2.375-6.75 1-10.25-2.25 1.25-5.75-.125-3.75-4.25 1 2.625 3.375 2 3.875-.25.375-1.625-.625-3.5-2.75-3.875-1.625-.375-4.375.875-6.5 5.5 1.25 0 2.25-.625 3.625-1.625l-2.25 7.5c-.5-2.125-1.25-3.5-2-4.125-.5 1.5-.375 2.625 0 4.875l-4.625-1.625c2.375-3.375 4.875-8 6.75-16.25 6.875 1 14.5 1.5 22.75 1.5 8.125 0 15.75-.5 22.75-1.5 1.875 8.125 4.375 12.875 6.75 16.25l-4.625 1.625c.5-2.375.5-3.5 0-4.875-.75.75-1.5 2.125-2 4.125l-2.25-7.5c1.375 1 2.375 1.5 3.625 1.625-2.125-4.625-4.875-5.75-6.5-5.5-2.125.375-3 2.25-2.75 3.875.5 2.25 2.75 2.75 3.875.25 2.125 4.125-1.5 5.5-3.75 4.25 3.5 3.5 3.875 6.5 1 10.25-3.875-3-3.875-6-2.125-10-2.25 2.625-5.75 1.25-4.625-3 1.625 2.625 3.75 1 3.5-1.5-.375-2.125-3-3.75-6.5-3.5-5 .5-5.25 3.875-5.375 6.625 1.25.25 3.375-.875 5.25-3.5l.75 7.875c-2-2.125-3.875-2.5-6-2.625.75 2.125 3.875 5.625 3.875 5.625h-4.375-5.25s3.125-3.5 3.875-5.625c-2.125.125-3.875.5-6 2.625l.75-7.875c1.875 2.625 4.125 3.75 5.25 3.5-.125-2.75-.375-6.25-5.375-6.625-3.5-.375-6.25 1.375-6.5 3.5-.375 2.375 1.875 4 3.5 1.5 1.25 4.125-2.25 5.625-4.625 3 1.75 4 1.625 7-2.25 10zm25.5-48.75c-.25 0-.5-.125-.75-.125-.25-.125-.5-.25-.625-.375s-.375-.375-.5-.625-.125-.5-.125-.75.125-.5.125-.75c.125-.25.25-.5.5-.625.125-.125.375-.375.625-.375.25-.125.5-.125.75-.125.375 0 .5.125.75.125.25.125.5.25.625.375s.375.375.5.625.125.5.125.75-.125.5-.125.75-.25.5-.5.625c-.125.125-.375.375-.625.375s-.5.125-.75.125z" fill="#112a3e" transform="matrix(1 0 0 -1 55.47 88.87)"/></svg>