<?xml version="1.0" encoding="UTF-8"?>
<svg id="SVGRoot" width="500" height="303.23" version="1.1" viewBox="0 0 500.00003 303.22729" xmlns="http://www.w3.org/2000/svg" xmlns:cc="http://creativecommons.org/ns#" xmlns:dc="http://purl.org/dc/elements/1.1/" xmlns:rdf="http://www.w3.org/1999/02/22-rdf-syntax-ns#"><metadata><rdf:RDF><cc:Work rdf:about=""><dc:format>image/svg+xml</dc:format><dc:type rdf:resource="http://purl.org/dc/dcmitype/StillImage"/><dc:title/></cc:Work></rdf:RDF></metadata><g transform="translate(-115.01 -154.65)" fill="#353d42"><path d="m359.41 262.93v81.886c5.6458 0.1347 11.167 0.1342 16.694 0.1342 14.849 0 19.649-0.2496 25.415-1.6013 6.6265-1.3518 12.765-4.7867 17.924-9.8223 7.7378-7.4911 12.157-18.296 12.157-29.955 0-13.259-5.8958-25.173-15.844-32.529-8.4674-6.1396-15.961-8.1144-31.919-8.1144zm23.193 15.851c11.423 0 17.678 1.8373 22.959 6.6246 4.7902 4.2924 7.3703 10.552 7.3703 18.29 0 12.526-6.7481 21.611-17.804 24.066-3.3114 0.7319-5.1545 0.8542-11.043 0.8542h-5.4133v-49.723c1.8473-0.1128 3.0787-0.1127 3.9312-0.1127z"/><path d="m484.34 261.35c-24.551 0-43.465 18.402-43.465 42.351 0 24.186 19.025 42.845 43.835 42.845 24.667 0 43.463-18.418 43.463-42.469 0-24.073-19.156-42.727-43.834-42.727zm0.0967 17.301c14.111 0 24.676 10.805 24.676 25.179 0 14.238-10.802 25.398-24.432 25.398-13.742 0-24.921-11.412-24.921-25.651 0-13.991 10.81-24.927 24.677-24.927z"/><path d="m211.16 261.35c-24.548 0-43.455 18.402-43.455 42.351 0 24.186 19.023 42.845 43.833 42.845 24.676 0 43.45-18.418 43.45-42.469 0-24.073-19.143-42.727-43.827-42.727zm0.0967 17.301c14.13 0 24.687 10.805 24.687 25.179 0 14.238-10.8 25.398-24.433 25.398-13.751 0-24.92-11.412-24.92-25.651 0-13.991 10.801-24.927 24.666-24.927z"/><path d="m134.7 327.52h31.425v17.303h-50.702v-81.884h19.278z"/><path d="m343.45 344.82h-17.432l-38.426-49.464v49.464h-19.279v-81.884h17.444l38.425 50.094v-50.094h19.267z"/><path d="m615.01 262.94h-19.272v50.094l-38.426-50.094h-17.44v81.884h19.28v-49.464l38.419 49.464h17.439z"/><path d="m476.57 156.33v8.2921h-24.986v68.593h-9.4786v-68.593h-25.706v-8.2921z"/><path d="m243.6 380.5v8.1549h21.534v67.48h7.9583v-67.48h20.925v-8.1549z"/><path d="m395.59 378.85c-18.711 0-33.37 17.31-33.37 39.401 0 21.955 14.785 39.172 33.668 39.172 18.83 0 33.58-17.217 33.58-39.172v-1.4805c-0.79385-21.611-15.36-37.92-33.878-37.92zm0.19732 8.1567c13.986 0 25.099 12.849 25.811 29.878v1.4806c0 17.612-10.961 30.901-25.51 30.901-14.835 0-26.027-13.393-26.027-31.13 0-17.747 11.054-31.13 25.726-31.13z"/><path d="m115.01 194.24c0-22.568 17.741-39.586 41.258-39.586 4.1792 0 8.5699 0.5825 13.422 1.758 5.8299 1.4402 8.1204 2.3616 12.781 5.1786v9.2559c-0.58806-0.3493-5.4039-3.2195-5.4039-3.2195-5.8523-3.0499-12.559-4.6703-19.372-4.6703-18.989 0-33.317 13.598-33.317 31.654 0 7.7839 2.9468 15.091 8.5053 21.149 6.5361 7.159 14.319 10.484 24.464 10.484 6.6589 0 9.8326-0.6884 16.923-3.6854l0.85899-0.36v-21.477h-15.542v-8.0486h24.198v35.106c-1.0918 0.4978-3.9449 1.864-3.9449 1.864-7.3574 3.1982-15.387 4.9032-23.209 4.9032-24.114 0-41.621-16.944-41.621-40.306"/><path d="m280.75 156.33v76.885h48.93v-8.2816h-39.207v-29.6h31.318v-8.4086h-31.318v-22.663h37.289v-7.932z"/><path d="m488.24 156.33v76.885h48.925v-8.2816h-39.21v-29.6h31.319v-8.4086h-31.319v-22.663h37.289v-7.932z"/><path d="m204.59 156.33v76.887h9.3733v-33.211h12.461s20.591 31.972 21.394 33.211h10.815c-2.584-3.8547-23.395-35.034-23.395-35.034l1.8637-0.5177c4.4637-1.2601 6.0043-2.0863 8.2243-4.4267 3.7093-3.7067 5.9297-9.3209 5.9297-15.008 0-10.283-6.7615-18.849-16.442-20.85-2.9601-0.6248-5.8526-0.935-8.6538-0.9455l-9.7067-0.1059zm9.3667 8.0507h7.396c2.4781 0 6.6371 0.2421 9.0039 0.6126 2.3386 0.2546 4.587 1.0272 6.4257 2.2135 3.3718 2.0228 5.4539 6.3011 5.4539 11.141 0 9.3936-5.7713 13.957-17.657 13.957h-10.623z"/><path d="m560.52 156.33v76.887h9.3652v-33.211h12.456s20.598 31.972 21.393 33.211h10.815c-2.5858-3.8547-23.395-35.034-23.395-35.034l1.8643-0.5177c4.4669-1.2601 6.0038-2.0863 8.2286-4.4267 3.718-3.7067 5.9283-9.3209 5.9283-15.008 0-10.283-6.7673-18.849-16.445-20.85-2.9693-0.6248-5.8379-0.9347-8.6546-0.9455l-9.7108-0.1059zm9.3652 8.0507h7.3852c2.4782 0 6.65 0.2423 8.9997 0.6126 2.3522 0.2543 4.5886 1.0272 6.4327 2.2135 3.361 2.0228 5.4602 6.3011 5.4602 11.141 0 9.3936-5.7745 13.957-17.66 13.957h-10.618z"/><path d="m372.82 156.33c-0.68007 1.6945-29.538 73.234-31.008 76.887h9.8537c0.64596-1.599 7.5341-19.117 7.5341-19.117h36.218s7.1207 17.529 7.7666 19.117h10.194c-1.5377-3.6748-31.473-75.235-32.159-76.887zm4.2881 11.215 15.249 38.267h-29.952l13.407-34.907z"/><path d="m181.37 380.49v36.932c0 8.5469 0.3667 15.147 2.7841 22.204 1.2887 3.7616 3.219 7.5038 6.0839 10.261 2.8456 2.7387 7.7743 7.9026 17.685 7.9749v0.012c0.10343 0 0.19732-0.01 0.29913-0.01 0.10075-3e-4 0.19491 0.01 0.29713 0.01v-0.012c9.9106-0.072 14.839-5.2362 17.685-7.9749 2.8647-2.7572 4.7953-6.4994 6.0838-10.261 2.4174-7.0571 2.7842-13.658 2.7842-22.204v-36.932h-7.7485v37.172c0 7.2103-0.66798 12.026-1.3773 16.341-1.5207 9.2513-9.3662 16.435-17.724 16.717-8.3589-0.2806-16.205-7.4648-17.726-16.717-0.70935-4.3155-1.3773-9.1307-1.3773-16.341v-37.172z"/><path d="m353.55 380.49v75.635h-7.9601v-37.39h-36.215v37.39h-7.8514v-75.635h7.8514v30.089h36.215v-30.089z"/><path d="m487.88 456.13h7.8517v-75.635h-7.8517z"/><path d="m613.4 380.49c-2.1279 3.8535-22.035 39.692-22.035 39.692v35.943h-8.1433v-35.943s-20.399-35.807-22.61-39.692h8.5634c0.67578 1.2081 18.08 32.443 18.08 32.443s16.806-31.204 17.467-32.443z"/><path d="m556.54 380.33v8.1655h-20.928v67.459h-7.9499v-67.459h-21.537v-8.1654z"/><path d="m437.45 380.5v75.632h7.8592v-32.683h10.451s17.242 31.454 17.923 32.683h9.0604c-2.1662-3.8017-19.615-34.465-19.615-34.465l1.5675-0.5193c3.7501-1.2396 5.04-2.0413 6.8966-4.3433 3.1156-3.6556 4.965-9.1771 4.965-14.77 0-10.103-5.6668-18.537-13.783-20.506-2.4774-0.604-4.8924-0.9141-7.2433-0.9141l-8.1348-0.1144zm7.8592 7.9226h6.1945c2.0766 0 5.5773 0.2282 7.5399 0.5817 1.9608 0.2607 3.8404 1.0315 5.3877 2.1977 2.8261 1.9894 4.5851 6.1866 4.5851 10.946 0 9.2381-4.8494 13.731-14.8 13.731h-8.907z"/><path d="m141.12 380.12c-0.56589 1.6666-24.759 72.023-25.985 75.616h8.2643c0.52976-1.5727 6.3142-18.801 6.3142-18.801h30.344s5.9663 17.239 6.5082 18.801h8.5489c-1.2978-3.6141-26.383-73.991-26.966-75.616zm3.5982 11.03 12.786 37.634h-25.105l11.235-34.33z"/></g></svg>
