<svg height="100" viewBox="0 0 195 100" width="195" xmlns="http://www.w3.org/2000/svg"><g fill="#353d42" transform="translate(30 9)"><path d="m66.0932874 29.2811653v22.1444964c1.5267982.0362918 3.0199008.0362918 4.5145718.0362918 4.0156269 0 5.3136948-.0674995 6.8729988-.4330408 1.7920096-.3655684 3.4520491-1.2944711 4.8472016-2.6562525 2.0925394-2.0258241 3.2876272-4.9478019 3.2876272-8.1007546 0-3.5856419-1.5944059-6.8075545-4.2847056-8.7968434-2.2898457-1.660337-4.3163459-2.1943837-8.6318806-2.1943837zm6.2721015 4.2865986c3.0891311 0 4.7806757.4968625 6.2088208 1.7914958 1.2954176 1.1607972 1.9931561 2.8535858 1.9931561 4.9461794 0 3.3874162-1.8248941 5.84428-4.81475 6.5081876-.8955045.1979283-1.3939355.231002-2.9863673.231002h-1.463923v-13.4466307c.4995668-.0304775.8325753-.0304775 1.0631175-.0304775z"/><path d="m99.8782072 28.8538846c-6.6393466 0-11.7542747 4.9764676-11.7542747 11.4530148 0 6.5406393 5.144946 11.5866076 11.8543341 11.5866076 6.6707164 0 11.7537334-4.9807945 11.7537334-11.4849256 0-6.5100807-5.180372-11.5546968-11.8540632-11.5546968zm.0261507 4.6787233c3.8160491 0 6.6731501 2.9220047 6.6731501 6.8091771 0 3.8503937-2.921193 6.8684014-6.607165 6.8684014-3.7162601 0-6.739406-3.0861563-6.739406-6.9368204 0-3.7835974 2.923357-6.7410286 6.6734209-6.7410286z"/><path d="m26.0019214 28.8538846c-6.6385353 0-11.7515704 4.9764676-11.7515704 11.4530148 0 6.5406393 5.1444051 11.5866076 11.8537932 11.5866076 6.6731504 0 11.7502183-4.9807945 11.7502183-11.4849256 0-6.5100807-5.1768568-11.5546968-11.8521707-11.5546968zm.0261506 4.6787233c3.8211872 0 6.6761252 2.9220047 6.6761252 6.8091771 0 3.8503937-2.9206527 6.8684014-6.6074357 6.8684014-3.718694 0-6.7391356-3.0861563-6.7391356-6.9368204 0-3.7835974 2.9209231-6.7410286 6.6704461-6.7410286z"/><path d="m5.32478244 46.7482906h8.49828786v4.6792641h-13.71138238v-22.1439556h5.21336495z"/><path d="m61.7772119 51.4267434h-4.7141497l-10.391574-13.376589v13.376589h-5.2136353v-22.1439556h4.7173948l10.3913035 13.5469605v-13.5469605h5.2103902z"/><path d="m135.2154 29.2838696h-5.211743v13.5469604l-10.391573-13.5469604h-4.716314v22.1439556h5.213906v-13.3765891l10.389681 13.3765891h4.716043z"/><path d="m97.7769599.45324202v2.24243923h-6.756984v18.54965985h-2.5633053v-18.54965985h-6.9516942v-2.24243923z"/><path d="m34.7746965 61.0757144v2.2053361h5.8234569v18.2486703h2.1521694v-18.2486703h5.6587645v-2.2053361z"/><path d="m75.8774737 60.6295035c-5.0600306 0-9.0242757 4.6811572-9.0242757 10.655244 0 5.9373082 3.9983193 10.5933153 9.1048641 10.5933153 5.092212 0 9.0810663-4.6560071 9.0810663-10.5933153v-.4003728c-.2146815-5.84428-4.1538171-10.2548712-9.1616547-10.2548712zm.0533614 2.2057148c3.7822452 0 6.7875427 3.4748735 6.9800894 8.0800396v.4003998c0 4.7628273-2.964192 8.3565821-6.8986897 8.3565821-4.0118409 0-7.0385024-3.6218796-7.0385024-8.4185107 0-4.7993354 2.9893421-8.4185108 6.9571027-8.4185108z"/><path d="m0 10.7052736c0-6.10308225 4.79771282-10.7052736 11.1574339-10.7052736 1.1301844 0 2.3175649.15752594 3.6297222.47541735 1.5765845.38947443 2.1960063.63864937 3.4563761 1.40045293v2.50308044c-.1590296-.09446148-1.461381-.87065196-1.461381-.87065196-1.5826422-.82478689-3.3963404-1.26299296-5.2387855-1.26299296-5.13521043 0-9.00994293 3.67731801-9.00994293 8.5602165 0 2.1050063.79690548 4.0810712 2.30009508 5.719341 1.76756275 1.9360141 3.87229862 2.8351965 6.61581905 2.8351965 1.8007717 0 2.6590379-.1861646 4.5765005-.9966457l.2322973-.097355v-5.8080423h-4.2030355v-2.1765894h6.5438845v9.4937437c-.2952563.1346204-1.0668225.504083-1.0668225.504083-1.9896675.8648918-4.1611187 1.3259763-6.2764284 1.3259763-6.52116828 0-11.2557328-4.5821795-11.2557328-10.8999838"/><path d="m44.8212007.45324202v20.79207198h13.232179v-2.2395997h-10.6027803v-8.0047516h8.4693518v-2.27394445h-8.4693518v-6.12877321h10.0840941v-2.14505711z"/><path d="m100.932887.45324202v20.79207198h13.230827v-2.2395997h-10.603591v-8.0047516h8.469622v-2.27394445h-8.469622v-6.12877321h10.084094v-2.14505711z"/><path d="m24.225191.45324202v20.79261288h2.534829v-8.9812773h3.3698382s5.5684406 8.6462135 5.7855966 8.9812773h2.9247091c-.6987932-1.0424296-6.3267286-9.4742726-6.3267286-9.4742726l.5040019-.1400021c1.2071219-.3407698 1.6237476-.5641997 2.224104-1.197116 1.003109-1.00240582 1.6035735-2.52065841 1.6035735-4.05862541 0-2.78083991-1.8285178-5.09735014-4.4464232-5.63848217-.8005022-.16896516-1.5827233-.2528528-2.340254-.25569232l-2.6249907-.02863862zm2.5330442 2.17715724h2.0001062c.6701546 0 1.7948762.06547129 2.4349319.16566591.6324294.06885168 1.240466.27778651 1.7377072.59859857.9118385.54702742 1.4749025 1.70401151 1.4749025 3.01286954 0 2.54031876-1.5607373 3.77440262-4.7749966 3.77440262h-2.8727864z"/><path d="m120.479626.45324202v20.79261288h2.532638v-8.9812773h3.368486s5.570334 8.6462135 5.785326 8.9812773h2.924709c-.69928-1.0424296-6.326728-9.4742726-6.326728-9.4742726l.504164-.1400021c1.207987-.3407698 1.623612-.5641997 2.225267-1.197116 1.005461-1.00240582 1.603195-2.52065841 1.603195-4.05862541 0-2.78083991-1.830087-5.09735014-4.447235-5.63848217-.80299-.16896516-1.578748-.25277167-2.34047-.25569232l-2.6261-.02863862zm2.532584 2.17715724h1.99724c.670181 0 1.798364.06552538 2.433796.16566591.636107.06877055 1.240898.27778651 1.7396.59859857.908918.54702742 1.476606 1.70401151 1.476606 3.01286954 0 2.54031876-1.561603 3.77440262-4.775808 3.77440262h-2.871434z"/><path d="m69.7197644.45324202c-.1839118.45824499-7.9879849 19.80472918-8.3855182 20.79261288h2.664744c.1746875-.4324188 2.0374527-5.1698256 2.0374527-5.1698256h9.7944627s1.9256566 4.7403815 2.1003278 5.1698256h2.7567716c-.4158415-.9937791-8.5112686-20.3458612-8.6967841-20.79261288zm1.1596343 3.03288142 4.1237993 10.34857536h-8.0999433l3.6256657-9.43992788z"/><path d="m17.9457879 61.07301v9.9875503c0 2.311345.0991669 4.0962154.7529063 6.0046455.3485042 1.0172525.8705168 2.0292586 1.645274 2.7748904.7695379.7406289 2.1024102 2.1371065 4.7825687 2.1566586v.0032452c.0279706 0 .0533614-.0027043.0808939-.0027043.0272459-.0000811.0527097.0027043.0803531.0027043v-.0032452c2.6801315-.019471 4.0129227-1.4160297 4.7825687-2.1566586.7747031-.7456318 1.2967969-1.7576379 1.6452469-2.7748904.6537395-1.9084572.7529335-3.6935438.7529335-6.0046455v-9.9875503h-2.0954331v10.0524537c0 1.9498872-.1806423 3.2522008-.3724643 4.4191097-.4112441 2.5018365-2.532909 4.4445302-4.7931155 4.5207917-2.260504-.0758829-4.3823311-2.0187118-4.7936564-4.5207917-.1918301-1.1670441-.3724643-2.4692225-.3724643-4.4191097v-10.0524537z"/><path d="m64.5085629 61.07301v20.4540336h-2.1526562v-10.1114076h-9.7936514v10.1114076h-2.1232604v-20.4540336h2.1232604v8.1369924h9.7936514v-8.1369924z"/><path d="m100.835532 81.5283957h2.123342v-20.4540335h-2.123342z"/><path d="m134.780006 61.07301c-.57545 1.0421051-5.958942 10.7339393-5.958942 10.7339393v9.7200943h-2.2022v-9.7200943s-5.516517-9.6833156-6.11444-10.7339393h2.315807c.182752.3267075 4.889389 8.7735865 4.889389 8.7735865s4.54486-8.4385227 4.723615-8.7735865z"/><path d="m119.403311 61.0297411v2.2082027h-5.659576v18.2429913h-2.149898v-18.2429913h-5.824268v-2.2081756z"/><path d="m87.197707 61.0756873v20.4532493h2.1253698v-8.8384898h2.8262722s4.6627679 8.5061303 4.8469313 8.8384898h2.4502112c-.5858072-1.0280968-5.3045002-9.3203975-5.3045002-9.3203975l.4239003-.1404347c1.0141426-.335226 1.3629712-.5520304 1.8650531-1.1745621.8425542-.9885869 1.3426889-2.4817705 1.3426889-3.9942629 0-2.7321624-1.5324773-5.0129758-3.7273477-5.545454-.6699653-.1633402-1.3230557-.2472008-1.9588114-.2472008l-2.1999005-.0309373zm2.1253698 2.1425421h1.6751835c.5615766 0 1.5082737.0617123 2.0390212.1573096.5302607.0705013 1.0385625.2789494 1.457.5943258.7642645.537995 1.2399523 1.6730472 1.2399523 2.9601355 0 2.4982668-1.3114271 3.7132853-4.0023758 3.7132853h-2.4087812z"/><path d="m7.06094818 60.9729507c-.15303409.4506999-6.69559617 19.4772374-7.02714433 20.4488953h2.23492126c.14326342-.4253065 1.70755415-5.0843695 1.70755415-5.0843695h8.20595214s1.6134713 4.6619566 1.7600178 5.0843695h2.3118858c-.3509651-.977364-7.13477575-20.0094453-7.29243691-20.4488953zm.9730641 2.9828517 3.45772822 10.1773927h-6.78916524l3.03829003-9.2838894z"/></g></svg>