<svg height="100" viewBox="0 0 195 100" width="195" xmlns="http://www.w3.org/2000/svg"><g fill="none" transform="translate(30 9)"><path d="m0 0h2v82h-2z" fill="#7f3f98"/><g fill="#000"><path d="m20 3v1.70833332c.4772727.04166668.8181818.20833331 1 .29166668-.0909091-1-.4772727-1.75-1-2"/><path d="m19.6603774 1.36263737c0 .3076923-.1132076.5054945-.2641509.63736263 0 0 .2641509-.04395605.6037735-.04395605.2264151 0 .5660378.04395605.6037736.04395605-.1509434-.13186813-.264151-.32967033-.264151-.63736263 1.1698114 0 1.4339623.3076923 1.4339623.57142856h.2264151v-.76923076-.76923077h-.2264151c0 .26373626-.3018867.57142857-1.4339623.57142857 0-.68131868.528302-.83516484.9811321-.83516484v-.13186813h-1.3207547-1.3207547v.13186813c.4528302 0 .9811321.17582418.9811321.83516484-1.1698113 0-1.4339623-.30769231-1.4339623-.57142857h-.2264151v.76923077.76923076h.2264151c0-.26373626.264151-.57142856 1.4339623-.57142856"/><path d="m19 3c-.5.25-.8863636 1.04166666-1 2 .1818182-.08333337.5227273-.25 1-.29166668z"/><path d="m20 31c0 .5384615.4615385 1 1 1s1-.4615385 1-1-.4615385-1-1-1c-.5769231.0384616-1 .4615385-1 1m.5 0c0-.2692308.2307692-.5.5-.5s.5.2307692.5.5-.2307692.5-.5.5c-.3076923 0-.5-.1923077-.5-.5"/><path d="m20 20.659836c0-.3729507-.3468208-.659836-.7976878-.659836h-.1387284-4.3699422c-.3815028 0-.6936416.2581967-.6936416.5737705 0 .2295082.2080925.4016394.4855491.4016394.2774567 0 .4855492-.1721312.4855492-.4303279.1040462.0860655.2080924.1434426.3468208.2008196-.0693642.2295083-.1387284.545082-.1734104.9180328-.0693642-.0860656-.1734104-.1147541-.2774567-.1147541-.1734104 0-.3468208.1147541-.3468208.2868852 0 .1434427.1387283.2868853.3468208.2868853.1040463 0 .2080925-.057377.2774567-.1147541 0 .2008197 0 .4016394.034682.6311475-.0693641-.0286884-.1387283-.057377-.2080924-.057377-.1734105 0-.3468208.1147541-.3468208.2868853 0 .1434426.1387283.2868852.3468208.2868852.1040462 0 .2427746-.0573771.2774566-.1434426 0 .0286885 0 .057377.0346821.0860655.0693641.1721312.1387283.3442623.2080925.487705-.0346822-.0286885-.1040463-.0286885-.1734104-.0286885-.1734104 0-.3468208.1147541-.3468208.2868852 0 .1434426.1387283.2868852.3468208.2868852.1734104 0 .3121387-.1147541.3468208-.2295081.1040462.1721311.2427745.3442622.4161849.5163934-.0346821 0-.0346821 0-.0693641 0-.1734104 0-.3468208.114754-.3468208.2868852s.1387283.2868853.3468208.2868853c.1734104 0 .3468208-.1147541.3468208-.2868853 0 0 0 0 0-.0286885.5202312.4303279 1.1791907.8032787 1.9768786 1.0614754l-.1387283.8606558s.3121387.1147541.7976879.2295081c.4855491.1147541.9364162.1721312.9364162.1721312zm-4.0924856.3442624s.0346822 0 .0693642.0286885l2.4624277 4.1311476c-3.0520231-1.1475411-2.7398844-3.2131148-2.5317919-4.1598361zm2.6011561 3.8442623-2.2543352-3.7581968c.1387283.0286886.2774566.0286886.4161849.0286886l1.9421966 3.2418033zm.1387283-.8319673-1.734104-2.9262295c.1387283 0 .2427745-.0286885.3468208-.057377l1.4566473 2.4672131zm.1387283-.8319672-1.317919-2.1803278c.1040463-.0286885.2080924-.0573771.3121387-.1147542l1.0751445 1.7786886zm.1387284-.8319672-.9364162-1.5491803c.1040463-.0573771.2080925-.1147541.2774566-.1721312l.7283238 1.204918zm.2427745-1.4344262-.1040462.6311475-.5895953-1.0040983c.0693641-.0286886.1387283-.0286886.2080924-.0286886.2774567-.0286885.5202313.1721312.4855491.4016394z"/><path d="m17 5.49841721c0-.2658225.2333333-.49841721.5-.49841721s.5.23259471.5.49841721c0 .29905033-.2333333.49841721-.5.49841721-.2666667.03322783-.5-.19936688-.5-.49841721"/><path d="m11 6.5c0-.26666665.2333333-.5.5-.5.3 0 .5.23333335.5.5 0 .3-.2333333.5-.5.5s-.5-.23333335-.5-.5"/><path d="m11 6.49841721c0-.29905033.2333333-.49841721.5-.49841721s.5.23259471.5.49841721c0 .26582254-.2333333.49841721-.5.49841721-.2666667.03322783-.5-.19936688-.5-.49841721"/><path d="m11 5.5c0-.26666668.2333333-.5.5-.5.3 0 .5.23333332.5.5s-.2333333.5-.5.5-.5-.23333332-.5-.5"/><path d="m12 5.49841721c0-.2658225.2333333-.49841721.5-.49841721.3 0 .5.23259471.5.49841721s-.2333333.49841721-.5.49841721c-.2666667.03322783-.5-.19936688-.5-.49841721"/><path d="m13 4.49841721c0-.2658225.2333333-.49841721.5-.49841721s.5.23259471.5.49841721c0 .29905033-.2333333.49841722-.5.49841722-.2666667.03322778-.5-.19936689-.5-.49841722"/><path d="m14 4.49841721c0-.2658225.2333333-.49841721.5-.49841721.3 0 .5.23259471.5.49841721 0 .26582254-.2333333.49841721-.5.49841721-.2666667.03322783-.5-.19936688-.5-.49841721"/><path d="m15 4.49841723c0-.26582255.2333333-.49841723.5-.49841723.3 0 .5.23259468.5.49841723 0 .26582251-.2333333.49841719-.5.49841719-.2666667.03322783-.5-.19936685-.5-.49841719"/><path d="m16 5.5c0-.26666668.2333333-.5.5-.5.3 0 .5.23333332.5.5 0 .29999999-.2333333.5-.5.5s-.5-.23333332-.5-.5"/><path d="m23 5.49841721c0-.2658225-.2333333-.49841721-.5-.49841721s-.5.23259471-.5.49841721c0 .29905033.2333333.49841721.5.49841721.2666667.03322783.5-.19936688.5-.49841721"/><path d="m28 6.5c0-.26666665-.2333333-.5-.5-.5-.3 0-.5.23333335-.5.5 0 .3.2333333.5.5.5s.5-.23333335.5-.5"/><path d="m29 6.49841721c0-.29905033-.2333333-.49841721-.5-.49841721s-.5.23259471-.5.49841721c0 .26582254.2333333.49841721.5.49841721.2666667.03322783.5-.19936688.5-.49841721"/><path d="m29 5.5c0-.26666668-.2333333-.5-.5-.5-.3 0-.5.23333332-.5.5s.2333333.5.5.5c.3 0 .5-.23333332.5-.5"/><path d="m28 5.49841721c0-.2658225-.2333333-.49841721-.5-.49841721s-.5.23259471-.5.49841721.2333333.49841721.5.49841721c.2666667.03322783.5-.19936688.5-.49841721"/><path d="m27 4.49841721c0-.2658225-.2333333-.49841721-.5-.49841721-.3 0-.5.23259471-.5.49841721 0 .29905033.2333333.49841722.5.49841722.2666667.03322778.5-.19936689.5-.49841722"/><path d="m26 4.49841721c0-.2658225-.2333333-.49841721-.5-.49841721-.3 0-.5.23259471-.5.49841721 0 .26582254.2333333.49841721.5.49841721.2666667.03322783.5-.19936688.5-.49841721"/><path d="m25 4.49841723c0-.26582255-.2333333-.49841723-.5-.49841723-.3 0-.5.23259468-.5.49841723 0 .26582251.2333333.49841719.5.49841719.3.03322783.5-.19936685.5-.49841719"/><path d="m24 5.5c0-.26666668-.2333333-.5-.5-.5s-.5.23333332-.5.5c0 .29999999.2333333.5.5.5.3 0 .5-.23333332.5-.5"/><path d="m23 10.5c0-.2647059-.2352941-.5-.5-.5s-.5.2352941-.5.5.2352941.5.5.5.5-.2352941.5-.5"/><path d="m20 14v6h6v-6zm5.8255814 5.8453608h-5.6511628v-5.6597938h2.1976745.8372092 2.5813954z"/><path d="m20.3378378 13h-.3378378v4.7058823.2941177h.3378378 4.3243244.3378378v-.2941177-4.4117646-.2941177h-.3378378-1.8581081-.9797298zm4.3243244.1470588v.1470589h.1689189v4.4117646h-.1689189v.1470589h-4.3243244v-.1470589h-.1689189v-4.4117646h.1689189v-.1470589z"/><path d="m24.9636364 15.8985507-.2909091.2318841s-.0363636 0-.0363636.0289854l-.5454546.4057972c-.1818181.115942-.2181818.3188406-.0727273.4637681l.3272728.3478261c.0363636.0289855.0363636.057971.0363636.115942 0 .0289855-.0363636.0869566-.0727272.0869566-.0363637.0289854-.0727274.0289854-.1454546.0289854-.0363637 0-.109091-.0289854-.109091-.057971 0 0-.3272727-.347826-.4727272-.5217391v-.4927536l.7636364-.5797101v-.4927536l-.2545455-.2028986.3272727-.2608696h-1.3454545l-.3272727.2608696v.289855c.0363636-.0289855.1090908-.0289855.1454545-.0289855.1454546 0 .2909091.1159421.2909091.2318841s-.1454545.2318841-.2909091.2318841c-.0363637 0-.1090909 0-.1454545-.0289855v.347826h-.4727273l-.5454546-.6086956c.0727273-.057971.1090909-.1449276.1090909-.231884 0-.1739131-.1818182-.2898552-.3636363-.2898552-.0727273 0-.1454546.0289856-.2181819.0579711v.173913.2898551.0289855h.0363637l.5090909.5797101.2545454.2898551h.4727273.1454546l-.3272727.2608696h-.6545456c-.0363636-.115942-.1818181-.1739131-.3272727-.1739131-.1454545 0-.290909.0869565-.3272727.1739131 0 .0289855-.0363636.057971-.0363636.115942s.0363636.1449275.0727273.173913h.5818181.9090909l.2545455.2898551h-.5818182-.4363636l.4.4347826.2181818.2318841h-.5090909c-.0363636-.115942-.1818182-.2028986-.3636363-.2028986-.1454546 0-.2909092.0869566-.3636364.2028986v.0869565c0 .0869565.0363636.1449276.1090909.2028985h.5454545.8727273.4363637l-.2545455-.289855-.2181818-.2318841h.5818181l.2181819.2318841.2545454.289855h.7636364.1090909v.3188407h-.1090909c-.0363637-.1159421-.1818181-.2028986-.3636364-.2028986-.1818181 0-.2909091.0869565-.3636363.2028986v.0869564c0 .0869566.0363636.1449276.1090909.2028986h1.0909091v-.6376811-.2898551h-.3636364-.3636364l-.3636363-.3768116c.0727273.057971.1454545.115942.2545454.115942s.2181819 0 .3272727-.057971c.1090909-.057971.1454546-.1449276.1818183-.2318841 0-.0869565 0-.173913-.0727274-.2608695l-.3272727-.3478261c-.0727272-.057971-.0363636-.173913.0363637-.2028985 0 0 .0727273-.0579711.1454545-.1159421.1454545.0869565.3272728.0869565.4727273 0 .0727273-.057971.1090909-.115942.1090909-.2028985z"/><path d="m20 10.5.5-.5.5.5-.5.5z"/><path d="m17 10.5c0-.2647059.2352941-.5.5-.5s.5.2352941.5.5-.2352941.5-.5.5-.5-.2352941-.5-.5"/><path d="m25.685551 21.875c0-.0625 0-.09375 0-.15625 0-.21875-.1733399-.375-.4160159-.375h-1.4907237c0-.15625-.17334-.3125-.34668-.3125-.1040039 0-.1733399.03125-.2426759.09375l-.4506839.40625h.4506839.5200199 1.5600597c.104004 0 .1733399.0625.1733399.15625s-.0693359.15625-.1733399.15625h-1.0053718-1.9414077v-.375l.52002-.46875h-2.0454118l.5200199.46875v.6875l-.8320318-.59375c.069336-.0625.104004-.15625.104004-.25 0-.1875-.17334-.3125-.34668-.3125-.0693359 0-.1733399.03125-.2426759.0625v.46875.09375l1.2827157.9375-.5893558.15625c-.0346681-.125-.17334-.21875-.34668-.21875-.208008 0-.3466799.15625-.3466799.3125 0 .0625.034668.15625.069336.1875h.4160159.3120119l3.1894556-.90625v.4375l-.416016.15625c-.034668-.15625-.17334-.25-.3466799-.25-.208008 0-.34668.15625-.34668.3125 0 .0625.034668.15625.069336.1875h.381348.4160159l.4853519-.21875.3120119-.125-.138672-.28125v-.0625h1.1787118c0 .03125-.034668.09375-.034668.125-.0346679.0625-.0693359.15625-.104004.21875-.0693359-.0625-.1733399-.09375-.2773439-.09375-.208008 0-.3466799.15625-.3466799.3125 0 .0625.034668.15625.069336.1875h.5546878.17334c.104004-.1875.17334-.40625.208008-.53125.104004-.28125.17334-.53125.17334-.625.0346679.03125-.312012.03125-.312012.03125zm-3.8481473.03125-.34668-.3125h.6933599z"/><path d="m25.5955056 20.8615385c.0337079-.0615385.0337079-.0923077.0337079-.1538462 0-.2153846-.1685394-.3692307-.4044944-.3692307h-1.5168539c0-.1538462-.1685393-.3076924-.3370787-.3076924-.1011235 0-.1685393.0307693-.235955.0923077l-.4382023.4000001h.4382023.5056179 1.6179776c.1011236 0 .1685393.0615384.1685393.1538461s-.0674157.1538461-.1685393.1538461h-1.0449439-1.9213483v-.3692307l.5056181-.4615385h-1.9887642l.5056181.4615385v.6769231l-.8089889-.5846154c.0674158-.0615385.1011237-.1538462.1011237-.2153846 0-.1846154-.1685393-.3076924-.3370787-.3076924-.0674157 0-.1685393.0307693-.235955.0615385v.4615385.0923077l1.2134831.8923076-.5730337.1538462c-.0337079-.1230769-.1685394-.2153846-.3370787-.2153846-.2022471 0-.3370786.1538461-.3370786.3076923 0 .0615385.0337079.1538462.0674157.2153846h.5393259.1685393l3.1011236-.8923077v.4615385l-.4044944.1230769c-.0337078-.1230769-.1685393-.2153846-.3370786-.2153846-.2022472 0-.3370786.1538461-.3370786.3076923 0 .0615385.0337078.1538462.0674156.2153846h.5393259.235955l.7752809-.2153846.3707866-.1230769-.3033708-.2461539-.2022472-.1846153h1.3820225v.3384615c-.0674158-.0615385-.1685393-.123077-.2696629-.123077-.2022472 0-.3370787.1538462-.3370787.3076924 0 .0615384.0337079.1538461.0674157.2153846h.5393259.3370786v-.7692308-.1538461-.2153847zm-3.7752809.0307692-.3370786-.3076923h.6741572z"/><path d="m24.6474558 25.2061856h-.5288163c0-.1030928-.1468934-.2061856-.2937868-.2061856-.0881361 0-.1468934.0206185-.2056508.0618557l-.3819229.2680412h.3819229.470059.5875736c.088136 0 .1468934.0412371.1468934.1030928 0 .0618556-.0587574.1030928-.1468934.1030928h-.8519818-.8813605v-.2061856l.4406803-.3092784h-1.7333424l.4406803.3092784v.5154639l-.7050884-.4536082c.0587574-.0412371.1175148-.1030928.1175148-.1649485 0-.1237113-.1468935-.2061856-.2937869-.2061856-.0587574 0-.1468934.0206186-.2056507.0412372v.2268041.1237113l1.1163899.7216495.0587574-.0412371-.7050884.5979382c-.0587574-.0412372-.1468935-.0412372-.2056508-.0412372-.1762721.0206186-.2937868.1237114-.2644081.2268042 0 .0412371.0293786.0824742.0587573.1237113.1175148 0 .2644081-.0206185.4994376-.0412371l.7932244-.6597938c.1175148-.0206186.2056508-.0618557.3231656-.0824742l.3231655.2061855c-.0587574.0206185-.1175147.0412371-.1762721.0618557-.0881361-.0412372-.2056508-.0618557-.2937869-.0412372-.1468933.0412372-.2350294.1649486-.1762721.2680413.0293788.0412371.0587574.0618557.0881361.0824743 0 0 .1175147-.0206186.2350295-.0618557.1175147-.0412371.2350294-.0618557.2350294-.0618557.1468934-.0412371.2644082-.0824742.3819229-.1237114v-.2474226-.3092784c.2056508-.0824742.3819229-.1649484.5288163-.2680412l.2937868.185567c-.0587574.0412371-.1175147.0618556-.2056508.1030928-.088136-.0412372-.2056508-.0412372-.2937868 0-.0587574.0206186-.1175147.0824742-.1468934.1237113v.0824743c0 .0206185.0293787.0618556.0293787.0824742.0293786.0412371.0881361.0618556.1468934.0824742.1468934-.0618557.2644081-.1237114.4113015-.185567.0881361-.0412371.2056508-.1030928.2937868-.1649484.0293788-.0206186.0587574-.0412372.0881361-.0618558v-.2061855-.0618557h.2056508c.2056507 0 .3525442-.1030928.3525442-.2474226 0-.1237114-.1468935-.2474227-.3525442-.2474227zm-2.1740225.3917525-.2937868-.2061855h.5875736z"/><path d="m19.625 17.8615385c.0340909-.0615385.0340909-.0923077.0340909-.1538462 0-.2153846-.1704545-.3692307-.4090909-.3692307h-1.5340909c0-.1538462-.1704546-.3076924-.3409091-.3076924-.1022727 0-.1704546.0307693-.2386364.0923077l-.4431817.4000001h.4090908.5454546 1.6363636c.1022727 0 .1704545.0615384.1704545.1538461s-.0681818.1538461-.1704545.1538461h-1.0568182-1.9090909v-.3692307l.5113637-.4615385h-2.0113636l.5113636.4615385v.6769231l-.8181819-.5846154c.0681819-.0615385.1022728-.1538462.1022728-.2153846 0-.1846154-.1704545-.3076924-.3409091-.3076924-.1022727 0-.1704546.0307693-.2386364.0615385v.4615385.0923077l1.2272727.8923076-.5795454.1538462c-.0340909-.1230769-.1704546-.2153846-.3409091-.2153846-.2045455 0-.3409091.1538461-.3409091.3076923 0 .0923077.0340909.1538462.0681819.2153846h.5454545.1704546l3.1363635-.8923077v.4615385l-.4090909.1230769c-.0340909-.1230769-.1704545-.2153846-.3409091-.2153846-.2045454 0-.340909.1538461-.340909.3076923 0 .0923077.0340909.1538462.0681818.2153846h.5454545.1704546l.7840909-.2153846.375-.0923077-.3068182-.2461539-.2045455-.1846153h1.3977273v.3384615c-.0681818-.0615385-.1704545-.1230769-.2727273-.1230769-.2045455 0-.3409091.1538461-.3409091.3076923 0 .0923077.034091.1538462.0681819.2153846h.5454545.3409091v-.7384615-.4zm-3.8522727.0307692-.3409092-.3076923h.6818183z"/><path d="m19.6271186 16.8615385c.0338984-.0615385.0338984-.0923077.0338984-.1538462 0-.2153846-.1694915-.3692308-.4067797-.3692308h-1.5254237c0-.1538461-.1694915-.3076923-.3389831-.3076923-.1016949 0-.1694916.0307693-.2372881.0923077l-.440678.4h.4067796.5084746 1.6271187c.1016948 0 .1694915.0615385.1694915.1538462s-.0677967.1538461-.1694915.1538461h-1.0508475-1.8983051v-.3692308l.5084746-.4615384h-2l.5084745.4615384v.6769231l-.8135593-.5846154c.0677967-.0615384.101695-.1538461.101695-.2153846 0-.1846154-.1694915-.3076923-.338983-.3076923-.101695 0-.1694916.0307693-.2372882.0615385v.4615384.0923077l1.220339.8923078-.5762712.1538461c-.0338983-.1230769-.1694916-.2153846-.3389831-.2153846-.2033898 0-.338983.1538462-.338983.3076923 0 .0615385.0338983.1538461.0677966.2153846h.5423729.1694915l3.1186441-.8923077v.4615385l-.4067797.1230769c-.0338983-.1230769-.1694915-.2153846-.338983-.2153846-.2033899 0-.3389831.1538462-.3389831.3076923 0 .0615385.0338983.1538461.0677966.2153846h.5762712.1694915l.779661-.2153846.3728814-.1230769-.3050847-.2461539-.2033899-.1846154h1.3898306v.3384616c-.0677967-.0615385-.1694915-.1230769-.2711865-.1230769-.2033898 0-.3389831.1538461-.3389831.3076923 0 .0615384.0338984.1538461.0677967.2153846h.5423729.338983v-.7692308-.4h-.3728814zm-3.8305084.0307692-.3389831-.3076923h.6779661z"/><path d="m19.6590909 14.8615384c.034091-.0615384.034091-.0923076.034091-.1538461 0-.2153846-.1704546-.3692308-.409091-.3692308h-1.5340909c0-.1538461-.1704545-.3076923-.3409091-.3076923-.1022728 0-.1704545.0307692-.2386364.0923077l-.4431818.4h.4090909.5113637 1.6363636c.1022727 0 .1704545.0615385.1704545.1538462s-.0681818.1538461-.1704545.1538461h-1.0568182-1.9090908v-.3692307l.5113636-.4615385h-2.0113636l.5113635.4615385v.676923l-.8181818-.5846153c.0681819-.0615385.1022728-.1538462.1022728-.2153847 0-.1846154-.1704546-.3076923-.3409091-.3076923-.1022728 0-.1704546.0307692-.2386364.0615385v.4615385.0923077l1.2272727.8923076-.5795455.1538462c-.0340908-.1230769-.1704545-.2153846-.3409091-.2153846-.2045454 0-.340909.1538461-.340909.3076923 0 .0923077.0340909.1538462.0681818.2153846h.5454546.1704545l3.1363636-.8923077v.4615385l-.4090909.1230769c-.0340909-.1230769-.1704546-.2153846-.3409091-.2153846-.2045454 0-.340909.1538461-.340909.3076923 0 .0923077.0340909.1538462.0681818.2153846h.5454545.1704546l.7840909-.2153846.375-.0923077-.3068182-.2461539-.2045455-.1846153h1.3977273v.3384615c-.0681818-.0615385-.1704545-.1230769-.2727273-.1230769-.2045455 0-.3409091.1538461-.3409091.3076923 0 .0923077.034091.1538462.0681819.2153846h.5454545.3409091v-.7692308-.4zm-3.8522728.0615385-.340909-.3076923h.6818182z"/><path d="m27.6452416 18.9920533c.2884801-.0838703.4121144-.3774162.3296915-.629027-.0412114-.1258054-.1236343-.2516108-.2472686-.2935459-.1236344-.0838703-.2472687-.0838703-.370903-.0419351-.1236344.0419351-.2472687.1258054-.2884801.2516108-.0824229.1258054-.0824229.2516107-.0412115.3774161.0824229.2516108.370903.3774162.6181717.3354811"/><path d="m26 21.2063492.0487805.3492063.9756098-.1904762c.0243902 0 .9756097.6349207.9756097.6349207l-.0487805-.4444445s-.6341464-.4126984-.6829268-.4444444c.0487804-.0634921.5609756-.6666667.5609756-.6666667l-.0487805-.4444444-.0243903.031746s-.7560975.920635-.7804878.952381c0 .031746-.9756097.2222222-.9756097.2222222"/><path d="m27 20.5330087c0 .1142162.04.2284323.16.3426485.08.0761441.2.1522882.36.1142162.12 0 .24-.0380721.36-.1522883.08-.0761441.12-.1903602.12-.3426484 0-.1142162-.04-.2284324-.16-.3426485-.08-.0761441-.2-.1522882-.36-.1522882-.28.038072-.48.2665043-.48.5330087"/><path d="m26.025 21-.025.4203597s.775.1528581.825.1910726c0 .0382145-.025.3439307-.025.3439307v.1910726c0 .1910726.025.3821452.1.5350032.075.1528581.2.2675017.375.3057162.35.0764291.6-.1910726.65-.7260759l.075-.8407194zm1.6.7642904c0 .0382145-.025.4203597-.025.4203597-.025.3821452-.225.3821452-.3.3439307-.15-.0382145-.25-.1910726-.25-.3821452 0-.0382145 0-.0382145 0-.076429 0 0 .025-.3057162.025-.3821452.05-.0382146.525.0382145.55.076429z"/><path d="m26.2988505 22-.2988505 1.2063492.2528735.1269841s.2068966-.8571428.2068966-.8888889c.0229885.0317461.4367816.1904762.4827586.2222223-.0229885.063492-.2068965.8253968-.2068965.8253968l.2528735.1269841s.1839081-.7936508.2068966-.8253968c.0229885.031746.4367816.1904762.4597701.2222222-.0229885.0634921-.2068965.8571429-.2068965.8571429l.2528735.1269841.2988506-1.2063492z"/><path d="m25.6534653 25-.0990098.1684211s.8712871.5894736.950495.6526316c-.0990099 0-1.4059406.1263157-1.4059406.1263157l-.0990099.1684211 1.3069307.8842105.1188119-.1894737s-.8712871-.5894736-.9504951-.6526316c.09901 0 1.4257426-.1473684 1.4257426-.1473684l.0990099-.168421z"/><path d="m24.9565217 26.8533334c-.231884.0266666-.4347826.0799999-.5797101-.0533334-.057971-.0533333-.115942-.2133333.0289855-.3466666.1449275-.1333334.3478261-.16.5797102-.1333334h.0869565l-.3478261-.32c-.2318841.0266667-.4057971.08-.5507247.24-.115942.1066667-.173913.24-.173913.3733334 0 .16.057971.2933333.2028986.4266666.289855.2666667.6086956.2133333.8985507.16.2028985-.0533333.3768116-.08.5217391.0266667.0289855.0533333.057971.08.057971.1333333 0 .08-.0289855.1333333-.115942.2133333-.115942.1066667-.2608696.16-.4637681.1333334h-.057971l.3188405.2933333c.1739131-.0266667.3188406-.08.4347826-.1866667.1449276-.1333333.2028986-.2666666.2028986-.4 0-.1333333-.057971-.2933333-.2028986-.4-.2608695-.2666666-.5797101-.2133333-.8405797-.1599999"/><path d="m22.868421 26-.868421.5.1578947.2272727s.6052632-.3636364.6578948-.3863636c.0263158.0227272.2894736.3863636.3157894.4090909-.0263158.0227273-.6052631.3636363-.6052631.3636363l.1578947.2272728s.5789474-.3409091.6052632-.3409091c.0263158.0227273.2894736.3636363.3157894.4090909-.0263158.0227273-.6315789.3636364-.6315789.3636364l.1578947.2272727.8684211-.5z"/><path d="m15.3763441 27.1020408c-.0215054-.0204081-.6451613-.3877551-.6666667-.4081633.0215054-.0204081.3870968-.5714285.3870968-.5714285l-.2150538-.122449v.0204081l-.8817204 1.3265307.2150538.1224489s.3655913-.5510204.3870967-.5714285c.0215054.0204081.6451614.3877551.6666667.4081633-.0215053.0204081-.3870968.5714285-.3870968.5714285l.2150538.122449.9032258-1.3469388-.2150538-.1224489c-.0215053 0-.3870967.5306122-.4086021.5714285"/><path d="m15.9960885 25.9918573c.0255412-.2542464-.0766232-.483068-.2298698-.6610404-.4341984-.4830681-1.0216434-.3813696-1.4047596-.0508494-.2298698.2033972-.3575752.4576434-.3575752.7118898-.0255412.2542463.0766232.483068.2554108.6864651.3575752.4067941.9705612.4322187 1.4047598.0508493.1787875-.2033971.306493-.4576434.332034-.7373144m-.306493 0c0 .1779724-.1021643.3813695-.2554108.5084926-.3064931.279671-.7151504.279671-.9705613-.0254246-.1277055-.1271232-.1787876-.3050956-.1532465-.4576434 0-.1779724.1021643-.3559448.2554108-.5084926.1532466-.1271232.3575752-.2033971.5363628-.2033971s.3320342.0762739.4341985.2033971c.1021643.1525478.1532465.3050956.1532465.483068"/><path d="m12.9183673 25.0869565s-.9795918.4782609-1.0612244.5217392c.0408163-.0869566.6734694-1.4130435.6734694-1.4130435l-.0816327-.1956522h-.0204082l-1.4285714.7173913.1020408.2173913s.9795919-.4782609 1.0612245-.5217391c-.0408163.0869565-.6734694 1.4130434-.6734694 1.4130434l.0816327.1739131 1.4285714-.7173913z"/><path d="m12.9487179 22-.025641.0322581-1.9230769.5806451.0769231.3870968 1.9230769-.6129032z"/><path d="m12.7900918 21.0965238c-.1222276-.0806952-.2444552-.1210428-.3666829-.0806952-.1222276 0-.2444552.0806952-.3259403.2017381-.0814851.1210428-.1222277.2420857-.0814851.3631286 0 .1210428.0814851.2420857.2037127.3227809.1222277.0806952.2444553.1210429.3666829.0806952.2851979-.0403476.448168-.2824333.4074255-.5648666-.0407426-.1613905-.1222276-.2420858-.2037128-.322781"/><path d="m12.0886076 20.5476191c.1265823-.1666667.2278481-.3095239.4050633-.3095239.0506329 0 .1012658.0238096.1518987.0714286.0506329.0476191.0759493.1190476.0759493.1904762 0 .1428571-.1012658.2857143-.278481.4047619l-.0506328.0476191h.4303797c.1265823-.1428572.1772152-.2857143.1772152-.4761905 0-.1190476-.0506329-.2380953-.1265823-.3333334-.1012658-.0952381-.2531646-.1428571-.4050633-.1428571-.3544303 0-.5063291.2142857-.6582278.4285714-.1012659.1428572-.1772152.2857143-.3291139.2857143-.050633 0-.1012659-.0238095-.1265823-.047619-.0506329-.0476191-.0759494-.1190476-.0759494-.1904762 0-.1190476.0759494-.2619048.2025317-.3571429l.0506328-.0238095h-.3797468c-.1012658.1190476-.1518987.2380952-.1518987.3809524 0 .1666666.0506329.2857143.1518987.3809524s.2278481.1428571.3797468.1428571c.2531646-.047619.4050634-.2619048.5569621-.4523809"/><path d="m11.8003427 20.9628844c.2751178.0789951.5502356.0263317.775332-.1053269.2000856-.1316585.3501499-.3423122.4001713-.6056292.0500215-.2633171.0250107-.5266342-.1000428-.7372879-.1250535-.2369854-.3751607-.4213073-.6502785-.4739708-.5502356-.1579902-1.0754605.1579903-1.200514.7109562-.0250107.0789951-.0250107.1579903-.0250107.2369854 0 .1843219.0500214.3423122.1250535.4739707.175075.2633171.4001714.4476391.6752892.5003025m-.4501928-1.1322635c.0500214-.184322.1500643-.3159805.2751178-.4213074.1500643-.1053268.35015-.1316585.5502356-.0789951.2000857.0526634.3751606.184322.4501928.3423123.0750321.1579902.1000428.3159805.0750321.5003024-.1000428.368644-.4501927.5792976-.8503641.4739708-.3751606-.0789952-.600257-.4213074-.5002142-.816283"/><path d="m30 19.866134c0-2.5894107-1.0806675-5.0169831-3.0667593-6.8511489-.2336579-.2157843-.4673158-.4045955-.7301809-.6203797v-.3776224c.4089013-.026973.759388-.3506494.759388-.7282717 0-.4045954-.3504867-.7282717-.7885952-.7282717-.0292073 0-.0292073 0-.0584145 0l.7593881-.3236764-.2920724-.5934065 1.1390821-2.45454548-.496523-.18881122-1.1682892 2.50849147-.6133519.2697303.4089012.80919083h-3.3588317-5.9582754-3.3588317l.4089012-.80919083-.6425591-.2697303-1.1682892-2.50849147-.496523.18881122 1.1390821 2.45454548-.2920724.5934065.7593881.3236764s0 0-.0292072 0c-.4381085 0-.7885954.3236763-.7885954.7282717 0 .3776223.3212796.7012987.7301809.7282717v.3776224c-.2336579.1888112-.496523.4045954-.7301809.6203797-1.9860918 1.8341658-3.0667593 4.2617382-3.0667593 6.8511489 0 1.9960039.64255909 3.9110889 1.8984701 5.5564435 1.2267037 1.5914087 2.891516 2.8051948 4.8776078 3.4795205 0 0 .1168289.026973.2920723.1078921.0292072.2697303.2044506.5124875.4673157.5934066.2920724.1078922.6133519 0 .7885953-.1888112h.0292073v2.7512489c0 1.0249748.9346314 1.8341656 2.1029207 1.8341656 1.1682892 0 2.1029207-.8361635 2.1029207-1.8341656v-1.8341659l5.1404729-2.2657344c.1752434-.053946.3212795-.134865.4673157-.2427572.4089012-.3506493.4673157-.8901099.2044506-1.5914086.4673157-.4855144.876217-.998002 1.1974965-1.5644355.9346315-1.4565435 1.4311544-3.1018982 1.4311544-4.8011988zm-5.4617524-8.847153 1.5187761.2967033-1.5187761.2967033zm-4.8776078 14.7272729v-7.2827174h6.0166899v1.3756244c0 1.3486513-.2628651 2.2657343-.6425592 2.94006-.3212795.4855144-.7009735.9440559-1.1682893 1.3486513-.0292072.0269731-.0584144.053946-.0876217.0809191-1.1098748.971029-2.5994436 1.5104895-4.1182197 1.5374626zm1.8108484.2427572c-.1168289.2427572-.2044507.5124875-.2628651.8091908-.5841447-.1888112-1.1390821-.3776224-1.6940195-.5664336.6717664.026973 1.3435327-.080919 1.9568846-.2427572zm-1.8108484-7.7682318v-6.1768233h5.0820584.9346315v4.855145 1.3216783zm2.1029207-7.2017983 1.5187761.2967033-1.5187761.2967033zm-2.8038943 0 1.5187761.2967033-1.5187761.2967033zm-2.8331015 0 1.518776.2967033-1.518776.2967033zm-2.7454798 0 1.518776.2967033-1.518776.2967033zm0 5.88012v-4.855145h.9346314 5.0820584v6.1768233h-6.0166898zm0 1.5644355h6.0166898v7.2827174c-1.2267038-.0269731-2.4242003-.3776224-3.4464534-1.024975-.0292073-.0269731-.0876217-.0539461-.116829-.0809191l-.0292072-.0269731c-.0292072-.026973-.0584144-.026973-.0876217-.053946-.0292072-.0269731-.0584145-.0539461-.0876216-.0539461 0 0 0 0-.0292073-.026973-.6425591-.4585415-1.1974965-1.0519481-1.6063978-1.7262738-.379694-.6743257-.6133518-1.5914086-.6133518-2.9130869zm2.8623087 10.0879122c-.0876217-.026973-.1752434-.0539461-.2336578-.0809191-1.8692629-.6473527-3.4756607-1.8071928-4.6147427-3.3176824-1.1682893-1.5374625-1.81084847-3.3716284-1.81084847-5.2867132 0-2.4545455 1.02225317-4.7472528 2.92072327-6.5004996.1168289-.1078921.2336578-.2157843.3504868-.2967033v2.5084915c-.4089013-.2697303-.876217-.5394605-.9054243-.5664336.0292073-.026973.3796941-.5394605.3796941-.5394605l-.2920723-.1618382v.0269731l-.9346315 1.2947053.2920724.1618381s.3504867-.4855145.379694-.5394605c.0292072.026973.6425591.3776224 1.0806676.6743257v.8901099l-1.9276774-.8091908v.026973l-.1460361.2697303 2.0737135.8901099v1.078921c-.1460362.5124875-.2336579 1.0519481-.2336579 1.6183817 0 1.1598402.3504868 2.2387612.9346314 3.1828171.379694.6743258.876217 1.1328672 1.3435327 1.5374626.2044507.1618381.4089012.3236764.6425591.4855145.0292072 0 .0292072.026973.0584145.026973.0292073.026973.0584144.026973.0876217.0539461.0292072.026973.0584145.026973.0876217.053946l.0292072.0269731c.1752434.107892.3504868.2157842.5549374.2967033.2628652.107892.6133519.2697303 1.0222532.4315684l-.4381085.998002-.2044506-.0809191c-.1168289-.0539461-.2628651 0-.3212797.1078922-.0584144.107892 0 .2427572.116829.2967032l.2044507.0809191zm4.8484006 3.6413585c0 .1888115-.0584145.3776227-.1460362.5394607-.0876217.134865-.2336579.2157843-.379694.2157843-.2044506 0-.379694-.1078923-.4381085-.2967035 0-.0269731-.0292072-.1078919-.0584145-.2427573.0584145.0269731.116829.0269731.1752434.0269731.2628651 0 .4673157-.1888112.4673157-.4045954 0-.2427571-.2044506-.4045954-.4673157-.4045954-.1460361 0-.262865.0539461-.3504868.1348652-.1460361-.5394605-.2920723-1.1328671-.2920723-1.1328671h-.0876217-.1168289s-.1460362.5934066-.2920723 1.1328671c-.0876218-.0809191-.2044507-.1348652-.3212796-.1348652-.2628651 0-.4381085.1888113-.4381085.4045954 0 .2427573.2044507.4045954.4381085.4045954.0584145 0 .1168289 0 .1752434-.0269731-.0292072.1078923-.0584145.2157842-.0584145.2427573-.0584144.1618382-.2336578.2967035-.4381084.2967035-.1752434 0-.3212796-.0809193-.4089013-.2157843-.0876217-.161838-.1168289-.3506492-.1168289-.5394607v-2.5894105c.9346314.2697303 2.1029207.5934066 3.1835883.8091908zm.2336578-2.2657342c-1.635605-.3236763-3.5340751-.8901099-4.6439499-1.2407592.1168289-.2427572.2920723-.6743257.4965229-1.1328671l.2920724.1078921v.053946c0 .3776224.3504867.7012987.759388.7012987.4089012 0 .7593881-.3236763.7593881-.7012987 0-.3776223-.3504869-.7012986-.7593881-.7012986-.2336578 0-.4089013.080919-.5549374.2427572l-.3212795-.1348652c.1752433-.4045954.3212795-.7822178.4381084-.998002 1.1098748.4315684 2.5410292.944056 3.9137692 1.3486514 1.4603616.4045954 2.6286509.6473526 3.5048678.7282717-1.5479833.7012987-3.7677329 1.6723277-3.8845619 1.7262737zm5.5201669-2.4815185c-.1460361.1348652-.496523.2697303-1.2267038.2697303.496523-.3236763.9346316-.6743256 1.3435327-1.078921.116829.3776224.0876218.6473526-.1168289.8091907zm-2.0737135.2157843c-.7009735-.0809191-1.6648122-.2967033-2.9207232-.6473526-.0584145-.0269731-.1168289-.0269731-.1752434-.0539462.1168289-.6743256.3504868-1.105894.759388-1.3216783.6425592-.2697303 1.2267038-.6473526 1.752434-1.1058941.4673157-.3776224.9346314-.8361638 1.2851182-1.4835165.5841447-.9440559.9346314-2.04995.9346314-3.2097902 0-.5394605-.0876216-1.1058941-.2336578-1.6183816v-1.024975l.3212795.7552447.3212796-.1078921s-.3212796-.7282718-.3212796-.7552448c.0584146-.026973 1.8108485-.6743257 1.8108485-.6743257l-.116829-.2967033h-.0292072l-1.9568846.7282718v-.1348652l1.3143255-1.7262737-.1168289-.1888111h-.0292073l-1.1682893.2427572v-2.022977c.116829.107892.2336579.1888111.3504869.2967032 1.8692628 1.7262738 2.9207231 4.0459541 2.9207231 6.5004996 0 1.5914086-.4381084 3.1828171-1.3143254 4.5584416-.8178026 1.3756244-1.9860918 2.4815184-3.388039 3.2907093zm1.5479834-11.5714287s-.0584145.0809191-.116829.1618382v-.3236763c.0584145.0809191.116829.1618381.116829.1618381zm-.0876218-.7012987c.0584146 0 .6425592-.1348651.7301808-.1618381-.0584144.080919-.4089011.5394605-.4381084.5664336-.0292073-.0269731-.2628651-.3506494-.2920724-.4045955z"/><path d="m27.666771 5.5433071c-.3993782-.57874017-1.0554997-.82677167-1.540459-.82677167-.6846484 0-1.3978239.27559053-2.0824724.5511811-.7702295.3031496-1.568986.60629923-2.3677425.55118109.085581-.27559052.1996891-.55118109.3423242-.77165353l-.4849593-.22047246c.0855811-.16535433.1711621-.3582677.1996891-.57874013-.057054-.02755906-.7131755-.2480315-1.7686751-.2480315-1.0554998 0-1.6545671.22047244-1.7116212.2480315.028527.22047243.085581.4133858.1996891.57874013l-.4849593.22047246c.1426351.22047244.2567432.49606301.3423243.77165353-.7987566.08267717-1.5975131-.24803149-2.3677426-.55118109-.6846485-.27559057-1.3978239-.5511811-2.0824723-.5511811-.4849594 0-1.1410809.2480315-1.5404591.82677167-.3137972.46850392-.5705404 1.35039369.114108 2.75590553v-.02755907l.9984458-.41338586.057054.16535431c-.3137972.13779531-.6275945.49606301-.2567432 1.32283472.8558105-.35826777.8843376-.82677171.7417025-1.12992125l.1711621-.05511816.4279052.93700787.4279053.93700791-.171162.0551181c-.1426351-.30314961-.5134864-.60629923-1.3692969-.24803146.3708512.82677156 1.0269726 1.15748026 1.5404589 1.15748026.8843376 0 1.5119321-.523622 1.426351-1.0472441-.057054-.38582678-.4279052-.52362201-.5705404-.49606301-.1711621.02755908-.2852701.22047247-.2567431.3307087 0 .02755908.028527.05511815.028527.08267715l-.028527.02755908c-.2282162-.02755908-.4279053-.19291339-.4849593-.41338585-.0570541-.27559055.142635-.55118109.4279052-.60629925.1711622-.027559.3423242.02755908.4849594.13779531l.057054-.08267715c-.1711622-.08267716-.2852702-.22047247-.3137972-.41338586-.0855811-.44094485.4279053-.88188971.4564323-.88188971s.6561215.22047239.7417025.66141732c.028527.19291331-.028527.3582677-.1426351.49606301l.085581.05511808c.0570541-.13779531.1996891-.27559054.3993783-.30314962.2852701-.05511816.5705404.13779531.6275944.41338578.057054.22047246-.0855811.46850401-.2852702.55118116l-.028527-.02755907c0-.02755908 0-.05511808 0-.08267716-.0285271-.13779523-.1996891-.24803147-.3708512-.22047247-.1426352.02755908-.4279053.27559055-.3423243.6614174.1426351.66141726.7131755 1.12992126 1.397824 1.12992126.6846484 0 1.4263509-.5511812 1.4263509-1.3779528-.9984456 0-1.2266618.4409449-1.2266618.8267716h-.1996891v-1.10236214-1.10236218h.1996891c0 .3582677.2567431.82677163 1.2266618.82677163 0-.96456694-.4564323-1.18503941-.8558106-1.18503941v-.19291339h.9699187.3137972.9699186v.19291339c-.3708512 0-.8558105.24803154-.8558105 1.18503941.9984456 0 1.2266617-.44094493 1.2266617-.82677163h.1996892v1.10236218 1.10236214h-.1426351c0-.3582677-.2567432-.8267716-1.2266618-.8267716 0 .8267716.7131754 1.3779528 1.4263509 1.3779528.6846485 0 1.2837159-.468504 1.3978239-1.12992126.0855811-.38582685-.1996891-.6614174-.3423242-.6614174-.1711621-.027559-.3423242.08267724-.3708512.22047247v.08267716l-.028527.02755907c-.1996892-.11023623-.3423242-.3307087-.2852702-.55118116.057054-.27559047.3423242-.46850394.6275944-.41338578.1711621.02755908.3137972.13779531.3993782.30314962l.0855811-.05511808c-.1141081-.13779531-.1711621-.3031497-.1426351-.49606301.0855811-.44094493.7417025-.66141732.7417025-.66141732s.5420133.44094486.4564323.88188971c-.028527.19291339-.1711621.3307087-.3137972.41338586l.057054.08267715c.1141081-.11023623.2852702-.16535431.4849593-.13779531.2852702.05511816.4849594.3307087.4279053.60629925-.057054.24803154-.2567431.41338585-.4849593.41338585l-.028527-.02755908c.028527-.027559.028527-.05511807.028527-.08267715.028527-.13779531-.0855811-.30314962-.2567431-.3307087-.1426352-.027559-.5134864.11023623-.5705405.49606301-.085581.5236221.5705405 1.0472441 1.426351 1.0472441.5134864 0 1.1696078-.3307087 1.540459-1.15748026-.8558106-.35826777-1.2266618-.05511815-1.3692969.24803146l-.1711621-.0551181.4279053-.93700791.4279053-.93700787.1711621.05511816c-.1426351.30314954-.1141081.77165348.7417025 1.12992125.3708513-.82677171.0570541-1.18503941-.2567432-1.32283472l.057054-.16535431.9984458.41338586v.02755907c.5990673-1.43307091.3423241-2.28740161.0285269-2.75590553m-9.157173 1.21259842c-.4849594 0-.8843376.2480315-1.1125537.63385825-.2567432-.44094488-.8272836-.71653542-1.3692969-.60629922-.3993783.08267717-.7417025.35826775-.8843376.68897637-.2282162-.3582677-.6275945-.57874013-1.0840268-.57874013-.5705403 0-1.0554996.35826774-1.2266618.85433068-.3137972-.79921258-.3137972-1.46062991 0-1.92913385.3137972-.46850393.8558106-.60629919 1.0840268-.60629919.5990673 0 1.2266618.24803149 1.8827832.49606299.8558106.33070864 1.7401481.68897637 2.7100668.5511811.028527.16535433.057054.3031496.0855811.46850393-.0285271.02755907-.0570541.02755907-.0855811.02755907m1.511932-2.56299215c.2567432 0 .4849593.19291339.5134863.44094489-.1426351-.11023623-.3137972-.1929134-.5134863-.1929134-.1996892 0-.3708513.08267717-.5134863.1929134.028527-.2480315.2567431-.44094489.5134863-.44094489m0 .46850393c.2567432 0 .4849593.1929134.5134863.44094489-.1426351-.11023623-.3137972-.19291339-.5134863-.19291339-.1996892 0-.3708513.08267716-.5134863.19291339.028527-.24803149.2567431-.44094489.5134863-.44094489m0 2.78346462c-.2852702 0-.5134863-.22047246-.5134863-.49606303 0-.27559054.2282161-.49606301.5134863-.49606301s.5134863.22047247.5134863.49606301c0 .27559057-.2282161.49606303-.5134863.49606303m.4849593-1.0748032c-.1426351-.1102362-.3137973-.16535433-.4849593-.16535433-.1996892 0-.3423242.05511813-.4849593.16535433-.028527-.0551181-.028527-.1102362-.028527-.16535433 0-.27559053.2282161-.49606297.5134863-.49606297s.5134863.22047244.5134863.49606297c0 .05511813 0 .11023623-.028527.16535433m.028527-.68897636c-.1426351-.11023623-.3137972-.1929134-.5134863-.1929134-.1996892 0-.3708513.08267717-.5134863.1929134v-.02755907c0-.27559053.2282161-.496063.5134863-.496063s.5134863.22047247.5134863.496063zm6.6753225 2.06692911c-.1711622-.49606294-.6561215-.85433068-1.2266619-.85433068-.4564322 0-.8558105.22047243-1.0840267.57874013-.1711621-.33070862-.4849593-.6062992-.8843376-.68897637-.5705403-.1102362-1.1125537.13779531-1.3692969.60629922-.2282161-.35826772-.6275944-.63385825-1.1125537-.63385825-.0285271 0-.0570541 0-.0855811 0 .028527-.1377953.057054-.30314964.0855811-.46850396.9699187.13779529 1.8542562-.22047244 2.7100668-.5511811.6561214-.2480315 1.2837159-.496063 1.8827832-.496063.2282162 0 .7702296.1377953 1.0840268.60629923.3137971.44094487.3137971 1.1023622 0 1.90157478"/><path d="m22.5 13.0547978h-.5l.2857143.6475669h.2142857.0714286l-.0714286.2428376.0714286-.1618917h.0714285l.0714286-.0809459.2857143-.6475669z"/><path d="m20.8666666 13.75-.0666666.0625v.1875l-.4666667-.0625v-.3125l-.3333333-.5625.0666666-.0625.6.3125h.3333334v.4375l-.1333334-.0625"/><path d="m20.6618917 13.9047293c-.0809459 0-.1618917-.0809458-.1618917-.1618917s.0809458-.1618917.1618917-.1618917.0809459 0 .1618918.0809458h.0809459s0-.0809458 0-.1618917c0-.2428376-.1618918-.4047293-.4047294-.4047293-.2428377 0-.4047294.1618917-.4047294.4047293s.1618917.4047293.4047294.4047293z"/><path d="m20.9047293 13.6618918c0-.080946-.0809458-.1618918-.1618917-.1618918s-.1618917.0809458-.1618917.1618918c0 .0809458 0 .0809458.0809458.1618918v.0809458s-.0809458 0-.1618917 0c-.2428376 0-.4047293-.1618918-.4047293-.4047294s.1618917-.4047294.4047293-.4047294.4047293.1618918.4047293.4047294z"/><path d="m20.8666666 19.25-.0666666-.0625v-.1875l-.4666667.0625v.25l-.3333333.5625.0666666.125.6-.375h.3333334v-.4375z"/><path d="m20.6618917 19.0952706c-.0809459 0-.1618917.0809459-.1618917.1618918 0 .0809458.0809458.1618918.1618917.1618918s.0809459 0 .1618918-.080946h.0809459v.1618918c0 .2428376-.1618918.4047294-.4047294.4047294-.2428377 0-.4047294-.1618918-.4047294-.4047294s.1618917-.4047294.4047294-.4047294z"/><path d="m20.9047293 19.3381083c0 .0809458-.0809458.1618917-.1618917.1618917s-.1618917-.0809459-.1618917-.1618917c0-.0809459 0-.0809459.0809458-.1618918v-.0809458s-.0809458 0-.1618917 0c-.2428376 0-.4047293.1618917-.4047293.4047293s.1618917.4047293.4047293.4047293.4047293-.1618917.4047293-.4047293z"/><path d="m24.1333333 19.25.0666666-.0625v-.1875l.4666668.0625v.25l.3333333.5625-.0666666.125-.6000001-.375h-.3333333v-.4375z"/><path d="m24.3381083 19.0952706c.0809458 0 .1618917.0809459.1618917.1618918 0 .0809458-.0809459.1618918-.1618917.1618918-.0809459 0-.0809459 0-.1618918-.080946h-.0809458v.1618918c0 .2428376.1618917.4047294.4047293.4047294s.4047293-.1618918.4047293-.4047294-.1618917-.4047294-.4047293-.4047294z"/><path d="m24.0952707 19.3381083c0 .0809458.0809458.1618917.1618917.1618917s.1618917-.0809459.1618917-.1618917c0-.0809459 0-.0809459-.0809458-.1618918v-.0809458h.1618917c.2428376 0 .4047293.1618917.4047293.4047293s-.1618917.4047293-.4047293.4047293-.4047293-.1618917-.4047293-.4047293z"/><path d="m24.1333333 13.75.0666666.0625v.1875l.4666668-.0625v-.3125l.3333333-.5625-.0666666-.0625-.6000001.3125h-.3333333v.4375l.1333333-.0625"/><path d="m24.3381083 13.9047293c.0809458 0 .1618917-.0809458.1618917-.1618917s-.0809459-.1618917-.1618917-.1618917c-.0809459 0-.0809459 0-.1618918.0809458h-.0809458s0-.0809458 0-.1618917c0-.2428376.1618917-.4047293.4047293-.4047293s.4047293.1618917.4047293.4047293-.1618917.4047293-.4047293.4047293z"/><path d="m24.0952707 13.6618918c0-.080946.0809458-.1618918.1618917-.1618918s.1618917.0809458.1618917.1618918c0 .0809458 0 .0809458-.0809458.1618918v.0809458h.1618917c.2428376 0 .4047293-.1618918.4047293-.4047294s-.1618917-.4047294-.4047293-.4047294-.4047293.1618918-.4047293.4047294z"/><path d="m22 14h1v1h-1z"/><path d="m22.5809459 14.7428376h-.1618918l-.2428376-.4856752h.647567z"/><path d="m23.7428377 14.419054-.0809459.080946c-.080946 0-.1618918-.080946-.1618918-.1618918s.0809458-.1618917.1618918-.1618917h-.1618918c-.1618917 0-.3237835.1618917-.3237835.3237835 0 .1618917.1618918.3237835.3237835.3237835.1618918 0 .3237835-.1618918.3237835-.3237835-.0809458 0-.0809458 0-.0809458-.080946z"/><path d="m22.2571624 14.419054.0809459.080946c.0809459 0 .1618917-.080946.1618917-.1618918s-.0809458-.1618917-.1618917-.1618917h.1618917c.1618918 0 .3237835.1618917.3237835.3237835 0 .1618917-.1618917.3237835-.3237835.3237835-.1618917 0-.3237835-.1618918-.3237835-.3237835.0809459 0 .0809459 0 .0809459-.080946z"/><path d="m22.5 19.9452023h.5l-.2857143-.6475669-.2142857-.0809459h-.0714286l.1428572-.1618918-.1428572.1618918h-.0714285l-.0714286.0809459-.2857143.6475669z"/><path d="m22 19h1v1h-1z"/><path d="m22.4190541 18.2166895h.1618918l.2428376.566621h-.647567z"/><path d="m22.2571624 18.5809459.0809459-.0809459c.0809459 0 .1618917.0809459.1618917.1618917 0 .0809459-.0809458.1618918-.1618917.1618918h.1618917c.1618918 0 .3237835-.1618918.3237835-.3237835s-.1618917-.3237835-.3237835-.3237835c-.1618917 0-.3237835.1618918-.3237835.3237835.0809459 0 .0809459 0 .0809459.0809459z"/><path d="m23.7428377 18.5809459-.0809459-.0809459c-.080946 0-.1618918.0809459-.1618918.1618917 0 .0809459.0809458.1618918.1618918.1618918h-.1618918c-.1618917 0-.3237835-.1618918-.3237835-.3237835s.1618918-.3237835.3237835-.3237835c.1618918 0 .3237835.1618918.3237835.3237835-.0809458 0-.0809458 0-.0809458.0809459z"/><path d="m24.9047293 16.5v-.5l-.6475669.2857142v.2142858.0714286l-.1618917-.0714286.1618917.1428572h-.0809459l.0809459.0714285.6475669.2857143z"/><path d="m24 16h1v1h-1z"/><path d="m24.2571624 16.5809458v-.1618916l.4856752-.2428377v.647567z"/><path d="m24.5 16.540473v-.080946z"/><path d="m24.5809459 16.7428377-.0809459-.0809459c0-.080946.0809459-.1618918.1618918-.1618918.0809458 0 .1618917.0809458.1618917.1618918v-.1618918c0-.1618917-.1618917-.3237835-.3237835-.3237835-.1618917 0-.3237835.1618918-.3237835.3237835 0 .1618918.1618918.3237835.3237835.3237835 0 0 0 0 .0809459-.0809458z"/><path d="m24.5809459 15.2571625-.0809459.0809458c0 .0809459.0809459.1618917.1618918.1618917.0809458 0 .1618917-.0809458.1618917-.1618917v.1618917c0 .1618918-.1618917.3237835-.3237835.3237835-.1618917 0-.3237835-.1618917-.3237835-.3237835 0-.1618917.1618918-.3237835.3237835-.3237835 0 0 0 0 .0809459.080946z"/><path d="m20.0952706 16.5v-.5l.647567.2857142v.2142858.0714286l.1618918-.0714286-.1618918.1428572h.0809459l-.0809459.0714285-.647567.2857143z"/><path d="m20 16h1v1h-1z"/><path d="m20.7428376 16.5809458v-.1618916l-.4856752-.2428377v.647567z"/><path d="m20.5 16.540473v-.080946z"/><path d="m20.419054 16.7428377.080946-.0809459c0-.080946-.080946-.1618918-.1618917-.1618918-.0809459 0-.1618918.0809458-.1618918.1618918v-.1618918c0-.1618917.1618918-.3237835.3237835-.3237835.1618918 0 .3237835.1618918.3237835.3237835 0 .1618918-.1618917.3237835-.3237835.3237835 0 0-.080946 0-.080946-.0809458z"/><path d="m20.419054 15.2571625.080946.0809458c0 .0809459-.080946.1618917-.1618917.1618917-.0809459 0-.1618918-.0809458-.1618918-.1618917v.1618917c0 .1618918.1618918.3237835.3237835.3237835.1618918 0 .3237835-.1618917.3237835-.3237835 0-.1618917-.1618917-.3237835-.3237835-.3237835 0 0-.080946 0-.080946.080946z"/><g transform="translate(10 39)"><path d="m2.33901175.23500413v6.554004h8.37692575v-6.554004h2.1214293v15.24915667h-2.1214293v-6.97178909h-8.37692575v6.97178909h-2.12142926v-15.24915667z"/><path d="m18.9568742.23500413 5.0043973 12.82078077 5.0315951-12.82078077h2.8829679v15.24915667h-2.012638v-12.69022284h-.0543956l-4.9500017 12.69022284h-1.7950555l-4.9500015-12.69022284h-.0543957v12.69022284h-2.012638v-15.24915667z"/><path d="m48.0313341.23500413c1.6046708 0 2.8013748.39167354 3.6445067 1.17502063.8431321.78334709 1.2239014 1.9061446 1.2239014 3.31616934 0 1.43613635-.4079671 2.53282226-1.2239014 3.3422809-.8159344.80945864-2.0398359 1.20113221-3.6445067 1.17502064h-4.8412103v6.24066516h-2.1214291v-15.24915667zm-.7343408 7.31123951c1.1967037.02611157 2.0670337-.20889257 2.6381877-.70501238.5439561-.49611984.8431321-1.17502065.8431321-2.08892558 0-.91390494-.2719782-1.59280574-.8431321-2.08892557-.5439561-.47000826-1.441484-.70501238-2.6381877-.70501238h-4.1340674v5.58787591z"/><path d="m65.0843615 15.4319376c-.3263736.182781-.7887364.2872273-1.3598904.2872273-.4895607 0-.87033-.1305578-1.1695058-.3916735-.299176-.2611157-.435165-.7050124-.435165-1.2794669-.5167582.6005661-1.1151104 1.0183512-1.8222533 1.2794669-.6799454.2611157-1.441484.3916735-2.2302205.3916735-.5167586 0-1.006319-.0522231-1.4686819-.1827809-.4623629-.1305579-.87033-.2872274-1.2239015-.5222314-.3535714-.2350042-.5983518-.548343-.8159344-.9400165-.1903846-.3916736-.2991757-.8616818-.2991757-1.4100248 0-.6266777.1087911-1.1489091.3263736-1.5405827.2175826-.3916735.5167586-.7311239.8703301-.966128.3535714-.26111567.7887364-.44389667 1.2510993-.57445453.4623626-.13055786.9519233-.23500414 1.4414841-.31333886.5167582-.10444621 1.0063189-.18278092 1.4686815-.23500414.4623629-.05222307.87033-.13055778 1.2239015-.2088925.3535718-.10444628.6255496-.23500414.8431322-.41778514.2175825-.182781.2991761-.44389672.2991761-.78334707 0-.39167357-.0815936-.73112397-.2447804-.9661281s-.3535714-.4177851-.5983519-.54834297c-.2447803-.13055784-.5167585-.20889255-.8159343-.26111568-.2991761-.05222312-.5983518-.05222312-.8975279-.05222312-.7887364 0-1.4686819.15666938-2.012638.44389667-.5439561.28722726-.8159343.83557023-.87033 1.64502884h-1.9038465c.0271978-.67890079.1903846-1.25335529.435165-1.72336355.2719779-.47000826.6255496-.86168181 1.0607143-1.14890906.435165-.28722729.9519236-.49611984 1.5230776-.62667768s1.1695058-.182781 1.8222533-.182781c.5167583 0 1.0335169.02611158 1.5502751.10444629.5167587.07833471.9791212.20889255 1.3870884.44389668.4079671.20889255.7615389.52223138 1.0063193.94001651.24478.39167355.3807693.91390494.3807693 1.56669417v5.66621064c0 .4177851.0271978.7311239.0815932.9400165.0543957.2088926.2175825.2872273.5167586.2872273.1631868 0 .3535714-.0261116.571154-.0783347v1.3578015zm-3.0733526-5.66621053c-.24478.18278093-.5439562.28722733-.9247255.36556193-.3807693.0783347-.7887364.1305579-1.2239015.182781-.435165.0522231-.8431321.1044463-1.2782971.182781-.4351647.0522231-.8159344.1566694-1.1695059.3133389-.3535714.1305578-.6255496.3394504-.8431322.600566-.2175825.2611157-.3263736.6266777-.3263736 1.0705745 0 .2872272.0543958.5483429.1903847.7572355.1359889.2088925.2991757.3655619.4895607.4961197.1903847.1305579.4351647.2088926.7071429.2872273.2719783.0522232.5439561.0783347.8431323.0783347.6255496 0 1.1695057-.0783347 1.6046708-.2350041.435165-.1566694.8159343-.365562 1.0879125-.6266776.2719779-.2350042.4895604-.5222315.6255497-.8094588.135989-.2872272.1903847-.5744545.1903847-.8094586v-1.85392143z"/><path d="m68.0217253 13.0035617c.1903846.2872273.4079672.4961198.7071429.6527892.2991761.1566695.6255497.2872273.9791215.3394505.3535714.0783347.7343408.1044462 1.1151101.1044462.299176 0 .5983518-.0261115.9247258-.0522231.3263736-.0522231.6255493-.1305579.8975275-.2350041.2719782-.1044463.4895607-.2872273.6799454-.4961198.1903846-.2088926.2719779-.4961199.2719779-.8355702 0-.4700083-.1903847-.8355703-.5439561-1.0705745-.3807693-.235004-.8431322-.4438966-1.3870884-.5744545-.5439561-.1305578-1.1695057-.2872273-1.8222533-.4177851-.6527475-.1305579-1.2510993-.2872273-1.8222533-.52223137-.5439561-.20889257-1.0335168-.52223143-1.3870883-.94001657-.3807693-.3916735-.5439564-.966128-.5439564-1.67114043 0-.54834297.1359892-1.04446277.3807696-1.43613632.2719779-.39167355.5983518-.73112397 1.006319-.9661281.4079671-.26111567.8703297-.44389667 1.3870883-.54834293.5167583-.13055787 1.006319-.182781 1.5230772-.182781.6527476 0 1.2510994.05222313 1.7950555.15666942.5439565.10444629 1.0335169.28722726 1.4686819.54834296.435165.26111568.7615386.62667768 1.006319 1.07057436.2447803.44389668.4079669 1.01835123.4351649 1.67114047h-1.9038468c-.0271975-.365562-.1359889-.65278924-.2991757-.88779337s-.3807693-.41778513-.6255497-.57445455c-.2447804-.13055783-.5167582-.23500413-.8431322-.31333883-.2991758-.05222314-.5983518-.10444627-.9247254-.10444627-.2719783 0-.571154.02611155-.8431322.05222313-.2991761.05222314-.5439561.13055784-.7887365.23500414-.2447803.10444625-.435165.26111567-.5711539.41778509-.1359894.182781-.2175826.41778513-.2175826.70501238 0 .31333885.1087911.57445456.3535715.78334713.2175825.2088925.5167583.36556193.87033.52223136.3535715.13055786.7615386.26111571 1.1967037.33945043.435165.10444621.8975275.18278093 1.3326925.28722721.462363.10444636.9247258.20889257 1.3870884.365562.4623628.13055786.8431322.33945043 1.1967036.57445456.3535718.2350042.6255501.5222314.8431326.8877934.2175825.3655619.3263737.8094586.3263737 1.33169 0 .6789008-.1359892 1.2272438-.435165 1.6711405-.2991763.4438966-.6799456.8094586-1.1423085 1.0705743-.4623625.2611157-1.0063189.4700082-1.5774729.5744546-.571154.1044462-1.1695058.1566694-1.7406598.1566694-.6255497 0-1.2510993-.0522232-1.8222533-.182781-.5711539-.1305578-1.0879126-.3394504-1.5230776-.6266777s-.7887365-.6789008-1.0607147-1.1489091c-.2719779-.4700082-.4079671-1.0444627-.4351647-1.7494751h1.9038466c0 .4177851.0815935.7572355.2719782 1.0183512z"/><path d="m78.8736518 13.0035617c.1903845.2872273.407967.4961198.7071435.6527892.2991757.1566695.6255495.2872273.9791205.3394505.3535717.0783347.7343407.1044462 1.1151105.1044462.2991757 0 .5983522-.0261115.924726-.0522231.326373-.0522231.6255495-.1305579.8975272-.2350041.2719785-.1044463.489561-.2872273.6799455-.4961198.1903845-.2088926.2719778-.4961199.2719778-.8355702 0-.4700083-.1903845-.8355703-.5439555-1.0705745-.3807698-.235004-.8431328-.4438966-1.387089-.5744545-.5439563-.1305578-1.1695058-.2872273-1.8222533-.4177851-.6527475-.1305579-1.251099-.2872273-1.8222532-.52223137-.5439563-.20889257-1.0335165-.52223143-1.3870883-.94001657-.3807697-.3916735-.5439562-.966128-.5439562-1.67114043 0-.54834297.1359892-1.04446277.380769-1.43613632.2719785-.39167355.5983522-.73112397 1.0063192-.9661281.407967-.26111567.87033-.44389667 1.3870883-.54834293.516759-.13055787 1.0063192-.182781 1.5230775-.182781.6527475 0 1.2510997.05222313 1.795056.15666942.5439555.10444629 1.0335165.28722726 1.4686815.54834296.435165.26111568.7615387.62667768 1.0063192 1.07057436s.407967 1.01835123.435165 1.67114047h-1.9038472c-.027198-.365562-.1359885-.65278924-.2991758-.88779337-.1631872-.23500413-.3807697-.41778513-.6255495-.57445455-.2447805-.13055783-.5439562-.23500413-.843132-.31333883-.2991765-.05222314-.5983522-.10444627-.924726-.10444627-.2719777 0-.5711542.02611155-.843132.05222313-.2991757.05222314-.5439562.13055784-.7887367.23500414-.2447805.10444625-.435165.26111567-.5711535.41778509-.1359893.182781-.2175825.41778513-.2175825.70501238 0 .31333885.1087912.57445456.353571.78334713.2175825.2088925.516759.36556193.87033.52223136.3535717.13055786.7615387.26111571 1.1967037.33945043.435165.07833471.897528.18278093 1.332693.28722721.4623623.10444636.9247253.20889257 1.3870883.365562.462363.13055786.843132.33945043 1.1967037.57445456.3535718.2350042.6255495.5222314.843132.8877934.2175825.3655619.3263738.8094586.3263738 1.33169 0 .6789008-.1359893 1.2272438-.435165 1.6711405-.2991758.4438966-.6799448.8094586-1.1423078 1.0705743s-1.0063192.4700082-1.5774735.5744546c-.5983515.1044462-1.1695057.1566694-1.74066.1566694-.6255495 0-1.251099-.0522232-1.8222532-.182781-.5711535-.1305578-1.0879118-.3394504-1.5230768-.6266777-.4351657-.2872273-.7887367-.6789008-1.0607152-1.1489091-.2719778-.4700082-.407967-1.0444627-.435165-1.7494751h1.9038472c0 .4177851.0815933.7572355.2719778 1.0183512z"/><path d="m90.242337 4.43896684v1.48835948h.0543953c.2991765-.60056609.7887367-1.04446281 1.4686822-1.33169006.6799455-.28722726 1.4142863-.4177851 2.2030223-.4177851.897528 0 1.6590667.15666942 2.3118142.47000823.6527475.31333884 1.1967038.73112397 1.659066 1.27946693.435165.52223139.7615395 1.14890907.979122 1.85392147.2175825.70501235.326373 1.43613628.326373 2.21948341 0 .7833471-.1087905 1.514471-.326373 2.2194834s-.543957 1.3055785-.979122 1.8278099c-.4351642.5222314-.9791212.9400165-1.659066 1.2272438-.6527475.2872272-1.4142862.4438966-2.3118142.4438966-.2719778 0-.5983515-.0261115-.9519233-.0783347-.3535717-.0522231-.6799455-.1566694-1.0335165-.2872272-.3535717-.1305579-.6527475-.3133389-.9791212-.5222314-.2991765-.2088926-.5711543-.4961199-.7615388-.8094587h-.054396v5.6923222h-1.9038465v-15.27526826zm6.7994528 3.91673545c-.1359893-.49611979-.3535718-.9400165-.6527475-1.30557848-.2991758-.39167355-.6527475-.67890081-1.1151105-.91390494s-.9791213-.33945038-1.5774728-.33945038c-.6255502 0-1.1695057.13055783-1.6318687.36556196-.435165.23500413-.8159348.54834297-1.0879125.94001651-.2719785.39167354-.489561.83557025-.5983515 1.33169004-.1359893.49611986-.1903853.99223964-.1903853 1.514471 0 .548343.054396 1.0705744.1903853 1.5666942.1359885.4961199.353571.9400165.6255495 1.3316901.2991757.3916736.6527467.7050123 1.1151097.9400165.462363.2350041 1.0063193.3394504 1.6590668.3394504s1.1967037-.1305578 1.6318687-.365562c.435165-.2350041.7887368-.5744546 1.0607145-.9661281.2719778-.3916735.462363-.8616817.5711543-1.3578016.1087912-.5222314.1903845-1.0444628.1903845-1.59280571 0-.49611986-.054396-.99223965-.1903845-1.4883595z"/><path d="m100.931077 7.70291307c.24478-.70501239.598351-1.30557849 1.060714-1.82780988.462363-.52223142 1.060715-.94001651 1.767858-1.2272438.707143-.28722726 1.495879-.44389668 2.393407-.44389668.924726 0 1.713463.15666942 2.420606.44389668.679945.28722729 1.278297.70501238 1.740659 1.2272438.462363.52223139.843132 1.12279749 1.060715 1.82780988.24478.70501236.353572 1.46224793.353572 2.27170657 0 .80945866-.108792 1.56669416-.353572 2.27170656-.244781.7050124-.598352 1.3055784-1.060715 1.8278099-.462362.5222313-1.060714.9139049-1.740659 1.2272438-.679946.2872272-1.49588.4438966-2.420606.4438966-.897528 0-1.713462-.1566694-2.393407-.4438966-.707143-.2872273-1.278297-.7050125-1.767858-1.2272438-.462363-.5222315-.843132-1.1227975-1.060714-1.8278099-.244781-.7050124-.353572-1.4622479-.353572-2.27170656 0-.80945864.108791-1.56669421.353572-2.27170657zm1.931044 4.04729333c.190385.5222313.435165.966128.761539 1.3055785.326374.3394504.707143.6266776 1.142308.8094586s.897528.2872273 1.387088.2872273c.489561 0 .951923-.1044463 1.387088-.2872273s.815935-.4438967 1.142309-.8094586c.326374-.3394505.571154-.7833472.761539-1.3055785.190384-.5222314.271977-1.1227975.271977-1.77558676 0-.67890085-.081593-1.25335535-.271977-1.77558678-.190385-.52223136-.435165-.96612807-.761539-1.30557847-.326374-.36556197-.707144-.62667768-1.142309-.80945865-.435165-.182781-.897527-.28722725-1.387088-.28722725-.48956 0-.951923.10444625-1.387088.28722725-.435165.18278097-.815934.44389668-1.142308.80945865s-.571154.78334711-.761539 1.30557847c-.190384.52223143-.271977 1.1227975-.271977 1.77558678 0 .65278926.081593 1.25335536.271977 1.77558676z"/><path d="m115.42751 4.43896684v2.32392971h.054396c.462363-.88779336 1.033516-1.56669419 1.686264-1.98447929.679945-.41778513 1.523077-.62667768 2.529396-.6005661v1.93225613c-.761539 0-1.414286.10444629-1.931044.28722729-.543956.20889255-.951923.49611981-1.278297.88779335-.326374.39167357-.571154.86168178-.707144 1.41002478-.135989.54834293-.217582 1.17502065-.217582 1.88003299v4.9089751h-1.903847v-11.04519396z"/><path d="m125.762678 4.43896684v1.59280574h-2.284616v6.86734282c0 .2088926.027198.3916736.054395.5222314.027198.1305578.108792.2350041.217583.2872273.108791.0783347.24478.1044463.435165.1305578.190384.0261116.435165.0261116.734341.0261116h.87033v1.5928058h-1.441484c-.489561 0-.897528-.0261117-1.251099-.1044463-.353572-.0783347-.62555-.182781-.843133-.3394504-.217582-.182781-.380769-.4177852-.48956-.731124s-.163187-.731124-.163187-1.2272437v-7.02401232h-1.958242v-1.59280574h1.958242v-3.31616934h1.903847v3.31616934z"/></g><g transform="translate(10 65)"><path d="m.65144457 5.4217541c.32572229-1.01829898.7871622-1.89899003 1.43860677-2.69711625.62430105-.77060464 1.43860678-1.40360132 2.38863011-1.87146842.95002334-.46786711 2.06290781-.68803986 3.31150991-.68803986 1.24860213 0 2.36148664.22017275 3.31150994.68803986.9500233.4678671 1.7371855 1.10086378 2.3886301 1.87146842.624301.77060465 1.1128845 1.67881727 1.4386068 2.69711625.3257222 1.01829898.4885834 2.0641196.4885834 3.16498338 0 1.10086374-.1628612 2.14668432-.4885834 3.16498332-.3257223 1.018299-.7871623 1.89899-1.4386068 2.6971163-.6243011.7706046-1.4386068 1.4036013-2.3886301 1.8439468-.9500233.4678672-2.06290781.6880399-3.31150994.6880399-1.2486021 0-2.36148657-.2201727-3.31150991-.6880399-.95002333-.4678671-1.73718553-1.0733422-2.38863011-1.8439468-.62430105-.7706046-1.11288448-1.6788173-1.43860677-2.6971163-.32572228-1.018299-.48858343-2.06411958-.48858343-3.16498332 0-1.10086378.16286115-2.1466844.48858343-3.16498338zm1.9271902 5.5593621c.2171482.7981262.54287048 1.4861661.97716685 2.1191628.43429639.6329966 1.0043104 1.1283853 1.71004202 1.5136877.70573161.3853023 1.52003734.5779534 2.49720422.5779534.95002335 0 1.79147256-.1926511 2.49720424-.5779534.7057316-.3853024 1.2757456-.8806911 1.7100419-1.5136877.4342965-.6329967.7600187-1.3485582.9771669-2.1191628.2171482-.7981262.2985788-1.59625252.2985788-2.39437872 0-.79812628-.1085741-1.59625248-.2985788-2.39437871-.2171482-.79812627-.5428704-1.48616612-.9771669-2.11916278-.4342963-.63299667-1.0043103-1.12838539-1.7100419-1.5136877-.70573168-.38530233-1.52003739-.57795349-2.49720424-.57795349-.95002334 0-1.79147261.19265116-2.49720422.57795349-.70573162.38530231-1.27574563.88069103-1.71004202 1.5136877-.43429637.63299666-.76001865 1.34855811-.97716685 2.11916278-.21714819.79812623-.29857876 1.59625243-.29857876 2.39437871 0 .7981262.1085741 1.59625252.29857876 2.39437872z"/><path d="m16.2046838 6.66022586v-1.67881728h1.9271902v-1.73386044c0-.9357342.2714353-1.65129566.8143057-2.14668436.5428705-.4953887 1.3300327-.74308305 2.3614866-.74308305.1900047 0 .3800093.02752159.5971575.05504319.2171482.02752159.4342964.08256478.5971575.13760797v1.67881726c-.1628611-.05504319-.3528658-.11008638-.5428704-.11008638-.1900047-.02752159-.3800094-.02752159-.5428705-.02752159-.4614399 0-.8143057.08256478-1.0585974.27521594-.2442917.19265117-.3800094.5229103-.3800094 1.0458206v1.62377407h2.225769v1.67881725h-2.225769v9.96281716h-1.9000466v-9.96281716h-1.8729032z"/><path d="m22.0948284 6.66022586v-1.67881728h1.9271902v-1.73386044c0-.9357342.2714353-1.65129566.8143058-2.14668436.5428704-.4953887 1.3300327-.74308305 2.3614866-.74308305.1900046 0 .3800093.02752159.5971575.05504319.2171482.02752159.4342964.08256478.5971575.13760797v1.67881726c-.1628611-.05504319-.3528657-.11008638-.5428705-.11008638-.1900046-.02752159-.3800093-.02752159-.5428705-.02752159-.4614398 0-.8143057.08256478-1.0585974.27521594-.2442917.19265117-.3800093.5229103-.3800093 1.0458206v1.62377407h2.225769v1.67881725h-2.225769v9.96281716h-1.9000467v-9.96281716h-1.8729032z"/><path d="m29.6678717 2.88976742v-2.33933553h1.9000467v2.33933553zm1.8729031 2.09164116v11.64163452h-1.9000466v-11.64163452z"/><path d="m41.0681516 7.01800657c-.4614397-.41282392-1.1128843-.60547506-1.9000464-.60547506-.6785883 0-1.2486022.13760796-1.7100422.38530232-.46144.24769435-.8143058.60547509-1.0857411 1.01829898-.271435.4128239-.4614396.90821264-.5971575 1.45864451-.1085739.55043187-.1900046 1.10086378-.1900046 1.70633888 0 .5504319.0542871 1.0733422.1900046 1.5687309.1357179.5229103.3257225.9632558.5971575 1.3485581.2714353.3853023.6243011.7155615 1.031454.9632558.4342964.2476944.9500236.3577807 1.5200375.3577807.9228796 0 1.655755-.2476943 2.1986254-.743083.5157268-.4953887.8414493-1.1834285.9771668-2.0916412h1.9271903c-.2171482 1.4311229-.7328754 2.5595083-1.5743246 3.3301129-.8414489.7706046-2.0086207 1.1834285-3.4743708 1.1834285-.8685928 0-1.655755-.1376078-2.3071997-.4403454-.6785882-.275216-1.2486021-.6880399-1.6828985-1.2109502-.4614397-.5229102-.7871622-1.1559069-1.031454-1.8714684-.2171482-.7155614-.3528657-1.5136877-.3528657-2.3943787 0-.8806911.1085743-1.67881727.3257225-2.44942194.2171479-.77060467.5700139-1.4311229 1.0043103-1.98155479.4614397-.55043188 1.0043104-1.01829898 1.7100418-1.32103654.6785883-.33025914 1.4657505-.49538867 2.3886301-.49538867.6514446 0 1.2486021.08256478 1.8186161.24769432.5700142.16512957 1.0857411.41282392 1.5200375.74308305.4342964.33025914.7871622.74308306 1.0857408 1.23847176.2714353.49538871.46144 1.10086375.5428706 1.78890366h-1.9543339c-.1900046-.77060466-.4885832-1.34855813-.9771668-1.73386048z"/><path d="m53.9884689 15.87996c-.8685925.6605183-1.92719.9907774-3.2300793.9907774-.9228797 0-1.7100418-.137608-2.38863-.4403455-.6785879-.3027376-1.2486022-.7155615-1.7100419-1.2659933-.46144-.5504319-.8143057-1.1834286-1.0314539-1.9265117-.2171482-.743083-.3528657-1.5687308-.3800093-2.4494219 0-.88069098.1357175-1.70633879.4071529-2.42190024.271435-.74308309.6514443-1.37607976 1.1128843-1.92651168.4885835-.55043188 1.0585975-.9632558 1.7100422-1.26599333.6514442-.30273753 1.3843196-.44034549 2.1714818-.44034549 1.0314539 0 1.8729032.22017275 2.551491.63299667.6785883.44034549 1.2214587.9632558 1.6286115 1.62377407.4071529.66051827.6785882 1.37607976.8414493 2.17420596.1628611.77060459.2171482 1.51368764.1900046 2.22924914h-8.6044969c-.0271435.5229103.0542869.9907774.1900047 1.4586445.1357175.4678671.3528658.8531695.6514447 1.2109501.2985785.3577808.6785878.6329967 1.1400278.8531695s1.0043104.3027375 1.6286115.3027375c.7871621 0 1.4657504-.1926512 1.9543336-.5504319.5157271-.3853023.8414492-.9357342 1.0043104-1.7063388h1.8729032c-.2985786 1.2659933-.8414493 2.2567707-1.7100422 2.917289zm-.4342961-7.48587371c-.1628613-.4128239-.4071528-.74308302-.6785882-1.04582058-.2985789-.30273753-.6243011-.52291028-1.0314539-.68803985-.3800093-.16512956-.8143057-.24769435-1.302889-.24769435-.4885836 0-.92288.08256479-1.3300328.24769435-.3800093.16512957-.732875.41282392-1.0043104.71556145s-.5157268.66051829-.6785882 1.04582059c-.1628611.3853023-.2714351.82564781-.2985786 1.26599332h6.5958762c0-.44034551-.108574-.88069102-.2714351-1.29351493z"/></g></g></g></svg>