<?xml version="1.0" encoding="UTF-8"?>
<svg width="195px" height="100px" viewBox="0 0 195 100" version="1.1" xmlns="http://www.w3.org/2000/svg" xmlns:xlink="http://www.w3.org/1999/xlink">
    <!-- Generator: Sketch 57 (83077) - https://sketch.com -->
    <title>Untitled 5</title>
    <desc>Created with Sketch.</desc>
    <g id="Page-1" stroke="none" stroke-width="1" fill="none" fill-rule="evenodd">
        <g id="HMPO" transform="translate(30.000000, 9.000000)" fill-rule="nonzero">
            <rect id="Rectangle" fill="#7F3F98" x="0" y="0" width="2" height="82"></rect>
            <path d="M20,3 L20,4.70833332 C20.4772727,4.75 20.8181818,4.91666663 21,5 C20.9090909,4 20.5227273,3.25 20,3" id="Path" fill="#000000"></path>
            <path d="M19.6603774,1.36263737 L19.6603774,1.36263737 C19.6603774,1.67032967 19.5471698,1.86813187 19.3962265,2 C19.3962265,2 19.6603774,1.95604395 20,1.95604395 C20.2264151,1.95604395 20.5660378,2 20.6037736,2 C20.4528302,1.86813187 20.3396226,1.67032967 20.3396226,1.36263737 L20.3396226,1.36263737 C21.509434,1.36263737 21.7735849,1.67032967 21.7735849,1.93406593 L22,1.93406593 L22,1.16483517 L22,0.395604397 L21.7735849,0.395604397 C21.7735849,0.65934066 21.4716982,0.967032967 20.3396226,0.967032967 C20.3396226,0.285714287 20.8679246,0.131868132 21.3207547,0.131868132 L21.3207547,0 L20,0 L18.6792453,0 L18.6792453,0.131868132 C19.1320755,0.131868132 19.6603774,0.307692307 19.6603774,0.967032967 C18.4905661,0.967032967 18.2264151,0.65934066 18.2264151,0.395604397 L18,0.395604397 L18,1.16483517 L18,1.93406593 L18.2264151,1.93406593 C18.2264151,1.67032967 18.4905661,1.36263737 19.6603774,1.36263737" id="Path" fill="#000000"></path>
            <path d="M19,3 C18.5,3.25 18.1136364,4.04166666 18,5 C18.1818182,4.91666663 18.5227273,4.75 19,4.70833332 L19,3 Z" id="Path" fill="#000000"></path>
            <path d="M20,31 C20,31.5384615 20.4615385,32 21,32 C21.5384615,32 22,31.5384615 22,31 C22,30.4615385 21.5384615,30 21,30 C20.4230769,30.0384616 20,30.4615385 20,31 M20.5,31 C20.5,30.7307692 20.7307692,30.5 21,30.5 C21.2692308,30.5 21.5,30.7307692 21.5,31 C21.5,31.2692308 21.2692308,31.5 21,31.5 C20.6923077,31.5 20.5,31.3076923 20.5,31" id="Shape" fill="#000000"></path>
            <path d="M20,20.659836 C20,20.2868853 19.6531792,20 19.2023122,20 L19.0635838,20 L14.6936416,20 C14.3121388,20 14,20.2581967 14,20.5737705 C14,20.8032787 14.2080925,20.9754099 14.4855491,20.9754099 C14.7630058,20.9754099 14.9710983,20.8032787 14.9710983,20.545082 C15.0751445,20.6311475 15.1791907,20.6885246 15.3179191,20.7459016 C15.2485549,20.9754099 15.1791907,21.2909836 15.1445087,21.6639344 C15.0751445,21.5778688 14.9710983,21.5491803 14.867052,21.5491803 C14.6936416,21.5491803 14.5202312,21.6639344 14.5202312,21.8360655 C14.5202312,21.9795082 14.6589595,22.1229508 14.867052,22.1229508 C14.9710983,22.1229508 15.0751445,22.0655738 15.1445087,22.0081967 C15.1445087,22.2090164 15.1445087,22.4098361 15.1791907,22.6393442 C15.1098266,22.6106558 15.0404624,22.5819672 14.9710983,22.5819672 C14.7976878,22.5819672 14.6242775,22.6967213 14.6242775,22.8688525 C14.6242775,23.0122951 14.7630058,23.1557377 14.9710983,23.1557377 C15.0751445,23.1557377 15.2138729,23.0983606 15.2485549,23.0122951 C15.2485549,23.0409836 15.2485549,23.0696721 15.283237,23.0983606 C15.3526011,23.2704918 15.4219653,23.4426229 15.4913295,23.5860656 C15.4566473,23.5573771 15.3872832,23.5573771 15.3179191,23.5573771 C15.1445087,23.5573771 14.9710983,23.6721312 14.9710983,23.8442623 C14.9710983,23.9877049 15.1098266,24.1311475 15.3179191,24.1311475 C15.4913295,24.1311475 15.6300578,24.0163934 15.6647399,23.9016394 C15.7687861,24.0737705 15.9075144,24.2459016 16.0809248,24.4180328 C16.0462427,24.4180328 16.0462427,24.4180328 16.0115607,24.4180328 C15.8381503,24.4180328 15.6647399,24.5327868 15.6647399,24.704918 C15.6647399,24.8770492 15.8034682,24.9918033 16.0115607,24.9918033 C16.1849711,24.9918033 16.3583815,24.8770492 16.3583815,24.704918 C16.3583815,24.704918 16.3583815,24.704918 16.3583815,24.6762295 C16.8786127,25.1065574 17.5375722,25.4795082 18.3352601,25.7377049 L18.1965318,26.5983607 C18.1965318,26.5983607 18.5086705,26.7131148 18.9942197,26.8278688 C19.4797688,26.9426229 19.9306359,27 19.9306359,27 L20,20.659836 Z M15.9075144,21.0040984 C15.9075144,21.0040984 15.9421966,21.0040984 15.9768786,21.0327869 L18.4393063,25.1639345 C15.3872832,24.0163934 15.6994219,21.9508197 15.9075144,21.0040984 L15.9075144,21.0040984 Z M18.5086705,24.8483607 L16.2543353,21.0901639 C16.3930636,21.1188525 16.5317919,21.1188525 16.6705202,21.1188525 L18.6127168,24.3606558 L18.5086705,24.8483607 Z M18.6473988,24.0163934 L16.9132948,21.0901639 C17.0520231,21.0901639 17.1560693,21.0614754 17.2601156,21.0327869 L18.7167629,23.5 L18.6473988,24.0163934 Z M18.7861271,23.1844262 L17.4682081,21.0040984 C17.5722544,20.9754099 17.6763005,20.9467213 17.7803468,20.8893442 L18.8554913,22.6680328 L18.7861271,23.1844262 Z M18.9248555,22.352459 L17.9884393,20.8032787 C18.0924856,20.7459016 18.1965318,20.6885246 18.2658959,20.6311475 L18.9942197,21.8360655 L18.9248555,22.352459 Z M19.16763,20.9180328 L19.0635838,21.5491803 L18.4739885,20.545082 C18.5433526,20.5163934 18.6127168,20.5163934 18.6820809,20.5163934 C18.9595376,20.4877049 19.2023122,20.6885246 19.16763,20.9180328 L19.16763,20.9180328 Z" id="Shape" fill="#000000"></path>
            <path d="M17,5.49841721 C17,5.23259471 17.2333333,5 17.5,5 C17.7666667,5 18,5.23259471 18,5.49841721 C18,5.79746754 17.7666667,5.99683442 17.5,5.99683442 C17.2333333,6.03006225 17,5.79746754 17,5.49841721" id="Path" fill="#000000"></path>
            <path d="M11,6.5 C11,6.23333335 11.2333333,6 11.5,6 C11.8,6 12,6.23333335 12,6.5 C12,6.8 11.7666667,7 11.5,7 C11.2333333,7 11,6.76666665 11,6.5" id="Path" fill="#000000"></path>
            <path d="M11,6.49841721 C11,6.19936688 11.2333333,6 11.5,6 C11.7666667,6 12,6.23259471 12,6.49841721 C12,6.76423975 11.7666667,6.99683442 11.5,6.99683442 C11.2333333,7.03006225 11,6.79746754 11,6.49841721" id="Path" fill="#000000"></path>
            <path d="M11,5.5 C11,5.23333332 11.2333333,5 11.5,5 C11.8,5 12,5.23333332 12,5.5 C12,5.76666668 11.7666667,6 11.5,6 C11.2333333,6 11,5.76666668 11,5.5" id="Path" fill="#000000"></path>
            <path d="M12,5.49841721 C12,5.23259471 12.2333333,5 12.5,5 C12.8,5 13,5.23259471 13,5.49841721 C13,5.76423971 12.7666667,5.99683442 12.5,5.99683442 C12.2333333,6.03006225 12,5.79746754 12,5.49841721" id="Path" fill="#000000"></path>
            <path d="M13,4.49841721 C13,4.23259471 13.2333333,4 13.5,4 C13.7666667,4 14,4.23259471 14,4.49841721 C14,4.79746754 13.7666667,4.99683443 13.5,4.99683443 C13.2333333,5.03006221 13,4.79746754 13,4.49841721" id="Path" fill="#000000"></path>
            <path d="M14,4.49841721 C14,4.23259471 14.2333333,4 14.5,4 C14.8,4 15,4.23259471 15,4.49841721 C15,4.76423975 14.7666667,4.99683442 14.5,4.99683442 C14.2333333,5.03006225 14,4.79746754 14,4.49841721" id="Path" fill="#000000"></path>
            <path d="M15,4.49841723 C15,4.23259468 15.2333333,4 15.5,4 C15.8,4 16,4.23259468 16,4.49841723 C16,4.76423974 15.7666667,4.99683442 15.5,4.99683442 C15.2333333,5.03006225 15,4.79746757 15,4.49841723" id="Path" fill="#000000"></path>
            <path d="M16,5.5 C16,5.23333332 16.2333333,5 16.5,5 C16.8,5 17,5.23333332 17,5.5 C17,5.79999999 16.7666667,6 16.5,6 C16.2333333,6 16,5.76666668 16,5.5" id="Path" fill="#000000"></path>
            <path d="M23,5.49841721 C23,5.23259471 22.7666667,5 22.5,5 C22.2333333,5 22,5.23259471 22,5.49841721 C22,5.79746754 22.2333333,5.99683442 22.5,5.99683442 C22.7666667,6.03006225 23,5.79746754 23,5.49841721" id="Path" fill="#000000"></path>
            <path d="M28,6.5 C28,6.23333335 27.7666667,6 27.5,6 C27.2,6 27,6.23333335 27,6.5 C27,6.8 27.2333333,7 27.5,7 C27.7666667,7 28,6.76666665 28,6.5" id="Path" fill="#000000"></path>
            <path d="M29,6.49841721 C29,6.19936688 28.7666667,6 28.5,6 C28.2333333,6 28,6.23259471 28,6.49841721 C28,6.76423975 28.2333333,6.99683442 28.5,6.99683442 C28.7666667,7.03006225 29,6.79746754 29,6.49841721" id="Path" fill="#000000"></path>
            <path d="M29,5.5 C29,5.23333332 28.7666667,5 28.5,5 C28.2,5 28,5.23333332 28,5.5 C28,5.76666668 28.2333333,6 28.5,6 C28.8,6 29,5.76666668 29,5.5" id="Path" fill="#000000"></path>
            <path d="M28,5.49841721 C28,5.23259471 27.7666667,5 27.5,5 C27.2333333,5 27,5.23259471 27,5.49841721 C27,5.76423971 27.2333333,5.99683442 27.5,5.99683442 C27.7666667,6.03006225 28,5.79746754 28,5.49841721" id="Path" fill="#000000"></path>
            <path d="M27,4.49841721 C27,4.23259471 26.7666667,4 26.5,4 C26.2,4 26,4.23259471 26,4.49841721 C26,4.79746754 26.2333333,4.99683443 26.5,4.99683443 C26.7666667,5.03006221 27,4.79746754 27,4.49841721" id="Path" fill="#000000"></path>
            <path d="M26,4.49841721 C26,4.23259471 25.7666667,4 25.5,4 C25.2,4 25,4.23259471 25,4.49841721 C25,4.76423975 25.2333333,4.99683442 25.5,4.99683442 C25.7666667,5.03006225 26,4.79746754 26,4.49841721" id="Path" fill="#000000"></path>
            <path d="M25,4.49841723 C25,4.23259468 24.7666667,4 24.5,4 C24.2,4 24,4.23259468 24,4.49841723 C24,4.76423974 24.2333333,4.99683442 24.5,4.99683442 C24.8,5.03006225 25,4.79746757 25,4.49841723" id="Path" fill="#000000"></path>
            <path d="M24,5.5 C24,5.23333332 23.7666667,5 23.5,5 C23.2333333,5 23,5.23333332 23,5.5 C23,5.79999999 23.2333333,6 23.5,6 C23.8,6 24,5.76666668 24,5.5" id="Path" fill="#000000"></path>
            <path d="M23,10.5 C23,10.2352941 22.7647059,10 22.5,10 C22.2352941,10 22,10.2352941 22,10.5 C22,10.7647059 22.2352941,11 22.5,11 C22.7647059,11 23,10.7647059 23,10.5" id="Path" fill="#000000"></path>
            <path d="M20,14 L20,20 L26,20 L26,14 L20,14 Z M25.8255814,19.8453608 L20.1744186,19.8453608 L20.1744186,14.185567 L22.3720931,14.185567 L23.2093023,14.185567 L25.7906977,14.185567 L25.8255814,19.8453608 L25.8255814,19.8453608 Z" id="Shape" fill="#000000"></path>
            <path d="M20.3378378,13 L20.3378378,13 L20,13 L20,17.7058823 L20,18 L20.3378378,18 L24.6621622,18 L25,18 L25,17.7058823 L25,13.2941177 L25,13 L24.6621622,13 L22.8040541,13 L21.8243243,13 L20.3378378,13 Z M24.6621622,13.1470588 L24.6621622,13.2941177 L24.8310811,13.2941177 L24.8310811,17.7058823 L24.6621622,17.7058823 L24.6621622,17.8529412 L20.3378378,17.8529412 L20.3378378,17.7058823 L20.1689189,17.7058823 L20.1689189,13.2941177 L20.3378378,13.2941177 L20.3378378,13.1470588 L24.6621622,13.1470588 Z" id="Shape" fill="#000000"></path>
            <path d="M24.9636364,15.8985507 L24.6727273,16.1304348 L24.6727273,16.1304348 C24.6727273,16.1304348 24.6363637,16.1304348 24.6363637,16.1594202 L24.6363637,16.1594202 L24.0909091,16.5652174 C23.909091,16.6811594 23.8727273,16.884058 24.0181818,17.0289855 L24.3454546,17.3768116 C24.3818182,17.4057971 24.3818182,17.4347826 24.3818182,17.4927536 C24.3818182,17.5217391 24.3454546,17.5797102 24.309091,17.5797102 C24.2727273,17.6086956 24.2363636,17.6086956 24.1636364,17.6086956 C24.1272727,17.6086956 24.0545454,17.5797102 24.0545454,17.5507246 C24.0545454,17.5507246 23.7272727,17.2028986 23.5818182,17.0289855 L23.5818182,16.5362319 L24.3454546,15.9565218 L24.3454546,15.4637682 L24.0909091,15.2608696 L24.4181818,15 L23.0727273,15 L22.7454546,15.2608696 L22.7454546,15.5507246 C22.7818182,15.5217391 22.8545454,15.5217391 22.8909091,15.5217391 C23.0363637,15.5217391 23.1818182,15.6376812 23.1818182,15.7536232 C23.1818182,15.8695652 23.0363637,15.9855073 22.8909091,15.9855073 C22.8545454,15.9855073 22.7818182,15.9855073 22.7454546,15.9565218 L22.7454546,16.3043478 L22.2727273,16.3043478 L21.7272727,15.6956522 C21.8,15.6376812 21.8363636,15.5507246 21.8363636,15.4637682 C21.8363636,15.2898551 21.6545454,15.173913 21.4727273,15.173913 C21.4,15.173913 21.3272727,15.2028986 21.2545454,15.2318841 L21.2545454,15.4057971 L21.2545454,15.6956522 L21.2545454,15.7246377 C21.2545454,15.7246377 21.2545454,15.7246377 21.2909091,15.7246377 L21.8,16.3043478 L22.0545454,16.5942029 L22.5272727,16.5942029 L22.6727273,16.5942029 L22.3454546,16.8550725 L21.690909,16.8550725 C21.6545454,16.7391305 21.5090909,16.6811594 21.3636363,16.6811594 C21.2181818,16.6811594 21.0727273,16.7681159 21.0363636,16.8550725 C21.0363636,16.884058 21,16.9130435 21,16.9710145 C21,17.0289855 21.0363636,17.115942 21.0727273,17.1449275 L21.6545454,17.1449275 L22.5636363,17.1449275 L22.8181818,17.4347826 L22.2363636,17.4347826 L21.8,17.4347826 L21.8,17.4347826 L22.2,17.8695652 L22.4181818,18.1014493 L21.9090909,18.1014493 C21.8727273,17.9855073 21.7272727,17.8985507 21.5454546,17.8985507 C21.4,17.8985507 21.2545454,17.9855073 21.1818182,18.1014493 C21.1818182,18.1304348 21.1818182,18.1594203 21.1818182,18.1884058 C21.1818182,18.2753623 21.2181818,18.3333334 21.2909091,18.3913043 L21.8363636,18.3913043 L22.7090909,18.3913043 L23.1454546,18.3913043 L22.8909091,18.1014493 L22.6727273,17.8695652 L23.2545454,17.8695652 L23.4727273,18.1014493 L23.7272727,18.3913043 L24.4909091,18.3913043 L24.6,18.3913043 L24.6,18.710145 L24.4909091,18.710145 C24.4545454,18.5942029 24.309091,18.5072464 24.1272727,18.5072464 C23.9454546,18.5072464 23.8363636,18.5942029 23.7636364,18.710145 C23.7636364,18.7391304 23.7636364,18.7681159 23.7636364,18.7971014 C23.7636364,18.884058 23.8,18.942029 23.8727273,19 L24.9636364,19 L24.9636364,18.3623189 L24.9636364,18.0724638 L24.6,18.0724638 L24.2363636,18.0724638 L23.8727273,17.6956522 C23.9454546,17.7536232 24.0181818,17.8115942 24.1272727,17.8115942 C24.2363636,17.8115942 24.3454546,17.8115942 24.4545454,17.7536232 C24.5636363,17.6956522 24.6,17.6086956 24.6363637,17.5217391 C24.6363637,17.4347826 24.6363637,17.3478261 24.5636363,17.2608696 L24.2363636,16.9130435 C24.1636364,16.8550725 24.2,16.7391305 24.2727273,16.710145 C24.2727273,16.710145 24.3454546,16.6521739 24.4181818,16.5942029 C24.5636363,16.6811594 24.7454546,16.6811594 24.8909091,16.5942029 C24.9636364,16.5362319 25,16.4782609 25,16.3913044 L25,16.3913044 L25,16.3913044 L24.9636364,15.8985507 Z" id="Path" fill="#000000"></path>
            <polygon id="Path" fill="#000000" points="20 10.5 20.5 10 21 10.5 20.5 11"></polygon>
            <path d="M17,10.5 C17,10.2352941 17.2352941,10 17.5,10 C17.7647059,10 18,10.2352941 18,10.5 C18,10.7647059 17.7647059,11 17.5,11 C17.2352941,11 17,10.7647059 17,10.5" id="Path" fill="#000000"></path>
            <path d="M25.685551,21.875 L25.685551,21.875 L25.685551,21.875 C25.685551,21.8125 25.685551,21.78125 25.685551,21.71875 C25.685551,21.5 25.5122111,21.34375 25.2695351,21.34375 L23.7788114,21.34375 C23.7788114,21.1875 23.6054714,21.03125 23.4321314,21.03125 C23.3281275,21.03125 23.2587915,21.0625 23.1894555,21.125 L22.7387716,21.53125 L23.1894555,21.53125 L23.1894555,21.53125 L23.7094754,21.53125 L25.2695351,21.53125 C25.3735391,21.53125 25.442875,21.59375 25.442875,21.6875 C25.442875,21.78125 25.3735391,21.84375 25.2695351,21.84375 L25.2695351,21.84375 L24.2641633,21.84375 L24.2641633,21.84375 L22.3227556,21.84375 L22.3227556,21.46875 L22.8427756,21 L20.7973638,21 L21.3173837,21.46875 L21.3173837,22.15625 L20.4853519,21.5625 C20.5546879,21.5 20.5893559,21.40625 20.5893559,21.3125 C20.5893559,21.125 20.4160159,21 20.2426759,21 C20.17334,21 20.069336,21.03125 20,21.0625 L20,21.53125 L20,21.53125 L20,21.625 L21.2827157,22.5625 L20.6933599,22.71875 C20.6586918,22.59375 20.5200199,22.5 20.3466799,22.5 C20.1386719,22.5 20,22.65625 20,22.8125 C20,22.875 20.034668,22.96875 20.069336,23 L20.4853519,23 L20.7973638,23 L23.9868194,22.09375 L23.9868194,22.53125 L23.5708034,22.6875 C23.5361354,22.53125 23.3974634,22.4375 23.2241235,22.4375 C23.0161155,22.4375 22.8774435,22.59375 22.8774435,22.75 C22.8774435,22.8125 22.9121115,22.90625 22.9467795,22.9375 L23.3281275,22.9375 L23.7441434,22.9375 L24.2294953,22.71875 L24.5415072,22.59375 L24.4028352,22.3125 L24.4028352,22.25 L25.581547,22.25 C25.581547,22.28125 25.546879,22.34375 25.546879,22.375 C25.5122111,22.4375 25.4775431,22.53125 25.442875,22.59375 C25.3735391,22.53125 25.2695351,22.5 25.1655311,22.5 C24.9575231,22.5 24.8188512,22.65625 24.8188512,22.8125 C24.8188512,22.875 24.8535192,22.96875 24.8881872,23 L25.442875,23 L25.616215,23 C25.720219,22.8125 25.789555,22.59375 25.824223,22.46875 C25.928227,22.1875 25.997563,21.9375 25.997563,21.84375 C26.0322309,21.875 25.685551,21.875 25.685551,21.875 L25.685551,21.875 Z M21.8374037,21.90625 L21.4907237,21.59375 L22.1840836,21.59375 L21.8374037,21.90625 Z" id="Shape" fill="#000000"></path>
            <path d="M25.5955056,20.8615385 C25.6292135,20.8 25.6292135,20.7692308 25.6292135,20.7076923 C25.6292135,20.4923077 25.4606741,20.3384616 25.2247191,20.3384616 L23.7078652,20.3384616 C23.7078652,20.1846154 23.5393259,20.0307692 23.3707865,20.0307692 C23.269663,20.0307692 23.2022472,20.0615385 23.1348315,20.1230769 L22.6966292,20.523077 L23.1348315,20.523077 L23.1348315,20.523077 L23.6404494,20.523077 L25.258427,20.523077 C25.3595506,20.523077 25.4269663,20.5846154 25.4269663,20.6769231 C25.4269663,20.7692308 25.3595506,20.8307692 25.258427,20.8307692 L24.2134831,20.8307692 L22.2921348,20.8307692 L22.2921348,20.4615385 L22.7977529,20 L20.8089887,20 L21.3146068,20.4615385 L21.3146068,21.1384616 L20.5056179,20.5538462 C20.5730337,20.4923077 20.6067416,20.4 20.6067416,20.3384616 C20.6067416,20.1538462 20.4382023,20.0307692 20.2696629,20.0307692 C20.2022472,20.0307692 20.1011236,20.0615385 20.0337079,20.0923077 L20.0337079,20.5538462 L20.0337079,20.6461539 L21.247191,21.5384615 L20.6741573,21.6923077 C20.6404494,21.5692308 20.5056179,21.4769231 20.3370786,21.4769231 C20.1348315,21.4769231 20,21.6307692 20,21.7846154 C20,21.8461539 20.0337079,21.9384616 20.0674157,22 L20.6067416,22 L20.7752809,22 L23.8764045,21.1076923 L23.8764045,21.5692308 L23.4719101,21.6923077 C23.4382023,21.5692308 23.3033708,21.4769231 23.1348315,21.4769231 C22.9325843,21.4769231 22.7977529,21.6307692 22.7977529,21.7846154 C22.7977529,21.8461539 22.8314607,21.9384616 22.8651685,22 L23.4044944,22 L23.6404494,22 L24.4157303,21.7846154 L24.7865169,21.6615385 L24.4831461,21.4153846 L24.2808989,21.2307693 L25.6629214,21.2307693 L25.6629214,21.5692308 C25.5955056,21.5076923 25.4943821,21.4461538 25.3932585,21.4461538 C25.1910113,21.4461538 25.0561798,21.6 25.0561798,21.7538462 C25.0561798,21.8153846 25.0898877,21.9076923 25.1235955,21.9692308 L25.6629214,21.9692308 L26,21.9692308 L26,21.2 L26,21.0461539 L26,20.8307692 L25.5955056,20.8615385 L25.5955056,20.8615385 Z M21.8202247,20.8923077 L21.4831461,20.5846154 L22.1573033,20.5846154 L21.8202247,20.8923077 Z" id="Shape" fill="#000000"></path>
            <path d="M24.6474558,25.2061856 L24.1186395,25.2061856 C24.1186395,25.1030928 23.9717461,25 23.8248527,25 C23.7367166,25 23.6779593,25.0206185 23.6192019,25.0618557 L23.237279,25.3298969 L23.6192019,25.3298969 L23.6192019,25.3298969 L24.0892609,25.3298969 L24.6768345,25.3298969 C24.7649705,25.3298969 24.8237279,25.371134 24.8237279,25.4329897 C24.8237279,25.4948453 24.7649705,25.5360825 24.6768345,25.5360825 L23.8248527,25.5360825 L22.9434922,25.5360825 L22.9434922,25.3298969 L23.3841725,25.0206185 L21.6508301,25.0206185 L22.0915104,25.3298969 L22.0915104,25.8453608 L21.386422,25.3917526 C21.4451794,25.3505155 21.5039368,25.2886598 21.5039368,25.2268041 C21.5039368,25.1030928 21.3570433,25.0206185 21.2101499,25.0206185 C21.1513925,25.0206185 21.0632565,25.0412371 21.0044992,25.0618557 L21.0044992,25.2886598 L21.0044992,25.4123711 L22.1208891,26.1340206 L22.1796465,26.0927835 L21.4745581,26.6907217 C21.4158007,26.6494845 21.3276646,26.6494845 21.2689073,26.6494845 C21.0926352,26.6701031 20.9751205,26.7731959 21.0044992,26.8762887 C21.0044992,26.9175258 21.0338778,26.9587629 21.0632565,27 C21.1807713,27 21.3276646,26.9793815 21.5626941,26.9587629 L22.3559185,26.2989691 C22.4734333,26.2783505 22.5615693,26.2371134 22.6790841,26.2164949 L23.0022496,26.4226804 C22.9434922,26.4432989 22.8847349,26.4639175 22.8259775,26.4845361 C22.7378414,26.4432989 22.6203267,26.4226804 22.5321906,26.4432989 C22.3852973,26.4845361 22.2971612,26.6082475 22.3559185,26.7113402 C22.3852973,26.7525773 22.4146759,26.7731959 22.4440546,26.7938145 C22.4440546,26.7938145 22.5615693,26.7731959 22.6790841,26.7319588 C22.7965988,26.6907217 22.9141135,26.6701031 22.9141135,26.6701031 L22.9141135,26.6701031 C23.0610069,26.628866 23.1785217,26.5876289 23.2960364,26.5463917 L23.2960364,26.2989691 L23.2960364,25.9896907 C23.5016872,25.9072165 23.6779593,25.8247423 23.8248527,25.7216495 L24.1186395,25.9072165 C24.0598821,25.9484536 24.0011248,25.9690721 23.9129887,26.0103093 C23.8248527,25.9690721 23.7073379,25.9690721 23.6192019,26.0103093 C23.5604445,26.0309279 23.5016872,26.0927835 23.4723085,26.1340206 C23.4723085,26.1546392 23.4723085,26.1958763 23.4723085,26.2164949 C23.4723085,26.2371134 23.5016872,26.2783505 23.5016872,26.2989691 C23.5310658,26.3402062 23.5898233,26.3608247 23.6485806,26.3814433 C23.795474,26.3195876 23.9129887,26.2577319 24.0598821,26.1958763 C24.1480182,26.1546392 24.2655329,26.0927835 24.3536689,26.0309279 C24.3830477,26.0103093 24.4124263,25.9896907 24.441805,25.9690721 L24.441805,25.7628866 L24.441805,25.7010309 L24.6474558,25.7010309 C24.8531065,25.7010309 25,25.5979381 25,25.4536083 C25,25.3298969 24.8531065,25.2061856 24.6474558,25.2061856 L24.6474558,25.2061856 Z M22.4734333,25.5979381 L22.1796465,25.3917526 L22.7672201,25.3917526 L22.4734333,25.5979381 Z" id="Shape" fill="#000000"></path>
            <path d="M19.625,17.8615385 C19.6590909,17.8 19.6590909,17.7692308 19.6590909,17.7076923 C19.6590909,17.4923077 19.4886364,17.3384616 19.25,17.3384616 L17.7159091,17.3384616 C17.7159091,17.1846154 17.5454545,17.0307692 17.375,17.0307692 C17.2727273,17.0307692 17.2045454,17.0615385 17.1363636,17.1230769 L16.6931819,17.523077 L17.1022727,17.523077 L17.1022727,17.523077 C17.1022727,17.523077 17.6136364,17.523077 17.6477273,17.523077 L19.2840909,17.523077 C19.3863636,17.523077 19.4545454,17.5846154 19.4545454,17.6769231 C19.4545454,17.7692308 19.3863636,17.8307692 19.2840909,17.8307692 L18.2272727,17.8307692 L18.2272727,17.8307692 L16.3181818,17.8307692 L16.3181818,17.4615385 L16.8295455,17 L14.8181819,17 L15.3295455,17.4615385 L15.3295455,18.1384616 L14.5113636,17.5538462 C14.5795455,17.4923077 14.6136364,17.4 14.6136364,17.3384616 C14.6136364,17.1538462 14.4431819,17.0307692 14.2727273,17.0307692 C14.1704546,17.0307692 14.1022727,17.0615385 14.0340909,17.0923077 L14.0340909,17.5538462 L14.0340909,17.6461539 L15.2613636,18.5384615 L14.6818182,18.6923077 C14.6477273,18.5692308 14.5113636,18.4769231 14.3409091,18.4769231 C14.1363636,18.4769231 14,18.6307692 14,18.7846154 C14,18.8769231 14.0340909,18.9384616 14.0681819,19 C14.0681819,19 14.5454546,19 14.6136364,19 L14.784091,19 L17.9204545,18.1076923 L17.9204545,18.5692308 L17.5113636,18.6923077 C17.4772727,18.5692308 17.3409091,18.4769231 17.1704545,18.4769231 C16.9659091,18.4769231 16.8295455,18.6307692 16.8295455,18.7846154 C16.8295455,18.8769231 16.8636364,18.9384616 16.8977273,19 C16.8977273,19 17.375,19 17.4431818,19 L17.6136364,19 L18.3977273,18.7846154 L18.7727273,18.6923077 L18.4659091,18.4461538 L18.2613636,18.2615385 L19.6590909,18.2615385 L19.6590909,18.6 C19.5909091,18.5384615 19.4886364,18.4769231 19.3863636,18.4769231 C19.1818181,18.4769231 19.0454545,18.6307692 19.0454545,18.7846154 C19.0454545,18.8769231 19.0795455,18.9384616 19.1136364,19 L19.6590909,19 L20,19 L20,18.2615385 L20,17.8615385 L19.625,17.8615385 Z M15.7727273,17.8923077 L15.4318181,17.5846154 L16.1136364,17.5846154 L15.7727273,17.8923077 Z" id="Shape" fill="#000000"></path>
            <path d="M19.6271186,16.8615385 C19.661017,16.8 19.661017,16.7692308 19.661017,16.7076923 C19.661017,16.4923077 19.4915255,16.3384615 19.2542373,16.3384615 L17.7288136,16.3384615 C17.7288136,16.1846154 17.5593221,16.0307692 17.3898305,16.0307692 C17.2881356,16.0307692 17.2203389,16.0615385 17.1525424,16.1230769 L16.7118644,16.5230769 L17.118644,16.5230769 L17.118644,16.5230769 L17.6271186,16.5230769 L19.2542373,16.5230769 C19.3559321,16.5230769 19.4237288,16.5846154 19.4237288,16.6769231 C19.4237288,16.7692308 19.3559321,16.8307692 19.2542373,16.8307692 L18.2033898,16.8307692 L16.3050847,16.8307692 L16.3050847,16.4615384 L16.8135593,16 L14.8135593,16 L15.3220338,16.4615384 L15.3220338,17.1384615 L14.5084745,16.5538461 C14.5762712,16.4923077 14.6101695,16.4 14.6101695,16.3384615 C14.6101695,16.1538461 14.440678,16.0307692 14.2711865,16.0307692 C14.1694915,16.0307692 14.1016949,16.0615385 14.0338983,16.0923077 L14.0338983,16.5538461 L14.0338983,16.6461538 L15.2542373,17.5384616 L14.6779661,17.6923077 C14.6440678,17.5692308 14.5084745,17.4769231 14.338983,17.4769231 C14.1355932,17.4769231 14,17.6307693 14,17.7846154 C14,17.8461539 14.0338983,17.9384615 14.0677966,18 L14.6101695,18 L14.779661,18 L17.8983051,17.1076923 L17.8983051,17.5692308 L17.4915254,17.6923077 C17.4576271,17.5692308 17.3220339,17.4769231 17.1525424,17.4769231 C16.9491525,17.4769231 16.8135593,17.6307693 16.8135593,17.7846154 C16.8135593,17.8461539 16.8474576,17.9384615 16.8813559,18 L17.4576271,18 L17.6271186,18 L18.4067796,17.7846154 L18.779661,17.6615385 L18.4745763,17.4153846 L18.2711864,17.2307692 L19.661017,17.2307692 L19.661017,17.5692308 C19.5932203,17.5076923 19.4915255,17.4461539 19.3898305,17.4461539 C19.1864407,17.4461539 19.0508474,17.6 19.0508474,17.7538462 C19.0508474,17.8153846 19.0847458,17.9076923 19.1186441,17.9692308 L19.661017,17.9692308 L20,17.9692308 L20,17.2 L20,16.8 L19.6271186,16.8 L19.6271186,16.8615385 L19.6271186,16.8615385 Z M15.7966102,16.8923077 L15.4576271,16.5846154 L16.1355932,16.5846154 L15.7966102,16.8923077 Z" id="Shape" fill="#000000"></path>
            <path d="M19.6590909,14.8615384 C19.6931819,14.8 19.6931819,14.7692308 19.6931819,14.7076923 C19.6931819,14.4923077 19.5227273,14.3384615 19.2840909,14.3384615 L17.75,14.3384615 C17.75,14.1846154 17.5795455,14.0307692 17.4090909,14.0307692 C17.3068181,14.0307692 17.2386364,14.0615384 17.1704545,14.1230769 L16.7272727,14.5230769 L17.1363636,14.5230769 L17.1363636,14.5230769 C17.1363636,14.5230769 17.5795455,14.5230769 17.6477273,14.5230769 L19.2840909,14.5230769 C19.3863636,14.5230769 19.4545454,14.5846154 19.4545454,14.6769231 C19.4545454,14.7692308 19.3863636,14.8307692 19.2840909,14.8307692 L19.2840909,14.8307692 L18.2272727,14.8307692 L18.2272727,14.8307692 L16.3181819,14.8307692 L16.3181819,14.4615385 L16.8295455,14 L14.8181819,14 L15.3295454,14.4615385 L15.3295454,15.1384615 L14.5113636,14.5538462 C14.5795455,14.4923077 14.6136364,14.4 14.6136364,14.3384615 C14.6136364,14.1538461 14.4431818,14.0307692 14.2727273,14.0307692 C14.1704545,14.0307692 14.1022727,14.0615384 14.0340909,14.0923077 L14.0340909,14.5538462 L14.0340909,14.6461539 L15.2613636,15.5384615 L14.6818181,15.6923077 C14.6477273,15.5692308 14.5113636,15.4769231 14.340909,15.4769231 C14.1363636,15.4769231 14,15.6307692 14,15.7846154 C14,15.8769231 14.0340909,15.9384616 14.0681818,16 C14.0681818,16 14.5795455,16 14.6136364,16 L14.7840909,16 L17.9204545,15.1076923 L17.9204545,15.5692308 L17.5113636,15.6923077 C17.4772727,15.5692308 17.340909,15.4769231 17.1704545,15.4769231 C16.9659091,15.4769231 16.8295455,15.6307692 16.8295455,15.7846154 C16.8295455,15.8769231 16.8636364,15.9384616 16.8977273,16 C16.8977273,16 17.4090909,16 17.4431818,16 L17.6136364,16 L18.3977273,15.7846154 L18.7727273,15.6923077 L18.4659091,15.4461538 L18.2613636,15.2615385 L19.6590909,15.2615385 L19.6590909,15.6 C19.5909091,15.5384615 19.4886364,15.4769231 19.3863636,15.4769231 C19.1818181,15.4769231 19.0454545,15.6307692 19.0454545,15.7846154 C19.0454545,15.8769231 19.0795455,15.9384616 19.1136364,16 L19.6590909,16 L20,16 L20,15.2307692 L20,14.8307692 L19.6590909,14.8615384 L19.6590909,14.8615384 Z M15.8068181,14.9230769 L15.4659091,14.6153846 L16.1477273,14.6153846 L15.8068181,14.9230769 Z" id="Shape" fill="#000000"></path>
            <path d="M27.6452416,18.9920533 L27.6452416,18.9920533 C27.9337217,18.908183 28.057356,18.6146371 27.9749331,18.3630263 C27.9337217,18.2372209 27.8512988,18.1114155 27.7276645,18.0694804 C27.6040301,17.9856101 27.4803958,17.9856101 27.3567615,18.0275453 C27.2331271,18.0694804 27.1094928,18.1533507 27.0682814,18.2791561 C26.9858585,18.4049615 26.9858585,18.5307668 27.0270699,18.6565722 C27.1094928,18.908183 27.3979729,19.0339884 27.6452416,18.9920533" id="Path" fill="#000000"></path>
            <path d="M26,21.2063492 L26.0487805,21.5555555 L27.0243903,21.3650793 C27.0487805,21.3650793 28,22 28,22 L27.9512195,21.5555555 C27.9512195,21.5555555 27.3170731,21.1428571 27.2682927,21.1111111 C27.3170731,21.047619 27.8292683,20.4444444 27.8292683,20.4444444 L27.7804878,20 L27.7560975,20.031746 C27.7560975,20.031746 27,20.952381 26.9756097,20.984127 C26.9756097,21.015873 26,21.2063492 26,21.2063492" id="Path" fill="#000000"></path>
            <path d="M27,20.5330087 C27,20.6472249 27.04,20.761441 27.16,20.8756572 C27.24,20.9518013 27.36,21.0279454 27.52,20.9898734 C27.64,20.9898734 27.76,20.9518013 27.88,20.8375851 C27.96,20.761441 28,20.6472249 28,20.4949367 C28,20.3807205 27.96,20.2665043 27.84,20.1522882 C27.76,20.0761441 27.64,20 27.48,20 C27.2,20.038072 27,20.2665043 27,20.5330087" id="Path" fill="#000000"></path>
            <path d="M26.025,21 L26,21.4203597 C26,21.4203597 26.775,21.5732178 26.825,21.6114323 C26.825,21.6496468 26.8,21.955363 26.8,21.955363 C26.8,22.031792 26.8,22.0700066 26.8,22.1464356 C26.8,22.3375082 26.825,22.5285808 26.9,22.6814388 C26.975,22.8342969 27.1,22.9489405 27.275,22.987155 C27.625,23.0635841 27.875,22.7960824 27.925,22.2610791 L28,21.4203597 L26.025,21 L26.025,21 Z M27.625,21.7642904 C27.625,21.8025049 27.6,22.1846501 27.6,22.1846501 C27.575,22.5667953 27.375,22.5667953 27.3,22.5285808 C27.15,22.4903663 27.05,22.3375082 27.05,22.1464356 C27.05,22.1082211 27.05,22.1082211 27.05,22.0700066 C27.05,22.0700066 27.075,21.7642904 27.075,21.6878614 C27.125,21.6496468 27.6,21.7260759 27.625,21.7642904 L27.625,21.7642904 Z" id="Shape" fill="#000000"></path>
            <path d="M26.2988505,22 L26,23.2063492 L26.2528735,23.3333333 C26.2528735,23.3333333 26.4597701,22.4761905 26.4597701,22.4444444 C26.4827586,22.4761905 26.8965517,22.6349206 26.9425287,22.6666667 C26.9195402,22.7301587 26.7356322,23.4920635 26.7356322,23.4920635 L26.9885057,23.6190476 C26.9885057,23.6190476 27.1724138,22.8253968 27.1954023,22.7936508 C27.2183908,22.8253968 27.6321839,22.984127 27.6551724,23.015873 C27.6321839,23.0793651 27.4482759,23.8730159 27.4482759,23.8730159 L27.7011494,24 L28,22.7936508 L26.2988505,22 L26.2988505,22 Z" id="Path" fill="#000000"></path>
            <path d="M25.6534653,25 L25.5544555,25.1684211 C25.5544555,25.1684211 26.4257426,25.7578947 26.5049505,25.8210527 C26.4059406,25.8210527 25.0990099,25.9473684 25.0990099,25.9473684 L25,26.1157895 L26.3069307,27 L26.4257426,26.8105263 C26.4257426,26.8105263 25.5544555,26.2210527 25.4752475,26.1578947 C25.5742575,26.1578947 26.9009901,26.0105263 26.9009901,26.0105263 L27,25.8421053 L25.6534653,25 L25.6534653,25 Z" id="Path" fill="#000000"></path>
            <path d="M24.9565217,26.8533334 C24.7246377,26.88 24.5217391,26.9333333 24.3768116,26.8 C24.3188406,26.7466667 24.2608696,26.5866667 24.4057971,26.4533334 C24.5507246,26.32 24.7536232,26.2933334 24.9855073,26.32 L25.0724638,26.32 L24.7246377,26 L24.7246377,26 C24.4927536,26.0266667 24.3188406,26.08 24.173913,26.24 C24.057971,26.3466667 24,26.48 24,26.6133334 C24,26.7733334 24.057971,26.9066667 24.2028986,27.04 C24.4927536,27.3066667 24.8115942,27.2533333 25.1014493,27.2 C25.3043478,27.1466667 25.4782609,27.12 25.6231884,27.2266667 C25.6521739,27.28 25.6811594,27.3066667 25.6811594,27.36 C25.6811594,27.44 25.6521739,27.4933333 25.5652174,27.5733333 C25.4492754,27.68 25.3043478,27.7333333 25.1014493,27.7066667 L25.0434783,27.7066667 L25.3623188,28 L25.3623188,28 C25.5362319,27.9733333 25.6811594,27.92 25.7971014,27.8133333 C25.942029,27.68 26,27.5466667 26,27.4133333 C26,27.28 25.942029,27.12 25.7971014,27.0133333 C25.5362319,26.7466667 25.2173913,26.8 24.9565217,26.8533334" id="Path" fill="#000000"></path>
            <path d="M22.868421,26 L22,26.5 L22.1578947,26.7272727 C22.1578947,26.7272727 22.7631579,26.3636363 22.8157895,26.3409091 C22.8421053,26.3636363 23.1052631,26.7272727 23.1315789,26.75 C23.1052631,26.7727273 22.5263158,27.1136363 22.5263158,27.1136363 L22.6842105,27.3409091 C22.6842105,27.3409091 23.2631579,27 23.2894737,27 C23.3157895,27.0227273 23.5789473,27.3636363 23.6052631,27.4090909 C23.5789473,27.4318182 22.9736842,27.7727273 22.9736842,27.7727273 L23.1315789,28 L24,27.5 L22.868421,26 L22.868421,26 Z" id="Path" fill="#000000"></path>
            <path d="M15.3763441,27.1020408 C15.3548387,27.0816327 14.7311828,26.7142857 14.7096774,26.6938775 C14.7311828,26.6734694 15.0967742,26.122449 15.0967742,26.122449 L14.8817204,26 L14.8817204,26.0204081 L14,27.3469388 L14.2150538,27.4693877 C14.2150538,27.4693877 14.5806451,26.9183673 14.6021505,26.8979592 C14.6236559,26.9183673 15.2473119,27.2857143 15.2688172,27.3061225 C15.2473119,27.3265306 14.8817204,27.877551 14.8817204,27.877551 L15.0967742,28 L16,26.6530612 L15.7849462,26.5306123 C15.7634409,26.5306123 15.3978495,27.0612245 15.3763441,27.1020408" id="Path" fill="#000000"></path>
            <path d="M15.9960885,25.9918573 C16.0216297,25.7376109 15.9194653,25.5087893 15.7662187,25.3308169 C15.3320203,24.8477488 14.7445753,24.9494473 14.3614591,25.2799675 C14.1315893,25.4833647 14.0038839,25.7376109 14.0038839,25.9918573 C13.9783427,26.2461036 14.0805071,26.4749253 14.2592947,26.6783224 C14.6168699,27.0851165 15.2298559,27.1105411 15.6640545,26.7291717 C15.842842,26.5257746 15.9705475,26.2715283 15.9960885,25.9918573 M15.6895955,25.9918573 C15.6895955,26.1698297 15.5874312,26.3732268 15.4341847,26.5003499 C15.1276916,26.7800209 14.7190343,26.7800209 14.4636234,26.4749253 C14.3359179,26.3478021 14.2848358,26.1698297 14.3103769,26.0172819 C14.3103769,25.8393095 14.4125412,25.6613371 14.5657877,25.5087893 C14.7190343,25.3816661 14.9233629,25.3053922 15.1021505,25.3053922 C15.2809381,25.3053922 15.4341847,25.3816661 15.536349,25.5087893 C15.6385133,25.6613371 15.6895955,25.8138849 15.6895955,25.9918573" id="Shape" fill="#000000"></path>
            <path d="M12.9183673,25.0869565 C12.9183673,25.0869565 11.9387755,25.5652174 11.8571429,25.6086957 C11.8979592,25.5217391 12.5306123,24.1956522 12.5306123,24.1956522 L12.4489796,24 L12.4285714,24 L11,24.7173913 L11.1020408,24.9347826 C11.1020408,24.9347826 12.0816327,24.4565217 12.1632653,24.4130435 C12.122449,24.5 11.4897959,25.8260869 11.4897959,25.8260869 L11.5714286,26 L13,25.2826087 L12.9183673,25.0869565 Z" id="Path" fill="#000000"></path>
            <polygon id="Path" fill="#000000" points="12.9487179 22 12.9230769 22.0322581 11 22.6129032 11.0769231 23 13 22.3870968"></polygon>
            <path d="M12.7900918,21.0965238 C12.6678642,21.0158286 12.5456366,20.975481 12.4234089,21.0158286 C12.3011813,21.0158286 12.1789537,21.0965238 12.0974686,21.2175667 C12.0159835,21.3386095 11.9752409,21.4596524 12.0159835,21.5806953 C12.0159835,21.7017381 12.0974686,21.822781 12.2196962,21.9034762 C12.3419239,21.9841714 12.4641515,22.0245191 12.5863791,21.9841714 C12.871577,21.9438238 13.0345471,21.7017381 12.9938046,21.4193048 C12.953062,21.2579143 12.871577,21.177219 12.7900918,21.0965238" id="Path" fill="#000000"></path>
            <path d="M12.0886076,20.5476191 C12.2151899,20.3809524 12.3164557,20.2380952 12.4936709,20.2380952 C12.5443038,20.2380952 12.5949367,20.2619048 12.6455696,20.3095238 C12.6962025,20.3571429 12.7215189,20.4285714 12.7215189,20.5 C12.7215189,20.6428571 12.6202531,20.7857143 12.4430379,20.9047619 L12.3924051,20.952381 L12.8227848,20.952381 L12.8227848,20.952381 C12.9493671,20.8095238 13,20.6666667 13,20.4761905 C13,20.3571429 12.9493671,20.2380952 12.8734177,20.1428571 C12.7721519,20.047619 12.6202531,20 12.4683544,20 C12.1139241,20 11.9620253,20.2142857 11.8101266,20.4285714 C11.7088607,20.5714286 11.6329114,20.7142857 11.4810127,20.7142857 C11.4303797,20.7142857 11.3797468,20.6904762 11.3544304,20.6666667 C11.3037975,20.6190476 11.278481,20.5476191 11.278481,20.4761905 C11.278481,20.3571429 11.3544304,20.2142857 11.4810127,20.1190476 L11.5316455,20.0952381 L11.1518987,20.0952381 L11.1518987,20.0952381 C11.0506329,20.2142857 11,20.3333333 11,20.4761905 C11,20.6428571 11.0506329,20.7619048 11.1518987,20.8571429 C11.2531645,20.952381 11.3797468,21 11.5316455,21 C11.7848101,20.952381 11.9367089,20.7380952 12.0886076,20.5476191" id="Path" fill="#000000"></path>
            <path d="M11.8003427,20.9628844 C12.0754605,21.0418795 12.3505783,20.9892161 12.5756747,20.8575575 C12.7757603,20.725899 12.9258246,20.5152453 12.975846,20.2519283 C13.0258675,19.9886112 13.0008567,19.7252941 12.8758032,19.5146404 C12.7507497,19.277655 12.5006425,19.0933331 12.2255247,19.0406696 C11.6752891,18.8826794 11.1500642,19.1986599 11.0250107,19.7516258 C11,19.8306209 11,19.9096161 11,19.9886112 C11,20.1729331 11.0500214,20.3309234 11.1250535,20.4625819 C11.3001285,20.725899 11.5252249,20.910221 11.8003427,20.9628844 M11.3501499,19.8306209 C11.4001713,19.6462989 11.5002142,19.5146404 11.6252677,19.4093135 C11.775332,19.3039867 11.9754177,19.277655 12.1755033,19.3303184 C12.375589,19.3829818 12.5506639,19.5146404 12.6256961,19.6726307 C12.7007282,19.8306209 12.7257389,19.9886112 12.7007282,20.1729331 C12.6006854,20.5415771 12.2505355,20.7522307 11.8503641,20.6469039 C11.4752035,20.5679087 11.2501071,20.2255965 11.3501499,19.8306209" id="Shape" fill="#000000"></path>
            <path d="M30,19.866134 C30,17.2767233 28.9193325,14.8491509 26.9332407,13.0149851 C26.6995828,12.7992008 26.4659249,12.6103896 26.2030598,12.3946054 L26.2030598,12.016983 C26.6119611,11.99001 26.9624478,11.6663336 26.9624478,11.2887113 C26.9624478,10.8841159 26.6119611,10.5604396 26.1738526,10.5604396 C26.1446453,10.5604396 26.1446453,10.5604396 26.1154381,10.5604396 L26.8748262,10.2367632 L26.5827538,9.6433567 L27.7218359,7.18881122 L27.2253129,7 L26.0570237,9.50849147 L25.4436718,9.77822177 L25.852573,10.5874126 L22.4937413,10.5874126 L16.5354659,10.5874126 L13.1766342,10.5874126 L13.5855354,9.77822177 L12.9429763,9.50849147 L11.7746871,7 L11.2781641,7.18881122 L12.4172462,9.6433567 L12.1251738,10.2367632 L12.8845619,10.5604396 C12.8845619,10.5604396 12.8845619,10.5604396 12.8553547,10.5604396 C12.4172462,10.5604396 12.0667593,10.8841159 12.0667593,11.2887113 C12.0667593,11.6663336 12.3880389,11.99001 12.7969402,12.016983 L12.7969402,12.3946054 C12.5632823,12.5834166 12.3004172,12.7992008 12.0667593,13.0149851 C10.0806675,14.8491509 9,17.2767233 9,19.866134 C9,21.8621379 9.64255909,23.7772229 10.8984701,25.4225775 C12.1251738,27.0139862 13.7899861,28.2277723 15.7760779,28.902098 C15.7760779,28.902098 15.8929068,28.929071 16.0681502,29.0099901 C16.0973574,29.2797204 16.2726008,29.5224776 16.5354659,29.6033967 C16.8275383,29.7112889 17.1488178,29.6033967 17.3240612,29.4145855 L17.3532685,29.4145855 L17.3532685,32.1658344 C17.3532685,33.1908092 18.2878999,34 19.4561892,34 C20.6244784,34 21.5591099,33.1638365 21.5591099,32.1658344 L21.5591099,30.3316685 L26.6995828,28.0659341 C26.8748262,28.0119881 27.0208623,27.9310691 27.1668985,27.8231769 C27.5757997,27.4725276 27.6342142,26.933067 27.3713491,26.2317683 C27.8386648,25.7462539 28.2475661,25.2337663 28.5688456,24.6673328 C29.5034771,23.2107893 30,21.5654346 30,19.866134 L30,19.866134 Z M24.5382476,11.018981 L26.0570237,11.3156843 L24.5382476,11.6123876 L24.5382476,11.018981 Z M19.6606398,25.7462539 L19.6606398,18.4635365 L25.6773297,18.4635365 L25.6773297,19.8391609 C25.6773297,21.1878122 25.4144646,22.1048952 25.0347705,22.7792209 C24.713491,23.2647353 24.333797,23.7232768 23.8664812,24.1278722 C23.837274,24.1548453 23.8080668,24.1818182 23.7788595,24.2087913 C22.6689847,25.1798203 21.1794159,25.7192808 19.6606398,25.7462539 L19.6606398,25.7462539 Z M21.4714882,25.9890111 C21.3546593,26.2317683 21.2670375,26.5014986 21.2086231,26.7982019 C20.6244784,26.6093907 20.069541,26.4205795 19.5146036,26.2317683 L19.5146036,26.2317683 C20.18637,26.2587413 20.8581363,26.1508493 21.4714882,25.9890111 L21.4714882,25.9890111 Z M19.6606398,18.2207793 L19.6606398,12.043956 L24.7426982,12.043956 L25.6773297,12.043956 L25.6773297,16.899101 L25.6773297,18.2207793 L19.6606398,18.2207793 Z M21.7635605,11.018981 L23.2823366,11.3156843 L21.7635605,11.6123876 L21.7635605,11.018981 Z M18.9596662,11.018981 L20.4784423,11.3156843 L18.9596662,11.6123876 L18.9596662,11.018981 Z M16.1265647,11.018981 L17.6453407,11.3156843 L16.1265647,11.6123876 L16.1265647,11.018981 Z M13.3810849,11.018981 L14.8998609,11.3156843 L13.3810849,11.6123876 L13.3810849,11.018981 Z M13.3810849,16.899101 L13.3810849,12.043956 L14.3157163,12.043956 L19.3977747,12.043956 L19.3977747,18.2207793 L13.3810849,18.2207793 L13.3810849,16.899101 Z M13.3810849,18.4635365 L19.3977747,18.4635365 L19.3977747,25.7462539 C18.1710709,25.7192808 16.9735744,25.3686315 15.9513213,24.7212789 L15.9513213,24.7212789 C15.922114,24.6943058 15.8636996,24.6673328 15.8344923,24.6403598 L15.8052851,24.6133867 C15.7760779,24.5864137 15.7468707,24.5864137 15.7176634,24.5594407 C15.6884562,24.5324676 15.6592489,24.5054946 15.6300418,24.5054946 C15.6300418,24.5054946 15.6300418,24.5054946 15.6008345,24.4785216 C14.9582754,24.0199801 14.403338,23.4265735 13.9944367,22.7522478 C13.6147427,22.0779221 13.3810849,21.1608392 13.3810849,19.8391609 L13.3810849,18.4635365 Z M16.2433936,28.5514487 C16.1557719,28.5244757 16.0681502,28.4975026 16.0097358,28.4705296 C14.1404729,27.8231769 12.5340751,26.6633368 11.3949931,25.1528472 C10.2267038,23.6153847 9.58414463,21.7812188 9.58414463,19.866134 C9.58414463,17.4115885 10.6063978,15.1188812 12.5048679,13.3656344 C12.6216968,13.2577423 12.7385257,13.1498501 12.8553547,13.0689311 L12.8553547,15.5774226 C12.4464534,15.3076923 11.9791377,15.0379621 11.9499304,15.010989 C11.9791377,14.984016 12.3296245,14.4715285 12.3296245,14.4715285 L12.0375522,14.3096903 L12.0375522,14.3366634 L11.1029207,15.6313687 L11.3949931,15.7932068 C11.3949931,15.7932068 11.7454798,15.3076923 11.7746871,15.2537463 C11.8038943,15.2807193 12.4172462,15.6313687 12.8553547,15.928072 L12.8553547,16.8181819 L10.9276773,16.0089911 L10.9276773,16.0359641 L10.7816412,16.3056944 L12.8553547,17.1958043 L12.8553547,18.2747253 C12.7093185,18.7872128 12.6216968,19.3266734 12.6216968,19.893107 C12.6216968,21.0529472 12.9721836,22.1318682 13.5563282,23.0759241 C13.9360222,23.7502499 14.4325452,24.2087913 14.8998609,24.6133867 C15.1043116,24.7752248 15.3087621,24.9370631 15.54242,25.0989012 C15.5716272,25.0989012 15.5716272,25.1258742 15.6008345,25.1258742 C15.6300418,25.1528472 15.6592489,25.1528472 15.6884562,25.1798203 C15.7176634,25.2067933 15.7468707,25.2067933 15.7760779,25.2337663 L15.8052851,25.2607394 C15.9805285,25.3686314 16.1557719,25.4765236 16.3602225,25.5574427 L16.3602225,25.5574427 C16.6230877,25.6653347 16.9735744,25.827173 17.3824757,25.9890111 L16.9443672,26.9870131 L16.7399166,26.906094 C16.6230877,26.8521479 16.4770515,26.906094 16.4186369,27.0139862 C16.3602225,27.1218782 16.4186369,27.2567434 16.5354659,27.3106894 L16.7399166,27.3916085 L16.2433936,28.5514487 Z M21.0917942,32.1928072 C21.0917942,32.3816187 21.0333797,32.5704299 20.945758,32.7322679 C20.8581363,32.8671329 20.7121001,32.9480522 20.566064,32.9480522 C20.3616134,32.9480522 20.18637,32.8401599 20.1279555,32.6513487 C20.1279555,32.6243756 20.0987483,32.5434568 20.069541,32.4085914 C20.1279555,32.4355645 20.18637,32.4355645 20.2447844,32.4355645 C20.5076495,32.4355645 20.7121001,32.2467533 20.7121001,32.0309691 C20.7121001,31.788212 20.5076495,31.6263737 20.2447844,31.6263737 C20.0987483,31.6263737 19.9819194,31.6803198 19.8942976,31.7612389 C19.7482615,31.2217784 19.6022253,30.6283718 19.6022253,30.6283718 L19.5146036,30.6283718 L19.3977747,30.6283718 C19.3977747,30.6283718 19.2517385,31.2217784 19.1057024,31.7612389 C19.0180806,31.6803198 18.9012517,31.6263737 18.7844228,31.6263737 C18.5215577,31.6263737 18.3463143,31.815185 18.3463143,32.0309691 C18.3463143,32.2737264 18.550765,32.4355645 18.7844228,32.4355645 C18.8428373,32.4355645 18.9012517,32.4355645 18.9596662,32.4085914 C18.930459,32.5164837 18.9012517,32.6243756 18.9012517,32.6513487 C18.8428373,32.8131869 18.6675939,32.9480522 18.4631433,32.9480522 C18.2878999,32.9480522 18.1418637,32.8671329 18.054242,32.7322679 C17.9666203,32.5704299 17.9374131,32.3816187 17.9374131,32.1928072 L17.9374131,29.6033967 C18.8720445,29.873127 20.0403338,30.1968033 21.1210014,30.4125875 L21.0917942,32.1928072 L21.0917942,32.1928072 Z M21.325452,29.927073 C19.689847,29.6033967 17.7913769,29.0369631 16.6815021,28.6863138 C16.798331,28.4435566 16.9735744,28.0119881 17.178025,27.5534467 L17.4700974,27.6613388 C17.4700974,27.6883118 17.4700974,27.6883118 17.4700974,27.7152848 C17.4700974,28.0929072 17.8205841,28.4165835 18.2294854,28.4165835 C18.6383866,28.4165835 18.9888735,28.0929072 18.9888735,27.7152848 C18.9888735,27.3376625 18.6383866,27.0139862 18.2294854,27.0139862 C17.9958276,27.0139862 17.8205841,27.0949052 17.674548,27.2567434 L17.3532685,27.1218782 C17.5285118,26.7172828 17.674548,26.3396604 17.7913769,26.1238762 C18.9012517,26.5554446 20.3324061,27.0679322 21.7051461,27.4725276 C23.1655077,27.877123 24.333797,28.1198802 25.2100139,28.2007993 C23.6620306,28.902098 21.442281,29.873127 21.325452,29.927073 L21.325452,29.927073 Z M26.8456189,27.4455545 C26.6995828,27.5804197 26.3490959,27.7152848 25.6189151,27.7152848 C26.1154381,27.3916085 26.5535467,27.0409592 26.9624478,26.6363638 C27.0792768,27.0139862 27.0500696,27.2837164 26.8456189,27.4455545 L26.8456189,27.4455545 Z M24.7719054,27.6613388 C24.0709319,27.5804197 23.1070932,27.3646355 21.8511822,27.0139862 C21.7927677,26.9870131 21.7343533,26.9870131 21.6759388,26.96004 C21.7927677,26.2857144 22.0264256,25.854146 22.4353268,25.6383617 C23.077886,25.3686314 23.6620306,24.9910091 24.1877608,24.5324676 C24.6550765,24.1548452 25.1223922,23.6963038 25.472879,23.0489511 C26.0570237,22.1048952 26.4075104,20.9990011 26.4075104,19.8391609 C26.4075104,19.2997004 26.3198888,18.7332668 26.1738526,18.2207793 L26.1738526,17.1958043 L26.4951321,17.951049 L26.8164117,17.8431569 C26.8164117,17.8431569 26.4951321,17.1148851 26.4951321,17.0879121 C26.5535467,17.0609391 28.3059806,16.4135864 28.3059806,16.4135864 L28.1891516,16.1168831 L28.1599444,16.1168831 L26.2030598,16.8451549 L26.2030598,16.7102897 L27.5173853,14.984016 L27.4005564,14.7952049 L27.3713491,14.7952049 L26.2030598,15.0379621 L26.2030598,13.0149851 C26.3198888,13.1228771 26.4367177,13.2037962 26.5535467,13.3116883 C28.4228095,15.0379621 29.4742698,17.3576424 29.4742698,19.8121879 C29.4742698,21.4035965 29.0361614,22.995005 28.1599444,24.3706295 C27.3421418,25.7462539 26.1738526,26.8521479 24.7719054,27.6613388 L24.7719054,27.6613388 Z M26.3198888,16.0899101 C26.3198888,16.0899101 26.2614743,16.1708292 26.2030598,16.2517483 L26.2030598,15.928072 C26.2614743,16.0089911 26.3198888,16.0899101 26.3198888,16.0899101 L26.3198888,16.0899101 Z M26.232267,15.3886114 C26.2906816,15.3886114 26.8748262,15.2537463 26.9624478,15.2267733 C26.9040334,15.3076923 26.5535467,15.7662338 26.5243394,15.7932069 C26.4951321,15.7662338 26.2614743,15.4425575 26.232267,15.3886114 L26.232267,15.3886114 Z" id="Shape" fill="#000000"></path>
            <path d="M27.666771,5.5433071 C27.2673928,4.96456693 26.6112713,4.71653543 26.126312,4.71653543 C25.4416636,4.71653543 24.7284881,4.99212596 24.0438396,5.26771653 C23.2736101,5.57086613 22.4748536,5.87401576 21.6760971,5.81889762 C21.7616781,5.5433071 21.8757862,5.26771653 22.0184213,5.04724409 L21.533462,4.82677163 C21.6190431,4.6614173 21.7046241,4.46850393 21.7331511,4.2480315 C21.6760971,4.22047244 21.0199756,4 19.964476,4 C18.9089762,4 18.3099089,4.22047244 18.2528548,4.2480315 C18.2813818,4.46850393 18.3384358,4.6614173 18.4525439,4.82677163 L17.9675846,5.04724409 C18.1102197,5.26771653 18.2243278,5.5433071 18.3099089,5.81889762 C17.5111523,5.90157479 16.7123958,5.57086613 15.9421663,5.26771653 C15.2575178,4.99212596 14.5443424,4.71653543 13.859694,4.71653543 C13.3747346,4.71653543 12.7186131,4.96456693 12.3192349,5.5433071 C12.0054377,6.01181102 11.7486945,6.89370079 12.4333429,8.29921263 L12.4333429,8.29921263 L12.4333429,8.27165356 L13.4317887,7.8582677 L13.4888427,8.02362201 C13.1750455,8.16141732 12.8612482,8.51968502 13.2320995,9.34645673 C14.08791,8.98818896 14.1164371,8.51968502 13.973802,8.21653548 L14.1449641,8.16141732 L14.5728693,9.09842519 L15.0007746,10.0354331 L14.8296126,10.0905512 C14.6869775,9.78740159 14.3161262,9.48425197 13.4603157,9.84251974 C13.8311669,10.6692913 14.4872883,11 15.0007746,11 C15.8851122,11 16.5127067,10.476378 16.4271256,9.9527559 C16.3700716,9.56692912 15.9992204,9.42913389 15.8565852,9.45669289 C15.6854231,9.48425197 15.5713151,9.67716536 15.5998421,9.78740159 C15.5998421,9.81496067 15.6283691,9.84251974 15.6283691,9.87007874 L15.5998421,9.89763782 C15.3716259,9.87007874 15.1719368,9.70472443 15.1148828,9.48425197 C15.0578287,9.20866142 15.2575178,8.93307088 15.542788,8.87795272 C15.7139502,8.85039372 15.8851122,8.9055118 16.0277474,9.01574803 L16.0848014,8.93307088 C15.9136392,8.85039372 15.7995312,8.71259841 15.7710042,8.51968502 C15.6854231,8.07874017 16.1989095,7.63779531 16.2274365,7.63779531 L16.2274365,7.63779531 L16.2274365,7.63779531 C16.2274365,7.63779531 16.883558,7.8582677 16.969139,8.29921263 C16.997666,8.49212594 16.940612,8.65748033 16.8265039,8.79527564 L16.9120849,8.85039372 C16.969139,8.71259841 17.111774,8.57480318 17.3114632,8.5472441 C17.5967333,8.49212594 17.8820036,8.68503941 17.9390576,8.96062988 C17.9961116,9.18110234 17.8534765,9.42913389 17.6537874,9.51181104 L17.6252604,9.48425197 C17.6252604,9.45669289 17.6252604,9.42913389 17.6252604,9.40157481 C17.5967333,9.26377958 17.4255713,9.15354334 17.2544092,9.18110234 C17.111774,9.20866142 16.8265039,9.45669289 16.9120849,9.84251974 C17.05472,10.503937 17.6252604,10.972441 18.3099089,10.972441 C18.9945573,10.972441 19.7362598,10.4212598 19.7362598,9.5944882 C18.7378142,9.5944882 18.509598,10.0354331 18.509598,10.4212598 L18.3099089,10.4212598 L18.3099089,9.31889766 L18.3099089,8.21653548 L18.509598,8.21653548 C18.509598,8.57480318 18.7663411,9.04330711 19.7362598,9.04330711 C19.7362598,8.07874017 19.2798275,7.8582677 18.8804492,7.8582677 L18.8804492,7.66535431 L19.8503679,7.66535431 L20.1641651,7.66535431 L21.1340837,7.66535431 L21.1340837,7.8582677 C20.7632325,7.8582677 20.2782732,8.10629924 20.2782732,9.04330711 C21.2767188,9.04330711 21.5049349,8.60236218 21.5049349,8.21653548 L21.7046241,8.21653548 L21.7046241,9.31889766 L21.7046241,10.4212598 L21.561989,10.4212598 C21.561989,10.0629921 21.3052458,9.5944882 20.3353272,9.5944882 C20.3353272,10.4212598 21.0485026,10.972441 21.7616781,10.972441 C22.4463266,10.972441 23.045394,10.503937 23.159502,9.84251974 C23.2450831,9.45669289 22.9598129,9.18110234 22.8171778,9.18110234 C22.6460157,9.15354334 22.4748536,9.26377958 22.4463266,9.40157481 C22.4463266,9.42913389 22.4463266,9.45669289 22.4463266,9.48425197 L22.4177996,9.51181104 C22.2181104,9.40157481 22.0754754,9.18110234 22.1325294,8.96062988 C22.1895834,8.68503941 22.4748536,8.49212594 22.7601238,8.5472441 C22.9312859,8.57480318 23.073921,8.68503941 23.159502,8.85039372 L23.2450831,8.79527564 C23.130975,8.65748033 23.073921,8.49212594 23.102448,8.29921263 C23.1880291,7.8582677 23.8441505,7.63779531 23.8441505,7.63779531 C23.8441505,7.63779531 24.3861638,8.07874017 24.3005828,8.51968502 C24.2720558,8.71259841 24.1294207,8.85039372 23.9867856,8.93307088 L24.0438396,9.01574803 C24.1579477,8.9055118 24.3291098,8.85039372 24.5287989,8.87795272 C24.8140691,8.93307088 25.0137583,9.20866142 24.9567042,9.48425197 C24.8996502,9.73228351 24.6999611,9.89763782 24.4717449,9.89763782 L24.4432179,9.87007874 C24.4717449,9.84251974 24.4717449,9.81496067 24.4717449,9.78740159 C24.5002719,9.64960628 24.3861638,9.48425197 24.2150018,9.45669289 C24.0723666,9.42913389 23.7015154,9.56692912 23.6444613,9.9527559 C23.5588803,10.476378 24.2150018,11 25.0708123,11 C25.5842987,11 26.2404201,10.6692913 26.6112713,9.84251974 C25.7554607,9.48425197 25.3846095,9.78740159 25.2419744,10.0905512 L25.0708123,10.0354331 L25.4987176,9.09842519 L25.9266229,8.16141732 L26.097785,8.21653548 C25.9551499,8.51968502 25.9836769,8.98818896 26.8394875,9.34645673 C27.2103388,8.51968502 26.8965416,8.16141732 26.5827443,8.02362201 L26.6397983,7.8582677 L27.6382441,8.27165356 L27.6382441,8.29921263 L27.6382441,8.29921263 C28.2373114,6.86614172 27.9805682,6.01181102 27.666771,5.5433071 M18.509598,6.75590552 C18.0246386,6.75590552 17.6252604,7.00393702 17.3970443,7.38976377 C17.1403011,6.94881889 16.5697607,6.67322835 16.0277474,6.78346455 C15.6283691,6.86614172 15.2860449,7.1417323 15.1434098,7.47244092 C14.9151936,7.11417322 14.5158153,6.89370079 14.059383,6.89370079 C13.4888427,6.89370079 13.0038834,7.25196853 12.8327212,7.74803147 C12.518924,6.94881889 12.518924,6.28740156 12.8327212,5.81889762 C13.1465184,5.35039369 13.6885318,5.21259843 13.916748,5.21259843 C14.5158153,5.21259843 15.1434098,5.46062992 15.7995312,5.70866142 C16.6553418,6.03937006 17.5396793,6.39763779 18.509598,6.25984252 C18.538125,6.42519685 18.566652,6.56299212 18.5951791,6.72834645 C18.566652,6.75590552 18.538125,6.75590552 18.509598,6.75590552 M20.02153,4.19291337 C20.2782732,4.19291337 20.5064893,4.38582676 20.5350163,4.63385826 C20.3923812,4.52362203 20.2212191,4.44094486 20.02153,4.44094486 C19.8218408,4.44094486 19.6506787,4.52362203 19.5080437,4.63385826 C19.5365707,4.38582676 19.7647868,4.19291337 20.02153,4.19291337 M20.02153,4.6614173 C20.2782732,4.6614173 20.5064893,4.8543307 20.5350163,5.10236219 C20.3923812,4.99212596 20.2212191,4.9094488 20.02153,4.9094488 C19.8218408,4.9094488 19.6506787,4.99212596 19.5080437,5.10236219 C19.5365707,4.8543307 19.7647868,4.6614173 20.02153,4.6614173 M20.02153,7.44488192 C19.7362598,7.44488192 19.5080437,7.22440946 19.5080437,6.94881889 C19.5080437,6.67322835 19.7362598,6.45275588 20.02153,6.45275588 C20.3068002,6.45275588 20.5350163,6.67322835 20.5350163,6.94881889 C20.5350163,7.22440946 20.3068002,7.44488192 20.02153,7.44488192 M20.5064893,6.37007872 C20.3638542,6.25984252 20.192692,6.20472439 20.02153,6.20472439 C19.8218408,6.20472439 19.6792058,6.25984252 19.5365707,6.37007872 C19.5080437,6.31496062 19.5080437,6.25984252 19.5080437,6.20472439 C19.5080437,5.92913386 19.7362598,5.70866142 20.02153,5.70866142 C20.3068002,5.70866142 20.5350163,5.92913386 20.5350163,6.20472439 C20.5350163,6.25984252 20.5350163,6.31496062 20.5064893,6.37007872 M20.5350163,5.68110236 C20.3923812,5.57086613 20.2212191,5.48818896 20.02153,5.48818896 C19.8218408,5.48818896 19.6506787,5.57086613 19.5080437,5.68110236 L19.5080437,5.65354329 C19.5080437,5.37795276 19.7362598,5.15748029 20.02153,5.15748029 C20.3068002,5.15748029 20.5350163,5.37795276 20.5350163,5.65354329 C20.5350163,5.65354329 20.5350163,5.65354329 20.5350163,5.68110236 M27.2103388,7.74803147 C27.0391766,7.25196853 26.5542173,6.89370079 25.9836769,6.89370079 C25.5272447,6.89370079 25.1278664,7.11417322 24.8996502,7.47244092 C24.7284881,7.1417323 24.4146909,6.86614172 24.0153126,6.78346455 C23.4447723,6.67322835 22.9027589,6.92125986 22.6460157,7.38976377 C22.4177996,7.03149605 22.0184213,6.75590552 21.533462,6.75590552 C21.5049349,6.75590552 21.4764079,6.75590552 21.4478809,6.75590552 C21.4764079,6.61811022 21.5049349,6.45275588 21.533462,6.28740156 C22.5033807,6.42519685 23.3877182,6.06692912 24.2435288,5.73622046 C24.8996502,5.48818896 25.5272447,5.24015746 26.126312,5.24015746 C26.3545282,5.24015746 26.8965416,5.37795276 27.2103388,5.84645669 C27.5241359,6.28740156 27.5241359,6.94881889 27.2103388,7.74803147" id="Shape" fill="#000000"></path>
            <polygon id="Path" fill="#000000" points="22.5 13.0547978 22.5 13.0547978 22 13.0547978 22.2857143 13.7023647 22.5 13.7023647 22.5714286 13.7023647 22.5 13.9452023 22.5714286 13.7833106 22.6428571 13.7833106 22.7142857 13.7023647 23 13.0547978"></polygon>
            <polyline id="Path" fill="#000000" points="20.8666666 13.75 20.8 13.8125 20.8 14 20.3333333 13.9375 20.3333333 13.625 20 13.0625 20.0666666 13 20.6666666 13.3125 21 13.3125 21 13.75 20.8666666 13.6875"></polyline>
            <path d="M20.6618917,13.9047293 C20.5809458,13.9047293 20.5,13.8237835 20.5,13.7428376 C20.5,13.6618917 20.5809458,13.5809459 20.6618917,13.5809459 C20.7428376,13.5809459 20.7428376,13.5809459 20.8237835,13.6618917 L20.9047294,13.6618917 C20.9047294,13.6618917 20.9047294,13.5809459 20.9047294,13.5 C20.9047294,13.2571624 20.7428376,13.0952707 20.5,13.0952707 C20.2571623,13.0952707 20.0952706,13.2571624 20.0952706,13.5 C20.0952706,13.7428376 20.2571623,13.9047293 20.5,13.9047293 L20.6618917,13.9047293 C20.6618917,13.9047293 20.6618917,13.9047293 20.6618917,13.9047293" id="Path" fill="#000000"></path>
            <path d="M20.9047293,13.6618918 C20.9047293,13.5809458 20.8237835,13.5 20.7428376,13.5 C20.6618917,13.5 20.5809459,13.5809458 20.5809459,13.6618918 C20.5809459,13.7428376 20.5809459,13.7428376 20.6618917,13.8237836 L20.6618917,13.9047294 C20.6618917,13.9047294 20.5809459,13.9047294 20.5,13.9047294 C20.2571624,13.9047294 20.0952707,13.7428376 20.0952707,13.5 C20.0952707,13.2571624 20.2571624,13.0952706 20.5,13.0952706 C20.7428376,13.0952706 20.9047293,13.2571624 20.9047293,13.5 L20.9047293,13.6618918 L20.9047293,13.6618918" id="Path" fill="#000000"></path>
            <polyline id="Path" fill="#000000" points="20.8666666 19.25 20.8 19.1875 20.8 19 20.3333333 19.0625 20.3333333 19.3125 20 19.875 20.0666666 20 20.6666666 19.625 21 19.625 21 19.1875 20.8666666 19.25"></polyline>
            <path d="M20.6618917,19.0952706 C20.5809458,19.0952706 20.5,19.1762165 20.5,19.2571624 C20.5,19.3381082 20.5809458,19.4190542 20.6618917,19.4190542 C20.7428376,19.4190542 20.7428376,19.4190542 20.8237835,19.3381082 L20.9047294,19.3381082 C20.9047294,19.3381082 20.9047294,19.4190542 20.9047294,19.5 C20.9047294,19.7428376 20.7428376,19.9047294 20.5,19.9047294 C20.2571623,19.9047294 20.0952706,19.7428376 20.0952706,19.5 C20.0952706,19.2571624 20.2571623,19.0952706 20.5,19.0952706 L20.6618917,19.0952706 C20.6618917,19.0952706 20.6618917,19.0952706 20.6618917,19.0952706" id="Path" fill="#000000"></path>
            <path d="M20.9047293,19.3381083 C20.9047293,19.4190541 20.8237835,19.5 20.7428376,19.5 C20.6618917,19.5 20.5809459,19.4190541 20.5809459,19.3381083 C20.5809459,19.2571624 20.5809459,19.2571624 20.6618917,19.1762165 L20.6618917,19.0952707 C20.6618917,19.0952707 20.5809459,19.0952707 20.5,19.0952707 C20.2571624,19.0952707 20.0952707,19.2571624 20.0952707,19.5 C20.0952707,19.7428376 20.2571624,19.9047293 20.5,19.9047293 C20.7428376,19.9047293 20.9047293,19.7428376 20.9047293,19.5 L20.9047293,19.3381083 C20.9047293,19.3381083 20.9047293,19.3381083 20.9047293,19.3381083" id="Path" fill="#000000"></path>
            <polyline id="Path" fill="#000000" points="24.1333333 19.25 24.1999999 19.1875 24.1999999 19 24.6666667 19.0625 24.6666667 19.3125 25 19.875 24.9333334 20 24.3333333 19.625 24 19.625 24 19.1875 24.1333333 19.25"></polyline>
            <path d="M24.3381083,19.0952706 C24.4190541,19.0952706 24.5,19.1762165 24.5,19.2571624 C24.5,19.3381082 24.4190541,19.4190542 24.3381083,19.4190542 C24.2571624,19.4190542 24.2571624,19.4190542 24.1762165,19.3381082 L24.0952707,19.3381082 C24.0952707,19.3381082 24.0952707,19.4190542 24.0952707,19.5 C24.0952707,19.7428376 24.2571624,19.9047294 24.5,19.9047294 C24.7428376,19.9047294 24.9047293,19.7428376 24.9047293,19.5 C24.9047293,19.2571624 24.7428376,19.0952706 24.5,19.0952706 L24.3381083,19.0952706 C24.3381083,19.0952706 24.3381083,19.0952706 24.3381083,19.0952706" id="Path" fill="#000000"></path>
            <path d="M24.0952707,19.3381083 C24.0952707,19.4190541 24.1762165,19.5 24.2571624,19.5 C24.3381083,19.5 24.4190541,19.4190541 24.4190541,19.3381083 C24.4190541,19.2571624 24.4190541,19.2571624 24.3381083,19.1762165 L24.3381083,19.0952707 C24.4190541,19.0952707 24.4190541,19.0952707 24.5,19.0952707 C24.7428376,19.0952707 24.9047293,19.2571624 24.9047293,19.5 C24.9047293,19.7428376 24.7428376,19.9047293 24.5,19.9047293 C24.2571624,19.9047293 24.0952707,19.7428376 24.0952707,19.5 L24.0952707,19.3381083 C24.0952707,19.3381083 24.0952707,19.3381083 24.0952707,19.3381083" id="Path" fill="#000000"></path>
            <polyline id="Path" fill="#000000" points="24.1333333 13.75 24.1999999 13.8125 24.1999999 14 24.6666667 13.9375 24.6666667 13.625 25 13.0625 24.9333334 13 24.3333333 13.3125 24 13.3125 24 13.75 24.1333333 13.6875"></polyline>
            <path d="M24.3381083,13.9047293 C24.4190541,13.9047293 24.5,13.8237835 24.5,13.7428376 C24.5,13.6618917 24.4190541,13.5809459 24.3381083,13.5809459 C24.2571624,13.5809459 24.2571624,13.5809459 24.1762165,13.6618917 L24.0952707,13.6618917 C24.0952707,13.6618917 24.0952707,13.5809459 24.0952707,13.5 C24.0952707,13.2571624 24.2571624,13.0952707 24.5,13.0952707 C24.7428376,13.0952707 24.9047293,13.2571624 24.9047293,13.5 C24.9047293,13.7428376 24.7428376,13.9047293 24.5,13.9047293 L24.3381083,13.9047293 C24.3381083,13.9047293 24.3381083,13.9047293 24.3381083,13.9047293" id="Path" fill="#000000"></path>
            <path d="M24.0952707,13.6618918 C24.0952707,13.5809458 24.1762165,13.5 24.2571624,13.5 C24.3381083,13.5 24.4190541,13.5809458 24.4190541,13.6618918 C24.4190541,13.7428376 24.4190541,13.7428376 24.3381083,13.8237836 L24.3381083,13.9047294 C24.4190541,13.9047294 24.4190541,13.9047294 24.5,13.9047294 C24.7428376,13.9047294 24.9047293,13.7428376 24.9047293,13.5 C24.9047293,13.2571624 24.7428376,13.0952706 24.5,13.0952706 C24.2571624,13.0952706 24.0952707,13.2571624 24.0952707,13.5 L24.0952707,13.6618918 L24.0952707,13.6618918 Z" id="Path" fill="#000000"></path>
            <rect id="Rectangle" fill="#000000" x="22" y="14" width="1" height="1"></rect>
            <polygon id="Path" fill="#000000" points="22.5809459 14.7428376 22.4190541 14.7428376 22.1762165 14.2571624 22.8237835 14.2571624"></polygon>
            <path d="M23.7428377,14.419054 L23.6618918,14.5 C23.5809458,14.5 23.5,14.419054 23.5,14.3381082 C23.5,14.2571624 23.5809458,14.1762165 23.6618918,14.1762165 L23.5,14.1762165 C23.3381083,14.1762165 23.1762165,14.3381082 23.1762165,14.5 C23.1762165,14.6618917 23.3381083,14.8237835 23.5,14.8237835 C23.6618918,14.8237835 23.8237835,14.6618917 23.8237835,14.5 C23.7428377,14.5 23.7428377,14.5 23.7428377,14.419054 L23.7428377,14.419054 Z" id="Path" fill="#000000"></path>
            <path d="M22.2571624,14.419054 L22.3381083,14.5 C22.4190542,14.5 22.5,14.419054 22.5,14.3381082 C22.5,14.2571624 22.4190542,14.1762165 22.3381083,14.1762165 L22.5,14.1762165 C22.6618918,14.1762165 22.8237835,14.3381082 22.8237835,14.5 C22.8237835,14.6618917 22.6618918,14.8237835 22.5,14.8237835 C22.3381083,14.8237835 22.1762165,14.6618917 22.1762165,14.5 C22.2571624,14.5 22.2571624,14.5 22.2571624,14.419054 L22.2571624,14.419054 Z" id="Path" fill="#000000"></path>
            <polygon id="Path" fill="#000000" points="22.5 19.9452023 22.5 19.9452023 23 19.9452023 22.7142857 19.2976354 22.5 19.2166895 22.4285714 19.2166895 22.5714286 19.0547977 22.4285714 19.2166895 22.3571429 19.2166895 22.2857143 19.2976354 22 19.9452023"></polygon>
            <rect id="Rectangle" fill="#000000" x="22" y="19" width="1" height="1"></rect>
            <polygon id="Path" fill="#000000" points="22.4190541 18.2166895 22.5809459 18.2166895 22.8237835 18.7833105 22.1762165 18.7833105"></polygon>
            <path d="M22.2571624,18.5809459 L22.3381083,18.5 C22.4190542,18.5 22.5,18.5809459 22.5,18.6618917 C22.5,18.7428376 22.4190542,18.8237835 22.3381083,18.8237835 L22.5,18.8237835 C22.6618918,18.8237835 22.8237835,18.6618917 22.8237835,18.5 C22.8237835,18.3381083 22.6618918,18.1762165 22.5,18.1762165 C22.3381083,18.1762165 22.1762165,18.3381083 22.1762165,18.5 C22.2571624,18.5 22.2571624,18.5 22.2571624,18.5809459 L22.2571624,18.5809459 Z" id="Path" fill="#000000"></path>
            <path d="M23.7428377,18.5809459 L23.6618918,18.5 C23.5809458,18.5 23.5,18.5809459 23.5,18.6618917 C23.5,18.7428376 23.5809458,18.8237835 23.6618918,18.8237835 L23.5,18.8237835 C23.3381083,18.8237835 23.1762165,18.6618917 23.1762165,18.5 C23.1762165,18.3381083 23.3381083,18.1762165 23.5,18.1762165 C23.6618918,18.1762165 23.8237835,18.3381083 23.8237835,18.5 C23.7428377,18.5 23.7428377,18.5 23.7428377,18.5809459 L23.7428377,18.5809459 Z" id="Path" fill="#000000"></path>
            <polygon id="Path" fill="#000000" points="24.9047293 16.5 24.9047293 16.5 24.9047293 16 24.2571624 16.2857142 24.2571624 16.5 24.2571624 16.5714286 24.0952707 16.5 24.2571624 16.6428572 24.1762165 16.6428572 24.2571624 16.7142857 24.9047293 17"></polygon>
            <rect id="Rectangle" fill="#000000" x="24" y="16" width="1" height="1"></rect>
            <polygon id="Path" fill="#000000" points="24.2571624 16.5809458 24.2571624 16.4190542 24.7428376 16.1762165 24.7428376 16.8237835"></polygon>
            <polyline id="Path" fill="#000000" points="24.5 16.540473 24.5 16.459527 24.5 16.540473 24.5 16.540473"></polyline>
            <path d="M24.5809459,16.7428377 L24.5,16.6618918 C24.5,16.5809458 24.5809459,16.5 24.6618918,16.5 C24.7428376,16.5 24.8237835,16.5809458 24.8237835,16.6618918 L24.8237835,16.5 C24.8237835,16.3381083 24.6618918,16.1762165 24.5,16.1762165 C24.3381083,16.1762165 24.1762165,16.3381083 24.1762165,16.5 C24.1762165,16.6618918 24.3381083,16.8237835 24.5,16.8237835 C24.5,16.8237835 24.5,16.8237835 24.5809459,16.7428377 L24.5809459,16.7428377 Z" id="Path" fill="#000000"></path>
            <path d="M24.5809459,15.2571625 L24.5,15.3381083 C24.5,15.4190542 24.5809459,15.5 24.6618918,15.5 C24.7428376,15.5 24.8237835,15.4190542 24.8237835,15.3381083 L24.8237835,15.5 C24.8237835,15.6618918 24.6618918,15.8237835 24.5,15.8237835 C24.3381083,15.8237835 24.1762165,15.6618918 24.1762165,15.5 C24.1762165,15.3381083 24.3381083,15.1762165 24.5,15.1762165 C24.5,15.1762165 24.5,15.1762165 24.5809459,15.2571625 L24.5809459,15.2571625 Z" id="Path" fill="#000000"></path>
            <polygon id="Path" fill="#000000" points="20.0952706 16.5 20.0952706 16.5 20.0952706 16 20.7428376 16.2857142 20.7428376 16.5 20.7428376 16.5714286 20.9047294 16.5 20.7428376 16.6428572 20.8237835 16.6428572 20.7428376 16.7142857 20.0952706 17"></polygon>
            <rect id="Rectangle" fill="#000000" x="20" y="16" width="1" height="1"></rect>
            <polygon id="Path" fill="#000000" points="20.7428376 16.5809458 20.7428376 16.4190542 20.2571624 16.1762165 20.2571624 16.8237835"></polygon>
            <polyline id="Path" fill="#000000" points="20.5 16.540473 20.5 16.459527 20.5 16.540473 20.5 16.540473"></polyline>
            <path d="M20.419054,16.7428377 L20.5,16.6618918 C20.5,16.5809458 20.419054,16.5 20.3381083,16.5 C20.2571624,16.5 20.1762165,16.5809458 20.1762165,16.6618918 L20.1762165,16.5 C20.1762165,16.3381083 20.3381083,16.1762165 20.5,16.1762165 C20.6618918,16.1762165 20.8237835,16.3381083 20.8237835,16.5 C20.8237835,16.6618918 20.6618918,16.8237835 20.5,16.8237835 C20.5,16.8237835 20.419054,16.8237835 20.419054,16.7428377 L20.419054,16.7428377 Z" id="Path" fill="#000000"></path>
            <path d="M20.419054,15.2571625 L20.5,15.3381083 C20.5,15.4190542 20.419054,15.5 20.3381083,15.5 C20.2571624,15.5 20.1762165,15.4190542 20.1762165,15.3381083 L20.1762165,15.5 C20.1762165,15.6618918 20.3381083,15.8237835 20.5,15.8237835 C20.6618918,15.8237835 20.8237835,15.6618918 20.8237835,15.5 C20.8237835,15.3381083 20.6618918,15.1762165 20.5,15.1762165 C20.5,15.1762165 20.419054,15.1762165 20.419054,15.2571625 L20.419054,15.2571625 Z" id="Path" fill="#000000"></path>
            <g id="Group" transform="translate(10.000000, 39.000000)" fill="#000000">
                <polygon id="Path" points="2.33901175 0.235004127 2.33901175 6.78900813 10.7159375 6.78900813 10.7159375 0.235004127 12.8373668 0.235004127 12.8373668 15.4841608 10.7159375 15.4841608 10.7159375 8.51237171 2.33901175 8.51237171 2.33901175 15.4841608 0.217582488 15.4841608 0.217582488 0.235004127"></polygon>
                <polygon id="Path" points="18.9568742 0.235004127 23.9612715 13.0557849 28.9928666 0.235004127 31.8758345 0.235004127 31.8758345 15.4841608 29.8631965 15.4841608 29.8631965 2.79393796 29.8088009 2.79393796 24.8587992 15.4841608 23.0637437 15.4841608 18.1137422 2.79393796 18.0593465 2.79393796 18.0593465 15.4841608 16.0467085 15.4841608 16.0467085 0.235004127"></polygon>
                <path d="M48.0313341,0.235004127 C49.6360049,0.235004127 50.8327089,0.626677671 51.6758408,1.41002476 C52.5189729,2.19337185 52.8997422,3.31616936 52.8997422,4.7261941 C52.8997422,6.16233045 52.4917751,7.25901636 51.6758408,8.068475 C50.8599064,8.87793364 49.6360049,9.26960721 48.0313341,9.24349564 L43.1901238,9.24349564 L43.1901238,15.4841608 L41.0686947,15.4841608 L41.0686947,0.235004127 L48.0313341,0.235004127 Z M47.2969933,7.54624364 C48.493697,7.57235521 49.364027,7.33735107 49.935181,6.84123126 C50.4791371,6.34511142 50.7783131,5.66621061 50.7783131,4.75230568 C50.7783131,3.83840074 50.5063349,3.15949994 49.935181,2.66338011 C49.3912249,2.19337185 48.493697,1.95836773 47.2969933,1.95836773 L43.1629259,1.95836773 L43.1629259,7.54624364 L47.2969933,7.54624364 Z" id="Shape"></path>
                <path d="M65.0843615,15.4319376 C64.7579879,15.6147186 64.2956251,15.7191649 63.7244711,15.7191649 C63.2349104,15.7191649 62.8541411,15.5886071 62.5549653,15.3274914 C62.2557893,15.0663757 62.1198003,14.622479 62.1198003,14.0480245 C61.6030421,14.6485906 61.0046899,15.0663757 60.297547,15.3274914 C59.6176016,15.5886071 58.856063,15.7191649 58.0673265,15.7191649 C57.5505679,15.7191649 57.0610075,15.6669418 56.5986446,15.536384 C56.1362817,15.4058261 55.7283146,15.2491566 55.3747431,15.0141526 C55.0211717,14.7791484 54.7763913,14.4658096 54.5588087,14.0741361 C54.3684241,13.6824625 54.259633,13.2124543 54.259633,12.6641113 C54.259633,12.0374336 54.3684241,11.5152022 54.5860066,11.1235286 C54.8035892,10.7318551 55.1027652,10.3924047 55.4563367,10.1574006 C55.8099081,9.89628493 56.2450731,9.71350393 56.707436,9.58294607 C57.1697986,9.45238821 57.6593593,9.34794193 58.1489201,9.26960721 C58.6656783,9.165161 59.155239,9.08682629 59.6176016,9.03460307 C60.0799645,8.98238 60.4879316,8.90404529 60.8415031,8.82571057 C61.1950749,8.72126429 61.4670527,8.59070643 61.6846353,8.40792543 C61.9022178,8.22514443 61.9838114,7.96402871 61.9838114,7.62457836 C61.9838114,7.23290479 61.9022178,6.89345439 61.739031,6.65845026 C61.5758442,6.42344613 61.3854596,6.24066516 61.1406791,6.11010729 C60.8958988,5.97954945 60.6239206,5.90121474 60.3247448,5.84899161 C60.0255687,5.79676849 59.726393,5.79676849 59.4272169,5.79676849 C58.6384805,5.79676849 57.958535,5.95343787 57.4145789,6.24066516 C56.8706228,6.52789242 56.5986446,7.07623539 56.5442489,7.885694 L54.6404024,7.885694 C54.6676002,7.20679321 54.830787,6.63233871 55.0755674,6.16233045 C55.3475453,5.69232219 55.701117,5.30064864 56.1362817,5.01342139 C56.5714467,4.7261941 57.0882053,4.51730155 57.6593593,4.38674371 C58.2305133,4.25618587 58.8288651,4.20396271 59.4816126,4.20396271 C59.9983709,4.20396271 60.5151295,4.23007429 61.0318877,4.308409 C61.5486464,4.38674371 62.0110089,4.51730155 62.4189761,4.75230568 C62.8269432,4.96119823 63.180515,5.27453706 63.4252954,5.69232219 C63.6700754,6.08399574 63.8060647,6.60622713 63.8060647,7.25901636 L63.8060647,12.925227 C63.8060647,13.3430121 63.8332625,13.6563509 63.8876579,13.8652435 C63.9420536,14.0741361 64.1052404,14.1524708 64.4044165,14.1524708 C64.5676033,14.1524708 64.7579879,14.1263592 64.9755705,14.0741361 L64.9755705,15.4319376 L65.0843615,15.4319376 Z M62.0110089,9.76572707 C61.7662289,9.948508 61.4670527,10.0529544 61.0862834,10.131289 C60.7055141,10.2096237 60.297547,10.2618469 59.8623819,10.31407 C59.4272169,10.3662931 59.0192498,10.4185163 58.5840848,10.496851 C58.1489201,10.5490741 57.7681504,10.6535204 57.4145789,10.8101899 C57.0610075,10.9407477 56.7890293,11.1496403 56.5714467,11.4107559 C56.3538642,11.6718716 56.2450731,12.0374336 56.2450731,12.4813304 C56.2450731,12.7685576 56.2994689,13.0296733 56.4354578,13.2385659 C56.5714467,13.4474584 56.7346335,13.6041278 56.9250185,13.7346856 C57.1154032,13.8652435 57.3601832,13.9435782 57.6321614,14.0219129 C57.9041397,14.0741361 58.1761175,14.1002476 58.4752937,14.1002476 C59.1008433,14.1002476 59.6447994,14.0219129 60.0799645,13.8652435 C60.5151295,13.7085741 60.8958988,13.4996815 61.167877,13.2385659 C61.4398549,13.0035617 61.6574374,12.7163344 61.7934267,12.4291071 C61.9294157,12.1418799 61.9838114,11.8546526 61.9838114,11.6196485 L61.9838114,9.76572707 L62.0110089,9.76572707 Z" id="Shape"></path>
                <path d="M68.0217253,13.0035617 C68.2121099,13.290789 68.4296925,13.4996815 68.7288682,13.6563509 C69.0280443,13.8130204 69.3544179,13.9435782 69.7079897,13.9958014 C70.0615611,14.0741361 70.4423305,14.1002476 70.8230998,14.1002476 C71.1222758,14.1002476 71.4214516,14.0741361 71.7478256,14.0480245 C72.0741992,13.9958014 72.3733749,13.9174666 72.6453531,13.8130204 C72.9173313,13.7085741 73.1349138,13.5257931 73.3252985,13.3169006 C73.5156831,13.108008 73.5972764,12.8207807 73.5972764,12.4813304 C73.5972764,12.0113221 73.4068917,11.6457601 73.0533203,11.4107559 C72.672551,11.1757519 72.2101881,10.9668593 71.6662319,10.8363014 C71.1222758,10.7057436 70.4967262,10.5490741 69.8439786,10.4185163 C69.1912311,10.2879584 68.5928793,10.131289 68.0217253,9.89628493 C67.4777692,9.68739236 66.9882085,9.3740535 66.634637,8.95626836 C66.2538677,8.56459486 66.0906806,7.99014036 66.0906806,7.28512793 C66.0906806,6.73678496 66.2266698,6.24066516 66.4714502,5.84899161 C66.7434281,5.45731806 67.069802,5.11786764 67.4777692,4.88286351 C67.8857363,4.62174784 68.3480989,4.43896684 68.8648575,4.33452058 C69.3816158,4.20396271 69.8711765,4.15173958 70.3879347,4.15173958 C71.0406823,4.15173958 71.6390341,4.20396271 72.1829902,4.308409 C72.7269467,4.41285529 73.2165071,4.59563626 73.6516721,4.85675196 C74.0868371,5.11786764 74.4132107,5.48342964 74.6579911,5.92732632 C74.9027714,6.371223 75.065958,6.94567755 75.093156,7.59846679 L73.1893092,7.59846679 C73.1621117,7.23290479 73.0533203,6.94567755 72.8901335,6.71067342 C72.7269467,6.47566929 72.5093642,6.29288829 72.2645838,6.13621887 C72.0198034,6.00566104 71.7478256,5.90121474 71.4214516,5.82288004 C71.1222758,5.7706569 70.8230998,5.71843377 70.4967262,5.71843377 C70.2247479,5.71843377 69.9255722,5.74454532 69.653594,5.7706569 C69.3544179,5.82288004 69.1096379,5.90121474 68.8648575,6.00566104 C68.6200772,6.11010729 68.4296925,6.26677671 68.2937036,6.42344613 C68.1577142,6.60622713 68.076121,6.84123126 68.076121,7.12845851 C68.076121,7.44179736 68.1849121,7.70291307 68.4296925,7.91180564 C68.647275,8.12069814 68.9464508,8.27736757 69.3000225,8.434037 C69.653594,8.56459486 70.0615611,8.69515271 70.4967262,8.77348743 C70.9318912,8.87793364 71.3942537,8.95626836 71.8294187,9.06071464 C72.2917817,9.165161 72.7541445,9.26960721 73.2165071,9.42627664 C73.6788699,9.5568345 74.0596393,9.76572707 74.4132107,10.0007312 C74.7667825,10.2357354 75.0387608,10.5229626 75.2563433,10.8885246 C75.4739258,11.2540865 75.582717,11.6979832 75.582717,12.2202146 C75.582717,12.8991154 75.4467278,13.4474584 75.147552,13.8913551 C74.8483757,14.3352517 74.4676064,14.7008137 74.0052435,14.9619294 C73.542881,15.2230451 72.9989246,15.4319376 72.4277706,15.536384 C71.8566166,15.6408302 71.2582648,15.6930534 70.6871108,15.6930534 C70.0615611,15.6930534 69.4360115,15.6408302 68.8648575,15.5102724 C68.2937036,15.3797146 67.7769449,15.170822 67.3417799,14.8835947 C66.9066149,14.5963674 66.5530434,14.2046939 66.2810652,13.7346856 C66.0090873,13.2646774 65.8730981,12.6902229 65.8459005,11.9852105 L67.7497471,11.9852105 C67.7497471,12.4029956 67.8313406,12.742446 68.0217253,13.0035617 Z" id="Path"></path>
                <path d="M78.8736518,13.0035617 C79.0640363,13.290789 79.2816188,13.4996815 79.5807953,13.6563509 C79.879971,13.8130204 80.2063448,13.9435782 80.5599158,13.9958014 C80.9134875,14.0741361 81.2942565,14.1002476 81.6750263,14.1002476 C81.974202,14.1002476 82.2733785,14.0741361 82.5997523,14.0480245 C82.9261253,13.9958014 83.2253018,13.9174666 83.4972795,13.8130204 C83.769258,13.7085741 83.9868405,13.5257931 84.177225,13.3169006 C84.3676095,13.108008 84.4492028,12.8207807 84.4492028,12.4813304 C84.4492028,12.0113221 84.2588183,11.6457601 83.9052473,11.4107559 C83.5244775,11.1757519 83.0621145,10.9668593 82.5181583,10.8363014 C81.974202,10.7057436 81.3486525,10.5490741 80.695905,10.4185163 C80.0431575,10.2879584 79.444806,10.131289 78.8736518,9.89628493 C78.3296955,9.68739236 77.8401353,9.3740535 77.4865635,8.95626836 C77.1057938,8.56459486 76.9426073,7.99014036 76.9426073,7.28512793 C76.9426073,6.73678496 77.0785965,6.24066516 77.3233763,5.84899161 C77.5953548,5.45731806 77.9217285,5.11786764 78.3296955,4.88286351 C78.7376625,4.62174784 79.2000255,4.43896684 79.7167838,4.33452058 C80.2335428,4.20396271 80.723103,4.15173958 81.2398613,4.15173958 C81.8926088,4.15173958 82.490961,4.20396271 83.0349173,4.308409 C83.5788728,4.41285529 84.0684338,4.59563626 84.5035988,4.85675196 C84.9387638,5.11786764 85.2651375,5.48342964 85.509918,5.92732632 C85.7546985,6.371223 85.917885,6.94567755 85.945083,7.59846679 L84.0412358,7.59846679 C84.0140378,7.23290479 83.9052473,6.94567755 83.74206,6.71067342 C83.5788728,6.47566929 83.3612903,6.29288829 83.1165105,6.13621887 C82.87173,6.00566104 82.5725543,5.90121474 82.2733785,5.82288004 C81.974202,5.7706569 81.6750263,5.71843377 81.3486525,5.71843377 C81.0766748,5.71843377 80.7774983,5.74454532 80.5055205,5.7706569 C80.2063448,5.82288004 79.9615643,5.90121474 79.7167838,6.00566104 C79.4720033,6.11010729 79.2816188,6.26677671 79.1456303,6.42344613 C79.009641,6.60622713 78.9280478,6.84123126 78.9280478,7.12845851 C78.9280478,7.44179736 79.036839,7.70291307 79.2816188,7.91180564 C79.4992013,8.12069814 79.7983778,8.27736757 80.1519488,8.434037 C80.5055205,8.56459486 80.9134875,8.69515271 81.3486525,8.77348743 C81.7838175,8.85182214 82.2461805,8.95626836 82.6813455,9.06071464 C83.1437078,9.165161 83.6060708,9.26960721 84.0684338,9.42627664 C84.5307968,9.5568345 84.9115658,9.76572707 85.2651375,10.0007312 C85.6187093,10.2357354 85.890687,10.5229626 86.1082695,10.8885246 C86.325852,11.2540865 86.4346433,11.6979832 86.4346433,12.2202146 C86.4346433,12.8991154 86.298654,13.4474584 85.9994783,13.8913551 C85.7003025,14.3352517 85.3195335,14.7008137 84.8571705,14.9619294 C84.3948075,15.2230451 83.8508513,15.4319376 83.279697,15.536384 C82.6813455,15.6408302 82.1101913,15.6930534 81.539037,15.6930534 C80.9134875,15.6930534 80.287938,15.6408302 79.7167838,15.5102724 C79.1456303,15.3797146 78.628872,15.170822 78.193707,14.8835947 C77.7585413,14.5963674 77.4049703,14.2046939 77.1329918,13.7346856 C76.861014,13.2646774 76.7250248,12.6902229 76.6978268,11.9852105 L78.601674,11.9852105 C78.601674,12.4029956 78.6832673,12.742446 78.8736518,13.0035617 Z" id="Path"></path>
                <path d="M90.242337,4.43896684 L90.242337,5.92732632 L90.2967323,5.92732632 C90.5959088,5.32676023 91.085469,4.88286351 91.7654145,4.59563626 C92.44536,4.308409 93.1797008,4.17785116 93.9684368,4.17785116 C94.8659648,4.17785116 95.6275035,4.33452058 96.280251,4.64785939 C96.9329985,4.96119823 97.4769548,5.37898336 97.939317,5.92732632 C98.374482,6.44955771 98.7008565,7.07623539 98.918439,7.78124779 C99.1360215,8.48626014 99.244812,9.21738407 99.244812,10.0007312 C99.244812,10.7840783 99.1360215,11.5152022 98.918439,12.2202146 C98.7008565,12.925227 98.374482,13.5257931 97.939317,14.0480245 C97.5041528,14.5702559 96.9601958,14.988041 96.280251,15.2752683 C95.6275035,15.5624955 94.8659648,15.7191649 93.9684368,15.7191649 C93.696459,15.7191649 93.3700853,15.6930534 93.0165135,15.6408302 C92.6629418,15.5886071 92.336568,15.4841608 91.982997,15.353603 C91.6294253,15.2230451 91.3302495,15.0402641 91.0038758,14.8313716 C90.7046993,14.622479 90.4327215,14.3352517 90.242337,14.0219129 L90.187941,14.0219129 L90.187941,19.7142351 L88.2840945,19.7142351 L88.2840945,4.43896684 L90.242337,4.43896684 Z M97.0417898,8.35570229 C96.9058005,7.8595825 96.688218,7.41568579 96.3890423,7.05012381 C96.0898665,6.65845026 95.7362948,6.371223 95.2739318,6.13621887 C94.8115688,5.90121474 94.2948105,5.79676849 93.696459,5.79676849 C93.0709088,5.79676849 92.5269533,5.92732632 92.0645903,6.16233045 C91.6294253,6.39733458 91.2486555,6.71067342 90.9766778,7.10234696 C90.7046993,7.4940205 90.4871168,7.93791721 90.3783263,8.434037 C90.242337,8.93015686 90.187941,9.42627664 90.187941,9.948508 C90.187941,10.496851 90.242337,11.0190824 90.3783263,11.5152022 C90.5143148,12.0113221 90.7318973,12.4552187 91.0038758,12.8468923 C91.3030515,13.2385659 91.6566225,13.5519046 92.1189855,13.7869088 C92.5813485,14.0219129 93.1253048,14.1263592 93.7780523,14.1263592 C94.4307998,14.1263592 94.974756,13.9958014 95.409921,13.7607972 C95.845086,13.5257931 96.1986578,13.1863426 96.4706355,12.7946691 C96.7426133,12.4029956 96.9329985,11.9329874 97.0417898,11.4368675 C97.150581,10.9146361 97.2321743,10.3924047 97.2321743,9.84406179 C97.2321743,9.34794193 97.1777783,8.85182214 97.0417898,8.35570229 Z" id="Shape"></path>
                <path d="M100.931077,7.70291307 C101.175857,6.99790068 101.529428,6.39733458 101.991791,5.87510319 C102.454154,5.35287177 103.052506,4.93508668 103.759649,4.64785939 C104.466792,4.36063213 105.255528,4.20396271 106.153056,4.20396271 C107.077782,4.20396271 107.866519,4.36063213 108.573662,4.64785939 C109.253607,4.93508668 109.851959,5.35287177 110.314321,5.87510319 C110.776684,6.39733458 111.157453,6.99790068 111.375036,7.70291307 C111.619816,8.40792543 111.728608,9.165161 111.728608,9.97461964 C111.728608,10.7840783 111.619816,11.5413138 111.375036,12.2463262 C111.130255,12.9513386 110.776684,13.5519046 110.314321,14.0741361 C109.851959,14.5963674 109.253607,14.988041 108.573662,15.3013799 C107.893716,15.5886071 107.077782,15.7452765 106.153056,15.7452765 C105.255528,15.7452765 104.439594,15.5886071 103.759649,15.3013799 C103.052506,15.0141526 102.481352,14.5963674 101.991791,14.0741361 C101.529428,13.5519046 101.148659,12.9513386 100.931077,12.2463262 C100.686296,11.5413138 100.577505,10.7840783 100.577505,9.97461964 C100.577505,9.165161 100.686296,8.40792543 100.931077,7.70291307 Z M102.862121,11.7502064 C103.052506,12.2724377 103.297286,12.7163344 103.62366,13.0557849 C103.950034,13.3952353 104.330803,13.6824625 104.765968,13.8652435 C105.201133,14.0480245 105.663496,14.1524708 106.153056,14.1524708 C106.642617,14.1524708 107.104979,14.0480245 107.540144,13.8652435 C107.975309,13.6824625 108.356079,13.4213468 108.682453,13.0557849 C109.008827,12.7163344 109.253607,12.2724377 109.443992,11.7502064 C109.634376,11.227975 109.715969,10.6274089 109.715969,9.97461964 C109.715969,9.29571879 109.634376,8.72126429 109.443992,8.19903286 C109.253607,7.6768015 109.008827,7.23290479 108.682453,6.89345439 C108.356079,6.52789242 107.975309,6.26677671 107.540144,6.08399574 C107.104979,5.90121474 106.642617,5.79676849 106.153056,5.79676849 C105.663496,5.79676849 105.201133,5.90121474 104.765968,6.08399574 C104.330803,6.26677671 103.950034,6.52789242 103.62366,6.89345439 C103.297286,7.25901636 103.052506,7.6768015 102.862121,8.19903286 C102.671737,8.72126429 102.590144,9.32183036 102.590144,9.97461964 C102.590144,10.6274089 102.671737,11.227975 102.862121,11.7502064 Z" id="Shape"></path>
                <path d="M115.42751,4.43896684 L115.42751,6.76289655 L115.481906,6.76289655 C115.944269,5.87510319 116.515422,5.19620236 117.16817,4.77841726 C117.848115,4.36063213 118.691247,4.15173958 119.697566,4.17785116 L119.697566,6.11010729 C118.936027,6.11010729 118.28328,6.21455358 117.766522,6.39733458 C117.222566,6.60622713 116.814599,6.89345439 116.488225,7.28512793 C116.161851,7.6768015 115.917071,8.14680971 115.781081,8.69515271 C115.645092,9.24349564 115.563499,9.87017336 115.563499,10.5751857 L115.563499,15.4841608 L113.659652,15.4841608 L113.659652,4.43896684 L115.42751,4.43896684 Z" id="Path"></path>
                <path d="M125.762678,4.43896684 L125.762678,6.03177258 L123.478062,6.03177258 L123.478062,12.8991154 C123.478062,13.108008 123.50526,13.290789 123.532457,13.4213468 C123.559655,13.5519046 123.641249,13.6563509 123.75004,13.7085741 C123.858831,13.7869088 123.99482,13.8130204 124.185205,13.8391319 C124.375589,13.8652435 124.62037,13.8652435 124.919546,13.8652435 L125.789876,13.8652435 L125.789876,15.4580493 L124.348392,15.4580493 C123.858831,15.4580493 123.450864,15.4319376 123.097293,15.353603 C122.743721,15.2752683 122.471743,15.170822 122.25416,15.0141526 C122.036578,14.8313716 121.873391,14.5963674 121.7646,14.2830286 C121.655809,13.9696898 121.601413,13.5519046 121.601413,13.0557849 L121.601413,6.03177258 L119.643171,6.03177258 L119.643171,4.43896684 L121.601413,4.43896684 L121.601413,1.1227975 L123.50526,1.1227975 L123.50526,4.43896684 L125.762678,4.43896684 Z" id="Path"></path>
            </g>
            <g id="Group" transform="translate(10.000000, 65.000000)" fill="#000000">
                <path d="M0.651444573,5.4217541 C0.977166863,4.40345512 1.43860677,3.52276407 2.09005134,2.72463785 C2.71435239,1.95403321 3.52865812,1.32103653 4.47868145,0.853169426 C5.42870479,0.385302321 6.54158926,0.165129566 7.79019136,0.165129566 C9.03879349,0.165129566 10.151678,0.385302321 11.1017013,0.853169426 C12.0517246,1.32103653 12.8388868,1.95403321 13.4903314,2.72463785 C14.1146324,3.4952425 14.6032159,4.40345512 14.9289382,5.4217541 C15.2546604,6.44005308 15.4175216,7.4858737 15.4175216,8.58673748 C15.4175216,9.68760122 15.2546604,10.7334218 14.9289382,11.7517208 C14.6032159,12.7700198 14.1417759,13.6507108 13.4903314,14.4488371 C12.8660303,15.2194417 12.0517246,15.8524384 11.1017013,16.2927839 C10.151678,16.7606511 9.03879349,16.9808238 7.79019136,16.9808238 C6.54158926,16.9808238 5.42870479,16.7606511 4.47868145,16.2927839 C3.52865812,15.8249168 2.74149592,15.2194417 2.09005134,14.4488371 C1.46575029,13.6782325 0.977166863,12.7700198 0.651444573,11.7517208 C0.325722287,10.7334218 0.162861144,9.68760122 0.162861144,8.58673748 C0.162861144,7.4858737 0.325722287,6.44005308 0.651444573,5.4217541 Z M2.57863477,10.9811162 C2.79578297,11.7792424 3.12150525,12.4672823 3.55580162,13.100279 C3.99009801,13.7332756 4.56011202,14.2286643 5.26584364,14.6139667 C5.97157525,14.999269 6.78588098,15.1919201 7.76304786,15.1919201 C8.71307121,15.1919201 9.55452042,14.999269 10.2602521,14.6139667 C10.9659837,14.2286643 11.5359977,13.7332756 11.970294,13.100279 C12.4045905,12.4672823 12.7303127,11.7517208 12.9474609,10.9811162 C13.1646091,10.18299 13.2460397,9.38486368 13.2460397,8.58673748 C13.2460397,7.7886112 13.1374656,6.990485 12.9474609,6.19235877 C12.7303127,5.3942325 12.4045905,4.70619265 11.970294,4.07319599 C11.5359977,3.44019932 10.9659837,2.9448106 10.2602521,2.55950829 C9.55452042,2.17420596 8.74021471,1.9815548 7.76304786,1.9815548 C6.81302452,1.9815548 5.97157525,2.17420596 5.26584364,2.55950829 C4.56011202,2.9448106 3.99009801,3.44019932 3.55580162,4.07319599 C3.12150525,4.70619265 2.79578297,5.4217541 2.57863477,6.19235877 C2.36148658,6.990485 2.28005601,7.7886112 2.28005601,8.58673748 C2.28005601,9.38486368 2.38863011,10.18299 2.57863477,10.9811162 Z" id="Shape"></path>
                <path d="M16.2046838,6.66022586 L16.2046838,4.98140858 L18.131874,4.98140858 L18.131874,3.24754814 C18.131874,2.31181394 18.4033093,1.59625248 18.9461797,1.10086378 C19.4890502,0.605475077 20.2762124,0.357780728 21.3076663,0.357780728 C21.497671,0.357780728 21.6876756,0.385302321 21.9048238,0.412823917 C22.121972,0.440345512 22.3391202,0.495388701 22.5019813,0.550431889 L22.5019813,2.22924915 C22.3391202,2.17420596 22.1491155,2.11916277 21.9591109,2.11916277 C21.7691062,2.09164118 21.5791015,2.09164118 21.4162404,2.09164118 C20.9548005,2.09164118 20.6019347,2.17420596 20.357643,2.36685712 C20.1133513,2.55950829 19.9776336,2.88976742 19.9776336,3.41267772 L19.9776336,5.03645179 L22.2034026,5.03645179 L22.2034026,6.71526904 L19.9776336,6.71526904 L19.9776336,16.6780862 L18.077587,16.6780862 L18.077587,6.71526904 L16.2046838,6.71526904 L16.2046838,6.66022586 Z" id="Path"></path>
                <path d="M22.0948284,6.66022586 L22.0948284,4.98140858 L24.0220186,4.98140858 L24.0220186,3.24754814 C24.0220186,2.31181394 24.2934539,1.59625248 24.8363244,1.10086378 C25.3791948,0.605475077 26.1663571,0.357780728 27.197811,0.357780728 C27.3878156,0.357780728 27.5778203,0.385302321 27.7949685,0.412823917 C28.0121167,0.440345512 28.2292649,0.495388701 28.392126,0.550431889 L28.392126,2.22924915 C28.2292649,2.17420596 28.0392603,2.11916277 27.8492555,2.11916277 C27.6592509,2.09164118 27.4692462,2.09164118 27.306385,2.09164118 C26.8449452,2.09164118 26.4920793,2.17420596 26.2477876,2.36685712 C26.0034959,2.55950829 25.8677783,2.88976742 25.8677783,3.41267772 L25.8677783,5.03645179 L28.0935473,5.03645179 L28.0935473,6.71526904 L25.8677783,6.71526904 L25.8677783,16.6780862 L23.9677316,16.6780862 L23.9677316,6.71526904 L22.0948284,6.71526904 L22.0948284,6.66022586 Z" id="Path"></path>
                <path d="M29.6678717,2.88976742 L29.6678717,0.550431889 L31.5679184,0.550431889 L31.5679184,2.88976742 L29.6678717,2.88976742 Z M31.5407748,4.98140858 L31.5407748,16.6230431 L29.6407282,16.6230431 L29.6407282,4.98140858 L31.5407748,4.98140858 Z" id="Shape"></path>
                <path d="M41.0681516,7.01800657 C40.6067119,6.60518265 39.9552673,6.41253151 39.1681052,6.41253151 C38.4895169,6.41253151 37.919503,6.55013947 37.458063,6.79783383 C36.996623,7.04552818 36.6437572,7.40330892 36.3723219,7.81613281 C36.1008869,8.22895671 35.9108823,8.72434545 35.7751644,9.27477732 C35.6665905,9.82520919 35.5851598,10.3756411 35.5851598,10.9811162 C35.5851598,11.5315481 35.6394469,12.0544584 35.7751644,12.5498471 C35.9108823,13.0727574 36.1008869,13.5131029 36.3723219,13.8984052 C36.6437572,14.2837075 36.996623,14.6139667 37.4037759,14.861661 C37.8380723,15.1093554 38.3537995,15.2194417 38.9238134,15.2194417 C39.846693,15.2194417 40.5795684,14.9717474 41.1224388,14.4763587 C41.6381656,13.98097 41.9638881,13.2929302 42.0996056,12.3847175 L44.0267959,12.3847175 C43.8096477,13.8158404 43.2939205,14.9442258 42.4524713,15.7148304 C41.6110224,16.485435 40.4438506,16.8982589 38.9781005,16.8982589 C38.1095077,16.8982589 37.3223455,16.7606511 36.6709008,16.4579135 C35.9923126,16.1826975 35.4222987,15.7698736 34.9880023,15.2469633 C34.5265626,14.7240531 34.2008401,14.0910564 33.9565483,13.3754949 C33.7394001,12.6599335 33.6036826,11.8618072 33.6036826,10.9811162 C33.6036826,10.1004251 33.7122569,9.30229893 33.9294051,8.53169426 C34.146553,7.76108959 34.499419,7.10057136 34.9337154,6.55013947 C35.3951551,5.99970759 35.9380258,5.53184049 36.6437572,5.22910293 C37.3223455,4.89884379 38.1095077,4.73371426 39.0323873,4.73371426 C39.6838319,4.73371426 40.2809894,4.81627904 40.8510034,4.98140858 C41.4210176,5.14653815 41.9367445,5.3942325 42.3710409,5.72449163 C42.8053373,6.05475077 43.1582031,6.46757469 43.4567817,6.96296339 C43.728217,7.4583521 43.9182217,8.06382714 43.9996523,8.75186705 L42.0453184,8.75186705 C41.8553138,7.98126239 41.5567352,7.40330892 41.0681516,7.01800657 Z" id="Path"></path>
                <path d="M53.9884689,15.87996 C53.1198764,16.5404783 52.0612789,16.8707374 50.7583896,16.8707374 C49.8355099,16.8707374 49.0483478,16.7331294 48.3697596,16.4303919 C47.6911717,16.1276543 47.1211574,15.7148304 46.6597177,15.1643986 C46.1982777,14.6139667 45.845412,13.98097 45.6282638,13.2378869 C45.4111156,12.4948039 45.2753981,11.6691561 45.2482545,10.788465 C45.2482545,9.90777402 45.383972,9.08212621 45.6554074,8.36656476 C45.9268424,7.62348167 46.3068517,6.990485 46.7682917,6.44005308 C47.2568752,5.8896212 47.8268892,5.47679728 48.4783339,5.17405975 C49.1297781,4.87132222 49.8626535,4.73371426 50.6498157,4.73371426 C51.6812696,4.73371426 52.5227189,4.95388701 53.2013067,5.36671093 C53.879895,5.80705642 54.4227654,6.32996673 54.8299182,6.990485 C55.2370711,7.65100327 55.5085064,8.36656476 55.6713675,9.16469096 C55.8342286,9.93529555 55.8885157,10.6783786 55.8613721,11.3939401 L47.2568752,11.3939401 C47.2297317,11.9168504 47.3111621,12.3847175 47.4468799,12.8525846 C47.5825974,13.3204517 47.7997457,13.7057541 48.0983246,14.0635347 C48.3969031,14.4213155 48.7769124,14.6965314 49.2383524,14.9167042 C49.6997924,15.136877 50.2426628,15.2194417 50.8669639,15.2194417 C51.654126,15.2194417 52.3327143,15.0267905 52.8212975,14.6690098 C53.3370246,14.2837075 53.6627467,13.7332756 53.8256079,12.962671 L55.6985111,12.962671 C55.3999325,14.2286643 54.8570618,15.2194417 53.9884689,15.87996 Z M53.5541728,8.39408629 C53.3913115,7.98126239 53.14702,7.65100327 52.8755846,7.34826571 C52.5770057,7.04552818 52.2512835,6.82535543 51.8441307,6.66022586 C51.4641214,6.4950963 51.029825,6.41253151 50.5412417,6.41253151 C50.0526581,6.41253151 49.6183617,6.4950963 49.2112089,6.66022586 C48.8311996,6.82535543 48.4783339,7.07304978 48.2068985,7.37578731 C47.9354631,7.67852484 47.6911717,8.0363056 47.5283103,8.4216079 C47.3654492,8.8069102 47.2568752,9.24725571 47.2297317,9.68760122 L53.8256079,9.68760122 C53.8256079,9.24725571 53.7170339,8.8069102 53.5541728,8.39408629 Z" id="Shape"></path>
            </g>
        </g>
    </g>
</svg>