<svg height="100" viewBox="0 0 195 100" width="195" xmlns="http://www.w3.org/2000/svg"><g fill="none" transform="translate(21 17)"><path d="m.5.4h2.2v65h-2.2z" fill="#7f3f98"/><g fill="#000"><path d="m24.6 3.4v1.3c.7 0 1.1.2 1.4.2-.2-.8-.7-1.3-1.4-1.5"/><path d="m23.8 2.5c0 .4-.1.7-.2.9 0 0 .2-.1.5-.1.2 0 .5.1.5.1-.1-.2-.2-.5-.2-.9 1 0 1.2.4 1.2.8h.2v-1.1-1.1h-.2c0 .4-.3.8-1.2.8 0-1 .4-1.2.8-1.2v-.2h-1.1-1.1v.2c.4 0 .8.3.8 1.2-1 0-1.2-.4-1.2-.8h-.2v1.1 1.1h.2c-.1-.4.2-.8 1.2-.8"/><path d="m23.5 3.4c-.7.2-1.2.8-1.4 1.5.3-.1.7-.2 1.4-.2z"/><path d="m24.7 35.6c0 .4.4.8.8.8s.8-.4.8-.8-.4-.8-.8-.8c-.4.1-.8.5-.8.8m.5 0c0-.2.2-.4.4-.4s.4.2.4.4-.2.4-.4.4c-.3.1-.4 0-.4-.4"/><path d="m23.2 24.9c0-.4-.3-.7-.7-.7h-.1-4c-.4 0-.6.3-.6.6s.2.4.4.4c.3 0 .4-.2.4-.5.1.1.2.2.3.2-.1.3-.1.6-.2 1-.1-.1-.2-.1-.3-.1-.2 0-.3.1-.3.3s.1.3.3.3c.1 0 .2-.1.3-.1v.7c-.1 0-.1-.1-.2-.1-.2 0-.3.1-.3.3s.1.3.3.3c.1 0 .2-.1.3-.2v.1c.1.2.1.4.2.5 0 0-.1 0-.2 0-.2 0-.3.1-.3.3s.1.3.3.3.3-.1.3-.3c.1.2.2.4.4.6 0 0 0 0-.1 0-.2 0-.3.1-.3.3s.1.3.3.3.3-.1.3-.3c.5.5 1.1.9 1.8 1.2l-.1 1s.3.1.7.3.9.2.9.2zm-3.7.4 2.3 4.6c-2.8-1.3-2.5-3.6-2.3-4.6zm2.4 4.3-2.1-4.2h.4l1.8 3.6zm.1-1-1.6-3.2c.1 0 .2 0 .3-.1l1.3 2.7zm.1-1-1.2-2.4c.1 0 .2-.1.3-.1l1 2zm.2-.8-.9-1.7c.1-.1.2-.1.3-.2l.7 1.3zm.2-1.7-.1.7-.5-1.1h.2c.2-.1.4.2.4.4z"/><path d="m20.5 6.5c0-.3.2-.5.5-.5s.5.2.5.5-.2.5-.5.5-.5-.2-.5-.5"/><path d="m14.2 9.8c0-.3.2-.5.5-.5s.5.2.5.5-.2.5-.5.5-.5-.2-.5-.5"/><path d="m13.9 8.6c0-.3.2-.5.5-.5s.5.2.5.5-.2.5-.5.5-.5-.2-.5-.5"/><path d="m14 7.4c0-.3.2-.5.5-.5s.5.2.5.5-.2.5-.5.5c-.3-.1-.5-.3-.5-.5"/><path d="m14.7 6.3c0-.3.2-.5.5-.5s.5.2.5.5-.2.5-.5.5-.5-.2-.5-.5"/><path d="m15.7 5.5c0-.3.2-.5.5-.5s.5.2.5.5-.2.5-.5.5c-.3.1-.5-.2-.5-.5"/><path d="m16.9 5.3c0-.3.2-.5.5-.5s.5.2.5.5-.2.5-.5.5c-.2 0-.5-.2-.5-.5"/><path d="m18.2 5.6c0-.3.2-.5.5-.5s.5.2.5.5-.2.5-.5.5-.5-.2-.5-.5"/><path d="m19.3 6.1c0-.3.2-.5.5-.5s.5.2.5.5-.2.5-.5.5c-.2-.1-.5-.3-.5-.5"/><path d="m27.6 6.5c0-.3-.2-.5-.5-.5s-.5.2-.5.5.2.5.5.5.5-.2.5-.5"/><path d="m33.9 9.8c0-.3-.2-.5-.5-.5s-.5.2-.5.5.2.5.5.5.5-.2.5-.5"/><path d="m34.2 8.6c0-.3-.2-.5-.5-.5s-.5.2-.5.5.2.5.5.5.5-.2.5-.5"/><path d="m34.1 7.4c0-.3-.2-.5-.5-.5s-.5.2-.5.5.2.5.5.5c.3-.1.5-.3.5-.5"/><path d="m33.4 6.3c0-.3-.2-.5-.5-.5s-.5.2-.5.5.2.5.5.5.5-.2.5-.5"/><path d="m32.4 5.5c0-.3-.2-.5-.5-.5s-.5.2-.5.5.2.5.5.5c.3.1.5-.2.5-.5"/><path d="m31.2 5.3c0-.3-.2-.5-.5-.5s-.5.2-.5.5.2.5.5.5c.2 0 .5-.2.5-.5"/><path d="m29.9 5.6c0-.3-.2-.5-.5-.5s-.5.2-.5.5.2.5.5.5.5-.2.5-.5"/><path d="m28.7 6.1c0-.3-.2-.5-.5-.5s-.5.2-.5.5.2.5.5.5c.3-.1.5-.3.5-.5"/><path d="m28.3 13.5c0-.3-.3-.5-.5-.5-.3 0-.5.3-.5.5 0 .3.3.5.5.5s.5-.2.5-.5"/><path d="m24.7 16.8v6.2h5.5v-6.2zm5.3 6h-5.2v-5.8h2 .8 2.4z"/><path d="m25.4 17.1h-.3v5.1.3h.3 4.1.3v-.3-4.8-.3h-.3-1.8-.9zm4.1.2v.2h.2v4.8h-.2v.2h-4.1v-.2h-.2v-4.8h.2v-.2z"/><path d="m29.3 18.6-.3.3-.5.4c-.2.1-.2.4-.1.5l.3.4v.1s0 .1-.1.1h-.1s-.1 0-.1-.1c0 0-.3-.4-.4-.6v-.5l.7-.6v-.5l-.2-.2.3-.3h-1.2l-.3.3v.3h.1c.1 0 .3.1.3.3 0 .1-.1.3-.3.3h-.1v.4h-.4l-.5-.7c.1-.1.1-.2.1-.3 0-.2-.2-.3-.3-.3s-.1 0-.2.1v.2.3l.4.6.2.3h.4.1l-.3.3h-.6c0-.1-.2-.2-.3-.2s-.3.1-.3.2v.1s0 .2.1.2h.5.8l.2.3h-.5-.4l.4.5.2.3h-.4c0-.1-.2-.2-.3-.2s-.3.1-.3.2v.1c0 .1 0 .2.1.2h.5.8.4l-.2-.3-.2-.3h.5l.2.3.2.3h.7.1v.4h-.1c0-.1-.2-.2-.3-.2-.2 0-.3.1-.3.2v.1c0 .1 0 .2.1.2h1v-.7-.4h-.3-.3l-.3-.4c.1.1.1.1.2.1s.2 0 .3-.1.1-.2.2-.3c0-.1 0-.2-.1-.3l-.3-.4c-.1-.1 0-.2 0-.2l.1-.1c.1.1.3.1.4 0s.1-.1.1-.2z"/><path d="m23.3 13.5.7-.7.8.7-.8.6z"/><path d="m19.8 13.5c0-.3.3-.5.5-.5s.5.3.5.5c0 .3-.3.5-.5.5s-.5-.2-.5-.5"/><path d="m29.8 27.4c0-.1 0-.1 0-.2 0-.2-.2-.4-.4-.4h-1.4c0-.2-.2-.3-.3-.3s-.2 0-.2.1l-.4.4h.4.5 1.4c.1 0 .2.1.2.2s-.1.2-.2.2h-.9-1.8v-.4l.5-.5h-1.9l.5.5v.7l-.8-.6c.1-.1.1-.2.1-.3 0-.2-.2-.3-.3-.3s-.2 0-.2.1v.5.1l1.2 1-.5.2c0-.1-.2-.2-.3-.2-.2 0-.3.2-.3.3s0 .2.1.2h.4.3l2.9-.9v.4l-.4.2c0-.2-.2-.3-.3-.3-.2 0-.3.2-.3.3s0 .2.1.2h.4.4l.4-.2.3-.1-.1-.3v-.1h1.1v.1c0 .1-.1.2-.1.2-.1-.1-.2-.1-.3-.1-.2 0-.3.2-.3.3s0 .2.1.2h.5.2c.1-.2.2-.4.2-.5.1-.3.2-.5.2-.6-.4-.1-.7-.1-.7-.1zm-3.5 0-.3-.3h.6z"/><path d="m29.8 25c0-.1 0-.1 0-.2 0-.2-.2-.4-.4-.4h-1.4c0-.2-.2-.3-.3-.3s-.2 0-.2.1l-.4.4h.4.5 1.5c.1 0 .2.1.2.2s-.1.2-.2.2h-1-1.8v-.4l.5-.5h-1.9l.5.5v.7l-.8-.6c.1-.1.1-.2.1-.2 0-.2-.2-.3-.3-.3s-.2 0-.2.1v.5.1l1.1.9-.5.2c0-.1-.2-.2-.3-.2-.2 0-.3.2-.3.3s0 .2.1.2h.5.2l2.9-.9v.5l-.4.1c0-.1-.2-.2-.3-.2-.2 0-.3.2-.3.3s0 .2.1.2h.5.2l.7-.2.4-.1-.3-.3-.2-.2h1.3v.4c-.1-.1-.2-.1-.3-.1-.2 0-.3.2-.3.3s0 .2.1.2h.5.3v-.8-.2-.2zm-3.5.1-.3-.3h.6z"/><path d="m28.6 29.1h-.6c0-.2-.2-.3-.3-.3s-.2 0-.2.1l-.4.4h.4.5.6c.1 0 .2.1.2.2s-.1.2-.2.2h-.9-1v-.3l.5-.5h-1.9l.5.5v.8l-.8-.7c.1-.1.1-.2.1-.3 0-.2-.2-.3-.3-.3s-.2 0-.2.1v.4.2l1.2 1.1.1-.1-.8.9c-.1-.1-.2-.1-.2-.1-.2 0-.3.2-.3.4 0 .1 0 .1.1.2.1 0 .3 0 .5-.1l.9-1c.1 0 .2-.1.4-.1l.4.3c-.1 0-.1.1-.2.1-.1-.1-.2-.1-.3-.1-.2.1-.3.3-.2.4 0 .1.1.1.1.1s.1 0 .3-.1c.1-.1.3-.1.3-.1.2-.1.3-.1.4-.2v-.4-.5c.2-.1.4-.3.6-.4l.3.3c-.1.1-.1.1-.2.2-.1-.1-.2-.1-.3 0-.1 0-.1.1-.2.2v.1.1c0 .1.1.1.2.1.2-.1.3-.2.4-.3s.2-.2.3-.3l.1-.1v-.2-.1h.2c.2 0 .4-.2.4-.4-.1-.1-.2-.4-.5-.4zm-2.3.7-.3-.3h.6z"/><path d="m23 22c0-.1 0-.1 0-.2 0-.2-.2-.4-.4-.4h-1.4c0-.2-.2-.3-.3-.3s-.2 0-.2.1l-.4.4h.4.5 1.5c.1 0 .2.1.2.2s-.1.2-.2.2h-1-1.8v-.4l.5-.5h-1.9l.5.5v.7l-.8-.6c.1-.1.1-.2.1-.2 0-.2-.2-.3-.3-.3s-.2 0-.2.1v.5.1l1.1.9-.5.2c0-.1-.2-.2-.3-.2-.2 0-.3.2-.3.3s0 .2.1.2h.5.2l2.9-.9v.5l-.4.1c0-.1-.2-.2-.3-.2-.2 0-.3.2-.3.3s0 .2.1.2h.5.2l.7-.2.4-.1-.3-.3-.2-.2h1.3v.4c-.1-.1-.2-.1-.3-.1-.2 0-.3.2-.3.3s0 .2.1.2h.5.3v-.8-.4zm-3.6 0-.3-.3h.6z"/><path d="m23 19.6c0-.1 0-.1 0-.2 0-.2-.2-.4-.4-.4h-1.4c0-.2-.2-.3-.3-.3s-.2 0-.2.1l-.4.4h.4.5 1.5c.1 0 .2.1.2.2s-.1.2-.2.2h-1-1.8v-.4l.5-.5h-1.9l.5.5v.7l-.8-.6c.1-.1.1-.2.1-.2 0-.2-.2-.3-.3-.3s-.2 0-.2.1v.5.1l1.1.9-.5.2c0-.1-.2-.2-.3-.2-.2 0-.3.2-.3.3s0 .2.1.2h.5.2l2.9-.9v.5l-.4.1c0-.1-.2-.2-.3-.2-.2 0-.3.2-.3.3s0 .2.1.2h.5.2l.7-.2.4-.1-.3-.3-.2-.2h1.3v.4c-.1-.1-.2-.1-.3-.1-.2 0-.3.2-.3.3s0 .2.1.2h.5.3v-.8-.4zm-3.6 0-.3-.3h.6z"/><path d="m23 17.4c0-.1 0-.1 0-.2 0-.2-.2-.4-.4-.4h-1.4c0-.2-.2-.3-.3-.3s-.2 0-.2.1l-.4.4h.4.5 1.5c.1 0 .2.1.2.2s-.1.2-.2.2h-1-1.8v-.4l.5-.5h-1.9l.5.5v.7l-.8-.6c.1-.1.1-.2.1-.2 0-.2-.2-.3-.3-.3s-.2 0-.2.1v.5.1l1.1.9-.5.2c0-.1-.2-.2-.3-.2-.2 0-.3.2-.3.3s0 .2.1.2h.5.2l2.9-.9v.5l-.4.1c0-.1-.2-.2-.3-.2-.2 0-.3.2-.3.3s0 .2.1.2h.5.2l.7-.2.4-.1-.3-.3-.2-.2h1.3v.4c-.1-.1-.2-.1-.3-.1-.2 0-.3.2-.3.3s0 .2.1.2h.5.3v-.8-.4zm-3.6.1-.3-.3h.6z"/><path d="m33 23.1c.2-.1.3-.3.3-.5 0-.1-.1-.2-.2-.2-.1-.1-.2-.1-.3 0s-.2.1-.2.2c-.1.1-.1.2 0 .3 0 .2.2.4.4.2"/><path d="m31.9 24.1.1.4 1.3-.2 1.3.6-.1-.4s-.8-.4-.9-.4c.1-.1.7-.7.7-.7l-.1-.4s-1 .9-1 1c0-.1-1.3.1-1.3.1"/><path d="m32.9 25.3c0 .1 0 .2.1.3s.2.1.3.1.2 0 .3-.1.1-.2.1-.3 0-.2-.1-.3-.2-.1-.3-.1c-.3 0-.4.2-.4.4"/><path d="m32 26v.4s1 .1 1.1.2v.3.2c0 .2 0 .3.1.4s.3.2.5.3c.4.1.8-.2.8-.6l.1-.7zm2 .6v.4c0 .3-.3.3-.4.3-.2 0-.3-.2-.3-.3 0 0 0 0 0-.1v-.3c.1-.1.7 0 .7 0z"/><path d="m31.8 27.4-.4 1.2.4.1.3-.9s.6.2.7.2c0 .1-.3.8-.3.8l.4.1.3-.8.6.2c0 .1-.3.9-.3.9l.4.1.4-1.2z"/><path d="m31.3 28.8-.2.3s1.4.9 1.5 1c-.2 0-2.3.2-2.3.2l-.2.3 2.1 1.3.2-.3s-1.4-.9-1.5-1c.2 0 2.3-.2 2.3-.2l.2-.3z"/><path d="m30.5 31.8c-.3 0-.5.1-.6-.1-.1-.1-.1-.3 0-.4.2-.2.4-.2.6-.2h.1l-.4-.4c-.3 0-.4.1-.6.3-.1.1-.2.3-.2.4 0 .2.1.4.2.5.3.3.7.3 1 .2.2-.1.4-.1.6 0 0 .1.1.1.1.2s0 .2-.1.3-.3.2-.5.2h-.1l.4.4c.2 0 .4-.1.5-.2.2-.2.2-.3.2-.5s-.1-.4-.2-.5c-.4-.4-.8-.2-1-.2"/><path d="m28.9 31.6-1.1.7.2.3s.7-.5.8-.5c0 0 .4.5.4.6l-.7.5.2.3.7-.5s.4.5.4.6l-.8.5.2.3 1.1-.7z"/><path d="m19.7 33.4-1-.6.6-.9-.3-.2-1.3 2.1.3.2s.5-.9.6-.9l1 .6-.6.9.3.2 1.3-2.1-.3-.2s-.6.8-.6.9"/><path d="m18.4 31.5c0-.3-.1-.6-.3-.8-.5-.6-1.3-.5-1.8-.1-.3.3-.4.6-.4.9s.1.6.3.9c.4.5 1.2.5 1.8.1.2-.4.4-.6.4-1m-.3 0c0 .2-.1.5-.3.6-.4.4-.9.4-1.2 0-.2-.2-.2-.4-.2-.6s.1-.4.3-.6.4-.3.7-.3c.2 0 .4.1.5.3s.2.4.2.6"/><path d="m17.1 29.4s-1.5.7-1.7.8c.1-.1 1.1-2.1 1.1-2.1l-.1-.3-2.2 1.1.2.3s1.5-.7 1.7-.8c-.1.1-1.1 2.1-1.1 2.1l.1.3 2.2-1.1z"/><path d="m16.3 27.1-2.4.7.1.3 2.4-.5z"/><path d="m15.2 26.4c-.1-.1-.2-.1-.3-.1s-.2.1-.3.2-.1.2-.1.3.1.2.2.3.2.1.3.1c.2 0 .4-.2.3-.4 0-.3-.1-.4-.1-.4"/><path d="m15 25.4c.2-.2.3-.4.5-.4.1 0 .1 0 .2.1s.1.2.1.3c0 .2-.1.4-.4.5l-.1.1h.5c.2-.2.2-.4.2-.6s-.1-.3-.2-.4-.3-.2-.5-.2c-.4 0-.6.3-.8.6-.1.2-.2.4-.4.4-.1 0-.1 0-.2-.1s-.1-.2-.1-.3c0-.2.1-.4.3-.5h.1-.5c-.1.2-.2.3-.2.5s.1.4.2.5.3.2.5.2c.4-.1.6-.5.8-.7"/><path d="m14.8 24.4c.4.1.7 0 1-.1.3-.2.4-.4.5-.7s0-.6-.1-.9c-.2-.3-.5-.5-.8-.6-.7-.2-1.4.2-1.5.9v.3c0 .2.1.4.2.6s.4.4.7.5m-.5-1.4c.1-.2.2-.4.4-.5s.4-.2.7-.1.5.2.6.4.1.4.1.6c-.1.4-.6.7-1.1.6-.6-.1-.9-.5-.7-1"/><path d="m35.5 25.4c0-3.1-1.2-5.9-3.3-8.1-.3-.3-.5-.5-.8-.7v-.4c.4 0 .8-.4.8-.9s-.4-.9-.9-.9c0 0 0 0-.1 0l.8-.4-.3-.7 1.2-2.9-.5-.2-1.3 3-.7.3.4 1h-3.7-6.5-3.7l.4-1-.7-.3-1.3-3-.5.2 1.2 2.9-.3.7.8.4c-.5 0-.9.4-.9.9 0 .4.4.8.8.9v.4c-.3.2-.5.5-.8.7-2.2 2.2-3.3 5-3.3 8.1 0 2.4.7 4.6 2.1 6.6 1.3 1.9 3.2 3.3 5.3 4.1 0 0 .1 0 .3.1 0 .3.2.6.5.7s.7 0 .9-.2v3.2c0 1.2 1 2.2 2.3 2.2s2.3-1 2.3-2.2v-2.2l5.6-2.7c.2-.1.4-.2.5-.3.4-.4.5-1.1.2-1.9.5-.6 1-1.2 1.3-1.8 1.3-1.6 1.9-3.6 1.9-5.6zm-6-10.4 1.7.4-1.7.4zm-5.3 17.4v-8.6h6.6v1.6c0 1.6-.3 2.7-.7 3.5-.4.6-.8 1.1-1.3 1.6l-.1.1c-1.2 1-2.8 1.7-4.5 1.8zm2 .2c-.1.3-.2.6-.3 1-.6-.2-1.2-.4-1.8-.7.7.1 1.4-.1 2.1-.3zm-2-9.1v-7.3h5.5 1v5.7 1.6zm2.3-8.5 1.7.4-1.7.4zm-3.1 0 1.7.4-1.7.4zm-3 0 1.7.4-1.7.4zm-3 0 1.7.4-1.7.4zm0 6.9v-5.7h1 5.5v7.3h-6.6v-1.6zm0 1.9h6.6v8.6c-1.3 0-2.6-.4-3.8-1.2l-.1-.1s-.1 0-.1-.1-.1-.1-.1-.1c-.7-.5-1.3-1.2-1.8-2-.4-.8-.7-1.9-.7-3.4zm3.1 11.8c-.1 0-.2-.1-.3-.1-2-.8-3.8-2.1-5-3.9-1.3-1.8-2-4-2-6.2 0-2.9 1.1-5.6 3.2-7.7l.4-.4v3c-.4-.3-1-.6-1-.7l.4-.6-.3-.2-1 1.5.3.2.4-.6s.7.4 1.2.8v1.1l-2.1-1-.2.3 2.3 1.1v1.3c-.2.6-.3 1.2-.3 1.9 0 1.4.4 2.6 1 3.8.4.8 1 1.3 1.5 1.8.2.2.4.4.7.6h.1s.1 0 .1.1.1 0 .1.1c.2.1.4.3.6.4.3.1.7.3 1.1.5l-.5 1.2-.2-.1c-.1-.1-.3 0-.4.1s0 .3.1.4l.2.1zm5.3 4.4c0 .2-.1.4-.2.6s-.3.3-.4.3c-.2 0-.4-.1-.5-.4 0 0 0-.1-.1-.3h.2c.3 0 .5-.2.5-.5s-.2-.5-.5-.5c-.2 0-.3.1-.4.2-.2-.6-.3-1.3-.3-1.3h-.1-.1s-.2.7-.3 1.3c-.1-.1-.2-.2-.4-.2-.3 0-.5.2-.5.5s.2.5.5.5h.2c0 .1-.1.3-.1.3-.1.2-.3.4-.5.4s-.4-.1-.4-.3c-.1-.2-.1-.4-.1-.6v-3.1c1 .3 2.3.7 3.5 1zm.2-2.7c-1.8-.4-3.9-1.1-5.1-1.5.1-.3.3-.8.5-1.3l.3.1v.1c0 .4.4.8.8.8s.8-.4.8-.8-.4-.8-.8-.8c-.3 0-.4.1-.6.3l-.4-.2c.2-.5.4-.9.5-1.2 1.2.5 2.8 1.1 4.3 1.6 1.6.5 2.9.8 3.8.9-1.5.8-4 1.8-4.1 2zm6-2.9c-.2.2-.5.3-1.3.3.5-.4 1-.8 1.5-1.3.1.5.1.7-.2 1zm-2.2.2c-.8-.1-1.8-.4-3.2-.8-.1 0-.1 0-.2-.1.1-.8.4-1.3.8-1.6.7-.3 1.3-.8 1.9-1.3.5-.4 1-1 1.4-1.8.6-1.1 1-2.4 1-3.8 0-.6-.1-1.3-.3-1.9v-1.2l.4.9.4-.1-.4-.9c.1 0 2-.8 2-.8l-.1-.4-2.1.9v-.2l1.4-2-.1-.2-1.3.3v-2.4c.1.1.3.2.4.4 2 2 3.2 4.8 3.2 7.7 0 1.9-.5 3.8-1.4 5.4-1 1.7-2.3 2.9-3.8 3.9zm1.7-13.6s-.1.1-.1.2v-.4c0 .1.1.2.1.2zm-.1-.9c.1 0 .7-.2.8-.2-.1.1-.4.6-.5.7 0 0-.3-.5-.3-.5z"/><path d="m32.6 7.1c-.4-.7-1.2-1-1.7-1-.8 0-1.6.3-2.3.6-.9.4-1.8.7-2.6.6.1-.3.2-.6.4-.9l-.5-.3c.1-.2.2-.4.2-.7-.1 0-.8-.3-2-.3s-1.8.3-1.9.3c0 .3.1.5.2.7l-.5.3c.2.3.3.6.4.9-.9.1-1.8-.3-2.6-.6s-1.6-.6-2.3-.6c-.5 0-1.3.3-1.7 1-.4.5-.6 1.6.1 3.2l1.1-.5.1.2c-.4.2-.7.6-.3 1.5 1-.4 1-1 .8-1.3l.2-.1.5 1.1.5 1.1-.2.1c-.2-.4-.6-.7-1.5-.3.4 1 1.1 1.3 1.7 1.3 1 0 1.7-.6 1.6-1.2-.1-.4-.5-.6-.6-.6-.2 0-.3.3-.3.4v.1c-.3 0-.5-.2-.5-.5-.1-.3.2-.6.5-.7.2 0 .4 0 .5.2l.1-.1c-.2-.1-.3-.3-.4-.5-.1-.5.5-1 .5-1s.7.3.8.8c0 .2 0 .4-.2.6l.1.1c.1-.2.2-.3.4-.4.3-.1.6.2.7.5s-.1.5-.3.6v-.1c0-.2-.2-.3-.4-.3s-.5.3-.4.8c.2.8.8 1.3 1.6 1.3s1.6-.6 1.6-1.6c-1.1 0-1.4.5-1.4 1h-.2v-1.3-1.3h.2c0 .4.3 1 1.4 1 0-1.1-.5-1.4-1-1.4v-.2h1.1.4 1.1v.2c-.4 0-1 .3-1 1.4 1.1 0 1.4-.5 1.4-1h.2v1.3 1.3h-.2c0-.4-.3-1-1.4-1 0 1 .8 1.6 1.6 1.6s1.4-.5 1.6-1.3c.1-.4-.2-.8-.4-.8s-.4.1-.4.3v.1c-.2-.1-.4-.4-.3-.6.1-.3.4-.5.7-.5.2 0 .4.2.4.4l.1-.1c-.1-.2-.2-.4-.2-.6.1-.5.8-.8.8-.8s.6.5.5 1c0 .2-.2.4-.4.5l.1.1c.1-.1.3-.2.5-.2.3.1.5.4.5.7-.1.3-.3.5-.5.5v-.1c0-.2-.1-.4-.3-.4s-.6.1-.6.6c-.1.6.6 1.2 1.6 1.2.6 0 1.3-.4 1.7-1.3-1-.4-1.4-.1-1.5.3l-.2-.1.5-1.1.5-1.1.2.1c-.2.4-.1.9.8 1.3.4-1 .1-1.4-.3-1.5l.1-.2 1.1.5c.4-1.7.1-2.7-.2-3.2m-10.2 1.4c-.5 0-1 .3-1.2.7-.3-.5-.9-.8-1.5-.7-.4.1-.8.4-1 .8-.3-.4-.7-.7-1.2-.7-.6 0-1.2.4-1.4 1-.4-.9-.4-1.7 0-2.2s1-.7 1.2-.7c.7 0 1.4.3 2.1.6 1 .4 1.9.8 3 .6zm1.6-3c.3 0 .5.2.6.5-.2-.1-.4-.2-.6-.2s-.4.1-.6.2c.1-.4.4-.5.6-.5m0 .6c.3 0 .5.2.6.5-.2-.1-.4-.2-.6-.2s-.4.1-.6.2c.1-.3.4-.5.6-.5m0 3.2c-.3 0-.6-.3-.6-.6s.3-.6.6-.6.6.3.6.6-.2.6-.6.6m.6-1.3c-.2-.1-.4-.2-.5-.2-.2 0-.4.1-.5.2 0-.1 0-.1 0-.2 0-.3.3-.6.6-.6s.6.3.6.6c-.2.1-.2.2-.2.2m0-.9c-.2-.1-.4-.2-.6-.2s-.4.1-.6.2c0-.3.3-.6.6-.6s.6.4.6.6zm7.5 2.5c-.2-.6-.7-1-1.4-1-.5 0-1 .3-1.2.7-.2-.4-.5-.7-1-.8-.6-.1-1.2.2-1.5.7-.3-.4-.7-.7-1.2-.7h-.1c0-.2.1-.4.1-.5 1.1.2 2.1-.3 3-.6.7-.3 1.4-.6 2.1-.6.3 0 .9.2 1.2.7.3.4.3 1.1 0 2.1"/><path d="m27.5 16.6h-.3l.2.3h.1.1l.1-.3z"/><path d="m24.8 16.8v.1h-.2v-.1l-.2-.3v-.1l.3.2h.2v.2z"/><path d="m25 16.8c-.1 0-.1-.2 0 0-.1-.1 0-.1 0 0 0-.1 0-.2 0 0 .1-.1.1-.1.1-.2s-.1-.2-.2-.2-.2.1-.2.2.1.2.3.2z"/><path d="m24.7 17c-.1-.1-.1 0-.1 0h.1c-.1.1-.1.1-.2.1s-.2-.1-.2-.2.1-.2.2-.2c.2.1.2.2.2.3z"/><path d="m24.8 22.9v-.1h-.2v.1l-.2.2v.2l.3-.2h.2v-.2z"/><path d="m25 22.9c-.1 0-.1.1 0 0-.1 0 0 0 0 0s0 .2 0 0c.1.1.1.1.1.2s-.1.2-.2.2-.2-.1-.2-.2.1-.2.3-.2z"/><path d="m24.7 22.6s0 .2 0 0c-.1.1-.1 0-.1 0h.1c-.1-.1-.1-.1-.2-.1s-.2.1-.2.2.1.2.2.2c.2 0 .2 0 .2-.3z"/><path d="m30.1 22.9v-.1h.3v.1l.1.2v.2l-.3-.2h-.2v-.2z"/><path d="m29.9 22.9c.1 0 .1.1 0 0s0 .2 0 0c-.1.1-.1.1-.1.2s.1.2.2.2.2-.1.2-.2-.1-.2-.3-.2z"/><path d="m30.2 22.6s0 .2 0 0c.1.1.1 0 .1 0s0 0-.1 0c.1-.1.1-.1.2-.1s.2.1.2.2-.1.2-.2.2-.2 0-.2-.3z"/><path d="m30.1 16.8v.1h.3v-.1l.1-.3v-.1l-.3.2h-.2v.2z"/><path d="m29.9 16.8c.1 0 .1-.2 0 0 .1-.1 0-.1 0 0 0-.1 0-.2 0 0-.1-.1-.1-.1-.1-.2s.1-.2.2-.2.2.1.2.2-.1.2-.3.2z"/><path d="m30.2 17c.1-.1.1 0 .1 0s0 0-.1 0c.1.1.1.1.2.1s.2-.1.2-.2-.1-.2-.2-.2c-.1.1-.2.2-.2.3z"/><path d="m27.2 17.1h1v1h-1z"/><path d="m27.5 17.6h-.1l-.1-.2h.3z"/><path d="m27.8 17.4c-.1 0-.1 0 0 0-.1-.1-.1-.1 0 0-.2-.1-.2 0-.2 0l.1.1c.1.1.1 0 .1-.1z"/><path d="m27.1 17.4c.1 0 .1 0 0 0 .1-.1.1-.1 0 0 .2-.1.2 0 .2 0l-.1.1c0-.1-.1 0-.1-.1z"/><path d="m27.5 23.1h.2l-.1-.2-.1-.1h-.1.1-.1v.1l-.2.2z"/><path d="m27.2 22.3h1v1h-1z"/><path d="m27.4 22.1h.1l.1.2h-.3z"/><path d="m27.1 22.3c.1 0 .1 0 0 0 .1.1.1.1 0 0 .2.1.2 0 .2 0l-.1-.1s-.1-.1-.1.1z"/><path d="m27.8 22.3c-.1 0-.1 0 0 0-.1.1-.1.1 0 0-.2.1-.2 0-.2 0l.1-.1c.1-.1.1-.1.1.1z"/><path d="m30.4 19.8v-.2l-.3.2v.1l-.1-.1.1.1.3.2z"/><path d="m29.5 19.6h1v1h-1z"/><path d="m29.3 19.9v-.1l.2-.2v.4z"/><path d="m29.6 20.1c.1 0 .1 0 0 0 .1-.2 0-.2 0-.2-.1 0-.1.1-.1.1s0 .1.1.1z"/><path d="m29.6 19.5c0 .1 0 .1 0 0 .1.1.1.1 0 0 .1.2 0 .2 0 .2-.1 0-.1-.1-.1-.1s0-.1.1-.1z"/><path d="m24.6 19.8v-.2l.2.2v.1l.1-.1-.1.1-.2.2z"/><path d="m25.2 19.6h1v1h-1z"/><path d="m25.6 19.9v-.1l-.2-.2v.4z"/><path d="m25.4 20.1c-.1 0-.1 0 0 0-.1-.2 0-.2 0-.2l.1.1z"/><path d="m25.4 19.5c0 .1 0 .1 0 0-.1.1-.1.1 0 0-.1.2 0 .2 0 .2l.1-.1z"/><g transform="translate(13 46)"><path d="m3.1.9v8h9.8v-8h2.5v18.6h-2.5v-8.5h-9.8v8.5h-2.5v-18.6z"/><path d="m18.4 10c.3-.9.7-1.6 1.2-2.2s1.2-1.1 2.1-1.5c.8-.4 1.8-.5 2.8-.5 1.1 0 2 .2 2.8.5.8.4 1.5.9 2 1.5s1 1.4 1.2 2.2c.3.9.4 1.8.4 2.8s-.1 1.9-.4 2.8-.7 1.6-1.2 2.2-1.2 1.1-2 1.5-1.8.5-2.8.5c-1.1 0-2-.2-2.8-.5-.8-.4-1.5-.9-2.1-1.5-.5-.6-1-1.4-1.2-2.2-.3-.9-.4-1.8-.4-2.8s.2-2 .4-2.8zm2.3 4.9c.2.6.5 1.2.9 1.6s.8.8 1.3 1 1.1.4 1.6.4c.6 0 1.1-.1 1.6-.4.5-.2 1-.5 1.3-1 .4-.4.7-1 .9-1.6s.3-1.4.3-2.2-.1-1.5-.3-2.2c-.2-.6-.5-1.2-.9-1.6s-.8-.8-1.3-1-1.1-.4-1.6-.4c-.6 0-1.1.1-1.6.4-.5.2-1 .5-1.3 1-.4.4-.7 1-.9 1.6s-.3 1.4-.3 2.2.1 1.6.3 2.2z"/><path d="m35.5 6v2h.1c1-1.5 2.5-2.3 4.4-2.3.8 0 1.6.2 2.3.5.7.4 1.1.9 1.4 1.8.4-.7 1.1-1.3 1.8-1.7s1.6-.6 2.4-.6c.7 0 1.3.1 1.8.2.5.2 1 .4 1.4.7s.7.7.9 1.2.3 1.1.3 1.8v9.9h-2.2v-8.8c0-.4 0-.8-.1-1.2s-.2-.7-.4-1-.4-.5-.8-.6c-.4-.2-.8-.2-1.3-.2-1.1 0-1.9.3-2.6.9-.6.6-.9 1.5-.9 2.5v8.4h-2.2v-8.8c0-.4 0-.8-.1-1.2s-.2-.7-.4-1-.4-.5-.8-.6c-.3-.2-.7-.2-1.2-.2-.6 0-1.2.1-1.7.4-.4.3-.8.6-1.1.9-.3.4-.5.7-.6 1.1s-.2.7-.2 1v8.4h-2.2v-13.4h2z"/><path d="m64.9 18.6c-1 .8-2.3 1.1-3.8 1.1-1.1 0-2-.2-2.8-.5-.8-.4-1.5-.8-2-1.5-.5-.6-1-1.4-1.2-2.2-.3-.9-.4-1.8-.4-2.8s.2-2 .5-2.8c.3-.9.8-1.6 1.3-2.2.6-.6 1.2-1.1 2-1.5s1.6-.5 2.5-.5c1.2 0 2.2.3 3 .7.8.5 1.4 1.1 1.9 1.9s.8 1.6 1 2.5.3 1.8.2 2.6h-10.1c0 .6.1 1.1.2 1.7.2.5.4 1 .8 1.4s.8.7 1.3 1 1.2.4 1.9.4c.9 0 1.7-.2 2.3-.6s1-1.1 1.2-2h2.2c-.4 1.3-1 2.5-2 3.3zm-.6-8.7c-.2-.5-.5-.9-.8-1.2-.4-.4-.7-.6-1.2-.8-.4-.2-1-.3-1.5-.3-.6 0-1.1.1-1.6.3-.4.2-.9.5-1.2.8-.3.4-.6.8-.8 1.2s-.3 1-.4 1.5h7.7c.1-.5 0-1-.2-1.5z"/><path d="m75.8 6.5c.4-1.2.9-2.2 1.7-3.1.7-.9 1.7-1.6 2.8-2.2 1.1-.5 2.4-.8 3.9-.8s2.8.3 3.9.8 2 1.3 2.8 2.2c.7.9 1.3 1.9 1.7 3.1s.6 2.4.6 3.7-.2 2.5-.6 3.7-.9 2.2-1.7 3.1c-.7.9-1.7 1.6-2.8 2.1s-2.4.8-3.9.8-2.8-.3-3.9-.8-2-1.2-2.8-2.1c-.7-.9-1.3-1.9-1.7-3.1s-.6-2.4-.6-3.7.2-2.6.6-3.7zm2.3 6.4c.3.9.6 1.7 1.1 2.5s1.2 1.3 2 1.8c.8.4 1.8.7 2.9.7s2.1-.2 2.9-.7c.8-.4 1.5-1 2-1.8s.9-1.6 1.1-2.5c.3-.9.4-1.8.4-2.8s-.1-1.8-.4-2.8c-.3-.9-.6-1.7-1.1-2.5-.5-.7-1.2-1.3-2-1.8-.8-.4-1.8-.7-2.9-.7s-2.1.2-2.9.7c-.8.4-1.5 1-2 1.8s-.9 1.6-1.1 2.5c-.3.9-.4 1.8-.4 2.8s.2 1.9.4 2.8z"/><path d="m94.1 7.9v-1.9h2.3v-2c0-1.1.3-1.9 1-2.5.6-.6 1.6-.9 2.8-.9.2 0 .4 0 .7.1.3 0 .5.1.7.2v1.9c-.2-.1-.4-.1-.6-.1s-.4 0-.6 0c-.5 0-1 .1-1.2.3-.3.2-.4.6-.4 1.2v1.9h2.6v1.9h-2.6v11.5h-2.2v-11.5z"/><path d="m101 7.9v-1.9h2.3v-2c0-1.1.3-1.9 1-2.5.6-.6 1.6-.9 2.8-.9.2 0 .4 0 .7.1.3 0 .5.1.7.2v1.9c-.2-.1-.4-.1-.6-.1s-.4 0-.6 0c-.5 0-1 .1-1.2.3-.3.2-.4.6-.4 1.2v1.9h2.6v1.9h-2.5v11.5h-2.2v-11.5z"/><path d="m109.9 3.6v-2.7h2.2v2.7zm2.2 2.4v13.5h-2.2v-13.5z"/><path d="m123.3 8.4c-.5-.5-1.3-.7-2.2-.7-.8 0-1.5.2-2 .4-.5.3-1 .7-1.3 1.2s-.5 1.1-.7 1.7c-.1.6-.2 1.3-.2 2 0 .6.1 1.2.2 1.8.2.6.4 1.1.7 1.6.3.4.7.8 1.2 1.1s1.1.4 1.8.4c1.1 0 1.9-.3 2.6-.9.6-.6 1-1.4 1.1-2.4h2.3c-.3 1.7-.9 3-1.8 3.9s-2.4 1.4-4.1 1.4c-1 0-1.9-.2-2.7-.5s-1.5-.8-2-1.4-.9-1.3-1.2-2.2c-.3-.8-.4-1.8-.4-2.8s.1-1.9.4-2.8.7-1.7 1.2-2.3 1.2-1.2 2-1.5c.8-.4 1.7-.6 2.8-.6.8 0 1.5.1 2.1.3.7.2 1.3.5 1.8.9s.9.9 1.3 1.4c.3.6.5 1.3.6 2.1h-2.3c-.3-1-.7-1.7-1.2-2.1z"/><path d="m138.4 18.6c-1 .8-2.3 1.1-3.8 1.1-1.1 0-2-.2-2.8-.5-.8-.4-1.5-.8-2-1.5-.5-.6-1-1.4-1.2-2.2-.3-.9-.4-1.8-.4-2.8s.2-2 .5-2.8c.3-.9.8-1.6 1.3-2.2.6-.6 1.2-1.1 2-1.5s1.6-.5 2.5-.5c1.2 0 2.2.3 3 .7.8.5 1.4 1.1 1.9 1.9s.8 1.6 1 2.5.3 1.8.2 2.6h-10.1c0 .6.1 1.1.2 1.7.2.5.4 1 .8 1.4s.8.7 1.3 1 1.2.4 1.9.4c.9 0 1.7-.2 2.3-.6s1-1.1 1.2-2h2.2c-.3 1.3-.9 2.5-2 3.3zm-.5-8.7c-.2-.5-.5-.9-.8-1.2-.4-.4-.7-.6-1.2-.8-.4-.2-1-.3-1.5-.3-.6 0-1.1.1-1.6.3-.4.2-.9.5-1.2.8-.3.4-.6.8-.8 1.2s-.3 1-.4 1.5h7.7c.1-.5 0-1-.2-1.5z"/></g></g></g></svg>