<?xml version="1.0" encoding="UTF-8"?>
<svg width="195px" height="100px" viewBox="0 0 195 100" version="1.1" xmlns="http://www.w3.org/2000/svg" xmlns:xlink="http://www.w3.org/1999/xlink">
    <!-- Generator: Sketch 57 (83077) - https://sketch.com -->
    <title>Untitled 5</title>
    <desc>Created with Sketch.</desc>
    <g id="Page-1" stroke="none" stroke-width="1" fill="none" fill-rule="evenodd">
        <g id="Home_Office" transform="translate(21.000000, 17.000000)" fill-rule="nonzero">
            <rect id="Rectangle" fill="#7F3F98" x="0.5" y="0.4" width="2.2" height="65"></rect>
            <path d="M24.6,3.4 L24.6,4.7 C25.3,4.7 25.7,4.9 26,4.9 C25.8,4.1 25.3,3.6 24.6,3.4" id="Path" fill="#000000"></path>
            <path d="M23.8,2.5 L23.8,2.5 C23.8,2.9 23.7,3.2 23.6,3.4 C23.6,3.4 23.8,3.3 24.1,3.3 C24.3,3.3 24.6,3.4 24.6,3.4 C24.5,3.2 24.4,2.9 24.4,2.5 L24.4,2.5 C25.4,2.5 25.6,2.9 25.6,3.3 L25.8,3.3 L25.8,2.2 L25.8,1.1 L25.6,1.1 C25.6,1.5 25.3,1.9 24.4,1.9 C24.4,0.9 24.8,0.7 25.2,0.7 L25.2,0.5 L24.1,0.5 L23,0.5 L23,0.7 C23.4,0.7 23.8,1 23.8,1.9 C22.8,1.9 22.6,1.5 22.6,1.1 L22.4,1.1 L22.4,2.2 L22.4,3.3 L22.6,3.3 C22.5,2.9 22.8,2.5 23.8,2.5" id="Path" fill="#000000"></path>
            <path d="M23.5,3.4 C22.8,3.6 22.3,4.2 22.1,4.9 C22.4,4.8 22.8,4.7 23.5,4.7 L23.5,3.4 Z" id="Path" fill="#000000"></path>
            <path d="M24.7,35.6 C24.7,36 25.1,36.4 25.5,36.4 C25.9,36.4 26.3,36 26.3,35.6 C26.3,35.2 25.9,34.8 25.5,34.8 C25.1,34.9 24.7,35.3 24.7,35.6 M25.2,35.6 C25.2,35.4 25.4,35.2 25.6,35.2 C25.8,35.2 26,35.4 26,35.6 C26,35.8 25.8,36 25.6,36 C25.3,36.1 25.2,36 25.2,35.6" id="Shape" fill="#000000"></path>
            <path d="M23.2,24.9 C23.2,24.5 22.9,24.2 22.5,24.2 L22.4,24.2 L18.4,24.2 C18,24.2 17.8,24.5 17.8,24.8 C17.8,25.1 18,25.2 18.2,25.2 C18.5,25.2 18.6,25 18.6,24.7 C18.7,24.8 18.8,24.9 18.9,24.9 C18.8,25.2 18.8,25.5 18.7,25.9 C18.6,25.8 18.5,25.8 18.4,25.8 C18.2,25.8 18.1,25.9 18.1,26.1 C18.1,26.3 18.2,26.4 18.4,26.4 C18.5,26.4 18.6,26.3 18.7,26.3 C18.7,26.5 18.7,26.7 18.7,27 C18.6,27 18.6,26.9 18.5,26.9 C18.3,26.9 18.2,27 18.2,27.2 C18.2,27.4 18.3,27.5 18.5,27.5 C18.6,27.5 18.7,27.4 18.8,27.3 L18.8,27.4 C18.9,27.6 18.9,27.8 19,27.9 C19,27.9 18.9,27.9 18.8,27.9 C18.6,27.9 18.5,28 18.5,28.2 C18.5,28.4 18.6,28.5 18.8,28.5 C19,28.5 19.1,28.4 19.1,28.2 C19.2,28.4 19.3,28.6 19.5,28.8 C19.5,28.8 19.5,28.8 19.4,28.8 C19.2,28.8 19.1,28.9 19.1,29.1 C19.1,29.3 19.2,29.4 19.4,29.4 C19.6,29.4 19.7,29.3 19.7,29.1 L19.7,29.1 C20.2,29.6 20.8,30 21.5,30.3 L21.4,31.3 C21.4,31.3 21.7,31.4 22.1,31.6 C22.5,31.8 23,31.8 23,31.8 L23.2,24.9 Z M19.5,25.3 L19.5,25.3 L21.8,29.9 C19,28.6 19.3,26.3 19.5,25.3 L19.5,25.3 Z M21.9,29.6 L19.8,25.4 C19.9,25.4 20.1,25.4 20.2,25.4 L22,29 L21.9,29.6 Z M22,28.6 L20.4,25.4 C20.5,25.4 20.6,25.4 20.7,25.3 L22,28 L22,28.6 Z M22.1,27.6 L20.9,25.2 C21,25.2 21.1,25.1 21.2,25.1 L22.2,27.1 L22.1,27.6 Z M22.3,26.8 L21.4,25.1 C21.5,25 21.6,25 21.7,24.9 L22.4,26.2 L22.3,26.8 Z M22.5,25.1 L22.4,25.8 L21.9,24.7 C22,24.7 22,24.7 22.1,24.7 C22.3,24.6 22.5,24.9 22.5,25.1 L22.5,25.1 Z" id="Shape" fill="#000000"></path>
            <path d="M20.5,6.5 C20.5,6.2 20.7,6 21,6 C21.3,6 21.5,6.2 21.5,6.5 C21.5,6.8 21.3,7 21,7 C20.7,7 20.5,6.8 20.5,6.5" id="Path" fill="#000000"></path>
            <path d="M14.2,9.8 C14.2,9.5 14.4,9.3 14.7,9.3 C15,9.3 15.2,9.5 15.2,9.8 C15.2,10.1 15,10.3 14.7,10.3 C14.4,10.3 14.2,10.1 14.2,9.8" id="Path" fill="#000000"></path>
            <path d="M13.9,8.6 C13.9,8.3 14.1,8.1 14.4,8.1 C14.7,8.1 14.9,8.3 14.9,8.6 C14.9,8.9 14.7,9.1 14.4,9.1 C14.1,9.1 13.9,8.9 13.9,8.6" id="Path" fill="#000000"></path>
            <path d="M14,7.4 C14,7.1 14.2,6.9 14.5,6.9 C14.8,6.9 15,7.1 15,7.4 C15,7.7 14.8,7.9 14.5,7.9 C14.2,7.8 14,7.6 14,7.4" id="Path" fill="#000000"></path>
            <path d="M14.7,6.3 C14.7,6 14.9,5.8 15.2,5.8 C15.5,5.8 15.7,6 15.7,6.3 C15.7,6.6 15.5,6.8 15.2,6.8 C14.9,6.8 14.7,6.6 14.7,6.3" id="Path" fill="#000000"></path>
            <path d="M15.7,5.5 C15.7,5.2 15.9,5 16.2,5 C16.5,5 16.7,5.2 16.7,5.5 C16.7,5.8 16.5,6 16.2,6 C15.9,6.1 15.7,5.8 15.7,5.5" id="Path" fill="#000000"></path>
            <path d="M16.9,5.3 C16.9,5 17.1,4.8 17.4,4.8 C17.7,4.8 17.9,5 17.9,5.3 C17.9,5.6 17.7,5.8 17.4,5.8 C17.2,5.8 16.9,5.6 16.9,5.3" id="Path" fill="#000000"></path>
            <path d="M18.2,5.6 C18.2,5.3 18.4,5.1 18.7,5.1 C19,5.1 19.2,5.3 19.2,5.6 C19.2,5.9 19,6.1 18.7,6.1 C18.4,6.1 18.2,5.9 18.2,5.6" id="Path" fill="#000000"></path>
            <path d="M19.3,6.1 C19.3,5.8 19.5,5.6 19.8,5.6 C20.1,5.6 20.3,5.8 20.3,6.1 C20.3,6.4 20.1,6.6 19.8,6.6 C19.6,6.5 19.3,6.3 19.3,6.1" id="Path" fill="#000000"></path>
            <path d="M27.6,6.5 C27.6,6.2 27.4,6 27.1,6 C26.8,6 26.6,6.2 26.6,6.5 C26.6,6.8 26.8,7 27.1,7 C27.4,7 27.6,6.8 27.6,6.5" id="Path" fill="#000000"></path>
            <path d="M33.9,9.8 C33.9,9.5 33.7,9.3 33.4,9.3 C33.1,9.3 32.9,9.5 32.9,9.8 C32.9,10.1 33.1,10.3 33.4,10.3 C33.7,10.3 33.9,10.1 33.9,9.8" id="Path" fill="#000000"></path>
            <path d="M34.2,8.6 C34.2,8.3 34,8.1 33.7,8.1 C33.4,8.1 33.2,8.3 33.2,8.6 C33.2,8.9 33.4,9.1 33.7,9.1 C34,9.1 34.2,8.9 34.2,8.6" id="Path" fill="#000000"></path>
            <path d="M34.1,7.4 C34.1,7.1 33.9,6.9 33.6,6.9 C33.3,6.9 33.1,7.1 33.1,7.4 C33.1,7.7 33.3,7.9 33.6,7.9 C33.9,7.8 34.1,7.6 34.1,7.4" id="Path" fill="#000000"></path>
            <path d="M33.4,6.3 C33.4,6 33.2,5.8 32.9,5.8 C32.6,5.8 32.4,6 32.4,6.3 C32.4,6.6 32.6,6.8 32.9,6.8 C33.2,6.8 33.4,6.6 33.4,6.3" id="Path" fill="#000000"></path>
            <path d="M32.4,5.5 C32.4,5.2 32.2,5 31.9,5 C31.6,5 31.4,5.2 31.4,5.5 C31.4,5.8 31.6,6 31.9,6 C32.2,6.1 32.4,5.8 32.4,5.5" id="Path" fill="#000000"></path>
            <path d="M31.2,5.3 C31.2,5 31,4.8 30.7,4.8 C30.4,4.8 30.2,5 30.2,5.3 C30.2,5.6 30.4,5.8 30.7,5.8 C30.9,5.8 31.2,5.6 31.2,5.3" id="Path" fill="#000000"></path>
            <path d="M29.9,5.6 C29.9,5.3 29.7,5.1 29.4,5.1 C29.1,5.1 28.9,5.3 28.9,5.6 C28.9,5.9 29.1,6.1 29.4,6.1 C29.7,6.1 29.9,5.9 29.9,5.6" id="Path" fill="#000000"></path>
            <path d="M28.7,6.1 C28.7,5.8 28.5,5.6 28.2,5.6 C27.9,5.6 27.7,5.8 27.7,6.1 C27.7,6.4 27.9,6.6 28.2,6.6 C28.5,6.5 28.7,6.3 28.7,6.1" id="Path" fill="#000000"></path>
            <path d="M28.3,13.5 C28.3,13.2 28,13 27.8,13 C27.5,13 27.3,13.3 27.3,13.5 C27.3,13.8 27.6,14 27.8,14 C28,14 28.3,13.8 28.3,13.5" id="Path" fill="#000000"></path>
            <path d="M24.7,16.8 L24.7,23 L30.2,23 L30.2,16.8 L24.7,16.8 Z M30,22.8 L24.8,22.8 L24.8,17 L26.8,17 L27.6,17 L30,17 L30,22.8 L30,22.8 Z" id="Shape" fill="#000000"></path>
            <path d="M25.4,17.1 L25.4,17.1 L25.1,17.1 L25.1,22.2 L25.1,22.5 L25.4,22.5 L29.5,22.5 L29.8,22.5 L29.8,22.2 L29.8,17.4 L29.8,17.1 L29.5,17.1 L27.7,17.1 L26.8,17.1 L25.4,17.1 Z M29.5,17.3 L29.5,17.5 L29.7,17.5 L29.7,22.3 L29.5,22.3 L29.5,22.5 L25.4,22.5 L25.4,22.3 L25.2,22.3 L25.2,17.5 L25.4,17.5 L25.4,17.3 L29.5,17.3 Z" id="Shape" fill="#000000"></path>
            <path d="M29.3,18.6 L29,18.9 L29,18.9 L29,18.9 L29,18.9 L28.5,19.3 C28.3,19.4 28.3,19.7 28.4,19.8 L28.7,20.2 L28.7,20.3 C28.7,20.3 28.7,20.4 28.6,20.4 L28.5,20.4 C28.5,20.4 28.4,20.4 28.4,20.3 C28.4,20.3 28.1,19.9 28,19.7 L28,19.2 L28.7,18.6 L28.7,18.1 L28.5,17.9 L28.8,17.6 L27.6,17.6 L27.3,17.9 L27.3,18.2 L27.4,18.2 C27.5,18.2 27.7,18.3 27.7,18.5 C27.7,18.6 27.6,18.8 27.4,18.8 L27.3,18.8 L27.3,19.2 L26.9,19.2 L26.4,18.5 C26.5,18.4 26.5,18.3 26.5,18.2 C26.5,18 26.3,17.9 26.2,17.9 C26.1,17.9 26.1,17.9 26,18 L26,18.2 L26,18.5 L26,18.5 L26,18.5 L26.4,19.1 L26.6,19.4 L27,19.4 L27.1,19.4 L26.8,19.7 L26.2,19.7 C26.2,19.6 26,19.5 25.9,19.5 C25.8,19.5 25.6,19.6 25.6,19.7 L25.6,19.8 C25.6,19.8 25.6,20 25.7,20 L26.2,20 L27,20 L27.2,20.3 L26.7,20.3 L26.3,20.3 L26.3,20.3 L26.7,20.8 L26.9,21.1 L26.5,21.1 C26.5,21 26.3,20.9 26.2,20.9 C26.1,20.9 25.9,21 25.9,21.1 L25.9,21.2 C25.9,21.3 25.9,21.4 26,21.4 L26.5,21.4 L27.3,21.4 L27.7,21.4 L27.5,21.1 L27.3,20.8 L27.8,20.8 L28,21.1 L28.2,21.4 L28.9,21.4 L29,21.4 L29,21.8 L28.9,21.8 C28.9,21.7 28.7,21.6 28.6,21.6 C28.4,21.6 28.3,21.7 28.3,21.8 L28.3,21.9 C28.3,22 28.3,22.1 28.4,22.1 L29.4,22.1 L29.4,21.4 L29.4,21 L29.1,21 L28.8,21 L28.5,20.6 C28.6,20.7 28.6,20.7 28.7,20.7 C28.8,20.7 28.9,20.7 29,20.6 C29.1,20.5 29.1,20.4 29.2,20.3 C29.2,20.2 29.2,20.1 29.1,20 L28.8,19.6 C28.7,19.5 28.8,19.4 28.8,19.4 L28.9,19.3 C29,19.4 29.2,19.4 29.3,19.3 C29.4,19.2 29.4,19.2 29.4,19.1 L29.4,19.1 L29.4,19.1 L29.3,18.6 Z" id="Path" fill="#000000"></path>
            <polygon id="Path" fill="#000000" points="23.3 13.5 24 12.8 24.8 13.5 24 14.1"></polygon>
            <path d="M19.8,13.5 C19.8,13.2 20.1,13 20.3,13 C20.5,13 20.8,13.3 20.8,13.5 C20.8,13.8 20.5,14 20.3,14 C20.1,14 19.8,13.8 19.8,13.5" id="Path" fill="#000000"></path>
            <path d="M29.8,27.4 L29.8,27.4 L29.8,27.4 C29.8,27.3 29.8,27.3 29.8,27.2 C29.8,27 29.6,26.8 29.4,26.8 L28,26.8 C28,26.6 27.8,26.5 27.7,26.5 C27.6,26.5 27.5,26.5 27.5,26.6 L27.1,27 L27.5,27 L27.5,27 L28,27 L29.4,27 C29.5,27 29.6,27.1 29.6,27.2 C29.6,27.3 29.5,27.4 29.4,27.4 L29.4,27.4 L28.5,27.4 L28.5,27.4 L26.7,27.4 L26.7,27 L27.2,26.5 L25.3,26.5 L25.8,27 L25.8,27.7 L25,27.1 C25.1,27 25.1,26.9 25.1,26.8 C25.1,26.6 24.9,26.5 24.8,26.5 C24.7,26.5 24.6,26.5 24.6,26.6 L24.6,27.1 L24.6,27.1 L24.6,27.2 L25.8,28.2 L25.3,28.4 C25.3,28.3 25.1,28.2 25,28.2 C24.8,28.2 24.7,28.4 24.7,28.5 C24.7,28.6 24.7,28.7 24.8,28.7 L25.2,28.7 L25.5,28.7 L28.4,27.8 L28.4,28.2 L28,28.4 C28,28.2 27.8,28.1 27.7,28.1 C27.5,28.1 27.4,28.3 27.4,28.4 C27.4,28.5 27.4,28.6 27.5,28.6 L27.9,28.6 L28.3,28.6 L28.7,28.4 L29,28.3 L28.9,28 L28.9,27.9 L30,27.9 L30,28 C30,28.1 29.9,28.2 29.9,28.2 C29.8,28.1 29.7,28.1 29.6,28.1 C29.4,28.1 29.3,28.3 29.3,28.4 C29.3,28.5 29.3,28.6 29.4,28.6 L29.9,28.6 L30.1,28.6 C30.2,28.4 30.3,28.2 30.3,28.1 C30.4,27.8 30.5,27.6 30.5,27.5 C30.1,27.4 29.8,27.4 29.8,27.4 L29.8,27.4 Z M26.3,27.4 L26,27.1 L26.6,27.1 L26.3,27.4 Z" id="Shape" fill="#000000"></path>
            <path d="M29.8,25 C29.8,24.9 29.8,24.9 29.8,24.8 C29.8,24.6 29.6,24.4 29.4,24.4 L28,24.4 C28,24.2 27.8,24.1 27.7,24.1 C27.6,24.1 27.5,24.1 27.5,24.2 L27.1,24.6 L27.5,24.6 L27.5,24.6 L28,24.6 L29.5,24.6 C29.6,24.6 29.7,24.7 29.7,24.8 C29.7,24.9 29.6,25 29.5,25 L28.5,25 L26.7,25 L26.7,24.6 L27.2,24.1 L25.3,24.1 L25.8,24.6 L25.8,25.3 L25,24.7 C25.1,24.6 25.1,24.5 25.1,24.5 C25.1,24.3 24.9,24.2 24.8,24.2 C24.7,24.2 24.6,24.2 24.6,24.3 L24.6,24.8 L24.6,24.9 L25.7,25.8 L25.2,26 C25.2,25.9 25,25.8 24.9,25.8 C24.7,25.8 24.6,26 24.6,26.1 C24.6,26.2 24.6,26.3 24.7,26.3 L25.2,26.3 L25.4,26.3 L28.3,25.4 L28.3,25.9 L27.9,26 C27.9,25.9 27.7,25.8 27.6,25.8 C27.4,25.8 27.3,26 27.3,26.1 C27.3,26.2 27.3,26.3 27.4,26.3 L27.9,26.3 L28.1,26.3 L28.8,26.1 L29.2,26 L28.9,25.7 L28.7,25.5 L30,25.5 L30,25.9 C29.9,25.8 29.8,25.8 29.7,25.8 C29.5,25.8 29.4,26 29.4,26.1 C29.4,26.2 29.4,26.3 29.5,26.3 L30,26.3 L30.3,26.3 L30.3,25.5 L30.3,25.3 L30.3,25.1 L29.8,25 L29.8,25 Z M26.3,25.1 L26,24.8 L26.6,24.8 L26.3,25.1 Z" id="Shape" fill="#000000"></path>
            <path d="M28.6,29.1 L28,29.1 C28,28.9 27.8,28.8 27.7,28.8 C27.6,28.8 27.5,28.8 27.5,28.9 L27.1,29.3 L27.5,29.3 L27.5,29.3 L28,29.3 L28.6,29.3 C28.7,29.3 28.8,29.4 28.8,29.5 C28.8,29.6 28.7,29.7 28.6,29.7 L27.7,29.7 L26.7,29.7 L26.7,29.4 L27.2,28.9 L25.3,28.9 L25.8,29.4 L25.8,30.2 L25,29.5 C25.1,29.4 25.1,29.3 25.1,29.2 C25.1,29 24.9,28.9 24.8,28.9 C24.7,28.9 24.6,28.9 24.6,29 L24.6,29.4 L24.6,29.6 L25.8,30.7 L25.9,30.6 L25.1,31.5 C25,31.4 24.9,31.4 24.9,31.4 C24.7,31.4 24.6,31.6 24.6,31.8 C24.6,31.9 24.6,31.9 24.7,32 C24.8,32 25,32 25.2,31.9 L26.1,30.9 C26.2,30.9 26.3,30.8 26.5,30.8 L26.9,31.1 C26.8,31.1 26.8,31.2 26.7,31.2 C26.6,31.1 26.5,31.1 26.4,31.1 C26.2,31.2 26.1,31.4 26.2,31.5 C26.2,31.6 26.3,31.6 26.3,31.6 C26.3,31.6 26.4,31.6 26.6,31.5 C26.7,31.4 26.9,31.4 26.9,31.4 L26.9,31.4 C27.1,31.3 27.2,31.3 27.3,31.2 L27.3,30.8 L27.3,30.3 C27.5,30.2 27.7,30 27.9,29.9 L28.2,30.2 C28.1,30.3 28.1,30.3 28,30.4 C27.9,30.3 27.8,30.3 27.7,30.4 C27.6,30.4 27.6,30.5 27.5,30.6 L27.5,30.7 L27.5,30.8 C27.5,30.9 27.6,30.9 27.7,30.9 C27.9,30.8 28,30.7 28.1,30.6 C28.2,30.5 28.3,30.4 28.4,30.3 L28.5,30.2 L28.5,30 L28.5,29.9 L28.7,29.9 C28.9,29.9 29.1,29.7 29.1,29.5 C29,29.4 28.9,29.1 28.6,29.1 L28.6,29.1 Z M26.3,29.8 L26,29.5 L26.6,29.5 L26.3,29.8 Z" id="Shape" fill="#000000"></path>
            <path d="M23,22 C23,21.9 23,21.9 23,21.8 C23,21.6 22.8,21.4 22.6,21.4 L21.2,21.4 C21.2,21.2 21,21.1 20.9,21.1 C20.8,21.1 20.7,21.1 20.7,21.2 L20.3,21.6 L20.7,21.6 L20.7,21.6 L21.2,21.6 L22.7,21.6 C22.8,21.6 22.9,21.7 22.9,21.8 C22.9,21.9 22.8,22 22.7,22 L21.7,22 L21.7,22 L19.9,22 L19.9,21.6 L20.4,21.1 L18.5,21.1 L19,21.6 L19,22.3 L18.2,21.7 C18.3,21.6 18.3,21.5 18.3,21.5 C18.3,21.3 18.1,21.2 18,21.2 C17.9,21.2 17.8,21.2 17.8,21.3 L17.8,21.8 L17.8,21.9 L18.9,22.8 L18.4,23 C18.4,22.9 18.2,22.8 18.1,22.8 C17.9,22.8 17.8,23 17.8,23.1 C17.8,23.2 17.8,23.3 17.9,23.3 C17.9,23.3 18.3,23.3 18.4,23.3 L18.6,23.3 L21.5,22.4 L21.5,22.9 L21.1,23 C21.1,22.9 20.9,22.8 20.8,22.8 C20.6,22.8 20.5,23 20.5,23.1 C20.5,23.2 20.5,23.3 20.6,23.3 C20.6,23.3 21,23.3 21.1,23.3 L21.3,23.3 L22,23.1 L22.4,23 L22.1,22.7 L21.9,22.5 L23.2,22.5 L23.2,22.9 C23.1,22.8 23,22.8 22.9,22.8 C22.7,22.8 22.6,23 22.6,23.1 C22.6,23.2 22.6,23.3 22.7,23.3 L23.2,23.3 L23.5,23.3 L23.5,22.5 L23.5,22.1 L23,22 L23,22 Z M19.4,22 L19.1,21.7 L19.7,21.7 L19.4,22 Z" id="Shape" fill="#000000"></path>
            <path d="M23,19.6 C23,19.5 23,19.5 23,19.4 C23,19.2 22.8,19 22.6,19 L21.2,19 C21.2,18.8 21,18.7 20.9,18.7 C20.8,18.7 20.7,18.7 20.7,18.8 L20.3,19.2 L20.7,19.2 L20.7,19.2 L21.2,19.2 L22.7,19.2 C22.8,19.2 22.9,19.3 22.9,19.4 C22.9,19.5 22.8,19.6 22.7,19.6 L21.7,19.6 L19.9,19.6 L19.9,19.2 L20.4,18.7 L18.5,18.7 L19,19.2 L19,19.9 L18.2,19.3 C18.3,19.2 18.3,19.1 18.3,19.1 C18.3,18.9 18.1,18.8 18,18.8 C17.9,18.8 17.8,18.8 17.8,18.9 L17.8,19.4 L17.8,19.5 L18.9,20.4 L18.4,20.6 C18.4,20.5 18.2,20.4 18.1,20.4 C17.9,20.4 17.8,20.6 17.8,20.7 C17.8,20.8 17.8,20.9 17.9,20.9 L18.4,20.9 L18.6,20.9 L21.5,20 L21.5,20.5 L21.1,20.6 C21.1,20.5 20.9,20.4 20.8,20.4 C20.6,20.4 20.5,20.6 20.5,20.7 C20.5,20.8 20.5,20.9 20.6,20.9 L21.1,20.9 L21.3,20.9 L22,20.7 L22.4,20.6 L22.1,20.3 L21.9,20.1 L23.2,20.1 L23.2,20.5 C23.1,20.4 23,20.4 22.9,20.4 C22.7,20.4 22.6,20.6 22.6,20.7 C22.6,20.8 22.6,20.9 22.7,20.9 L23.2,20.9 L23.5,20.9 L23.5,20.1 L23.5,19.7 L23,19.6 C23,19.6 23,19.6 23,19.6 Z M19.4,19.6 L19.1,19.3 L19.7,19.3 L19.4,19.6 Z" id="Shape" fill="#000000"></path>
            <path d="M23,17.4 C23,17.3 23,17.3 23,17.2 C23,17 22.8,16.8 22.6,16.8 L21.2,16.8 C21.2,16.6 21,16.5 20.9,16.5 C20.8,16.5 20.7,16.5 20.7,16.6 L20.3,17 L20.7,17 L20.7,17 C20.7,17 21.1,17 21.2,17 L22.7,17 C22.8,17 22.9,17.1 22.9,17.2 C22.9,17.3 22.8,17.4 22.7,17.4 L22.7,17.4 L21.7,17.4 L21.7,17.4 L19.9,17.4 L19.9,17 L20.4,16.5 L18.5,16.5 L19,17 L19,17.7 L18.2,17.1 C18.3,17 18.3,16.9 18.3,16.9 C18.3,16.7 18.1,16.6 18,16.6 C17.9,16.6 17.8,16.6 17.8,16.7 L17.8,17.2 L17.8,17.3 L18.9,18.2 L18.4,18.4 C18.4,18.3 18.2,18.2 18.1,18.2 C17.9,18.2 17.8,18.4 17.8,18.5 C17.8,18.6 17.8,18.7 17.9,18.7 L18.4,18.7 L18.6,18.7 L21.5,17.8 L21.5,18.3 L21.1,18.4 C21.1,18.3 20.9,18.2 20.8,18.2 C20.6,18.2 20.5,18.4 20.5,18.5 C20.5,18.6 20.5,18.7 20.6,18.7 L21.1,18.7 L21.3,18.7 L22,18.5 L22.4,18.4 L22.1,18.1 L21.9,17.9 L23.2,17.9 L23.2,18.3 C23.1,18.2 23,18.2 22.9,18.2 C22.7,18.2 22.6,18.4 22.6,18.5 C22.6,18.6 22.6,18.7 22.7,18.7 L23.2,18.7 L23.5,18.7 L23.5,17.9 L23.5,17.5 L23,17.4 L23,17.4 Z M19.4,17.5 L19.1,17.2 L19.7,17.2 L19.4,17.5 Z" id="Shape" fill="#000000"></path>
            <path d="M33,23.1 L33,23.1 C33.2,23 33.3,22.8 33.3,22.6 C33.3,22.5 33.2,22.4 33.1,22.4 C33,22.3 32.9,22.3 32.8,22.4 C32.7,22.5 32.6,22.5 32.6,22.6 C32.5,22.7 32.5,22.8 32.6,22.9 C32.6,23.1 32.8,23.3 33,23.1" id="Path" fill="#000000"></path>
            <path d="M31.9,24.1 L32,24.5 L33.3,24.3 L34.6,24.9 L34.5,24.5 C34.5,24.5 33.7,24.1 33.6,24.1 C33.7,24 34.3,23.4 34.3,23.4 L34.2,23 L34.2,23 C34.2,23 33.2,23.9 33.2,24 C33.2,23.9 31.9,24.1 31.9,24.1" id="Path" fill="#000000"></path>
            <path d="M32.9,25.3 C32.9,25.4 32.9,25.5 33,25.6 C33.1,25.7 33.2,25.7 33.3,25.7 C33.4,25.7 33.5,25.7 33.6,25.6 C33.7,25.5 33.7,25.4 33.7,25.3 C33.7,25.2 33.7,25.1 33.6,25 C33.5,24.9 33.4,24.9 33.3,24.9 C33,24.9 32.9,25.1 32.9,25.3" id="Path" fill="#000000"></path>
            <path d="M32,26 L32,26.4 C32,26.4 33,26.5 33.1,26.6 L33.1,26.9 C33.1,27 33.1,27 33.1,27.1 C33.1,27.3 33.1,27.4 33.2,27.5 C33.3,27.6 33.5,27.7 33.7,27.8 C34.1,27.9 34.5,27.6 34.5,27.2 L34.6,26.5 L32,26 L32,26 Z M34,26.6 L34,27 C34,27.3 33.7,27.3 33.6,27.3 C33.4,27.3 33.3,27.1 33.3,27 C33.3,27 33.3,27 33.3,26.9 L33.3,26.6 C33.4,26.5 34,26.6 34,26.6 L34,26.6 Z" id="Shape" fill="#000000"></path>
            <path d="M31.8,27.4 L31.4,28.6 L31.8,28.7 L32.1,27.8 C32.1,27.8 32.7,28 32.8,28 C32.8,28.1 32.5,28.8 32.5,28.8 L32.9,28.9 L33.2,28.1 L33.8,28.3 C33.8,28.4 33.5,29.2 33.5,29.2 L33.9,29.3 L34.3,28.1 L31.8,27.4 L31.8,27.4 Z" id="Path" fill="#000000"></path>
            <path d="M31.3,28.8 L31.1,29.1 C31.1,29.1 32.5,30 32.6,30.1 C32.4,30.1 30.3,30.3 30.3,30.3 L30.1,30.6 L32.2,31.9 L32.4,31.6 C32.4,31.6 31,30.7 30.9,30.6 C31.1,30.6 33.2,30.4 33.2,30.4 L33.4,30.1 L31.3,28.8 L31.3,28.8 Z" id="Path" fill="#000000"></path>
            <path d="M30.5,31.8 C30.2,31.8 30,31.9 29.9,31.7 C29.8,31.6 29.8,31.4 29.9,31.3 C30.1,31.1 30.3,31.1 30.5,31.1 L30.6,31.1 L30.2,30.7 L30.2,30.7 C29.9,30.7 29.8,30.8 29.6,31 C29.5,31.1 29.4,31.3 29.4,31.4 C29.4,31.6 29.5,31.8 29.6,31.9 C29.9,32.2 30.3,32.2 30.6,32.1 C30.8,32 31,32 31.2,32.1 C31.2,32.2 31.3,32.2 31.3,32.3 C31.3,32.4 31.3,32.5 31.2,32.6 C31.1,32.7 30.9,32.8 30.7,32.8 L30.6,32.8 L31,33.2 L31,33.2 C31.2,33.2 31.4,33.1 31.5,33 C31.7,32.8 31.7,32.7 31.7,32.5 C31.7,32.3 31.6,32.1 31.5,32 C31.1,31.6 30.7,31.8 30.5,31.8" id="Path" fill="#000000"></path>
            <path d="M28.9,31.6 L27.8,32.3 L28,32.6 C28,32.6 28.7,32.1 28.8,32.1 C28.8,32.1 29.2,32.6 29.2,32.7 L28.5,33.2 L28.7,33.5 L29.4,33 C29.4,33 29.8,33.5 29.8,33.6 L29,34.1 L29.2,34.4 L30.3,33.7 L28.9,31.6 L28.9,31.6 Z" id="Path" fill="#000000"></path>
            <path d="M19.7,33.4 L18.7,32.8 L19.3,31.9 L19,31.7 L19,31.7 L17.7,33.8 L18,34 C18,34 18.5,33.1 18.6,33.1 L19.6,33.7 L19,34.6 L19.3,34.8 L20.6,32.7 L20.3,32.5 C20.3,32.5 19.7,33.3 19.7,33.4" id="Path" fill="#000000"></path>
            <path d="M18.4,31.5 C18.4,31.2 18.3,30.9 18.1,30.7 C17.6,30.1 16.8,30.2 16.3,30.6 C16,30.9 15.9,31.2 15.9,31.5 C15.9,31.8 16,32.1 16.2,32.4 C16.6,32.9 17.4,32.9 18,32.5 C18.2,32.1 18.4,31.9 18.4,31.5 M18.1,31.5 C18.1,31.7 18,32 17.8,32.1 C17.4,32.5 16.9,32.5 16.6,32.1 C16.4,31.9 16.4,31.7 16.4,31.5 C16.4,31.3 16.5,31.1 16.7,30.9 C16.9,30.7 17.1,30.6 17.4,30.6 C17.6,30.6 17.8,30.7 17.9,30.9 C18,31.1 18.1,31.3 18.1,31.5" id="Shape" fill="#000000"></path>
            <path d="M17.1,29.4 C17.1,29.4 15.6,30.1 15.4,30.2 C15.5,30.1 16.5,28.1 16.5,28.1 L16.4,27.8 L16.4,27.8 L14.2,28.9 L14.4,29.2 C14.4,29.2 15.9,28.5 16.1,28.4 C16,28.5 15,30.5 15,30.5 L15.1,30.8 L17.3,29.7 L17.1,29.4 Z" id="Path" fill="#000000"></path>
            <polygon id="Path" fill="#000000" points="16.3 27.1 16.3 27.1 13.9 27.8 14 28.1 16.4 27.6"></polygon>
            <path d="M15.2,26.4 C15.1,26.3 15,26.3 14.9,26.3 C14.8,26.3 14.7,26.4 14.6,26.5 C14.5,26.6 14.5,26.7 14.5,26.8 C14.5,26.9 14.6,27 14.7,27.1 C14.8,27.2 14.9,27.2 15,27.2 C15.2,27.2 15.4,27 15.3,26.8 C15.3,26.5 15.2,26.4 15.2,26.4" id="Path" fill="#000000"></path>
            <path d="M15,25.4 C15.2,25.2 15.3,25 15.5,25 C15.6,25 15.6,25 15.7,25.1 C15.8,25.2 15.8,25.3 15.8,25.4 C15.8,25.6 15.7,25.8 15.4,25.9 L15.3,26 L15.8,26 L15.8,26 C16,25.8 16,25.6 16,25.4 C16,25.2 15.9,25.1 15.8,25 C15.7,24.9 15.5,24.8 15.3,24.8 C14.9,24.8 14.7,25.1 14.5,25.4 C14.4,25.6 14.3,25.8 14.1,25.8 C14,25.8 14,25.8 13.9,25.7 C13.8,25.6 13.8,25.5 13.8,25.4 C13.8,25.2 13.9,25 14.1,24.9 L14.2,24.9 L13.7,24.9 L13.7,24.9 C13.6,25.1 13.5,25.2 13.5,25.4 C13.5,25.6 13.6,25.8 13.7,25.9 C13.8,26 14,26.1 14.2,26.1 C14.6,26 14.8,25.6 15,25.4" id="Path" fill="#000000"></path>
            <path d="M14.8,24.4 C15.2,24.5 15.5,24.4 15.8,24.3 C16.1,24.1 16.2,23.9 16.3,23.6 C16.4,23.3 16.3,23 16.2,22.7 C16,22.4 15.7,22.2 15.4,22.1 C14.7,21.9 14,22.3 13.9,23 C13.9,23.1 13.9,23.2 13.9,23.3 C13.9,23.5 14,23.7 14.1,23.9 C14.2,24.1 14.5,24.3 14.8,24.4 M14.3,23 C14.4,22.8 14.5,22.6 14.7,22.5 C14.9,22.4 15.1,22.3 15.4,22.4 C15.7,22.5 15.9,22.6 16,22.8 C16.1,23 16.1,23.2 16.1,23.4 C16,23.8 15.5,24.1 15,24 C14.4,23.9 14.1,23.5 14.3,23" id="Shape" fill="#000000"></path>
            <path d="M35.5,25.4 C35.5,22.3 34.3,19.5 32.2,17.3 C31.9,17 31.7,16.8 31.4,16.6 L31.4,16.2 C31.8,16.2 32.2,15.8 32.2,15.3 C32.2,14.8 31.8,14.4 31.3,14.4 C31.3,14.4 31.3,14.4 31.2,14.4 L32,14 L31.7,13.3 L32.9,10.4 L32.4,10.2 L31.1,13.2 L30.4,13.5 L30.8,14.5 L27.1,14.5 L20.6,14.5 L16.9,14.5 L17.3,13.5 L16.6,13.2 L15.3,10.2 L14.8,10.4 L16,13.3 L15.7,14 L16.5,14.4 L16.5,14.4 C16,14.4 15.6,14.8 15.6,15.3 C15.6,15.7 16,16.1 16.4,16.2 L16.4,16.6 C16.1,16.8 15.9,17.1 15.6,17.3 C13.4,19.5 12.3,22.3 12.3,25.4 C12.3,27.8 13,30 14.4,32 C15.7,33.9 17.6,35.3 19.7,36.1 C19.7,36.1 19.8,36.1 20,36.2 C20,36.5 20.2,36.8 20.5,36.9 C20.8,37 21.2,36.9 21.4,36.7 L21.4,36.7 L21.4,39.9 C21.4,41.1 22.4,42.1 23.7,42.1 C25,42.1 26,41.1 26,39.9 L26,37.7 L31.6,35 C31.8,34.9 32,34.8 32.1,34.7 C32.5,34.3 32.6,33.6 32.3,32.8 C32.8,32.2 33.3,31.6 33.6,31 C34.9,29.4 35.5,27.4 35.5,25.4 L35.5,25.4 Z M29.5,15 L31.2,15.4 L29.5,15.8 L29.5,15 Z M24.2,32.4 L24.2,23.8 L30.8,23.8 L30.8,25.4 C30.8,27 30.5,28.1 30.1,28.9 C29.7,29.5 29.3,30 28.8,30.5 L28.7,30.6 C27.5,31.6 25.9,32.3 24.2,32.4 L24.2,32.4 Z M26.2,32.6 C26.1,32.9 26,33.2 25.9,33.6 C25.3,33.4 24.7,33.2 24.1,32.9 L24.1,32.9 C24.8,33 25.5,32.8 26.2,32.6 L26.2,32.6 Z M24.2,23.5 L24.2,16.2 L29.7,16.2 L30.7,16.2 L30.7,21.9 L30.7,23.5 L24.2,23.5 Z M26.5,15 L28.2,15.4 L26.5,15.8 L26.5,15 Z M23.4,15 L25.1,15.4 L23.4,15.8 L23.4,15 Z M20.4,15 L22.1,15.4 L20.4,15.8 L20.4,15 Z M17.4,15 L19.1,15.4 L17.4,15.8 L17.4,15 Z M17.4,21.9 L17.4,16.2 L18.4,16.2 L23.9,16.2 L23.9,23.5 L17.3,23.5 L17.3,21.9 L17.4,21.9 Z M17.4,23.8 L24,23.8 L24,32.4 C22.7,32.4 21.4,32 20.2,31.2 L20.2,31.2 L20.1,31.1 L20.1,31.1 C20.1,31.1 20,31.1 20,31 C20,30.9 19.9,30.9 19.9,30.9 L19.9,30.9 C19.2,30.4 18.6,29.7 18.1,28.9 C17.7,28.1 17.4,27 17.4,25.5 L17.4,23.8 Z M20.5,35.6 C20.4,35.6 20.3,35.5 20.2,35.5 C18.2,34.7 16.4,33.4 15.2,31.6 C13.9,29.8 13.2,27.6 13.2,25.4 C13.2,22.5 14.3,19.8 16.4,17.7 C16.5,17.6 16.7,17.4 16.8,17.3 L16.8,20.3 C16.4,20 15.8,19.7 15.8,19.6 L16.2,19 L15.9,18.8 L15.9,18.8 L14.9,20.3 L15.2,20.5 L15.6,19.9 C15.6,19.9 16.3,20.3 16.8,20.7 L16.8,21.8 L14.7,20.8 L14.7,20.8 L14.5,21.1 L16.8,22.2 L16.8,23.5 C16.6,24.1 16.5,24.7 16.5,25.4 C16.5,26.8 16.9,28 17.5,29.2 C17.9,30 18.5,30.5 19,31 C19.2,31.2 19.4,31.4 19.7,31.6 C19.7,31.6 19.7,31.6 19.8,31.6 C19.8,31.6 19.9,31.6 19.9,31.7 C19.9,31.8 20,31.7 20,31.8 L20,31.8 C20.2,31.9 20.4,32.1 20.6,32.2 L20.6,32.2 C20.9,32.3 21.3,32.5 21.7,32.7 L21.2,33.9 L21,33.8 C20.9,33.7 20.7,33.8 20.6,33.9 C20.5,34 20.6,34.2 20.7,34.3 L20.9,34.4 L20.5,35.6 Z M25.8,40 C25.8,40.2 25.7,40.4 25.6,40.6 C25.5,40.8 25.3,40.9 25.2,40.9 C25,40.9 24.8,40.8 24.7,40.5 C24.7,40.5 24.7,40.4 24.6,40.2 C24.7,40.2 24.7,40.2 24.8,40.2 C25.1,40.2 25.3,40 25.3,39.7 C25.3,39.4 25.1,39.2 24.8,39.2 C24.6,39.2 24.5,39.3 24.4,39.4 C24.2,38.8 24.1,38.1 24.1,38.1 L24,38.1 L23.9,38.1 C23.9,38.1 23.7,38.8 23.6,39.4 C23.5,39.3 23.4,39.2 23.2,39.2 C22.9,39.2 22.7,39.4 22.7,39.7 C22.7,40 22.9,40.2 23.2,40.2 C23.3,40.2 23.3,40.2 23.4,40.2 C23.4,40.3 23.3,40.5 23.3,40.5 C23.2,40.7 23,40.9 22.8,40.9 C22.6,40.9 22.4,40.8 22.4,40.6 C22.3,40.4 22.3,40.2 22.3,40 L22.3,36.9 C23.3,37.2 24.6,37.6 25.8,37.9 L25.8,40 L25.8,40 Z M26,37.3 C24.2,36.9 22.1,36.2 20.9,35.8 C21,35.5 21.2,35 21.4,34.5 L21.7,34.6 C21.7,34.6 21.7,34.6 21.7,34.7 C21.7,35.1 22.1,35.5 22.5,35.5 C22.9,35.5 23.3,35.1 23.3,34.7 C23.3,34.3 22.9,33.9 22.5,33.9 C22.2,33.9 22.1,34 21.9,34.2 L21.5,34 C21.7,33.5 21.9,33.1 22,32.8 C23.2,33.3 24.8,33.9 26.3,34.4 C27.9,34.9 29.2,35.2 30.1,35.3 C28.6,36.1 26.1,37.1 26,37.3 L26,37.3 Z M32,34.4 C31.8,34.6 31.5,34.7 30.7,34.7 C31.2,34.3 31.7,33.9 32.2,33.4 C32.3,33.9 32.3,34.1 32,34.4 L32,34.4 Z M29.8,34.6 C29,34.5 28,34.2 26.6,33.8 C26.5,33.8 26.5,33.8 26.4,33.7 C26.5,32.9 26.8,32.4 27.2,32.1 C27.9,31.8 28.5,31.3 29.1,30.8 C29.6,30.4 30.1,29.8 30.5,29 C31.1,27.9 31.5,26.6 31.5,25.2 C31.5,24.6 31.4,23.9 31.2,23.3 L31.2,22.1 L31.6,23 L32,22.9 L31.6,22 C31.7,22 33.6,21.2 33.6,21.2 L33.5,20.8 L33.5,20.8 L31.4,21.7 L31.4,21.5 L32.8,19.5 L32.7,19.3 L32.7,19.3 L31.4,19.6 L31.4,17.2 C31.5,17.3 31.7,17.4 31.8,17.6 C33.8,19.6 35,22.4 35,25.3 C35,27.2 34.5,29.1 33.6,30.7 C32.6,32.4 31.3,33.6 29.8,34.6 L29.8,34.6 Z M31.5,21 C31.5,21 31.4,21.1 31.4,21.2 L31.4,20.8 C31.4,20.9 31.5,21 31.5,21 L31.5,21 Z M31.4,20.1 C31.5,20.1 32.1,19.9 32.2,19.9 C32.1,20 31.8,20.5 31.7,20.6 C31.7,20.6 31.4,20.1 31.4,20.1 L31.4,20.1 Z" id="Shape" fill="#000000"></path>
            <path d="M32.6,7.1 C32.2,6.4 31.4,6.1 30.9,6.1 C30.1,6.1 29.3,6.4 28.6,6.7 C27.7,7.1 26.8,7.4 26,7.3 C26.1,7 26.2,6.7 26.4,6.4 L25.9,6.1 C26,5.9 26.1,5.7 26.1,5.4 C26,5.4 25.3,5.1 24.1,5.1 C22.9,5.1 22.3,5.4 22.2,5.4 C22.2,5.7 22.3,5.9 22.4,6.1 L21.9,6.4 C22.1,6.7 22.2,7 22.3,7.3 C21.4,7.4 20.5,7 19.7,6.7 C18.9,6.4 18.1,6.1 17.4,6.1 C16.9,6.1 16.1,6.4 15.7,7.1 C15.3,7.6 15.1,8.7 15.8,10.3 L15.8,10.3 L15.8,10.3 L16.9,9.8 L17,10 C16.6,10.2 16.3,10.6 16.7,11.5 C17.7,11.1 17.7,10.5 17.5,10.2 L17.7,10.1 L18.2,11.2 L18.7,12.3 L18.5,12.4 C18.3,12 17.9,11.7 17,12.1 C17.4,13.1 18.1,13.4 18.7,13.4 C19.7,13.4 20.4,12.8 20.3,12.2 C20.2,11.8 19.8,11.6 19.7,11.6 C19.5,11.6 19.4,11.9 19.4,12 L19.4,12.1 L19.4,12.1 C19.1,12.1 18.9,11.9 18.9,11.6 C18.8,11.3 19.1,11 19.4,10.9 C19.6,10.9 19.8,10.9 19.9,11.1 L20,11 C19.8,10.9 19.7,10.7 19.6,10.5 C19.5,10 20.1,9.5 20.1,9.5 L20.1,9.5 L20.1,9.5 C20.1,9.5 20.8,9.8 20.9,10.3 C20.9,10.5 20.9,10.7 20.7,10.9 L20.8,11 C20.9,10.8 21,10.7 21.2,10.6 C21.5,10.5 21.8,10.8 21.9,11.1 C22,11.4 21.8,11.6 21.6,11.7 L21.6,11.7 L21.6,11.6 C21.6,11.4 21.4,11.3 21.2,11.3 C21,11.3 20.7,11.6 20.8,12.1 C21,12.9 21.6,13.4 22.4,13.4 C23.2,13.4 24,12.8 24,11.8 C22.9,11.8 22.6,12.3 22.6,12.8 L22.4,12.8 L22.4,11.5 L22.4,10.2 L22.6,10.2 C22.6,10.6 22.9,11.2 24,11.2 C24,10.1 23.5,9.8 23,9.8 L23,9.6 L24.1,9.6 L24.5,9.6 L25.6,9.6 L25.6,9.8 C25.2,9.8 24.6,10.1 24.6,11.2 C25.7,11.2 26,10.7 26,10.2 L26.2,10.2 L26.2,11.5 L26.2,12.8 L26,12.8 C26,12.4 25.7,11.8 24.6,11.8 C24.6,12.8 25.4,13.4 26.2,13.4 C27,13.4 27.6,12.9 27.8,12.1 C27.9,11.7 27.6,11.3 27.4,11.3 C27.2,11.3 27,11.4 27,11.6 L27,11.7 L27,11.7 C26.8,11.6 26.6,11.3 26.7,11.1 C26.8,10.8 27.1,10.6 27.4,10.6 C27.6,10.6 27.8,10.8 27.8,11 L27.9,10.9 C27.8,10.7 27.7,10.5 27.7,10.3 C27.8,9.8 28.5,9.5 28.5,9.5 C28.5,9.5 29.1,10 29,10.5 C29,10.7 28.8,10.9 28.6,11 L28.7,11.1 C28.8,11 29,10.9 29.2,10.9 C29.5,11 29.7,11.3 29.7,11.6 C29.6,11.9 29.4,12.1 29.2,12.1 L29.2,12.1 L29.2,12 C29.2,11.8 29.1,11.6 28.9,11.6 C28.7,11.6 28.3,11.7 28.3,12.2 C28.2,12.8 28.9,13.4 29.9,13.4 C30.5,13.4 31.2,13 31.6,12.1 C30.6,11.7 30.2,12 30.1,12.4 L29.9,12.3 L30.4,11.2 L30.9,10.1 L31.1,10.2 C30.9,10.6 31,11.1 31.9,11.5 C32.3,10.5 32,10.1 31.6,10 L31.7,9.8 L32.8,10.3 L32.8,10.3 L32.8,10.3 C33.2,8.6 32.9,7.6 32.6,7.1 M22.4,8.5 C21.9,8.5 21.4,8.8 21.2,9.2 C20.9,8.7 20.3,8.4 19.7,8.5 C19.3,8.6 18.9,8.9 18.7,9.3 C18.4,8.9 18,8.6 17.5,8.6 C16.9,8.6 16.3,9 16.1,9.6 C15.7,8.7 15.7,7.9 16.1,7.4 C16.5,6.9 17.1,6.7 17.3,6.7 C18,6.7 18.7,7 19.4,7.3 C20.4,7.7 21.3,8.1 22.4,7.9 C22.4,8.1 22.4,8.1 22.4,8.5 L22.4,8.5 M24,5.5 C24.3,5.5 24.5,5.7 24.6,6 C24.4,5.9 24.2,5.8 24,5.8 C23.8,5.8 23.6,5.9 23.4,6 C23.5,5.6 23.8,5.5 24,5.5 M24,6.1 C24.3,6.1 24.5,6.3 24.6,6.6 C24.4,6.5 24.2,6.4 24,6.4 C23.8,6.4 23.6,6.5 23.4,6.6 C23.5,6.3 23.8,6.1 24,6.1 M24,9.3 C23.7,9.3 23.4,9 23.4,8.7 C23.4,8.4 23.7,8.1 24,8.1 C24.3,8.1 24.6,8.4 24.6,8.7 C24.6,9 24.4,9.3 24,9.3 M24.6,8 C24.4,7.9 24.2,7.8 24.1,7.8 C23.9,7.8 23.7,7.9 23.6,8 C23.6,7.9 23.6,7.9 23.6,7.8 C23.6,7.5 23.9,7.2 24.2,7.2 C24.5,7.2 24.8,7.5 24.8,7.8 C24.6,7.9 24.6,8 24.6,8 M24.6,7.1 C24.4,7 24.2,6.9 24,6.9 C23.8,6.9 23.6,7 23.4,7.1 L23.4,7.1 C23.4,6.8 23.7,6.5 24,6.5 C24.3,6.5 24.6,6.9 24.6,7.1 L24.6,7.1 M32.1,9.6 C31.9,9 31.4,8.6 30.7,8.6 C30.2,8.6 29.7,8.9 29.5,9.3 C29.3,8.9 29,8.6 28.5,8.5 C27.9,8.4 27.3,8.7 27,9.2 C26.7,8.8 26.3,8.5 25.8,8.5 L25.7,8.5 C25.7,8.3 25.8,8.1 25.8,8 C26.9,8.2 27.9,7.7 28.8,7.4 C29.5,7.1 30.2,6.8 30.9,6.8 C31.2,6.8 31.8,7 32.1,7.5 C32.4,7.9 32.4,8.6 32.1,9.6" id="Shape" fill="#000000"></path>
            <polygon id="Path" fill="#000000" points="27.5 16.6 27.5 16.6 27.2 16.6 27.4 16.9 27.5 16.9 27.5 16.9 27.5 16.9 27.5 16.9 27.5 16.9 27.6 16.9 27.7 16.6"></polygon>
            <polyline id="Path" fill="#000000" points="24.8 16.8 24.8 16.9 24.8 16.9 24.6 16.9 24.6 16.8 24.4 16.5 24.4 16.4 24.7 16.6 24.9 16.6 24.9 16.8 24.8 16.8"></polyline>
            <path d="M25,16.8 C24.9,16.8 24.9,16.6 25,16.8 C24.9,16.7 25,16.7 25,16.8 C25,16.7 25,16.6 25,16.8 L25,16.8 C25.1,16.7 25.1,16.7 25.1,16.6 C25.1,16.5 25,16.4 24.9,16.4 C24.8,16.4 24.7,16.5 24.7,16.6 C24.7,16.7 24.8,16.8 25,16.8 L25,16.8 L25,16.8" id="Path" fill="#000000"></path>
            <path d="M24.7,17 C24.7,17 24.7,16.9 24.7,17 C24.6,16.9 24.6,17 24.6,17 C24.6,17 24.6,17 24.7,17 L24.7,17 C24.6,17.1 24.6,17.1 24.5,17.1 C24.4,17.1 24.3,17 24.3,16.9 C24.3,16.8 24.4,16.7 24.5,16.7 C24.7,16.8 24.7,16.9 24.7,17 L24.7,17 L24.7,17" id="Path" fill="#000000"></path>
            <polyline id="Path" fill="#000000" points="24.8 22.9 24.8 22.9 24.8 22.8 24.6 22.8 24.6 22.9 24.4 23.1 24.4 23.3 24.7 23.1 24.9 23.1 24.9 22.9 24.8 22.9"></polyline>
            <path d="M25,22.9 C24.9,22.9 24.9,23 25,22.9 C24.9,22.9 25,22.9 25,22.9 C25,22.9 25,23.1 25,22.9 L25,22.9 C25.1,23 25.1,23 25.1,23.1 C25.1,23.2 25,23.3 24.9,23.3 C24.8,23.3 24.7,23.2 24.7,23.1 C24.7,23 24.8,22.9 25,22.9 L25,22.9 L25,22.9" id="Path" fill="#000000"></path>
            <path d="M24.7,22.6 C24.7,22.6 24.7,22.8 24.7,22.6 C24.6,22.7 24.6,22.6 24.6,22.6 C24.6,22.6 24.6,22.6 24.7,22.6 L24.7,22.6 C24.6,22.5 24.6,22.5 24.5,22.5 C24.4,22.5 24.3,22.6 24.3,22.7 C24.3,22.8 24.4,22.9 24.5,22.9 C24.7,22.9 24.7,22.9 24.7,22.6 L24.7,22.6 L24.7,22.6" id="Path" fill="#000000"></path>
            <polyline id="Path" fill="#000000" points="30.1 22.9 30.1 22.9 30.1 22.8 30.4 22.8 30.4 22.9 30.5 23.1 30.5 23.3 30.2 23.1 30 23.1 30 22.9 30.1 22.9"></polyline>
            <path d="M29.9,22.9 C30,22.9 30,23 29.9,22.9 C30,22.9 29.9,22.9 29.9,22.9 C29.9,22.9 29.9,23.1 29.9,22.9 L29.9,22.9 C29.8,23 29.8,23 29.8,23.1 C29.8,23.2 29.9,23.3 30,23.3 C30.1,23.3 30.2,23.2 30.2,23.1 C30.2,23 30.1,22.9 29.9,22.9 L29.9,22.9 L29.9,22.9" id="Path" fill="#000000"></path>
            <path d="M30.2,22.6 C30.2,22.6 30.2,22.8 30.2,22.6 C30.3,22.7 30.3,22.6 30.3,22.6 C30.3,22.6 30.3,22.6 30.2,22.6 L30.2,22.6 C30.3,22.5 30.3,22.5 30.4,22.5 C30.5,22.5 30.6,22.6 30.6,22.7 C30.6,22.8 30.5,22.9 30.4,22.9 C30.3,22.9 30.2,22.9 30.2,22.6 L30.2,22.6 L30.2,22.6" id="Path" fill="#000000"></path>
            <polyline id="Path" fill="#000000" points="30.1 16.8 30.1 16.9 30.1 16.9 30.4 16.9 30.4 16.8 30.5 16.5 30.5 16.4 30.2 16.6 30 16.6 30 16.8 30.1 16.8"></polyline>
            <path d="M29.9,16.8 C30,16.8 30,16.6 29.9,16.8 C30,16.7 29.9,16.7 29.9,16.8 C29.9,16.7 29.9,16.6 29.9,16.8 L29.9,16.8 C29.8,16.7 29.8,16.7 29.8,16.6 C29.8,16.5 29.9,16.4 30,16.4 C30.1,16.4 30.2,16.5 30.2,16.6 C30.2,16.7 30.1,16.8 29.9,16.8 L29.9,16.8 L29.9,16.8" id="Path" fill="#000000"></path>
            <path d="M30.2,17 C30.2,17 30.2,16.9 30.2,17 C30.3,16.9 30.3,17 30.3,17 C30.3,17 30.3,17 30.2,17 L30.2,17 C30.3,17.1 30.3,17.1 30.4,17.1 C30.5,17.1 30.6,17 30.6,16.9 C30.6,16.8 30.5,16.7 30.4,16.7 C30.3,16.8 30.2,16.9 30.2,17 L30.2,17 L30.2,17 Z" id="Path" fill="#000000"></path>
            <rect id="Rectangle" fill="#000000" x="27.2" y="17.1" width="1" height="1"></rect>
            <polygon id="Path" fill="#000000" points="27.5 17.6 27.4 17.6 27.3 17.4 27.6 17.4"></polygon>
            <path d="M27.8,17.4 L27.8,17.4 C27.7,17.4 27.7,17.4 27.8,17.4 C27.7,17.3 27.7,17.3 27.8,17.4 L27.8,17.4 C27.6,17.3 27.6,17.4 27.6,17.4 L27.7,17.5 C27.8,17.6 27.8,17.5 27.8,17.4 L27.8,17.4 L27.8,17.4 Z" id="Path" fill="#000000"></path>
            <path d="M27.1,17.4 L27.1,17.4 C27.2,17.4 27.2,17.4 27.1,17.4 C27.2,17.3 27.2,17.3 27.1,17.4 L27.1,17.4 C27.3,17.3 27.3,17.4 27.3,17.4 L27.2,17.5 C27.2,17.4 27.1,17.5 27.1,17.4 L27.1,17.4 L27.1,17.4 Z" id="Path" fill="#000000"></path>
            <polygon id="Path" fill="#000000" points="27.5 23.1 27.5 23.1 27.7 23.1 27.6 22.9 27.5 22.8 27.4 22.8 27.5 22.8 27.4 22.8 27.4 22.8 27.4 22.9 27.2 23.1"></polygon>
            <rect id="Rectangle" fill="#000000" x="27.2" y="22.3" width="1" height="1"></rect>
            <polygon id="Path" fill="#000000" points="27.4 22.1 27.5 22.1 27.6 22.3 27.3 22.3"></polygon>
            <path d="M27.1,22.3 L27.1,22.3 C27.2,22.3 27.2,22.3 27.1,22.3 C27.2,22.4 27.2,22.4 27.1,22.3 L27.1,22.3 C27.3,22.4 27.3,22.3 27.3,22.3 L27.2,22.2 C27.2,22.2 27.1,22.1 27.1,22.3 L27.1,22.3 L27.1,22.3 Z" id="Path" fill="#000000"></path>
            <path d="M27.8,22.3 L27.8,22.3 C27.7,22.3 27.7,22.3 27.8,22.3 C27.7,22.4 27.7,22.4 27.8,22.3 L27.8,22.3 C27.6,22.4 27.6,22.3 27.6,22.3 L27.7,22.2 C27.8,22.1 27.8,22.1 27.8,22.3 L27.8,22.3 L27.8,22.3 Z" id="Path" fill="#000000"></path>
            <polygon id="Path" fill="#000000" points="30.4 19.8 30.4 19.8 30.4 19.6 30.1 19.8 30.1 19.8 30.1 19.9 30 19.8 30.1 19.9 30.1 19.9 30.1 19.9 30.4 20.1"></polygon>
            <rect id="Rectangle" fill="#000000" x="29.5" y="19.6" width="1" height="1"></rect>
            <polygon id="Path" fill="#000000" points="29.3 19.9 29.3 19.8 29.5 19.6 29.5 20"></polygon>
            <path d="M29.6,20.1 L29.6,20.1 C29.6,20.1 29.6,20.1 29.6,20.1 C29.7,20.1 29.7,20.1 29.6,20.1 L29.6,20.1 C29.7,19.9 29.6,19.9 29.6,19.9 C29.5,19.9 29.5,20 29.5,20 C29.5,20 29.5,20.1 29.6,20.1 L29.6,20.1 L29.6,20.1 Z" id="Path" fill="#000000"></path>
            <path d="M29.6,19.5 L29.6,19.5 C29.6,19.6 29.6,19.6 29.6,19.5 C29.7,19.6 29.7,19.6 29.6,19.5 L29.6,19.5 C29.7,19.7 29.6,19.7 29.6,19.7 C29.5,19.7 29.5,19.6 29.5,19.6 C29.5,19.6 29.5,19.5 29.6,19.5 L29.6,19.5 L29.6,19.5 Z" id="Path" fill="#000000"></path>
            <polygon id="Path" fill="#000000" points="24.6 19.8 24.6 19.8 24.6 19.6 24.8 19.8 24.8 19.8 24.8 19.9 24.9 19.8 24.8 19.9 24.8 19.9 24.8 19.9 24.6 20.1"></polygon>
            <rect id="Rectangle" fill="#000000" x="25.2" y="19.6" width="1" height="1"></rect>
            <polygon id="Path" fill="#000000" points="25.6 19.9 25.6 19.8 25.4 19.6 25.4 20"></polygon>
            <path d="M25.4,20.1 L25.4,20.1 C25.4,20.1 25.4,20.1 25.4,20.1 C25.3,20.1 25.3,20.1 25.4,20.1 L25.4,20.1 C25.3,19.9 25.4,19.9 25.4,19.9 L25.5,20 L25.4,20.1 L25.4,20.1 L25.4,20.1 Z" id="Path" fill="#000000"></path>
            <path d="M25.4,19.5 L25.4,19.5 C25.4,19.6 25.4,19.6 25.4,19.5 C25.3,19.6 25.3,19.6 25.4,19.5 L25.4,19.5 C25.3,19.7 25.4,19.7 25.4,19.7 L25.5,19.6 L25.4,19.5 L25.4,19.5 L25.4,19.5 Z" id="Path" fill="#000000"></path>
            <g id="Group" transform="translate(13.000000, 46.000000)" fill="#000000">
                <polygon id="Path" points="3.1 0.9 3.1 8.9 12.9 8.9 12.9 0.9 15.4 0.9 15.4 19.5 12.9 19.5 12.9 11 3.1 11 3.1 19.5 0.6 19.5 0.6 0.9"></polygon>
                <path d="M18.4,10 C18.7,9.1 19.1,8.4 19.6,7.8 C20.1,7.2 20.8,6.7 21.7,6.3 C22.5,5.9 23.5,5.8 24.5,5.8 C25.6,5.8 26.5,6 27.3,6.3 C28.1,6.7 28.8,7.2 29.3,7.8 C29.8,8.4 30.3,9.2 30.5,10 C30.8,10.9 30.9,11.8 30.9,12.8 C30.9,13.8 30.8,14.7 30.5,15.6 C30.2,16.5 29.8,17.2 29.3,17.8 C28.8,18.4 28.1,18.9 27.3,19.3 C26.5,19.7 25.5,19.8 24.5,19.8 C23.4,19.8 22.5,19.6 21.7,19.3 C20.9,18.9 20.2,18.4 19.6,17.8 C19.1,17.2 18.6,16.4 18.4,15.6 C18.1,14.7 18,13.8 18,12.8 C18,11.8 18.2,10.8 18.4,10 Z M20.7,14.9 C20.9,15.5 21.2,16.1 21.6,16.5 C22,16.9 22.4,17.3 22.9,17.5 C23.4,17.7 24,17.9 24.5,17.9 C25.1,17.9 25.6,17.8 26.1,17.5 C26.6,17.3 27.1,17 27.4,16.5 C27.8,16.1 28.1,15.5 28.3,14.9 C28.5,14.3 28.6,13.5 28.6,12.7 C28.6,11.9 28.5,11.2 28.3,10.5 C28.1,9.9 27.8,9.3 27.4,8.9 C27,8.5 26.6,8.1 26.1,7.9 C25.6,7.7 25,7.5 24.5,7.5 C23.9,7.5 23.4,7.6 22.9,7.9 C22.4,8.1 21.9,8.4 21.6,8.9 C21.2,9.3 20.9,9.9 20.7,10.5 C20.5,11.1 20.4,11.9 20.4,12.7 C20.4,13.5 20.5,14.3 20.7,14.9 Z" id="Shape"></path>
                <path d="M35.5,6 L35.5,8 L35.6,8 C36.6,6.5 38.1,5.7 40,5.7 C40.8,5.7 41.6,5.9 42.3,6.2 C43,6.6 43.4,7.1 43.7,8 C44.1,7.3 44.8,6.7 45.5,6.3 C46.2,5.9 47.1,5.7 47.9,5.7 C48.6,5.7 49.2,5.8 49.7,5.9 C50.2,6.1 50.7,6.3 51.1,6.6 C51.5,6.9 51.8,7.3 52,7.8 C52.2,8.3 52.3,8.9 52.3,9.6 L52.3,19.5 L50.1,19.5 L50.1,10.7 C50.1,10.3 50.1,9.9 50,9.5 C49.9,9.1 49.8,8.8 49.6,8.5 C49.4,8.2 49.2,8 48.8,7.9 C48.4,7.7 48,7.7 47.5,7.7 C46.4,7.7 45.6,8 44.9,8.6 C44.3,9.2 44,10.1 44,11.1 L44,19.5 L41.8,19.5 L41.8,10.7 C41.8,10.3 41.8,9.9 41.7,9.5 C41.6,9.1 41.5,8.8 41.3,8.5 C41.1,8.2 40.9,8 40.5,7.9 C40.2,7.7 39.8,7.7 39.3,7.7 C38.7,7.7 38.1,7.8 37.6,8.1 C37.2,8.4 36.8,8.7 36.5,9 C36.2,9.4 36,9.7 35.9,10.1 C35.8,10.5 35.7,10.8 35.7,11.1 L35.7,19.5 L33.5,19.5 L33.5,6.1 L35.5,6.1 L35.5,6 L35.5,6 Z" id="Path"></path>
                <path d="M64.9,18.6 C63.9,19.4 62.6,19.7 61.1,19.7 C60,19.7 59.1,19.5 58.3,19.2 C57.5,18.8 56.8,18.4 56.3,17.7 C55.8,17.1 55.3,16.3 55.1,15.5 C54.8,14.6 54.7,13.7 54.7,12.7 C54.7,11.7 54.9,10.7 55.2,9.9 C55.5,9 56,8.3 56.5,7.7 C57.1,7.1 57.7,6.6 58.5,6.2 C59.3,5.8 60.1,5.7 61,5.7 C62.2,5.7 63.2,6 64,6.4 C64.8,6.9 65.4,7.5 65.9,8.3 C66.4,9.1 66.7,9.9 66.9,10.8 C67.1,11.7 67.2,12.6 67.1,13.4 L57,13.4 C57,14 57.1,14.5 57.2,15.1 C57.4,15.6 57.6,16.1 58,16.5 C58.4,16.9 58.8,17.2 59.3,17.5 C59.8,17.8 60.5,17.9 61.2,17.9 C62.1,17.9 62.9,17.7 63.5,17.3 C64.1,16.9 64.5,16.2 64.7,15.3 L66.9,15.3 C66.5,16.6 65.9,17.8 64.9,18.6 Z M64.3,9.9 C64.1,9.4 63.8,9 63.5,8.7 C63.1,8.3 62.8,8.1 62.3,7.9 C61.9,7.7 61.3,7.6 60.8,7.6 C60.2,7.6 59.7,7.7 59.2,7.9 C58.8,8.1 58.3,8.4 58,8.7 C57.7,9.1 57.4,9.5 57.2,9.9 C57,10.3 56.9,10.9 56.8,11.4 L64.5,11.4 C64.6,10.9 64.5,10.4 64.3,9.9 Z" id="Shape"></path>
                <path d="M75.8,6.5 C76.2,5.3 76.7,4.3 77.5,3.4 C78.2,2.5 79.2,1.8 80.3,1.2 C81.4,0.7 82.7,0.4 84.2,0.4 C85.7,0.4 87,0.7 88.1,1.2 C89.2,1.7 90.1,2.5 90.9,3.4 C91.6,4.3 92.2,5.3 92.6,6.5 C93,7.7 93.2,8.9 93.2,10.2 C93.2,11.5 93,12.7 92.6,13.9 C92.2,15.1 91.7,16.1 90.9,17 C90.2,17.9 89.2,18.6 88.1,19.1 C87,19.6 85.7,19.9 84.2,19.9 C82.7,19.9 81.4,19.6 80.3,19.1 C79.2,18.6 78.3,17.9 77.5,17 C76.8,16.1 76.2,15.1 75.8,13.9 C75.4,12.7 75.2,11.5 75.2,10.2 C75.2,8.9 75.4,7.6 75.8,6.5 Z M78.1,12.9 C78.4,13.8 78.7,14.6 79.2,15.4 C79.7,16.2 80.4,16.7 81.2,17.2 C82,17.6 83,17.9 84.1,17.9 C85.2,17.9 86.2,17.7 87,17.2 C87.8,16.8 88.5,16.2 89,15.4 C89.5,14.6 89.9,13.8 90.1,12.9 C90.4,12 90.5,11.1 90.5,10.1 C90.5,9.1 90.4,8.3 90.1,7.3 C89.8,6.4 89.5,5.6 89,4.8 C88.5,4.1 87.8,3.5 87,3 C86.2,2.6 85.2,2.3 84.1,2.3 C83,2.3 82,2.5 81.2,3 C80.4,3.4 79.7,4 79.2,4.8 C78.7,5.6 78.3,6.4 78.1,7.3 C77.8,8.2 77.7,9.1 77.7,10.1 C77.7,11.1 77.9,12 78.1,12.9 Z" id="Shape"></path>
                <path d="M94.1,7.9 L94.1,6 L96.4,6 L96.4,4 C96.4,2.9 96.7,2.1 97.4,1.5 C98,0.9 99,0.6 100.2,0.6 C100.4,0.6 100.6,0.6 100.9,0.7 C101.2,0.7 101.4,0.8 101.6,0.9 L101.6,2.8 C101.4,2.7 101.2,2.7 101,2.7 C100.8,2.7 100.6,2.7 100.4,2.7 C99.9,2.7 99.4,2.8 99.2,3 C98.9,3.2 98.8,3.6 98.8,4.2 L98.8,6.1 L101.4,6.1 L101.4,8 L98.8,8 L98.8,19.5 L96.6,19.5 L96.6,8 L94.1,7.9 L94.1,7.9 Z" id="Path"></path>
                <path d="M101,7.9 L101,6 L103.3,6 L103.3,4 C103.3,2.9 103.6,2.1 104.3,1.5 C104.9,0.9 105.9,0.6 107.1,0.6 C107.3,0.6 107.5,0.6 107.8,0.7 C108.1,0.7 108.3,0.8 108.5,0.9 L108.5,2.8 C108.3,2.7 108.1,2.7 107.9,2.7 C107.7,2.7 107.5,2.7 107.3,2.7 C106.8,2.7 106.3,2.8 106.1,3 C105.8,3.2 105.7,3.6 105.7,4.2 L105.7,6.1 L108.3,6.1 L108.3,8 L105.8,8 L105.8,19.5 L103.6,19.5 L103.6,8 L101,7.9 L101,7.9 Z" id="Path"></path>
                <path d="M109.9,3.6 L109.9,0.9 L112.1,0.9 L112.1,3.6 L109.9,3.6 Z M112.1,6 L112.1,19.5 L109.9,19.5 L109.9,6 L112.1,6 Z" id="Shape"></path>
                <path d="M123.3,8.4 C122.8,7.9 122,7.7 121.1,7.7 C120.3,7.7 119.6,7.9 119.1,8.1 C118.6,8.4 118.1,8.8 117.8,9.3 C117.5,9.8 117.3,10.4 117.1,11 C117,11.6 116.9,12.3 116.9,13 C116.9,13.6 117,14.2 117.1,14.8 C117.3,15.4 117.5,15.9 117.8,16.4 C118.1,16.8 118.5,17.2 119,17.5 C119.5,17.8 120.1,17.9 120.8,17.9 C121.9,17.9 122.7,17.6 123.4,17 C124,16.4 124.4,15.6 124.5,14.6 L126.8,14.6 C126.5,16.3 125.9,17.6 125,18.5 C124.1,19.4 122.6,19.9 120.9,19.9 C119.9,19.9 119,19.7 118.2,19.4 C117.4,19.1 116.7,18.6 116.2,18 C115.7,17.4 115.3,16.7 115,15.8 C114.7,15 114.6,14 114.6,13 C114.6,12 114.7,11.1 115,10.2 C115.3,9.3 115.7,8.5 116.2,7.9 C116.7,7.3 117.4,6.7 118.2,6.4 C119,6 119.9,5.8 121,5.8 C121.8,5.8 122.5,5.9 123.1,6.1 C123.8,6.3 124.4,6.6 124.9,7 C125.4,7.4 125.8,7.9 126.2,8.4 C126.5,9 126.7,9.7 126.8,10.5 L124.5,10.5 C124.2,9.5 123.8,8.8 123.3,8.4 Z" id="Path"></path>
                <path d="M138.4,18.6 C137.4,19.4 136.1,19.7 134.6,19.7 C133.5,19.7 132.6,19.5 131.8,19.2 C131,18.8 130.3,18.4 129.8,17.7 C129.3,17.1 128.8,16.3 128.6,15.5 C128.3,14.6 128.2,13.7 128.2,12.7 C128.2,11.7 128.4,10.7 128.7,9.9 C129,9 129.5,8.3 130,7.7 C130.6,7.1 131.2,6.6 132,6.2 C132.8,5.8 133.6,5.7 134.5,5.7 C135.7,5.7 136.7,6 137.5,6.4 C138.3,6.9 138.9,7.5 139.4,8.3 C139.9,9.1 140.2,9.9 140.4,10.8 C140.6,11.7 140.7,12.6 140.6,13.4 L130.5,13.4 C130.5,14 130.6,14.5 130.7,15.1 C130.9,15.6 131.1,16.1 131.5,16.5 C131.9,16.9 132.3,17.2 132.8,17.5 C133.3,17.8 134,17.9 134.7,17.9 C135.6,17.9 136.4,17.7 137,17.3 C137.6,16.9 138,16.2 138.2,15.3 L140.4,15.3 C140.1,16.6 139.5,17.8 138.4,18.6 Z M137.9,9.9 C137.7,9.4 137.4,9 137.1,8.7 C136.7,8.3 136.4,8.1 135.9,7.9 C135.5,7.7 134.9,7.6 134.4,7.6 C133.8,7.6 133.3,7.7 132.8,7.9 C132.4,8.1 131.9,8.4 131.6,8.7 C131.3,9.1 131,9.5 130.8,9.9 C130.6,10.3 130.5,10.9 130.4,11.4 L138.1,11.4 C138.2,10.9 138.1,10.4 137.9,9.9 Z" id="Shape"></path>
            </g>
        </g>
    </g>
</svg>