<svg height="100" viewBox="0 0 195 100" width="195" xmlns="http://www.w3.org/2000/svg" xmlns:xlink="http://www.w3.org/1999/xlink"><radialGradient id="a" cx="64.031542%" cy="11.657247%" r="72.687728%"><stop offset=".022" stop-color="#fff2ee"/><stop offset=".251" stop-color="#f9826d"/><stop offset=".406" stop-color="#f7270a"/><stop offset=".5" stop-color="#e62308"/><stop offset=".966" stop-color="#cf2109"/></radialGradient><radialGradient id="b" cx="76.500653%" cy="12.762036%" gradientTransform="matrix(1 0 0 .815469 0 .02355)" r="180.363205%"><stop offset=".022" stop-color="#fde6df"/><stop offset=".64" stop-color="#f84a31"/><stop offset=".843" stop-color="#cf2109"/></radialGradient><g fill="none"><g fill="#231f20" transform="translate(79 42)"><path d="m79.4475806 4.94545455h1.608871c-2.2983871 2.70454545-6.9717742 8.73181815-8.733871 11.12727275h-1.6088709l.2298387-.2318182c1.608871-1.9318182 6.7419355-8.42272728 8.5040322-10.89545455zm-51.1774193 0h1.608871c-2.2983871 2.70454545-6.9717742 8.73181815-8.733871 11.12727275h-1.608871l.2298387-.2318182c1.608871-1.9318182 6.7419355-8.42272728 8.5040323-10.89545455z"/><path d="m70.8669355 4.94545455h2.2217742c1.6088709 2.31818181 5.7459677 8.34545455 8.0443548 11.12727275h-2.2217742c-.9959677-1.6227273-6.282258-8.88636366-8.0443548-11.12727275zm14.0201613 11.12727275h-1.6854839v-11.12727275c.766129.07727272 1.0725806.07727272 1.6854839 0zm-.842742-13.75454548c-.6129032 0-1.0725806-.61818182-1.0725806-1.15909091 0-.61818182.4596774-1.08181818 1.0725806-1.08181818.5362904 0 1.0725807.46363636 1.0725807 1.08181818 0 .54090909-.4596774 1.15909091-1.0725807 1.15909091zm4.0604839 11.51363638c.5362903.85 1.608871 1.7 2.6814516 1.7 1.4556452 0 2.2983871-.9272727 2.2217742-2.1636364-.1532258-3.2454545-5.4395161-1.0045454-5.516129-5.09999998 0-2.24090909 1.6854839-3.47727273 3.7540322-3.47727273 1.2258065 0 2.6048388.54090909 2.6048388.54090909l-.6129033 1.7c-.4596774-.85-1.2258064-1.54545454-2.0685484-1.54545454-1.1491935 0-2.0685483.69545454-2.0685483 1.93181818 0 3.01363638 5.6693548 1.54545454 5.5927419 5.25454548 0 2.0090909-1.5322581 3.7090909-4.1370968 3.5545454-1.2258064-.0772727-3.0645161-.7727272-3.0645161-.7727272zm-25.8951613-4.09545456c.1532258-1.93181819 1.0725807-4.01818182 3.217742-4.01818182 2.2983871 0 2.8346774 2.00909091 2.9112903 4.01818182zm7.8911291.92727276c.2298387-3.8636364-2.1451613-5.71818185-4.6733871-5.71818185-3.4475807 0-5.2862904 2.47272727-5.2862904 5.71818185 0 3.6318181 2.2217742 5.7181818 5.4395162 5.7181818 1.3790322 0 2.8346774-.5409091 3.9838709-1.3909091v-1.1590909c-.6129032.6181818-1.8387096 1.6227273-3.3709677 1.6227273-2.7580645 0-4.1370968-2.1636364-3.983871-4.7136364zm-50.4112904-5.71818185h2.2217742c1.608871 2.31818181 5.7459678 8.34545455 8.0443549 11.12727275h-2.2217742c-.9959678-1.6227273-6.2822581-8.88636366-8.0443549-11.12727275zm14.0967742 11.12727275h-1.6854838v-11.12727275c.766129.07727272 1.0725806.07727272 1.6854838 0zm-.9193548-13.75454548c-.6129032 0-1.0725807-.61818182-1.0725807-1.15909091 0-.61818182.4596775-1.08181818 1.0725807-1.08181818.5362903 0 1.0725806.46363636 1.0725806 1.08181818.0766129.54090909-.4596774 1.15909091-1.0725806 1.15909091zm4.1370968 11.51363638c.5362903.85 1.6088709 1.7 2.6814516 1.7 1.4556451 0 2.2983871-.9272727 2.2217742-2.1636364-.1532258-3.2454545-5.4395162-1.0045454-5.5161291-5.09999998 0-2.24090909 1.6854839-3.47727273 3.7540323-3.47727273 1.2258064 0 2.6048387.54090909 2.6048387.54090909l-.6129032 1.7c-.4596774-.85-1.2258065-1.54545454-2.0685484-1.54545454-1.1491936 0-2.0685484.69545454-2.0685484 1.93181818 0 3.01363638 5.6693548 1.54545454 5.5927419 5.25454548 0 2.0090909-1.532258 3.7090909-4.1370967 3.5545454-1.2258065-.0772727-3.0645162-.7727272-3.0645162-.7727272.1532258-.5409091.5362904-1.6227273.6129033-1.6227273zm-25.9717742-4.09545456c.1532258-1.93181819 1.0725806-4.01818182 3.2177419-4.01818182 2.2983871 0 2.8346774 2.00909091 2.9112903 4.01818182zm7.9677419.92727276c.2298387-3.8636364-2.1451613-5.71818185-4.6733871-5.71818185-3.4475806 0-5.28629032 2.47272727-5.28629032 5.71818185 0 3.6318181 2.22177422 5.7181818 5.43951612 5.7181818 1.3790323 0 2.8346774-.5409091 3.983871-1.3909091v-1.1590909c-.6129032.6181818-1.8387097 1.6227273-3.3709678 1.6227273-2.7580645 0-4.1370967-2.1636364-3.9838709-4.7136364zm-16.77822581 4.0954545c1.53225807.0772727 5.05645162-.0772727 6.35887097-.2318182v1.4681818h-8.42741935v-15.84090904h2.06854838zm55.77419351 1.3136364h-.6895161c-.2298387-.3090909-10.0362903-12.59545457-10.0362903-12.59545457v12.59545457h-1.2258065v-15.91818184h.9193549l9.5766129 11.97727274.2298387.2318182v-12.20909094h1.3024193z"/></g><g transform="translate(22 28)"><circle cx="22.464882" cy="22.285177" fill="url(#a)" r="21.902"/><path d="m29.9323529 5.95129412c.1271765-.12717647 4.9377647-.37876471 4.9377647-.50594118 0-.25435294-3.5443529-.12717647-4.9377647 0 .6358824-.25435294 3.0411765-1.01188235 3.0411765-1.26623529s-4.1747059 1.13905882-4.6834118 1.26623529c-3.6715294-3.04117647-7.1882352-4.30464706-10.3814705-4.43182353-1.645.37876471-3.29 1.01188235-4.8105883 1.645 3.6715294-.76029412 7.8517647-.50594117 12.2808236 1.89935294-7.1882353-2.27811764-13.4198824-1.01188235-17.85170593 1.89935294-2.78405882 2.65964706-4.68341176 5.82523531-5.82523529 9.49676471 3.79870588-7.97617647 12.28082352-13.16829412 23.42258822-10.63582353-15.82517646-.50594118-22.78947058 10.25705883-24.18288234 20.12705883.50594118 3.4171765 1.76941176 6.58 3.79870588 9.3723529-3.54435294-11.1417647 1.76941177-27.85441173 20.63576466-28.86352938-20.12705878 4.05029408-21.77758819 25.32470588-15.57358819 33.80405878 1.76941179 1.2662353 3.92588239 2.4052942 6.07682349 3.1655883-9.11523525-6.204-8.35494114-30.8928235 10.1298824-36.33652943-16.5882353 7.85176473-16.07952942 32.28623533-5.5708824 37.47558823.6704852.1016278 1.3485993.1441834 2.0265295.1271765 1.3180163.0056818 2.6332626-.1212116 3.9258823-.3787647-10.8874118-3.7987059-15.5735882-28.9934706 1.3934118-37.22400003l.5059411.50594118c2.1564706 1.645 6.458353 6.07682355 6.7099412 5.94964705.2515883-.1271765-3.7987059-4.17470588-5.3165294-5.82523529 2.0265294.88470588 6.3588235 3.28999999 6.458353 3.16558819.0995294-.1244117-4.1747059-2.78405878-6.458353-3.92588231 2.2781177.37876471 6.458353 1.2662353 6.458353 1.13905883.2543529-.25435294-3.6715295-1.13905883-6.204-1.645z" fill="url(#b)"/></g></g></svg>