<svg height="57" viewBox="0 0 141 57" width="141" xmlns="http://www.w3.org/2000/svg"><g fill="none"><path d="m0 0h140.76v56.567103h-140.76z" fill="#fff"/><path d="m140.76 56.5671028v-56.5671028h-140.76v56.5671028zm-84.1701192-51.11071962-9.7167403 45.52962292h-15.2468529l-9.583959-31.5067183h-.1327887l-6.3736905 31.5067183h-11.56792317l9.79485257-45.52962292h15.3015326l9.3964959 31.57686892h.132793l6.4361693-31.57686892zm43.6159942 0-9.5292808 45.52962292h-12.2787165l4.0772843-19.5026745h-14.5282518l-4.0694671 19.5026745h-12.2787175l9.5292836-45.52962292h12.2787165l-3.6086337 17.42145272h14.5126289l3.6164393-17.42145272zm35.281773 1.2393788-2.960328 9.06539152c-2.366694-1.0990713-5.584778-2.0812218-10.115089-2.0812218-4.858377 0-8.802873.7093314-8.802873 4.3729016 0 6.4541213 17.801015 4.0455185 17.801015 17.8735526 0 12.5808605-11.763202 15.8468959-22.401625 15.8468959-4.725588 0-10.1853981-1.1146631-14.1845744-2.3540408l2.8900283-9.2602631c2.4213731 1.5667651 7.2953701 2.6112713 11.2945461 2.6112713 3.811708 0 9.787032-.7171252 9.787032-5.4174089 0-7.303759-17.801004-4.5677721-17.801004-17.4058629 0-11.74681344 10.380666-15.27007829 20.433286-15.27007829 5.655078 0 10.96649.59240738 14.059586 2.01886287" fill="#005eb8"/></g></svg>