<svg viewBox="0 0 195 100" xmlns="http://www.w3.org/2000/svg"><path d="m56.893 67.893-8.128-26.639h-.115l-5.278 26.639h-9.696l8.112-38.478h12.852l7.956 26.678h.114l5.336-26.678h9.696l-8.055 38.478zm39.243 0 3.376-16.484h-12.182l-3.376 16.484h-10.308l7.882-38.478h10.308l-2.979 14.726h12.182l2.999-14.726h10.308l-7.883 38.478zm45.354-29.776c-1.993-.937-4.691-1.76-8.497-1.76-4.092 0-7.38.612-7.371 3.691.015 5.451 14.946 3.424 14.98 15.109.03 10.652-9.829 13.406-18.761 13.406-3.977 0-8.552-.937-11.92-1.989l2.406-7.841c2.05 1.319 6.126 2.199 9.492 2.199 3.194 0 8.222-.612 8.21-4.571-.018-6.176-14.947-3.863-14.978-14.725-.029-9.926 8.683-12.909 17.117-12.909 4.743 0 9.219.497 11.804 1.702zm20.132-8.702 2.811 6.618h.057l5.278-6.618h4.552l-7.948 9.18 4.485 10.059h-4.226l-2.968-7.726h-.058l-5.982 7.726h-4.801l8.882-10.442-4.252-8.797z" fill="#003087" transform="matrix(.999996 .002893 -.002893 .999996 .141165 -.300663)"/></svg>