<?xml version="1.0" encoding="utf-8"?>
<svg viewBox="0 0 195 100" xmlns="http://www.w3.org/2000/svg">
  <path d="M 56.893 67.893 L 48.765 41.254 L 48.65 41.254 L 43.372 67.893 L 33.676 67.893 L 41.788 29.415 L 54.64 29.415 L 62.596 56.093 L 62.71 56.093 L 68.046 29.415 L 77.742 29.415 L 69.687 67.893 L 56.893 67.893 Z M 96.136 67.893 L 99.512 51.409 L 87.33 51.409 L 83.954 67.893 L 73.646 67.893 L 81.528 29.415 L 91.836 29.415 L 88.857 44.141 L 101.039 44.141 L 104.038 29.415 L 114.346 29.415 L 106.463 67.893 L 96.136 67.893 Z M 141.49 38.117 C 139.497 37.18 136.799 36.357 132.993 36.357 C 128.901 36.357 125.613 36.969 125.622 40.048 C 125.637 45.499 140.568 43.472 140.602 55.157 C 140.632 65.809 130.773 68.563 121.841 68.563 C 117.864 68.563 113.289 67.626 109.921 66.574 L 112.327 58.733 C 114.377 60.052 118.453 60.932 121.819 60.932 C 125.013 60.932 130.041 60.32 130.029 56.361 C 130.011 50.185 115.082 52.498 115.051 41.636 C 115.022 31.71 123.734 28.727 132.168 28.727 C 136.911 28.727 141.387 29.224 143.972 30.429 L 141.49 38.117 Z M 161.622 29.415 L 164.433 36.033 L 164.49 36.033 L 169.768 29.415 L 174.32 29.415 L 166.372 38.595 L 170.857 48.654 L 166.631 48.654 L 163.663 40.928 L 163.605 40.928 L 157.623 48.654 L 152.822 48.654 L 161.704 38.212 L 157.452 29.415 L 161.622 29.415 Z" style="fill: rgb(0, 48, 135);" transform="matrix(0.999996, 0.002893, -0.002893, 0.999996, 0.141165, -0.300663)"/>
</svg>