<svg height="57" viewBox="0 0 141 57" width="141" xmlns="http://www.w3.org/2000/svg"><g fill="none" fill-rule="evenodd" transform="translate(0 10)"><g fill-rule="nonzero"><path d="m140.76 36.2002004h-99.9011945v-36.19602634h99.9011945z" fill="#0030a1"/><path d="m73.9950113 14.226278h-1.7657576v-7.28011412h3.5649209c.9183577.03339501 1.6196531.66372627 1.7741037 1.36919577.1377585.56354121.054287.72634111.0291739 1.0561172-.1168879.90166555-.7722638 1.27318485-1.2564969 1.47773015l-.1168772.0542655c.9100115.3715193 1.2523078 1.3942415 1.4485102 2.2374663.0917963.3589959.1544506.688772.1794996 1.0853392h-1.769936c-.0917962-.6887731-.2421219-1.3942437-.5176281-2.0788415-.1377478-.392391-.3840374-.6595511-.7305121-.6637252h-.8390538zm-24.8375436-7.28428824h2.6632522l1.6071361 4.84645184 1.5069499-4.84645184h2.6799498l.2003701 7.28428824h-1.7824584l-.1586268-5.86499993-1.8826445 5.86499993h-1.7156683l-1.8617728-5.64793229-.2880318 5.64793229h-1.2982316zm12.3018903 6.01945164h3.210097v1.2564873h-4.9758589v-7.27593894h4.7462668l.0125245 1.22309231h-3.0013787l.0083354 1.71149417 2.4795796.00833539v1.15212817h-2.487915zm40.491462 1.264843v-7.28012052h1.765758v6.01945162l2.867793-.0041677v1.2648366zm7.726774-7.28429464-.008549 7.28428824h-1.832548v-7.28428824zm5.076043 7.28428824h-1.790817v-6.06119593h-1.98282v-1.21891819h5.731419v1.21891819h-1.957782zm10.456809-7.26341661h1.932743l3.005552 5.46843381v-5.48930542h1.423461v7.28428822h-2.350176l-2.621514-4.78383698.008549 4.78383698h-1.398423z" fill="#fff"/><path d="m74.9509424 8.03567609c.6929493.09600669.8140049.40491435.8807949.6971213.054287.40908844.0792932.88079388-.1878456 1.22309229-.3840374.40908952-1.0435917.37151932-1.6572265.35064772v-2.27503539c.3172474-.00833539.5927643.01670287.9642772.0041677" fill="#0030a1"/><path d="m61.1254078 20.3333923s1.7866335-.2128935 2.9011915-.2671601c1.118732-.0542656 2.124761.0250489 2.124761.0250489l.8724382.1127084c1.239794.2838577 2.7467483.9100138 2.9638105 2.2792095.3214258 1.2898834-.3047228 2.3793957-1.2898812 3.0556443-.3381286.229591-.6595543.4049154-1.2147452.5510178-.9851477.329776-2.2541584.2045453-3.3937674.1794985l.0041677 2.4545339h-2.9763244zm47.7131322 2.6048115c-.960109-.9434098-2.38357-1.2731859-3.615008-.7889581-.78061.3089044-1.164658.6595521-1.456856 1.6113101-.308912 1.0101988-.037616 2.5588931.910012 3.2351428.997672.7054695 2.734213.7305152 3.848773.1544517.250468-.1210567.425789-.2170677.425789-.2170677l.609456 1.6363559c-.626159.4216119-1.431807.5510179-2.24999.7054695-.638673.1127085-1.698968.1043635-2.813528-.06679-1.394245-.2922059-2.759262-.9308864-3.452211-2.2374662-.613635-1.2147441-.705474-3.2852353.125234-4.42484.776431-1.2898824 1.636355-1.7866335 2.951286-2.1831996.993493-.2170677 2.141449-.2087184 2.880317-.1127074.717988.0960066 1.778282.3673452 2.446183.7513879zm-20.7007329-2.6131608v6.6247371h4.3997857l-.0042745 1.7741102h-7.4262187v-8.3988473zm6.8418005 0h3.0097301v8.3988473h-3.0097301zm24.8751104 0v1.5653918h-4.441537v1.7615867h3.347858v1.5111252h-3.347858v1.7866334h4.775487v1.7741102h-7.722595v-8.3988473z" fill="#fff"/><path d="m66.7775195 22.9674236c.0166708.6845979-.1294123 1.1187331-.7012953 1.4860783-.6679004.3673453-1.4067692.3715204-1.9953572.025049v-2.6632533c.5593713-.3172527 1.4610368-.3339502 2.0245738-.0125245.3339502.1753234.6553759.4466576.6720787 1.1646505" fill="#0030a1"/><path d="m118.919658 6.94198976-2.416966 7.28846234h1.815855l.576072-1.6864485h2.400263l.567716 1.6864485h1.815855l-2.416966-7.28846234z" fill="#fff"/><path d="m120.910834 11.3459571h-1.686443l.8474-2.76761141z" fill="#0030a1"/><path d="m69.1819609 14.2346262h-1.7908173v-6.06537003h-1.9828198v-1.21891819h5.7314187v1.21891819h-1.9577816zm19.9409939-2.5714164v2.5672423h-1.769936v-7.28846234h3.0848662c1.5862688 0 2.2332879.80565459 2.2332879 2.4670562 0 1.32327844-.9267038 2.40026724-3.5523858 2.25416384z" fill="#fff"/><path d="m89.9119108 8.01897858c.6929493.09600669.9392389.42996115 1.006029.71799291.0959639.38404273.1627967.86409638-.2087162 1.29823161-.3798697.4090885-.9809801.4049143-1.5946149.3840427v-2.39609312c.3172474-.01252445.4466598-.00416767.7973021-.00416767" fill="#0030a1"/><path d="m85.6498729 10.5277791c.0085491.8891432-.1920241 1.7908087-.5927643 2.4044414-.7054631 1.0602923-1.5779119 1.3650216-2.6799476 1.3691957h.0085492c-1.1020357-.0041677-1.9786522-.3089034-2.6799476-1.3691957-.404908-.6136327-.6011104-1.5152982-.5927643-2.4044414v.1085344c-.0085491-.88914217.1878563-1.79080766.5927643-2.4044414.7012954-1.06029238 1.5737442-1.36502166 2.6716015-1.36919578 1.1020356.0041677 1.9744845.3089034 2.6799476 1.36919578.4007402.61363372.6011103 1.51529925.5927642 2.4044414z" fill="#fff"/><path d="m83.8465419 10.5277791c0 .3506477.0042745.6804238-.0417839.9601073-.1335801.7555621-.4675302 1.57374-1.4401642 1.5779141h.0085491c-.9726339-.0041677-1.3107625-.822352-1.4401642-1.5779141-.0501192-.2796835-.0417838-.6094596-.0417838-.9601073v.1085344c0-.3506477-.0085491-.68042382.0417838-.96010736.1294017-.75556205.4675303-1.57374 1.4401642-1.57791412l-.0085491.00416771c.9726339 0 1.3065841.81817796 1.4401642 1.57373998.0459515.27968356.0417839.60945959.0417839.96010729z" fill="#0030a1"/><path d="m100.268545 10.5152568c.008549.8891421-.187846 1.7949817-.5885858 2.4044413-.7054738 1.0644655-1.5820904 1.3650206-2.684126 1.3691958h.0085491c-1.0978572 0-1.9744845-.3047303-2.6799476-1.3691958-.4007402-.6094596-.6011103-1.5152992-.5927642-2.4044413v.1085332c-.0085492-.88496795.192024-1.79080756.5927642-2.40444129.7054631-1.06029132 1.5820904-1.36502167 2.6799476-1.36502167h-.0085491c1.1020356 0 1.9786522.30473035 2.684126 1.36502167.4007398.61363373.5969318 1.51947336.5885858 2.40861549z" fill="#fff"/><path d="m98.465214 10.5152568c0 .3506477.0085491.6804227-.0417838.9601062-.1335801.7555621-.4675303 1.57374-1.4401642 1.5779152h.0085491c-.9726232-.0041677-1.3065734-.8223531-1.4401535-1.5779152-.0501193-.2796835-.0417839-.6094585-.0417839-.9601062v.1085332c0-.3506476-.0085491-.68042373.0417839-.95593208.1335801-.75973721.4675303-1.57791519 1.4401535-1.57791519h-.0085491c.9726339 0 1.3065841.81817798 1.4401642 1.57791519.0501192.27550835.0417838.60528448.0417838.96010618z" fill="#0030a1"/><path d="m82.5065734 24.9252074c0 .1920208-.0166708.4550069-.0376161.6470277-.0626224.2546378-.1711535.7179929-.3089013.9976764-.6136348 1.4986018-2.1331135 2.3418255-3.7193716 2.6340324-.3339501.058444-.7179982.091839-1.0978679.0960067l-.0250062.0041677c-.3798696-.0041677-.7639177-.0375734-1.0936895-.0960067-1.5862687-.2922059-3.1099151-1.1354306-3.7235499-2.6340324-.1377478-.2796824-.2421113-.7430386-.3089013-.9976754-.0208385-.196196-.0333416-.4758795-.0376162-.6637262v-.3297697c.0042746-.1920208.0166708-.4508328.0376162-.6428536.06679-.2546378.1711535-.7179929.3089013-.9976764.6136348-1.4944276 2.1372812-2.3418254 3.7193715-2.6340324.3339502-.0542656.7179983-.091839 1.0978679-.0960067l.0250062.0041677c.3798697.0041677.7639178.0375734 1.0978679.0960067 1.5862581.292207 3.1057368 1.1354306 3.7193716 2.6340324.1377478.2796835.2462896.7388645.3089013.9976764.0208384.1920209.0376161.4299612.0376161.621982z" fill="#fff"/><path d="m79.5344167 24.912684c0 .3172527-.1753318 2.5296721-2.2040712 2.5421955l-.0250062.0041677c-2.0287501-.0167028-2.2291202-2.2541637-2.2291202-2.5714164v-.2880318c0-.3214268.2003701-2.525498 2.2291202-2.5421955l.0250062.0041677c2.0287394.0125245 2.2040712 2.2416403 2.2040712 2.5630682zm-39.8110419-24.90016064v36.18767694h-39.7233748v-36.2002003z" fill="#0030a1"/><path d="m20.4252281 3.12243423c-.1878467.09600666-.2337651.27550835-.2337651.525971.7931322 0 1.6280077-.83487546 2.4461856-.09600666.3965651.43830935.3882169.74303864.3422984 1.16465048-.0459195.46753026-.1836726.73469042-.3256009 1.15212816-.0542655.11270845-.1377552.32142784-.358997.2379403-.2254158-.08766059-.262986-.1878478-.1878467-.39239201.0960067-.24628853.6178079-1.0101988.4299612-1.6154843-.0709684-.21706763-.2212428-.45918098-.6303313-.5050994-.4508327-.01252447-1.2606625.46335616-1.64053.60945963l-.0083354 1.49025244-.5969362.0041677v-1.49442655c-.6094586-.23376514-1.310754-.88914318-2.0120494-.42161292-.3256019.23376514-.3256019.60945962-.2796835.98097896.0918389.37569449.2546367.61363373.3965661.94340981.0751361.17532332.0083354.29220587-.1001851.35899592 0 0-.196196.10853434-.3381243-.00833539-.2045453-.1586269-.7096446-1.57374107-.1920219-2.27503647.2796836-.3256009.6052845-.51344762.980979-.51344762.6094585-.04591949 1.0185481.34229841 1.6363559.37151932.0167029-.20454423 0-.41743774-.2337651-.51344868 0-.40074022.2128935-.57606353.4466586-.71381879.2337651.13775526.4466576.27133534.459181.70964469" fill="#fff"/></g><path d="m20.4252281 3.12243423c-.1878467.09600666-.2337651.27550835-.2337651.525971.7931311 0 1.6280066-.83487546 2.4461846-.09600666.3965661.43831041.3882179.7430397.3422994 1.16465154-.0459195.46753026-.1836726.73469042-.3256019 1.15212816-.0542656.11270845-.1377542.32142678-.358996.23793924-.2254169-.08766059-.262986-.18784674-.1878467-.39239095.0960067-.24628852.6178079-1.01019986.4299601-1.6154843-.0709684-.21706761-.2212417-.45918097-.6303302-.50509939-.4508327-.01252447-1.2606625.46335616-1.6405311.60945856l-.0083354 1.49025353-.5969362.00416769v-1.49442763c-.6094586-.23376514-1.310754-.88914212-2.0120493-.42161184-.325602.23376512-.325602.60945961-.2796836.98097895.091839.37569342.2546367.61363372.3965661.94340874.0751361.17532438.0083354.29220695-.100185.358997 0 0-.196196.10853326-.3381254-.00833541-.2045442-.15862581-.7096436-1.57374-.1920208-2.2750354.2796835-.3256009.6052844-.51344869.9809789-.51344869.6094586-.04591948 1.0185481.34229949 1.6363559.37152041.0167029-.20454529 0-.41743774-.2337651-.51344868 0-.40074024.2128925-.57606462.4466576-.71381881.2337651.13775419.4466586.27133427.459182.70964468z" stroke="#fff" stroke-width=".5"/><path d="m22.2327332 6.35340176c.091839.05008718.1085344.20454529.0626117.29638105l-.0375734-.00833539c-1.4067649-.25463781-3.2977587-.2379403-4.654431-.00416769-.0960067-.1419283.0459194-.28385767.1836726-.32977502 1.310755-.42161291 3.0932133-.43413523 4.4457116.04591948" fill="#fff" fill-rule="nonzero"/><path d="m22.2327332 6.35340176c.091839.05008718.1085344.20454423.0626117.29638105l-.0375734-.00833539c-1.4067649-.25463675-3.2977587-.23793924-4.654431-.00416769-.0960067-.1419283.0459194-.28385767.1836726-.32977609 1.310755-.42161184 3.0932133-.43413522 4.4457116.04591949z" stroke="#fff" stroke-linecap="square" stroke-width=".5"/><path d="m30.0471676 7.06304645c.0167029.07096841.2003701.50509938-.2337651.55936602-.7263411.02921664-.4633551-.74303864-1.2648355-.884968-1.0268974-.14192828-1.3900685 1.04776899-1.8492495 1.74071615-.655377 1.16882567-1.5152992 2.74673978-3.0598183 2.84275068-.5134487 0-.9350605-.0960066-1.310755-.4216118-.091839-.1419294.0459195-.2838577.1878467-.3297761.2337651 0 .3631711.2379393.6094596.3297761.3715193.091839.8140039.0834929 1.1187331-.1794985 1.1229073-1.12290723 1.5445191-2.53384733 2.6674274-3.70267297.6094586-.5635412 1.4025908-.8432237 2.2458145-.60945856.3381243.09183897.7012954.27968248.8891421.65537698" fill="#fff" fill-rule="nonzero"/><path d="m30.0471676 7.06304645c.0167029.07096841.2003701.50509938-.2337651.55936602-.7263411.02921664-.4633562-.74303864-1.2648366-.884968-1.0268963-.14192828-1.3900674 1.04776899-1.8492484 1.74071509-.655378 1.16882566-1.5152992 2.74674084-3.0598194 2.84275174-.5134476 0-.9350605-.0960066-1.3107539-.4216129-.091839-.1419283.0459195-.2838576.1878467-.329775.2337651 0 .3631711.2379393.6094596.329775.3715193.091839.8140028.0834929 1.1187331-.1794974 1.1229073-1.1229083 1.5445191-2.53384733 2.6674264-3.70267297.6094596-.5635412 1.4025908-.84322477 2.2458155-.60945963.3381243.09183897.7012954.27968355.8891421.65537805z" stroke="#fff" stroke-linecap="square" stroke-width=".5"/><path d="m15.6998329 10.6989294c.2713343.262985 1.3650217.2045442 1.1103849.5969351-.5844128.325602-1.5987867.0083354-2.5714164-1.38171806-.7012954-1.02689736-1.6071361-2.78848406-2.2833847-3.13078355-.2337651-.09183897-.5217969-.05008718-.8056546.09183897-.4174377.23376514-.4675302 1.07698882-1.1187331.7012954-.14192933-.09183897-.15862686-.35482287-.05008716-.51344868.46753026-.65537698 1.35667236-.84322477 2.10806026-.60945963 1.2690108.29220695 1.8242027 1.7949828 2.5296722 2.82605427.3256019.55936604.5176228 1.04776788 1.081164 1.41928828" fill="#fff" fill-rule="nonzero"/><path d="m15.6998329 10.6989283c.2713343.2629861 1.3650217.2045453 1.1103849.5969362-.5844128.325602-1.5987867.0083354-2.5714164-1.38171806-.7012954-1.02689736-1.6071361-2.78848406-2.2833847-3.13078355-.2337651-.09183897-.5217969-.05008718-.8056546.09183897-.4174377.23376514-.4675302 1.07698882-1.1187331.7012954-.14192933-.09183897-.15862686-.35482287-.05008716-.51344868.46753026-.65537698 1.35667236-.84322477 2.10806026-.60945963 1.2690108.29220695 1.8242027 1.7949828 2.5296722 2.82605427.3256019.55936604.5176228 1.04776788 1.081164 1.41928728z" stroke="#fff" stroke-linecap="square" stroke-width=".5"/><path d="m24.9335556 7.01712803c.3715194.42161184.1419294.98097895.1419294 1.49442761 0 .09600668.0459195.2796825-.1419294.32977502-.1878467 0-.2337651-.28385767-.2796835-.42161184-.0960067-.51762279.0459195-1.24396394-.4675303-1.45268333-.1753233-.05426556-.329775-.04591949-.4216118.0500872-.3756935.27968354.1377542 1.13960473-.5635412.884968-.2170676-.09600668-.091839-.51344868 0-.6971213.1419293-.28385766.4216129-.47170436.7513879-.51762279.3673452-.0417411.7472138.04591949.980979.32977609" fill="#fff" fill-rule="nonzero"/><path d="m24.9335556 7.01712803c.3715194.42161184.1419283.98097895.1419283 1.49442654 0 .09600669.0459195.27968357-.1419283.32977609-.1878467 0-.2337651-.28385767-.2796835-.42161184-.0960067-.51762279.0459195-1.243965-.4675303-1.45268333-.1753233-.05426556-.3297761-.04591949-.4216118.0500872-.3756945.27968354.1377542 1.13960473-.5635412.884968-.2170676-.09600668-.091839-.51344868 0-.6971213.1419293-.28385766.4216118-.47170436.7513879-.51762279.3673452-.0417411.7472138.04591949.980979.32977609z" stroke="#fff" stroke-width=".5"/><path d="m16.7809969 7.15488221c.1377542.18784778.1878468.46753026.091839.70129538-.0459195.14192939-.2588108.15445277-.3756934.0500872-.229591-.28385766.0083354-.93506052-.4174378-.98515306-.9768048-.10018505-.329776 1.45268332-.985153 1.92021359-.2755094-.01252448 0-.45918098-.1878467-.88914213-.091839-.28385764-.0459195-.60945854.0960067-.84322368.1878477-.23376512.3840427-.33812537.6637262-.38404271.3756945-.04591948.8807939.05844396 1.114559.42996007" fill="#fff" fill-rule="nonzero"/><path d="m16.7809969 7.15488221c.1377542.18784672.1878468.46753026.091839.70129538-.0459195.14192939-.2588108.15445171-.3756934.0500872-.229591-.28385766.0083354-.93506052-.4174378-.98515306-.9768048-.10018505-.329776 1.45268332-.985153 1.92021359-.2755094-.01252448 0-.45918098-.1878467-.88914213-.091839-.28385764-.0459195-.6094596.0960067-.84322474.1878477-.23376512.3840427-.33812431.6637262-.38404271.3756945-.04591948.8807939.05844396 1.114559.42996113z" stroke="#fff" stroke-width=".5"/><path d="m22.2828257 7.10896379c.1001851.10853435.0417412.1794985-.0041676.22959102-1.5361709-.08349288-2.980506-.07096841-4.6293843 0-.0960066-.05008718 0-.1878467.0459195-.23376512 1.2648366-.42161184 3.3228044-.37569344 4.4832818-.05426558z" fill="#fff" fill-rule="nonzero" stroke="#fff" stroke-linecap="square" stroke-width=".5"/><path d="m20.3834848 7.67250501c.2254159.0751361.7722596.15445275 1.4819032.87661976.1085344.15027759-.1544517.53432031-.4007402.36734522-.4174377-.23376514-.3506477-.27133428-.788957-.55519192-.4842278-.24211442-.7680855-.08766059-1.1521282.10018505l-.9100137.51344761c-.1669751.10436345-.4424846-.07096842-.488403-.21289244-.06679-.32977607.4675303-.54266958.7973064-.74303971.8891421-.45083275 1.0352455-.37569342 1.4610325-.34647357" fill="#fff" fill-rule="nonzero"/><path d="m29.1621996 9.00413165c.488403.16697507.7430397.83070136.5593671 1.23978985-.0960109.1878467-.2838576.5134486-.5176228.5134486-.1878467 0-.2755094-.0834929-.3715193-.2212417-.1669751-.4299611.7513879-.55519299.4466576-1.12290832-.1753233-.23376512-.3965651-.27133425-.6345054-.10436344-.7472127.55936711-1.3817181 1.74489026-2.4336612 1.21474406l-.0459194-.0542656c.0083354-.2087193.3589959-.0500871.6052844-.1794984.7513879-.46753031 1.3149291-1.67810028 2.3459995-1.30240577z" fill="#fff" fill-rule="nonzero" stroke="#fff" stroke-width=".5"/><path d="m13.8171885 10.4317692.0459195.0459195c-.1377542.2337652-.3089034.2128935-.5927611.2128935-1.2063958.0083354-1.3232784-1.66557679-2.4002672-1.28988231-.2880318.15862581-.3715193.37569344-.2337652.60945861.1878468.1878478.5635412.1878478.6094586.4675302-.0459195.1878478-.1961949.3422995-.4216118.325602-.2337662-.0459206-.421613-.2796857-.5134498-.5134508-.0960067-.2337652-.0459195-.60945858.091839-.84322372.3256009-.42161292.8891421-.46753026 1.3566723-.32560196.7472139.27968354 1.1688257 1.40259078 2.0579678 1.31075498" fill="#fff" fill-rule="nonzero"/><path d="m13.8171885 10.4317682.0459195.0459194c-.1377542.2337652-.3089034.2128936-.5927611.2128936-1.2063958.0083354-1.3232784-1.66557686-2.4002672-1.28988237-.2880318.1586258-.3715193.37569341-.2337652.60945857.1878468.1878467.5635412.1878467.6094586.4675302-.0459195.1878468-.1961949.3422995-.4216118.325602-.2337662-.0459195-.421613-.2796846-.5134498-.5134497-.0960067-.2337652-.0459195-.60945964.091839-.84322478.3256009-.42161186.8891421-.46753029 1.3566723-.3256009.7472139.27968354 1.1688257 1.40259078 2.0579678 1.31075398z" stroke="#fff" stroke-width=".5"/><path d="m20.521239 10.9744378-.3798686.1836726-1.5987868.7680854c-.42996-.3297761-.8432237-.655377-1.214743-.9350605-.100185-.1335801-.0876606-.2421134-.0417411-.2880318.1168826-.1502776.2045442-.129406.4132637.0083354l.8724446.6637263 1.6989718-.8056546c.1836726-.0834929.4049143.2379392.2504626.4049143" fill="#fff" fill-rule="nonzero"/><path d="m20.521239 10.9744378-.3798686.1836726-1.5987868.7680854c-.42996-.3297761-.8432237-.655377-1.214743-.9350605-.100185-.1335801-.0876606-.2421145-.0417411-.2880318.1168826-.1502776.2045442-.129406.4132637.0083354l.8724446.6637263 1.6989718-.8056546c.1836726-.0834929.4049143.2379392.2504626.4049143z" stroke="#fff" stroke-width=".5"/><path d="m16.0797015 15.0528042c.5426686-.0333951 1.5361709.100185 1.7114942-.2254159.1878467.2796825.5050994.588587.8307014.588587 1.0310715.0876606 2.0746653-1.6739251 3.506477-1.2481391 0 0-1.2940576-.6720745-.7680855-2.0621419.1419283-.2838577.1920209-.5092746.6428536-.8348755-.0125245 0 .2379403-.1544528.1377552.1419283-.2337651.4675303-.5301461 1.0519431-.3631711 1.6572275.3130786.9350606 1.2564874.7889582 1.0435939 1.3942426-.1377542.2212417-.6261561.1252308-1.0227222.1461035-1.3566724-.0960067-2.162327 1.8283767-3.4897795 1.2439639l-.655377-.3047293-3.4647337-.0041677.0041677 3.1641775c.6052844.5134487.7472127 1.2147441.7472127 1.9619579 0 .1878467-.1586258.3548218-.3756934.3756934-.4216118 0-1.1187331.1461035-1.2147441-.3756934-.0960066-.3715204.0459195-.9809789-.4675302-1.1229083-.1419283-.0459195-.4508328-.1085333-.5343203.0500872-.0960067.1836726-.0751361.4174377-.3548218.5134487-.980979.1419293-1.0769899-.9851531-1.5445202-1.4986018-.1377542-.0918389-.2337651-.2337651-.1836726-.3715193.091839-.1878467.2796836-.1419283.4174377-.0960066.5176228.4216129.5176228 1.1229083 1.0310715 1.4986017.4216119 0 .1502776-.4884019.4758796-.5343203.459181-.0793145.8807928.0167028 1.2063948.2546367.2838576.325602.2838576.7931323.3756934 1.1688257.0542656.1753244.4466586.2045453.6386805.1335801.2045442-.0876606.1753233-.3089034.0167029-.884968-.2379403-1.0519431-2.0579689-1.0728147-2.8051816-2.1498036-.1878478-.2337651-.3756945-.5593671-.2379403-.8891431.1419294-.2796825.4717054-.1878467.655378-.3256009.1335801-.1836726-.4633561-.8265273-.3256019-.9851531.9350605-.6052844 2.0579677-1.4025908 2.4294881-2.4754055.1419336-.3297814-.4132583-.5593724-.371515-.7513933l.4675302-.4174377c.233762.0041677.2588088.5384944.4090863.4341352l.2003702-.2504626c.2170676-.129406.6512028.2337651.8390495.5134476.292207.4466587.4090896 1.014374.2337652 1.1187332-.2796836.2170676-.2713343.3798686-.1335801.6720755z" fill="#fff" fill-rule="nonzero" stroke="#fff" stroke-width=".5"/><path d="m30.8402998 11.7884416c.6345054.0041677 1.6280067-.1210567 1.8701211.1836726.1878467.2838577.1461035.8223521.4216119.8891421.329776.0459195.7138187-.0041677.855747.325602.1669751.4758785.0834929.7513879-.0584439 1.0769888-.0960067.1878467-.292207.3506477-.4800537.4884019 0 .4717054.3339502 1.1563033.0793145 1.4652067-.0918389.1377542-.3965661-.0041677-.3882168.1335801.0709684.5426696.1335801 1.2356157-.196196 1.7490644-.325602.2796835-.6971213-.258812-.7973063.033395.1377541 1.8242026.6595521 3.3812451 1.7365409 4.7838359.4174378.4675302 1.0268974.7931322 1.636356.5134487.2796835-.1377542.4675302-.4675303.5134486-.7472138.0459195-1.5904375-1.8242026-2.4294871-2.1498046-3.8821704-.1878467-.655377-.0500871-1.3566724.4174378-1.8242027.5176228-.4675302 1.3566723-.5593671 2.0120504-.3256019.2337651.0459194.4508328.2379392.4717044.5760646.0083354.2128924-.0500872.4508327-.3297761.4967501-.2337651.0500872-.559366.0500872-.655377-.2337652-.0459195-.2337651-.2337651-.3589959-.4675303-.3715193-.3256019 0-.6094596.1377542-.7973063.3715193-.4508327.6637263-.0459195 1.4986018.3297761 2.0579689.7931311 1.2189182 2.4795796 2.4336612 1.4944265 3.9781813-.2796824.3715193-.6178078.5718895-1.0352455.621982-.751388.0459195-1.3024058-.2963811-1.7699361-.8098287-.3715192.6094585-.1377541 1.4025908.1878479 1.9619568.7012953.9601073 1.6864484 2.3334772 1.3107539 3.0890393-.2337651.2796835-.7973063-.2337652-.7513879.3756945v2.1498035c-.0125245.5217979-.7054695.3548229-1.0268963.325602-.1419294-.0459195-.2170676-.2880318-.1252319-.4299612.1419294-.1836726.6052845.0667901.6386795-.1753233.0960067-.7513879 0-1.5445202.0960067-2.3418265.0459195-.1836726.1878467-.3256009.3715193-.3256009.1419293-.0459195.3297761.091839.3756945-.0918389-.2796836-1.5904376-2.2458156-2.5755906-1.7323669-4.3997932l.2337652-.7012954c-.8807939-1.5111252-1.4485093-3.0848652-1.4485093-4.8631494.0459195-.1878478.0459195-.3715204.2337652-.4216129.3297761-.0459195.6428546.262986.7639113.1377552.1878467-.5134486-.0167029-1.0728157-.0626117-1.5862633.0459195-.325602.6094597.0459194.5635413-.3715204l-.2379393-1.0769889c.2379393-.1878467.6094585-.3756944.655377-.7472138.1043634-.2796835-.0459195-.6094585-.3715193-.6094585-.3756945.0459195-.7012954-.1419294-.7472139-.4675303-.0500871-.2337651-.0626116-.5009253-.4216118-.5134487-.4216118-.0500872-.8891421-.0500872-1.2648366 0-.1878467-.1878467-.3715193-.4675302-.655377-.3756945-.3256019.1878478-.4675302.4675303-.5134487.7973064l.0459195.5134487c-.3047293.2671601-1.0644665.5802387-.9809789.884968.091839.2337651.4675303.2337651.3756945.5176227-.1878478.1878468-.3798686.1043635-.6428547-.0626116-.2922058-.196196-.2755083-.5635412-.1377542-.7513879.1878468-.3756935.5969363-.5927611.9642815-.7764337-.091839-.4216129 0-.8432247.2379392-1.1688256.1836726-.2337652.4174378-.421613.6512029-.4675303.3297761-.0500872.5635412.2337651.7012954.4216118" fill="#fff" fill-rule="nonzero"/><path d="m30.8402998 11.7884416c.6345054.0041677 1.6280067-.1210577 1.8701211.1836726.1878467.2838577.1461024.8223521.4216119.8891421.329776.0459195.7138187-.0041677.855747.3256009.1669751.4758796.0834929.7513879-.0584439 1.0769899-.0960067.1878467-.292207.3506477-.4800537.4884019 0 .4717044.3339502 1.1563023.0793145 1.4652067-.0918389.1377542-.3965661-.0041677-.3882179.1335801.0709685.5426685.1335801 1.2356157-.1961949 1.7490644-.325602.2796824-.6971213-.258812-.7973063.033395.1377541 1.8242026.659551 3.3812451 1.7365409 4.7838359.4174378.4675302 1.0268963.7931322 1.636356.5134487.2796835-.1377542.4675302-.4675303.5134486-.7472138.0459195-1.5904375-1.8242037-2.4294871-2.1498046-3.8821704-.1878467-.6553781-.0500871-1.3566735.4174378-1.8242037.5176228-.4675303 1.3566723-.5593661 2.0120493-.3256009.2337652.0459194.4508328.2379392.4717055.5760635.0083354.2128935-.0500872.4508327-.3297761.4967512-.2337651.0500872-.5593671.0500872-.655377-.2337652-.0459195-.2337651-.2337651-.3589959-.4675303-.3715193-.3256019 0-.6094596.1377542-.7973063.3715193-.4508327.6637263-.0459195 1.4986018.3297761 2.0579678.7931311 1.2189182 2.4795796 2.4336623 1.4944265 3.9781824-.2796835.3715193-.6178078.5718895-1.0352455.621982-.751388.0459195-1.3024058-.2963811-1.7699361-.8098298-.3715192.6094596-.1377541 1.4025908.1878468 1.9619579.7012954.9601063 1.6864484 2.3334772 1.310755 3.0890393-.2337651.2796835-.7973063-.2337652-.7513879.3756934v2.1498046c-.0125245.5217969-.7054695.3548218-1.0268974.325602-.1419283-.0459195-.2170676-.2880329-.1252308-.4299612.1419283-.1836726.6052845.0667901.6386795-.1753243.0960067-.751388 0-1.5445192.0960067-2.3418255.0459195-.1836726.1878467-.3256009.3715193-.3256009.1419293-.0459195.3297761.091839.3756945-.0918389-.2796836-1.5904376-2.2458156-2.5755906-1.7323669-4.3997932l.2337652-.7012954c-.8807939-1.5111252-1.4485093-3.0848652-1.4485093-4.8631505.0459195-.1878467.0459195-.3715193.2337652-.4216118.3297761-.0459195.6428546.262986.7639113.1377542.1878467-.5134476-.0167029-1.0728147-.0626117-1.5862634.0459195-.3256009.6094597.0459195.5635413-.3715193l-.2379393-1.0769889c.2379393-.1878477.6094585-.3756944.655377-.7472138.1043634-.2796835-.0459195-.6094596-.3715193-.6094596-.3756945.0459195-.7012954-.1419283-.7472139-.4675303-.0500871-.2337651-.0626116-.5009252-.4216118-.5134476-.4216129-.0500872-.8891432-.0500872-1.2648366 0-.1878467-.1878478-.3715193-.4675302-.655377-.3756945-.3256019.1878467-.4675302.4675303-.5134487.7973064l.0459195.5134487c-.3047303.2671601-1.0644665.5802376-.9809789.884968.091839.2337651.4675303.2337651.3756934.5176227-.1878467.1878468-.3798675.1043635-.6428536-.0626116-.2922069-.196196-.2755094-.5635412-.1377542-.7513879.1878468-.3756945.5969352-.5927622.9642804-.7764348-.091839-.4216118 0-.8432236.2379403-1.1688256.1836726-.2337651.4174378-.4216119.6512029-.4675303.329775-.0500872.5635401.2337652.7012954.4216129z" stroke="#fff" stroke-width=".5"/><path d="m10.5444766 11.8802774c.2796836.3256019.325602.7931322.2796836 1.2147441.3756945.1419293.7973063.4675302.9350605.8432247.2755095.4967501-.3297761.6512029-.559366.7472127-.0960067.0459195-.2337651-.0459194-.2337651-.1377541-.0500872-.2838577.5301451-.2295911.3464725-.5718895-.1878467-.4216118-.6762486-.5050994-.9559322-.7388645.1419294-.3756945.091839-.8432247-.1878467-1.1229083-.1377542-.1419283-.3548218-.36317-.60528443-.1419283-.39239201.6386795-1.14377993.1711492-1.64887933.2671602-.52597207.0876606-.23793924.9350605-.97262966.9976764-.18784778.0459195-.50092528.0500872-.5468437.329775-.06679003.3130786.1252308.6512029.40908846.8390507.58441283.2295899.26298603.6428535.12523185 1.0519431-.07096842.2045442-.13775419.396565.0375734.4383093.18784672.0459195.46753026-.06679.46753026.2128935-.04591949.5134476-.19202082 1.4902525.02087056 1.5987858.1836726.0793144.49675118-.392391.75138793-.1210567.1836726.2796835.13775524.7012954.09183897 1.0769899-.09183897 1.0268963-.37569451 1.9619568-.79313223 2.8510989l-.60945856 1.3566734c.3715193.7472128.3256009 1.8701211-.09183897 2.5714165-.47170438.8432237-1.49442656 1.8909927-1.40676491 2.525498-.01670287.1836726.72216701-.2045442.75138793.2796836.03757339.8014804.03757339 1.64053.09183897 2.4336612.02504894.229591.60945854-.0960067.65537698.2796835.0041677.2212417-.00416771.3297761-.27968356.3297761-.32977609 0-.8766187.1168826-.88914213-.4216119l-.04592374-2.2917339c-.0793145-.3673452-.60945854.1836726-.75138792-.2337652-.3256009-1.9661309 2.35434882-2.9930282 1.56121766-5.0050776l-.15862688.2045442c-.51344868.5593661-1.09368633.722167-1.88681855.4884019-.60945856-.2337651-.98097897-.7138188-1.03524559-1.4025908.04591949-1.8242026 2.3167797-2.7509149 2.27086128-4.5751176 0-.3256009-.18784672-.6553769-.51762278-.7973063-.18367262-.1377542-.51344868-.1377542-.74721382 0-.27968248.1419294-.18784672.5092746-.54684264.5677153-.25463781.058444-.5677153-.0500872-.61363372-.3339502-.0500872-.2629849.00833539-.5844128.31725267-.7472127.60945854-.2796836 1.49860173-.2337651 2.06214187.1419283.55936711.4675302.69712128 1.2606625.46335616 1.9160394-.27968356 1.310754-1.77411012 2.1539788-2.10388619 3.4146402-.09183897.3756945 0 .7012954.18784673.9809789.23376512.2838577.51344868.3756945.84322474.3756945.93506053-.0918389 1.42346242-.9350605 1.79498174-1.6363559.5635412-1.1229083 1.03524558-2.3084315 1.081164-3.6150113.10853433-.5677153-.67207449.2254169-.81817797-.1753233-.27968354-.5593671-.1836726-1.27736-.10436344-1.8409012-.1878467-.0459195-.5510178-.0292167-.5510178-.3089034 0-.4216119.24628853-.918363.1878467-1.1688257-.28385766-.2337651-.5468437-.5510178-.65537696-.985153-.04591951-.2755095-.04591951-.5677154.15862578-.7555621.32977609-.2796835 1.00602576-.0083354 1.01019986-.5969362.06261165-.2588119.12105667-.5802387.51344869-.655377.51344762-.0960067 1.30240574.1335801 1.49860066 0 .18367262-.1419294.32560196-.4216129.60528553-.4216129.2880318-.0208705.6094585.1878478.7973053.4675303" fill="#fff" fill-rule="nonzero"/><path d="m10.5444766 11.8802774c.2796836.3256019.325602.7931322.2796836 1.2147441.3756934.1419282.7973063.4675302.9350605.8432236.2755084.4967512-.3297761.6512029-.5593671.7472138-.0960066.0459195-.2337651-.0459194-.2337651-.1377541-.0500872-.2838577.5301462-.2295911.3464736-.5718895-.1878467-.4216129-.6762486-.5051004-.9559322-.7388656.1419283-.3756934.091839-.8432236-.1878467-1.1229072-.1377552-.1419283-.35482286-.3631711-.60528549-.1419283-.39239095.6386795-1.14377887.1711492-1.64887827.2671602-.52597207.0876606-.23794031.9350605-.97263072.9976753-.18784672.0459195-.50092528.0500872-.54684264.3297761-.06679003.3130786.1252308.6512029.40908846.8390496.58441283.229591.26298603.6428546.12523185 1.0519431-.07096842.2045453-.13775526.3965661.0375734.4383104.18784672.0459195.46753026-.06679.46753026.2128925-.04591949.5134486-.19202189 1.4902535.02087056 1.5987868.1836726.0793144.49675118-.392391.75138793-.1210567.1836726.2796835.13775418.7012954.09183897 1.0769888-.09183897 1.0268974-.37569451 1.9619579-.79313223 2.8511l-.60945856 1.3566724c.3715193.7472138.3256009 1.870121-.09183897 2.5714164-.47170438.8432248-1.49442656 1.8909938-1.40676491 2.5254991-.01670287.1836726.72216701-.2045453.75138793.2796825.03757339.8014805.03757339 1.6405311.09183897 2.4336623.02504894.229591.60945962-.0960067.65537805.2796835.00416769.2212417-.0041677.3297761-.27968357.3297761-.32977606 0-.87661976.1168826-.8891421-.4216129l-.04592483-2.2917329c-.0793145-.3673452-.60945962.1836726-.75138792-.2337652-.32560196-1.966132 2.35434882-2.9930282 1.56121659-5.0050787l-.15862581.2045453c-.51344868.5593661-1.09368739.722167-1.88681855.4884019-.60945963-.2337651-.98097897-.7138188-1.03524559-1.4025908.04591949-1.8242026 2.3167797-2.7509149 2.27086128-4.5751176 0-.3256019-.18784672-.6553769-.51762278-.7973063-.18367262-.1377542-.51344868-.1377542-.74721382 0-.27968355.1419294-.18784672.5092746-.5468437.5677153-.25463675.058444-.56771533-.0500872-.61363266-.3339502-.0500872-.262986.00833539-.5844128.31725267-.7472138.60945854-.2796825 1.49860067-.2337651 2.06214187.1419294.55936711.4675302.69712128 1.2606614.46335616 1.9160394-.27968356 1.310754-1.77411012 2.1539788-2.10388619 3.4146402-.09183897.3756945 0 .7012954.18784673.9809789.23376512.2838577.51344868.3756935.84322474.3756935.93506053-.091839 1.42346242-.9350606 1.79498174-1.636356.5635412-1.1229072 1.03524558-2.3084304 1.081164-3.6150102.10853327-.5677153-.67207449.2254158-.81817797-.1753244-.27968354-.559366-.1836726-1.2773589-.10436344-1.8409001-.18784779-.0459195-.5510178-.0292167-.5510178-.3089034 0-.4216129.24628746-.918363.1878467-1.1688257-.28385766-.2337651-.5468437-.5510178-.65537696-.985153-.04591951-.2755095-.04591951-.5677154.15862578-.7555631.32977609-.2796825 1.00602468-.0083354 1.01019986-.5969352.06261165-.2588119.12105667-.5802387.51344762-.6553781.51344869-.0960066 1.30240572.1335801 1.49860173 0 .18367262-.1419283.32560196-.4216118.60528446-.4216118.28803287-.0208705.60945957.1878467.79730637.4675303z" stroke="#fff" stroke-width=".5"/><path d="m20.6297723 12.1724843-.525971.2922059-1.1896973.6470288c.1878467.1878467.3798676.4341352.1836726.6804237-.1878478.2796836-.3381253.4967512-.6637262.6845979-.1419294.0459195-.3297761-.06679-.3297761-.2087194.0960067-.3756934.6929472-.525971.4383093-.8766187l-1.0769888-1.0728147c-.0918389-.1168826-.1127084-.1544528-.0417411-.2922069.1168826-.1168826.2128935-.1085333.3715204.0542655l.7388645.5969363 1.736541-.8766188c.425786-.2337651.5510178.2462875.3589959.3715194" fill="#fff" fill-rule="nonzero"/><path d="m20.6297723 12.1724843-.525971.2922059-1.1896973.6470288c.1878467.1878467.3798676.4341352.1836726.6804237-.1878478.2796825-.3381253.4967501-.6637262.6845979-.1419294.0459195-.3297761-.06679-.3297761-.2087194.0960067-.3756934.6929472-.525971.4383093-.8766187l-1.0769888-1.0728158c-.0918389-.1168825-.1127084-.1544517-.0417411-.2922058.1168826-.1168826.2128935-.1085344.3715204.0542655l.7388645.5969363 1.736541-.8766198c.425786-.2337652.5510178.2462885.3589959.3715204z" stroke="#fff" stroke-width=".5"/><path d="m9.88492557 13.2244274c-.12105669.2713343-.43413527.2546368-.60945964.5384944-.1252308.0542656-.18367262-.162801-.18367262-.162801-.06261163-.42996.48422779-.6512028.78895814-.7597361.03757339.0375734.06679003.3297761.0041677.3840427" fill="#fff" fill-rule="nonzero"/><path d="m9.88492557 13.2244274c-.12105775.2713343-.43413527.2546368-.60945964.5384944-.1252308.0542656-.18367262-.162801-.18367262-.162801-.06261163-.4299611.48422779-.6512028.78895706-.7597361.03757341.0375734.06679005.329775.00416771.3840427z" stroke="#fff" stroke-linecap="square" stroke-width=".5"/><path d="m8.47816064 14.1135695c.10436347.196196-.22541689.0459195-.5635412.1711492-.06679003.0375734-.32560196.1544528-.50092528 0l-.16697509-.1461024c.30472927-.2128935 1.01019878-.6470287 1.23144157-.0250489" fill="#fff" fill-rule="nonzero"/><path d="m8.47815958 14.1135695c.10436346.196196-.22541583.0459195-.56354014.1711492-.06679003.0375734-.32560196.1544517-.50092528 0l-.16697509-.1461035c.30472927-.2128924 1.01019878-.6470276 1.23144051-.0250489z" stroke="#fff" stroke-linecap="square" stroke-width=".5"/><path d="m9.60106789 14.6353664c0 .129406-.10018504.3047304.12105667.2838577.23793924-.058444.50092534-.2045442.73469044-.2796825.0375734.7472127-.76391133.6011103-1.17717389.5134476-.12940598.3840427-.77226062 1.1813491-1.21056996.6261572 0-.0667901.73886451-.3506477.72216701-.4800537.04591948-.1753233-.49257599-.2504627-.23793924-.5718894.17949849-.1586269.5593671.3256009.64702876-.0292167.02921661-.4591809.45500685-.4508327.40074021-.0626116" fill="#fff" fill-rule="nonzero"/><path d="m9.60106789 14.6353664c0 .129406-.10018504.3047293.12105667.2838577.23793924-.058444.50092534-.2045442.73469044-.2796836.0375734.7472138-.76391133.6011104-1.17717497.5134487-.1294049.3840427-.77225954 1.1813491-1.21056888.6261572 0-.0667901.73886451-.3506477.72216701-.4800537.04591948-.1753244-.49257599-.2504627-.23793924-.5718894.17949849-.1586269.55936601.3256009.64702876-.0292167.02921661-.459182.45500685-.4508327.40074021-.0626116z" stroke="#fff" stroke-linecap="square" stroke-width=".5"/><path d="m10.686406 15.9878647c.1210567.1711502-.3214268.425787-.5802387.5593671-.27968356.1419283-.80148048.3297761-.97262967.2254158-.06261165-.0375734-.11688257-.2003701-.02087055-.3130775.11270739-.1669751 1.00185052-.555193 1.17717382-.6136337.225417-.0876606.3172527-.033395.3965662.1419283" fill="#fff" fill-rule="nonzero"/><path d="m10.686406 15.9878647c.1210567.1711492-.3214268.425787-.5802387.5593671-.27968356.1419283-.80148048.329775-.97262967.2254158-.06261165-.0375734-.11688257-.2003701-.02087055-.3130786.11270739-.166975 1.00185052-.5551919 1.17717382-.6136326.225417-.0876606.3172527-.033395.3965651.1419283z" stroke="#fff" stroke-linecap="square" stroke-width=".5"/><path d="m23.9275503 25.1047048s.0083161 1.0101999-.3214461 1.0268974c-.3715204-.0167029-.3464736-1.0602924-.3464736-1.0602924h-1.1354307s0 1.0352456-.3089044 1.0602924c-.3339502-.0125245-.3464725-1.0602924-.3464725-1.0602924h-1.1813491s.0125245 1.047769-.3214268 1.0853381c-.3214279-.0375734-.3339502-1.0853381-.3339502-1.0853381h-1.1688256s.0584439 1.0602924-.3047304 1.0728158c-.396565-.0375734-.36317-1.0728158-.36317-1.0728158h-1.1563034s.058444 1.0227233-.3089033 1.014374c-.3840427 0-.3339502-.9935013-.3339502-.9935013v-8.6701825h7.9313363z" fill="#fff" fill-rule="nonzero"/><path d="m16.6682885 16.9897153h1.1563022v1.4067659h-1.1563022zm1.7824594-.0125224h1.1729997v1.4067649h-1.1729997zm1.836726 0h1.1813491v1.4067649h-1.1813491zm1.836726 0h1.1354307v1.4067649h-1.1354307z" fill="#0030a1" fill-rule="nonzero"/><path d="m29.8050543 19.5319119c.3715193 1.1229072 1.6447041 1.7031459 1.8784693 2.8719716.0459194 1.0268963-1.1229073 1.5445191-.9809779 2.5714164.2796824.7472128.6512028 1.1563023.8473978 2.3293021.4216129 0 .6345053-.8098287.7889581-.8807939.2629849-.1544517.4675303.2755094.6720745.5802387.4299611.7179929.4967511 1.8075051.1711492 2.5547189l-.5301462.9726297c-.0459195.229591.06679.7096447-.2212417.7597372-.1377542.0459195-.2588109-.0417411-.3339502-.1586269-.0751361-.1127074-.0208706-.7305152.0542655-.8265262.091839-.1168825.9350606-1.4944276.7012954-2.3835697-.0918389-.2796836-.1878467-.5134487-.3756934-.7012954-.325602.3715193-.7931322.655377-1.3065798.6052844-.1836727-.0041677-.1544528-.822352-.2838577-1.1688256-.229591-.884968-1.1187331-1.6822733-.5593671-2.6632522.3297761-.655377 1.2648366-1.310755.5593671-2.1038862-.5134487-.6094596-1.081164-1.0519431-1.3608475-1.7991569-.0459195-.2337651-.0459195-.6052845.2796835-.559366" fill="#fff" fill-rule="nonzero"/><path d="m29.8050543 19.5319108c.3715193 1.1229083 1.6447041 1.703146 1.8784693 2.8719716.0459194 1.0268974-1.1229073 1.5445202-.9809779 2.5714165.2796824.7472138.6512028 1.1563033.8473978 2.3293031.4216129 0 .6345053-.8098298.7889581-.8807939.2629849-.1544517.4675303.2755094.6720745.5802387.4299611.7179929.4967511 1.8075051.1711492 2.5547189l-.5301462.9726297c-.0459195.229591.06679.7096447-.2212417.7597372-.1377542.0459195-.2588109-.0417411-.3339502-.1586269-.0751361-.1127084-.0208706-.7305163.0542655-.8265262.091839-.1168825.9350606-1.4944276.7012954-2.3835697-.0918389-.2796836-.1878467-.5134487-.3756934-.7012954-.325602.3715193-.7931322.655377-1.3065798.6052844-.1836727-.0041677-.1544528-.822352-.2838577-1.1688256-.229591-.884968-1.1187342-1.6822744-.5593671-2.6632522.3297761-.6553781 1.2648366-1.310755.5593671-2.1038862-.5134487-.6094596-1.081164-1.0519431-1.3608475-1.7991569-.0459195-.2337651-.0459195-.6052845.2796846-.5593671z" stroke="#fff" stroke-width=".5"/><path d="m10.523605 19.7364561c-.0459195.985153-.91418889 1.5445191-1.47772903 2.3376513-.69294718.8640964.98097793 1.64053.8432237 2.7592631-.09183897.7054696-.48422779 1.1938725-.71799293 1.8450754l-.32142678 1.0936863c-.16697507.2546367-.7054695-.0876606-1.03524556-.3715193-.09183897-.0459195-.17114922-.2755095-.30890448-.1335801-.42161184.5593661-.47170436 1.310754-.28385764 1.966132.14192936.4675303.65120286.8766187.70129538 1.214743.03757341.2379403.0793145.8307014-.18367262.8891432-.5677153.0208706-.1878467-.655378-.3756934-.9350605-.53014619-.6804238-.80982975-1.4610326-.68042377-2.4253141.12940595-.592761.49675115-1.314928.86827047-1.4526833.24211443-.0083354.27550946.2421144.50927458.5092746.15445169.1168826.40908844.3798686.39656505.1920208l.34229947-1.0018506c.25463675-.6345053.99350127-1.3650205.34229841-2.1372812-.46753026-.6553769-1.11038384-1.4234624-.59693516-2.2207687.56354014-.7931312 1.32327735-1.4276365 1.60713501-2.3167786.1836726-.2337652.3715193.0500871.3715193.1878467" fill="#fff" fill-rule="nonzero"/><path d="m10.523605 19.7364561c-.0459195.985153-.91418889 1.5445191-1.47773009 2.3376513-.69294612.8640953.98097899 1.64053.84322476 2.7592631-.09183897.7054696-.48422779 1.1938714-.71799293 1.8450743l-.32142678 1.0936874c-.16697507.2546367-.70547056-.0876606-1.03524556-.3715193-.09183897-.0459195-.17115028-.2755095-.30890448-.1335801-.42161184.5593661-.47170436 1.310754-.28385764 1.9661309.14192936.4675303.65120286.8766198.70129538 1.2147441.03757341.2379393.0793145.8307014-.18367262.8891421-.5677153.0208706-.1878467-.6553769-.3756934-.9350605-.53014619-.6804227-.80982975-1.4610315-.68042377-2.425313.12940595-.592761.49675115-1.3149291.86827047-1.4526833.24211336-.0083354.27550838.2421144.5092735.5092746.15445277.1168826.40908952.3798675.39656613.1920208l.34229947-1.0018506c.25463675-.6345053.99350127-1.3650216.34229841-2.1372812-.46753026-.6553769-1.11038384-1.4234624-.59693622-2.2207687.5635412-.7931312 1.32327841-1.4276365 1.60713607-2.3167797.1836726-.2337651.3715193.0500872.3715193.1878478z" stroke="#fff" stroke-width=".5"/><path d="m17.7953709 20.4001824h-1.1563033v-1.4192884h1.1563033zm.655377-1.4192883h1.1729997v1.4192883h-1.1729997zm3.0180751 1.4192883h-1.1855232l.0041677-1.4192884h1.1813491zm1.7908076 0h-1.1437799l.0083353-1.4192884h1.1354307z" fill="#0030a1" fill-rule="nonzero"/><path d="m30.1139577 22.0657581c.1419293.0459195.3256019.0459195.3256019.2337651 0 .1419294-.0918389.2337652-.2337651.2337652-.655377-.1377542-1.047769-.8307003-1.6572275-1.0185481-.325602-.091839-.5593671.1878478-.7012954.4216129l-.6345054 1.5152982c.1878467.2337651.7012954-.0459195.7012954.3756945.0459195 1.2940564-.3005552 2.5046264-1.4693808 3.0180751-.9350606.5551919-.555193.9935012-.7012954 1.1229072-.091839.0960067-.2337652.0960067-.325602.0459195-.1878467-.1836726-.1419283-.5134487-.0960067-.7472138.3297761-.7931322 1.3566735-.7472138 1.6864485-1.5904375.2796835-.4675303.4884029-1.0561183.4383104-1.6655768-.1878478-.1377542-.655378-.0459195-.655378-.4174378.0960066-.7973063.4717054-1.4902524.8682704-2.0788404.1878479-.2337652.421613-.4675303.7054706-.4675303.7012954.0459195 1.0936864.8307014 1.7490633 1.0185481" fill="#fff" fill-rule="nonzero"/><path d="m30.1139577 22.0657581c.1419293.0459195.3256019.0459195.3256019.2337651 0 .1419294-.0918389.2337652-.2337651.2337652-.655377-.1377542-1.047769-.8307014-1.6572275-1.0185481-.325602-.091839-.5593671.1878467-.7012954.4216118l-.6345054 1.5152993c.1878467.2337651.7012954-.0459195.7012954.3756945.0459195 1.2940564-.3005552 2.5046264-1.4693808 3.018074-.9350606.555193-.555193.9935023-.7012954 1.1229083-.091839.0960067-.2337652.0960067-.325602.0459195-.1878467-.1836726-.1419283-.5134476-.0960067-.7472127.3297761-.7931323 1.3566735-.7472139 1.6864485-1.5904386.2796835-.4675303.4884029-1.0561172.4383104-1.6655758-.1878478-.1377552-.655378-.0459195-.655378-.4174377.0960066-.7973064.4717054-1.4902535.8682704-2.0788405.1878479-.2337651.421613-.4675302.7054706-.4675302.7012954.0459195 1.0936864.8307013 1.7490633 1.018548z" stroke="#fff" stroke-width=".5"/><path d="m12.3394594 21.5898796.818178 1.5486943c.1168826.2713343.1461035.5677153.0083354.6178078l-.5426685.1920209c-.2170677.0500871-.025049 1.5319967.6971213 2.2249428.5134476.5635412 1.6363559.7472138 1.3566723 1.6864485 0 .0918389-.0459195.229591-.1419293.229591-.4675303.0500872-.2128925-.6178078-.4174378-.7472138-.5635401-.559366-1.3024057-.7012954-1.6530534-1.5862634-.2838577-.5635402-.4466576-1.8450743-.36317-2.0454444.1419283-.2337651.7430386-.0918389.626156-.3840427l-.7179929-1.5027759c-.1836726-.2337651-.3923909-.4132636-.7012954-.2337651-.559366.2337651-.755562.7472138-1.36084645.8390496-.23376512.0500872-.40074021-.2421134-.24628853-.3506477l.31307858-.1377542c.7012954-.2880317.7430386-.5510178 1.3900674-.8640964.2796835-.13358.688772.0292167.9350605.5134487" fill="#fff" fill-rule="nonzero"/><path d="m12.3394594 21.5898796.818178 1.5486932c.1168826.2713354.1461024.5677153.0083354.6178079l-.5426685.1920219c-.2170677.0500871-.025049 1.5319967.6971202 2.2249428.5134487.5635412 1.6363559.7472138 1.3566734 1.6864485 0 .0918389-.0459195.229591-.1419293.229591-.4675303.0500872-.2128935-.6178078-.4174378-.7472138-.5635412-.559366-1.3024057-.7012954-1.6530534-1.5862634-.2838577-.5635412-.4466587-1.8450743-.3631711-2.0454444.1419294-.2337651.7430397-.0918389.6261571-.3840427l-.7179929-1.5027759c-.1836726-.2337651-.392392-.4132636-.7012954-.2337651-.5593671.2337651-.755562.7472128-1.36084752.8390496-.23376512.0500872-.40074021-.2421144-.24628746-.3506477l.31307748-.1377542c.7012954-.2880328.7430397-.5510178 1.3900685-.8640964.2796825-.13358.688772.0292167.9350605.5134487z" stroke="#fff" stroke-width=".5"/><path d="m16.6390676 20.98042h1.1563033v1.4318117h-1.1563033zm1.8116803 0h1.1729997v1.4318117h-1.1729997zm3.0180751 1.4318117h-1.1813491l-.0041677-1.4318117h1.1855232zm.6553769-1.4318117h1.1354307v1.4318117h-1.1354307z" fill="#0030a1" fill-rule="nonzero"/><path d="m26.5031215 22.0741074c.1753233 2.8552741-1.5486942 5.4559104-4.0700182 7.1089638-.7973063.5176228-1.444334.8891432-2.4754055 1.1437799-2.7676124-1.0143739-5.9067442-3.6692779-6.328356-6.8000604-.091839-.6094596-.1794985-1.1312565-.0834929-1.7866335.2337651.0459195.4758785.0167029.6595511.06679-.1836726 2.9429358 1.4819042 5.3682488 3.9614849 6.8626764.6094585.329775 1.214743.655377 1.8242026.8432237 2.6173349-.8891421 5.3306796-3.3228044 5.7522915-6.127986.0918389-.559366.1252318-1.0310714.0793145-1.5904375.2212417-.0417411.4132636-.0542655.6345053-.0918389z" fill="#fff" fill-rule="nonzero" stroke="#fff" stroke-width=".5"/><path d="m16.6390676 22.9882963h1.1563033v1.4067649h-1.1563033zm2.9805059 1.4067649h-1.1688256v-1.4192883h1.1688256zm1.8492495 0h-1.1855232v-1.4192883h1.1855232zm1.7908076 0h-1.1354307v-1.4192883h1.1354307z" fill="#0030a1" fill-rule="nonzero"/><path d="m30.1306552 23.1886664c.0459195.091839.0459195.2337651-.0459195.2796825-.3297761.091839-.6762497-.0500872-.9100148.3673452-.4216119.5635412-.0960067 1.310755.1377542 1.8742962.0459195.1628-.1377542.2337652-.2796825.1836727-.2796836-.0459196-.325602-.4174378-.4216129-.6052856-.2337651-.6094585-.1878467-1.4526833.2838576-1.9202136.325602-.3715193 1.0978616-.3840427 1.2356157-.1794974" fill="#fff" fill-rule="nonzero"/><path d="m30.1306552 23.1886654c.0459195.0918389.0459195.2337651-.0459195.2796835-.329775.091839-.6762486-.0500872-.9100137.3673452-.4216119.5635412-.0960067 1.310755.1377541 1.8742952.0459195.162801-.1377541.2337651-.2796824.1836726-.2796836-.0459195-.325602-.4174378-.421613-.6052845-.2337651-.6094585-.1878467-1.4526833.2838577-1.9202136.325602-.3715193 1.0978615-.3840427 1.2356168-.1794985z" stroke="#fff" stroke-width=".5"/><path d="m11.2290745 23.4641748c.4216129.5134487.4216129 1.310755.1878478 1.9160395-.091839.2170676-.2003701.6762486-.6303312.5802387l-.1043635-.1586269c-.1085343-.262986.7722596-1.5236475.1043635-2.0621419-.358997-.3715204-.91001483.2546368-.89331733-.425787-.00833539-.2922059.85574813-.3464736 1.33580073.1502776" fill="#fff" fill-rule="nonzero"/><path d="m11.2290745 23.4641748c.4216119.5134487.4216119 1.3107539.1878467 1.9160395-.0918389.2170676-.2003701.6762486-.6303301.5802376l-.1043635-.1586258c-.1085333-.262986.7722606-1.5236475.1043635-2.0621429-.358997-.3715194-.91001483.2546378-.89331733-.425786-.00833539-.292207.85574713-.3464736 1.33580073.1502776z" stroke="#fff" stroke-width=".5"/><path d="m28.452556 26.357018c-.0083354.3047304-.2128935.2963811-.325602.4132636-.3715193.4675303-.3715193 1.2147441-1.0268962 1.4025908-.2337652.0459195-.4967512.058444-.655377-.0500871-.091839-.091839-.091839-.2337652-.0459195-.3256009.1419283-.2337652.4174377-.0167029.6011103-.1043635.5635412-.3715193.4299612-1.2063948 1.081164-1.5319957.1586258-.0459195.3214268-.0751361.3715193.196195" fill="#fff" fill-rule="nonzero"/><path d="m28.452556 26.357018c-.0083354.3047293-.2128935.2963811-.325602.4132636-.3715193.4675303-.3715193 1.2147441-1.0268962 1.4025908-.2337652.0459195-.4967512.058444-.655377-.0500871-.091839-.091839-.091839-.2337652-.0459195-.325602.1419283-.2337652.4174377-.0167029.6011103-.1043635.5635412-.3715193.4299612-1.2063948 1.081164-1.5319967.1586258-.0459195.3214268-.0751361.3715193.196196z" stroke="#fff" stroke-width=".5"/><path d="m12.7276763 27.5091462c.1920219.4299611 1.0978615-.0876606.9141889.6261571-.1252319.1127085-.5468437.0417411-.7806089-.0041677-.7472138-.2796835-.5760635-1.1646515-1.2314415-1.540346-.1210567-.0834929-.0960067-.3756935.0918389-.3756935.7513879.0459195.7096437.7597362 1.0060247 1.2940565" fill="#fff" fill-rule="nonzero"/><path d="m12.7276763 27.5091462c.1920208.4299611 1.0978615-.0876606.9141889.6261571-.1252319.1127074-.5468437.0417411-.7806089-.0041677-.7472138-.2796825-.5760646-1.1646505-1.2314415-1.540345-.1210567-.0834929-.0960067-.3756934.0918389-.3756934.7513879.0459195.7096437.7597361 1.0060247 1.2940565z" stroke="#fff" stroke-width=".5"/><path d="m21.7568547 26.845421c.058444.2212417-.2045442.4717043-.4049143.5092735-.2212428.0542656-.3756945-.1753233-.4842278-.3422984 0 0-.162801-.3548229-.0250489-.2170677.2546367.1878468.7472138-.229591.9141889.0500872" fill="#fff" fill-rule="nonzero"/><path d="m21.7568547 26.8454199c.058444.2212428-.2045442.4717054-.4049143.5092746-.2212428.0542656-.3756945-.1753244-.4842278-.3422995 0 0-.162801-.3548218-.0250489-.2170676.2546367.1878478.7472138-.22959.9141889.0500872z" stroke="#fff" stroke-linecap="square" stroke-width=".5"/><path d="m19.2063099 26.7744558c.1127085.2212428-.162801.4758795-.3256009.525972-.1669751.0542656-.4424845 0-.555193-.2212417-.0584439-.058444-.0584439-.2254169 0-.3381254.0709684-.2003701.6011104.2546379.8807939.0333951" fill="#fff" fill-rule="nonzero"/><path d="m19.2063099 26.7744558c.1127085.2212417-.162801.4758795-.3256009.525972-.1669751.0542656-.4424845 0-.555193-.2212428-.0584439-.0584439-.0584439-.2254158 0-.3381243.0709684-.2003701.6011104.2546368.8807939.0333951z" stroke="#fff" stroke-linecap="square" stroke-width=".5"/><path d="m19.9284769 28.8032037c-.5092735-.2546368-.6804227-1.4359858 0-2.0037011.7221681.4257859.5969362 1.7866335 0 2.0037011" fill="#fff" fill-rule="nonzero"/><path d="m19.9284769 28.8032037c-.5092735-.2546378-.6804237-1.4359858 0-2.0037011.722167.4257859.5969362 1.7866335 0 2.0037011z" stroke="#fff" stroke-linecap="square" stroke-width=".5"/><path d="m18.1084484 5.017601.521798.61780785.5384944-.62198197-.5384944-.61363372z" fill="#fff" fill-rule="nonzero"/><path d="m18.6302453 4.39979316-.525971.61780784.525971.61780785.5384955-.62198197z" stroke="#fff" stroke-width=".5"/><path d="m20.7717017 5.017601.5217969.61780785.5384944-.62198197-.5384944-.61363372z" fill="#fff" fill-rule="nonzero"/><path d="m21.2934986 4.39979316-.5217969.61780784.5217969.61780785.5384944-.62198197z" stroke="#fff" stroke-width=".5"/><path d="m25.4177834 12.1140425c.1419294.1085343.1794985-.425786.4132636-.4299611l.459181.4299611c.0417411.1878467-.6136327.3798686-.3882168.8974914.5134487.9350605 1.4777301 1.8158544 2.3668722 2.329302.2421134.1461035-.3214268.6595522-.3214268 1.081164.22959.1085344.7680855.0960067.7764337.4174378.2546367 1.8116803-3.6901496 1.7657619-3.1057368 3.7110212.1168826.2337651.425787.1753244.5551919.0584439.1920219-.1168826.1335801-.6845979.2713354-1.0143739.2337651-.5134487.8432237-.5593661 1.4025908-.5593661.329775.0459195.1085332.7096436.5134476.5593661.4717054-.4633562.5176228-1.1688257 1.0769899-1.4944266.1419283-.0459195.2838576 0 .329776.1419283-.0459194.325602-.3214278.6052844-.5051004.8682705-.1878467.3256019-.3381243.7680854-.7597362.9058396-.1878467.0960067-.4675302.0960067-.6052844-.0459195-.2337651-.1377552-.0960067-.4675303-.3756945-.5134487-.2796835 0-.5635412.0459195-.7012954.3256009-.1878467.421613.0250489 1.1688257-.6094586 1.2982316-.3256019.0459195-.7096446.129406-.9434098-.196196-.2045442-.2838576-.3422984-1.5194733.5510178-2.1247578v-3.21427h-4.9758578c.1419294-.2796835.5593671-.4466586.884968-.492577h2.2207688c.1836726-.3214268.3715193-.980979.3715193-.980979.0834929-.1878467-.1419283-.2838576-.2128924-.4884019-.0500872-.1335801-.0709685-.2421133-.0793145-.3965661.0208705-.4216118.2045442-.6428536.5468437-.9809779.1878467-.1377552.525971-.4216129.7012953-.2796835z" fill="#fff" fill-rule="nonzero" stroke="#fff" stroke-width=".5"/><path d="m24.5077697 15.0528042h1.9160384l.0167028 3.3561994.0459195-.025049c.6929472-.3130785 1.21057-.4633561 1.6906226-1.0268974.425787-.5844128-.425786-.4717043-.6595511-.6094585-.2379392-.1502776.1878467-.7054695.2337651-1.1229072-1.214744-.6094597-2.1038861-1.9202136-2.621509-3.0890393-.229591-.2337651-.5384944.2504627-.6052844.4675303-.0960067.1878467.0459195.4216118.2337651.5635401.1377542.091839.2212418.2880329.1294049.4758796-.1753233.4090884-.2045442.5468437-.2045442.5468437-.0709684.1627999-.1252308.4967501-.1753233.463355" fill="#0030a1" fill-rule="nonzero"/><path d="m24.5077686 15.0528042h1.9160395l.0167028 3.3561994.0459195-.025049c.6929472-.3130785 1.21057-.4633561 1.6906226-1.0268974.425787-.5844128-.425786-.4717043-.6595511-.6094585-.2379392-.1502776.1878467-.7054706.2337651-1.1229083-1.214744-.6094586-2.1038861-1.9202136-2.621509-3.0890393-.229591-.2337651-.5384954.2504627-.6052855.4675303-.0960066.1878478.0459195.4216129.2337662.5635412.1377542.091839.2212418.2880318.1294049.4758796-.1753233.4090884-.2045442.5468426-.2045442.5468426-.0709684.162801-.1252318.4967512-.1753244.4633561z" stroke="#fff" stroke-width=".5"/><path d="m15.1321176 13.934071c-.091839-.3715193.4633562-.3923909.3715193-.7680854-.0876606-.3130786-.4090884-.7305163-.5635401-.6303312-.325602.3715203-.4675303.9350605-.7931322 1.4025907-.4675303.7012954-1.1729998 1.3107551-1.8742952 1.6822744-.1127085.1294059.4049143.918363.2796835 1.1229072-.229591.1419294-.8390506 0-.6971212.4216129.3715193.655377 1.0728147.9935013 1.7281916 1.2731849v-3.4021178h1.9410863z" fill="#0030a1" fill-rule="nonzero" stroke="#fff" stroke-width=".5"/><path d="m17.995741 9.85153052c0-.25881192.2087183-.46753027.4675303-.46753027.262985 0 .4717043.20871833.4717043.46753027 0 .26298608-.2087193.47170438-.4717043.47170438-.258812 0-.4675303-.2087183-.4675303-.47170438m12.193356 3.41881528c.1210567.2671602.4341352.2504627.6094585.5343203.1252319.058444.1878478-.1586268.1878478-.1586268.058444-.4299612-.4842277-.6512029-.7931322-.7597362-.0375734.0375734-.06679.329775-.0041677.3840427" fill="#fff" fill-rule="nonzero"/><path d="m30.189097 13.2703448c.1210567.2671612.4341352.2504637.6094585.5343213.1252319.058444.1878468-.1586268.1878468-.1586268.0584439-.4299612-.4842278-.6512029-.7931312-.7597362-.0375734.0375734-.06679.329775-.0041677.3840417z" stroke="#fff" stroke-linecap="square" stroke-width=".5"/><path d="m31.5958619 14.1594879c-.1043634.1920209.2254169.0459195.5677153.1711492.0626117.0375734.3214268.1502776.4967512-.0041677l.1669751-.1419293c-.3047293-.217074-1.0101999-.6512093-1.2314416-.0250522" fill="#fff" fill-rule="nonzero"/><path d="m31.5958619 14.1594879c-.1043634.1920209.2254158.0459195.5677153.1711492.0626117.0375734.3214268.1502776.4967512-.0041677l.1669751-.1419293c-.3047304-.217074-1.0101999-.6512093-1.2314416-.0250522z" stroke="#fff" stroke-linecap="square" stroke-width=".5"/><path d="m30.4729546 14.6771107c0 .129406.1001851.3047293-.1168825.2880318-.2421144-.058444-.5050994-.2045442-.7388645-.2838577-.0375735.751388.7639102.6052845 1.1771738.5134487.129406.3882169.7722596 1.1813491 1.21057.6261561 0-.0626117-.7388656-.3506477-.7179929-.4758785-.0500872-.1753244.4884019-.2546367.2337651-.5760646-.1753244-.1544517-.555193.3297761-.6428546-.0292166-.0292167-.4591821-.459181-.4466587-.4049144-.0626117" fill="#fff" fill-rule="nonzero"/><path d="m30.4729546 14.6771107c0 .1294049.1001851.3047293-.1168825.2880318-.2421144-.058444-.5050994-.2045442-.7388645-.2838577-.0375735.751388.7639102.6052845 1.1771738.5134487.129406.3882169.7722596 1.181348 1.21057.6261561 0-.0626117-.7388656-.3506477-.7179929-.4758785-.0500872-.1753244.4884019-.2546378.2337651-.5760646-.1753244-.1544517-.555193.3297761-.6428546-.0292166-.0292167-.459181-.4591821-.4466576-.4049144-.0626117z" stroke="#fff" stroke-linecap="square" stroke-width=".5"/><path d="m29.3876165 16.029609c-.1210566.1711492.3214268.4299611.5802388.5635412.2796824.1377542.8014804.329775.9726296.2212417.0626117-.0375734.1210567-.196196.025049-.3130785-.1168826-.1669751-1.0060247-.5510178-1.181348-.6136338-.225417-.0876605-.3172527-.033395-.3965662.1419294" fill="#fff" fill-rule="nonzero"/><path d="m29.3876165 16.029609c-.1210566.1711492.3214268.42996.5802388.5635401.2796824.1377553.8014804.3297761.9726296.2212428.0626117-.0375734.1210567-.196196.025049-.3130785-.1168826-.1669751-1.0060247-.5510178-1.181348-.6136338-.225417-.0876605-.3172538-.033395-.3965662.1419294z" stroke="#fff" stroke-linecap="square" stroke-width=".5"/><path d="m19.4985168 9.70542705c0-.26298603.2087184-.47170438.4717044-.47170438.2588109 0 .4717044.20871833.4717044.47170436 0 .25881194-.2128935.46753027-.4717044.46753027-.262986 0-.4717043-.20871833-.4717043-.46753027m1.5152981.16280099c0-.26298603.2087194-.47170438.4675303-.47170438.2588119 0 .4717054.20871835.4717054.47170438 0 .25881088-.2128935.46753028-.4717054.46753028-.2588108 0-.4675303-.2087194-.4675303-.46753028" fill="#fff" fill-rule="nonzero"/></g></svg>