<svg height="1903" viewBox="0 0 3971 1903" width="3971" xmlns="http://www.w3.org/2000/svg"><g fill="none" fill-rule="evenodd"><path d="m0 0h3971v1903h-3971z" fill="#fff"/><path d="m3698 416.118v-695.956l-597.98-.162 597.98.145z" fill="#eda3a1"/><path d="m2902.62 937.715-354.5-204.72c-23.01-13.29-51.38-13.29-74.4 0l-354.54 204.69c-14.9 8.61-14.9 30.11 0 38.72l130.71 75.47c-36.29 21.4-36.07 55.73.7 76.96 36.78 21.24 96.23 21.35 133.3.4l89.77 51.83c23.02 13.29 51.37 13.29 74.39.01l89.86-51.87c-.23-.13-.48-.24-.7-.37-37.02-21.37-37.02-56.02 0-77.39 37.01-21.37 97.03-21.37 134.05 0 .23.14.44.28.67.41l130.69-75.43c14.9-8.6 14.9-30.11 0-38.71" fill="#f4f4f1"/><g fill="#d7c6d7"><path d="m2222.86 1002.055-.01-45.03 15.23 2.55 2.58 37.08z"/><path d="m2108 868.785v-44.77l47.84 4.26s7.22 56.14 7.13 55.77c-.08-.37-54.97-15.26-54.97-15.26"/><path d="m2913.8 868.785v-44.75l-26.44.06v56.26z"/><path d="m2902.62 848.465-354.5-204.715c-23.01-13.293-51.38-13.294-74.4-.004l-354.54 204.699c-14.9 8.6-14.9 30.11 0 38.71l130.71 75.47c-36.29 21.41-36.07 55.74.7 76.97 36.78 21.23 96.23 21.35 133.3.39l89.77 51.84c23.02 13.28 51.37 13.29 74.39 0l89.86-51.86c-.23-.13-.48-.24-.7-.37-37.02-21.37-37.02-56.02 0-77.39 37.01-21.38 97.03-21.38 134.05 0 .23.13.44.27.67.41l130.69-75.43c14.9-8.6 14.9-30.11 0-38.72"/><path d="m2637.91 996.225-.7 43.37-42.75 6.74v-50.11z"/></g><path d="m2902.62 804.735-354.5-204.721c-23.01-13.293-51.38-13.294-74.4-.003l-354.54 204.694c-14.9 8.61-14.9 30.11 0 38.72l130.71 75.47c-36.29 21.4-36.07 55.73.7 76.96 36.78 21.23 96.23 21.35 133.3.4l89.77 51.83c23.02 13.29 51.37 13.29 74.39 0l89.86-51.86c-.23-.13-.48-.24-.7-.37-37.02-21.37-37.02-56.02 0-77.39 37.01-21.37 97.03-21.37 134.05 0 .23.13.44.27.67.41l130.69-75.43c14.9-8.6 14.9-30.11 0-38.71" fill="#f0e0e7"/><path d="m3482.53 1272.575-354.55-204.7c-23.02-13.29-51.38-13.29-74.4.01l-127.79 73.79-.03-.01c-37.01-21.38-97.03-21.38-134.05 0-37.01 21.37-37.01 56.02.01 77.39l.04.02-92.68 53.52c-14.9 8.61-14.9 30.12.01 38.72l92.66 53.48.05-.03c37.02-21.37 97.03-21.37 134.05 0s37.02 56.02 0 77.39l-.03.02 127.84 73.78c23.01 13.29 51.37 13.29 74.38 0l354.49-204.66c14.9-8.61 14.9-30.12 0-38.72" fill="#f4f4f1"/><path d="m2687.91 1202.745v-44.75l26.44.06v56.26z" fill="#f7c75f"/><path d="m2925.85 1308.245v44.58l48.87 12.59 10.33-51.12z" fill="#f7c75f"/><path d="m2763.96 1046.065.01 46.03h10.61l1.65-32.56z" fill="#f7c75f"/><path d="m3493.7 1202.745v-44.77l-47.83 4.26s-7.22 56.13-7.14 55.77c.09-.37 54.97-15.26 54.97-15.26" fill="#f7c75f"/><path d="m3482.53 1183.335-354.55-204.7c-23.02-13.29-51.38-13.29-74.4 0l-127.79 73.8-.03-.02c-37.01-21.37-97.03-21.37-134.05 0-37.01 21.37-37.01 56.02.01 77.39l.04.03-92.68 53.52c-14.9 8.6-14.9 30.11.01 38.71l92.66 53.49.05-.04c37.02-21.37 97.03-21.37 134.05 0 37.02 21.38 37.02 56.03 0 77.4l-.03.02 127.84 73.78c23.01 13.28 51.37 13.28 74.38-.01l354.49-204.66c14.9-8.6 14.9-30.11 0-38.71" fill="#f7c75f"/><path d="m3482.53 1138.665-354.55-204.7c-23.02-13.29-51.38-13.29-74.4.01l-127.79 73.79-.03-.01c-37.01-21.38-97.03-21.38-134.05 0-37.01 21.37-37.01 56.02.01 77.39l.04.02-92.68 53.52c-14.9 8.61-14.9 30.12.01 38.72l92.66 53.48.05-.03c37.02-21.37 97.03-21.37 134.05 0s37.02 56.02 0 77.39l-.03.02 127.84 73.78c23.01 13.29 51.37 13.29 74.38 0l354.49-204.66c14.9-8.61 14.9-30.12 0-38.72" fill="#fadf9a"/><path d="m3249.47 1072.945c68.22 39.39 68.22 103.25 0 142.64-68.22 39.38-178.83 39.38-247.05 0-68.22-39.39-68.22-103.25 0-142.64 68.22-39.38 178.83-39.38 247.05 0" fill="#f9d48c"/><path d="m2322.62 1311.225-92.66 53.47-.06-.03c-37-21.36-97.02-21.36-134.05 0-37 21.39-37 56.03 0 77.39l.06.03-127.86 73.77c-23.01 13.29-51.35 13.29-74.39 0l-354.479-204.66c-14.908-8.61-14.908-30.11 0-38.72l354.539-204.69c23.04-13.29 51.41-13.29 74.42 0l127.77 73.8c-8.45 4.86-14.97 10.46-19.5 16.41-15.53 20.09-9.02 44.49 19.53 60.95 37 21.36 96.99 21.39 134.02.03l92.68 53.53c14.88 8.61 14.88 30.11-.02 38.72" fill="#f4f4f1"/><path d="m1528.01 1202.745v-44.77l47.835 4.26s7.223 56.13 7.137 55.77c-.086-.37-54.972-15.26-54.972-15.26" fill="#ed9941"/><path d="m2333.81 1202.745v-44.75l-26.44.06v56.26z" fill="#ed9941"/><path d="m2095.86 1308.245v44.58l-48.87 12.59-10.33-51.12z" fill="#ed9941"/><path d="m2095.91 1007.765v44.57c-8.45 4.86-14.97 10.46-19.5 16.41l-37.3-29.46 9.37-14.35 11.25-17.17z" fill="#ed9941"/><path d="m2322.62 1221.975-92.66 53.47-.06-.03c-37-21.36-97.02-21.36-134.05 0-37 21.39-37 56.04 0 77.4l.06.03-127.86 73.77c-23.01 13.29-51.35 13.29-74.39 0l-354.479-204.67c-14.908-8.6-14.908-30.11 0-38.71l354.539-204.7c23.04-13.28 51.41-13.28 74.42 0l127.77 73.8c-8.45 4.86-14.97 10.46-19.5 16.41-15.53 20.1-9.02 44.49 19.53 60.96 37 21.36 96.99 21.39 134.02.03l92.68 53.53c14.88 8.6 14.88 30.11-.02 38.71" fill="#ed9941"/><path d="m2322.63 1138.685-92.68-53.52c-37.02 21.35-97 21.34-134-.02-37.01-21.37-37.02-56-.03-77.38l-127.79-73.79c-23.02-13.3-51.38-13.3-74.4-.01l-354.544 204.7c-14.901 8.6-14.901 30.11 0 38.72l354.484 204.66c23.02 13.29 51.37 13.29 74.39 0l127.84-73.78-.04-.02c-37.01-21.37-37.01-56.02 0-77.39 37.02-21.37 97.04-21.37 134.05 0l.05.03 92.67-53.48c14.9-8.6 14.9-30.11 0-38.72" fill="#f7c75f"/><path d="m2043.57 1081.875c68.22 39.39 68.22 103.25 0 142.64-68.22 39.38-178.83 39.38-247.05 0-68.22-39.39-68.22-103.25.01-142.64 68.22-39.38 178.82-39.38 247.04 0" fill="#ebb351"/><path d="m2119.18 1606.675 354.54-204.7c23.02-13.29 51.39-13.29 74.4.01l354.5 204.71c14.9 8.61 14.9 30.12 0 38.72l-354.57 204.64c-23.02 13.29-51.37 13.28-74.39 0l-354.48-204.67c-14.9-8.6-14.9-30.11 0-38.71" fill="#f4f4f1"/><g fill="#de4a50"><path d="m2119.18 1518.215 354.54-204.69c23.02-13.29 51.39-13.29 74.4 0l354.5 204.72c14.9 8.6 14.9 30.11 0 38.71l-354.57 204.65c-23.02 13.28-51.37 13.28-74.39-.01l-354.48-204.66c-14.9-8.6-14.9-30.11 0-38.72"/><path d="m2108 1537.555v-44.77l47.84 4.27s7.22 56.13 7.13 55.76c-.08-.37-54.97-15.26-54.97-15.26"/><path d="m2913.8 1537.555v-44.75l-26.44.07v56.26z"/><path d="m2384.57 1364.795c37.01 21.37 37.01 56.02 0 77.39-37.02 21.37-97.04 21.37-134.05 0-37.02-21.37-37.02-56.02 0-77.39 37.01-21.38 97.03-21.38 134.05 0"/><path d="m2222.78 1404.635-.02-46.04 14.14 2.24 3.31 31.18z"/><path d="m2637.21 1364.795c-37.02 21.37-37.02 56.02 0 77.39 37.01 21.37 97.03 21.37 134.05 0 37.01-21.37 37.01-56.02 0-77.39-37.02-21.38-97.04-21.38-134.05 0"/><path d="m2799 1404.635.02-46.04-14.15 2.24-3.31 31.18z"/></g><path d="m2119.18 1473.485 354.54-204.7c23.02-13.29 51.39-13.29 74.4 0l354.5 204.72c14.9 8.61 14.9 30.11 0 38.72l-354.57 204.64c-23.02 13.28-51.37 13.28-74.39-.01l-354.48-204.66c-14.9-8.6-14.9-30.11 0-38.71" fill="#e16062"/><path d="m2384.57 1320.235c37.01 21.37 37.01 56.02 0 77.39-37.02 21.37-97.04 21.37-134.05 0-37.02-21.37-37.02-56.02 0-77.39 37.01-21.37 97.03-21.37 134.05 0" fill="#e16062"/><path d="m2637.21 1320.235c-37.02 21.37-37.02 56.02 0 77.39 37.01 21.37 97.03 21.37 134.05 0 37.01-21.37 37.01-56.02 0-77.39-37.02-21.37-97.04-21.37-134.05 0" fill="#e16062"/><path d="m2368.73 1415.065c-78.51 45.33-78.51 118.82.01 164.15 78.51 45.33 205.81 45.33 284.32 0 78.52-45.33 78.52-118.82 0-164.15-78.51-45.33-205.81-45.33-284.33 0" fill="#de5057"/><path d="m3174.45 1091.535s-13.06 33.89-26.51 26.7c-13.44-7.2-16.79 7.19-10.48 16.09 6.32 8.9 19 12.69 26.01 9.28 7-3.41 13.06-3.79 19.12.19s17.23 4.16 21.4-1.33l-12.31-46.58z" fill="#171d35"/><path d="m3197.16 905.195c-1.33 41.31 6.09 189.89 6.09 189.89-22.75 16.65-39.03 0-39.03 0s-17.78-138.39-20.84-175.47c-.71-8.66-1.49-26.6-2.24-49.06-2.44-73.83-4.81-196.184-4.81-196.184l97.83-21.379 27.39-6.008c-.5 32.442-10.61 60.534-28.01 91.611-17.45 31.03-35.1 127.65-36.38 166.6" fill="#3f3352"/><path d="m3078.26 1150.665s-6.06 19.44-19.44 19.7c-13.38.25-12.62-3.28-15.4-1.52-2.78 1.77-8.33 11.36-1.26 19.44s30.55 3.54 40.9 7.83 23.98 7.72 30.04 0c2.78-3.54 0-8.08 0-8.08l-11.86-44.43z" fill="#171d35"/><path d="m3236.69 669.606c-2.78 59.369-27.64 87.719-49.06 111.169-21.38 23.49-46.45 89.82-46.45 89.82l-.04-.04c-2.44-73.83-4.81-196.184-4.81-196.184l97.83-21.379c1.9 4.723 2.82 10.234 2.53 16.614" fill="#322a45"/><path d="m3073.97 1151.425s21.71 15.15 36.86-3.03c0 0-13.13-166.12 8.08-235.8s45.44-121.18 65.64-143.4 41.4-63.621 36.36-97.957l-161.33-10.098s-.76 46.075 4.29 62.235-10.6 155.89-10.6 194.27c0 38.37 20.7 233.78 20.7 233.78" fill="#3f3352"/><path d="m3053.77 640.438-5.05 24.994s156.78 58.323 231.01-12.497l-19.69-47.338z" fill="#e16062"/><path d="m3141.47 292.606-28.96 24.197-5.47 4.599s-8.62-14.211-11.6-16.407c-2.98-2.238-6.3 1.616-6.3 1.616-.83-6.257-.16-11.726 1.33-16.366 4.27-13.342 15.04-20.137 15.04-20.137l13.88 2.196z" fill="#875437"/><path d="m3112.51 316.803-5.47 4.599s-8.62-14.211-11.6-16.407c-2.98-2.238-6.3 1.616-6.3 1.616-.83-6.257-.16-11.726 1.33-16.366 5.01-2.403 8.49-4.061 8.49-4.061s-3.15 8.95 2.7 19.681c2.48 4.516 6.75 8.204 10.85 10.938" fill="#7b3f2e"/><path d="m3266.85 618.478s-19.23 60.078-158.77 34.68c-1.37-.249-2.74-.498-4.1-.746-.13-.042-.25-.083-.42-.124-15.16-2.901-31.74-6.795-49.8-11.85 0 0-16.66-5.055-15.62-36.337.41-13.259 3.73-57.717 8.08-105.572 6.01-65.257 13.92-136.812 19.18-144.394 9.08-13.135 78.27-74.704 104-74.704 25.77 0 42.92 20.178 53.53 52.744 10.61 32.567 69.69 230.99 43.92 286.303" fill="#dc3844"/><path d="m3120.94 507.515c-24.53 78.308-49.85 77.153-49.86 104.79-.02 29.333 23.32 37.662 32.48 39.983-15.16-2.901-31.74-6.795-49.8-11.85 0 0-16.66-5.055-15.62-36.337.41-13.259 3.73-57.717 8.08-105.572l68.9-104.121s27.13 45.071 5.82 113.107" fill="#d2283d"/><path d="m2942.88 554.094s-4.36-20.449-5.12-27.834c-.75-7.385-5.86-4.165-6.43-1.893s-1.33 12.497-1.33 12.497-5.11-6.438-3.03-8.521 2.27-.758 2.56-3.314c.28-2.556-15.24-5.003-17.33-3.354-2.08 1.65-11.36 26.55-10.22 32.419 1.13 5.87 21.21 22.912 21.21 22.912z" fill="#875437"/><path d="m2921.1 581.739s-1.7-33.893 22.72-30.106c0 0 35.88 23.456 56.24 14.906 3.03-1.273 51.25-198.563 66.9-214.436 0 0 51.12 5.433 54.47 75.254 2.02 42.05-4.04 59.077-4.04 59.077s-52.06 114.576-78.73 129.366c-26.67 14.791-107.71-26.865-117.56-34.061" fill="#e16062"/><path d="m3122.5 249.516-13.84 24.28s-6.47 2.776-10.73 15.123c-8.17 23.617-15.91 23.576-17.65 19.308-1.79-4.268-6.51-14.874-6.51-14.874s-9.53-2.818-9.98-3.108c-.46-.29 5.51-8.66 5.96-13.093.21-2.279-1.41-9.24-3.02-15.331-1.49-5.593-2.94-10.482-2.94-10.482-1.16-4.226 2.03-8.66 6.79-12.761 9.7-8.245 26.02-14.958 26.02-14.958z" fill="#875437"/><path d="m3083.88 257.678c-2.86 1.657-10.23 4.392-17.15 4.143-1.49-5.593-2.94-10.482-2.94-10.482-1.16-4.226 2.03-8.66 6.79-12.761 8.66-1.492 17.28-1.409 17.28-1.409s5.22 16.739 4.14 23.286c0 0-2.77-5.884-8.12-2.777z" fill="#7b3f2e"/><path d="m3093.02 262.819s-.54-12.36 9.39-11.477-1.11 24.279-1.11 24.279 8.15 16.039 17.88 11.476c7.07-3.31 10.56-5.277 10.56-5.277s9.14-33.789 10.11-38.865c.96-5.076-5.44-34.872-31.48-35.976-26.05-1.104-29.78 6.461-52.68-5.444-22.07-11.477-36.54 42.159 0 53.854 22.07 7.062 30.81-10.153 37.33 7.43" fill="#1a1b1d"/><path d="m1974.81 1099.745s5.21 33.48 25.5 39.79c20.28 6.32-15.06 17.37-30.4 4.52-15.35-12.85-24.56-1.83-29.23-7.33-1.49-1.77-.77-7.19-.77-7.19l13.52-31.25z" fill="#171d35"/><path d="m2008.74 916.315c-2.72 34.14-26.17 186.51-26.17 186.51s-18.93 14.89-37.29-3.59c0 0 5.33-157.2 3.1-184.46-.74-9.37-4.31-30.54-8.69-54.33-3.12-17.15-6.65-35.63-9.88-52.05-5.34-27.35-9.76-49.01-9.76-49.01l6.23-92.322.12-2.092 2.23-33.122 81.72 1.392s1.1 248.934-1.61 283.074" fill="#3f3352"/><path d="m1875.45 1133.175s5.07 35.99 27.11 47.58c5.9 3.11-6.1 12.61-29.56 7.99-23.45-4.62-30.82-13.45-30.82-13.45l9.95-40.81z" fill="#171d35"/><path d="m1961.1 669.792s-2.79 38.412-12.65 52.683c-9.85 14.24-35.89 195.4-40.23 229.52-4.1 32.53-21.98 173.71-23.61 186.89-.1.64-.14.98-.14.98s-16.5 12.84-40.08-5.34c0 0 3.57-187.28 4.08-217.18.51-29.91-15.89-165.47-19.39-178.74-4.01-15.19-16.55-39.423-15.21-80.38l82.24 6.443z" fill="#3f3352"/><path d="m1957.4 718.786c-5.36 9.049-12.46 79.739-17.71 141.659-3.12-17.15-6.65-35.63-9.88-52.05 7.18-42.87 14.44-79.83 18.64-85.92 9.86-14.271 12.65-52.683 12.65-52.683l-34.82-2.729-30.17-2.395 30.29.303 40.03.425s-.14 38.5-9.03 53.39" fill="#322a45"/><path d="m2030.41 647.471s-31.35 44.206-127.51 42.696c-79.72-1.273-110.55-32.522-110.55-32.522s.41-12.001 1.09-31.518c2.29-66.581 7.81-220.45 11.23-280.473.6-10.374 1.12-17.928 1.57-21.767.9-7.975 29.71-45.687 108.97-63.011 41.56-9.077 57.44-3.123 65.08 4.87 1.77 1.782 3.1 3.728 4.18 5.627 5.9 10.057 34.76 154.427 37.87 222.851.15 3.379.31 6.8.46 10.264.35 7.057.7 14.199 1.05 21.384.22 4.619.44 9.237.66 13.814.49 9.067.93 18.048 1.38 26.731.16 3.207.32 6.372.48 9.495 2.18 40.076 4.04 71.559 4.04 71.559" fill="#dc3844"/><path d="m1926.09 264.31s-.75 8.704-11.14 11.988c-12.93 4.096-24.46-14.347-24.46-14.347 5.84-13.916 9-29.246 9-29.246l20.05 14.828 6.24 4.636.26 9.96z" fill="#eebc9f"/><path d="m2026.37 575.912c-3.31 1.011-5.24 1.448-5.24 1.448-2.25-.551-4.12-1.352-5.73-2.234-6.52 1.897-12.67 3.801-12.67 3.801l.01-.469c-8.41 4.727-22.35 12.523-24.46 13.855-3.07 1.871-29.14-2.761-29.14-2.761s10.14-31.236 10.67-31.739c.56-.546 17.42-7.011 19.9-6.968.68.011 2.77.346 5.41.818s5.88 1.04 8.9 1.648l13.58-4.042c.36-1.362.72-2.21.72-2.21l.04-.042c.69-.245 8.18-3.194 14.51-6.505.56-.289 1.12-.579 1.64-.826.49 9.067.93 18.048 1.38 26.731.16 3.207.32 6.372.48 9.495" fill="#d2283d"/><path d="m1965.74 588.04c-2.71 1.022-26.93 23.043-34.07 23.264-3.8.149-10.18.638-15.36 1.063l.33 3.68-18.8 2.415c-.71 3.791-1.72 7.705-3.15 11.826 0 0-58.76 2.417-101.25-4.161 2.29-66.581 7.81-220.45 11.23-280.473 2.12-4.152 4.19-7.364 6.19-9.552 0 0 50.54 1.716 50.39 104.804 0 0-56.74 129.772-55.14 141.209s89.4-.442 89.4-.442.74 1.807 1.54 5.026l16.75-4.715c5.99-5.752 15.41-14.394 18.98-15.53 5.37-1.661 34.15 2.035 36.62 5.282 2.42 3.246-.99 15.281-3.66 16.304" fill="#d2283d"/><path d="m1891.39 259.742 23.58 16.561-20.26 27.716-8.71-34.353s1.73-8.057 5.39-9.924" fill="#ba2f2d"/><path d="m1926.04 262.129-3.88 9.592s2.63-12.533-7.55-14.721c-10.31-2.218-13.54-18.421-13.54-18.421l18.47 8.954 6.24 4.636z" fill="#de9d8a"/><path d="m1914.97 276.303 10.98-17.561 2.34-.396 5.3 9.995-1.89 27.587z" fill="#ba2f2d"/><path d="m1887.08 265.433 53.04 226.134s-80.43-107.485-78.18-113.947c2.24-6.462 22-26.957 22-26.957l-50.56-56.235s36.08-26.918 53.7-28.995" fill="#e4717b"/><path d="m1942.17 579.992s26.1 4.641 29.16 2.735c3.05-1.907 30.92-17.456 30.92-17.456l-5.72-19.659s-21.29-4.304-23.79-4.347203c-2.49-.041797-19.34 6.437203-19.88 6.962203-.54.524-10.69 31.765-10.69 31.765" fill="#e6b59c"/><path d="m1928.29 258.346 7.56 215.034 4.27 18.187s30.11-137.297 29.63-140.243c-.49-2.947-18.21-12.863-18.21-12.863l17.87-79.503s-12.82-5.917-41.12-.612" fill="#e4717b"/><path d="m1908.94 565.639s18.84-18.908 24.21-20.597 34.15 2.006 36.59 5.253c2.44 3.246-.96 15.296-3.65 16.318-2.7 1.022-26.93 23.044-34.06 23.279-7.12.234-23.53 1.735-23.53 1.735z" fill="#eebc9f"/><path d="m1914.17 560.54 2.83 34.081-26.77 3.461-.9-30.539z" fill="#ba2f2d"/><path d="m1895.86 560.228s8.89 21.364-.83 48.619c0 0-110.91 4.57-138.25-15.888-13.71-10.261-10.2-28.662-6.57-53.171 3.62-24.509 37.31-199.511 61.03-225.093 0 0 48.58 20.067 33.22 127.347 0 0-39.58 107.224-37.99 118.646 1.59 11.423 89.39-.46 89.39-.46" fill="#e16062"/><path d="m2014.16 567.798c-22.68-5.728-12.81-30.302-12.81-30.302s21.62 4.642 12.81 30.302" fill="#bc484d"/><path d="m1987.04 543.739s9.73 8.643 8.73 25.617c0 0 27.74-8.53 27.91-7.815.16.714-11.5-25.301-11.5-25.301z" fill="#ba2f2d"/><path d="m2081.27 531.38c-18.1 19.177-44.6 29.537-58.26 33.876-5.46 1.745-8.85 2.542-8.85 2.542 4.14-12.066 1.57-19.502-2.33-23.97-4.4-5.032-10.48-6.332-10.48-6.332l.04-.042c.69-.245 8.17-3.194 14.51-6.504 3.36-1.695 6.38-3.524 7.95-5.078 1.22-1.176 2-2.231 2.01-2.914.01-.556-1.11-7.369-3.06-18.47-.15-3.464-.31-6.885-.46-10.264-1.74-38.488-11.66-101.003-21.03-150.134-.08-.514-.2-1.028-.28-1.5-4.94-25.809-9.74-47.77-13.07-60.39-.04-.128-.04-.171-.04-.171-1.48-5.581-2.66-9.319-3.45-10.656-1.08-1.899-2.41-3.845-4.18-5.627 20.95 12.322 106.68 259.578 100.98 265.634" fill="#e16062"/><path d="m1937.88 199.616s.92 32.198-1.54 43.24-4.91 14.071-7.6 15.227-20.36-3.952-25.41-13.786c-5.04-9.835-7.07-31.369-7.07-31.369l7.43-28.851 28.11-11.673s5.92 17.323 6.08 27.212" fill="#eebc9f"/><path d="m1901.07 217.262s13.98-30.454 25.41-30.259c3.03.051 2.19 12.971 11.56 23.434 2.23 2.487 1.94-22.089 1.94-22.089s-8.9-19.381-10.17-19.224c-1.26.156-31.76 3.376-31.44 5.339.32 1.965 2.7 42.799 2.7 42.799" fill="#de9d8a"/><path d="m1897.78 224.172s16.38-34.42 17.88-37.354c4.29-8.339 10.37-5.164 10.82.185 0 0 4.06-4.164 6.14 4.425 2.11 8.68 5.42 19.009 5.42 19.009l-.08 11.748s8.98-13.201 13.52-21.002c4.53-7.801-2.63-42.279-18.37-42.778-11.48-.363-43.71 2.327-48.84 21.602-.96 3.569-.1 5.473-.1 5.473s-5.59-1.029-8.78 5.994-.27 15.797-.27 15.797l15.13 18.778z" fill="#171d35"/><path d="m1897.78 224.172s-2.91-7.929-7.84-6.054c-4.93 1.874-1.15 18.487 9.89 16.052 4.27-.944-2.05-9.998-2.05-9.998" fill="#eebc9f"/><path d="m2037.65 528.287c-1.86 4.284-16.47 11.342-25.82 15.541-4.4-5.032-10.48-6.332-10.48-6.332l.04-.042c.69-.245 8.17-3.194 14.51-6.504 3.36-1.695 6.38-3.524 7.95-5.078 1.22-1.176 2-2.231 2.01-2.914.01-.556-1.11-7.369-3.06-18.47-.15-3.464-.31-6.885-.46-10.264-1.74-38.488-11.66-101.003-21.03-150.134 15.4 71.539 38.17 179.954 36.34 184.197" fill="#de4a50"/><path d="m2600.57 1492.255s7.26 28.62 7.26 32.25-26.72 11.84-46.37 2.02c-2.38-1.2-8.39-15.56-4.63-27.06 2.58-7.91 15.12-14.47 15.12-14.47z" fill="#171d35"/><path d="m2638.25 1234.645c-4.84 77.4-27.41 253.17-27.41 253.17s-24.18 20.98-49.99 0c0 0 17.75-211.23 16.13-258.01-.46-13.01-6.36-39.84-14.63-71.81 0 0-.03-.1-.05-.24-21.53-83.02-59.02-200.45-59.02-200.45l10.81-148.06 124.16 45.21s4.84 302.79 0 380.19" fill="#3f3352"/><path d="m2599.96 915.895-18.24 13.96s-56.74 51.23-47.07 95.97c9.39 43.35 26.59 126.75 27.65 131.93-21.53-83.02-59.02-200.45-59.02-200.45l7.72-105.65 35.75-18.63z" fill="#322a45"/><path d="m2408.88 1492.255s-7.26 28.62-7.26 32.25 26.71 11.84 46.36 2.02c2.15-1.08 11.45-26.37 8.06-37.09-2.96-9.39-18.54-4.44-18.54-4.44z" fill="#171d35"/><path d="m2581.82 881.885s21.05 42.51-59.69 109.86c-26.56 22.16-72.54 205.82-72.54 267.09v230.6s-24.19 22.57-49.99 0c0 0-12.9-238.73-16.12-295.94-3.23-57.21-8.06-356.92-8.06-356.92z" fill="#3f3352"/><path d="m2266.17 756.135c0-2.9-12.7-39.913-14.52-37.494-1.81 2.414-2.42 18.694-2.42 18.694s-13.3 4.17-15.72 0c-2.42-4.18-16.93-30.183-18.74-28.369-1.82 1.814 5.44 35.679 9.07 40.519 3.62 4.83 27.81 19.82 27.81 19.82z" fill="#eebc9f"/><path d="m2740.32 719.395c0-2.9 12.7-39.916 14.51-37.497 1.82 2.419 2.42 18.689 2.42 18.689s13.31 4.177 15.73 0c2.41-4.176 16.93-30.178 18.74-28.364 1.82 1.815-5.44 35.677-9.07 40.515s-27.82 19.817-27.82 19.817z" fill="#eebc9f"/><path d="m2457.86 408.027s-7.86-4.031-10.89 0c-3.02 4.031 7.66 19.955 20.96 21.164 13.31 1.209-10.07-21.164-10.07-21.164" fill="#eebc9f"/><path d="m2528.4 406.235s6.86-6.271 10.49-2.844c3.62 3.426 5.64 10.078 3.62 15.318-2.01 5.242-13.9 13.197-18.94 10.529-5.04-2.667 4.83-23.003 4.83-23.003" fill="#eebc9f"/><path d="m2473.58 442.293s-23.18-29.429-23.79-56.439c-.6-27.01 20.16-29.63 20.16-29.63s11.49-44.546 46.56-38.902c35.07 5.643 31.85 46.562 30.64 58.857-1.21 12.296-11.69 17.536-15.72 32.856-4.03 15.319-12.5 31.646-12.5 31.646s-22.37 5.643-45.35 1.612" fill="#171d35"/><path d="m2474.99 440.277-1.01 21.568 48.15-2.62-5.21-24.188z" fill="#eebc9f"/><path d="m2459.24 480.389s12.25-25.599 12.79-26.203c.54-.605 52.14-4.233 52.95-3.427.8.806 11.69 24.188 11.69 24.188z" fill="#e16062"/><path d="m2653.8 578.278c-3.6 74.596-9.48 182.817-9.09 184.917.31 1.72 2.85 37.03 5.17 69.83 2.04 29.05 3.9 56.14 3.9 56.14s-107.03 86.16-294.49 7.72c0 0 1.23-11.9 3.02-29.2 4.31-41.96 11.86-115.64 12.7-127.47.78-10.62-9.48-86.011-17.1-139.733-4.38-30.984-7.88-54.785-7.88-54.785.38-1.621 23.36-69.734 151.97-73.774 128.61-4.039 152.79 34.275 154.39 36.887.56.895-.7 30.622-2.59 69.468" fill="#e57760"/><path d="m2375.01 740.215c.78-10.62-9.48-86.011-17.1-139.733 2.57-15.842 4.21-25.929 4.21-25.929s58.12 121.714 60.54 146.512c2.11 21.45-43.34 118.52-60.35 146.62 4.31-41.96 11.86-115.64 12.7-127.47" fill="#e06544"/><path d="m2644.71 763.195c.31 1.72 2.85 37.03 5.17 69.83-8.82-7.4-67.89-129.55-65.52-153.931 2.42-24.793 62.33-146.87 62.33-146.87s2.93 19.085 7.11 46.054c-3.6 74.596-9.48 182.817-9.09 184.917" fill="#e06544"/><path d="m2340.54 851.075c-7.25 3.62-100.38-62.29-100.38-62.29s2.81-28.47 20.71-34.56c2.47-.85 5.25-1.26 8.32-1.12 0 0 38.7 18.73 39.91 17.83.19-.12 1.26-5.47 2.98-14.39v-.1c9.45-49.777 37.95-210.748 37.95-210.748s54.01 126.382 56.43 151.175-58.66 150.573-65.92 154.203" fill="#e57760"/><path d="m2766.33 752.045s-93.13 65.91-100.38 62.28c-7.26-3.62-68.34-129.402-65.92-154.195s56.43-151.175 56.43-151.175 25.23 142.54 36.09 200.833c2.76 14.827 4.6 24.217 4.84 24.407 1.21.89 39.91-17.828 39.91-17.828 3.1-.145 5.88.266 8.37 1.137 17.87 6.121 20.66 34.541 20.66 34.541" fill="#e57760"/><path d="m2312.08 756.545-3.58 39.09s-2.42-12.9-10.48-21.36c-5.27-5.54-24.45-14.49-37.15-20.05 2.47-.85 5.25-1.26 8.32-1.12 0 0 38.7 18.73 39.91 17.83.19-.12 1.26-5.47 2.98-14.39" fill="#e06544"/><path d="m2745.67 717.504c-7.16 4.231-38.9 23.101-42.11 24.531-3.63 1.59-4.84 18.14-4.84 18.14l-6.17-50.387c2.76 14.827 4.6 24.217 4.84 24.407 1.21.89 39.91-17.828 39.91-17.828 3.1-.145 5.88.266 8.37 1.137" fill="#e06544"/><path d="m3591.5 156.645479c173.85957-138.8342713 507.5-122.5946165 507.5-273.82274 0-151.228123-227.21549-273.822739-507.5-273.822739s-507.5 122.594616-507.5 273.822739c0 151.2281235 333.64043 412.657011 507.5 273.82274z" fill="#f96766"/><path d="m599.5 2260.47183c205.376972-164.14137 599.5-144.94151 599.5-323.73592 0-178.7944-268.405292-323.73591-599.5-323.73591s-599.5 144.94151-599.5 323.73591c0 178.79441 394.123028 487.87729 599.5 323.73592z" fill="#2fcc71"/></g></svg>