<?xml version="1.0" encoding="UTF-8"?>
<svg width="3971px" height="1903px" viewBox="0 0 3971 1903" version="1.1" xmlns="http://www.w3.org/2000/svg" xmlns:xlink="http://www.w3.org/1999/xlink">
    <!-- Generator: Sketch 57 (83077) - https://sketch.com -->
    <title>Untitled 10</title>
    <desc>Created with Sketch.</desc>
    <g id="Page-1" stroke="none" stroke-width="1" fill="none" fill-rule="evenodd">
        <rect id="Rectangle" fill="#FFFFFF" x="0" y="0" width="3971" height="1903"></rect>
        <path d="M3698,416.118 L3698,-279.838 L3100.02,-280 C3100.02,-280 3100.02,-280 3100.02,-280 L3698,-279.855 L3698,416.118" id="Fill-5" fill="#EDA3A1"></path>
        <path d="M2902.62,937.715 L2548.12,732.995 C2525.11,719.705 2496.74,719.705 2473.72,732.995 L2119.18,937.685 C2104.28,946.295 2104.28,967.795 2119.18,976.405 L2249.89,1051.875 C2213.6,1073.275 2213.82,1107.605 2250.59,1128.835 C2287.37,1150.075 2346.82,1150.185 2383.89,1129.235 L2473.66,1181.065 C2496.68,1194.355 2525.03,1194.355 2548.05,1181.075 L2637.91,1129.205 C2637.68,1129.075 2637.43,1128.965 2637.21,1128.835 C2600.19,1107.465 2600.19,1072.815 2637.21,1051.445 C2674.22,1030.075 2734.24,1030.075 2771.26,1051.445 C2771.49,1051.585 2771.7,1051.725 2771.93,1051.855 L2902.62,976.425 C2917.52,967.825 2917.52,946.315 2902.62,937.715" id="Fill-127" fill="#F4F4F1"></path>
        <polyline id="Fill-128" fill="#D7C6D7" points="2222.86 1002.055 2222.85 957.025 2238.08 959.575 2240.66 996.655 2222.86 1002.055"></polyline>
        <path d="M2108,868.785 L2108,824.015 L2155.84,828.275 C2155.84,828.275 2163.06,884.415 2162.97,884.045 C2162.89,883.675 2108,868.785 2108,868.785" id="Fill-129" fill="#D7C6D7"></path>
        <polyline id="Fill-130" fill="#D7C6D7" points="2913.8 868.785 2913.8 824.035 2887.36 824.095 2887.36 880.355 2913.8 868.785"></polyline>
        <path d="M2902.62,848.465 L2548.12,643.75 C2525.11,630.457 2496.74,630.456 2473.72,643.746 L2119.18,848.445 C2104.28,857.045 2104.28,878.555 2119.18,887.155 L2249.89,962.625 C2213.6,984.035 2213.82,1018.365 2250.59,1039.595 C2287.37,1060.825 2346.82,1060.945 2383.89,1039.985 L2473.66,1091.825 C2496.68,1105.105 2525.03,1105.115 2548.05,1091.825 L2637.91,1039.965 C2637.68,1039.835 2637.43,1039.725 2637.21,1039.595 C2600.19,1018.225 2600.19,983.575 2637.21,962.205 C2674.22,940.825 2734.24,940.825 2771.26,962.205 C2771.49,962.335 2771.7,962.475 2771.93,962.615 L2902.62,887.185 C2917.52,878.585 2917.52,857.075 2902.62,848.465" id="Fill-131" fill="#D7C6D7"></path>
        <polyline id="Fill-132" fill="#D7C6D7" points="2637.91 996.225 2637.21 1039.595 2594.46 1046.335 2594.46 996.225 2637.91 996.225"></polyline>
        <path d="M2902.62,804.735 L2548.12,600.014 C2525.11,586.721 2496.74,586.72 2473.72,600.011 L2119.18,804.705 C2104.28,813.315 2104.28,834.815 2119.18,843.425 L2249.89,918.895 C2213.6,940.295 2213.82,974.625 2250.59,995.855 C2287.37,1017.085 2346.82,1017.205 2383.89,996.255 L2473.66,1048.085 C2496.68,1061.375 2525.03,1061.375 2548.05,1048.085 L2637.91,996.225 C2637.68,996.095 2637.43,995.985 2637.21,995.855 C2600.19,974.485 2600.19,939.835 2637.21,918.465 C2674.22,897.095 2734.24,897.095 2771.26,918.465 C2771.49,918.595 2771.7,918.735 2771.93,918.875 L2902.62,843.445 C2917.52,834.845 2917.52,813.335 2902.62,804.735" id="Fill-133" fill="#F0E0E7"></path>
        <path d="M3482.53,1272.575 L3127.98,1067.875 C3104.96,1054.585 3076.6,1054.585 3053.58,1067.885 L2925.79,1141.675 L2925.76,1141.665 C2888.75,1120.285 2828.73,1120.285 2791.71,1141.665 C2754.7,1163.035 2754.7,1197.685 2791.72,1219.055 L2791.76,1219.075 L2699.08,1272.595 C2684.18,1281.205 2684.18,1302.715 2699.09,1311.315 L2791.75,1364.795 L2791.8,1364.765 C2828.82,1343.395 2888.83,1343.395 2925.85,1364.765 C2962.87,1386.135 2962.87,1420.785 2925.85,1442.155 L2925.82,1442.175 L3053.66,1515.955 C3076.67,1529.245 3105.03,1529.245 3128.04,1515.955 L3482.53,1311.295 C3497.43,1302.685 3497.43,1281.175 3482.53,1272.575" id="Fill-134" fill="#F4F4F1"></path>
        <polyline id="Fill-135" fill="#F7C75F" points="2687.91 1202.745 2687.91 1157.995 2714.35 1158.055 2714.35 1214.315 2687.91 1202.745"></polyline>
        <polyline id="Fill-136" fill="#F7C75F" points="2925.85 1308.245 2925.85 1352.825 2974.72 1365.415 2985.05 1314.295 2925.85 1308.245"></polyline>
        <polyline id="Fill-137" fill="#F7C75F" points="2763.96 1046.065 2763.97 1092.095 2774.58 1092.095 2776.23 1059.535 2763.96 1046.065"></polyline>
        <path d="M3493.7,1202.745 L3493.7,1157.975 L3445.87,1162.235 C3445.87,1162.235 3438.65,1218.365 3438.73,1218.005 C3438.82,1217.635 3493.7,1202.745 3493.7,1202.745" id="Fill-138" fill="#F7C75F"></path>
        <path d="M3482.53,1183.335 L3127.98,978.635 C3104.96,965.345 3076.6,965.345 3053.58,978.635 L2925.79,1052.435 L2925.76,1052.415 C2888.75,1031.045 2828.73,1031.045 2791.71,1052.415 C2754.7,1073.785 2754.7,1108.435 2791.72,1129.805 L2791.76,1129.835 L2699.08,1183.355 C2684.18,1191.955 2684.18,1213.465 2699.09,1222.065 L2791.75,1275.555 L2791.8,1275.515 C2828.82,1254.145 2888.83,1254.145 2925.85,1275.515 C2962.87,1296.895 2962.87,1331.545 2925.85,1352.915 L2925.82,1352.935 L3053.66,1426.715 C3076.67,1439.995 3105.03,1439.995 3128.04,1426.705 L3482.53,1222.045 C3497.43,1213.445 3497.43,1191.935 3482.53,1183.335" id="Fill-139" fill="#F7C75F"></path>
        <path d="M3482.53,1138.665 L3127.98,933.965 C3104.96,920.675 3076.6,920.675 3053.58,933.975 L2925.79,1007.765 L2925.76,1007.755 C2888.75,986.375 2828.73,986.375 2791.71,1007.755 C2754.7,1029.125 2754.7,1063.775 2791.72,1085.145 L2791.76,1085.165 L2699.08,1138.685 C2684.18,1147.295 2684.18,1168.805 2699.09,1177.405 L2791.75,1230.885 L2791.8,1230.855 C2828.82,1209.485 2888.83,1209.485 2925.85,1230.855 C2962.87,1252.225 2962.87,1286.875 2925.85,1308.245 L2925.82,1308.265 L3053.66,1382.045 C3076.67,1395.335 3105.03,1395.335 3128.04,1382.045 L3482.53,1177.385 C3497.43,1168.775 3497.43,1147.265 3482.53,1138.665" id="Fill-140" fill="#FADF9A"></path>
        <path d="M3249.47,1072.945 C3317.69,1112.335 3317.69,1176.195 3249.47,1215.585 C3181.25,1254.965 3070.64,1254.965 3002.42,1215.585 C2934.2,1176.195 2934.2,1112.335 3002.42,1072.945 C3070.64,1033.565 3181.25,1033.565 3249.47,1072.945" id="Fill-141" fill="#F9D48C"></path>
        <path d="M2322.62,1311.225 L2229.96,1364.695 L2229.9,1364.665 C2192.9,1343.305 2132.88,1343.305 2095.85,1364.665 C2058.85,1386.055 2058.85,1420.695 2095.85,1442.055 L2095.91,1442.085 L1968.05,1515.855 C1945.04,1529.145 1916.7,1529.145 1893.66,1515.855 L1539.181,1311.195 C1524.273,1302.585 1524.273,1281.085 1539.181,1272.475 L1893.72,1067.785 C1916.76,1054.495 1945.13,1054.495 1968.14,1067.785 L2095.91,1141.585 C2087.46,1146.445 2080.94,1152.045 2076.41,1157.995 C2060.88,1178.085 2067.39,1202.485 2095.94,1218.945 C2132.94,1240.305 2192.93,1240.335 2229.96,1218.975 L2322.64,1272.505 C2337.52,1281.115 2337.52,1302.615 2322.62,1311.225" id="Fill-142" fill="#F4F4F1"></path>
        <path d="M1528.01,1202.745 L1528.01,1157.975 L1575.845,1162.235 C1575.845,1162.235 1583.068,1218.365 1582.982,1218.005 C1582.896,1217.635 1528.01,1202.745 1528.01,1202.745" id="Fill-143" fill="#ED9941"></path>
        <polyline id="Fill-144" fill="#ED9941" points="2333.81 1202.745 2333.81 1157.995 2307.37 1158.055 2307.37 1214.315 2333.81 1202.745"></polyline>
        <polyline id="Fill-145" fill="#ED9941" points="2095.86 1308.245 2095.86 1352.825 2046.99 1365.415 2036.66 1314.295 2095.86 1308.245"></polyline>
        <path d="M2095.91,1007.765 L2095.91,1052.335 C2087.46,1057.195 2080.94,1062.795 2076.41,1068.745 L2039.11,1039.285 L2048.48,1024.935 L2059.73,1007.765 L2095.91,1007.765" id="Fill-146" fill="#ED9941"></path>
        <path d="M2322.62,1221.975 L2229.96,1275.445 L2229.9,1275.415 C2192.9,1254.055 2132.88,1254.055 2095.85,1275.415 C2058.85,1296.805 2058.85,1331.455 2095.85,1352.815 L2095.91,1352.845 L1968.05,1426.615 C1945.04,1439.905 1916.7,1439.905 1893.66,1426.615 L1539.181,1221.945 C1524.273,1213.345 1524.273,1191.835 1539.181,1183.235 L1893.72,978.535 C1916.76,965.255 1945.13,965.255 1968.14,978.535 L2095.91,1052.335 C2087.46,1057.195 2080.94,1062.795 2076.41,1068.745 C2060.88,1088.845 2067.39,1113.235 2095.94,1129.705 C2132.94,1151.065 2192.93,1151.095 2229.96,1129.735 L2322.64,1183.265 C2337.52,1191.865 2337.52,1213.375 2322.62,1221.975" id="Fill-147" fill="#ED9941"></path>
        <path d="M2322.63,1138.685 L2229.95,1085.165 C2192.93,1106.515 2132.95,1106.505 2095.95,1085.145 C2058.94,1063.775 2058.93,1029.145 2095.92,1007.765 L1968.13,933.975 C1945.11,920.675 1916.75,920.675 1893.73,933.965 L1539.186,1138.665 C1524.285,1147.265 1524.285,1168.775 1539.186,1177.385 L1893.67,1382.045 C1916.69,1395.335 1945.04,1395.335 1968.06,1382.045 L2095.9,1308.265 L2095.86,1308.245 C2058.85,1286.875 2058.85,1252.225 2095.86,1230.855 C2132.88,1209.485 2192.9,1209.485 2229.91,1230.855 L2229.96,1230.885 L2322.63,1177.405 C2337.53,1168.805 2337.53,1147.295 2322.63,1138.685" id="Fill-148" fill="#F7C75F"></path>
        <path d="M2043.57,1081.875 C2111.79,1121.265 2111.79,1185.125 2043.57,1224.515 C1975.35,1263.895 1864.74,1263.895 1796.52,1224.515 C1728.3,1185.125 1728.3,1121.265 1796.53,1081.875 C1864.75,1042.495 1975.35,1042.495 2043.57,1081.875" id="Fill-149" fill="#EBB351"></path>
        <path d="M2119.18,1606.675 L2473.72,1401.975 C2496.74,1388.685 2525.11,1388.685 2548.12,1401.985 L2902.62,1606.695 C2917.52,1615.305 2917.52,1636.815 2902.62,1645.415 L2548.05,1850.055 C2525.03,1863.345 2496.68,1863.335 2473.66,1850.055 L2119.18,1645.385 C2104.28,1636.785 2104.28,1615.275 2119.18,1606.675" id="Fill-150" fill="#F4F4F1"></path>
        <path d="M2119.18,1518.215 L2473.72,1313.525 C2496.74,1300.235 2525.11,1300.235 2548.12,1313.525 L2902.62,1518.245 C2917.52,1526.845 2917.52,1548.355 2902.62,1556.955 L2548.05,1761.605 C2525.03,1774.885 2496.68,1774.885 2473.66,1761.595 L2119.18,1556.935 C2104.28,1548.335 2104.28,1526.825 2119.18,1518.215" id="Fill-151" fill="#DE4A50"></path>
        <path d="M2108,1537.555 L2108,1492.785 L2155.84,1497.055 C2155.84,1497.055 2163.06,1553.185 2162.97,1552.815 C2162.89,1552.445 2108,1537.555 2108,1537.555" id="Fill-152" fill="#DE4A50"></path>
        <polyline id="Fill-153" fill="#DE4A50" points="2913.8 1537.555 2913.8 1492.805 2887.36 1492.875 2887.36 1549.135 2913.8 1537.555"></polyline>
        <path d="M2384.57,1364.795 C2421.58,1386.165 2421.58,1420.815 2384.57,1442.185 C2347.55,1463.555 2287.53,1463.555 2250.52,1442.185 C2213.5,1420.815 2213.5,1386.165 2250.52,1364.795 C2287.53,1343.415 2347.55,1343.415 2384.57,1364.795" id="Fill-154" fill="#DE4A50"></path>
        <polyline id="Fill-155" fill="#DE4A50" points="2222.78 1404.635 2222.76 1358.595 2236.9 1360.835 2240.21 1392.015 2222.78 1404.635"></polyline>
        <path d="M2637.21,1364.795 C2600.19,1386.165 2600.19,1420.815 2637.21,1442.185 C2674.22,1463.555 2734.24,1463.555 2771.26,1442.185 C2808.27,1420.815 2808.27,1386.165 2771.26,1364.795 C2734.24,1343.415 2674.22,1343.415 2637.21,1364.795" id="Fill-156" fill="#DE4A50"></path>
        <polyline id="Fill-157" fill="#DE4A50" points="2799 1404.635 2799.02 1358.595 2784.87 1360.835 2781.56 1392.015 2799 1404.635"></polyline>
        <path d="M2119.18,1473.485 L2473.72,1268.785 C2496.74,1255.495 2525.11,1255.495 2548.12,1268.785 L2902.62,1473.505 C2917.52,1482.115 2917.52,1503.615 2902.62,1512.225 L2548.05,1716.865 C2525.03,1730.145 2496.68,1730.145 2473.66,1716.855 L2119.18,1512.195 C2104.28,1503.595 2104.28,1482.085 2119.18,1473.485" id="Fill-158" fill="#E16062"></path>
        <path d="M2384.57,1320.235 C2421.58,1341.605 2421.58,1376.255 2384.57,1397.625 C2347.55,1418.995 2287.53,1418.995 2250.52,1397.625 C2213.5,1376.255 2213.5,1341.605 2250.52,1320.235 C2287.53,1298.865 2347.55,1298.865 2384.57,1320.235" id="Fill-159" fill="#E16062"></path>
        <path d="M2637.21,1320.235 C2600.19,1341.605 2600.19,1376.255 2637.21,1397.625 C2674.22,1418.995 2734.24,1418.995 2771.26,1397.625 C2808.27,1376.255 2808.27,1341.605 2771.26,1320.235 C2734.24,1298.865 2674.22,1298.865 2637.21,1320.235" id="Fill-160" fill="#E16062"></path>
        <path d="M2368.73,1415.065 C2290.22,1460.395 2290.22,1533.885 2368.74,1579.215 C2447.25,1624.545 2574.55,1624.545 2653.06,1579.215 C2731.58,1533.885 2731.58,1460.395 2653.06,1415.065 C2574.55,1369.735 2447.25,1369.735 2368.73,1415.065" id="Fill-161" fill="#DE5057"></path>
        <path d="M3174.45,1091.535 C3174.45,1091.535 3161.39,1125.425 3147.94,1118.235 C3134.5,1111.035 3131.15,1125.425 3137.46,1134.325 C3143.78,1143.225 3156.46,1147.015 3163.47,1143.605 C3170.47,1140.195 3176.53,1139.815 3182.59,1143.795 C3188.65,1147.775 3199.82,1147.955 3203.99,1142.465 L3191.68,1095.885 L3174.45,1091.535" id="Fill-162" fill="#171D35"></path>
        <path d="M3197.16,905.195 C3195.83,946.505 3203.25,1095.085 3203.25,1095.085 C3180.5,1111.735 3164.22,1095.085 3164.22,1095.085 C3164.22,1095.085 3146.44,956.695 3143.38,919.615 C3142.67,910.955 3141.89,893.015 3141.14,870.555 C3138.7,796.725 3136.33,674.371 3136.33,674.371 L3234.16,652.992 L3261.55,646.984 C3261.05,679.426 3250.94,707.518 3233.54,738.595 C3216.09,769.625 3198.44,866.245 3197.16,905.195" id="Fill-163" fill="#3F3352"></path>
        <path d="M3078.26,1150.665 C3078.26,1150.665 3072.2,1170.105 3058.82,1170.365 C3045.44,1170.615 3046.2,1167.085 3043.42,1168.845 C3040.64,1170.615 3035.09,1180.205 3042.16,1188.285 C3049.23,1196.365 3072.71,1191.825 3083.06,1196.115 C3093.41,1200.405 3107.04,1203.835 3113.1,1196.115 C3115.88,1192.575 3113.1,1188.035 3113.1,1188.035 L3101.24,1143.605 L3078.26,1150.665" id="Fill-164" fill="#171D35"></path>
        <path d="M3236.69,669.606 C3233.91,728.975 3209.05,757.325 3187.63,780.775 C3166.25,804.265 3141.18,870.595 3141.18,870.595 L3141.14,870.555 C3138.7,796.725 3136.33,674.371 3136.33,674.371 L3234.16,652.992 C3236.06,657.715 3236.98,663.226 3236.69,669.606" id="Fill-165" fill="#322A45"></path>
        <path d="M3073.97,1151.425 C3073.97,1151.425 3095.68,1166.575 3110.83,1148.395 C3110.83,1148.395 3097.7,982.275 3118.91,912.595 C3140.12,842.915 3164.35,791.415 3184.55,769.195 C3204.75,746.975 3225.95,705.574 3220.91,671.238 L3059.58,661.14 C3059.58,661.14 3058.82,707.215 3063.87,723.375 C3068.92,739.535 3053.27,879.265 3053.27,917.645 C3053.27,956.015 3073.97,1151.425 3073.97,1151.425" id="Fill-166" fill="#3F3352"></path>
        <path d="M3053.77,640.438 L3048.72,665.432 C3048.72,665.432 3205.5,723.755 3279.73,652.935 L3260.04,605.597 L3053.77,640.438" id="Fill-167" fill="#E16062"></path>
        <path d="M3141.47,292.606 L3112.51,316.803 L3107.04,321.402 C3107.04,321.402 3098.42,307.191 3095.44,304.995 C3092.46,302.757 3089.14,306.611 3089.14,306.611 C3088.31,300.354 3088.98,294.885 3090.47,290.245 C3094.74,276.903 3105.51,270.108 3105.51,270.108 L3119.39,272.304 L3141.47,292.606" id="Fill-168" fill="#875437"></path>
        <path d="M3112.51,316.803 L3107.04,321.402 C3107.04,321.402 3098.42,307.191 3095.44,304.995 C3092.46,302.757 3089.14,306.611 3089.14,306.611 C3088.31,300.354 3088.98,294.885 3090.47,290.245 C3095.48,287.842 3098.96,286.184 3098.96,286.184 C3098.96,286.184 3095.81,295.134 3101.66,305.865 C3104.14,310.381 3108.41,314.069 3112.51,316.803" id="Fill-169" fill="#7B3F2E"></path>
        <path d="M3266.85,618.478 C3266.85,618.478 3247.62,678.556 3108.08,653.158 C3106.71,652.909 3105.34,652.66 3103.98,652.412 C3103.85,652.37 3103.73,652.329 3103.56,652.288 C3088.4,649.387 3071.82,645.493 3053.76,640.438 C3053.76,640.438 3037.1,635.383 3038.14,604.101 C3038.55,590.842 3041.87,546.384 3046.22,498.529 C3052.23,433.272 3060.14,361.717 3065.4,354.135 C3074.48,341 3143.67,279.431 3169.4,279.431 C3195.17,279.431 3212.32,299.609 3222.93,332.175 C3233.54,364.742 3292.62,563.165 3266.85,618.478" id="Fill-170" fill="#DC3844"></path>
        <path d="M3120.94,507.515 C3096.41,585.823 3071.09,584.668 3071.08,612.305 C3071.06,641.638 3094.4,649.967 3103.56,652.288 C3088.4,649.387 3071.82,645.493 3053.76,640.438 C3053.76,640.438 3037.1,635.383 3038.14,604.101 C3038.55,590.842 3041.87,546.384 3046.22,498.529 L3115.12,394.408 C3115.12,394.408 3142.25,439.479 3120.94,507.515" id="Fill-171" fill="#D2283D"></path>
        <path d="M2942.88,554.094 C2942.88,554.094 2938.52,533.645 2937.76,526.26 C2937.01,518.875 2931.9,522.095 2931.33,524.367 C2930.76,526.639 2930,536.864 2930,536.864 C2930,536.864 2924.89,530.426 2926.97,528.343 C2929.05,526.26 2929.24,527.585 2929.53,525.029 C2929.81,522.473 2914.29,520.026 2912.2,521.675 C2910.12,523.325 2900.84,548.225 2901.98,554.094 C2903.11,559.964 2923.19,577.006 2923.19,577.006 L2942.88,554.094" id="Fill-172" fill="#875437"></path>
        <path d="M2921.1,581.739 C2921.1,581.739 2919.4,547.846 2943.82,551.633 C2943.82,551.633 2979.7,575.089 3000.06,566.539 C3003.09,565.266 3051.31,367.976 3066.96,352.103 C3066.96,352.103 3118.08,357.536 3121.43,427.357 C3123.45,469.407 3117.39,486.434 3117.39,486.434 C3117.39,486.434 3065.33,601.01 3038.66,615.8 C3011.99,630.591 2930.95,588.935 2921.1,581.739" id="Fill-173" fill="#E16062"></path>
        <path d="M3122.5,249.516 L3108.66,273.796 C3108.66,273.796 3102.19,276.572 3097.93,288.919 C3089.76,312.536 3082.02,312.495 3080.28,308.227 C3078.49,303.959 3073.77,293.353 3073.77,293.353 C3073.77,293.353 3064.24,290.535 3063.79,290.245 C3063.33,289.955 3069.3,281.585 3069.75,277.152 C3069.96,274.873 3068.34,267.912 3066.73,261.821 C3065.24,256.228 3063.79,251.339 3063.79,251.339 C3062.63,247.113 3065.82,242.679 3070.58,238.578 C3080.28,230.333 3096.6,223.62 3096.6,223.62 L3122.5,249.516" id="Fill-174" fill="#875437"></path>
        <path d="M3083.88,257.678 C3081.02,259.335 3073.65,262.07 3066.73,261.821 C3065.24,256.228 3063.79,251.339 3063.79,251.339 C3062.63,247.113 3065.82,242.679 3070.58,238.578 C3079.24,237.086 3087.86,237.169 3087.86,237.169 C3087.86,237.169 3093.08,253.908 3092,260.455 C3092,260.455 3089.23,254.571 3083.88,257.678 Z" id="Fill-175" fill="#7B3F2E"></path>
        <path d="M3093.02,262.819 C3093.02,262.819 3092.48,250.459 3102.41,251.342 C3112.34,252.225 3101.3,275.621 3101.3,275.621 C3101.3,275.621 3109.45,291.66 3119.18,287.097 C3126.25,283.787 3129.74,281.82 3129.74,281.82 C3129.74,281.82 3138.88,248.031 3139.85,242.955 C3140.81,237.879 3134.41,208.083 3108.37,206.979 C3082.32,205.875 3078.59,213.44 3055.69,201.535 C3033.62,190.058 3019.15,243.694 3055.69,255.389 C3077.76,262.451 3086.5,245.236 3093.02,262.819" id="Fill-176" fill="#1A1B1D"></path>
        <path d="M1974.81,1099.745 C1974.81,1099.745 1980.02,1133.225 2000.31,1139.535 C2020.59,1145.855 1985.25,1156.905 1969.91,1144.055 C1954.56,1131.205 1945.35,1142.225 1940.68,1136.725 C1939.19,1134.955 1939.91,1129.535 1939.91,1129.535 L1953.43,1098.285 L1974.81,1099.745" id="Fill-177" fill="#171D35"></path>
        <path d="M2008.74,916.315 C2006.02,950.455 1982.57,1102.825 1982.57,1102.825 C1982.57,1102.825 1963.64,1117.715 1945.28,1099.235 C1945.28,1099.235 1950.61,942.035 1948.38,914.775 C1947.64,905.405 1944.07,884.235 1939.69,860.445 C1936.57,843.295 1933.04,824.815 1929.81,808.395 C1924.47,781.045 1920.05,759.385 1920.05,759.385 L1926.28,667.063 L1926.4,664.971 L1928.63,631.849 L2010.35,633.241 C2010.35,633.241 2011.45,882.175 2008.74,916.315" id="Fill-178" fill="#3F3352"></path>
        <path d="M1875.45,1133.175 C1875.45,1133.175 1880.52,1169.165 1902.56,1180.755 C1908.46,1183.865 1896.46,1193.365 1873,1188.745 C1849.55,1184.125 1842.18,1175.295 1842.18,1175.295 L1852.13,1134.485 L1875.45,1133.175" id="Fill-179" fill="#171D35"></path>
        <path d="M1961.1,669.792 C1961.1,669.792 1958.31,708.204 1948.45,722.475 C1938.6,736.715 1912.56,917.875 1908.22,951.995 C1904.12,984.525 1886.24,1125.705 1884.61,1138.885 C1884.51,1139.525 1884.47,1139.865 1884.47,1139.865 C1884.47,1139.865 1867.97,1152.705 1844.39,1134.525 C1844.39,1134.525 1847.96,947.245 1848.47,917.345 C1848.98,887.435 1832.58,751.875 1829.08,738.605 C1825.07,723.415 1812.53,699.182 1813.87,658.225 L1896.11,664.668 L1961.1,669.792" id="Fill-180" fill="#3F3352"></path>
        <path d="M1957.4,718.786 C1952.04,727.835 1944.94,798.525 1939.69,860.445 C1936.57,843.295 1933.04,824.815 1929.81,808.395 C1936.99,765.525 1944.25,728.565 1948.45,722.475 C1958.31,708.204 1961.1,669.792 1961.1,669.792 L1926.28,667.063 L1896.11,664.668 L1926.4,664.971 L1966.43,665.396 C1966.43,665.396 1966.29,703.896 1957.4,718.786" id="Fill-181" fill="#322A45"></path>
        <path d="M2030.41,647.471 C2030.41,647.471 1999.06,691.677 1902.9,690.167 C1823.18,688.894 1792.35,657.645 1792.35,657.645 C1792.35,657.645 1792.76,645.644 1793.44,626.127 C1795.73,559.546 1801.25,405.677 1804.67,345.654 C1805.27,335.28 1805.79,327.726 1806.24,323.887 C1807.14,315.912 1835.95,278.2 1915.21,260.876 C1956.77,251.799 1972.65,257.753 1980.29,265.746 C1982.06,267.528 1983.39,269.474 1984.47,271.373 C1990.37,281.43 2019.23,425.8 2022.34,494.224 C2022.49,497.603 2022.65,501.024 2022.8,504.488 C2023.15,511.545 2023.5,518.687 2023.85,525.872 C2024.07,530.491 2024.29,535.109 2024.51,539.686 C2025,548.753 2025.44,557.734 2025.89,566.417 C2026.05,569.624 2026.21,572.789 2026.37,575.912 C2028.55,615.988 2030.41,647.471 2030.41,647.471" id="Fill-182" fill="#DC3844"></path>
        <path d="M1926.09,264.31 C1926.09,264.31 1925.34,273.014 1914.95,276.298 C1902.02,280.394 1890.49,261.951 1890.49,261.951 C1896.33,248.035 1899.49,232.705 1899.49,232.705 L1919.54,247.533 L1925.78,252.169 L1926.04,262.129 L1926.09,264.31" id="Fill-183" fill="#EEBC9F"></path>
        <path d="M2026.37,575.912 C2023.06,576.923 2021.13,577.36 2021.13,577.36 C2018.88,576.809 2017.01,576.008 2015.4,575.126 C2008.88,577.023 2002.73,578.927 2002.73,578.927 L2002.74,578.458 C1994.33,583.185 1980.39,590.981 1978.28,592.313 C1975.21,594.184 1949.14,589.552 1949.14,589.552 C1949.14,589.552 1959.28,558.316 1959.81,557.813 C1960.37,557.267 1977.23,550.802 1979.71,550.845 C1980.39,550.856 1982.48,551.191 1985.12,551.663 C1987.76,552.135 1991,552.703 1994.02,553.311 L2007.6,549.269 C2007.96,547.907 2008.32,547.059 2008.32,547.059 L2008.36,547.017 C2009.05,546.772 2016.54,543.823 2022.87,540.512 C2023.43,540.223 2023.99,539.933 2024.51,539.686 C2025,548.753 2025.44,557.734 2025.89,566.417 C2026.05,569.624 2026.21,572.789 2026.37,575.912" id="Fill-184" fill="#D2283D"></path>
        <path d="M1965.74,588.04 C1963.03,589.062 1938.81,611.083 1931.67,611.304 C1927.87,611.453 1921.49,611.942 1916.31,612.367 L1916.64,616.047 L1897.84,618.462 C1897.13,622.253 1896.12,626.167 1894.69,630.288 C1894.69,630.288 1835.93,632.705 1793.44,626.127 C1795.73,559.546 1801.25,405.677 1804.67,345.654 C1806.79,341.502 1808.86,338.29 1810.86,336.102 C1810.86,336.102 1861.4,337.818 1861.25,440.906 C1861.25,440.906 1804.51,570.678 1806.11,582.115 C1807.71,593.552 1895.51,581.673 1895.51,581.673 C1895.51,581.673 1896.25,583.48 1897.05,586.699 L1913.8,581.984 C1919.79,576.232 1929.21,567.59 1932.78,566.454 C1938.15,564.793 1966.93,568.489 1969.4,571.736 C1971.82,574.982 1968.41,587.017 1965.74,588.04" id="Fill-185" fill="#D2283D"></path>
        <path d="M1891.39,259.742 L1914.97,276.303 L1894.71,304.019 L1886,269.666 C1886,269.666 1887.73,261.609 1891.39,259.742" id="Fill-186" fill="#BA2F2D"></path>
        <path d="M1926.04,262.129 L1922.16,271.721 C1922.16,271.721 1924.79,259.188 1914.61,257 C1904.3,254.782 1901.07,238.579 1901.07,238.579 L1919.54,247.533 L1925.78,252.169 L1926.04,262.129" id="Fill-187" fill="#DE9D8A"></path>
        <polyline id="Fill-188" fill="#BA2F2D" points="1914.97 276.303 1925.95 258.742 1928.29 258.346 1933.59 268.341 1931.7 295.928 1914.97 276.303"></polyline>
        <path d="M1887.08,265.433 L1940.12,491.567 C1940.12,491.567 1859.69,384.082 1861.94,377.62 C1864.18,371.158 1883.94,350.663 1883.94,350.663 L1833.38,294.428 C1833.38,294.428 1869.46,267.51 1887.08,265.433" id="Fill-189" fill="#E4717B"></path>
        <path d="M1942.17,579.992 C1942.17,579.992 1968.27,584.633 1971.33,582.727 C1974.38,580.82 2002.25,565.271 2002.25,565.271 L1996.53,545.612 C1996.53,545.612 1975.24,541.308 1972.74,541.264797 C1970.25,541.223 1953.4,547.702 1952.86,548.227 C1952.32,548.751 1942.17,579.992 1942.17,579.992" id="Fill-190" fill="#E6B59C"></path>
        <path d="M1928.29,258.346 L1935.85,473.38 L1940.12,491.567 C1940.12,491.567 1970.23,354.27 1969.75,351.324 C1969.26,348.377 1951.54,338.461 1951.54,338.461 L1969.41,258.958 C1969.41,258.958 1956.59,253.041 1928.29,258.346" id="Fill-191" fill="#E4717B"></path>
        <path d="M1908.94,565.639 C1908.94,565.639 1927.78,546.731 1933.15,545.042 C1938.52,543.353 1967.3,547.048 1969.74,550.295 C1972.18,553.541 1968.78,565.591 1966.09,566.613 C1963.39,567.635 1939.16,589.657 1932.03,589.892 C1924.91,590.126 1908.5,591.627 1908.5,591.627 L1908.94,565.639" id="Fill-192" fill="#EEBC9F"></path>
        <polyline id="Fill-193" fill="#BA2F2D" points="1914.17 560.54 1917 594.621 1890.23 598.082 1889.33 567.543 1914.17 560.54"></polyline>
        <path d="M1895.86,560.228 C1895.86,560.228 1904.75,581.592 1895.03,608.847 C1895.03,608.847 1784.12,613.417 1756.78,592.959 C1743.07,582.698 1746.58,564.297 1750.21,539.788 C1753.83,515.279 1787.52,340.277 1811.24,314.695 C1811.24,314.695 1859.82,334.762 1844.46,442.042 C1844.46,442.042 1804.88,549.266 1806.47,560.688 C1808.06,572.111 1895.86,560.228 1895.86,560.228" id="Fill-194" fill="#E16062"></path>
        <path d="M2014.16,567.798 C1991.48,562.07 2001.35,537.496 2001.35,537.496 C2001.35,537.496 2022.97,542.138 2014.16,567.798" id="Fill-195" fill="#BC484D"></path>
        <path d="M1987.04,543.739 C1987.04,543.739 1996.77,552.382 1995.77,569.356 C1995.77,569.356 2023.51,560.826 2023.68,561.541 C2023.84,562.255 2012.18,536.24 2012.18,536.24 L1987.04,543.739" id="Fill-196" fill="#BA2F2D"></path>
        <path d="M2081.27,531.38 C2063.17,550.557 2036.67,560.917 2023.01,565.256 C2017.55,567.001 2014.16,567.798 2014.16,567.798 C2018.3,555.732 2015.73,548.296 2011.83,543.828 C2007.43,538.796 2001.35,537.496 2001.35,537.496 L2001.39,537.454 C2002.08,537.209 2009.56,534.26 2015.9,530.95 C2019.26,529.255 2022.28,527.426 2023.85,525.872 C2025.07,524.696 2025.85,523.641 2025.86,522.958 C2025.87,522.402 2024.75,515.589 2022.8,504.488 C2022.65,501.024 2022.49,497.603 2022.34,494.224 C2020.6,455.736 2010.68,393.221 2001.31,344.09 C2001.23,343.576 2001.11,343.062 2001.03,342.59 C1996.09,316.781 1991.29,294.82 1987.96,282.2 C1987.92,282.072 1987.92,282.029 1987.92,282.029 C1986.44,276.448 1985.26,272.71 1984.47,271.373 C1983.39,269.474 1982.06,267.528 1980.29,265.746 C2001.24,278.068 2086.97,525.324 2081.27,531.38" id="Fill-197" fill="#E16062"></path>
        <path d="M1937.88,199.616 C1937.88,199.616 1938.8,231.814 1936.34,242.856 C1933.88,253.898 1931.43,256.927 1928.74,258.083 C1926.05,259.239 1908.38,254.131 1903.33,244.297 C1898.29,234.462 1896.26,212.928 1896.26,212.928 L1903.69,184.077 L1931.8,172.404 C1931.8,172.404 1937.72,189.727 1937.88,199.616" id="Fill-198" fill="#EEBC9F"></path>
        <path d="M1901.07,217.262 C1901.07,217.262 1915.05,186.808 1926.48,187.003 C1929.51,187.054 1928.67,199.974 1938.04,210.437 C1940.27,212.924 1939.98,188.348 1939.98,188.348 C1939.98,188.348 1931.08,168.967 1929.81,169.124 C1928.55,169.28 1898.05,172.5 1898.37,174.463 C1898.69,176.428 1901.07,217.262 1901.07,217.262" id="Fill-199" fill="#DE9D8A"></path>
        <path d="M1897.78,224.172 C1897.78,224.172 1914.16,189.752 1915.66,186.818 C1919.95,178.479 1926.03,181.654 1926.48,187.003 C1926.48,187.003 1930.54,182.839 1932.62,191.428 C1934.73,200.108 1938.04,210.437 1938.04,210.437 L1937.96,222.185 C1937.96,222.185 1946.94,208.984 1951.48,201.183 C1956.01,193.382 1948.85,158.904 1933.11,158.405 C1921.63,158.042 1889.4,160.732 1884.27,180.007 C1883.31,183.576 1884.17,185.48 1884.17,185.48 C1884.17,185.48 1878.58,184.451 1875.39,191.474 C1872.2,198.497 1875.12,207.271 1875.12,207.271 L1890.25,226.049 L1897.78,224.172" id="Fill-200" fill="#171D35"></path>
        <path d="M1897.78,224.172 C1897.78,224.172 1894.87,216.243 1889.94,218.118 C1885.01,219.992 1888.79,236.605 1899.83,234.17 C1904.1,233.226 1897.78,224.172 1897.78,224.172" id="Fill-201" fill="#EEBC9F"></path>
        <path d="M2037.65,528.287 C2035.79,532.571 2021.18,539.629 2011.83,543.828 C2007.43,538.796 2001.35,537.496 2001.35,537.496 L2001.39,537.454 C2002.08,537.209 2009.56,534.26 2015.9,530.95 C2019.26,529.255 2022.28,527.426 2023.85,525.872 C2025.07,524.696 2025.85,523.641 2025.86,522.958 C2025.87,522.402 2024.75,515.589 2022.8,504.488 C2022.65,501.024 2022.49,497.603 2022.34,494.224 C2020.6,455.736 2010.68,393.221 2001.31,344.09 C2016.71,415.629 2039.48,524.044 2037.65,528.287" id="Fill-202" fill="#DE4A50"></path>
        <path d="M2600.57,1492.255 C2600.57,1492.255 2607.83,1520.875 2607.83,1524.505 C2607.83,1528.135 2581.11,1536.345 2561.46,1526.525 C2559.08,1525.325 2553.07,1510.965 2556.83,1499.465 C2559.41,1491.555 2571.95,1484.995 2571.95,1484.995 L2600.57,1492.255" id="Fill-203" fill="#171D35"></path>
        <path d="M2638.25,1234.645 C2633.41,1312.045 2610.84,1487.815 2610.84,1487.815 C2610.84,1487.815 2586.66,1508.795 2560.85,1487.815 C2560.85,1487.815 2578.6,1276.585 2576.98,1229.805 C2576.52,1216.795 2570.62,1189.965 2562.35,1157.995 C2562.35,1157.995 2562.32,1157.895 2562.3,1157.755 C2540.77,1074.735 2503.28,957.305 2503.28,957.305 L2514.09,809.245 L2638.25,854.455 C2638.25,854.455 2643.09,1157.245 2638.25,1234.645" id="Fill-204" fill="#3F3352"></path>
        <path d="M2599.96,915.895 L2581.72,929.855 C2581.72,929.855 2524.98,981.085 2534.65,1025.825 C2544.04,1069.175 2561.24,1152.575 2562.3,1157.755 C2540.77,1074.735 2503.28,957.305 2503.28,957.305 L2511,851.655 L2546.75,833.025 L2599.96,915.895" id="Fill-205" fill="#322A45"></path>
        <path d="M2408.88,1492.255 C2408.88,1492.255 2401.62,1520.875 2401.62,1524.505 C2401.62,1528.135 2428.33,1536.345 2447.98,1526.525 C2450.13,1525.445 2459.43,1500.155 2456.04,1489.435 C2453.08,1480.045 2437.5,1484.995 2437.5,1484.995 L2408.88,1492.255" id="Fill-206" fill="#171D35"></path>
        <path d="M2581.82,881.885 L2581.82,881.885 C2581.82,881.885 2602.87,924.395 2522.13,991.745 C2495.57,1013.905 2449.59,1197.565 2449.59,1258.835 C2449.59,1320.115 2449.59,1489.435 2449.59,1489.435 C2449.59,1489.435 2425.4,1512.005 2399.6,1489.435 C2399.6,1489.435 2386.7,1250.705 2383.48,1193.495 C2380.25,1136.285 2375.42,836.575 2375.42,836.575 L2581.82,881.885" id="Fill-207" fill="#3F3352"></path>
        <path d="M2266.17,756.135 C2266.17,753.235 2253.47,716.222 2251.65,718.641 C2249.84,721.055 2249.23,737.335 2249.23,737.335 C2249.23,737.335 2235.93,741.505 2233.51,737.335 C2231.09,733.155 2216.58,707.152 2214.77,708.966 C2212.95,710.78 2220.21,744.645 2223.84,749.485 C2227.46,754.315 2251.65,769.305 2251.65,769.305 L2266.17,756.135" id="Fill-208" fill="#EEBC9F"></path>
        <path d="M2740.32,719.395 C2740.32,716.495 2753.02,679.479 2754.83,681.898 C2756.65,684.317 2757.25,700.587 2757.25,700.587 C2757.25,700.587 2770.56,704.764 2772.98,700.587 C2775.39,696.411 2789.91,670.409 2791.72,672.223 C2793.54,674.038 2786.28,707.9 2782.65,712.738 C2779.02,717.576 2754.83,732.555 2754.83,732.555 L2740.32,719.395" id="Fill-209" fill="#EEBC9F"></path>
        <path d="M2457.86,408.027 C2457.86,408.027 2450,403.996 2446.97,408.027 C2443.95,412.058 2454.63,427.982 2467.93,429.191 C2481.24,430.4 2457.86,408.027 2457.86,408.027" id="Fill-210" fill="#EEBC9F"></path>
        <path d="M2528.4,406.235 C2528.4,406.235 2535.26,399.964 2538.89,403.391 C2542.51,406.817 2544.53,413.469 2542.51,418.709 C2540.5,423.951 2528.61,431.906 2523.57,429.238 C2518.53,426.571 2528.4,406.235 2528.4,406.235" id="Fill-211" fill="#EEBC9F"></path>
        <path d="M2473.58,442.293 C2473.58,442.293 2450.4,412.864 2449.79,385.854 C2449.19,358.844 2469.95,356.224 2469.95,356.224 C2469.95,356.224 2481.44,311.678 2516.51,317.322 C2551.58,322.965 2548.36,363.884 2547.15,376.179 C2545.94,388.475 2535.46,393.715 2531.43,409.035 C2527.4,424.354 2518.93,440.681 2518.93,440.681 C2518.93,440.681 2496.56,446.324 2473.58,442.293" id="Fill-212" fill="#171D35"></path>
        <polyline id="Fill-213" fill="#EEBC9F" points="2474.99 440.277 2473.98 461.845 2522.13 459.225 2516.92 435.037 2474.99 440.277"></polyline>
        <path d="M2459.24,480.389 C2459.24,480.389 2471.49,454.79 2472.03,454.186 C2472.57,453.581 2524.17,449.953 2524.98,450.759 C2525.78,451.565 2536.67,474.947 2536.67,474.947 L2459.24,480.389" id="Fill-214" fill="#E16062"></path>
        <path d="M2653.8,578.278 C2650.2,652.874 2644.32,761.095 2644.71,763.195 C2645.02,764.915 2647.56,800.225 2649.88,833.025 C2651.92,862.075 2653.78,889.165 2653.78,889.165 C2653.78,889.165 2546.75,975.325 2359.29,896.885 C2359.29,896.885 2360.52,884.985 2362.31,867.685 C2366.62,825.725 2374.17,752.045 2375.01,740.215 C2375.79,729.595 2365.53,654.204 2357.91,600.482 C2353.53,569.498 2350.03,545.697 2350.03,545.697 C2350.41,544.076 2373.39,475.963 2502,471.923 C2630.61,467.884 2654.79,506.198 2656.39,508.81 C2656.95,509.705 2655.69,539.432 2653.8,578.278" id="Fill-215" fill="#E57760"></path>
        <path d="M2375.01,740.215 C2375.79,729.595 2365.53,654.204 2357.91,600.482 C2360.48,584.64 2362.12,574.553 2362.12,574.553 C2362.12,574.553 2420.24,696.267 2422.66,721.065 C2424.77,742.515 2379.32,839.585 2362.31,867.685 C2366.62,825.725 2374.17,752.045 2375.01,740.215" id="Fill-216" fill="#E06544"></path>
        <path d="M2644.71,763.195 C2645.02,764.915 2647.56,800.225 2649.88,833.025 C2641.06,825.625 2581.99,703.475 2584.36,679.094 C2586.78,654.301 2646.69,532.224 2646.69,532.224 C2646.69,532.224 2649.62,551.309 2653.8,578.278 C2650.2,652.874 2644.32,761.095 2644.71,763.195" id="Fill-217" fill="#E06544"></path>
        <path d="M2340.54,851.075 C2333.29,854.695 2240.16,788.785 2240.16,788.785 C2240.16,788.785 2242.97,760.315 2260.87,754.225 C2263.34,753.375 2266.12,752.965 2269.19,753.105 C2269.19,753.105 2307.89,771.835 2309.1,770.935 C2309.29,770.815 2310.36,765.465 2312.08,756.545 L2312.08,756.445 C2321.53,706.668 2350.03,545.697 2350.03,545.697 C2350.03,545.697 2404.04,672.079 2406.46,696.872 C2408.88,721.665 2347.8,847.445 2340.54,851.075" id="Fill-218" fill="#E57760"></path>
        <path d="M2766.33,752.045 C2766.33,752.045 2673.2,817.955 2665.95,814.325 C2658.69,810.705 2597.61,684.923 2600.03,660.13 C2602.45,635.337 2656.46,508.955 2656.46,508.955 C2656.46,508.955 2681.69,651.495 2692.55,709.788 C2695.31,724.615 2697.15,734.005 2697.39,734.195 C2698.6,735.085 2737.3,716.367 2737.3,716.367 C2740.4,716.222 2743.18,716.633 2745.67,717.504 C2763.54,723.625 2766.33,752.045 2766.33,752.045" id="Fill-219" fill="#E57760"></path>
        <path d="M2312.08,756.545 L2308.5,795.635 C2308.5,795.635 2306.08,782.735 2298.02,774.275 C2292.75,768.735 2273.57,759.785 2260.87,754.225 C2263.34,753.375 2266.12,752.965 2269.19,753.105 C2269.19,753.105 2307.89,771.835 2309.1,770.935 C2309.29,770.815 2310.36,765.465 2312.08,756.545" id="Fill-220" fill="#E06544"></path>
        <path d="M2745.67,717.504 C2738.51,721.735 2706.77,740.605 2703.56,742.035 C2699.93,743.625 2698.72,760.175 2698.72,760.175 L2692.55,709.788 C2695.31,724.615 2697.15,734.005 2697.39,734.195 C2698.6,735.085 2737.3,716.367 2737.3,716.367 C2740.4,716.222 2743.18,716.633 2745.67,717.504" id="Fill-221" fill="#E06544"></path>
        <path d="M3591.5,156.645479 C3765.35957,17.8112077 4099,34.0508625 4099,-117.177261 C4099,-268.405384 3871.78451,-391 3591.5,-391 C3311.21549,-391 3084,-268.405384 3084,-117.177261 C3084,34.0508625 3417.64043,295.47975 3591.5,156.645479 Z" id="Oval" fill="#F96766"></path>
        <path d="M599.5,2260.47183 C804.876972,2096.33046 1199,2115.53032 1199,1936.73591 C1199,1757.94151 930.594708,1613 599.5,1613 C268.405292,1613 0,1757.94151 0,1936.73591 C0,2115.53032 394.123028,2424.6132 599.5,2260.47183 Z" id="Oval" fill="#2FCC71"></path>
    </g>
</svg>