<svg height="57" viewBox="0 0 141 57" width="141" xmlns="http://www.w3.org/2000/svg"><g fill="none" fill-rule="evenodd" transform="translate(1 11)"><path d="m0 0h140v34h-140z"/><g fill="#000" fill-rule="nonzero" transform="translate(.5)"><path d="m0 12.9c.12155501-.2905352.33147365-.5354403.6-.7.51357811-.1773957 1.05855767-.2455181 1.6-.2 1.23032379.4230982 2.35561937 1.1050955 3.3 2 1.13939426.9194818 2.20899692 1.9222343 3.2 3l.7-1.4c-1.88191894-1.5024798-3.88928061-2.8407209-6-4-1.4-.4-3.2-.6-3.4 1.3zm1.4-2.3c1.6-.5 1.8.6 2.1.9l1.2.7c-1.6-3.7-3.3-1.6-3.3-1.6z"/><path d="m2.1 12.5c3.8 2.8.6 4.1.6 4.1.58519396.3238182 1.32059451.1507828 1.7-.4l.3-.6c.05828111-.1606914.09199357-.3292537.1-.5 1.35235569 1.5046199 2.58920298 3.1091786 3.7 4.8-.11603031-.5934826-.18292364-1.1955225-.2-1.8-1.2-1.4-1.5-1.9-2.3-2.7-2.2-2.7-4-3-4-3m15.9-.2c-.1276521-.6585945-.1613202-1.3319569-.1-2 .2118504-.48378714.379208-.98586005.5-1.5h.1l.6.4c-.2604049-.54350216-.4615631-1.11345033-.6-1.7v-.1c-.1458012-.66545241-.4551188-1.28408759-.9-1.8.2327797.60511466.3350146 1.25260203.3 1.9-.1 1.7-2.6 3.7-2 6.6.324497 1.1900627 1.0262871 2.2427479 2 3-.4153282-1.0308146-.7171089-2.1038125-.9-3.2-.1032489-.8652936.0718881-1.7409786.5-2.5h.2zm16.9-11.7c-2.1585745.34270718-4.2954865.81015668-6.4 1.4-2.1.7-5.2 2-6.6 3.8s-.2 4.6-.6 6.4-3.2 3.8-3.2 3.8 3.3-.9 4.4-3.5-.2-3.3 1.1-6.1 11.3-5.8 11.3-5.8z"/><path d="m34.9.7c-2.2060766.74054787-3.9662892 2.42741826-4.8 4.6l1.6-.3s.1-2.2 3.2-4.3zm5.6 4.7c-3.6941235-.613577-7.4760026-.44322209-11.1.5-5.5 1.7-4.8 4.5-4.9 6s-1.4 5.2-6.3 4.8c2.019116.903586 4.3830803.509592 6-1 3.2-2.6 1-5.7 3.6-7.2s4.7-2.7 12.7-3.1z"/><path d="m26.5 13.5c1.3311964.2039508 2.5597895.8357988 3.5 1.8-1.0871266-.8175014-2.4512958-1.1764933-3.8-1zm9.5-2.5s-5.2.1-5.3 4.6c-.2-.1-3-5 5.3-4.6zm4.1-5.3c-5.3 1.1-4.1 5.3-4.1 5.3-2.7-5.4 4.1-5.3 4.1-5.3zm-14.7 13.9c.8077589-2.2312692 2.8361882-3.7915995 5.2-4-4.1-.8-5.1 1.2-5.2 2.7-2.0753327-.4181199-4.1835027-.652361-6.3-.7 2.204471.2765449 4.3396772.9543881 6.3 2zm-21.7 11.2c.55510006-.2873371 1.17544895-.4251924 1.8-.4.62052566-.0131746 1.23229693-.1491237 1.8-.4l-2.7-.5c-1 .1-.9 1.3-.9 1.3zm19.7-2.8c-.0282464-.2124705.0299491-.4273895.1615411-.5965792.1315919-.1691896.325573-.2784977.5384589-.3034208.6881994-.0180063 1.3716646.1186868 2 .4l-1.3.3c-.476182-.0639683-.9607764.0052594-1.4.2zm7.5 3.2c.526832-.2589425 1.1163587-.3629767 1.7-.3h1.4c-.4 0-1.2-.9-2.2-.7-.2570758-.0015924-.5025615.1068279-.6745395.2979145-.1719779.1910866-.25403.4465971-.2254605.7020855zm4.7-20.4c-6.4-1.5-8.4-.4-8.4-.4.0980676-.1881265.1655782-.3906582.2-.6.2-.3.2-.4.2-.5 2.7434668-.08060359 5.4720817.4310117 8 1.5zm-24.8-4.1c-.4103108-.46289096-.98350073-.7494859-1.6-.8-1.2 0-2.3 1.4-3.3 1.4-.59279334.0268681-1.1813819-.11162333-1.7-.4.41640368.52389535 1.032638.85013705 1.7.9 1.4 0 2.4-1.3 3.3-1.3zm2.9 1.4c.1414856.65684382.1752593 1.33231893.1 2-.1 2.2-4.3 5.2-4.3 8.7.08115944 1.2956661.6533702 2.511614 1.6 3.4-.4199965-1.2198947-.5567856-2.5193914-.4-3.8.4-2.6 3.7-5.6 3.6-8.1.0512002-.77975092-.1600155-1.55420852-.6-2.2z"/><path d="m11.6 22.1c-.3441904-.8925516-.413836-1.8675894-.2-2.8.3-.9 1.1-1.6 2.7-2 0 0-2.8 2.6-.7 4.8-.8363629.8379249-1.5139751 1.8204627-2 2.9-.6 1.3-1.8 4.2-2.2 4.8-.60665764.9946003-1.51870605 1.7663335-2.6 2.2-1.7.1-3.7.4-3.8 1.7-.24713637-.3481379-.3542319-.77652-.3-1.2.1-.9 1.5-1.9 3-1.8 1.55384093.2845196 3.08282078-.6073853 3.6-2.1.70762614-2.2129456 1.5423466-4.3832188 2.5-6.5z"/><path d="m14 22.3s-2.3 6.9-6.3 9.6c1.05493442-.1999196 2.1346412-.2336604 3.2-.1.7.3 1.5.8.8 2s1.4-.8 1.1-2-1.8-1-1.8-1-.4-.2-.2-.8 1.8-2.6 2-3l2.3-3.6c.9868437.0801421 1.9280044-.4296533 2.4-1.3.9-1.8-1-3.4-1-3.4s.8 1.9-.1 2.8c-.6498424.5958143-1.5226375.886746-2.4.8z"/><path d="m15.9 23.9 1.1-.4s.4.4 2 .4h.3c2.5549409-.4467829 5.0419415-1.2197695 7.4-2.3l.4.6c-2.7.9-5.8 3.5-9.9 3l-1.9-.4zm11.6 3.3c-.4435755.7862399-1.1525689 1.3888843-2 1.7-1.2 0-2.7.3-2.8 1.3-.2092325-.2495393-.2838528-.5853306-.2-.9 0-.6.9-1.4 2.2-1.3.531348.0858255 1.0748612-.0461354 1.5076967-.3660574.4328356-.3199219.7184549-.8007981.7923033-1.3339426.3-.9 0-2.6.4-3.7l.9.7v.3c-.5 1.2-.3 2.6-.8 3.6zm1.7-3.3.7.4c-.1867961.3801487-.3213477.7838034-.4 1.2l-.7 2.1c-.2.5.1.6.1.6s1.1.1 1.3.8-.8 1.5-.8 1.5-.1-1.3-.6-1.5c-.7338955-.0864269-1.4769717-.0526507-2.2.1 1.7-1.2 2.3-4.6 2.6-5.2z"/><path d="m35.8 30.9s.5 1 .2 1.3-1.8 0-3.4.2-2.4.3-2.5 1.5c-.2316848-.3173869-.3384705-.7089344-.3-1.1.4114164-1.1021934 1.5356396-1.7683997 2.7-1.6h1.9c.4-.2-.6-2.2-.8-2.6-1.5-3-1.5-4-1.5-4.2s-4.2-.8-5.2-3.7c3.4 2.8 6 2.8 6 2.8.790499 2.5321268 1.7595971 5.0049978 2.9 7.4zm1-15.7h1.2c1.8-3.9 5-7.9 5-10.3-.038477-.97155506-.4295172-1.89583202-1.1-2.6l-.2.6c-.3824642-.89844499-.8872376-1.73973391-1.5-2.5l2.7 1.3h-.5c.793785.79358271 1.2275114 1.8778987 1.2 3 .1 2.8-3 6-4.8 10.3 4 .5 6.7 3 6.7 5.6s-2.3 5.2-4.4 5.2c-.9157018.0195043-1.8178684-.2233867-2.6-.7-1-.5-2-1.7-2-4.1-.0552301-1.6142559.2523188-3.2203442.9-4.7l-2.7.3-1.1.3c1.0513786.5612803 1.8147908 1.5428102 2.1 2.7.1932232 1.2470756.0552819 2.5230331-.4 3.7.0466116 1.818251.4191847 3.6133762 1.1 5.3l.6 1.5c.1479269.387559.432457.7076554.8.9 0 0 1.2.2 1.5.9.1492516.2244589.2015678.4996656.145089.7632334s-.216969.4931731-.445089.6367666c.3-1.1-.7-1.3-1.3-1.3h-1c-.1227377-.7847699-.3237402-1.5552793-.6-2.3 0 0-1-2.7-1.3-4-.2965488-.9841884-.5303518-1.9862014-.7-3 0 0 2.8-4.8-3.5-6.8h.9l1.7-.5zm1.6 1.3c-.5844015 1.6000566-.8559893 3.2974808-.8 5 .1 1.7 1.1 4 3.8 3.7 1.1748966-.1052496 2.2042678-.829622 2.7-1.9.3012852-.6609477.4711065-1.3741972.5-2.1-.0296388-1.2518473-.6163055-2.4251806-1.6-3.2-1.3020217-1.0388311-2.9358779-1.5716103-4.6-1.5m-27.9-12.2s-2.2-.7-3.6.4l.7 1.2c.45961642-.42086068 1.07034103-.63719813 1.69239382-.59949796.62205278.03770017 1.20218058.32621049 1.60760618.79949796l.3.5c-.9419438.94099712-2.30767717 1.32036751-3.6 1 .50805214.75941412 1.3899249 1.18117935 2.3 1.1 1.6 0 3.2-1.7 3.7-1.1s-.2-2.3 2.7-3.2l.7.8c.6600285-.65600832.9904416-1.57382245.9-2.5-.0372991-1.06196125-.5993253-2.03614003-1.5-2.6.10711.71427691.0028231 1.44428497-.3 2.1-.3031275.7410319-1.001242 1.24522569-1.8 1.3l-1.3-.2c-.3-.1-2.4-.8-2.5 1zm2.4-.1s-.7 1.2-1.7.5 0-.7.6-.6.5.2 1.1.1zm46.7 2.7h1v6.5h2.5v.8h-3.4zm4.3-.5h.9v7.9h-.9zm4 9.1c-.3.9-.6 1.3-1.3 1.3h-.6v-.8h.5c.3 0 .4-.1.6-.7l.2-.9-1.6-5.6h1l1.2 4.4 1.1-4.4h.9zm7.6-1.1h-1l-1.1-4.6-1.1 4.6h-1l-1.4-5.4h1l1 4.5 1-4.5h1.1l1.1 4.5 1-4.5h.9zm4.1-5.5c1.4 0 2.2 1.1 2.2 2.8s-.7 2.8-2.2 2.8-2.1-1.1-2.1-2.8.7-2.8 2.1-2.8zm0 4.8c.9 0 1.2-.7 1.2-2.1s-.4-2.1-1.2-2.1-1.2.7-1.2 2.1.3 2.1 1.2 2.1zm7.1-.3c0 .3.1.7.1 1h-.9v-.8c-.2421759.5551267-.7944327.9101489-1.4.9-1.1 0-1.9-.9-1.9-2.8s.7-2.8 1.9-2.8c.5714936.01430956 1.0975288.31490112 1.4.8v-3.3h.9zm-2.1-3.8c-.8 0-1.2.7-1.2 2.1s.4 2.1 1.2 2.1 1.2-.7 1.2-2.1-.4-2.1-1.2-2.1zm3.3.5c0-.4-.1-.8-.1-1.2h.9v.9c.2279736-.61389513.8510461-.98773861 1.5-.9v.9h-.3c-.7 0-1.2.6-1.2 1.8v2.9h-.9zm3.3-.8c.4475987-.28297613.9709325-.4225318 1.5-.4.5186709-.05702284 1.0347985.12730848 1.4.5.3446834.34203585.5266482.8151443.5 1.3v2.8c-.0175708.3034904.0162379.6077688.1.9h-.8v-.7c-.3211954.5154701-.8929921.8204283-1.5.8-.4226007.0624726-.8505996-.0714217-1.162253-.3635968-.3116535-.2921751-.4728535-.7106548-.437747-1.1364032 0-1.1.7-1.8 2.6-1.8h.5v-.3c-.0078765-.3101061-.0757962-.6157444-.2-.9-.2-.3-.5-.3-.9-.3-.5324622-.01702888-1.0451159.20267987-1.4.6zm2.6 2.4h-.6c-1.1 0-1.5.5-1.5 1.1s.3 1 .9 1c.7179702 0 1.3-.5820298 1.3-1.3v-.7zm2.8.2c0 1.3.5 1.9 1.5 1.9.4316037-.0068337.8506168-.1465047 1.2-.4v.8c-.4727353.2063015-.9842822.3086109-1.5.3-1.4 0-2.2-1.1-2.2-2.8s.7-2.8 2.1-2.8 1.9 1 1.9 2.6v.5zm2.2-.6c0-1.1-.4-1.7-1.1-1.7s-1.1.4-1.1 1.7zm4.2 3-.7.2c-.8 0-1.3-.3-1.3-1.3v-3.5h-.9v-.7h.9v-1.2l.9-.3v1.4h1.1v.7h-1.1v3.2c0 .6.2.9.6.9l.5-.2zm.7-7.9h.9v3.3c.214682-.51978164.739244-.84258933 1.3-.8 1 0 1.6.5 1.6 1.8v3.8h-.9v-3.5c0-.9-.3-1.2-.9-1.2s-1.2.5-1.2 1.5v3.3h-.9zm12.2 7.9-1.3.2c-2.3 0-3.4-1.8-3.4-3.8s1.3-3.8 3.3-3.8c.484406-.01858328.965742.08456022 1.4.3v.9c-.411036-.28142512-.90233-.42179486-1.4-.4-1.2 0-2.3 1-2.3 2.8s.7 3.2 2.4 3.2c.46897.0418207.935659-.1017757 1.3-.4zm2.9 1.2c-.3.9-.6 1.3-1.3 1.3h-.6v-.8h.5c.3 0 .4-.1.6-.7l.2-.9-1.7-5.5h1l1.2 4.4 1.1-4.4h.9zm2.5-5.4c0-.4-.1-.8-.1-1.2h.9v.8c.212521-.53169694.727403-.88038476 1.3-.88038476s1.087479.34868782 1.3.88038476c.227208-.5225734.730894-.87127935 1.3-.9 1 0 1.6.5 1.6 1.8v3.8h-.9v-3.7c0-.7-.3-1-.9-1s-1 .4-1 1.4v3.4h-.9v-3.7c0-.7-.3-1-.9-1s-1 .4-1 1.4v3.4h-.9zm7.7 0c0-.4-.1-.8-.1-1.2h.9v.9c.227974-.61389513.851046-.98773861 1.5-.9v.9h-.3c-.7 0-1.2.6-1.2 1.8v2.9h-.9zm6.9 3.1c0 .4.1.8.1 1.2h-.9v-.8c-.218335.5749343-.786311.9400614-1.4.9-1 0-1.6-.5-1.6-1.8v-3.8h.9v3.6c0 .9.3 1.2.9 1.2s1.2-.5 1.2-1.5v-3.3h.9v4.3zm-77 6.5h1l1.2 5.9 1.3-5.9h1.2l1.3 5.9 1.3-5.9h.9l-1.7 7.4h-1.1l-1.4-6.3-1.4 6.3h-1.1zm9.5 4.9c0 1.3.5 1.9 1.5 1.9.4596234-.0244574.90613-.1618441 1.3-.4v.8c-.4727353.2063015-.9842822.3086109-1.5.3-1.4 0-2.2-1.1-2.2-2.8s.7-2.8 2.1-2.8 1.9 1 1.9 2.6v.5zm2.2-.6c0-1.1-.4-1.7-1.1-1.7s-1.1.4-1.1 1.7zm2-4.9h.9v7.9h-.9zm2.1 7c.3802037.2673028.8352938.4073305 1.3.4.7 0 1.1-.4 1.1-.7s-.2-.6-.7-.9l-.6-.3c-.8-.4-1.1-.7-1.1-1.4-.0008647-.4422546.181363-.865142.5034134-1.1682482.3220504-.3031063.7551958-.4593936 1.1965866-.4317518h.1l1.2.2v.7h-1.2c-.6 0-.9.3-.9.7s.3.7.9.9h.3c.7.3 1.1.7 1.1 1.4s-.5 1.7-1.8 1.7c-.5165958.0188667-1.0303988-.0838939-1.5-.3zm4.1-7h.9v3.3c.2146815-.5197816.739244-.8425893 1.3-.8 1 0 1.6.5 1.6 1.8v3.8h-.9v-3.5c0-.9-.3-1.2-.9-1.2s-1.2.5-1.2 1.5v3.3h-.9zm12.8 7.6c-.5994715.2613735-1.2460307.3974912-1.9.4-2.4 0-3.4-1.8-3.4-3.8s1.4-3.8 3.3-3.8l1.8.3v1c-.5521239-.306406-1.1689452-.4777452-1.8-.5-1.2 0-2.3 1-2.3 2.8s.8 3.2 2.4 3.2l1-.2v-2.2h-1.3v-.8h2.2zm3.5-5.1c1.4 0 2.2 1.1 2.2 2.8s-.7 2.8-2.2 2.8-2.2-1.1-2.2-2.8.7-2.8 2.2-2.8zm0 4.8c.9 0 1.3-.7 1.3-2.1s-.4-2.1-1.3-2.1-1.3.7-1.3 2.1.4 2 1.3 2zm2.6-4.8h1l1.2 4.5 1.2-4.5h1l-1.7 5.3h-1.1zm5.8 3c0 1.3.5 1.9 1.5 1.9.459623-.0244574.90613-.1618441 1.3-.4v.8c-.472735.2063015-.984282.3086109-1.5.3-1.4 0-2.2-1.1-2.2-2.8s.7-2.8 2.1-2.8 1.9 1 1.9 2.6v.5zm2.2-.6c0-1.1-.4-1.7-1.1-1.7s-1.1.4-1.1 1.7zm1.9-1.2c0-.4-.1-.8-.1-1.2h.9v.9c.227974-.6138951.851046-.9877386 1.5-.9v.9h-.3c-.7 0-1.2.6-1.2 1.8v2.7h-.9zm3.1 0c0-.4-.1-.8-.1-1.2h.9v.8c.218335-.5749343.786311-.9400614 1.4-.9 1 0 1.6.5 1.6 1.8v3.7h-.9v-3.4c0-.9-.3-1.2-.9-1.2s-1.2.5-1.2 1.5v3.3h-.9zm5.2 0c0-.4-.1-.8-.1-1.2h.9v.8c.212521-.5316969.727403-.8803848 1.3-.8803848s1.087479.3486879 1.3.8803848c.227208-.5225734.730894-.8712793 1.3-.9 1 0 1.6.5 1.6 1.8v3.7h-.9v-3.6c0-.7-.3-1-.9-1s-1 .4-1 1.4v3.4h-.9v-3.7c0-.7-.3-1-.9-1s-1 .4-1 1.4v3.4h-.9zm8.3 1.8c0 1.3.5 1.9 1.5 1.9.459623-.0244574.90613-.1618441 1.3-.4v.8c-.472735.2063015-.984282.3086109-1.5.3-1.4 0-2.2-1.1-2.2-2.8s.7-2.8 2.1-2.8 1.9 1 1.9 2.6v.5zm2.3-.6c0-1.1-.4-1.7-1.1-1.7s-1.1.4-1.1 1.7zm1.8-1.2c0-.4-.1-.8-.1-1.2h.9v.8c.218335-.5749343.786311-.9400614 1.4-.9 1 0 1.6.5 1.6 1.8v3.7h-.9v-3.4c0-.9-.3-1.2-.9-1.2s-1.2.5-1.2 1.5v3.3h-.9v-4.4zm7.6 4.1-.7.2c-.9 0-1.3-.3-1.3-1.3v-3.4h-.9v-.7h.9v-1.1l.9-.3v1.4h1.1v.7h-1.2v3.2c0 .6.2.9.6.9l.6-.2v.7zm-84.4-26.9h1v33.88h-1z"/></g></g></svg>