<svg id="Layer_1" xmlns="http://www.w3.org/2000/svg" width="483.5" height="189.7" viewBox="0 0 483.5 189.7"><style><![CDATA[
	.st0{fill:#493964;}
	.st1{fill:#FFFFFF;}
	.st2{fill:#9BDBF5;}
]]></style><circle class="st2" cx="106.4" cy="87.8" r="1.2"/><circle class="st2" cx="132.4" cy="87.5" r="1.2"/><circle class="st2" cx="132.4" cy="102.8" r="1.2"/><circle class="st2" cx="122.2" cy="73" r="1.2"/><circle class="st2" cx="106.2" cy="77.8" r="1.2"/><path class="st2" d="M45.4 92.5l-3.2-3.9H32.1v-9.5h13.3zM50.2 137.2c-.7.3-1.4.4-2.2.4-2.9 0-5.2-2.3-5.2-5.2 0-2.7 2-4.8 4.6-5.1 0-1.6.1-3.3.4-4.9-5.4.1-9.8 4.6-9.8 10 0 5.6 4.5 10 10 10 2 0 4-.6 5.5-1.7-1-1.1-2.2-2.3-3.3-3.5zM99.8 155.1v2.1c-4.5 4.2-29.5 4.2-34.1 0v-2.1c8.4 2.6 25.8 2.6 34.1 0zM99.8 167.6v2.1c-4.5 4.2-29.5 4.2-34.1 0v-2.1c8.4 2.6 25.8 2.6 34.1 0zM99.8 180.1v2.1c-4.5 4.2-29.5 4.2-34.1 0v-2.1c8.4 2.6 25.8 2.6 34.1 0zM135.8 126v8.2l-4.6.6v-6.2l-10.5-.6v-2zM134.1 145.9h5.3v5.3h-5.3zM169.4 172.3h5.3v5.3h-5.3zM12 119.4h4.6v4.6H12zM120.1 113.4h3.7v3.7h-3.7z"/><circle class="st2" cx="13.1" cy="146.5" r="6.6"/><path class="st2" d="M55.7 130.3l-1 .4c.2 1.4.1 3.9-.9 6.3.8.7 1.6 1.3 2.4 2 1.5-1.8 2.4-4 2.4-6.5 0-1.1-.2-2.2-.5-3.2-.8.3-1.6.7-2.4 1zM100.4 150.6c0 1.4-7.7 2.6-17.2 2.6S66 152 66 150.6c0-1.1 4.3-2 10.5-2.4l2.7 3.7c.1.1.3.2.4.2.2 0 .3-.1.5-.2l3.5-3.9c9.3 0 16.8 1.2 16.8 2.6zM128 138.9h-13.9v-3.6l7 2.3 6.9-2.3zM36.1 158.9c-.4 1.5-1.7 2.6-3.3 2.6-1.9 0-3.4-1.5-3.4-3.4 0-1.7 1.2-3.1 2.9-3.3v4.2h3.8zM96 16.9v-1.2H54v24.8h42v-5.9H81.7V16.9H96zm-35.8 5.4h-4.4V18h4.4v4.3zm6.7 0h-4.4V18h4.4v4.3zm6.7 0h-4.4V18h4.4v4.3zm6.7 0h-4.4V18h4.4v4.3z"/><path class="st2" d="M86.1 21.2h5.5v2.1h-5.5z"/><circle class="st2" cx="79.4" cy="91.8" r="7.9"/><path class="st2" d="M192.1 169.6c-3.6 0-6.5 2.9-6.5 6.5s2.9 6.5 6.5 6.5 6.5-2.9 6.5-6.5c.1-3.6-2.9-6.5-6.5-6.5zm0 10.4c-2.1 0-3.8-1.7-3.8-3.9s1.7-3.8 3.8-3.8c2.1 0 3.8 1.7 3.8 3.8s-1.6 3.9-3.8 3.9zM194 139h3.1v12.6H194zM204.8 99.8v18.5h-12.7V115h10V99.8zM184.4 91.6h2.5v2.2h-2.5zM198.4 93.5h-3.9v-5.4zM228 126.6v30.1h28.9v-30.1H228zm25.7 19.2h-6V139h6v6.8zM263 174.9h5.4v2.7H263zM277.2 174.9h5.4v2.7h-5.4zM291.4 174.9h5.4v2.7h-5.4zM277.2 157.4h5.4v2.7h-5.4zM318.7 166.4l5.2 1.8c-.7 1.8-2.5 3.2-4.6 3.2-2.7 0-4.9-2.2-4.9-4.9s2.2-4.9 4.9-4.9c2.1 0 3.9 1.3 4.6 3.2l-5.2 1.6zM321.4 96.6v5.1c-2.6 7.2-15.8 7.2-18.3 0v-5.1c5 2.7 13.3 2.7 18.3 0zM321.4 92.2v.1c-6.5-2.4-11.8-2.4-18.3 0v-.1c2.5-4.4 15.7-4.4 18.3 0zM374.5 76.2v7.5h41.1v-7.5h-41.1zm6.2 7.4c-2 0-3.7-1.7-3.7-3.7s1.7-3.7 3.7-3.7 3.7 1.7 3.7 3.7-1.6 3.7-3.7 3.7zM374.5 90.4v7.5h41.1v-7.5h-41.1zm6.2 7.4c-2 0-3.7-1.7-3.7-3.7s1.7-3.7 3.7-3.7 3.7 1.7 3.7 3.7-1.6 3.7-3.7 3.7zM374.5 105.1v7.5h41.1v-7.5h-41.1zm6.2 7.4c-2 0-3.7-1.7-3.7-3.7s1.7-3.7 3.7-3.7 3.7 1.7 3.7 3.7-1.6 3.7-3.7 3.7zM374.5 119.7v7.5h41.1v-7.5h-41.1zm6.2 7.4c-2 0-3.7-1.7-3.7-3.7s1.7-3.7 3.7-3.7 3.7 1.7 3.7 3.7-1.6 3.7-3.7 3.7zM432.6 68h-9.5l-2.3 3V60.3h11.8zM382.7 30.4h16.8v10.9h-16.8zM430 20.7h6v3h-6zM365.7 42.6c-4.1 0-7.4 3.3-7.4 7.4 0 4.1 3.3 7.4 7.4 7.4 4.1 0 7.4-3.3 7.4-7.4 0-4.1-3.3-7.4-7.4-7.4zm0 11.2c-2.1 0-3.8-1.7-3.8-3.8 0-2.1 1.7-3.8 3.8-3.8 2.1 0 3.8 1.7 3.8 3.8 0 2.1-1.7 3.8-3.8 3.8zM365.3 128.2h4.4v4.4h-4.4zM427.7 163.5l1.1 2.3 2.5.4-1.8 1.7.4 2.5-2.2-1.1-2.3 1.1.5-2.5-1.9-1.7 2.6-.4zM241.1 97.1h9.1v9.1h-9.1zM271.4 112.1h1.4v17.6h-1.4zM452.3 54.1l-3.9 6 1 5.2-8.1 5.4 2 3.2 3.4.7 3.9-3.8h4l2.6 3.5 3.4-.2c.2-7.1-3.1-14.3-8.3-20zM423.5 85.7l3.2-3.7h1.9l4-1.2v.8l-2 3.3 5.1 2.7v1.1l-3.9 1.9-3.8-1.9-4 4.7zM351.8 177h-9.2c-1.4 0-1.4-2.1 0-2.1h9.2l1.9 1-1.9 1.1zM99.5 115.4l-7.4-7.4 3.7-3.7 7.4 7.4c1.8 1.9-1.8 5.6-3.7 3.7z"/><g><path class="st1" d="M190 98.2h16.7v21.4H190z"/><path class="st0" d="M206.7 120.3H190c-.4 0-.7-.3-.7-.7V98.2c0-.4.3-.7.7-.7h16.7c.4 0 .7.3.7.7v21.4c.1.4-.3.7-.7.7zm-15.9-1.5H206V98.9h-15.2v19.9z"/><path class="st1" d="M373.2 74.2h43.7v11.5h-43.7z"/><path class="st0" d="M416.9 86.4h-43.7c-.4 0-.7-.3-.7-.7V74.2c0-.4.3-.7.7-.7h43.7c.4 0 .7.3.7.7v11.5c0 .4-.3.7-.7.7zm-43-1.4h42.2V74.9h-42.2V85z"/><path class="st1" d="M373.2 88.7h43.7v11.5h-43.7z"/><path class="st0" d="M416.9 101h-43.7c-.4 0-.7-.3-.7-.7V88.7c0-.4.3-.7.7-.7h43.7c.4 0 .7.3.7.7v11.5c0 .4-.3.8-.7.8zm-43-1.5h42.2V89.4h-42.2v10.1z"/><path class="st1" d="M377.7 85.7h34.7v2.9h-34.7z"/><path class="st0" d="M412.4 89.4h-34.7c-.4 0-.7-.3-.7-.7v-2.9c0-.4.3-.7.7-.7h34.7c.4 0 .7.3.7.7v2.9c0 .3-.3.7-.7.7zm-34-1.5h33.2v-1.5h-33.2v1.5z"/><path class="st1" d="M373.2 103.2h43.7v11.5h-43.7z"/><path class="st0" d="M416.9 115.4h-43.7c-.4 0-.7-.3-.7-.7v-11.5c0-.4.3-.7.7-.7h43.7c.4 0 .7.3.7.7v11.5c0 .4-.3.7-.7.7zm-43-1.4h42.2v-10.1h-42.2V114z"/><path class="st1" d="M377.7 100.2h34.7v2.9h-34.7z"/><path class="st0" d="M412.4 103.8h-34.7c-.4 0-.7-.3-.7-.7v-2.9c0-.4.3-.7.7-.7h34.7c.4 0 .7.3.7.7v2.9c0 .4-.3.7-.7.7zm-34-1.4h33.2V101h-33.2v1.4z"/><path class="st1" d="M413.4 92.4h-9.1 9.1z"/><path class="st0" d="M413.4 93.1h-9.1c-.4 0-.7-.3-.7-.7s.3-.7.7-.7h9.1c.4 0 .7.3.7.7s-.3.7-.7.7z"/><path class="st1" d="M413.4 96.1h-9.1 9.1z"/><path class="st0" d="M413.4 96.9h-9.1c-.4 0-.7-.3-.7-.7s.3-.7.7-.7h9.1c.4 0 .7.3.7.7s-.3.7-.7.7z"/><path class="st1" d="M413.4 107.4h-9.1 9.1z"/><path class="st0" d="M413.4 108.1h-9.1c-.4 0-.7-.3-.7-.7s.3-.7.7-.7h9.1c.4 0 .7.3.7.7s-.3.7-.7.7z"/><path class="st1" d="M413.4 111.1h-9.1 9.1z"/><path class="st0" d="M413.4 111.8h-9.1c-.4 0-.7-.3-.7-.7s.3-.7.7-.7h9.1c.4 0 .7.3.7.7s-.3.7-.7.7z"/><path class="st1" d="M373.2 117.6h43.7v11.5h-43.7z"/><path class="st0" d="M416.9 129.9h-43.7c-.4 0-.7-.3-.7-.7v-11.5c0-.4.3-.7.7-.7h43.7c.4 0 .7.3.7.7v11.5c0 .4-.3.7-.7.7zm-43-1.4h42.2v-10.1h-42.2v10.1z"/><path class="st1" d="M377.7 114.7h34.7v2.9h-34.7z"/><path class="st0" d="M412.4 118.3h-34.7c-.4 0-.7-.3-.7-.7v-2.9c0-.4.3-.7.7-.7h34.7c.4 0 .7.3.7.7v2.9c0 .4-.3.7-.7.7zm-34-1.4h33.2v-1.4h-33.2v1.4z"/><path class="st1" d="M413.4 121.8h-9.1 9.1z"/><path class="st0" d="M413.4 122.6h-9.1c-.4 0-.7-.3-.7-.7s.3-.7.7-.7h9.1c.4 0 .7.3.7.7s-.3.7-.7.7z"/><path class="st1" d="M413.4 125.6h-9.1 9.1z"/><path class="st0" d="M413.4 126.3h-9.1c-.4 0-.7-.3-.7-.7s.3-.7.7-.7h9.1c.4 0 .7.3.7.7s-.3.7-.7.7z"/><circle class="st1" cx="379.9" cy="79.9" r="2.8"/><path class="st0" d="M379.9 83.4c-2 0-3.5-1.6-3.5-3.5s1.6-3.5 3.5-3.5c2 0 3.5 1.6 3.5 3.5s-1.6 3.5-3.5 3.5zm0-5.6c-1.1 0-2.1.9-2.1 2.1 0 1.1.9 2.1 2.1 2.1 1.1 0 2.1-.9 2.1-2.1 0-1.1-1-2.1-2.1-2.1z"/><circle class="st1" cx="386.8" cy="79.9" r=".9"/><path class="st0" d="M386.8 81.5c-.9 0-1.6-.7-1.6-1.6s.7-1.6 1.6-1.6 1.6.7 1.6 1.6-.7 1.6-1.6 1.6zm0-1.8c-.1 0-.2.1-.2.2 0 .2.3.2.3 0 0-.1 0-.2-.1-.2z"/><circle class="st1" cx="379.9" cy="94.4" r="2.8"/><path class="st0" d="M379.9 97.9c-2 0-3.5-1.6-3.5-3.5s1.6-3.5 3.5-3.5c2 0 3.5 1.6 3.5 3.5s-1.6 3.5-3.5 3.5zm0-5.6c-1.1 0-2.1.9-2.1 2.1s.9 2.1 2.1 2.1c1.1 0 2.1-.9 2.1-2.1s-1-2.1-2.1-2.1z"/><circle class="st1" cx="386.8" cy="94.4" r=".9"/><path class="st0" d="M386.8 96c-.9 0-1.6-.7-1.6-1.6 0-.9.7-1.6 1.6-1.6s1.6.7 1.6 1.6c0 .9-.7 1.6-1.6 1.6zm0-1.8c-.1 0-.2.1-.2.2 0 .2.3.2.3 0 0-.1 0-.2-.1-.2z"/><circle class="st1" cx="379.9" cy="108.8" r="2.8"/><path class="st0" d="M379.9 112.4c-2 0-3.5-1.6-3.5-3.5 0-2 1.6-3.5 3.5-3.5 2 0 3.5 1.6 3.5 3.5s-1.6 3.5-3.5 3.5zm0-5.6c-1.1 0-2.1.9-2.1 2.1 0 1.1.9 2.1 2.1 2.1 1.1 0 2.1-.9 2.1-2.1 0-1.2-1-2.1-2.1-2.1z"/><circle class="st1" cx="386.8" cy="108.8" r=".9"/><path class="st0" d="M386.8 110.5c-.9 0-1.6-.7-1.6-1.6 0-.9.7-1.6 1.6-1.6s1.6.7 1.6 1.6c0 .8-.7 1.6-1.6 1.6zm0-1.8c-.1 0-.2.1-.2.2 0 .2.3.2.3 0s0-.2-.1-.2z"/><circle class="st1" cx="379.9" cy="123.3" r="2.8"/><path class="st0" d="M379.9 126.8c-2 0-3.5-1.6-3.5-3.5 0-2 1.6-3.5 3.5-3.5 2 0 3.5 1.6 3.5 3.5 0 2-1.6 3.5-3.5 3.5zm0-5.6c-1.1 0-2.1.9-2.1 2.1 0 1.1.9 2.1 2.1 2.1 1.1 0 2.1-.9 2.1-2.1 0-1.1-1-2.1-2.1-2.1z"/><circle class="st1" cx="386.8" cy="123.3" r=".9"/><path class="st0" d="M386.8 124.9c-.9 0-1.6-.7-1.6-1.6 0-.9.7-1.6 1.6-1.6s1.6.7 1.6 1.6c0 .9-.7 1.6-1.6 1.6zm0-1.8c-.1 0-.2.1-.2.2 0 .2.3.2.3 0 0-.1 0-.2-.1-.2z"/><path class="st1" d="M200.8 94.1v19.5h-21.2V86H194z"/><path class="st0" d="M200.8 114.4h-21.2c-.4 0-.7-.3-.7-.7V86c0-.4.3-.7.7-.7H194c.4 0 .7.3.7.7s-.3.7-.7.7h-13.6v26.2H200V94.1c0-.4.3-.7.7-.7s.7.3.7.7v19.5c.1.4-.2.8-.6.8z"/><path class="st1" d="M200.8 94.1H194V86z"/><path class="st0" d="M200.8 94.8H194c-.4 0-.7-.3-.7-.7V86c0-.3.2-.6.5-.7.3-.1.6 0 .8.2l6.7 8.1c.2.1.3.3.3.6-.1.3-.4.6-.8.6zm-6.1-1.4h4.5l-4.5-5.4v5.4z"/><path class="st1" d="M183.5 90.3h5.5v4.4h-5.5z"/><path class="st0" d="M188.9 95.4h-5.5c-.4 0-.7-.3-.7-.7v-4.4c0-.4.3-.7.7-.7h5.5c.4 0 .7.3.7.7v4.4c.1.4-.3.7-.7.7zm-4.7-1.5h4v-3h-4v3z"/><path class="st1" d="M197.1 100.1h-13.7 13.7z"/><path class="st0" d="M197.1 100.8h-13.7c-.4 0-.7-.3-.7-.7s.3-.7.7-.7h13.7c.4 0 .7.3.7.7s-.3.7-.7.7z"/><path class="st1" d="M197.1 103.2h-13.7 13.7z"/><path class="st0" d="M197.1 103.9h-13.7c-.4 0-.7-.3-.7-.7s.3-.7.7-.7h13.7c.4 0 .7.3.7.7s-.3.7-.7.7z"/><path class="st1" d="M193.1 106.2h-9.7 9.7z"/><path class="st0" d="M193.1 107h-9.7c-.4 0-.7-.3-.7-.7s.3-.7.7-.7h9.7c.4 0 .7.3.7.7s-.2.7-.7.7z"/><path class="st1" d="M26.6 146.4c0 7.1-5.8 12.9-12.9 12.9-7.1 0-12.9-5.8-12.9-12.9 0-7.1 5.8-12.9 12.9-12.9 7.1 0 12.9 5.8 12.9 12.9z"/><path class="st0" d="M13.7 160.1C6.1 160.1 0 154 0 146.4c0-7.5 6.1-13.7 13.7-13.7 7.5 0 13.7 6.1 13.7 13.7-.1 7.6-6.2 13.7-13.7 13.7zm0-25.9c-6.7 0-12.2 5.5-12.2 12.2 0 6.7 5.5 12.2 12.2 12.2 6.7 0 12.2-5.5 12.2-12.2 0-6.7-5.5-12.2-12.2-12.2z"/><path class="st1" d="M22.4 146.4c0 4.8-3.9 8.8-8.8 8.8s-8.8-3.9-8.8-8.8 3.9-8.8 8.8-8.8 8.8 4 8.8 8.8z"/><path class="st0" d="M13.7 155.9c-5.2 0-9.5-4.3-9.5-9.5s4.3-9.5 9.5-9.5 9.5 4.3 9.5 9.5c0 5.3-4.3 9.5-9.5 9.5zm0-17.5c-4.4 0-8 3.6-8 8.1 0 4.4 3.6 8 8 8s8.1-3.6 8.1-8c-.1-4.5-3.7-8.1-8.1-8.1z"/><path class="st0" d="M18.4 147.2h-4.8c-.4 0-.7-.3-.7-.7v-6.2c0-.4.3-.7.7-.7s.7.3.7.7v5.5h4c.4 0 .7.3.7.7s-.2.7-.6.7z"/><path class="st1" d="M15.3 146.4c0 .9-.7 1.6-1.6 1.6-.9 0-1.6-.7-1.6-1.6 0-.9.7-1.6 1.6-1.6.8 0 1.6.7 1.6 1.6z"/><path class="st0" d="M13.7 148.8c-1.3 0-2.3-1.1-2.3-2.3 0-1.3 1.1-2.3 2.3-2.3 1.3 0 2.3 1.1 2.3 2.3 0 1.2-1 2.3-2.3 2.3zm0-3.2c-.5 0-.9.4-.9.9s.4.9.9.9.9-.4.9-.9c-.1-.6-.5-.9-.9-.9zM352.7 118c-.2 0-.3-.1-.5-.2l-3.6-2.8c-.3-.2-.4-.7-.1-1 .3-.3.7-.4 1-.1l3.1 2.4 3.1-2.4c.3-.2.8-.2 1 .1.2.3.2.8-.1 1l-3.6 2.8c0 .2-.2.2-.3.2zM352.7 111.7c-.2 0-.3-.1-.5-.2l-3.6-2.8c-.3-.2-.4-.7-.1-1 .3-.3.7-.4 1-.1l3.1 2.4 3.1-2.4c.3-.2.8-.2 1 .1.2.3.2.8-.1 1l-3.6 2.8c0 .1-.2.2-.3.2zM352.7 105.3c-.2 0-.3-.1-.5-.2l-3.6-2.8c-.3-.2-.4-.7-.1-1 .3-.3.7-.4 1-.1l3.1 2.4 3.1-2.4c.3-.2.8-.2 1 .1.2.3.2.8-.1 1l-3.6 2.8c0 .2-.2.2-.3.2z"/><path class="st1" d="M351 75.1h2.8v9.8H351z"/><path class="st0" d="M353.8 85.6H351c-.4 0-.7-.3-.7-.7v-9.8c0-.4.3-.7.7-.7h2.8c.4 0 .7.3.7.7v9.8c0 .4-.3.7-.7.7zm-2.1-1.5h1.3v-8.3h-1.3v8.3z"/><path class="st1" d="M356.3 71.7h2.8v13.1h-2.8z"/><path class="st0" d="M359.1 85.6h-2.8c-.4 0-.7-.3-.7-.7V71.7c0-.4.3-.7.7-.7h2.8c.4 0 .7.3.7.7v13.1c0 .5-.3.8-.7.8zm-2-1.5h1.3V72.5h-1.3v11.6z"/><path class="st1" d="M361.7 67h2.8v17.9h-2.8z"/><path class="st0" d="M364.5 85.6h-2.8c-.4 0-.7-.3-.7-.7V67c0-.4.3-.7.7-.7h2.8c.4 0 .7.3.7.7v17.9c0 .4-.3.7-.7.7zm-2.1-1.5h1.3V67.7h-1.3v16.4zM365.7 59.6c-2.5 0-4.9-1-6.7-2.8-3.7-3.7-3.7-9.8 0-13.5 1.8-1.8 4.2-2.8 6.7-2.8s4.9 1 6.7 2.8c3.7 3.7 3.7 9.8 0 13.5-1.8 1.8-4.2 2.8-6.7 2.8zm0-17.6c-2.2 0-4.2.8-5.7 2.4-3.1 3.1-3.1 8.3 0 11.4 1.5 1.5 3.5 2.4 5.7 2.4s4.2-.8 5.7-2.4c3.1-3.1 3.1-8.3 0-11.4-1.5-1.6-3.6-2.4-5.7-2.4z"/><path class="st0" d="M374 53.7h-.2l-8.3-3c-.3-.1-.4-.3-.5-.6s.1-.5.3-.7l7.3-5c.3-.2.8-.1 1 .2.2.3.1.8-.2 1l-6.1 4.2 6.9 2.5c.4.1.6.6.4.9-.1.3-.3.5-.6.5z"/><path class="st0" d="M365.4 59.6c-.4 0-.7-.3-.7-.8l.3-8.8c0-.4.4-.7.8-.7s.7.3.7.8l-.3 8.8c-.1.3-.4.7-.8.7z"/><circle class="st1" cx="365.7" cy="50" r="4"/><path class="st0" d="M365.7 54.8c-1.3 0-2.5-.5-3.4-1.4-1.9-1.9-1.9-4.9 0-6.7.9-.9 2.1-1.4 3.4-1.4s2.5.5 3.4 1.4c1.9 1.9 1.9 4.9 0 6.7-1 .9-2.2 1.4-3.4 1.4zm0-8.1c-.9 0-1.7.3-2.3 1-1.3 1.3-1.3 3.4 0 4.7 1.2 1.2 3.4 1.2 4.7 0 1.3-1.3 1.3-3.4 0-4.7-.7-.6-1.5-1-2.4-1zM450.1 100c-.2 0-.4-.1-.6-.3-.2-.3-.2-.8.2-1 1.1-.9 2.3-1.8 3.3-2.8 5.6-5.6 8.8-13.2 8.8-21.1 0-8-3.1-15.5-8.8-21.1-11.7-11.7-30.6-11.7-42.3 0-5.4 5.4-8.5 12.6-8.7 20.2 0 .4-.3.7-.7.7-.4 0-.7-.4-.7-.8.2-8 3.5-15.5 9.2-21.2 12.2-12.2 32.1-12.2 44.3 0 5.9 5.9 9.2 13.8 9.2 22.2S459.9 91 454 96.9c-1.1 1.1-2.2 2.1-3.5 3-.1.1-.2.1-.4.1zM457.6 112.8c-.2 0-.5-.1-.6-.3-.2-.3-.2-.8.2-1 2.1-1.5 4-3.1 5.8-4.9 7-7 11.3-15.8 12.6-25.5.1-.4.4-.7.8-.6.4.1.7.4.6.8-1.4 10-5.9 19.1-13.1 26.3-1.9 1.9-3.9 3.6-6 5.1 0 .1-.2.1-.3.1zM475.5 65.2c-.3 0-.6-.2-.7-.6l-.2-.7c-.1-.4.1-.8.5-.9.4-.1.8.1.9.5l.2.7c.1.4-.1.8-.5.9-.1.1-.1.1-.2.1zm-1-3.5c-.3 0-.6-.2-.7-.5-.1-.2-.2-.5-.2-.7-.1-.4.1-.8.5-.9.4-.1.8.1.9.5.1.2.2.5.2.7.1.4-.1.8-.5.9h-.2zm-1.3-3.5c-.3 0-.6-.2-.7-.5-.1-.2-.2-.4-.3-.7-.2-.4 0-.8.4-1 .4-.2.8 0 1 .4.1.2.2.5.3.7.2.4 0 .8-.4 1-.1.1-.2.1-.3.1zm-1.5-3.3c-.3 0-.5-.1-.7-.4l-.3-.6c-.2-.4-.1-.8.3-1 .4-.2.8-.1 1 .3l.3.7c.2.4.1.8-.3 1h-.3zm-1.9-3.2c-.2 0-.5-.1-.6-.3-.1-.2-.3-.4-.4-.6-.2-.3-.1-.8.2-1 .3-.2.8-.1 1 .2.1.2.3.4.4.6.2.3.1.8-.2 1-.1.1-.2.1-.4.1zm-2-3c-.2 0-.4-.1-.6-.3-.1-.2-.3-.4-.4-.6-.2-.3-.2-.8.1-1 .3-.2.8-.2 1 .1.2.2.3.4.5.6.2.3.2.8-.2 1-.1.2-.3.2-.4.2zm-2.3-2.8c-.2 0-.4-.1-.5-.2l-.5-.5c-.3-.3-.2-.8 0-1 .3-.3.8-.3 1 0l.5.6c.3.3.2.8-.1 1-.1 0-.3.1-.4.1zm-2.6-2.7c-.2 0-.4-.1-.5-.2l-.5-.5c-.3-.3-.3-.7 0-1s.7-.3 1 0c.2.2.4.3.5.5.3.3.3.7 0 1-.1.1-.3.2-.5.2zm-2.7-2.4c-.2 0-.3-.1-.5-.2-.2-.2-.4-.3-.6-.5-.3-.3-.4-.7-.1-1 .3-.3.7-.4 1-.1.2.2.4.3.6.5.3.3.4.7.1 1-.1.2-.3.3-.5.3zm-2.9-2.2c-.1 0-.3 0-.4-.1-.2-.1-.4-.3-.6-.4-.3-.2-.4-.7-.2-1 .2-.3.7-.4 1-.2.2.1.4.3.6.4.3.2.4.7.2 1-.2.2-.4.3-.6.3zm-3.1-2c-.1 0-.2 0-.4-.1l-.6-.4c-.4-.2-.5-.6-.3-1s.6-.5 1-.3l.6.4c.4.2.5.7.3 1-.1.3-.4.4-.6.4zm-3.3-1.7c-.1 0-.2 0-.3-.1-.2-.1-.4-.2-.7-.3-.4-.2-.5-.6-.4-1s.6-.5 1-.4c.2.1.5.2.7.3.4.2.5.6.3 1 0 .3-.3.5-.6.5zm-3.4-1.4h-.3l-.7-.2c-.4-.1-.6-.6-.4-.9.1-.4.6-.6.9-.4l.7.3c.4.1.6.6.4.9 0 .1-.3.3-.6.3zm-3.4-1.2h-.2c-.2-.1-.5-.1-.7-.2-.4-.1-.6-.5-.5-.9.1-.4.5-.6.9-.5.2.1.5.1.7.2.4.1.6.5.5.9-.1.3-.4.5-.7.5zM412.1 34.8c-.3 0-.5-.2-.7-.4-.2-.4 0-.8.4-1 3.9-1.8 8.1-3.1 12.3-3.8.4-.1.8.2.8.6.1.4-.2.8-.6.8-4.1.7-8.2 1.9-11.9 3.7 0 .1-.1.1-.3.1z"/><path class="st1" d="M434.6 58.9v10.4h-10.8l-4.2 3.9V58.9z"/><path class="st0" d="M419.6 73.9c-.1 0-.2 0-.3-.1-.3-.1-.4-.4-.4-.7V58.9c0-.4.3-.7.7-.7h15c.4 0 .7.3.7.7v10.5c0 .4-.3.7-.7.7H424l-4 3.7c0 .1-.2.1-.4.1zm.8-14.3v11.9l2.9-2.7c.1-.1.3-.2.5-.2h10.1v-9h-13.5zM385.5 53.9h-5.6c-.4 0-.7-.3-.7-.7s.3-.7.7-.7h5.6c.4 0 .7.3.7.7s-.3.7-.7.7zM385.5 57.4h-5.6c-.4 0-.7-.3-.7-.7s.3-.7.7-.7h5.6c.4 0 .7.3.7.7s-.3.7-.7.7zM385.5 60.8h-5.6c-.4 0-.7-.3-.7-.7s.3-.7.7-.7h5.6c.4 0 .7.3.7.7s-.3.7-.7.7z"/><path class="st0" d="M392.8 74.8c-.4 0-.7-.3-.7-.7V16.6c0-4.7-1.4-8.6-4.1-11.4-2.4-2.4-5.5-3.7-8.9-3.7-6.3 0-13 4.7-13 15.1v20.8c0 .4-.3.7-.7.7s-.7-.3-.7-.7V16.6c0-11.4 7.5-16.6 14.5-16.6s14.5 5.2 14.5 16.6V74c-.1.4-.5.8-.9.8z"/><path class="st1" d="M378 24.6h26.7v22.2H378z"/><path class="st0" d="M404.8 47.5H378c-.4 0-.7-.3-.7-.7V24.6c0-.4.3-.7.7-.7h26.7c.4 0 .7.3.7.7v22.2c.1.4-.2.7-.6.7zm-26-1.4H404V25.3h-25.3v20.8z"/><path class="st1" d="M381 27.8h20.7v15.8H381z"/><path class="st0" d="M401.7 44.3H381c-.4 0-.7-.3-.7-.7V27.8c0-.4.3-.7.7-.7h20.7c.4 0 .7.3.7.7v15.8c.1.4-.3.7-.7.7zm-19.9-1.4H401V28.5h-19.2v14.4zM408 27c-.4 0-.7-.3-.7-.7V22h-4.1c-.4 0-.7-.3-.7-.7s.3-.7.7-.7h4.9c.4 0 .7.3.7.7v5c0 .3-.4.7-.8.7z"/><path class="st0" d="M393.5 40.5c-.3 0-.6-.2-.7-.5l-2.1-5.8-1.5 3c-.1.3-.4.4-.7.4h-5.2c-.4 0-.7-.3-.7-.7s.3-.7.7-.7h4.7l2-4.1c.1-.3.4-.4.7-.4.3 0 .5.2.6.5l2.1 5.7.5-1.2c.1-.3.4-.4.7-.4h4.8c.4 0 .7.3.7.7s-.3.7-.7.7h-4.3l-1 2.5c0 .1-.3.3-.6.3zM177 180.5h-9.9c-.4 0-.7-.3-.7-.7v-9.9c0-.4.3-.7.7-.7h9.9c.4 0 .7.3.7.7v9.9c0 .4-.3.7-.7.7zm-9.1-1.4h8.4v-8.4h-8.4v8.4zM163 168h-4.5c-.4 0-.7-.3-.7-.7v-4.5c0-.4.3-.7.7-.7h4.5c.4 0 .7.3.7.7v4.5c0 .4-.3.7-.7.7zm-3.7-1.4h3v-3h-3v3zM171.3 159.5h-4.2c-.4 0-.7-.3-.7-.7v-18.6c0-.4.3-.7.7-.7h4.2c.4 0 .7.3.7.7v18.6c.1.4-.3.7-.7.7zm-3.4-1.4h2.7v-17.2h-2.7v17.2zM283.5 138.4c-1.7 0-3.1-1.4-3.1-3.1s1.4-3.1 3.1-3.1c1.7 0 3.1 1.4 3.1 3.1s-1.4 3.1-3.1 3.1zm0-4.7c-.9 0-1.6.7-1.6 1.6s.7 1.6 1.6 1.6c.9 0 1.6-.7 1.6-1.6s-.7-1.6-1.6-1.6zM291.4 146.4c-1.7 0-3.1-1.4-3.1-3.1s1.4-3.1 3.1-3.1c1.7 0 3.1 1.4 3.1 3.1s-1.4 3.1-3.1 3.1zm0-4.7c-.9 0-1.6.7-1.6 1.6s.7 1.6 1.6 1.6c.9 0 1.6-.7 1.6-1.6s-.7-1.6-1.6-1.6zM275.1 146.4c-1.7 0-3.1-1.4-3.1-3.1s1.4-3.1 3.1-3.1 3.1 1.4 3.1 3.1-1.4 3.1-3.1 3.1zm0-4.7c-.9 0-1.6.7-1.6 1.6s.7 1.6 1.6 1.6 1.6-.7 1.6-1.6-.7-1.6-1.6-1.6z"/><circle class="st0" cx="270.7" cy="147.8" r="1.5"/><circle class="st0" cx="267.6" cy="150.8" r="1.5"/><circle class="st0" cx="264.6" cy="153.9" r="1.5"/><path class="st0" d="M283.5 124.1c-1.7 0-3.1-1.4-3.1-3.1s1.4-3.1 3.1-3.1c1.7 0 3.1 1.4 3.1 3.1s-1.4 3.1-3.1 3.1zm0-4.7c-.9 0-1.6.7-1.6 1.6s.7 1.6 1.6 1.6c.9 0 1.6-.7 1.6-1.6s-.7-1.6-1.6-1.6zM276.7 142.4c-.2 0-.4-.1-.5-.2-.3-.3-.3-.8 0-1l4.9-4.9c.3-.3.8-.3 1 0 .3.3.3.8 0 1l-4.9 4.9c-.1.1-.3.2-.5.2zM289.8 142.5c-.2 0-.4-.1-.5-.2l-4.7-4.7c-.3-.3-.3-.8 0-1 .3-.3.8-.3 1 0l4.7 4.7c.3.3.3.8 0 1-.2.1-.3.2-.5.2z"/><path class="st0" d="M283.5 133.7c-.4 0-.7-.3-.7-.7v-9.6c0-.4.3-.7.7-.7s.7.3.7.7v9.6c0 .4-.3.7-.7.7zM310.7 150.6h-9.5c-.4 0-.7-.3-.7-.7v-9.5c0-.4.3-.7.7-.7h9.5c.4 0 .7.3.7.7v9.5c0 .4-.3.7-.7.7zm-8.8-1.5h8v-8h-8v8z"/><path class="st0" d="M308.1 148h-4.4c-.4 0-.7-.3-.7-.7v-4.4c0-.4.3-.7.7-.7h4.4c.4 0 .7.3.7.7v4.4c0 .4-.3.7-.7.7zm-3.6-1.4h2.9v-2.9h-2.9v2.9zM297.3 134.9h-4.6c-.4 0-.7-.3-.7-.7v-4.6c0-.4.3-.7.7-.7h4.6c.4 0 .7.3.7.7v4.6c.1.4-.2.7-.7.7zm-3.8-1.5h3.2v-3.2h-3.2v3.2zM337.8 143.3h-12.2c-7.3 0-13.3-6-13.3-13.3 0-7.3 6-13.3 13.3-13.3 1.6 0 3.1.3 4.5.8v-.5c0-14.4 11.7-26.1 26.1-26.1 3.9 0 7.7.9 11.3 2.6.4.2.5.6.3 1s-.6.5-1 .3c-3.3-1.6-6.9-2.4-10.6-2.4-13.6 0-24.6 11-24.6 24.6 0 .5 0 1.1.1 1.6 0 .3-.1.5-.3.7-.2.1-.5.2-.7.1-1.6-.7-3.3-1.1-5-1.1-6.5 0-11.9 5.3-11.9 11.9 0 6.5 5.3 11.9 11.9 11.9h12.2c.4 0 .7.3.7.7s-.4.5-.8.5z"/><path class="st0" d="M317.2 130.2c-.4 0-.7-.3-.7-.7 0-5.1 4.1-9.2 9.2-9.2.4 0 .7.3.7.7s-.3.7-.7.7c-4.2 0-7.7 3.5-7.7 7.7-.1.5-.4.8-.8.8zM438.3 116.5h-.2c-.4-.1-.6-.5-.5-.9.8-2.9 3.4-4.9 6.4-4.9.4 0 .7.3.7.7s-.3.7-.7.7c-2.3 0-4.4 1.6-5 3.8-.1.3-.4.6-.7.6zM327.9 181.4h-17.2c-1.5 0-2.6-1.2-2.6-2.6V176c0-.4.3-.7.7-.7s.7.3.7.7v2.8c0 .7.5 1.2 1.2 1.2h17.2c.7 0 1.2-.5 1.2-1.2v-20c0-.4.3-.7.7-.7s.7.3.7.7v20c0 1.4-1.2 2.6-2.6 2.6z"/><path class="st0" d="M327.9 178.6h-17.2c-1.5 0-2.6-1.2-2.6-2.6v-18.1c0-1.5 1.2-2.6 2.6-2.6h17.2c1.5 0 2.6 1.2 2.6 2.6V176c0 1.4-1.2 2.6-2.6 2.6zm-17.2-22c-.7 0-1.2.5-1.2 1.2v18.1c0 .7.5 1.2 1.2 1.2h17.2c.7 0 1.2-.5 1.2-1.2v-18.1c0-.7-.5-1.2-1.2-1.2h-17.2z"/><path class="st0" d="M319.3 173.8c-4.1 0-7.5-3.4-7.5-7.5s3.4-7.5 7.5-7.5 7.5 3.4 7.5 7.5c-.1 4.2-3.4 7.5-7.5 7.5zm0-13.4c-3.3 0-6 2.7-6 6s2.7 6 6 6 6-2.7 6-6-2.7-6-6-6z"/><path class="st1" d="M327.3 164.2v5l-8-2.5z"/><path class="st0" d="M327.3 169.9h-.2l-7.9-2.5c-.3-.1-.5-.4-.5-.7s.2-.6.5-.7l7.9-2.5c.2-.1.5 0 .7.1.2.1.3.4.3.6v4.9c0 .2-.1.5-.3.6-.2.1-.4.2-.5.2zm-5.5-3.2l4.7 1.5v-2.9l-4.7 1.4z"/><path class="st1" d="M323.4 142.3v13.6-13.6z"/><path class="st0" d="M323.4 156.6c-.4 0-.7-.3-.7-.7v-13.6c0-.4.3-.7.7-.7s.7.3.7.7v13.6c0 .4-.3.7-.7.7z"/><path class="st0" d="M318.7 156.6c-.4 0-.7-.3-.7-.7v-3.6c0-.4.3-.7.7-.7h9.3v-9c0-.4.3-.7.7-.7s.7.3.7.7v9.7c0 .4-.3.7-.7.7h-9.3v2.9c0 .4-.3.7-.7.7zM352.2 179.3H342c-2.1 0-3.3-1.7-3.3-3.4s1.1-3.4 3.3-3.4h10.3c.1 0 .3 0 .4.1l4.3 2.7c.2.1.3.4.3.6s-.1.5-.3.6l-4.3 2.7c-.2.1-.3.1-.5.1zM342 174c-1.2 0-1.8 1-1.8 1.9 0 .9.6 1.9 1.8 1.9h10l3.1-1.9-3.1-1.9h-10z"/><path class="st0" d="M364.5 176.7h-8c-.4 0-.7-.3-.7-.7s.3-.7.7-.7h8c.4 0 .7.3.7.7s-.3.7-.7.7z"/><path class="st0" d="M364.5 178.6c-.2 0-.3-.1-.5-.2s-.3-.3-.3-.6v-4c0-.2.1-.4.3-.6.2-.1.4-.2.6-.2l8.6 1.3c.4.1.6.4.6.7v1.4c0 .4-.3.7-.6.7l-8.6 1.3c0 .2 0 .2-.1.2zm.8-3.9v2.3l7.1-1.1v-.1l-7.1-1.1zM370.7 167.7h-4.1c-.2 0-.3-.1-.5-.2l-3.5-2.8h-12.8l-3.4 2.8c-.1.1-.3.2-.5.2h-4.1c-2 0-3.7-1.7-3.7-3.7 0-.4.3-.7.7-.7h4.5V161h-4.5c-.4 0-.7-.3-.7-.7 0-2 1.7-3.7 3.7-3.7h4.1c.2 0 .3.1.5.2l3.5 2.8h12.8l3.4-2.8c.1-.1.3-.2.5-.2h4.1c2 0 3.7 1.7 3.7 3.7 0 .4-.3.7-.7.7h-4.5v2.3h4.5c.4 0 .7.3.7.7 0 2-1.6 3.7-3.7 3.7zm-3.8-1.5h3.8c1 0 1.8-.6 2.1-1.5h-4.4c-.4 0-.7-.3-.7-.7v-3.8c0-.4.3-.7.7-.7h4.4c-.3-.9-1.1-1.5-2.1-1.5h-3.8l-3.4 2.8c-.1.1-.3.2-.5.2h-13.3c-.2 0-.3-.1-.5-.2l-3.5-2.8h-3.8c-1 0-1.8.6-2.1 1.5h4.4c.4 0 .7.3.7.7v3.8c0 .4-.3.7-.7.7h-4.4c.3.9 1.1 1.5 2.1 1.5h3.8l3.4-2.8c.1-.1.3-.2.5-.2H363c.2 0 .3.1.5.2l3.4 2.8zM426 150h-71.7c-5.9 0-9-4.1-9-8.1s3.1-8.1 9-8.1h2.2c-.3-1.2-.5-2.4-.5-3.6 0-7.9 6.4-14.3 14.3-14.3.4 0 .7.3.7.7s-.3.7-.7.7c-7.1 0-12.8 5.7-12.8 12.8 0 1.4.2 2.8.7 4.1.1.2 0 .5-.1.7s-.4.3-.6.3h-3.2c-5.2 0-7.6 3.5-7.6 6.7s2.4 6.7 7.6 6.7H426c5.2 0 7.6-3.5 7.6-6.7s-2.4-6.7-7.6-6.7h-1.8c-.4 0-.7-.3-.7-.7s.3-.7.7-.7h1.8c5.9 0 9 4.1 9 8.1s-3.1 8.1-9 8.1z"/><path class="st0" d="M370.8 134.2h-7.2c-.4 0-.7-.3-.7-.7v-7.2c0-.4.3-.7.7-.7h7.2c.4 0 .7.3.7.7v7.2c0 .4-.3.7-.7.7zm-6.5-1.4h5.8V127h-5.8v5.8z"/><path class="st0" d="M363.6 133.7c-.2 0-.4-.1-.5-.2-.3-.3-.3-.8 0-1l7.2-6.7c.3-.3.8-.3 1 0 .3.3.3.8 0 1l-7.2 6.7c-.2.1-.4.2-.5.2zM373.8 141.5h-3.5c-.4 0-.7-.3-.7-.7v-3.5c0-.4.3-.7.7-.7h3.5c.4 0 .7.3.7.7v3.5c0 .4-.3.7-.7.7zm-2.9-1.5h2.1v-2h-2.1v2zM192.1 184.5c-4.7 0-8.6-3.9-8.6-8.6 0-4.7 3.9-8.6 8.6-8.6 4.7 0 8.6 3.8 8.6 8.6s-3.8 8.6-8.6 8.6zm0-15.7c-3.9 0-7.1 3.2-7.1 7.1 0 3.9 3.2 7.1 7.1 7.1 3.9 0 7.1-3.2 7.1-7.1.1-3.9-3.1-7.1-7.1-7.1z"/><path class="st0" d="M192.1 179c-1.7 0-3.1-1.4-3.1-3.1 0-1.7 1.4-3.1 3.1-3.1 1.7 0 3.1 1.4 3.1 3.1 0 1.7-1.4 3.1-3.1 3.1zm0-4.7c-.9 0-1.6.7-1.6 1.6 0 .9.7 1.6 1.6 1.6.9 0 1.6-.7 1.6-1.6 0-.9-.7-1.6-1.6-1.6zM42.9 71.5c-.4 0-.7-.3-.7-.7v-.3c0-.4.3-.7.7-.7s.7.3.7.7v.3c0 .3-.3.7-.7.7zm0-4.7c-.4 0-.7-.3-.7-.7v-.3c0-.4.3-.7.7-.7s.7.3.7.7v.2c0 .4-.3.8-.7.8zm0-4.7c-.4 0-.7-.3-.7-.7V61c0-.4.3-.7.7-.7s.7.3.7.7v.3c0 .4-.3.8-.7.8zm0-4.7c-.4 0-.7-.3-.7-.7v-.3c0-.4.3-.7.7-.7s.7.3.7.7v.3c0 .3-.3.7-.7.7zM47.1 97.7c-.2 0-.5-.1-.6-.3l-3.9-6.2h-12c-.4 0-.7-.3-.7-.7V77.9c0-.4.3-.7.7-.7h16.5c.4 0 .7.3.7.7v19c0 .3-.2.6-.5.7-.1.1-.1.1-.2.1zm-15.7-8H43c.3 0 .5.1.6.3l2.7 4.4V78.7h-15v11z"/><path class="st0" d="M43.9 82.8H33.8c-.4 0-.7-.3-.7-.7s.3-.7.7-.7h10.1c.4 0 .7.3.7.7s-.3.7-.7.7zM39.6 86.5h-5.8c-.4 0-.7-.3-.7-.7s.3-.7.7-.7h5.8c.4 0 .7.3.7.7s-.3.7-.7.7zM28.2 106.9c-.4 0-.7-.3-.7-.7v-8.5c0-2.6-1.3-5.1-3.4-6.7l-2.8-2.1c-2.5-1.8-4-4.8-4-7.8V70.2c0-.4.3-.7.7-.7.4 0 .7.3.7.7V81c0 2.6 1.3 5.1 3.4 6.7l2.8 2.1c2.5 1.8 4 4.8 4 7.8v8.5c0 .5-.3.8-.7.8z"/><path class="st0" d="M28.2 111.8c-1.8 0-3.2-1.4-3.2-3.2 0-1.8 1.4-3.2 3.2-3.2 1.8 0 3.2 1.4 3.2 3.2 0 1.8-1.5 3.2-3.2 3.2zm0-4.9c-.9 0-1.7.8-1.7 1.7 0 .9.8 1.7 1.7 1.7.9 0 1.7-.8 1.7-1.7 0-.9-.8-1.7-1.7-1.7zM28.2 122.2c-1.8 0-3.2-1.4-3.2-3.2s1.4-3.2 3.2-3.2c1.8 0 3.2 1.4 3.2 3.2s-1.5 3.2-3.2 3.2zm0-4.9c-.9 0-1.7.8-1.7 1.7s.8 1.7 1.7 1.7c.9 0 1.7-.8 1.7-1.7s-.8-1.7-1.7-1.7zM203.3 170.9c-1.8 0-3.2-1.4-3.2-3.2 0-1.8 1.4-3.2 3.2-3.2 1.8 0 3.2 1.4 3.2 3.2 0 1.8-1.4 3.2-3.2 3.2zm0-4.9c-.9 0-1.7.8-1.7 1.7 0 .9.8 1.7 1.7 1.7.9 0 1.7-.8 1.7-1.7.1-.9-.7-1.7-1.7-1.7zM18 70.9c-3.1 0-5.7-2.6-5.7-5.7s2.6-5.7 5.7-5.7c3.2 0 5.7 2.6 5.7 5.7s-2.5 5.7-5.7 5.7zm0-9.9c-2.3 0-4.2 1.9-4.2 4.2 0 2.3 1.9 4.2 4.2 4.2 2.3 0 4.2-1.9 4.2-4.2.1-2.3-1.9-4.2-4.2-4.2z"/><path class="st0" d="M12.1 71.9c-.2 0-.4-.1-.5-.2-1.7-1.7-2.7-4-2.7-6.4 0-2.4.9-4.7 2.7-6.4.3-.3.8-.3 1 0 .3.3.3.8 0 1-1.4 1.4-2.2 3.4-2.2 5.4 0 2 .8 4 2.2 5.4.3.3.3.8 0 1-.1.1-.3.2-.5.2zM23.9 71.9c-.2 0-.4-.1-.5-.2-.3-.3-.3-.8 0-1 1.4-1.4 2.2-3.4 2.2-5.4 0-2-.8-4-2.2-5.4-.3-.3-.3-.8 0-1 .3-.3.8-.3 1 0 1.7 1.7 2.7 4 2.7 6.4 0 2.4-.9 4.7-2.7 6.4-.1.1-.3.2-.5.2zM11 115.8H6.8c-.4 0-.7-.3-.7-.7V111c0-.4.3-.7.7-.7H11c.4 0 .7.3.7.7v4.1c0 .4-.3.7-.7.7zm-3.4-1.4h2.7v-2.7H7.6v2.7zM16.2 107.2h-3.5c-.4 0-.7-.3-.7-.7V103c0-.4.3-.7.7-.7h3.5c.4 0 .7.3.7.7v3.5c0 .4-.3.7-.7.7zm-2.8-1.4h2v-2h-2v2zM18.4 127H11c-.4 0-.7-.3-.7-.7v-7.4c0-.4.3-.7.7-.7h7.4c.4 0 .7.3.7.7v7.4c.1.3-.3.7-.7.7zm-6.6-1.5h5.9v-5.9h-5.9v5.9zM389.6 160.7c-.4 0-.7-.3-.7-.7v-4.3c0-.4.3-.7.7-.7s.7.3.7.7v4.3c0 .4-.3.7-.7.7zM403.1 160.7c-.4 0-.7-.3-.7-.7v-4.3c0-.4.3-.7.7-.7s.7.3.7.7v4.3c0 .4-.3.7-.7.7zM409.9 160.7c-.4 0-.7-.3-.7-.7v-4.3c0-.4.3-.7.7-.7s.7.3.7.7v4.3c0 .4-.3.7-.7.7zM396.4 170.6c-.4 0-.7-.3-.7-.7v-4.3c0-.4.3-.7.7-.7s.7.3.7.7v4.3c0 .4-.3.7-.7.7zM403.1 170.6c-.4 0-.7-.3-.7-.7v-4.3c0-.4.3-.7.7-.7s.7.3.7.7v4.3c0 .4-.3.7-.7.7zM382.8 180.4c-.4 0-.7-.3-.7-.7v-4.3c0-.4.3-.7.7-.7s.7.3.7.7v4.3c.1.4-.3.7-.7.7zM396.4 161.2c-1.5 0-2.7-1.1-2.7-2.3v-2.2c0-1.3 1.2-2.3 2.7-2.3s2.7 1.1 2.7 2.3v2.2c-.1 1.3-1.3 2.3-2.7 2.3zm0-5.4c-.6 0-1.2.4-1.2.9v2.2c0 .5.5.9 1.2.9s1.2-.4 1.2-.9v-2.2c-.1-.5-.6-.9-1.2-.9zM396.4 181c-1.5 0-2.7-1.1-2.7-2.3v-2.2c0-1.3 1.2-2.3 2.7-2.3s2.7 1.1 2.7 2.3v2.2c-.1 1.3-1.3 2.3-2.7 2.3zm0-5.4c-.6 0-1.2.4-1.2.9v2.2c0 .5.5.9 1.2.9s1.2-.4 1.2-.9v-2.2c-.1-.5-.6-.9-1.2-.9zM389.6 171.2c-1.5 0-2.6-1.1-2.6-2.3v-2.2c0-1.3 1.2-2.3 2.6-2.3 1.5 0 2.7 1.1 2.7 2.3v2.2c-.1 1.2-1.2 2.3-2.7 2.3zm0-5.4c-.6 0-1.2.4-1.2.9v2.2c0 .5.5.9 1.2.9.6 0 1.2-.4 1.2-.9v-2.2c0-.5-.6-.9-1.2-.9zM409.8 171.2c-1.5 0-2.7-1.1-2.7-2.3v-2.2c0-1.3 1.2-2.3 2.7-2.3 1.5 0 2.7 1.1 2.7 2.3v2.2c-.1 1.2-1.2 2.3-2.7 2.3zm0-5.4c-.6 0-1.2.4-1.2.9v2.2c0 .5.5.9 1.2.9.6 0 1.2-.4 1.2-.9v-2.2c0-.5-.6-.9-1.2-.9zM382.8 171.2c-1.5 0-2.7-1.1-2.7-2.3v-2.2c0-1.3 1.2-2.3 2.7-2.3 1.5 0 2.7 1.1 2.7 2.3v2.2c0 1.2-1.2 2.3-2.7 2.3zm0-5.4c-.6 0-1.2.4-1.2.9v2.2c0 .5.5.9 1.2.9.6 0 1.2-.4 1.2-.9v-2.2c0-.5-.5-.9-1.2-.9zM382.9 161.4c-1.5 0-2.7-1.1-2.7-2.3v-2.2c0-1.3 1.2-2.3 2.7-2.3s2.7 1.1 2.7 2.3v2.2c0 1.2-1.2 2.3-2.7 2.3zm0-5.4c-.6 0-1.2.4-1.2.9v2.2c0 .5.5.9 1.2.9s1.2-.4 1.2-.9v-2.2c0-.5-.5-.9-1.2-.9zM447.9 188.1c-4.1 0-7.5-3.4-7.5-7.5s3.4-7.5 7.5-7.5 7.5 3.4 7.5 7.5c-.1 4.2-3.4 7.5-7.5 7.5zm0-13.5c-3.3 0-6 2.7-6 6s2.7 6 6 6 6-2.7 6-6-2.7-6-6-6z"/><path class="st0" d="M447.9 183.5c-1.6 0-2.8-1.3-2.8-2.8 0-1.6 1.3-2.8 2.8-2.8s2.8 1.3 2.8 2.8c0 1.5-1.3 2.8-2.8 2.8zm0-4.2c-.8 0-1.4.6-1.4 1.4s.6 1.4 1.4 1.4 1.4-.6 1.4-1.4-.7-1.4-1.4-1.4z"/><path class="st0" d="M447.7 179c-.4 0-.7-.3-.7-.7v-15.4c0-.4.3-.7.7-.7s.7.3.7.7v15.4c0 .4-.3.7-.7.7z"/><path class="st0" d="M447.5 163c-1.7 0-3.2-1.4-3.2-3.2 0-1.7 1.4-3.2 3.2-3.2 1.7 0 3.2 1.4 3.2 3.2-.1 1.7-1.5 3.2-3.2 3.2zm0-4.9c-.9 0-1.7.8-1.7 1.7 0 .9.8 1.7 1.7 1.7.9 0 1.7-.8 1.7-1.7 0-.9-.8-1.7-1.7-1.7zM447.5 154c-.9 0-1.7-.7-1.7-1.6 0-.9.7-1.7 1.7-1.7.9 0 1.7.7 1.7 1.7-.1.9-.8 1.6-1.7 1.6zm0-1.8c-.1 0-.2.1-.2.2 0 .2.4.2.4 0s-.1-.2-.2-.2zM447.5 148.8c-.9 0-1.7-.7-1.7-1.7 0-.9.7-1.7 1.7-1.7.9 0 1.7.7 1.7 1.7-.1.9-.8 1.7-1.7 1.7zm0-1.9c-.1 0-.2.1-.2.2 0 .2.4.2.4 0 0-.1-.1-.2-.2-.2zM112.2 71.2H98.1c-2.3 0-4.1-1.8-4.1-4.1s1.8-4.1 4.1-4.1c.3 0 .7 0 1 .1.9-2.4 3.1-4 5.7-4 2.7 0 5 1.8 5.8 4.2.5-.2 1.1-.3 1.6-.3 2.3 0 4.1 1.8 4.1 4.1s-1.9 4.1-4.1 4.1zm-14.1-6.7c-1.5 0-2.7 1.2-2.7 2.6 0 1.5 1.2 2.7 2.7 2.7h14.1c1.5 0 2.7-1.2 2.7-2.7 0-1.5-1.2-2.6-2.7-2.6-.6 0-1.2.2-1.6.6-.2.2-.5.2-.7.1-.2-.1-.4-.3-.4-.6-.3-2.3-2.3-4-4.5-4s-4 1.5-4.5 3.7c0 .2-.2.4-.4.5-.2.1-.4.1-.6 0-.6-.2-1-.3-1.4-.3zM443.6 127.2h-11.1c-3.6 0-6.5-2.9-6.5-6.5s2.9-6.5 6.5-6.5c.7 0 1.4.1 2 .3 1.3-4.1 5.1-7 9.4-7 .4 0 .7.3.7.7s-.3.7-.7.7c-3.9 0-7.4 2.8-8.2 6.6 0 .2-.2.4-.4.5-.2.1-.4.1-.6 0-.7-.3-1.4-.5-2.2-.5-2.8 0-5.1 2.3-5.1 5 0 2.8 2.3 5.1 5.1 5.1h11.1c.4 0 .7.3.7.7s-.3.9-.7.9zM456.5 127.2h-4.2c-.4 0-.7-.3-.7-.7s.3-.7.7-.7h4.2c2.8 0 5.1-2.3 5.1-5.1s-2.3-5-5.1-5c-1.1 0-2.2.4-3.1 1.1-.3.2-.8.2-1-.1-.2-.3-.2-.8.1-1 1.2-.9 2.6-1.4 4-1.4 3.6 0 6.5 2.9 6.5 6.5 0 3.4-2.9 6.4-6.5 6.4z"/><path class="st1" d="M258.7 104.4v5.1-5.1z"/><path class="st0" d="M258.7 110.2c-.4 0-.7-.3-.7-.7v-5.1c0-.4.3-.7.7-.7s.7.3.7.7v5.1c0 .4-.3.7-.7.7z"/><path class="st1" d="M186.9 117.1v9-9z"/><path class="st0" d="M186.9 126.9c-.4 0-.7-.3-.7-.7v-9c0-.4.3-.7.7-.7s.7.3.7.7v9c0 .4-.3.7-.7.7z"/><path class="st1" d="M186.9 129.4v1.9-1.9z"/><path class="st0" d="M186.9 132c-.4 0-.7-.3-.7-.7v-1.9c0-.4.3-.7.7-.7s.7.3.7.7v1.9c0 .4-.3.7-.7.7z"/><path class="st1" d="M203.3 125.2v9-9z"/><path class="st0" d="M203.3 135c-.4 0-.7-.3-.7-.7v-9c0-.4.3-.7.7-.7.4 0 .7.3.7.7v9c.1.3-.2.7-.7.7z"/><path class="st1" d="M203.3 137.5v1.9-1.9z"/><path class="st0" d="M203.3 140c-.4 0-.7-.3-.7-.7v-1.9c0-.4.3-.7.7-.7.4 0 .7.3.7.7v1.9c.1.4-.2.7-.7.7z"/><path class="st1" d="M183.5 117.3V136v-18.7z"/><path class="st0" d="M183.5 136.8c-.4 0-.7-.3-.7-.7v-18.7c0-.4.3-.7.7-.7.4 0 .7.3.7.7V136c0 .4-.3.8-.7.8z"/><path class="st1" d="M166.9 98.6v1.5-1.5z"/><path class="st0" d="M166.9 100.8c-.4 0-.7-.3-.7-.7v-1.5c0-.4.3-.7.7-.7s.7.3.7.7v1.5c.1.4-.3.7-.7.7z"/><path class="st1" d="M166.9 94.7v1.5-1.5z"/><path class="st0" d="M166.9 96.9c-.4 0-.7-.3-.7-.7v-1.5c0-.4.3-.7.7-.7s.7.3.7.7v1.5c.1.4-.3.7-.7.7z"/><path class="st1" d="M166.9 90.8v1.5-1.5z"/><path class="st0" d="M166.9 93c-.4 0-.7-.3-.7-.7v-1.5c0-.4.3-.7.7-.7s.7.3.7.7v1.5c.1.4-.3.7-.7.7z"/><path class="st1" d="M85.3 68.3v1.5-1.5z"/><path class="st0" d="M85.3 70.5c-.4 0-.7-.3-.7-.7v-1.5c0-.4.3-.7.7-.7s.7.3.7.7v1.5c0 .4-.3.7-.7.7z"/><path class="st1" d="M85.3 64.5V66v-1.5z"/><path class="st0" d="M85.3 66.7c-.4 0-.7-.3-.7-.7v-1.5c0-.4.3-.7.7-.7s.7.2.7.7V66c0 .3-.3.7-.7.7z"/><g><path class="st1" d="M85.3 60.6V62v-1.4z"/><path class="st0" d="M85.3 62.8c-.4 0-.7-.3-.7-.7v-1.5c0-.4.3-.7.7-.7s.7.3.7.7V62c0 .4-.3.8-.7.8z"/></g><g><path class="st1" d="M444 129.6h8.3v13.5H444z"/><path class="st0" d="M452.3 143.9H444c-.4 0-.7-.3-.7-.7v-13.5c0-.4.3-.7.7-.7h8.3c.4 0 .7.3.7.7v13.5c0 .3-.3.7-.7.7zm-7.6-1.5h6.8v-12.1h-6.8v12.1z"/></g><g><path class="st1" d="M446.8 132.9h2.6v6.9h-2.6z"/><path class="st0" d="M449.4 140.5h-2.6c-.4 0-.7-.3-.7-.7v-6.9c0-.4.3-.7.7-.7h2.6c.4 0 .7.3.7.7v6.9c.1.4-.3.7-.7.7zm-1.9-1.4h1.2v-5.4h-1.2v5.4z"/></g><g><path class="st1" d="M452.4 132.1h2.3-2.3z"/><path class="st0" d="M454.7 132.9h-2.3c-.4 0-.7-.3-.7-.7s.3-.7.7-.7h2.3c.4 0 .7.3.7.7s-.3.7-.7.7z"/><path class="st1" d="M452.4 134.9h2.3-2.3z"/><path class="st0" d="M454.7 135.6h-2.3c-.4 0-.7-.3-.7-.7s.3-.7.7-.7h2.3c.4 0 .7.3.7.7s-.3.7-.7.7z"/><g><path class="st1" d="M452.4 137.6h2.3-2.3z"/><path class="st0" d="M454.7 138.4h-2.3c-.4 0-.7-.3-.7-.7s.3-.7.7-.7h2.3c.4 0 .7.3.7.7s-.3.7-.7.7z"/></g><g><path class="st1" d="M452.4 140.4h2.3-2.3z"/><path class="st0" d="M454.7 141.1h-2.3c-.4 0-.7-.3-.7-.7s.3-.7.7-.7h2.3c.4 0 .7.3.7.7s-.3.7-.7.7z"/></g></g><g><path class="st1" d="M441.4 132.1h2.3-2.3z"/><path class="st0" d="M443.6 132.9h-2.3c-.4 0-.7-.3-.7-.7s.3-.7.7-.7h2.3c.4 0 .7.3.7.7s-.3.7-.7.7z"/><path class="st1" d="M441.4 134.9h2.3-2.3z"/><path class="st0" d="M443.6 135.6h-2.3c-.4 0-.7-.3-.7-.7s.3-.7.7-.7h2.3c.4 0 .7.3.7.7s-.3.7-.7.7z"/><g><path class="st1" d="M441.4 137.6h2.3-2.3z"/><path class="st0" d="M443.6 138.4h-2.3c-.4 0-.7-.3-.7-.7s.3-.7.7-.7h2.3c.4 0 .7.3.7.7s-.3.7-.7.7z"/></g><g><path class="st1" d="M441.4 140.4h2.3-2.3z"/><path class="st0" d="M443.6 141.1h-2.3c-.4 0-.7-.3-.7-.7s.3-.7.7-.7h2.3c.4 0 .7.3.7.7s-.3.7-.7.7z"/></g></g><path class="st0" d="M447.8 129.9c-.4 0-.7-.3-.7-.7v-23c0-2.2-1.8-3.9-3.9-3.9h-13.4c-.4 0-.7-.3-.7-.7s.3-.7.7-.7h13.4c3 0 5.4 2.4 5.4 5.4v23c-.1.3-.4.6-.8.6z"/><g><path class="st1" d="M431.8 97.4v8.5l-7.7-4.3z"/><path class="st0" d="M431.8 106.6c-.1 0-.2 0-.4-.1l-7.7-4.2c-.2-.1-.4-.4-.4-.6s.1-.5.4-.6l7.7-4.2c.2-.1.5-.1.7 0 .2.1.4.4.4.6v8.5c0 .3-.1.5-.4.6h-.3zm-6.1-5l5.4 3v-6l-5.4 3z"/></g><path class="st0" d="M282.3 105.6H276c-.4 0-.7-.3-.7-.7v-6.2c0-.4.3-.7.7-.7h6.2c.4 0 .7.3.7.7v6.2c.1.4-.2.7-.6.7zm-5.5-1.4h4.8v-4.8h-4.8v4.8zM252 108.8h-12.7c-.4 0-.7-.3-.7-.7V95.4c0-.4.3-.7.7-.7H252c.4 0 .7.3.7.7v12.7c0 .4-.3.7-.7.7zm-12-1.4h11.2V96.2H240v11.2zM233.3 103.6h-4c-.4 0-.7-.3-.7-.7v-4c0-.4.3-.7.7-.7h4c.4 0 .7.3.7.7v4c.1.3-.3.7-.7.7zm-3.2-1.5h2.5v-2.5h-2.5v2.5z"/><g><path class="st1" d="M51.8 10.7h46.9v32.9H51.8z"/><path class="st0" d="M98.7 44.3H51.8c-.4 0-.7-.3-.7-.7V10.7c0-.4.3-.7.7-.7h46.9c.4 0 .7.3.7.7v32.9c.1.4-.3.7-.7.7zm-46.1-1.4H98V11.4H52.6v31.5z"/><path class="st1" d="M98.7 43.6H51.8l-14.4 4.9h75.7z"/><path class="st0" d="M113.1 49.2H37.4c-.4 0-.7-.3-.7-.6-.1-.4.1-.7.5-.8l14.4-4.9H98.9l14.4 4.9c.3.1.5.5.5.8s-.3.6-.7.6zm-71.2-1.4h66.8l-10.1-3.4H52l-10.1 3.4z"/><path class="st1" d="M113.1 48.5c0 1.2-1 3.8-2.2 3.8H39.7c-1.2 0-2.2-2.6-2.2-3.8h75.6z"/><path class="st0" d="M110.9 53.1H39.7c-1.9 0-3-3.2-3-4.6 0-.4.3-.7.7-.7h75.7c.4 0 .7.3.7.7.1 1.3-1 4.6-2.9 4.6zm-72.6-3.9c.3 1.1 1 2.4 1.4 2.4h71.2c.5 0 1.2-1.3 1.4-2.4h-74z"/><path class="st1" d="M51.8 14.1h46.9-46.9z"/><path class="st0" d="M98.7 14.8H51.8c-.4 0-.7-.3-.7-.7s.3-.7.7-.7h46.9c.4 0 .7.3.7.7s-.3.7-.7.7z"/><path class="st1" d="M55.2 17.4h3.6V21h-3.6z"/><path class="st0" d="M58.9 21.7h-3.6c-.4 0-.7-.3-.7-.7v-3.6c0-.4.3-.7.7-.7h3.6c.4 0 .7.3.7.7V21c0 .4-.3.7-.7.7zM56 20.3h2.2v-2.2H56v2.2z"/><path class="st1" d="M62.1 17.4h3.6V21h-3.6z"/><path class="st0" d="M65.8 21.7h-3.6c-.4 0-.7-.3-.7-.7v-3.6c0-.4.3-.7.7-.7h3.6c.4 0 .7.3.7.7V21c0 .4-.3.7-.7.7zm-2.9-1.4H65v-2.2h-2.2v2.2z"/><path class="st1" d="M55.2 24h3.6v3.6h-3.6z"/><path class="st0" d="M58.9 28.3h-3.6c-.4 0-.7-.3-.7-.7V24c0-.4.3-.7.7-.7h3.6c.4 0 .7.3.7.7v3.6c0 .4-.3.7-.7.7zM56 26.9h2.2v-2.2H56v2.2z"/><path class="st1" d="M69 17.4h3.6V21H69z"/><path class="st0" d="M72.7 21.7H69c-.4 0-.7-.3-.7-.7v-3.6c0-.4.3-.7.7-.7h3.6c.4 0 .7.3.7.7V21c.1.4-.2.7-.6.7zm-2.9-1.4H72v-2.2h-2.2v2.2z"/><g><path class="st1" d="M75.9 17.4h3.6V21h-3.6z"/><path class="st0" d="M79.6 21.7H76c-.4 0-.7-.3-.7-.7v-3.6c0-.4.3-.7.7-.7h3.6c.4 0 .7.3.7.7V21c0 .4-.3.7-.7.7zm-2.9-1.4h2.2v-2.2h-2.2v2.2z"/></g><g><path class="st1" d="M63.2 25.7H73h-9.8z"/><path class="st0" d="M73 26.4h-9.8c-.4 0-.7-.3-.7-.7s.3-.7.7-.7H73c.4 0 .7.3.7.7s-.3.7-.7.7z"/></g><g><path class="st1" d="M63.2 29.2H73h-9.8z"/><path class="st0" d="M73 29.9h-9.8c-.4 0-.7-.3-.7-.7s.3-.7.7-.7H73c.4 0 .7.3.7.7s-.3.7-.7.7z"/></g><g><path class="st1" d="M63.2 32.7h4.6-4.6z"/><path class="st0" d="M67.8 33.5h-4.6c-.4 0-.7-.3-.7-.7s.3-.7.7-.7h4.6c.4 0 .7.3.7.7s-.3.7-.7.7z"/></g><g><path class="st1" d="M82.6 17.3H96v15.5H82.6z"/><path class="st0" d="M96 33.5H82.6c-.4 0-.7-.3-.7-.7V17.3c0-.4.3-.7.7-.7H96c.4 0 .7.3.7.7v15.5c0 .3-.3.7-.7.7zM83.3 32h11.9V18H83.3v14z"/></g><g><path class="st1" d="M85.3 20h8.1v4.8h-8.1z"/><path class="st0" d="M93.5 25.6h-8.1c-.4 0-.7-.3-.7-.7V20c0-.4.3-.7.7-.7h8.1c.4 0 .7.3.7.7v4.8c0 .5-.3.8-.7.8zM86 24.1h6.7v-3.3H86v3.3z"/></g><g><path class="st1" d="M85.3 28h8.1-8.1z"/><path class="st0" d="M93.5 28.8h-8.1c-.4 0-.7-.3-.7-.7s.3-.7.7-.7h8.1c.4 0 .7.3.7.7s-.3.7-.7.7z"/></g></g><g><path class="st0" d="M48.3 145.2c-7 0-12.7-5.7-12.7-12.7 0-7 5.7-12.7 12.7-12.7S61 125.5 61 132.5c0 7-5.7 12.7-12.7 12.7zm0-24c-6.2 0-11.2 5-11.2 11.2s5 11.2 11.2 11.2 11.2-5 11.2-11.2-5-11.2-11.2-11.2z"/><path class="st0" d="M48.3 133.2c-.2 0-.3-.1-.4-.2-.2-.2-.3-.4-.3-.7l2.2-11.8c.1-.4.5-.7.9-.6.4.1.7.5.6.9l-1.9 10.4 9.5-4.5c.4-.2.8 0 1 .4.2.4 0 .8-.4 1l-10.8 5.1h-.4z"/><path class="st0" d="M56.5 141.9c-.2 0-.4-.1-.5-.2l-8.2-8.7c-.3-.3-.3-.8 0-1 .3-.3.8-.3 1 0l8.2 8.7c.3.3.3.8 0 1-.1.2-.3.2-.5.2z"/><circle class="st1" cx="48.3" cy="132.5" r="5.5"/><path class="st0" d="M48.3 138.7c-3.4 0-6.2-2.8-6.2-6.2s2.8-6.2 6.2-6.2c3.4 0 6.2 2.8 6.2 6.2s-2.8 6.2-6.2 6.2zm0-11c-2.6 0-4.8 2.1-4.8 4.8 0 2.6 2.1 4.8 4.8 4.8 2.6 0 4.8-2.1 4.8-4.8-.1-2.6-2.2-4.8-4.8-4.8z"/></g><path class="st0" d="M49.4 152.9s-.1 0 0 0h-.3c-.4 0-.7-.4-.7-.8s.4-.7.8-.7h.3c.4 0 .7.3.7.7-.1.5-.4.8-.8.8zm4.3-.3c-.3 0-.6-.2-.7-.6-.1-.4.2-.8.6-.9l.3-.1c.4-.1.8.2.9.6.1.4-.2.8-.6.9l-.3.1h-.2zm-9-.3h-.2l-.3-.1c-.4-.1-.6-.5-.5-.9.1-.4.5-.6.9-.5l.3.1c.4.1.6.5.5.9-.1.3-.4.5-.7.5zm13.5-1.2c-.3 0-.5-.2-.7-.4-.2-.4 0-.8.4-1l.3-.1c.4-.2.8 0 1 .3.2.4 0 .8-.3 1l-.3.1c-.2.1-.3.1-.4.1zm-17.8-.5c-.1 0-.2 0-.4-.1l-.3-.1c-.4-.2-.5-.6-.3-1s.6-.5 1-.3l.2.1c.4.2.5.6.3 1 0 .2-.3.4-.5.4zm21.8-2c-.2 0-.4-.1-.6-.3-.3-.3-.2-.8.1-1l.2-.2c.3-.3.8-.2 1 .1.3.3.2.8-.1 1l-.2.2c-.1.2-.3.2-.4.2zm-25.7-.7c-.2 0-.3-.1-.5-.2l-.2-.2c-.3-.3-.3-.7 0-1 .3-.3.7-.3 1 0l.2.2c.3.3.3.7.1 1-.2.1-.4.2-.6.2zm29-2.6c-.2 0-.3-.1-.5-.2-.3-.3-.4-.7-.1-1l.2-.2c.2-.3.7-.4 1-.1s.4.7.1 1l-.2.2c-.1.2-.3.3-.5.3zm-32.1-.9c-.2 0-.5-.1-.6-.3l-.1-.2c-.2-.3-.2-.8.1-1.1.3-.2.8-.2 1 .1l.2.2c.2.3.2.8-.2 1-.1.2-.3.3-.4.3zm34.7-3c-.1 0-.2 0-.3-.1-.4-.2-.5-.6-.3-1l.1-.3c.2-.4.6-.5 1-.3s.5.6.3 1l-.1.3c-.2.3-.5.4-.7.4zM31 140.3c-.3 0-.5-.2-.7-.4l-.1-.3c-.2-.4 0-.8.4-1s.8 0 1 .4l.1.3c.2.4 0 .8-.4 1H31zm38.8-3.2h-.2c-.4-.1-.6-.5-.5-.9l.1-.3c.1-.4.5-.6.9-.5.4.1.6.5.5.9l-.1.3c-.1.3-.4.5-.7.5zm-40.3-1.2c-.3 0-.6-.2-.7-.5l-.1-.3c-.1-.4.1-.8.5-.9.4-.1.8.1.9.5l.1.3c.1.4-.1.8-.5.9h-.2zm41.4-3.4h-.1c-.4-.1-.7-.4-.6-.8v-.3c.1-.4.4-.7.8-.6.4.1.7.4.6.8v.3c-.1.3-.4.6-.7.6zm-42.3-1.2c-.4 0-.7-.3-.7-.6v-.3c0-.4.2-.8.6-.8.4 0 .8.2.8.6v.3c.1.4-.2.8-.7.8zm42.7-3.5c-.4 0-.7-.3-.7-.8v-.3c0-.4.4-.7.7-.7.4 0 .7.3.7.7v.3c0 .5-.3.8-.7.8zm-43-1.2c-.4 0-.7-.3-.7-.7v-.3c0-.4.3-.7.7-.7.4 0 .7.3.7.7v.3c.1.4-.3.7-.7.7zm43-3.5c-.4 0-.7-.3-.7-.7v-.3c0-.4.3-.7.7-.7s.7.3.7.7v.3c0 .4-.3.7-.7.7zm0-4.7c-.4 0-.7-.3-.7-.7v-.3c0-.4.3-.7.7-.7s.7.3.7.7v.3c0 .4-.3.7-.7.7zm0-4.7c-.4 0-.7-.3-.7-.7v-.3c0-.4.3-.7.7-.7s.7.3.7.7v.3c0 .4-.3.7-.7.7zm0-4.7c-.4 0-.7-.3-.7-.7v-.3c0-.4.3-.7.7-.7s.7.3.7.7v.3c0 .4-.3.7-.7.7zm0-4.7c-.4 0-.7-.3-.7-.7v-.3c0-.4.3-.7.7-.7s.7.3.7.7v.3c0 .4-.3.7-.7.7zm0-4.7c-.4 0-.7-.3-.7-.7v-.3c0-.4.3-.7.7-.7s.7.3.7.7v.3c0 .4-.3.7-.7.7zm0-4.7c-.4 0-.7-.3-.7-.7v-.3c0-.4.3-.7.7-.7s.7.3.7.7v.3c0 .4-.3.7-.7.7zm0-4.6c-.4 0-.7-.3-.7-.7v-.3c0-.4.3-.7.7-.7s.7.3.7.7v.3c0 .3-.3.7-.7.7zm0-4.7c-.4 0-.7-.3-.7-.7v-.3c0-.4.3-.7.7-.7s.7.3.7.7v.3c0 .3-.3.7-.7.7zm0-4.7c-.4 0-.7-.3-.7-.7v-.3c0-.4.3-.7.7-.7s.7.3.7.7v.3c0 .3-.3.7-.7.7zm0-4.7c-.4 0-.7-.3-.7-.7v-.3c0-.4.3-.7.7-.7s.7.3.7.7v.3c0 .3-.3.7-.7.7zm0-4.7c-.4 0-.7-.3-.7-.7v-.3c0-.4.3-.7.7-.7s.7.2.7.6v.3c0 .4-.3.8-.7.8zm0-4.7c-.4 0-.7-.3-.7-.7v-.3c0-.4.3-.7.7-.7s.7.3.7.7v.2c0 .4-.3.8-.7.8zm0-4.7c-.4 0-.7-.3-.7-.7V61c0-.4.3-.7.7-.7s.7.3.7.7v.3c0 .4-.3.8-.7.8zm0-4.7c-.4 0-.7-.3-.7-.7v-.3c0-.4.3-.7.7-.7s.7.3.7.7v.3c0 .3-.3.7-.7.7zM122.2 76.3c-1.8 0-3.2-1.4-3.2-3.2 0-1.8 1.4-3.2 3.2-3.2s3.2 1.4 3.2 3.2c0 1.7-1.4 3.2-3.2 3.2zm0-5c-1 0-1.7.8-1.7 1.7 0 1 .8 1.7 1.7 1.7s1.7-.8 1.7-1.7c.1-.9-.7-1.7-1.7-1.7zM132.2 91c-1.8 0-3.2-1.4-3.2-3.2 0-1.8 1.4-3.2 3.2-3.2s3.2 1.4 3.2 3.2c0 1.8-1.5 3.2-3.2 3.2zm0-4.9c-1 0-1.7.8-1.7 1.7 0 1 .8 1.7 1.7 1.7 1 0 1.7-.8 1.7-1.7 0-.9-.8-1.7-1.7-1.7zM106.2 91c-1.8 0-3.2-1.4-3.2-3.2 0-1.8 1.4-3.2 3.2-3.2s3.2 1.4 3.2 3.2c0 1.8-1.5 3.2-3.2 3.2zm0-4.9c-1 0-1.7.8-1.7 1.7 0 1 .8 1.7 1.7 1.7s1.7-.8 1.7-1.7c0-.9-.8-1.7-1.7-1.7zM106.2 81c-1.8 0-3.2-1.4-3.2-3.2 0-1.8 1.4-3.2 3.2-3.2s3.2 1.4 3.2 3.2c0 1.7-1.5 3.2-3.2 3.2zm0-5c-1 0-1.7.8-1.7 1.7 0 1 .8 1.7 1.7 1.7s1.7-.8 1.7-1.7c0-.9-.8-1.7-1.7-1.7zM132.2 105.6c-1.8 0-3.2-1.4-3.2-3.2 0-1.8 1.4-3.2 3.2-3.2s3.2 1.4 3.2 3.2c0 1.8-1.5 3.2-3.2 3.2zm0-4.9c-1 0-1.7.8-1.7 1.7 0 1 .8 1.7 1.7 1.7 1 0 1.7-.8 1.7-1.7 0-1-.8-1.7-1.7-1.7zM140.4 104.2c-1 0-1.8-.8-1.8-1.8s.8-1.8 1.8-1.8 1.8.8 1.8 1.8-.8 1.8-1.8 1.8zm0-2.1c-.2 0-.3.1-.3.3 0 .2.1.3.3.3.2 0 .3-.1.3-.3 0-.2-.1-.3-.3-.3zM145.7 104.2c-1 0-1.8-.8-1.8-1.8s.8-1.8 1.8-1.8 1.8.8 1.8 1.8-.8 1.8-1.8 1.8zm0-2.1c-.2 0-.3.1-.3.3 0 .2.1.3.3.3.2 0 .3-.1.3-.3 0-.2-.1-.3-.3-.3zM151.1 104.2c-1 0-1.8-.8-1.8-1.8s.8-1.8 1.8-1.8 1.8.8 1.8 1.8c-.1 1-.9 1.8-1.8 1.8zm0-2.1c-.2 0-.3.1-.3.3 0 .2.1.3.3.3.2 0 .3-.1.3-.3 0-.2-.2-.3-.3-.3zM145 78.7c-3.1 0-5.7-2.5-5.7-5.7 0-3.1 2.5-5.7 5.7-5.7 3.1 0 5.7 2.5 5.7 5.7s-2.5 5.7-5.7 5.7zm0-9.8c-2.3 0-4.2 1.9-4.2 4.2s1.9 4.2 4.2 4.2c2.3 0 4.2-1.9 4.2-4.2s-1.9-4.2-4.2-4.2z"/><path class="st0" d="M140.1 73.7h-15.4c-.4 0-.7-.3-.7-.7s.3-.7.7-.7h15.4c.4 0 .7.3.7.7s-.3.7-.7.7zM168.5 86.5h-3.2c-.4 0-.7-.3-.7-.7V73.2c0-.4.3-.7.7-.7h3.2c.4 0 .7.3.7.7v12.6c.1.4-.2.7-.7.7zm-2.5-1.4h1.8V73.9H166v11.2zM198.5 154.1h-5.4c-.4 0-.7-.3-.7-.7v-16.5c0-.4.3-.7.7-.7h5.4c.4 0 .7.3.7.7v16.5c0 .4-.3.7-.7.7zm-4.7-1.4h3.9v-15h-3.9v15zM218.9 120.3h-5.4c-.4 0-.7-.3-.7-.7v-2.5c0-.4.3-.7.7-.7h5.4c.4 0 .7.3.7.7v2.5c0 .4-.3.7-.7.7zm-4.7-1.5h3.9v-1h-3.9v1zM218.9 115.3h-5.4c-.4 0-.7-.3-.7-.7v-2.5c0-.4.3-.7.7-.7h5.4c.4 0 .7.3.7.7v2.5c0 .4-.3.7-.7.7zm-4.7-1.4h3.9v-1h-3.9v1zM218.9 110.4h-5.4c-.4 0-.7-.3-.7-.7v-2.5c0-.4.3-.7.7-.7h5.4c.4 0 .7.3.7.7v2.5c0 .3-.3.7-.7.7zm-4.7-1.5h3.9v-1h-3.9v1z"/><path class="st0" d="M132.2 86.1c-.4 0-.7-.3-.7-.7V73c0-.4.3-.7.7-.7s.7.3.7.7v12.4c0 .4-.3.7-.7.7zM132.2 100.7c-.4 0-.7-.3-.7-.7v-9.6c0-.4.3-.7.7-.7s.7.3.7.7v9.6c0 .3-.3.7-.7.7zM103.7 88.6h-5c-.4 0-.7-.3-.7-.7s.3-.7.7-.7h5c.4 0 .7.3.7.7s-.3.7-.7.7zM129.7 88.6h-21c-.4 0-.7-.3-.7-.7s.3-.7.7-.7h21c.4 0 .7.3.7.7s-.3.7-.7.7zM106.2 86.1c-.4 0-.7-.3-.7-.7v-5.1c0-.4.3-.7.7-.7.4 0 .7.3.7.7v5.1c0 .4-.3.7-.7.7zM93.4 155.2h-4.7c-.4 0-.7-.3-.7-.7v-23.6h-3.1c-.3 0-.5-.1-.6-.4-.1-.2-.1-.5 0-.8l6.2-9.4c.1-.2.4-.3.6-.3.2 0 .5.1.6.3l6.1 9.3c.1.1.2.3.2.5 0 .4-.4.8-.7.7h-3.1v23.6c-.1.5-.4.8-.8.8zm-4-1.4h3.2v-23.6c0-.4.3-.7.7-.7h2.5l-4.9-7.4-4.9 7.4h2.5c.4 0 .7.3.7.7v23.6z"/><g><path class="st1" d="M102.6 184c0 2.2-8.6 4.1-19.3 4.1-10.7 0-19.3-1.8-19.3-4.1v-7.2c0-2.2 8.7-4.1 19.3-4.1 10.7 0 19.3 1.8 19.3 4.1v7.2z"/><path class="st0" d="M83.3 188.8c-6.9 0-20.1-1-20.1-4.8v-7.2c0-3.8 13.1-4.8 20.1-4.8 6.9 0 20.1 1 20.1 4.8v7.2c-.1 3.8-13.2 4.8-20.1 4.8zm0-15.4c-12 0-18.6 2.2-18.6 3.3v7.2c0 1.1 6.6 3.3 18.6 3.3 12 0 18.6-2.2 18.6-3.3v-7.2c-.1-1.1-6.6-3.3-18.6-3.3z"/><path class="st0" d="M83.3 181.5c-6.9 0-20.1-1-20.1-4.8s13.1-4.8 20.1-4.8c6.9 0 20.1 1 20.1 4.8-.1 3.8-13.2 4.8-20.1 4.8zm0-8.1c-12 0-18.6 2.2-18.6 3.3 0 1.1 6.6 3.3 18.6 3.3 12 0 18.6-2.2 18.6-3.3-.1-1.1-6.6-3.3-18.6-3.3z"/><g><path class="st1" d="M99.9 174.5c0 1.9-7.4 3.5-16.6 3.5-9.2 0-16.6-1.6-16.6-3.5v-3.1c0-1.9 7.5-3.5 16.6-3.5 9.2 0 16.6 1.6 16.6 3.5v3.1z"/><path class="st0" d="M83.3 178.7c-6 0-17.4-.9-17.4-4.2v-3.1c0-3.3 11.4-4.2 17.4-4.2 6 0 17.4.9 17.4 4.2v3.1c-.1 3.3-11.4 4.2-17.4 4.2zm0-10.1c-10.5 0-15.9 1.9-15.9 2.8v3.1c0 .8 5.4 2.8 15.9 2.8s15.9-1.9 15.9-2.8v-3.1c0-.9-5.5-2.8-15.9-2.8z"/><path class="st0" d="M83.3 175.6c-6 0-17.4-.9-17.4-4.2 0-3.3 11.4-4.2 17.4-4.2s17.4.9 17.4 4.2c-.1 3.3-11.4 4.2-17.4 4.2zm0-7c-10.5 0-15.9 1.9-15.9 2.8 0 .8 5.4 2.8 15.9 2.8s15.9-1.9 15.9-2.8c0-.9-5.5-2.8-15.9-2.8z"/></g><g><path class="st1" d="M102.6 170.9c0 2.2-8.6 4.1-19.3 4.1-10.7 0-19.3-1.8-19.3-4.1v-7.2c0-2.2 8.7-4.1 19.3-4.1 10.7 0 19.3 1.8 19.3 4.1v7.2z"/><path class="st0" d="M83.3 175.7c-6.9 0-20.1-1-20.1-4.8v-7.2c0-3.8 13.1-4.8 20.1-4.8 6.9 0 20.1 1 20.1 4.8v7.2c-.1 3.8-13.2 4.8-20.1 4.8zm0-15.4c-12 0-18.6 2.2-18.6 3.3v7.2c0 1.1 6.6 3.3 18.6 3.3 12 0 18.6-2.2 18.6-3.3v-7.2c-.1-1.1-6.6-3.3-18.6-3.3z"/><path class="st0" d="M83.3 168.4c-6.9 0-20.1-1-20.1-4.8s13.1-4.8 20.1-4.8c6.9 0 20.1 1 20.1 4.8-.1 3.8-13.2 4.8-20.1 4.8zm0-8.1c-12 0-18.6 2.2-18.6 3.3 0 1.1 6.6 3.3 18.6 3.3 12 0 18.6-2.2 18.6-3.3-.1-1.1-6.6-3.3-18.6-3.3z"/><g><path class="st1" d="M99.9 161.4c0 1.9-7.4 3.5-16.6 3.5-9.2 0-16.6-1.6-16.6-3.5v-3.1c0-1.9 7.5-3.5 16.6-3.5 9.2 0 16.6 1.6 16.6 3.5v3.1z"/><path class="st0" d="M83.3 165.6c-6 0-17.4-.9-17.4-4.2v-3.1c0-3.3 11.4-4.2 17.4-4.2 6 0 17.4.9 17.4 4.2v3.1c-.1 3.3-11.4 4.2-17.4 4.2zm0-10.1c-10.5 0-15.9 1.9-15.9 2.8v3.1c0 .8 5.4 2.8 15.9 2.8s15.9-1.9 15.9-2.8v-3.1c0-.9-5.5-2.8-15.9-2.8z"/><path class="st0" d="M83.3 162.5c-6 0-17.4-.9-17.4-4.2 0-3.3 11.4-4.2 17.4-4.2s17.4.9 17.4 4.2c-.1 3.3-11.4 4.2-17.4 4.2zm0-7c-10.5 0-15.9 1.9-15.9 2.8 0 .8 5.4 2.8 15.9 2.8s15.9-1.9 15.9-2.8c0-.9-5.5-2.8-15.9-2.8z"/></g></g><g><path class="st1" d="M102.6 157.8c0 2.2-8.6 4.1-19.3 4.1-10.7 0-19.3-1.8-19.3-4.1v-7.2c0-2.2 8.7-4.1 19.3-4.1 10.7 0 19.3 1.8 19.3 4.1v7.2z"/><path class="st0" d="M83.3 162.6c-6.9 0-20.1-1-20.1-4.8v-7.2c0-3.8 13.1-4.8 20.1-4.8 6.9 0 20.1 1 20.1 4.8v7.2c-.1 3.8-13.2 4.8-20.1 4.8zm0-15.4c-12 0-18.6 2.2-18.6 3.3v7.2c0 1.1 6.6 3.3 18.6 3.3 12 0 18.6-2.2 18.6-3.3v-7.2c-.1-1.1-6.6-3.3-18.6-3.3z"/><path class="st0" d="M83.3 155.4c-6.9 0-20.1-1-20.1-4.8s13.1-4.8 20.1-4.8c6.9 0 20.1 1 20.1 4.8-.1 3.8-13.2 4.8-20.1 4.8zm0-8.2c-12 0-18.6 2.2-18.6 3.3 0 1.1 6.6 3.3 18.6 3.3 12 0 18.6-2.2 18.6-3.3-.1-1.1-6.6-3.3-18.6-3.3z"/></g></g><g><path class="st1" d="M75 143.3h3v-91h3.7v91h3l-4.8 7.4z"/><path class="st0" d="M79.9 151.4c-.2 0-.5-.1-.6-.3l-4.8-7.4c-.1-.2-.2-.5 0-.8.1-.2.4-.4.6-.4h2.3V52.3c0-.4.3-.7.7-.7h3.6c.4 0 .7.3.7.7v90.2h2.3c.3 0 .5.1.6.4.1.2.1.5 0 .8l-4.8 7.4c-.2.2-.4.3-.6.3zm-3.5-7.4l3.5 5.3 3.5-5.3h-1.6c-.4 0-.7-.3-.7-.7V53.1h-2.2v90.2c0 .4-.3.7-.7.7h-1.8z"/></g><path class="st0" d="M96 157.8c-.4 0-.7-.3-.7-.7v-3.5c0-.4.3-.7.7-.7s.7.3.7.7v3.5c0 .4-.3.7-.7.7zM98.2 158.5c-.4 0-.7-.3-.7-.7v-4.6c0-.4.3-.7.7-.7s.7.3.7.7v4.6c.1.4-.3.7-.7.7zM53.5 172.5c-2 0-3.6-1.6-3.6-3.6s1.6-3.6 3.6-3.6 3.6 1.6 3.6 3.6c.1 1.9-1.6 3.6-3.6 3.6zm0-5.8c-1.2 0-2.2 1-2.2 2.2 0 1.2 1 2.2 2.2 2.2s2.2-1 2.2-2.2c0-1.3-1-2.2-2.2-2.2zM46.2 171.2c-1.3 0-2.4-1.1-2.4-2.4s1.1-2.4 2.4-2.4c1.3 0 2.4 1.1 2.4 2.4s-1.1 2.4-2.4 2.4zm0-3.3c-.5 0-.9.4-.9.9s.4.9.9.9.9-.4.9-.9-.4-.9-.9-.9zM40.4 171.2c-1.3 0-2.4-1.1-2.4-2.4s1.1-2.4 2.4-2.4 2.4 1.1 2.4 2.4-1 2.4-2.4 2.4zm0-3.3c-.5 0-.9.4-.9.9s.4.9.9.9.9-.4.9-.9c.1-.5-.4-.9-.9-.9zM34.7 171.2c-1.3 0-2.4-1.1-2.4-2.4s1.1-2.4 2.4-2.4 2.4 1.1 2.4 2.4-1.1 2.4-2.4 2.4zm0-3.3c-.5 0-.9.4-.9.9s.4.9.9.9.9-.4.9-.9-.4-.9-.9-.9z"/><path class="st0" d="M33 169.5H19.1c-3.5 0-6.3-2.8-6.3-6.3v-3.8c0-.4.3-.7.7-.7s.7.3.7.7v3.8c0 2.7 2.2 4.8 4.8 4.8h14c.4 0 .7.3.7.7s-.3.8-.7.8z"/><g><path class="st0" d="M33 163.9c-3.2 0-5.7-2.6-5.7-5.7 0-3.2 2.6-5.7 5.7-5.7 3.2 0 5.7 2.6 5.7 5.7s-2.6 5.7-5.7 5.7zm0-10c-2.4 0-4.3 1.9-4.3 4.3s1.9 4.3 4.3 4.3 4.3-1.9 4.3-4.3-2-4.3-4.3-4.3z"/><path class="st0" d="M38 158.8h-5.2c-.4 0-.7-.3-.7-.7v-4.9c0-.4.3-.7.7-.7.4 0 .7.3.7.7v4.2H38c.4 0 .7.3.7.7s-.3.7-.7.7z"/></g><g><path class="st0" d="M48.8 157.1h-7.3c-.4 0-.7-.3-.7-.7s.3-.7.7-.7h7.3c.4 0 .7.3.7.7s-.3.7-.7.7zM48.8 159.8h-7.3c-.4 0-.7-.3-.7-.7s.3-.7.7-.7h7.3c.4 0 .7.3.7.7s-.3.7-.7.7zM44.3 162.6h-2.9c-.4 0-.7-.3-.7-.7s.3-.7.7-.7h2.9c.4 0 .7.3.7.7s-.3.7-.7.7z"/></g><g><path class="st0" d="M136.7 136.2h-17.9c-.4 0-.7-.3-.7-.7v-11c0-.4.3-.7.7-.7h17.9c.4 0 .7.3.7.7v11c.1.4-.2.7-.7.7zm-17.1-1.4H136v-9.5h-16.4v9.5z"/><path class="st1" d="M112.4 129.8h17.9v11h-17.9z"/><path class="st0" d="M130.2 141.5h-17.9c-.4 0-.7-.3-.7-.7v-11c0-.4.3-.7.7-.7h17.9c.4 0 .7.3.7.7v11c0 .4-.3.7-.7.7zm-17.1-1.4h16.4v-9.5h-16.4v9.5z"/><g><path class="st1" d="M130.2 129.8v2.3l-8.9 4.5-8.9-4.5v-2.3z"/><path class="st0" d="M121.3 137.3c-.1 0-.2 0-.3-.1l-8.9-4.5c-.2-.1-.4-.4-.4-.7v-2.3c0-.4.3-.7.7-.7h17.9c.4 0 .7.3.7.7v2.2c0 .3-.2.5-.4.7l-8.9 4.5c-.2.2-.3.2-.4.2zm-8.2-5.7l8.2 4.1 8.2-4.2v-1.1h-16.4v1.2z"/></g></g><g><path class="st0" d="M109.2 121.8h-4.1c-.4 0-.7-.3-.7-.7s.3-.7.7-.7h3.4V117c0-.4.3-.7.7-.7.4 0 .7.3.7.7v4.1c0 .3-.3.7-.7.7zM112.7 125.2h-4.1c-.4 0-.7-.3-.7-.7s.3-.7.7-.7h3.4v-3.4c0-.4.3-.7.7-.7s.7.3.7.7v4.1c0 .4-.3.7-.7.7z"/></g><g><path class="st0" d="M112.7 145.5h-4.1c-.4 0-.7-.3-.7-.7v-4.1c0-.4.3-.7.7-.7s.7.3.7.7v3.4h3.4c.4 0 .7.3.7.7s-.3.7-.7.7zM109.2 149h-4.1c-.4 0-.7-.3-.7-.7v-4.1c0-.4.3-.7.7-.7s.7.3.7.7v3.4h3.4c.4 0 .7.3.7.7s-.3.7-.7.7z"/></g><path class="st0" d="M125.5 119.9h-7c-.4 0-.7-.3-.7-.7v-7c0-.4.3-.7.7-.7h7c.4 0 .7.3.7.7v7c0 .4-.3.7-.7.7zm-6.3-1.4h5.6v-5.6h-5.6v5.6zM119.3 108.1h-10c-.4 0-.7-.3-.7-.7v-10c0-.4.3-.7.7-.7h10c.4 0 .7.3.7.7v10c0 .4-.3.7-.7.7zm-9.2-1.5h8.5v-8.5h-8.5v8.5zM133.1 113.9h-3.4c-.4 0-.7-.3-.7-.7v-3.4c0-.4.3-.7.7-.7h3.4c.4 0 .7.3.7.7v3.4c0 .3-.3.7-.7.7zm-2.7-1.5h2v-2h-2v2zM141.9 154.1h-9.6c-.4 0-.7-.3-.7-.7v-9.6c0-.4.3-.7.7-.7h9.6c.4 0 .7.3.7.7v9.6c0 .4-.3.7-.7.7zm-8.9-1.5h8.1v-8.1H133v8.1zM151 142.8h-5.5c-.4 0-.7-.3-.7-.7v-5.5c0-.4.3-.7.7-.7h5.5c.4 0 .7.3.7.7v5.5c.1.4-.3.7-.7.7zm-4.7-1.5h4v-4h-4v4zM157.4 129.8h-17c-.4 0-.7-.3-.7-.7s.3-.7.7-.7h17c4.5 0 8.3-1.4 11-4 2.3-2.3 3.6-5.4 3.6-8.7 0-6.1-4.6-12.6-14.6-12.6h-.6c-.4 0-.7-.3-.7-.7s.3-.7.7-.7h.6c11 0 16 7.3 16 14.1 0 3.7-1.4 7.1-4 9.7-3 2.8-7.1 4.3-12 4.3zM151.6 91.7c-.4 0-.7-.3-.7-.7v-8.3c0-.4.3-.7.7-.7s.7.3.7.7V91c.1.3-.3.7-.7.7zM154.7 84.3c-.4 0-.7-.3-.7-.7v-4.4c0-.4.3-.7.7-.7.4 0 .7.3.7.7v4.4c0 .3-.3.7-.7.7z"/><path class="st0" d="M116.7 105.5H112c-.4 0-.7-.3-.7-.7V100c0-.4.3-.7.7-.7h4.7c.4 0 .7.3.7.7v4.7c0 .5-.3.8-.7.8zm-4-1.5h3.2v-3.2h-3.2v3.2zM248 100h-5.5c-.4 0-.7-.3-.7-.7s.3-.7.7-.7h5.5c.4 0 .7.3.7.7s-.3.7-.7.7zM248 103.1h-5.5c-.4 0-.7-.3-.7-.7s.3-.7.7-.7h5.5c.4 0 .7.3.7.7s-.3.7-.7.7zM145 75.9c-1.6 0-2.9-1.3-2.9-2.9 0-1.6 1.3-2.9 2.9-2.9 1.6 0 2.9 1.3 2.9 2.9 0 1.6-1.3 2.9-2.9 2.9zm0-4.2c-.8 0-1.4.6-1.4 1.4 0 .8.6 1.4 1.4 1.4.8 0 1.4-.6 1.4-1.4 0-.8-.6-1.4-1.4-1.4zM156.5 113.4h-13.7c-.4 0-.7-.3-.7-.7v-3.2c0-.4.3-.7.7-.7h13.7c.4 0 .7.3.7.7v3.2c.1.4-.3.7-.7.7zm-12.9-1.5h12.2v-1.7h-12.2v1.7zM156.5 119.1h-13.7c-.4 0-.7-.3-.7-.7v-3.2c0-.4.3-.7.7-.7h13.7c.4 0 .7.3.7.7v3.2c.1.4-.3.7-.7.7zm-12.9-1.4h12.2V116h-12.2v1.7zM156.5 124.9h-13.7c-.4 0-.7-.3-.7-.7V121c0-.4.3-.7.7-.7h13.7c.4 0 .7.3.7.7v3.2c.1.4-.3.7-.7.7zm-12.9-1.5h12.2v-1.7h-12.2v1.7zM403.3 178.1c-.4 0-.7-.3-.7-.7V175c0-.4.3-.7.7-.7s.7.3.7.7v2.4c0 .4-.3.7-.7.7zM409.9 184.9c-.4 0-.7-.3-.7-.7v-2.4c0-.4.3-.7.7-.7s.7.3.7.7v2.4c0 .4-.3.7-.7.7zM409.9 177.9c-.4 0-.7-.3-.7-.7v-2.4c0-.4.3-.7.7-.7s.7.3.7.7v2.4c0 .3-.3.7-.7.7zM389.6 176.8c-.4 0-.7-.3-.7-.7v-1.3c0-.4.3-.7.7-.7s.7.3.7.7v1.3c0 .4-.3.7-.7.7z"/><g><path class="st0" d="M440.3 24.5h-2.6c-.4 0-.7-.3-.7-.7s.3-.7.7-.7h1.8v-1.8h-1.8c-.4 0-.7-.3-.7-.7s.3-.7.7-.7h2.6c.4 0 .7.3.7.7v3.3c0 .3-.3.6-.7.6z"/><path class="st0" d="M437.7 26.2h-9.5c-.4 0-.7-.3-.7-.7v-6.6c0-.4.3-.7.7-.7h9.5c.4 0 .7.3.7.7v6.6c0 .3-.3.7-.7.7zm-8.8-1.5h8v-5.1h-8v5.1zM436 39.8h-6.2c-.4 0-.7-.3-.7-.7V28.8c0-.4.3-.7.7-.7h6.2c.4 0 .7.3.7.7V39c.1.5-.3.8-.7.8zm-5.4-1.5h4.7v-8.8h-4.7v8.8z"/><path class="st0" d="M433 39.8c-.4 0-.7-.3-.7-.7V25.4c0-.4.3-.7.7-.7s.7.3.7.7V39c.1.5-.3.8-.7.8z"/><path class="st0" d="M436 33.2h-6.2c-.4 0-.7-.3-.7-.7s.3-.7.7-.7h6.2c.4 0 .7.3.7.7s-.3.7-.7.7zM436 36.3h-6.2c-.4 0-.7-.3-.7-.7s.3-.7.7-.7h6.2c.4 0 .7.3.7.7s-.3.7-.7.7z"/><g><path class="st0" d="M436 16.2h-6.2c-.4 0-.7-.3-.7-.7V5.3c0-.4.3-.7.7-.7h6.2c.4 0 .7.3.7.7v10.2c.1.4-.3.7-.7.7zm-5.4-1.4h4.7V6h-4.7v8.8z"/><path class="st0" d="M432.8 19.6c-.4 0-.7-.3-.7-.7V5.3c0-.4.3-.7.7-.7s.7.3.7.7v13.6c.1.4-.3.7-.7.7z"/><path class="st0" d="M436 12.6h-6.2c-.4 0-.7-.3-.7-.7s.3-.7.7-.7h6.2c.4 0 .7.3.7.7s-.3.7-.7.7zM436 9.5h-6.2c-.4 0-.7-.3-.7-.7s.3-.7.7-.7h6.2c.4 0 .7.3.7.7s-.3.7-.7.7z"/></g><path class="st0" d="M423.9 26.5c-.1 0-.2 0-.4-.1s-.4-.4-.4-.6v-7.2c0-.3.1-.5.4-.6.2-.1.5-.1.7 0l4.2 2.6c.3.2.5.7.2 1-.2.3-.7.5-1 .2l-3.1-1.9v4.6l3.2-1.9c.3-.2.8-.1 1 .2.2.3.1.8-.2 1l-4.3 2.6c0 .1-.1.1-.3.1z"/></g><path class="st0" d="M467.9 110.8c-.2 0-.4-.1-.5-.2-.3-.3-.3-.8 0-1 2.3-2.3 4.3-4.8 6.1-7.4 12.5-18.5 11.1-43.3-3.4-60.3-.3-.3-.2-.8.1-1 .3-.3.8-.2 1 .1 14.9 17.5 16.3 43 3.5 62-1.8 2.7-4 5.3-6.3 7.6-.1.2-.3.2-.5.2zM465.7 37c-.2 0-.3-.1-.5-.2-1.1-1-2.2-1.9-3.4-2.8-.3-.2-.4-.7-.2-1 .2-.3.7-.4 1-.2 1.2.9 2.4 1.9 3.5 2.9.3.3.3.7.1 1-.1.2-.3.3-.5.3zM453.3 28.9c-.1 0-.2 0-.3-.1-1.7-.8-3.5-1.5-5.3-2.1-.4-.1-.6-.5-.5-.9.1-.4.5-.6.9-.5 1.9.6 3.7 1.3 5.5 2.1.4.2.5.6.4 1-.2.3-.4.5-.7.5zM448.3 77.1l-5.8-.1c-.3 0-.5-.1-.6-.4l-3.6-6.3c-.2-.3-.1-.8.3-1l7.9-4.9-1.2-4.4c-.1-.2 0-.4.1-.6l5.9-8.3c.2-.3.7-.4 1-.2.3.2.4.7.2 1l-5.7 8 1.2 4.6c.1.3 0 .6-.3.8l-7.8 4.8 3.1 5.4 5 .1 2.8-3.7c.2-.2.4-.3.7-.3l3.6.4c.3 0 .5.2.6.5l1.1 2.8 5.7-.8c.4-.1.8.2.8.6.1.4-.2.8-.6.8l-6.2.9c-.3.1-.7-.1-.8-.5l-1.1-2.9-2.7-.3-2.8 3.7c-.4.2-.6.3-.8.3zM408.2 59.4c-.4 0-.7-.2-.7-.6L407 56c-.1-.4.2-.8.6-.9.4-.1.8.2.9.6l.4 2.1 4-.1 1.6-2.7-1-1.3c-.1-.2-.2-.4-.1-.6 0-.2.2-.4.3-.5l4-2.5c.2-.1.4-.1.6-.1l1.8.5 2.4-2.1.3-3.3c0-.4.4-.7.8-.7s.7.4.7.8l-.4 3.6c0 .2-.1.3-.2.5l-2.9 2.6c-.2.2-.4.2-.7.2l-1.9-.5-3.1 1.9.8 1.1c.2.2.2.6 0 .8l-2 3.5c-.1.2-.4.4-.6.4l-5.1.1zM425.2 95.6c-.2 0-.3 0-.4-.1-.3-.2-.4-.7-.1-1l3-4c.2-.3.6-.4.9-.2l3.2 1.4 4.7-2.1V87l-3.9-1.8c-.2-.1-.3-.3-.4-.5s0-.4.1-.6l1.7-2.7-.6-1.4-2.8.8h-.4l-3.1-.6-2.5 2.7c-.3.3-.7.3-1 .1-.3-.3-.3-.7-.1-1l2.7-3c.2-.2.4-.3.7-.2l3.3.7 3.3-1c.4-.1.7.1.9.4l1 2.3c.1.2.1.5 0 .7l-1.4 2.3 3.6 1.7c.3.1.4.4.4.7v3.5c0 .3-.2.6-.4.7l-5.5 2.5c-.2.1-.4.1-.6 0l-2.9-1.3-2.7 3.6c-.3-.1-.5 0-.7 0zM431.6 63h-8.1c-.4 0-.7-.3-.7-.7s.3-.7.7-.7h8.1c.4 0 .7.3.7.7s-.3.7-.7.7zM428.2 66h-4.7c-.4 0-.7-.3-.7-.7s.3-.7.7-.7h4.7c.4 0 .7.3.7.7s-.3.7-.7.7zM448.5 96.9c-.2 0-.4-.1-.6-.3-.2-.3-.2-.8.1-1 1-.8 2-1.6 2.9-2.5.9-.9 1.7-1.9 2.5-2.9.2-.3.7-.4 1-.1.3.2.4.7.1 1-.8 1.1-1.7 2.1-2.6 3-1 1-2 1.9-3.1 2.7 0 .1-.2.1-.3.1zM407 64.9c-.1 0-.2 0-.3-.1-.4-.2-.6-.6-.4-1 .2-.6.5-1.2.8-1.8.2-.4.6-.5 1-.3s.5.6.3 1c-.3.6-.5 1.2-.8 1.8-.1.2-.4.4-.6.4zM405 74.2c-.4 0-.7-.4-.7-.8.1-2 .3-3.9.8-5.8.1-.4.5-.6.9-.5.4.1.6.5.5.9-.4 1.8-.7 3.6-.7 5.5-.1.4-.4.7-.8.7zM369 79.2c-.4 0-.7-.3-.7-.7v-.3c0-.4.3-.7.7-.7s.7.3.7.7v.3c0 .4-.3.7-.7.7zm0-4.7c-.4 0-.7-.3-.7-.7v-.3c0-.4.3-.7.7-.7s.7.3.7.7v.3c0 .4-.3.7-.7.7zm0-4.7c-.4 0-.7-.3-.7-.7v-.3c0-.4.3-.7.7-.7s.7.3.7.7v.3c0 .4-.3.7-.7.7zm0-4.7c-.4 0-.7-.3-.7-.7v-.3c0-.4.3-.7.7-.7s.7.3.7.7v.3c0 .4-.3.7-.7.7zM419.1 146.7h-30.4c-.4 0-.7-.3-.7-.7s.3-.7.7-.7h30.4c.4 0 .7.3.7.7s-.3.7-.7.7zM386.2 146.7h-5.5c-.4 0-.7-.3-.7-.7s.3-.7.7-.7h5.5c.4 0 .7.3.7.7s-.3.7-.7.7zM377.6 146.7H376c-.4 0-.7-.3-.7-.7s.3-.7.7-.7h1.6c.4 0 .7.3.7.7s-.3.7-.7.7z"/><g><path class="st1" d="M178.3 144.4h6.1l-3.1 4.2z"/><path class="st0" d="M181.3 149.3c-.2 0-.5-.1-.6-.3l-3-4.2c-.2-.2-.2-.5-.1-.8.1-.2.4-.4.7-.4h6.1c.3 0 .5.2.7.4s.1.5-.1.8l-3 4.2c-.2.2-.4.3-.7.3zm-1.6-4.2l1.6 2.2 1.6-2.2h-3.2z"/><path class="st1" d="M178.3 151.5h6.1l-3.1 4.3z"/><path class="st0" d="M181.3 156.5c-.2 0-.5-.1-.6-.3l-3-4.2c-.2-.2-.2-.5-.1-.8.1-.2.4-.4.7-.4h6.1c.3 0 .5.2.7.4s.1.5-.1.8l-3 4.2c-.2.2-.4.3-.7.3zm-1.6-4.2l1.6 2.2 1.6-2.2h-3.2z"/><g><path class="st1" d="M178.3 158.7h6.1l-3.1 4.3z"/><path class="st0" d="M181.3 163.7c-.2 0-.5-.1-.6-.3l-3-4.2c-.2-.2-.2-.5-.1-.8.1-.2.4-.4.7-.4h6.1c.3 0 .5.2.7.4s.1.5-.1.8l-3 4.2c-.2.2-.4.3-.7.3zm-1.6-4.2l1.6 2.2 1.6-2.2h-3.2z"/></g></g><g><path class="st1" d="M217 88.1v2.7-2.7z"/><path class="st0" d="M217 91.5c-.4 0-.7-.3-.7-.7v-2.7c0-.4.3-.7.7-.7.4 0 .7.3.7.7v2.7c0 .4-.3.7-.7.7z"/><path class="st1" d="M217 94.9v2.7-2.7z"/><path class="st0" d="M217 98.3c-.4 0-.7-.3-.7-.7v-2.7c0-.4.3-.7.7-.7.4 0 .7.3.7.7v2.7c0 .4-.3.7-.7.7z"/><g><path class="st1" d="M221.7 92.8H219h2.7z"/><path class="st0" d="M221.7 93.6H219c-.4 0-.7-.3-.7-.7s.3-.7.7-.7h2.7c.4 0 .7.3.7.7s-.3.7-.7.7z"/></g><g><path class="st1" d="M214.9 92.8h-2.7 2.7z"/><path class="st0" d="M214.9 93.6h-2.7c-.4 0-.7-.3-.7-.7s.3-.7.7-.7h2.7c.4 0 .7.3.7.7s-.3.7-.7.7z"/></g></g><g><path class="st1" d="M8.4 89.1v2.7-2.7z"/><path class="st0" d="M8.4 92.5c-.4 0-.7-.3-.7-.7v-2.7c0-.4.3-.7.7-.7s.7.3.7.7v2.7c0 .4-.3.7-.7.7z"/><path class="st1" d="M8.4 95.8v2.7-2.7z"/><path class="st0" d="M8.4 99.3c-.4 0-.7-.3-.7-.7v-2.7c0-.4.3-.7.7-.7s.7.3.7.7v2.7c0 .3-.3.7-.7.7z"/><g><path class="st1" d="M13.1 93.8h-2.7 2.7z"/><path class="st0" d="M13.1 94.5h-2.7c-.4 0-.7-.3-.7-.7s.3-.7.7-.7h2.7c.4 0 .7.3.7.7s-.3.7-.7.7z"/></g><g><path class="st1" d="M6.3 93.8H3.6h2.7z"/><path class="st0" d="M6.3 94.5H3.6c-.4 0-.7-.3-.7-.7s.3-.7.7-.7h2.7c.4 0 .7.3.7.7s-.3.7-.7.7z"/></g></g><g><path class="st1" d="M207.2 81.1v1-1z"/><path class="st0" d="M207.2 82.9c-.4 0-.7-.3-.7-.7v-1c0-.4.3-.7.7-.7.4 0 .7.3.7.7v1c.1.4-.2.7-.7.7z"/><path class="st1" d="M207.2 86v1-1z"/><path class="st0" d="M207.2 87.8c-.4 0-.7-.3-.7-.7v-1c0-.4.3-.7.7-.7.4 0 .7.3.7.7v1c.1.4-.2.7-.7.7z"/><g><path class="st1" d="M210.2 84.1h-1 1z"/><path class="st0" d="M210.2 84.8h-1c-.4 0-.7-.3-.7-.7s.3-.7.7-.7h1c.4 0 .7.3.7.7s-.3.7-.7.7z"/></g><g><path class="st1" d="M205.3 84.1h-1 1z"/><path class="st0" d="M205.3 84.8h-1c-.4 0-.7-.3-.7-.7s.3-.7.7-.7h1c.4 0 .7.3.7.7s-.3.7-.7.7z"/></g></g><g><path class="st1" d="M374 15.6v1-1z"/><path class="st0" d="M374 17.3c-.4 0-.7-.3-.7-.7v-1c0-.4.3-.7.7-.7s.7.3.7.7v1c0 .4-.3.7-.7.7z"/><path class="st1" d="M374 20.2v1-1z"/><path class="st0" d="M374 22c-.4 0-.7-.3-.7-.7v-1c0-.4.3-.7.7-.7s.7.3.7.7v1c0 .3-.3.7-.7.7z"/><g><path class="st1" d="M376.8 18.4h-1 1z"/><path class="st0" d="M376.8 19.1h-1c-.4 0-.7-.3-.7-.7s.3-.7.7-.7h1c.4 0 .7.3.7.7s-.3.7-.7.7z"/></g><g><path class="st1" d="M372.1 18.4h-1 1z"/><path class="st0" d="M372.1 19.1h-1c-.4 0-.7-.3-.7-.7s.3-.7.7-.7h1c.4 0 .7.3.7.7s-.3.7-.7.7z"/></g></g><g><path class="st1" d="M476.3 71v1-1z"/><path class="st0" d="M476.3 72.7c-.4 0-.7-.3-.7-.7v-1c0-.4.3-.7.7-.7s.7.3.7.7v1c.1.4-.3.7-.7.7z"/><path class="st1" d="M476.3 75.7v1-1z"/><path class="st0" d="M476.3 77.4c-.4 0-.7-.3-.7-.7v-1c0-.4.3-.7.7-.7s.7.3.7.7v1c.1.4-.3.7-.7.7z"/><g><path class="st1" d="M479.2 73.8h-1 1z"/><path class="st0" d="M479.2 74.6h-1c-.4 0-.7-.3-.7-.7s.3-.7.7-.7h1c.4 0 .7.3.7.7s-.3.7-.7.7z"/></g><g><path class="st1" d="M474.5 73.8h-1 1z"/><path class="st0" d="M474.5 74.6h-1c-.4 0-.7-.3-.7-.7s.3-.7.7-.7h1c.4 0 .7.3.7.7s-.3.7-.7.7z"/></g></g><g><path class="st1" d="M332.6 85v1-1z"/><path class="st0" d="M332.6 86.7c-.4 0-.7-.3-.7-.7v-1c0-.4.3-.7.7-.7s.7.3.7.7v1c.1.4-.3.7-.7.7z"/><path class="st1" d="M332.6 89.7v1-1z"/><path class="st0" d="M332.6 91.4c-.4 0-.7-.3-.7-.7v-1c0-.4.3-.7.7-.7s.7.3.7.7v1c.1.4-.3.7-.7.7z"/><g><path class="st1" d="M335.4 87.8h-1 1z"/><path class="st0" d="M335.4 88.6h-1c-.4 0-.7-.3-.7-.7s.3-.7.7-.7h1c.4 0 .7.3.7.7s-.3.7-.7.7z"/></g><g><path class="st1" d="M330.8 87.8h-1 1z"/><path class="st0" d="M330.8 88.6h-1c-.4 0-.7-.3-.7-.7s.3-.7.7-.7h1c.4 0 .7.3.7.7s-.3.7-.7.7z"/></g></g><g><path class="st1" d="M210.2 152.1v1-1z"/><path class="st0" d="M210.2 153.8c-.4 0-.7-.3-.7-.7v-1c0-.4.3-.7.7-.7.4 0 .7.3.7.7v1c.1.4-.3.7-.7.7z"/><path class="st1" d="M210.2 156.7v1-1z"/><path class="st0" d="M210.2 158.5c-.4 0-.7-.3-.7-.7v-1c0-.4.3-.7.7-.7.4 0 .7.3.7.7v1c.1.3-.3.7-.7.7z"/><g><path class="st1" d="M213 154.9h-1 1z"/><path class="st0" d="M213 155.6h-1c-.4 0-.7-.3-.7-.7s.3-.7.7-.7h1c.4 0 .7.3.7.7s-.2.7-.7.7z"/></g><g><path class="st1" d="M208.4 154.9h-1 1z"/><path class="st0" d="M208.4 155.6h-1c-.4 0-.7-.3-.7-.7s.3-.7.7-.7h1c.4 0 .7.3.7.7s-.3.7-.7.7z"/></g></g><g><path class="st1" d="M57 71v1-1z"/><path class="st0" d="M57 72.7c-.4 0-.7-.3-.7-.7v-1c0-.4.3-.7.7-.7s.7.3.7.7v1c.1.4-.3.7-.7.7z"/><path class="st1" d="M57 75.9v1-1z"/><path class="st0" d="M57 77.7c-.4 0-.7-.3-.7-.7v-1c0-.4.3-.7.7-.7s.7.3.7.7v1c.1.3-.3.7-.7.7z"/><g><path class="st1" d="M60 73.9h-1 1z"/><path class="st0" d="M60 74.7h-1c-.4 0-.7-.3-.7-.7s.3-.7.7-.7h1c.4 0 .7.3.7.7s-.3.7-.7.7z"/></g><g><path class="st1" d="M55.1 73.9h-1 1z"/><path class="st0" d="M55.1 74.7h-1c-.4 0-.7-.3-.7-.7s.3-.7.7-.7h1c.4 0 .7.3.7.7s-.3.7-.7.7z"/></g></g><g><path class="st1" d="M116 150.3v1-1z"/><path class="st0" d="M116 152.1c-.4 0-.7-.3-.7-.7v-1c0-.4.3-.7.7-.7.4 0 .7.3.7.7v1c.1.4-.3.7-.7.7z"/><path class="st1" d="M116 155.2v1-1z"/><path class="st0" d="M116 157c-.4 0-.7-.3-.7-.7v-1c0-.4.3-.7.7-.7.4 0 .7.3.7.7v1c.1.4-.3.7-.7.7z"/><g><path class="st1" d="M119 153.3h-1 1z"/><path class="st0" d="M119 154h-1c-.4 0-.7-.3-.7-.7s.3-.7.7-.7h1c.4 0 .7.3.7.7s-.3.7-.7.7z"/></g><g><path class="st1" d="M114.1 153.3h-1 1z"/><path class="st0" d="M114.1 154h-1c-.4 0-.7-.3-.7-.7s.3-.7.7-.7h1c.4 0 .7.3.7.7s-.3.7-.7.7z"/></g></g><g><path class="st1" d="M37.7 98.4v1-1z"/><path class="st0" d="M37.7 100.2c-.4 0-.7-.3-.7-.7v-1c0-.4.3-.7.7-.7s.7.3.7.7v1c.1.3-.2.7-.7.7z"/><path class="st1" d="M37.7 103.3v1-1z"/><path class="st0" d="M37.7 105.1c-.4 0-.7-.3-.7-.7v-1c0-.4.3-.7.7-.7s.7.3.7.7v1c.1.3-.2.7-.7.7z"/><g><path class="st1" d="M40.7 101.4h-1 1z"/><path class="st0" d="M40.7 102.1h-1c-.4 0-.7-.3-.7-.7s.3-.7.7-.7h1c.4 0 .7.3.7.7s-.3.7-.7.7z"/></g><g><path class="st1" d="M35.8 101.4h-1 1z"/><path class="st0" d="M35.8 102.1h-1c-.4 0-.7-.3-.7-.7s.3-.7.7-.7h1c.4 0 .7.3.7.7s-.3.7-.7.7z"/></g></g><path class="st0" d="M274.2 132.6h-3.9c-.4 0-.7-.3-.7-.7v-21.5c0-.4.3-.7.7-.7h3.9c.4 0 .7.3.7.7v21.5c0 .4-.3.7-.7.7zm-3.2-1.5h2.4v-20H271v20zM149.1 179.1c-.4 0-.7-.3-.7-.7v-9.2c0-.4.3-.7.7-.7.4 0 .7.3.7.7v9.2c.1.4-.3.7-.7.7zM153.4 174c-.4 0-.7-.3-.7-.7v-21.9c0-.4.3-.7.7-.7.4 0 .7.3.7.7v21.9c.1.3-.3.7-.7.7zM109 189.7c-.4 0-.7-.3-.7-.7v-17.8c0-.4.3-.7.7-.7s.7.3.7.7V189c0 .4-.3.7-.7.7zM113.6 175.1c-.4 0-.7-.3-.7-.7v-8.9c0-.4.3-.7.7-.7.4 0 .7.3.7.7v8.9c0 .4-.3.7-.7.7zM18 67.3c-1.1 0-2.1-.9-2.1-2.1 0-1.1.9-2.1 2.1-2.1s2.1.9 2.1 2.1c0 1.1-1 2.1-2.1 2.1zm0-2.7c-.3 0-.6.3-.6.6s.3.6.6.6.6-.3.6-.6-.3-.6-.6-.6z"/><g><path class="st1" d="M232.5 183.1l8.9-5.5-8.9 5.5z"/><path class="st0" d="M232.5 183.8c-.2 0-.5-.1-.6-.4-.2-.3-.1-.8.2-1l8.9-5.5c.3-.2.8-.1 1 .2.2.3.1.8-.2 1l-8.9 5.5c-.1.2-.2.2-.4.2z"/><path class="st1" d="M243.3 177.6l8.9 5.5-8.9-5.5z"/><path class="st0" d="M252.2 183.8c-.1 0-.3 0-.4-.1l-8.9-5.5c-.3-.2-.5-.7-.2-1 .2-.3.7-.5 1-.2l8.9 5.5c.3.2.5.7.2 1-.1.2-.4.3-.6.3z"/><path class="st1" d="M241.1 119.2h2.5v63h-2.5z"/><path class="st0" d="M243.6 182.9h-2.5c-.4 0-.7-.3-.7-.7v-63c0-.4.3-.7.7-.7h2.5c.4 0 .7.3.7.7v63c0 .4-.3.7-.7.7zm-1.7-1.5h1v-61.5h-1v61.5z"/><path class="st1" d="M225.8 125.1h33.1v33.2h-33.1z"/><path class="st0" d="M258.9 159.1h-33.1c-.4 0-.7-.3-.7-.7v-33.2c0-.4.3-.7.7-.7h33.1c.4 0 .7.3.7.7v33.2c0 .3-.3.7-.7.7zm-32.4-1.5h31.6v-31.8h-31.6v31.8z"/><path class="st1" d="M223.6 121.8h37.6v3.4h-37.6z"/><path class="st0" d="M261.2 125.9h-37.6c-.4 0-.7-.3-.7-.7v-3.4c0-.4.3-.7.7-.7h37.6c.4 0 .7.3.7.7v3.4c0 .4-.3.7-.7.7zm-36.9-1.4h36.1v-2h-36.1v2z"/><g><path class="st1" d="M231.5 152.3h5.2-5.2z"/><path class="st0" d="M236.7 153h-5.2c-.4 0-.7-.3-.7-.7s.3-.7.7-.7h5.2c.4 0 .7.3.7.7s-.3.7-.7.7z"/></g><g><path class="st1" d="M231.5 154.6h2.9-2.9z"/><path class="st0" d="M234.4 155.3h-2.9c-.4 0-.7-.3-.7-.7s.3-.7.7-.7h2.9c.4 0 .7.3.7.7s-.3.7-.7.7z"/></g><g><path class="st1" d="M254.6 148.9h-22.9v-20.2z"/><path class="st0" d="M254.6 149.7h-23c-.4 0-.7-.3-.7-.7v-20.2c0-.4.3-.7.7-.7.4 0 .7.3.7.7v19.5h22.2c.4 0 .7.3.7.7s-.2.7-.6.7z"/></g><g><path class="st1" d="M237.9 129.3v19.3-19.3z"/><path class="st0" d="M237.9 149.4c-.4 0-.7-.3-.7-.7v-19.3c0-.4.3-.7.7-.7.4 0 .7.3.7.7v19.3c0 .4-.3.7-.7.7z"/></g><g><path class="st1" d="M244.1 129.3v19.3-19.3z"/><path class="st0" d="M244.1 149.4c-.4 0-.7-.3-.7-.7v-19.3c0-.4.3-.7.7-.7s.7.3.7.7v19.3c0 .4-.3.7-.7.7z"/></g><g><path class="st1" d="M250.3 129.3v19.3-19.3z"/><path class="st0" d="M250.3 149.4c-.4 0-.7-.3-.7-.7v-19.3c0-.4.3-.7.7-.7s.7.3.7.7v19.3c0 .4-.3.7-.7.7z"/></g><path class="st0" d="M229.2 144.1c-.2 0-.4-.1-.5-.2-.3-.3-.2-.8.1-1l8.7-7.7c.2-.2.6-.2.9-.1l5.8 3.3 10.1-9.5c.3-.3.8-.3 1 0 .3.3.3.8 0 1l-10.5 9.9c-.2.2-.6.3-.9.1l-5.8-3.3-8.3 7.4c-.3 0-.4.1-.6.1z"/><g><path class="st1" d="M248.1 140.2h5.6v5.6h-5.6z"/><path class="st0" d="M253.7 146.5h-5.6c-.4 0-.7-.3-.7-.7v-5.6c0-.4.3-.7.7-.7h5.6c.4 0 .7.3.7.7v5.6c0 .4-.3.7-.7.7zm-4.9-1.4h4.2v-4.2h-4.2v4.2z"/></g><g><path class="st1" d="M218.5 145.1h3.4v3.4h-3.4z"/><path class="st0" d="M221.9 149.2h-3.4c-.4 0-.7-.3-.7-.7v-3.4c0-.4.3-.7.7-.7h3.4c.4 0 .7.3.7.7v3.4c0 .4-.3.7-.7.7zm-2.7-1.5h1.9v-1.9h-1.9v1.9z"/></g></g><g><path class="st1" d="M94.1 91.6c0 8.2-6.6 14.8-14.8 14.8-8.2 0-14.8-6.6-14.8-14.8 0-8.2 6.6-14.8 14.8-14.8 8.1 0 14.8 6.6 14.8 14.8z"/><path class="st0" d="M79.2 107.3c-8.6 0-15.7-7-15.7-15.7S70.6 76 79.2 76s15.7 7 15.7 15.7-7 15.6-15.7 15.6zm0-29.7c-7.7 0-14 6.3-14 14s6.3 14 14 14 14-6.3 14-14-6.2-14-14-14z"/><path class="st1" d="M89.2 91.6c0 5.5-4.5 10-10 10s-10-4.5-10-10 4.5-10 10-10 10 4.5 10 10z"/><path class="st0" d="M79.2 102.5c-6 0-10.8-4.9-10.8-10.8s4.9-10.8 10.8-10.8c6 0 10.8 4.9 10.8 10.8s-4.8 10.8-10.8 10.8zm0-20c-5 0-9.2 4.1-9.2 9.2s4.1 9.2 9.2 9.2c5 0 9.1-4.1 9.1-9.2s-4-9.2-9.1-9.2z"/><path class="st1" d="M73.6 91.6c0-3.1 2.5-5.6 5.6-5.6l-5.6 5.6z"/><path class="st0" d="M73.6 92.5c-.5 0-.8-.4-.8-.8 0-3.6 2.9-6.4 6.5-6.4.5 0 .8.4.8.8s-.4.8-.8.8c-2.6 0-4.8 2.1-4.8 4.8 0 .4-.4.8-.9.8z"/><g><path class="st1" d="M89.7 102.1l4.4 4.4-4.4-4.4z"/><path class="st0" d="M94.1 107.4c-.2 0-.4-.1-.6-.2l-4.4-4.4c-.3-.3-.3-.9 0-1.2.3-.3.9-.3 1.2 0l4.4 4.4c.3.3.3.9 0 1.2-.1.1-.3.2-.6.2z"/></g><g><path class="st1" d="M96 101.6l8.3 8.3c1.9 1.9 1.9 4.9 0 6.8-.9.9-2.2 1.4-3.4 1.4-1.2 0-2.5-.5-3.4-1.4l-8.3-8.3 6.8-6.8z"/><path class="st0" d="M100.8 118.9c-1.5 0-2.9-.6-4-1.7l-8.3-8.3c-.3-.3-.3-.9 0-1.2l6.8-6.8c.3-.3.9-.3 1.2 0l8.3 8.3c1.1 1.1 1.7 2.5 1.7 4s-.6 2.9-1.7 4c-1 1.1-2.5 1.7-4 1.7zm-10.5-10.5L98 116c.8.7 1.7 1.2 2.8 1.2 1.1 0 2.1-.4 2.8-1.2.8-.8 1.2-1.8 1.2-2.8 0-1.1-.4-2.1-1.2-2.8l-7.7-7.7-5.6 5.7z"/></g></g><g><path class="st0" d="M289.6 99.7c-.4 0-.8-.3-.8-.8 0-7.3-6-13.3-13.3-13.3-3.6 0-6.9 1.4-9.4 3.9-.2.2-.5.3-.7.2-.3-.1-.5-.3-.5-.6-2-8.2-9.4-13.9-17.8-13.9-.4 0-.8-.3-.8-.8s.3-.8.8-.8c8.7 0 16.3 5.6 18.9 13.8 2.7-2.3 6-3.5 9.6-3.5 8.2 0 14.8 6.7 14.8 14.8 0 .6-.4 1-.8 1zM235.7 87.6c-.1 0-.2 0-.4-.1-.4-.2-.5-.7-.3-1 2.2-4.2 6.6-6.8 11.4-6.8 3.9 0 7.6 1.8 10 4.8.3.3.2.8-.1 1.1-.3.3-.8.2-1.1-.1-2.2-2.7-5.4-4.2-8.8-4.2-4.2 0-8 2.3-10 6-.2.1-.4.3-.7.3z"/></g><g><path class="st0" d="M284 162.7h-8.3c-.4 0-.7-.3-.7-.7v-6.1c0-.4.3-.7.7-.7h8.3c.4 0 .7.3.7.7v6.1c.1.3-.3.7-.7.7zm-7.6-1.5h6.9v-4.7h-6.9v4.7zM284.4 179.9h-8.3c-.4 0-.7-.3-.7-.7v-6.1c0-.4.3-.7.7-.7h8.3c.4 0 .7.3.7.7v6.1c.1.4-.3.7-.7.7zm-7.6-1.4h6.9v-4.7h-6.9v4.7zM269.6 179.9h-8.3c-.4 0-.7-.3-.7-.7v-6.1c0-.4.3-.7.7-.7h8.3c.4 0 .7.3.7.7v6.1c0 .4-.3.7-.7.7zm-7.6-1.4h6.9v-4.7H262v4.7zM298.5 179.9h-8.3c-.4 0-.7-.3-.7-.7v-6.1c0-.4.3-.7.7-.7h8.3c.4 0 .7.3.7.7v6.1c0 .4-.3.7-.7.7zm-7.6-1.4h6.9v-4.7h-6.9v4.7z"/><path class="st0" d="M294.3 173.8c-.4 0-.7-.3-.7-.7V168h-27.4v5.1c0 .4-.3.7-.7.7s-.7-.3-.7-.7v-5.8c0-.4.3-.7.7-.7h28.9c.4 0 .7.3.7.7v5.8c-.1.4-.4.7-.8.7z"/><path class="st0" d="M279.9 173.5c-.4 0-.7-.3-.7-.7V162c0-.4.3-.7.7-.7s.7.3.7.7v10.8c0 .4-.3.7-.7.7z"/></g><g><path class="st0" d="M321.7 101.7c-.4 0-.8-.4-.8-.8s.4-.8.8-.8c3.3 0 5-1.6 5-3 0-.7-.4-1.3-1.1-1.8-.6-.4-1.8-1-3.9-1-.4 0-.8-.4-.8-.8s.4-.8.8-.8c2 0 3.7.4 4.8 1.3 1.1.8 1.8 1.9 1.8 3.1 0 2.2-2.3 4.6-6.6 4.6z"/><ellipse class="st1" cx="312.4" cy="108.4" rx="13.9" ry="3.7"/><path class="st0" d="M312.4 113c-7.1 0-14.7-1.4-14.7-4.5s7.6-4.5 14.7-4.5 14.7 1.4 14.7 4.5-7.6 4.5-14.7 4.5zm0-7.5c-8.5 0-13.1 1.9-13.1 2.9s4.6 2.9 13.1 2.9 13.1-1.9 13.1-2.9-4.6-2.9-13.1-2.9z"/><path class="st1" d="M323.2 92.4v9c0 4.1-4.8 7.3-10.7 7.3s-10.7-3.3-10.7-7.3v-9c0-.3 0-.5.1-.8.6-3.4 5.1-4.2 10.7-4.2 5.5 0 10.1.8 10.7 4.2-.2.2-.1.5-.1.8z"/><path class="st0" d="M312.4 109.5c-6.4 0-11.5-3.7-11.5-8.1v-9c0-.3 0-.6.1-.9.7-4.3 6.5-4.9 11.5-4.9s10.8.6 11.5 4.9c0 .2.1.5.1.9v9c-.1 4.4-5.3 8.1-11.7 8.1zm0-21.3c-6.3 0-9.5 1.1-9.9 3.5v9.6c0 3.6 4.5 6.5 9.9 6.5 5.5 0 9.9-2.9 9.9-6.5v-9-.6c-.4-2.4-3.5-3.5-9.9-3.5z"/><path class="st1" d="M312.4 105.7c-4.5 0-7.8-2.3-7.8-4.4v-2.8-.2l7.8 7.4z"/><path class="st0" d="M312.4 106.5c-4.6 0-8.6-2.4-8.6-5.2v-2.8-.3c.1-.4.5-.7.9-.7.4.1.7.5.7.9v2.9c0 1.4 2.8 3.6 7 3.6.4 0 .8.4.8.8s-.3.8-.8.8z"/><g><path class="st1" d="M323.1 91.6c-.2.9-.6 1.7-1.3 2.3-1.8 1.5-5.3 2-9.4 2-4 0-7.5-.4-9.4-2-.7-.6-1.2-1.3-1.3-2.3.6-3.4 5.1-4.2 10.7-4.2s10.1.8 10.7 4.2z"/><path class="st0" d="M312.4 96.6c-5.1 0-8.1-.7-9.9-2.1-.9-.7-1.4-1.6-1.6-2.7v-.3c.7-4.3 6.5-4.9 11.5-4.9s10.8.6 11.5 4.9v.3c-.2 1.1-.7 2-1.6 2.7-1.8 1.5-4.8 2.1-9.9 2.1zm-9.9-5c.1.7.5 1.2 1 1.6 1.9 1.6 6 1.8 8.9 1.8s7-.2 8.9-1.8c.5-.4.9-1 1-1.6-.5-2.3-3.6-3.4-9.9-3.4-6.2 0-9.4 1.1-9.9 3.4z"/></g><g><path class="st1" d="M321.8 93.9c-1.8 1.5-5.3 2-9.4 2-4 0-7.5-.4-9.4-2 1.8-1.5 5.3-2 9.4-2 4 0 7.6.4 9.4 2z"/><path class="st0" d="M312.4 96.6c-5.1 0-8.1-.7-9.9-2.1-.2-.2-.3-.4-.3-.6s.1-.5.3-.6c1.8-1.5 4.8-2.1 9.9-2.1 5.1 0 8.1.7 9.9 2.1.2.2.3.4.3.6s-.1.5-.3.6c-1.8 1.5-4.8 2.1-9.9 2.1zm-7.9-2.7c2.1 1 5.4 1.2 7.9 1.2s5.8-.1 7.9-1.2c-2.1-1-5.4-1.2-7.9-1.2s-5.8.2-7.9 1.2z"/></g><g><path class="st0" d="M312.3 84.4c-.4 0-.8-.4-.8-.8 0-1-.3-1.4-.6-2-.4-.7-.8-1.4-.8-2.8s.5-2.2.8-2.8c.3-.6.6-1 .6-2s-.3-1.4-.6-2c-.4-.7-.8-1.4-.8-2.8 0-.4.4-.8.8-.8s.8.4.8.8c0 1 .3 1.4.6 2 .4.7.8 1.4.8 2.8s-.5 2.2-.8 2.8c-.3.6-.6 1-.6 2s.3 1.4.6 2c.4.7.8 1.4.8 2.8 0 .5-.4.8-.8.8z"/><path class="st0" d="M312.3 84.4c-.4 0-.8-.4-.8-.8 0-1-.3-1.4-.6-2-.4-.7-.8-1.4-.8-2.8s.5-2.2.8-2.8c.3-.6.6-1 .6-2s-.3-1.4-.6-2c-.4-.7-.8-1.4-.8-2.8 0-.4.4-.8.8-.8s.8.4.8.8c0 1 .3 1.4.6 2 .4.7.8 1.4.8 2.8s-.5 2.2-.8 2.8c-.3.6-.6 1-.6 2s.3 1.4.6 2c.4.7.8 1.4.8 2.8 0 .5-.4.8-.8.8z"/><g><path class="st0" d="M307.6 84.4c-.4 0-.8-.4-.8-.8 0-1-.3-1.4-.6-2-.4-.7-.8-1.4-.8-2.8s.5-2.2.8-2.8c.3-.6.6-1 .6-2 0-.4.4-.8.8-.8s.8.4.8.8c0 1.4-.5 2.2-.8 2.8-.3.6-.6 1-.6 2s.3 1.4.6 2c.4.7.8 1.4.8 2.8 0 .5-.3.8-.8.8z"/><path class="st0" d="M307.6 84.4c-.4 0-.8-.4-.8-.8 0-1-.3-1.4-.6-2-.4-.7-.8-1.4-.8-2.8s.5-2.2.8-2.8c.3-.6.6-1 .6-2 0-.4.4-.8.8-.8s.8.4.8.8c0 1.4-.5 2.2-.8 2.8-.3.6-.6 1-.6 2s.3 1.4.6 2c.4.7.8 1.4.8 2.8 0 .5-.3.8-.8.8z"/></g></g></g><g><path class="st1" d="M437.7 167.7c0 5.6-4.5 10.1-10.1 10.1s-10.1-4.5-10.1-10.1 4.5-10.1 10.1-10.1c5.5 0 10.1 4.5 10.1 10.1z"/><path class="st0" d="M427.6 178.6c-6 0-10.9-4.9-10.9-10.9s4.9-10.9 10.9-10.9 10.9 4.9 10.9 10.9c-.1 6-4.9 10.9-10.9 10.9zm0-20.2c-5.1 0-9.3 4.2-9.3 9.3s4.2 9.3 9.3 9.3c5.1 0 9.3-4.2 9.3-9.3s-4.2-9.3-9.3-9.3z"/><path class="st1" d="M427.7 161.5l1.8 3.7 4.1.6-3 2.9.7 4-3.6-1.9-3.6 1.9.7-4-3-2.9 4.1-.6z"/><path class="st0" d="M424.1 173.5c-.2 0-.3-.1-.5-.2-.2-.2-.4-.5-.3-.8l.6-3.6-2.6-2.6c-.2-.2-.3-.5-.2-.8.1-.3.3-.5.6-.5l3.6-.5 1.6-3.3c.3-.5 1.1-.5 1.4 0l1.6 3.3 3.6.5c.3 0 .5.3.6.5.1.3 0 .6-.2.8l-2.6 2.6.6 3.6c.1.3-.1.6-.3.8-.2.2-.6.2-.8.1l-3.3-1.7-3.3 1.7c.1.1 0 .1-.1.1zm3.6-3.5c.1 0 .3 0 .4.1l2.2 1.2-.4-2.5c0-.3 0-.5.2-.7l1.8-1.7-2.5-.4c-.3 0-.5-.2-.6-.4l-1.1-2.2-1.1 2.2c-.1.2-.3.4-.6.4l-2.5.4 1.8 1.7c.2.2.3.4.2.7l-.4 2.5 2.2-1.2c.1-.1.3-.1.4-.1z"/><g><path class="st1" d="M427.6 149.2v8.4-8.4z"/><path class="st0" d="M427.6 158.4c-.4 0-.8-.4-.8-.8v-8.4c0-.4.4-.8.8-.8s.8.4.8.8v8.4c0 .4-.4.8-.8.8z"/></g><g><circle class="st1" cx="427.6" cy="149.1" r="2.4"/><path class="st0" d="M427.6 152.3c-1.7 0-3.2-1.4-3.2-3.2 0-1.7 1.4-3.2 3.2-3.2 1.7 0 3.2 1.4 3.2 3.2-.1 1.8-1.5 3.2-3.2 3.2zm0-4.9c-.9 0-1.7.8-1.7 1.7 0 .9.8 1.7 1.7 1.7.9 0 1.7-.8 1.7-1.7 0-.9-.8-1.7-1.7-1.7z"/></g></g><g><circle class="st1" cx="79.9" cy="51.2" r="5.2"/><path class="st0" d="M79.9 57.1c-3.2 0-5.9-2.6-5.9-5.9s2.6-5.9 5.9-5.9 5.9 2.6 5.9 5.9-2.7 5.9-5.9 5.9zm0-10.3c-2.4 0-4.4 2-4.4 4.4s2 4.4 4.4 4.4 4.4-2 4.4-4.4-2-4.4-4.4-4.4z"/></g><g><circle class="st1" cx="79.9" cy="51.2" r="1.7"/><path class="st0" d="M79.9 53.6c-1.3 0-2.4-1.1-2.4-2.4s1.1-2.4 2.4-2.4 2.4 1.1 2.4 2.4-1.1 2.4-2.4 2.4zm0-3.4c-.5 0-1 .4-1 1s.4 1 1 1 1-.4 1-1-.5-1-1-1z"/></g></g></svg>