<?xml version="1.0" encoding="UTF-8"?>
<svg width="272px" height="150px" viewBox="0 0 272 150" version="1.1" xmlns="http://www.w3.org/2000/svg" xmlns:xlink="http://www.w3.org/1999/xlink">
    <!-- Generator: Sketch 46.2 (44496) - http://www.bohemiancoding.com/sketch -->
    <title>Untitled 2</title>
    <desc>Created with Sketch.</desc>
    <defs>
        <linearGradient x1="28.2038261%" y1="0.0266985234%" x2="75.5885737%" y2="97.2917751%" id="linearGradient-1">
            <stop stop-color="#2A3793" offset="0%"></stop>
            <stop stop-color="#203E98" offset="10%"></stop>
            <stop stop-color="#124A9D" offset="19.714899%"></stop>
            <stop stop-color="#0A4FA4" offset="30.097657%"></stop>
            <stop stop-color="#005AAA" offset="40.000001%"></stop>
            <stop stop-color="#0063B1" offset="50%"></stop>
            <stop stop-color="#0270BB" offset="60.000002%"></stop>
            <stop stop-color="#0187D0" offset="69.756943%"></stop>
            <stop stop-color="#0194D9" offset="80.000001%"></stop>
            <stop stop-color="#14A7EA" offset="89.999998%"></stop>
            <stop stop-color="#0DA4D8" offset="100%"></stop>
        </linearGradient>
        <linearGradient x1="-3.79930984%" y1="21.0763774%" x2="96.7907781%" y2="95.4883973%" id="linearGradient-2">
            <stop stop-color="#C1D26A" offset="0%"></stop>
            <stop stop-color="#CBDE46" offset="10%"></stop>
            <stop stop-color="#BAD246" offset="19.714899%"></stop>
            <stop stop-color="#A0C441" offset="30.097657%"></stop>
            <stop stop-color="#89B546" offset="40.000001%"></stop>
            <stop stop-color="#66A645" offset="50%"></stop>
            <stop stop-color="#459F47" offset="60.000002%"></stop>
            <stop stop-color="#219540" offset="69.756943%"></stop>
            <stop stop-color="#139246" offset="80.000001%"></stop>
            <stop stop-color="#088147" offset="89.999998%"></stop>
            <stop stop-color="#176D3E" offset="100%"></stop>
        </linearGradient>
    </defs>
    <g id="Page-1" stroke="none" stroke-width="1" fill="none" fill-rule="evenodd">
        <rect id="Rectangle" fill="#FFFFFF" x="0" y="0" width="272" height="150"></rect>
        <g id="British_Gas" transform="translate(36.000000, 36.000000)" fill-rule="nonzero">
            <path d="M0.499999,49.8896345 L0.499999,77.5801851 L13.3637063,77.5801851 C18.7020464,77.5801851 21.7845267,75.7303943 21.7845267,69.2755823 C21.7845267,65.9155407 20.3937233,63.5902783 16.9025173,63.1149721 C19.6310999,62.2566064 21.061266,60.9092338 21.061266,57.0318128 C21.061266,51.6382721 18.4957816,49.8896345 12.898753,49.8896345 L0.499999,49.8896345 Z M5.6661465,54.2291984 L11.6588776,54.2291984 C15.0751642,54.2291984 15.9984415,55.188304 15.9984415,57.6646865 C15.9984415,60.4268396 15.327908,61.4618049 11.8009467,61.4618049 L5.6661465,61.4618049 L5.6661465,54.2291984 Z M5.6661465,65.5947229 L12.8858376,65.5947229 C15.8222965,65.5947229 16.6183792,66.7640907 16.6183792,69.4305668 C16.6183792,72.6541188 15.1974456,73.2406212 12.898753,73.2406212 L5.6661465,73.2406212 L5.6661465,65.5947229 Z" id="path3130" fill="#052D72"></path>
            <path d="M29.430425,77.5788832 L24.3737312,77.5788832 L24.3737312,63.9402538 C24.3737312,58.7626168 27.2035114,57.1209391 33.1500512,57.1209391 C35.2364751,57.1209391 37.4896151,57.327585 37.4896151,57.327585 C37.4896151,59.9808151 36.6148611,61.3500301 33.8171868,61.3585646 L32.2621599,61.3633175 C30.5985203,61.3633175 29.430425,61.7017828 29.430425,63.9459366 L29.430425,77.5788832 Z" id="path3136" fill="#052D72"></path>
            <g id="g3138" transform="translate(39.762720, 50.433429)" fill="#052D72">
                <polygon id="path3140" points="5.1661475 27.1454559 0.10332295 27.1454559 0.10332295 6.89415771 5.1661475 6.89415771"></polygon>
                <path d="M5.1661475,5.13766756 L0.10332295,5.13766756 L0.10332295,3.58782331 C0.10332295,1.50872172 1.43587532,0.0748430121 3.9262721,0.0748430121 L5.1661475,0.0748430121 L5.1661475,5.13766756 Z" id="path3142"></path>
            </g>
            <g id="g3144" transform="translate(66.006749, 50.433429)" fill="#052D72">
                <polygon id="path3146" points="5.1661475 27.1454559 0.10332295 27.1454559 0.10332295 6.89415771 5.1661475 6.89415771"></polygon>
                <path d="M5.1661475,5.13766756 L0.10332295,5.13766756 L0.10332295,3.58782331 C0.10332295,1.50872172 1.43587532,0.0748430121 3.9262721,0.0748430121 L5.1661475,0.0748430121 L5.1661475,5.13766756 Z" id="path3148"></path>
            </g>
            <path d="M62.7004149,73.4459652 L62.809869,77.408731 C62.809869,77.408731 60.9032734,77.7855291 58.7741428,77.7855291 C54.7640675,77.7855291 51.2315675,76.5706786 51.2315675,70.9662144 L51.2315675,61.3571801 L47.5119412,61.3571801 L47.5119412,57.327585 L51.2315675,57.327585 L51.2315675,54.0212506 C51.2315675,51.9448726 52.4841144,50.5082703 55.2611625,50.5082703 L56.294392,50.5082703 L56.294392,57.327585 L63.3203526,57.327585 L63.3203526,58.1541686 C63.3203526,60.4056584 62.0954342,61.3571801 60.0140182,61.3571801 L56.294392,61.3571801 L56.294392,70.9662144 C56.294392,72.1144424 56.7672102,73.6526111 59.3940805,73.6526111 C60.423983,73.6526111 62.7004149,73.4459652 62.7004149,73.4459652 Z" id="path3150" fill="#052D72"></path>
            <path d="M74.606928,77.408731 L74.8195543,73.2393193 C74.8195543,73.2393193 78.0064205,73.5371787 81.638869,73.5371787 C85.1568646,73.5371787 85.8447557,72.6667242 85.8447557,71.6773656 C85.8447557,67.381218 74.0659394,71.8774815 74.0659394,62.9982378 C74.0659394,58.5500195 77.0738482,57.1209391 82.9517131,57.1209391 C85.3859336,57.1209391 89.7710278,57.5342309 89.7710278,57.5342309 C89.7710278,60.9988354 87.8946727,61.3450706 86.6836017,61.3450706 C85.1796245,61.3450706 83.0327472,61.0472112 81.7118377,61.0472112 C79.8463108,61.0472112 78.9342296,61.7445585 78.9342296,62.9070243 C78.9342296,67.1280355 90.8042573,63.0127237 90.8042573,71.792798 C90.8042573,75.6122135 87.7911844,77.7855291 82.1251295,77.7855291 C77.5914094,77.7855291 74.606928,77.408731 74.606928,77.408731 Z" id="path3152" fill="#052D72"></path>
            <path d="M168.543639,77.408731 L168.756265,73.2393193 C168.756265,73.2393193 171.943131,73.5371787 175.57558,73.5371787 C179.093575,73.5371787 179.781467,72.6667242 179.781467,71.6773656 C179.781467,67.381218 168.00265,71.8774815 168.00265,62.9982378 C168.00265,58.5500195 171.010559,57.1209391 176.888424,57.1209391 C179.322645,57.1209391 183.707739,57.5342309 183.707739,57.5342309 C183.707739,60.9988354 181.831384,61.3450706 180.620313,61.3450706 C179.116335,61.3450706 176.969458,61.0472112 175.648549,61.0472112 C173.783022,61.0472112 172.87094,61.7445585 172.87094,62.9070243 C172.87094,67.1280355 184.740968,63.0127237 184.740968,71.792798 C184.740968,75.6122135 181.727895,77.7855291 176.06184,77.7855291 C171.52812,77.7855291 168.543639,77.408731 168.543639,77.408731 Z" id="path3154" fill="#052D72"></path>
            <path d="M98.2435097,77.5788832 L93.2840081,77.5788832 L93.2840081,52.5262915 C93.2840081,49.8653949 95.3375166,49.2683949 97.2102802,49.2683949 L98.2435097,49.2683949 L98.2435097,59.5582242 C99.7177401,58.691076 103.453865,57.1209391 106.715992,57.1209391 C111.709898,57.1209391 112.295431,60.8246536 112.295431,64.0556862 L112.295431,77.5788832 L107.335929,77.5788832 L107.335929,64.1468997 C107.335929,62.8562101 106.527326,61.6671489 104.856179,61.6671489 C102.991441,61.6671489 99.7727679,62.8969607 98.2435097,63.52099 L98.2435097,77.5788832 Z" id="path3156" fill="#052D72"></path>
            <path d="M133.786605,61.6671489 L144.325545,61.6671489 L144.325545,76.5583005 C144.325545,76.5583005 136.390397,77.7855291 132.766016,77.7855291 C124.046689,77.7855291 121.801142,72.9479486 121.801142,64.9734833 L121.801142,61.6671489 C121.801142,51.3919915 125.902609,49.6816867 133.684542,49.6816867 C137.768954,49.6816867 143.464942,50.6809023 143.464942,50.6809023 C143.464942,53.3090662 141.882067,54.6411883 139.920458,54.6411883 C138.293521,54.6411883 135.737205,54.0212506 133.373313,54.0212506 C129.321602,54.0212506 127.173936,55.0532609 127.173936,62.4937325 L127.173936,63.8142412 C127.173936,67.2323917 126.535836,73.2393193 132.960021,73.2393193 C135.697234,73.2308469 139.159398,72.8260275 139.159398,72.8260275 L139.159398,65.8000669 L136.886293,65.8000669 C134.965185,65.8000669 133.786605,64.7837204 133.786605,62.7028995 L133.786605,61.6671489 Z" id="path3158" fill="#052D72"></path>
            <path d="M158.377467,57.3288869 C153.484389,57.3288869 149.078401,57.8261183 149.078401,57.8261183 C149.078401,60.3109319 149.657144,61.6490674 152.042478,61.6490674 C153.225596,61.6490674 155.469849,61.4618049 157.964175,61.4618049 C159.808578,61.4618049 160.23728,62.4407692 160.23728,63.5282639 L160.23728,64.4581705 C153.847675,65.1086298 147.011942,64.7131508 147.011942,71.3097633 C147.011942,75.5847503 148.380448,77.786831 154.244549,77.786831 C159.793028,77.786831 165.196781,77.1668933 165.196781,77.1668933 L165.196781,63.9415557 C165.196781,59.8793519 164.317166,57.3288869 158.377467,57.3288869 Z M160.23728,68.0744737 L160.23728,73.8605589 C160.23728,73.8605589 157.004075,74.0672048 154.864486,74.0672048 C152.680568,74.0672048 151.764798,73.2710602 151.764798,71.587454 C151.764798,68.5927623 154.597458,68.6412621 160.23728,68.0744737 Z" id="path3160" fill="#052D72"></path>
            <path d="M153.827407,23.5519326 C155.598406,16.2912843 161.091601,12.7232328 177.206301,7.81892636 C185.526493,5.12174275 192.845672,2.7486419 199.500001,0.499962541 C199.500001,24.4762804 190.548439,36.2727856 173.763986,39.9738343 C179.427114,35.5183214 183.794912,26.7933389 183.794912,13.1053624 C160.430287,20.9899161 158.729397,20.7194373 153.827407,23.5519326 Z" id="path3166" fill="url(#linearGradient-1)"></path>
            <path d="M159.512759,45.1354769 C151.465649,45.1354769 146.89035,39.4514128 146.89035,33.6338761 C146.89035,29.8145639 149.311254,25.7424412 153.831257,23.5397199 C152.155865,33.8751352 160.961619,42.4831562 173.771326,39.9693294 C170.940665,42.0923474 164.729892,45.1354769 159.512759,45.1354769 L159.512759,45.1354769 Z" id="path3164" fill="url(#linearGradient-2)"></path>
        </g>
    </g>
</svg>