
<svg width="243px" height="134px" viewBox="0 0 243 134" version="1.1" xmlns="http://www.w3.org/2000/svg" xmlns:xlink="http://www.w3.org/1999/xlink">
    <g id="Page-1" stroke="none" stroke-width="1" fill="none" fill-rule="evenodd">
        <g id="Artboard" fill-rule="nonzero">
            <g id="HMPO" transform="translate(31.000000, 12.000000)">
                <rect id="Rectangle" fill="#7F3F98" x="0" y="0" width="2" height="110"></rect>
                <path d="M28,4 L28,5.70833332 C28.4772727,5.75 28.8181818,5.91666663 29,6 C28.9090909,5 28.5227273,4.25 28,4" id="Path" fill="#000000"></path>
                <path d="M26.0754717,2.04395605 L26.0754717,2.04395605 C26.0754717,2.50549451 25.9339623,2.8021978 25.7452831,3 C25.7452831,3 26.0754717,2.93406593 26.5,2.93406593 C26.7830189,2.93406593 27.2075472,3 27.254717,3 C27.0660377,2.8021978 26.9245283,2.50549451 26.9245283,2.04395605 L26.9245283,2.04395605 C28.3867925,2.04395605 28.7169811,2.50549451 28.7169811,2.9010989 L29,2.9010989 L29,1.74725275 L29,0.593406595 L28.7169811,0.593406595 C28.7169811,0.98901099 28.3396227,1.45054945 26.9245283,1.45054945 C26.9245283,0.42857143 27.5849057,0.197802198 28.1509434,0.197802198 L28.1509434,0 L26.5,0 L24.8490566,0 L24.8490566,0.197802198 C25.4150944,0.197802198 26.0754717,0.461538461 26.0754717,1.45054945 C24.6132076,1.45054945 24.2830189,0.98901099 24.2830189,0.593406595 L24,0.593406595 L24,1.74725275 L24,2.9010989 L24.2830189,2.9010989 C24.2830189,2.50549451 24.6132076,2.04395605 26.0754717,2.04395605" id="Path" fill="#000000"></path>
                <path d="M25,4 C24.5,4.25 24.1136364,5.04166666 24,6 C24.1818182,5.91666663 24.5227273,5.75 25,5.70833332 L25,4 Z" id="Path" fill="#000000"></path>
                <path d="M27,41 C27,41.5384615 27.4615385,42 28,42 C28.5384615,42 29,41.5384615 29,41 C29,40.4615385 28.5384615,40 28,40 C27.4230769,40.0384616 27,40.4615385 27,41 M27.5,41 C27.5,40.7307692 27.7307692,40.5 28,40.5 C28.2692308,40.5 28.5,40.7307692 28.5,41 C28.5,41.2692308 28.2692308,41.5 28,41.5 C27.6923077,41.5 27.5,41.3076923 27.5,41" id="Shape" fill="#000000"></path>
                <path d="M26,27.8483606 C26,27.3688525 25.5953757,27 25.0693642,27 L24.9075144,27 L19.8092485,27 C19.3641619,27 19,27.3319672 19,27.7377049 C19,28.0327869 19.2427746,28.2540984 19.566474,28.2540984 C19.8901734,28.2540984 20.132948,28.0327869 20.132948,27.7008197 C20.2543352,27.8114754 20.3757225,27.8852459 20.5375723,27.9590164 C20.4566474,28.2540984 20.3757225,28.6598361 20.3352601,29.1393442 C20.2543352,29.0286885 20.132948,28.9918033 20.0115607,28.9918033 C19.8092485,28.9918033 19.6069364,29.1393442 19.6069364,29.3606557 C19.6069364,29.545082 19.7687861,29.7295082 20.0115607,29.7295082 C20.132948,29.7295082 20.2543352,29.6557377 20.3352601,29.5819672 C20.3352601,29.8401639 20.3352601,30.0983607 20.3757225,30.3934426 C20.2947977,30.3565574 20.2138728,30.3196721 20.132948,30.3196721 C19.9306358,30.3196721 19.7283237,30.4672131 19.7283237,30.6885246 C19.7283237,30.8729508 19.8901734,31.0573771 20.132948,31.0573771 C20.2543352,31.0573771 20.416185,30.9836065 20.4566474,30.8729508 C20.4566474,30.9098361 20.4566474,30.9467213 20.4971098,30.9836065 C20.5780346,31.204918 20.6589595,31.4262295 20.7398844,31.6106558 C20.6994219,31.5737705 20.6184971,31.5737705 20.5375723,31.5737705 C20.3352601,31.5737705 20.132948,31.7213115 20.132948,31.942623 C20.132948,32.1270492 20.2947977,32.3114754 20.5375723,32.3114754 C20.7398844,32.3114754 20.9017341,32.1639344 20.9421965,32.0163935 C21.0635838,32.2377049 21.2254335,32.4590164 21.4277456,32.6803279 C21.3872832,32.6803279 21.3872832,32.6803279 21.3468208,32.6803279 C21.1445087,32.6803279 20.9421965,32.8278688 20.9421965,33.0491803 C20.9421965,33.2704918 21.1040462,33.4180328 21.3468208,33.4180328 C21.5491329,33.4180328 21.7514451,33.2704918 21.7514451,33.0491803 C21.7514451,33.0491803 21.7514451,33.0491803 21.7514451,33.0122951 C22.3583815,33.5655738 23.1271676,34.045082 24.0578034,34.3770492 L23.8959538,35.4836066 C23.8959538,35.4836066 24.2601156,35.6311476 24.8265896,35.7786885 C25.3930636,35.9262295 25.9190752,36 25.9190752,36 L26,27.8483606 Z M21.2254335,28.2909836 C21.2254335,28.2909836 21.265896,28.2909836 21.3063584,28.3278689 L24.1791907,33.6393443 C20.6184971,32.1639344 20.9826589,29.5081967 21.2254335,28.2909836 L21.2254335,28.2909836 Z M24.2601156,33.2336066 L21.6300578,28.4016393 C21.7919075,28.4385246 21.9537572,28.4385246 22.1156069,28.4385246 L24.3815029,32.6065574 L24.2601156,33.2336066 Z M24.4219653,32.1639344 L22.3988439,28.4016393 C22.5606936,28.4016393 22.6820809,28.3647541 22.8034682,28.3278689 L24.5028901,31.5 L24.4219653,32.1639344 Z M24.583815,31.0942623 L23.0462428,28.2909836 C23.1676301,28.2540984 23.2890173,28.2172131 23.4104046,28.1434426 L24.6647399,30.4303279 L24.583815,31.0942623 Z M24.7456647,30.0245902 L23.6531792,28.0327869 C23.7745665,27.9590164 23.8959538,27.8852459 23.9768786,27.8114754 L24.8265896,29.3606557 L24.7456647,30.0245902 Z M25.0289017,28.1803279 L24.9075144,28.9918033 L24.2196532,27.7008197 C24.300578,27.6639344 24.3815029,27.6639344 24.4624277,27.6639344 C24.7861272,27.6270492 25.0693642,27.8852459 25.0289017,28.1803279 L25.0289017,28.1803279 Z" id="Shape" fill="#000000"></path>
                <path d="M22,6.49841721 C22,6.23259471 22.2333333,6 22.5,6 C22.7666667,6 23,6.23259471 23,6.49841721 C23,6.79746754 22.7666667,6.99683442 22.5,6.99683442 C22.2333333,7.03006225 22,6.79746754 22,6.49841721" id="Path" fill="#000000"></path>
                <path d="M15,9.5 C15,9.23333335 15.2333333,9 15.5,9 C15.8,9 16,9.23333335 16,9.5 C16,9.8 15.7666667,10 15.5,10 C15.2333333,10 15,9.76666665 15,9.5" id="Path" fill="#000000"></path>
                <path d="M15,8.49841721 C15,8.19936688 15.2333333,8 15.5,8 C15.7666667,8 16,8.23259471 16,8.49841721 C16,8.76423975 15.7666667,8.99683442 15.5,8.99683442 C15.2333333,9.03006225 15,8.79746754 15,8.49841721" id="Path" fill="#000000"></path>
                <path d="M15,7.5 C15,7.23333332 15.2333333,7 15.5,7 C15.8,7 16,7.23333332 16,7.5 C16,7.76666668 15.7666667,8 15.5,8 C15.2333333,8 15,7.76666668 15,7.5" id="Path" fill="#000000"></path>
                <path d="M16,6.49841721 C16,6.23259471 16.2333333,6 16.5,6 C16.8,6 17,6.23259471 17,6.49841721 C17,6.76423971 16.7666667,6.99683442 16.5,6.99683442 C16.2333333,7.03006225 16,6.79746754 16,6.49841721" id="Path" fill="#000000"></path>
                <path d="M17,5.49841721 C17,5.23259471 17.2333333,5 17.5,5 C17.7666667,5 18,5.23259471 18,5.49841721 C18,5.79746754 17.7666667,5.99683443 17.5,5.99683443 C17.2333333,6.03006221 17,5.79746754 17,5.49841721" id="Path" fill="#000000"></path>
                <path d="M19,5.49841721 C19,5.23259471 19.2333333,5 19.5,5 C19.8,5 20,5.23259471 20,5.49841721 C20,5.76423975 19.7666667,5.99683442 19.5,5.99683442 C19.2333333,6.03006225 19,5.79746754 19,5.49841721" id="Path" fill="#000000"></path>
                <path d="M20,5.49841723 C20,5.23259468 20.2333333,5 20.5,5 C20.8,5 21,5.23259468 21,5.49841723 C21,5.76423974 20.7666667,5.99683442 20.5,5.99683442 C20.2333333,6.03006225 20,5.79746757 20,5.49841723" id="Path" fill="#000000"></path>
                <path d="M21,6.5 C21,6.23333332 21.2333333,6 21.5,6 C21.8,6 22,6.23333332 22,6.5 C22,6.79999999 21.7666667,7 21.5,7 C21.2333333,7 21,6.76666668 21,6.5" id="Path" fill="#000000"></path>
                <path d="M31,6.49841721 C31,6.23259471 30.7666667,6 30.5,6 C30.2333333,6 30,6.23259471 30,6.49841721 C30,6.79746754 30.2333333,6.99683442 30.5,6.99683442 C30.7666667,7.03006225 31,6.79746754 31,6.49841721" id="Path" fill="#000000"></path>
                <path d="M37,9.5 C37,9.23333335 36.7666667,9 36.5,9 C36.2,9 36,9.23333335 36,9.5 C36,9.8 36.2333333,10 36.5,10 C36.7666667,10 37,9.76666665 37,9.5" id="Path" fill="#000000"></path>
                <path d="M38,8.49841721 C38,8.19936688 37.7666667,8 37.5,8 C37.2333333,8 37,8.23259471 37,8.49841721 C37,8.76423975 37.2333333,8.99683442 37.5,8.99683442 C37.7666667,9.03006225 38,8.79746754 38,8.49841721" id="Path" fill="#000000"></path>
                <path d="M38,7.5 C38,7.23333332 37.7666667,7 37.5,7 C37.2,7 37,7.23333332 37,7.5 C37,7.76666668 37.2333333,8 37.5,8 C37.8,8 38,7.76666668 38,7.5" id="Path" fill="#000000"></path>
                <path d="M37,6.49841721 C37,6.23259471 36.7666667,6 36.5,6 C36.2333333,6 36,6.23259471 36,6.49841721 C36,6.76423971 36.2333333,6.99683442 36.5,6.99683442 C36.7666667,7.03006225 37,6.79746754 37,6.49841721" id="Path" fill="#000000"></path>
                <path d="M36,5.49841721 C36,5.23259471 35.7666667,5 35.5,5 C35.2,5 35,5.23259471 35,5.49841721 C35,5.79746754 35.2333333,5.99683443 35.5,5.99683443 C35.7666667,6.03006221 36,5.79746754 36,5.49841721" id="Path" fill="#000000"></path>
                <path d="M35,5.49841721 C35,5.23259471 34.7666667,5 34.5,5 C34.2,5 34,5.23259471 34,5.49841721 C34,5.76423975 34.2333333,5.99683442 34.5,5.99683442 C34.7666667,6.03006225 35,5.79746754 35,5.49841721" id="Path" fill="#000000"></path>
                <path d="M34,5.49841723 C34,5.23259468 33.7666667,5 33.5,5 C33.2,5 33,5.23259468 33,5.49841723 C33,5.76423974 33.2333333,5.99683442 33.5,5.99683442 C33.8,6.03006225 34,5.79746757 34,5.49841723" id="Path" fill="#000000"></path>
                <path d="M32,6.5 C32,6.23333332 31.7666667,6 31.5,6 C31.2333333,6 31,6.23333332 31,6.5 C31,6.79999999 31.2333333,7 31.5,7 C31.8,7 32,6.76666668 32,6.5" id="Path" fill="#000000"></path>
                <path d="M31,14.5 C31,14.2352941 30.7647059,14 30.5,14 C30.2352941,14 30,14.2352941 30,14.5 C30,14.7647059 30.2352941,15 30.5,15 C30.7647059,15 31,14.7647059 31,14.5" id="Path" fill="#000000"></path>
                <path d="M27,19 L27,26 L34,26 L34,19 L27,19 Z M33.7965116,25.8195876 L27.2034884,25.8195876 L27.2034884,19.2164948 L29.7674419,19.2164948 L30.744186,19.2164948 L33.755814,19.2164948 L33.7965116,25.8195876 L33.7965116,25.8195876 Z" id="Shape" fill="#000000"></path>
                <path d="M28.4054054,18 L28.4054054,18 L28,18 L28,23.6470588 L28,24 L28.4054054,24 L33.5945946,24 L34,24 L34,23.6470588 L34,18.3529412 L34,18 L33.5945946,18 L31.3648649,18 L30.1891892,18 L28.4054054,18 Z M33.5945946,18.1764706 L33.5945946,18.3529412 L33.7972973,18.3529412 L33.7972973,23.6470588 L33.5945946,23.6470588 L33.5945946,23.8235294 L28.4054054,23.8235294 L28.4054054,23.6470588 L28.2027027,23.6470588 L28.2027027,18.3529412 L28.4054054,18.3529412 L28.4054054,18.1764706 L33.5945946,18.1764706 Z" id="Shape" fill="#000000"></path>
                <path d="M33.9545455,21.1231884 L33.5909091,21.4130435 L33.5909091,21.4130435 C33.5909091,21.4130435 33.5454546,21.4130435 33.5454546,21.4492753 L33.5454546,21.4492753 L32.8636364,21.9565218 C32.6363637,22.1014493 32.5909091,22.3550725 32.7727273,22.5362319 L33.1818182,22.9710145 C33.2272727,23.0072464 33.2272727,23.0434783 33.2272727,23.115942 C33.2272727,23.1521739 33.1818182,23.2246377 33.1363637,23.2246377 C33.0909091,23.2608695 33.0454545,23.2608695 32.9545455,23.2608695 C32.9090909,23.2608695 32.8181818,23.2246377 32.8181818,23.1884058 C32.8181818,23.1884058 32.4090909,22.7536232 32.2272728,22.5362319 L32.2272728,21.9202899 L33.1818182,21.1956522 L33.1818182,20.5797102 L32.8636364,20.326087 L33.2727273,20 L31.5909091,20 L31.1818182,20.326087 L31.1818182,20.6884058 C31.2272727,20.6521739 31.3181818,20.6521739 31.3636364,20.6521739 C31.5454546,20.6521739 31.7272727,20.7971015 31.7272727,20.942029 C31.7272727,21.0869565 31.5454546,21.2318841 31.3636364,21.2318841 C31.3181818,21.2318841 31.2272727,21.2318841 31.1818182,21.1956522 L31.1818182,21.6304348 L30.5909091,21.6304348 L29.9090909,20.8695652 C30,20.7971015 30.0454545,20.6884058 30.0454545,20.5797102 C30.0454545,20.3623189 29.8181818,20.2173913 29.5909091,20.2173913 C29.5,20.2173913 29.4090909,20.2536232 29.3181818,20.2898551 L29.3181818,20.5072464 L29.3181818,20.8695652 L29.3181818,20.9057971 C29.3181818,20.9057971 29.3181818,20.9057971 29.3636364,20.9057971 L30,21.6304348 L30.3181818,21.9927536 L30.9090909,21.9927536 L31.0909091,21.9927536 L30.6818182,22.3188406 L29.8636363,22.3188406 C29.8181818,22.1739131 29.6363636,22.1014493 29.4545454,22.1014493 C29.2727273,22.1014493 29.0909091,22.2101449 29.0454545,22.3188406 C29.0454545,22.3550725 29,22.3913044 29,22.4637681 C29,22.5362319 29.0454545,22.6449275 29.0909091,22.6811594 L29.8181818,22.6811594 L30.9545454,22.6811594 L31.2727273,23.0434783 L30.5454545,23.0434783 L30,23.0434783 L30,23.0434783 L30.5,23.5869565 L30.7727272,23.8768116 L30.1363636,23.8768116 C30.0909091,23.7318841 29.9090909,23.6231884 29.6818182,23.6231884 C29.5,23.6231884 29.3181818,23.7318841 29.2272727,23.8768116 C29.2272727,23.9130435 29.2272727,23.9492754 29.2272727,23.9855073 C29.2272727,24.0942029 29.2727273,24.1666667 29.3636364,24.2391304 L30.0454545,24.2391304 L31.1363636,24.2391304 L31.6818182,24.2391304 L31.3636364,23.8768116 L31.0909091,23.5869565 L31.8181818,23.5869565 L32.0909091,23.8768116 L32.4090909,24.2391304 L33.3636364,24.2391304 L33.5,24.2391304 L33.5,24.6376812 L33.3636364,24.6376812 C33.3181818,24.4927536 33.1363637,24.384058 32.9090909,24.384058 C32.6818182,24.384058 32.5454545,24.4927536 32.4545455,24.6376812 C32.4545455,24.673913 32.4545455,24.7101449 32.4545455,24.7463768 C32.4545455,24.8550725 32.5,24.9275362 32.5909091,25 L33.9545455,25 L33.9545455,24.2028986 L33.9545455,23.8405797 L33.5,23.8405797 L33.0454545,23.8405797 L32.5909091,23.3695652 C32.6818182,23.442029 32.7727273,23.5144928 32.9090909,23.5144928 C33.0454545,23.5144928 33.1818182,23.5144928 33.3181818,23.442029 C33.4545454,23.3695652 33.5,23.2608695 33.5454546,23.1521739 C33.5454546,23.0434783 33.5454546,22.9347826 33.4545454,22.826087 L33.0454545,22.3913044 C32.9545455,22.3188406 33,22.1739131 33.0909091,22.1376812 C33.0909091,22.1376812 33.1818182,22.0652174 33.2727273,21.9927536 C33.4545454,22.1014493 33.6818182,22.1014493 33.8636364,21.9927536 C33.9545455,21.9202899 34,21.8478261 34,21.7391305 L34,21.7391305 L34,21.7391305 L33.9545455,21.1231884 Z" id="Path" fill="#000000"></path>
                <polygon id="Path" fill="#000000" points="26 14.5 26.5 14 27 14.5 26.5 15"></polygon>
                <path d="M22,14.5 C22,14.2352941 22.2352941,14 22.5,14 C22.7647059,14 23,14.2352941 23,14.5 C23,14.7647059 22.7647059,15 22.5,15 C22.2352941,15 22,14.7647059 22,14.5" id="Path" fill="#000000"></path>
                <path d="M33.6331429,29.875 L33.6331429,29.875 L33.6331429,29.875 C33.6331429,29.8125 33.6331429,29.78125 33.6331429,29.71875 C33.6331429,29.5 33.430913,29.34375 33.147791,29.34375 L31.4086133,29.34375 C31.4086133,29.1875 31.2063833,29.03125 31.0041533,29.03125 C30.8828154,29.03125 30.8019234,29.0625 30.7210314,29.125 L30.1952335,29.53125 L30.7210314,29.53125 L30.7210314,29.53125 L31.3277213,29.53125 L33.147791,29.53125 C33.269129,29.53125 33.3500209,29.59375 33.3500209,29.6875 C33.3500209,29.78125 33.269129,29.84375 33.147791,29.84375 L33.147791,29.84375 L31.9748572,29.84375 L31.9748572,29.84375 L29.7098816,29.84375 L29.7098816,29.46875 L30.3165715,29 L27.9302578,29 L28.5369477,29.46875 L28.5369477,30.15625 L27.5662439,29.5625 C27.6471359,29.5 27.6875819,29.40625 27.6875819,29.3125 C27.6875819,29.125 27.4853519,29 27.2831219,29 C27.20223,29 27.080892,29.03125 27,29.0625 L27,29.53125 L27,29.53125 L27,29.625 L28.4965017,30.5625 L27.8089199,30.71875 C27.7684738,30.59375 27.6066899,30.5 27.4044599,30.5 C27.1617839,30.5 27,30.65625 27,30.8125 C27,30.875 27.040446,30.96875 27.080892,31 L27.5662439,31 L27.9302578,31 L31.6512893,30.09375 L31.6512893,30.53125 L31.1659373,30.6875 C31.1254913,30.53125 30.9637073,30.4375 30.7614774,30.4375 C30.5188014,30.4375 30.3570174,30.59375 30.3570174,30.75 C30.3570174,30.8125 30.3974634,30.90625 30.4379094,30.9375 L30.8828154,30.9375 L31.3681673,30.9375 L31.9344112,30.71875 L32.2984251,30.59375 L32.1366411,30.3125 L32.1366411,30.25 L33.5118049,30.25 C33.5118049,30.28125 33.4713589,30.34375 33.4713589,30.375 C33.430913,30.4375 33.390467,30.53125 33.3500209,30.59375 C33.269129,30.53125 33.147791,30.5 33.026453,30.5 C32.783777,30.5 32.6219931,30.65625 32.6219931,30.8125 C32.6219931,30.875 32.6624391,30.96875 32.7028851,31 L33.3500209,31 L33.5522509,31 C33.6735889,30.8125 33.7544809,30.59375 33.7949269,30.46875 C33.9162649,30.1875 33.9971569,29.9375 33.9971569,29.84375 C34.0376028,29.875 33.6331429,29.875 33.6331429,29.875 L33.6331429,29.875 Z M29.1436377,29.90625 L28.7391777,29.59375 L29.5480976,29.59375 L29.1436377,29.90625 Z" id="Shape" fill="#000000"></path>
                <path d="M33.5280899,27.8615385 C33.5674157,27.8 33.5674157,27.7692308 33.5674157,27.7076923 C33.5674157,27.4923077 33.3707865,27.3384616 33.0955056,27.3384616 L31.3258427,27.3384616 C31.3258427,27.1846154 31.1292135,27.0307692 30.9325843,27.0307692 C30.8146068,27.0307692 30.7359551,27.0615385 30.6573034,27.1230769 L30.1460674,27.523077 L30.6573034,27.523077 L30.6573034,27.523077 L31.247191,27.523077 L33.1348315,27.523077 C33.252809,27.523077 33.3314607,27.5846154 33.3314607,27.6769231 C33.3314607,27.7692308 33.252809,27.8307692 33.1348315,27.8307692 L31.9157303,27.8307692 L29.6741573,27.8307692 L29.6741573,27.4615385 L30.264045,27 L27.9438202,27 L28.5337079,27.4615385 L28.5337079,28.1384616 L27.5898876,27.5538462 C27.6685393,27.4923077 27.7078652,27.4 27.7078652,27.3384616 C27.7078652,27.1538462 27.511236,27.0307692 27.3146067,27.0307692 C27.2359551,27.0307692 27.1179775,27.0615385 27.0393259,27.0923077 L27.0393259,27.5538462 L27.0393259,27.6461539 L28.4550562,28.5384615 L27.7865168,28.6923077 C27.747191,28.5692308 27.5898876,28.4769231 27.3932584,28.4769231 C27.1573034,28.4769231 27,28.6307692 27,28.7846154 C27,28.8461539 27.0393259,28.9384616 27.0786517,29 L27.7078652,29 L27.9044944,29 L31.5224719,28.1076923 L31.5224719,28.5692308 L31.0505618,28.6923077 C31.011236,28.5692308 30.8539326,28.4769231 30.6573034,28.4769231 C30.4213483,28.4769231 30.264045,28.6307692 30.264045,28.7846154 C30.264045,28.8461539 30.3033708,28.9384616 30.3426966,29 L30.9719101,29 L31.247191,29 L32.1516854,28.7846154 L32.5842697,28.6615385 L32.2303371,28.4153846 L31.994382,28.2307693 L33.6067416,28.2307693 L33.6067416,28.5692308 C33.5280899,28.5076923 33.4101124,28.4461538 33.2921349,28.4461538 C33.0561798,28.4461538 32.8988764,28.6 32.8988764,28.7538462 C32.8988764,28.8153846 32.9382023,28.9076923 32.9775281,28.9692308 L33.6067416,28.9692308 L34,28.9692308 L34,28.2 L34,28.0461539 L34,27.8307692 L33.5280899,27.8615385 L33.5280899,27.8615385 Z M29.1235955,27.8923077 L28.7303371,27.5846154 L29.5168539,27.5846154 L29.1235955,27.8923077 Z" id="Shape" fill="#000000"></path>
                <path d="M32.5593198,33.3092784 L31.8982994,33.3092784 C31.8982994,33.1546392 31.7146826,33 31.5310659,33 C31.4208958,33 31.3474491,33.0309278 31.2740024,33.0927835 L30.7965988,33.4948454 L31.2740024,33.4948454 L31.2740024,33.4948454 L31.8615761,33.4948454 L32.5960431,33.4948454 C32.7062132,33.4948454 32.7796599,33.556701 32.7796599,33.6494845 C32.7796599,33.742268 32.7062132,33.8041237 32.5960431,33.8041237 L31.5310659,33.8041237 L30.4293653,33.8041237 L30.4293653,33.4948454 L30.9802156,33.0309278 L28.8135377,33.0309278 L29.364388,33.4948454 L29.364388,34.2680412 L28.4830275,33.5876289 C28.5564743,33.5257732 28.629921,33.4329897 28.629921,33.3402062 C28.629921,33.1546392 28.4463042,33.0309278 28.2626874,33.0309278 C28.1892407,33.0309278 28.0790706,33.0618557 28.005624,33.0927835 L28.005624,33.4329897 L28.005624,33.6185567 L29.4011114,34.7010309 L29.4745581,34.6391753 L28.5931976,35.5360825 C28.5197509,35.4742268 28.4095808,35.4742268 28.3361341,35.4742268 C28.115794,35.5051547 27.9689006,35.6597938 28.005624,35.814433 C28.005624,35.8762887 28.0423473,35.9381443 28.0790706,36 C28.2259641,36 28.4095808,35.9690722 28.7033676,35.9381443 L29.6948982,34.9484536 C29.8417916,34.9175258 29.9519617,34.8556701 30.0988551,34.8247423 L30.502812,35.1340206 C30.4293653,35.1649484 30.3559186,35.1958763 30.2824719,35.2268041 C30.1723018,35.1649484 30.0254084,35.1340206 29.9152383,35.1649484 C29.7316216,35.2268041 29.6214515,35.4123712 29.6948982,35.5670103 C29.7316216,35.628866 29.7683449,35.6597938 29.8050683,35.6907217 C29.8050683,35.6907217 29.9519617,35.6597938 30.0988551,35.5979382 C30.2457485,35.5360825 30.3926419,35.5051547 30.3926419,35.5051547 L30.3926419,35.5051547 C30.5762587,35.443299 30.7231521,35.3814433 30.8700455,35.3195876 L30.8700455,34.9484536 L30.8700455,34.4845361 C31.127109,34.3608247 31.3474491,34.2371134 31.5310659,34.0824742 L31.8982994,34.3608247 C31.8248527,34.4226804 31.751406,34.4536082 31.6412359,34.5154639 C31.5310659,34.4536082 31.3841724,34.4536082 31.2740024,34.5154639 C31.2005557,34.5463918 31.127109,34.6391753 31.0903856,34.7010309 C31.0903856,34.7319588 31.0903856,34.7938144 31.0903856,34.8247423 C31.0903856,34.8556701 31.127109,34.9175258 31.127109,34.9484536 C31.1638323,35.0103093 31.2372791,35.0412371 31.3107258,35.0721649 C31.4943425,34.9793814 31.6412359,34.8865979 31.8248527,34.7938144 C31.9350228,34.7319588 32.0819162,34.6391753 32.1920862,34.5463918 C32.2288096,34.5154639 32.2655329,34.4845361 32.3022563,34.4536082 L32.3022563,34.1443299 L32.3022563,34.0515464 L32.5593198,34.0515464 C32.8163832,34.0515464 33,33.8969072 33,33.6804124 C33,33.4948454 32.8163832,33.3092784 32.5593198,33.3092784 L32.5593198,33.3092784 Z M29.8417916,33.8969072 L29.4745581,33.5876289 L30.2090251,33.5876289 L29.8417916,33.8969072 Z" id="Shape" fill="#000000"></path>
                <path d="M25.5625,23.8615385 C25.6022727,23.8 25.6022727,23.7692308 25.6022727,23.7076923 C25.6022727,23.4923077 25.4034091,23.3384616 25.125,23.3384616 L23.3352273,23.3384616 C23.3352273,23.1846154 23.1363636,23.0307692 22.9375,23.0307692 C22.8181818,23.0307692 22.7386363,23.0615385 22.6590909,23.1230769 L22.1420455,23.523077 L22.6193182,23.523077 L22.6193182,23.523077 C22.6193182,23.523077 23.2159091,23.523077 23.2556818,23.523077 L25.1647727,23.523077 C25.2840909,23.523077 25.3636363,23.5846154 25.3636363,23.6769231 C25.3636363,23.7692308 25.2840909,23.8307692 25.1647727,23.8307692 L23.9318182,23.8307692 L23.9318182,23.8307692 L21.7045454,23.8307692 L21.7045454,23.4615385 L22.3011364,23 L19.9545455,23 L20.5511364,23.4615385 L20.5511364,24.1384616 L19.5965909,23.5538462 C19.6761364,23.4923077 19.7159091,23.4 19.7159091,23.3384616 C19.7159091,23.1538462 19.5170455,23.0307692 19.3181819,23.0307692 C19.1988637,23.0307692 19.1193182,23.0615385 19.0397727,23.0923077 L19.0397727,23.5538462 L19.0397727,23.6461539 L20.4715909,24.5384615 L19.7954546,24.6923077 C19.7556818,24.5692308 19.5965909,24.4769231 19.3977273,24.4769231 C19.1590909,24.4769231 19,24.6307692 19,24.7846154 C19,24.8769231 19.0397727,24.9384616 19.0795455,25 C19.0795455,25 19.6363637,25 19.7159091,25 L19.9147728,25 L23.5738636,24.1076923 L23.5738636,24.5692308 L23.0965909,24.6923077 C23.0568182,24.5692308 22.8977273,24.4769231 22.6988636,24.4769231 C22.4602273,24.4769231 22.3011364,24.6307692 22.3011364,24.7846154 C22.3011364,24.8769231 22.3409091,24.9384616 22.3806818,25 C22.3806818,25 22.9375,25 23.0170454,25 L23.2159091,25 L24.1306818,24.7846154 L24.5681818,24.6923077 L24.2102273,24.4461538 L23.9715909,24.2615385 L25.6022727,24.2615385 L25.6022727,24.6 C25.5227273,24.5384615 25.4034091,24.4769231 25.2840909,24.4769231 C25.0454545,24.4769231 24.8863636,24.6307692 24.8863636,24.7846154 C24.8863636,24.8769231 24.9261364,24.9384616 24.9659091,25 L25.6022727,25 L26,25 L26,24.2615385 L26,23.8615385 L25.5625,23.8615385 Z M21.0681818,23.8923077 L20.6704545,23.5846154 L21.4659091,23.5846154 L21.0681818,23.8923077 Z" id="Shape" fill="#000000"></path>
                <path d="M25.5649717,21.8615385 C25.6045198,21.8 25.6045198,21.7692308 25.6045198,21.7076923 C25.6045198,21.4923077 25.4067797,21.3384615 25.1299435,21.3384615 L23.3502825,21.3384615 C23.3502825,21.1846154 23.1525424,21.0307692 22.9548023,21.0307692 C22.8361582,21.0307692 22.7570621,21.0615385 22.6779661,21.1230769 L22.1638418,21.5230769 L22.638418,21.5230769 L22.638418,21.5230769 L23.2316384,21.5230769 L25.1299435,21.5230769 C25.2485875,21.5230769 25.3276836,21.5846154 25.3276836,21.6769231 C25.3276836,21.7692308 25.2485875,21.8307692 25.1299435,21.8307692 L23.9039548,21.8307692 L21.6892655,21.8307692 L21.6892655,21.4615384 L22.2824859,21 L19.9491525,21 L20.5423728,21.4615384 L20.5423728,22.1384615 L19.5932203,21.5538461 C19.6723164,21.4923077 19.7118644,21.4 19.7118644,21.3384615 C19.7118644,21.1538461 19.5141243,21.0307692 19.3163842,21.0307692 C19.1977401,21.0307692 19.1186441,21.0615385 19.039548,21.0923077 L19.039548,21.5538461 L19.039548,21.6461538 L20.4632768,22.5384616 L19.7909604,22.6923077 C19.7514124,22.5692308 19.5932203,22.4769231 19.3954802,22.4769231 C19.1581921,22.4769231 19,22.6307693 19,22.7846154 C19,22.8461539 19.039548,22.9384615 19.079096,23 L19.7118644,23 L19.9096045,23 L23.5480226,22.1076923 L23.5480226,22.5692308 L23.0734463,22.6923077 C23.0338983,22.5692308 22.8757062,22.4769231 22.6779661,22.4769231 C22.4406779,22.4769231 22.2824859,22.6307693 22.2824859,22.7846154 C22.2824859,22.8461539 22.3220339,22.9384615 22.3615819,23 L23.0338983,23 L23.2316384,23 L24.1412429,22.7846154 L24.5762712,22.6615385 L24.220339,22.4153846 L23.9830508,22.2307692 L25.6045198,22.2307692 L25.6045198,22.5692308 C25.5254237,22.5076923 25.4067797,22.4461539 25.2881356,22.4461539 C25.0508475,22.4461539 24.8926553,22.6 24.8926553,22.7538462 C24.8926553,22.8153846 24.9322034,22.9076923 24.9717514,22.9692308 L25.6045198,22.9692308 L26,22.9692308 L26,22.2 L26,21.8 L25.5649717,21.8 L25.5649717,21.8615385 L25.5649717,21.8615385 Z M21.0960452,21.8923077 L20.700565,21.5846154 L21.4915254,21.5846154 L21.0960452,21.8923077 Z" id="Shape" fill="#000000"></path>
                <path d="M25.6022727,19.8615384 C25.6420455,19.8 25.6420455,19.7692308 25.6420455,19.7076923 C25.6420455,19.4923077 25.4431818,19.3384615 25.1647727,19.3384615 L23.375,19.3384615 C23.375,19.1846154 23.1761364,19.0307692 22.9772727,19.0307692 C22.8579545,19.0307692 22.7784091,19.0615384 22.6988636,19.1230769 L22.1818182,19.5230769 L22.6590909,19.5230769 L22.6590909,19.5230769 C22.6590909,19.5230769 23.1761364,19.5230769 23.2556818,19.5230769 L25.1647727,19.5230769 C25.2840909,19.5230769 25.3636363,19.5846154 25.3636363,19.6769231 C25.3636363,19.7692308 25.2840909,19.8307692 25.1647727,19.8307692 L25.1647727,19.8307692 L23.9318182,19.8307692 L23.9318182,19.8307692 L21.7045455,19.8307692 L21.7045455,19.4615385 L22.3011364,19 L19.9545455,19 L20.5511363,19.4615385 L20.5511363,20.1384615 L19.5965909,19.5538462 C19.6761364,19.4923077 19.7159091,19.4 19.7159091,19.3384615 C19.7159091,19.1538461 19.5170454,19.0307692 19.3181818,19.0307692 C19.1988636,19.0307692 19.1193182,19.0615384 19.0397727,19.0923077 L19.0397727,19.5538462 L19.0397727,19.6461539 L20.4715909,20.5384615 L19.7954545,20.6923077 C19.7556818,20.5692308 19.5965909,20.4769231 19.3977272,20.4769231 C19.1590909,20.4769231 19,20.6307692 19,20.7846154 C19,20.8769231 19.0397727,20.9384616 19.0795454,21 C19.0795454,21 19.6761364,21 19.7159091,21 L19.9147727,21 L23.5738636,20.1076923 L23.5738636,20.5692308 L23.0965909,20.6923077 C23.0568182,20.5692308 22.8977272,20.4769231 22.6988636,20.4769231 C22.4602273,20.4769231 22.3011364,20.6307692 22.3011364,20.7846154 C22.3011364,20.8769231 22.3409091,20.9384616 22.3806818,21 C22.3806818,21 22.9772727,21 23.0170454,21 L23.2159091,21 L24.1306818,20.7846154 L24.5681818,20.6923077 L24.2102273,20.4461538 L23.9715909,20.2615385 L25.6022727,20.2615385 L25.6022727,20.6 C25.5227273,20.5384615 25.4034091,20.4769231 25.2840909,20.4769231 C25.0454545,20.4769231 24.8863636,20.6307692 24.8863636,20.7846154 C24.8863636,20.8769231 24.9261364,20.9384616 24.9659091,21 L25.6022727,21 L26,21 L26,20.2307692 L26,19.8307692 L25.6022727,19.8615384 L25.6022727,19.8615384 Z M21.1079545,19.9230769 L20.7102273,19.6153846 L21.5056818,19.6153846 L21.1079545,19.9230769 Z" id="Shape" fill="#000000"></path>
                <path d="M36.6452416,24.9920533 L36.6452416,24.9920533 C36.9337217,24.908183 37.057356,24.6146371 36.9749331,24.3630263 C36.9337217,24.2372209 36.8512988,24.1114155 36.7276645,24.0694804 C36.6040301,23.9856101 36.4803958,23.9856101 36.3567615,24.0275453 C36.2331271,24.0694804 36.1094928,24.1533507 36.0682814,24.2791561 C35.9858585,24.4049615 35.9858585,24.5307668 36.0270699,24.6565722 C36.1094928,24.908183 36.3979729,25.0339884 36.6452416,24.9920533" id="Path" fill="#000000"></path>
                <path d="M35,27.2063492 L35.0731707,27.5555555 L36.5365854,27.3650793 C36.5731707,27.3650793 38,28 38,28 L37.9268293,27.5555555 C37.9268293,27.5555555 36.9756097,27.1428571 36.902439,27.1111111 C36.9756097,27.047619 37.7439024,26.4444444 37.7439024,26.4444444 L37.6707317,26 L37.6341463,26.031746 C37.6341463,26.031746 36.5,26.952381 36.4634146,26.984127 C36.4634146,27.015873 35,27.2063492 35,27.2063492" id="Path" fill="#000000"></path>
                <path d="M36,28.5330087 C36,28.6472249 36.04,28.761441 36.16,28.8756572 C36.24,28.9518013 36.36,29.0279454 36.52,28.9898734 C36.64,28.9898734 36.76,28.9518013 36.88,28.8375851 C36.96,28.761441 37,28.6472249 37,28.4949367 C37,28.3807205 36.96,28.2665043 36.84,28.1522882 C36.76,28.0761441 36.64,28 36.48,28 C36.2,28.038072 36,28.2665043 36,28.5330087" id="Path" fill="#000000"></path>
                <path d="M35.0375,29 L35,29.4203597 C35,29.4203597 36.1625,29.5732178 36.2375,29.6114323 C36.2375,29.6496468 36.2,29.955363 36.2,29.955363 C36.2,30.031792 36.2,30.0700066 36.2,30.1464356 C36.2,30.3375082 36.2375,30.5285808 36.35,30.6814388 C36.4625,30.8342969 36.65,30.9489405 36.9125,30.987155 C37.4375,31.0635841 37.8125,30.7960824 37.8875,30.2610791 L38,29.4203597 L35.0375,29 L35.0375,29 Z M37.4375,29.7642904 C37.4375,29.8025049 37.4,30.1846501 37.4,30.1846501 C37.3625,30.5667953 37.0625,30.5667953 36.95,30.5285808 C36.725,30.4903663 36.575,30.3375082 36.575,30.1464356 C36.575,30.1082211 36.575,30.1082211 36.575,30.0700066 C36.575,30.0700066 36.6125,29.7642904 36.6125,29.6878614 C36.6875,29.6496468 37.4,29.7260759 37.4375,29.7642904 L37.4375,29.7642904 Z" id="Shape" fill="#000000"></path>
                <path d="M35.4482758,30 L35,31.2063492 L35.3793103,31.3333333 C35.3793103,31.3333333 35.6896552,30.4761905 35.6896552,30.4444444 C35.7241379,30.4761905 36.3448276,30.6349206 36.4137931,30.6666667 C36.3793103,30.7301587 36.1034483,31.4920635 36.1034483,31.4920635 L36.4827586,31.6190476 C36.4827586,31.6190476 36.7586207,30.8253968 36.7931034,30.7936508 C36.8275862,30.8253968 37.4482758,30.984127 37.4827586,31.015873 C37.4482758,31.0793651 37.1724138,31.8730159 37.1724138,31.8730159 L37.5517241,32 L38,30.7936508 L35.4482758,30 L35.4482758,30 Z" id="Path" fill="#000000"></path>
                <path d="M34.980198,33 L34.8316832,33.2526316 C34.8316832,33.2526316 36.1386139,34.1368421 36.2574258,34.231579 C36.1089109,34.231579 34.1485149,34.4210526 34.1485149,34.4210526 L34,34.6736842 L35.960396,36 L36.1386139,35.7157895 C36.1386139,35.7157895 34.8316832,34.831579 34.7128713,34.7368421 C34.8613862,34.7368421 36.8514852,34.5157895 36.8514852,34.5157895 L37,34.2631579 L34.980198,33 L34.980198,33 Z" id="Path" fill="#000000"></path>
                <path d="M33.9565217,35.8533334 C33.7246377,35.88 33.5217391,35.9333333 33.3768116,35.8 C33.3188406,35.7466667 33.2608696,35.5866667 33.4057971,35.4533334 C33.5507246,35.32 33.7536232,35.2933334 33.9855073,35.32 L34.0724638,35.32 L33.7246377,35 L33.7246377,35 C33.4927536,35.0266667 33.3188406,35.08 33.173913,35.24 C33.057971,35.3466667 33,35.48 33,35.6133334 C33,35.7733334 33.057971,35.9066667 33.2028986,36.04 C33.4927536,36.3066667 33.8115942,36.2533333 34.1014493,36.2 C34.3043478,36.1466667 34.4782609,36.12 34.6231884,36.2266667 C34.6521739,36.28 34.6811594,36.3066667 34.6811594,36.36 C34.6811594,36.44 34.6521739,36.4933333 34.5652174,36.5733333 C34.4492754,36.68 34.3043478,36.7333333 34.1014493,36.7066667 L34.0434783,36.7066667 L34.3623188,37 L34.3623188,37 C34.5362319,36.9733333 34.6811594,36.92 34.7971014,36.8133333 C34.942029,36.68 35,36.5466667 35,36.4133333 C35,36.28 34.942029,36.12 34.7971014,36.0133333 C34.5362319,35.7466667 34.2173913,35.8 33.9565217,35.8533334" id="Path" fill="#000000"></path>
                <path d="M31.3026315,35 L30,35.75 L30.2368421,36.0909091 C30.2368421,36.0909091 31.1447368,35.5454545 31.2236842,35.5113636 C31.2631579,35.5454545 31.6578947,36.0909091 31.6973684,36.125 C31.6578947,36.1590909 30.7894737,36.6704545 30.7894737,36.6704545 L31.0263158,37.0113636 C31.0263158,37.0113636 31.8947368,36.5 31.9342105,36.5 C31.9736842,36.5340909 32.368421,37.0454545 32.4078947,37.1136364 C32.368421,37.1477273 31.4605263,37.6590909 31.4605263,37.6590909 L31.6973684,38 L33,37.25 L31.3026315,35 L31.3026315,35 Z" id="Path" fill="#000000"></path>
                <path d="M21.0645161,36.6530612 C21.0322581,36.622449 20.0967742,36.0714286 20.0645161,36.0408163 C20.0967742,36.0102041 20.6451613,35.1836735 20.6451613,35.1836735 L20.3225806,35 L20.3225806,35.0306122 L19,37.0204082 L19.3225807,37.2040816 C19.3225807,37.2040816 19.8709677,36.377551 19.9032258,36.3469388 C19.9354839,36.377551 20.8709678,36.9285714 20.9032258,36.9591837 C20.8709678,36.9897959 20.3225806,37.8163265 20.3225806,37.8163265 L20.6451613,38 L22,35.9795918 L21.6774193,35.7959184 C21.6451613,35.7959184 21.0967742,36.5918367 21.0645161,36.6530612" id="Path" fill="#000000"></path>
                <path d="M20.9941328,35.4877859 C21.0324445,35.1064164 20.8791979,34.7631839 20.6493281,34.4962253 C19.9980305,33.7716232 19.116863,33.924171 18.5421886,34.4199513 C18.1973839,34.725047 18.0058258,35.1064164 18.0058258,35.4877859 C17.9675141,35.8691554 18.1207607,36.2123879 18.388942,36.5174836 C18.9253049,37.1276747 19.8447839,37.1658117 20.4960817,36.5937575 C20.764263,36.2886619 20.9558212,35.9072924 20.9941328,35.4877859 M20.5343933,35.4877859 C20.5343933,35.7547446 20.3811468,36.0598402 20.151277,36.2505249 C19.6915374,36.6700313 19.0785514,36.6700313 18.6954351,36.2123879 C18.5038769,36.0217032 18.4272537,35.7547446 18.4655653,35.5259229 C18.4655653,35.2589642 18.6188118,34.9920056 18.8486816,34.7631839 C19.0785514,34.5724991 19.3850444,34.4580883 19.6532258,34.4580883 C19.9214072,34.4580883 20.151277,34.5724991 20.3045235,34.7631839 C20.45777,34.9920056 20.5343933,35.2208273 20.5343933,35.4877859" id="Shape" fill="#000000"></path>
                <path d="M17.877551,33.6304348 C17.877551,33.6304348 16.4081633,34.3478261 16.2857143,34.4130435 C16.3469388,34.2826087 17.2959184,32.2934783 17.2959184,32.2934783 L17.1734694,32 L17.1428571,32 L15,33.076087 L15.1530612,33.4021739 C15.1530612,33.4021739 16.622449,32.6847826 16.744898,32.6195652 C16.6836735,32.75 15.7346939,34.7391304 15.7346939,34.7391304 L15.8571429,35 L18,33.923913 L17.877551,33.6304348 Z" id="Path" fill="#000000"></path>
                <polygon id="Path" fill="#000000" points="17.9230769 30 17.8846154 30.0322581 15 30.6129032 15.1153846 31 18 30.3870968"></polygon>
                <path d="M16.7900918,29.0965238 C16.6678642,29.0158286 16.5456366,28.975481 16.4234089,29.0158286 C16.3011813,29.0158286 16.1789537,29.0965238 16.0974686,29.2175667 C16.0159835,29.3386095 15.9752409,29.4596524 16.0159835,29.5806953 C16.0159835,29.7017381 16.0974686,29.822781 16.2196962,29.9034762 C16.3419239,29.9841714 16.4641515,30.0245191 16.5863791,29.9841714 C16.871577,29.9438238 17.0345471,29.7017381 16.9938046,29.4193048 C16.953062,29.2579143 16.871577,29.177219 16.7900918,29.0965238" id="Path" fill="#000000"></path>
                <path d="M16.6329114,28.5476191 C16.8227848,28.3809524 16.9746835,28.2380952 17.2405063,28.2380952 C17.3164557,28.2380952 17.392405,28.2619048 17.4683544,28.3095238 C17.5443038,28.3571429 17.5822784,28.4285714 17.5822784,28.5 C17.5822784,28.6428571 17.4303797,28.7857143 17.1645569,28.9047619 L17.0886076,28.952381 L17.7341772,28.952381 L17.7341772,28.952381 C17.9240506,28.8095238 18,28.6666667 18,28.4761905 C18,28.3571429 17.9240506,28.2380952 17.8101265,28.1428571 C17.6582278,28.047619 17.4303797,28 17.2025316,28 C16.6708861,28 16.443038,28.2142857 16.2151899,28.4285714 C16.0632911,28.5714286 15.9493671,28.7142857 15.721519,28.7142857 C15.6455696,28.7142857 15.5696202,28.6904762 15.5316456,28.6666667 C15.4556962,28.6190476 15.4177215,28.5476191 15.4177215,28.4761905 C15.4177215,28.3571429 15.5316456,28.2142857 15.721519,28.1190476 L15.7974683,28.0952381 L15.2278481,28.0952381 L15.2278481,28.0952381 C15.0759494,28.2142857 15,28.3333333 15,28.4761905 C15,28.6428571 15.0759494,28.7619048 15.2278481,28.8571429 C15.3797468,28.952381 15.5696202,29 15.7974683,29 C16.1772152,28.952381 16.4050633,28.7380952 16.6329114,28.5476191" id="Path" fill="#000000"></path>
                <path d="M16.200514,27.9443266 C16.6131907,28.0628193 17.0258674,27.9838242 17.363512,27.7863363 C17.6636405,27.5888485 17.8887369,27.272868 17.963769,26.8778924 C18.0388012,26.4829168 18.0012851,26.0879411 17.8137048,25.7719606 C17.6261245,25.4164825 17.2509638,25.1399996 16.8382871,25.0610044 C16.0129337,24.8240191 15.2250963,25.2979898 15.037516,26.1274387 C15,26.2459314 15,26.3644241 15,26.4829168 C15,26.7593997 15.0750321,26.9963851 15.1875803,27.1938729 C15.4501927,27.5888485 15.7878373,27.8653315 16.200514,27.9443266 M15.5252249,26.2459314 C15.600257,25.9694484 15.7503213,25.7719606 15.9379016,25.6139703 C16.162998,25.4559801 16.4631265,25.4164825 16.763255,25.4954776 C17.0633835,25.5744727 17.3259959,25.7719606 17.4385441,26.008946 C17.5510923,26.2459314 17.5886084,26.4829168 17.5510923,26.7593997 C17.4010281,27.3123656 16.8758032,27.6283461 16.2755462,27.4703558 C15.7128052,27.3518631 15.3751606,26.8383948 15.5252249,26.2459314" id="Shape" fill="#000000"></path>
                <path d="M40,27.1548453 C40,23.7022978 38.6105703,20.4655345 36.0570237,18.0199801 C35.7566064,17.7322678 35.4561892,17.4805195 35.1182198,17.1928072 L35.1182198,16.6893107 C35.64395,16.6533467 36.0945758,16.2217782 36.0945758,15.7182818 C36.0945758,15.1788212 35.64395,14.7472528 35.0806676,14.7472528 C35.0431154,14.7472528 35.0431154,14.7472528 35.0055633,14.7472528 L35.9819194,14.3156843 L35.6063978,13.5244756 L37.0709319,10.2517483 L36.4325452,10 L34.930459,13.3446553 L34.1418637,13.7042957 L34.6675939,14.7832168 L30.349096,14.7832168 L22.6884562,14.7832168 L18.3699583,14.7832168 L18.8956884,13.7042957 L18.069541,13.3446553 L16.5674548,10 L15.9290681,10.2517483 L17.3936022,13.5244756 L17.0180806,14.3156843 L17.9944367,14.7472528 C17.9944367,14.7472528 17.9944367,14.7472528 17.9568846,14.7472528 C17.3936022,14.7472528 16.9429763,15.1788212 16.9429763,15.7182818 C16.9429763,16.2217782 17.35605,16.6533467 17.8817803,16.6893107 L17.8817803,17.1928072 C17.581363,17.4445555 17.2433936,17.7322678 16.9429763,18.0199801 C14.3894297,20.4655345 13,23.7022978 13,27.1548453 C13,29.8161839 13.8261474,32.3696305 15.4408901,34.5634367 C17.0180806,36.6853149 19.1585535,38.3036964 21.7121001,39.2027974 C21.7121001,39.2027974 21.8623088,39.2387614 22.0876217,39.3466535 C22.1251738,39.7062939 22.3504868,40.0299702 22.6884562,40.1378623 C23.0639778,40.2817185 23.4770515,40.1378623 23.7023644,39.886114 L23.7399166,39.886114 L23.7399166,43.5544459 C23.7399166,44.9210789 24.9415856,46 26.4436718,46 C27.945758,46 29.147427,44.8851153 29.147427,43.5544459 L29.147427,41.1088913 L35.7566064,38.0879122 C35.9819194,38.0159842 36.1696801,37.9080921 36.3574409,37.7642359 C36.8831711,37.2967035 36.9582754,36.5774227 36.620306,35.6423578 C37.2211405,34.9950052 37.7468707,34.3116884 38.1599444,33.5564437 C39.3616134,31.6143858 40,29.4205795 40,27.1548453 L40,27.1548453 Z M32.9777469,15.3586414 L34.930459,15.7542458 L32.9777469,16.1498502 L32.9777469,15.3586414 Z M26.7065369,34.9950052 L26.7065369,25.2847154 L34.442281,25.2847154 L34.442281,27.1188812 C34.442281,28.917083 34.1043116,30.1398603 33.6161335,31.0389612 C33.2030598,31.6863138 32.7148818,32.2977024 32.1140473,32.837163 C32.0764951,32.873127 32.038943,32.909091 32.0013908,32.9450551 C30.5744089,34.2397604 28.659249,34.9590411 26.7065369,34.9950052 L26.7065369,34.9950052 Z M29.0347705,35.3186815 C28.8845619,35.6423578 28.7719054,36.0019981 28.6968011,36.3976025 C27.945758,36.1458543 27.232267,35.894106 26.5187761,35.6423578 L26.5187761,35.6423578 C27.3824757,35.6783218 28.2461753,35.5344657 29.0347705,35.3186815 L29.0347705,35.3186815 Z M26.7065369,24.9610391 L26.7065369,16.7252747 L33.240612,16.7252747 L34.442281,16.7252747 L34.442281,23.1988013 L34.442281,24.9610391 L26.7065369,24.9610391 Z M29.4102921,15.3586414 L31.3630042,15.7542458 L29.4102921,16.1498502 L29.4102921,15.3586414 Z M25.8052851,15.3586414 L27.7579972,15.7542458 L25.8052851,16.1498502 L25.8052851,15.3586414 Z M22.162726,15.3586414 L24.1154381,15.7542458 L22.162726,16.1498502 L22.162726,15.3586414 Z M18.6328234,15.3586414 L20.5855355,15.7542458 L18.6328234,16.1498502 L18.6328234,15.3586414 Z M18.6328234,23.1988013 L18.6328234,16.7252747 L19.8344924,16.7252747 L26.3685675,16.7252747 L26.3685675,24.9610391 L18.6328234,24.9610391 L18.6328234,23.1988013 Z M18.6328234,25.2847154 L26.3685675,25.2847154 L26.3685675,34.9950052 C24.7913769,34.9590411 23.2517385,34.4915086 21.9374131,33.6283718 L21.9374131,33.6283718 C21.8998609,33.5924077 21.8247566,33.5564437 21.7872044,33.5204797 L21.7496523,33.4845156 C21.7121001,33.4485516 21.674548,33.4485516 21.6369958,33.4125876 C21.5994437,33.3766235 21.5618915,33.3406595 21.5243394,33.3406595 C21.5243394,33.3406595 21.5243394,33.3406595 21.4867872,33.3046955 C20.6606398,32.6933068 19.9471488,31.902098 19.4214186,31.0029971 C18.9332406,30.1038962 18.6328234,28.881119 18.6328234,27.1188812 L18.6328234,25.2847154 Z M22.3129346,38.7352649 C22.2002782,38.6993009 22.0876217,38.6633368 22.0125174,38.6273728 C19.6091794,37.7642359 17.5438109,36.2177824 16.0792768,34.2037963 C14.5771906,32.1538463 13.7510431,29.7082918 13.7510431,27.1548453 C13.7510431,23.882118 15.0653686,20.8251749 17.5062587,18.4875125 C17.6564673,18.3436564 17.8066759,18.1998002 17.9568846,18.0919081 L17.9568846,21.4365635 C17.4311544,21.0769231 16.8303199,20.7172828 16.7927677,20.6813187 C16.8303199,20.6453547 17.2809458,19.962038 17.2809458,19.962038 L16.9054242,19.7462538 L16.9054242,19.7822179 L15.7037552,21.5084916 L16.0792768,21.7242758 C16.0792768,21.7242758 16.5299026,21.0769231 16.5674548,21.0049951 C16.6050069,21.0409591 17.3936022,21.5084916 17.9568846,21.904096 L17.9568846,23.0909092 L15.4784423,22.0119881 L15.4784423,22.0479521 L15.2906815,22.4075925 L17.9568846,23.5944057 L17.9568846,25.0329671 C17.7691238,25.7162838 17.6564673,26.4355645 17.6564673,27.1908093 C17.6564673,28.7372629 18.1070932,30.1758243 18.8581363,31.4345655 C19.3463143,32.3336665 19.984701,32.9450551 20.5855355,33.4845156 C20.8484006,33.7002998 21.1112656,33.9160841 21.4116829,34.1318683 C21.449235,34.1318683 21.449235,34.1678323 21.4867872,34.1678323 C21.5243394,34.2037963 21.5618915,34.2037963 21.5994437,34.2397604 C21.6369958,34.2757244 21.674548,34.2757244 21.7121001,34.3116884 L21.7496523,34.3476525 C21.9749652,34.4915086 22.2002782,34.6353648 22.4631432,34.7432569 L22.4631432,34.7432569 C22.8011127,34.887113 23.2517385,35.1028973 23.7774687,35.3186815 L23.2141864,36.6493508 L22.9513213,36.5414587 C22.8011127,36.4695306 22.6133519,36.5414587 22.5382475,36.6853149 C22.4631432,36.829171 22.5382475,37.0089912 22.6884562,37.0809192 L22.9513213,37.1888113 L22.3129346,38.7352649 Z M28.5465925,43.5904096 C28.5465925,43.8421583 28.4714882,44.0939065 28.3588317,44.3096906 C28.2461753,44.4895106 28.0584144,44.5974029 27.8706537,44.5974029 C27.6077886,44.5974029 27.3824757,44.4535466 27.3073713,44.2017983 C27.3073713,44.1658342 27.2698192,44.0579424 27.232267,43.8781219 C27.3073713,43.914086 27.3824757,43.914086 27.45758,43.914086 C27.7955494,43.914086 28.0584144,43.6623378 28.0584144,43.3746255 C28.0584144,43.0509493 27.7955494,42.835165 27.45758,42.835165 C27.2698192,42.835165 27.1196106,42.9070931 27.0069541,43.0149852 C26.8191933,42.2957045 26.6314325,41.5044957 26.6314325,41.5044957 L26.5187761,41.5044957 L26.3685675,41.5044957 C26.3685675,41.5044957 26.1808067,42.2957045 25.9930459,43.0149852 C25.8803894,42.9070931 25.7301808,42.835165 25.5799722,42.835165 C25.2420028,42.835165 25.0166898,43.0869133 25.0166898,43.3746255 C25.0166898,43.6983019 25.279555,43.914086 25.5799722,43.914086 C25.6550765,43.914086 25.7301808,43.914086 25.8052851,43.8781219 C25.767733,44.0219783 25.7301808,44.1658342 25.7301808,44.2017983 C25.6550765,44.4175825 25.4297636,44.5974029 25.1668985,44.5974029 C24.9415856,44.5974029 24.7538247,44.4895106 24.6411683,44.3096906 C24.5285118,44.0939065 24.4909597,43.8421583 24.4909597,43.5904096 L24.4909597,40.1378623 C25.6926287,40.4975027 27.1947149,40.9290711 28.5841447,41.2167834 L28.5465925,43.5904096 L28.5465925,43.5904096 Z M28.8470097,40.5694307 C26.744089,40.1378623 24.3031989,39.3826175 22.876217,38.9150851 C23.0264256,38.5914088 23.2517385,38.0159842 23.5146036,37.4045956 L23.8901252,37.5484517 C23.8901252,37.5844157 23.8901252,37.5844157 23.8901252,37.6203798 C23.8901252,38.1238763 24.340751,38.5554447 24.8664812,38.5554447 C25.3922114,38.5554447 25.8428373,38.1238763 25.8428373,37.6203798 C25.8428373,37.1168833 25.3922114,36.6853149 24.8664812,36.6853149 C24.566064,36.6853149 24.340751,36.793207 24.1529903,37.0089912 L23.7399166,36.829171 C23.9652295,36.2897104 24.1529903,35.7862139 24.3031989,35.4985016 C25.7301808,36.0739262 27.5702364,36.7572429 29.3351878,37.2967035 C31.2127956,37.836164 32.7148818,38.1598403 33.8414465,38.2677324 C31.8511822,39.2027974 28.9972184,40.4975027 28.8470097,40.5694307 L28.8470097,40.5694307 Z M35.9443672,37.2607394 C35.7566064,37.4405596 35.3059805,37.6203798 34.3671766,37.6203798 C35.0055633,37.1888113 35.5688457,36.7212789 36.0945758,36.1818184 C36.2447844,36.6853149 36.2072323,37.0449552 35.9443672,37.2607394 L35.9443672,37.2607394 Z M33.2781641,37.5484517 C32.3769124,37.4405596 31.1376913,37.1528473 29.5229485,36.6853149 C29.4478442,36.6493508 29.3727399,36.6493508 29.2976356,36.6133867 C29.4478442,35.7142859 29.7482615,35.1388613 30.2739916,34.851149 C31.1001391,34.4915086 31.8511822,33.9880121 32.527121,33.3766235 C33.1279555,32.873127 33.72879,32.2617384 34.1794159,31.3986015 C34.930459,30.1398603 35.3810848,28.6653348 35.3810848,27.1188812 C35.3810848,26.3996005 35.2684284,25.6443557 35.0806676,24.9610391 L35.0806676,23.5944057 L35.4937413,24.6013987 L35.906815,24.4575425 C35.906815,24.4575425 35.4937413,23.4865135 35.4937413,23.4505495 C35.5688457,23.4145855 37.821975,22.5514486 37.821975,22.5514486 L37.6717663,22.1558442 L37.6342142,22.1558442 L35.1182198,23.1268732 L35.1182198,22.947053 L36.8080668,20.6453547 L36.6578582,20.3936065 L36.620306,20.3936065 L35.1182198,20.7172828 L35.1182198,18.0199801 C35.2684284,18.1638362 35.418637,18.2717283 35.5688457,18.4155844 C37.9721836,20.7172828 39.3240612,23.8101899 39.3240612,27.0829172 C39.3240612,29.2047953 38.7607789,31.3266734 37.6342142,33.1608393 C36.5827538,34.9950052 35.0806676,36.4695306 33.2781641,37.5484517 L33.2781641,37.5484517 Z M35.2684284,22.1198802 C35.2684284,22.1198802 35.1933241,22.2277723 35.1182198,22.3356644 L35.1182198,21.904096 C35.1933241,22.0119881 35.2684284,22.1198802 35.2684284,22.1198802 L35.2684284,22.1198802 Z M35.1557719,21.1848152 C35.2308763,21.1848152 35.9819194,21.0049951 36.0945758,20.969031 C36.0194715,21.0769231 35.5688457,21.6883117 35.5312935,21.7242758 C35.4937413,21.6883117 35.1933241,21.2567433 35.1557719,21.1848152 L35.1557719,21.1848152 Z" id="Shape" fill="#000000"></path>
                <path d="M36.5626369,7.98425198 C36.038453,7.24015748 35.1772936,6.92125984 34.5407845,6.92125984 C33.6421834,6.92125984 32.7061406,7.27559052 31.8075395,7.62992125 C30.7966133,8.01968502 29.7482453,8.40944883 28.6998774,8.33858266 C28.8122025,7.98425198 28.9619694,7.62992125 29.149178,7.34645669 L28.5126688,7.06299209 C28.624994,6.85039367 28.7373191,6.6023622 28.7747608,6.31889764 C28.6998774,6.28346456 27.838718,6 26.4533747,6 C25.0680313,6 24.2817554,6.28346456 24.2068719,6.31889764 C24.2443136,6.6023622 24.319197,6.85039367 24.4689639,7.06299209 L23.8324548,7.34645669 C24.0196634,7.62992125 24.1694302,7.98425198 24.2817554,8.33858266 C23.2333874,8.44488187 22.1850195,8.01968502 21.1740932,7.62992125 C20.2754921,7.27559052 19.3394494,6.92125984 18.4408483,6.92125984 C17.8043392,6.92125984 16.9431797,7.24015748 16.4189958,7.98425198 C16.007137,8.58661417 15.6701615,9.72047244 16.5687626,11.5275591 L16.5687626,11.5275591 L16.5687626,11.492126 L17.8792226,10.9606299 L17.954106,11.1732283 C17.5422472,11.3503937 17.1303883,11.8110236 17.6171306,12.8740158 C18.7403819,12.4133858 18.7778237,11.8110236 18.5906151,11.4212599 L18.8152654,11.3503937 L19.376891,12.5551181 L19.9385167,13.7598425 L19.7138665,13.8307087 C19.5266579,13.4409449 19.0399156,13.0511811 17.9166643,13.5118111 C18.4034065,14.5748031 19.2645659,15 19.9385167,15 C21.0992098,15 21.9229275,14.3267717 21.8106023,13.6535433 C21.7357189,13.1574803 21.2489767,12.980315 21.0617681,13.015748 C20.8371178,13.0511811 20.687351,13.2992126 20.7247927,13.4409449 C20.7247927,13.476378 20.7622344,13.5118111 20.7622344,13.5472441 L20.7247927,13.5826772 C20.425259,13.5472441 20.163167,13.3346457 20.0882836,13.0511811 C20.0134002,12.6968504 20.2754921,12.3425197 20.6499093,12.2716535 C20.8745596,12.2362205 21.0992098,12.3070866 21.2864184,12.4488189 L21.3613018,12.3425197 C21.1366515,12.2362205 20.9868847,12.0590551 20.949443,11.8110236 C20.8371178,11.2440945 21.5110687,10.6771654 21.5485104,10.6771654 L21.5485104,10.6771654 L21.5485104,10.6771654 C21.5485104,10.6771654 22.4096698,10.9606299 22.5219949,11.5275591 C22.5594366,11.7755905 22.4845532,11.988189 22.3347863,12.1653544 L22.4471114,12.2362205 C22.5219949,12.0590551 22.7092034,11.8818898 22.9712954,11.8464567 C23.3457125,11.7755905 23.7201297,12.0236221 23.7950131,12.3779527 C23.8698965,12.6614173 23.6826879,12.980315 23.420596,13.0866142 L23.3831543,13.0511811 C23.3831543,13.015748 23.3831543,12.980315 23.3831543,12.9448819 C23.3457125,12.7677166 23.1210623,12.6259843 22.896412,12.6614173 C22.7092034,12.6968504 22.3347863,13.015748 22.4471114,13.5118111 C22.63432,14.3622047 23.3831543,14.964567 24.2817554,14.964567 C25.1803565,14.964567 26.153841,14.2559055 26.153841,13.1929134 C24.8433811,13.1929134 24.5438473,13.7598425 24.5438473,14.2559055 L24.2817554,14.2559055 L24.2817554,12.8385827 L24.2817554,11.4212599 L24.5438473,11.4212599 C24.5438473,11.8818898 24.8808227,12.484252 26.153841,12.484252 C26.153841,11.2440945 25.5547736,10.9606299 25.0305896,10.9606299 L25.0305896,10.7125984 L26.3036078,10.7125984 L26.7154667,10.7125984 L27.9884849,10.7125984 L27.9884849,10.9606299 C27.5017426,10.9606299 26.8652335,11.2795276 26.8652335,12.484252 C28.1756934,12.484252 28.4752271,11.9173228 28.4752271,11.4212599 L28.7373191,11.4212599 L28.7373191,12.8385827 L28.7373191,14.2559055 L28.5501105,14.2559055 C28.5501105,13.7952756 28.2131351,13.1929134 26.9401169,13.1929134 C26.9401169,14.2559055 27.8761597,14.964567 28.8122025,14.964567 C29.7108037,14.964567 30.4970796,14.3622047 30.6468464,13.5118111 C30.7591716,13.015748 30.3847544,12.6614173 30.1975459,12.6614173 C29.9728956,12.6259843 29.7482453,12.7677166 29.7108037,12.9448819 C29.7108037,12.980315 29.7108037,13.015748 29.7108037,13.0511811 L29.6733619,13.0866142 C29.4112699,12.9448819 29.2240614,12.6614173 29.2989448,12.3779527 C29.3738282,12.0236221 29.7482453,11.7755905 30.1226625,11.8464567 C30.3473127,11.8818898 30.5345213,12.0236221 30.6468464,12.2362205 L30.7591716,12.1653544 C30.6094047,11.988189 30.5345213,11.7755905 30.571963,11.5275591 C30.6842882,10.9606299 31.5454475,10.6771654 31.5454475,10.6771654 C31.5454475,10.6771654 32.25684,11.2440945 32.1445149,11.8110236 C32.1070732,12.0590551 31.9198646,12.2362205 31.7326561,12.3425197 L31.8075395,12.4488189 C31.9573064,12.3070866 32.1819566,12.2362205 32.4440486,12.2716535 C32.8184657,12.3425197 33.0805577,12.6968504 33.0056743,13.0511811 C32.9307909,13.3700788 32.6686989,13.5826772 32.3691652,13.5826772 L32.3317235,13.5472441 C32.3691652,13.5118111 32.3691652,13.476378 32.3691652,13.4409449 C32.4066069,13.2637795 32.25684,13.0511811 32.0321898,13.015748 C31.8449812,12.980315 31.358239,13.1574803 31.2833555,13.6535433 C31.1710304,14.3267717 32.0321898,15 33.1554411,15 C33.829392,15 34.6905513,14.5748031 35.1772936,13.5118111 C34.0540422,13.0511811 33.5673,13.4409449 33.3800914,13.8307087 L33.1554411,13.7598425 L33.7170668,12.5551181 L34.2786925,11.3503937 L34.5033428,11.4212599 C34.3161342,11.8110236 34.3535759,12.4133858 35.4768273,12.8740158 C35.9635696,11.8110236 35.5517108,11.3503937 35.1398519,11.1732283 L35.2147353,10.9606299 L36.5251953,11.492126 L36.5251953,11.5275591 L36.5251953,11.5275591 C37.3114712,9.68503935 36.9744958,8.58661417 36.5626369,7.98425198 M24.5438473,9.5433071 C23.9073382,9.5433071 23.3831543,9.86220474 23.0836206,10.3582677 C22.7466452,9.79133857 21.9978109,9.43700788 21.2864184,9.57874014 C20.7622344,9.68503935 20.3129339,10.0393701 20.1257253,10.4645669 C19.8261916,10.003937 19.3020076,9.72047244 18.7029402,9.72047244 C17.954106,9.72047244 17.3175969,10.1811024 17.0929466,10.8188976 C16.6810878,9.79133857 16.6810878,8.94094486 17.0929466,8.33858266 C17.5048054,7.73622046 18.216198,7.55905512 18.5157317,7.55905512 C19.3020076,7.55905512 20.1257253,7.87795276 20.9868847,8.1968504 C22.1101361,8.62204722 23.2708291,9.08267716 24.5438473,8.90551181 C24.5812891,9.11811024 24.6187308,9.29527558 24.6561725,9.50787401 C24.6187308,9.5433071 24.5812891,9.5433071 24.5438473,9.5433071 M26.5282581,6.24803147 C26.8652335,6.24803147 27.1647672,6.49606298 27.2022089,6.81496062 C27.0150003,6.67322832 26.7903501,6.56692911 26.5282581,6.56692911 C26.2661661,6.56692911 26.0415158,6.67322832 25.8543073,6.81496062 C25.891749,6.49606298 26.1912827,6.24803147 26.5282581,6.24803147 M26.5282581,6.85039367 C26.8652335,6.85039367 27.1647672,7.09842518 27.2022089,7.41732282 C27.0150003,7.27559052 26.7903501,7.16929131 26.5282581,7.16929131 C26.2661661,7.16929131 26.0415158,7.27559052 25.8543073,7.41732282 C25.891749,7.09842518 26.1912827,6.85039367 26.5282581,6.85039367 M26.5282581,10.4291339 C26.153841,10.4291339 25.8543073,10.1456693 25.8543073,9.79133857 C25.8543073,9.43700788 26.153841,9.15354328 26.5282581,9.15354328 C26.9026752,9.15354328 27.2022089,9.43700788 27.2022089,9.79133857 C27.2022089,10.1456693 26.9026752,10.4291339 26.5282581,10.4291339 M27.1647672,9.04724407 C26.9775586,8.90551181 26.7529083,8.83464564 26.5282581,8.83464564 C26.2661661,8.83464564 26.0789576,8.90551181 25.891749,9.04724407 C25.8543073,8.97637794 25.8543073,8.90551181 25.8543073,8.83464564 C25.8543073,8.48031496 26.153841,8.1968504 26.5282581,8.1968504 C26.9026752,8.1968504 27.2022089,8.48031496 27.2022089,8.83464564 C27.2022089,8.90551181 27.2022089,8.97637794 27.1647672,9.04724407 M27.2022089,8.16141732 C27.0150003,8.01968502 26.7903501,7.9133858 26.5282581,7.9133858 C26.2661661,7.9133858 26.0415158,8.01968502 25.8543073,8.16141732 L25.8543073,8.12598423 C25.8543073,7.77165355 26.153841,7.48818895 26.5282581,7.48818895 C26.9026752,7.48818895 27.2022089,7.77165355 27.2022089,8.12598423 C27.2022089,8.12598423 27.2022089,8.12598423 27.2022089,8.16141732 M35.9635696,10.8188976 C35.7389193,10.1811024 35.1024102,9.72047244 34.3535759,9.72047244 C33.7545086,9.72047244 33.2303246,10.003937 32.9307909,10.4645669 C32.7061406,10.0393701 32.2942818,9.68503935 31.7700978,9.57874014 C31.0212636,9.43700788 30.309871,9.75590553 29.9728956,10.3582677 C29.6733619,9.89763778 29.149178,9.5433071 28.5126688,9.5433071 C28.4752271,9.5433071 28.4377854,9.5433071 28.4003437,9.5433071 C28.4377854,9.36614171 28.4752271,9.15354328 28.5126688,8.94094486 C29.7856871,9.11811024 30.9463801,8.6574803 32.0696315,8.23228345 C32.9307909,7.9133858 33.7545086,7.59448816 34.5407845,7.59448816 C34.8403182,7.59448816 35.5517108,7.77165355 35.9635696,8.37401575 C36.3754284,8.94094486 36.3754284,9.79133857 35.9635696,10.8188976" id="Shape" fill="#000000"></path>
                <polygon id="Path" fill="#000000" points="30.5 18.0547978 30.5 18.0547978 30 18.0547978 30.2857143 18.7023647 30.5 18.7023647 30.5714286 18.7023647 30.5 18.9452023 30.5714286 18.7833106 30.6428571 18.7833106 30.7142857 18.7023647 31 18.0547978"></polygon>
                <polyline id="Path" fill="#000000" points="27.8666666 18.75 27.8 18.8125 27.8 19 27.3333333 18.9375 27.3333333 18.625 27 18.0625 27.0666666 18 27.6666666 18.3125 28 18.3125 28 18.75 27.8666666 18.6875"></polyline>
                <path d="M27.6618918,18.9047293 C27.5809459,18.9047293 27.5,18.8237835 27.5,18.7428376 C27.5,18.6618917 27.5809459,18.5809459 27.6618918,18.5809459 C27.7428376,18.5809459 27.7428376,18.5809459 27.8237835,18.6618917 L27.9047294,18.6618917 C27.9047294,18.6618917 27.9047294,18.5809459 27.9047294,18.5 C27.9047294,18.2571624 27.7428376,18.0952707 27.5,18.0952707 C27.2571624,18.0952707 27.0952707,18.2571624 27.0952707,18.5 C27.0952707,18.7428376 27.2571624,18.9047293 27.5,18.9047293 L27.6618918,18.9047293 C27.6618918,18.9047293 27.6618918,18.9047293 27.6618918,18.9047293" id="Path" fill="#000000"></path>
                <path d="M27.9047293,18.6618917 C27.9047293,18.5809458 27.8237835,18.5 27.7428376,18.5 C27.6618917,18.5 27.5809459,18.5809458 27.5809459,18.6618917 C27.5809459,18.7428375 27.5809459,18.7428375 27.6618917,18.8237835 L27.6618917,18.9047293 C27.6618917,18.9047293 27.5809459,18.9047293 27.5,18.9047293 C27.2571624,18.9047293 27.0952707,18.7428375 27.0952707,18.5 C27.0952707,18.2571624 27.2571624,18.0952706 27.5,18.0952706 C27.7428376,18.0952706 27.9047293,18.2571624 27.9047293,18.5 L27.9047293,18.6618917 L27.9047293,18.6618917" id="Path" fill="#000000"></path>
                <polyline id="Path" fill="#000000" points="27.8666666 25.25 27.8 25.1875 27.8 25 27.3333333 25.0625 27.3333333 25.3125 27 25.875 27.0666666 26 27.6666666 25.625 28 25.625 28 25.1875 27.8666666 25.25"></polyline>
                <path d="M27.6618918,25.0952707 C27.5809459,25.0952707 27.5,25.1762166 27.5,25.2571625 C27.5,25.3381083 27.5809459,25.4190542 27.6618918,25.4190542 C27.7428376,25.4190542 27.7428376,25.4190542 27.8237835,25.3381083 L27.9047294,25.3381083 C27.9047294,25.3381083 27.9047294,25.4190542 27.9047294,25.5 C27.9047294,25.7428377 27.7428376,25.9047294 27.5,25.9047294 C27.2571624,25.9047294 27.0952707,25.7428377 27.0952707,25.5 C27.0952707,25.2571625 27.2571624,25.0952707 27.5,25.0952707 L27.6618918,25.0952707 C27.6618918,25.0952707 27.6618918,25.0952707 27.6618918,25.0952707" id="Path" fill="#000000"></path>
                <path d="M27.9047293,25.3381083 C27.9047293,25.4190541 27.8237835,25.5 27.7428376,25.5 C27.6618917,25.5 27.5809459,25.4190541 27.5809459,25.3381083 C27.5809459,25.2571624 27.5809459,25.2571624 27.6618917,25.1762165 L27.6618917,25.0952707 C27.6618917,25.0952707 27.5809459,25.0952707 27.5,25.0952707 C27.2571624,25.0952707 27.0952707,25.2571624 27.0952707,25.5 C27.0952707,25.7428376 27.2571624,25.9047293 27.5,25.9047293 C27.7428376,25.9047293 27.9047293,25.7428376 27.9047293,25.5 L27.9047293,25.3381083 C27.9047293,25.3381083 27.9047293,25.3381083 27.9047293,25.3381083" id="Path" fill="#000000"></path>
                <polyline id="Path" fill="#000000" points="33.1333333 25.25 33.1999999 25.1875 33.1999999 25 33.6666667 25.0625 33.6666667 25.3125 34 25.875 33.9333334 26 33.3333333 25.625 33 25.625 33 25.1875 33.1333333 25.25"></polyline>
                <path d="M33.3381083,25.0952707 C33.4190541,25.0952707 33.5,25.1762166 33.5,25.2571625 C33.5,25.3381083 33.4190541,25.4190542 33.3381083,25.4190542 C33.2571624,25.4190542 33.2571624,25.4190542 33.1762165,25.3381083 L33.0952707,25.3381083 C33.0952707,25.3381083 33.0952707,25.4190542 33.0952707,25.5 C33.0952707,25.7428377 33.2571624,25.9047294 33.5,25.9047294 C33.7428376,25.9047294 33.9047293,25.7428377 33.9047293,25.5 C33.9047293,25.2571625 33.7428376,25.0952707 33.5,25.0952707 L33.3381083,25.0952707 C33.3381083,25.0952707 33.3381083,25.0952707 33.3381083,25.0952707" id="Path" fill="#000000"></path>
                <path d="M33.0952707,25.3381083 C33.0952707,25.4190541 33.1762165,25.5 33.2571624,25.5 C33.3381083,25.5 33.4190541,25.4190541 33.4190541,25.3381083 C33.4190541,25.2571624 33.4190541,25.2571624 33.3381083,25.1762165 L33.3381083,25.0952707 C33.4190541,25.0952707 33.4190541,25.0952707 33.5,25.0952707 C33.7428376,25.0952707 33.9047293,25.2571624 33.9047293,25.5 C33.9047293,25.7428376 33.7428376,25.9047293 33.5,25.9047293 C33.2571624,25.9047293 33.0952707,25.7428376 33.0952707,25.5 L33.0952707,25.3381083 C33.0952707,25.3381083 33.0952707,25.3381083 33.0952707,25.3381083" id="Path" fill="#000000"></path>
                <polyline id="Path" fill="#000000" points="33.1333333 18.75 33.1999999 18.8125 33.1999999 19 33.6666667 18.9375 33.6666667 18.625 34 18.0625 33.9333334 18 33.3333333 18.3125 33 18.3125 33 18.75 33.1333333 18.6875"></polyline>
                <path d="M33.3381083,18.9047293 C33.4190541,18.9047293 33.5,18.8237835 33.5,18.7428376 C33.5,18.6618917 33.4190541,18.5809459 33.3381083,18.5809459 C33.2571624,18.5809459 33.2571624,18.5809459 33.1762165,18.6618917 L33.0952707,18.6618917 C33.0952707,18.6618917 33.0952707,18.5809459 33.0952707,18.5 C33.0952707,18.2571624 33.2571624,18.0952707 33.5,18.0952707 C33.7428376,18.0952707 33.9047293,18.2571624 33.9047293,18.5 C33.9047293,18.7428376 33.7428376,18.9047293 33.5,18.9047293 L33.3381083,18.9047293 C33.3381083,18.9047293 33.3381083,18.9047293 33.3381083,18.9047293" id="Path" fill="#000000"></path>
                <path d="M33.0952707,18.6618917 C33.0952707,18.5809458 33.1762165,18.5 33.2571624,18.5 C33.3381083,18.5 33.4190541,18.5809458 33.4190541,18.6618917 C33.4190541,18.7428375 33.4190541,18.7428375 33.3381083,18.8237835 L33.3381083,18.9047293 C33.4190541,18.9047293 33.4190541,18.9047293 33.5,18.9047293 C33.7428376,18.9047293 33.9047293,18.7428375 33.9047293,18.5 C33.9047293,18.2571624 33.7428376,18.0952706 33.5,18.0952706 C33.2571624,18.0952706 33.0952707,18.2571624 33.0952707,18.5 L33.0952707,18.6618917 L33.0952707,18.6618917 Z" id="Path" fill="#000000"></path>
                <rect id="Rectangle" fill="#000000" x="30" y="19" width="1" height="1"></rect>
                <polygon id="Path" fill="#000000" points="30.5809459 19.7428376 30.4190541 19.7428376 30.1762165 19.2571624 30.8237835 19.2571624"></polygon>
                <path d="M31.7428376,19.419054 L31.6618917,19.5 C31.5809458,19.5 31.5,19.419054 31.5,19.3381082 C31.5,19.2571624 31.5809458,19.1762165 31.6618917,19.1762165 L31.5,19.1762165 C31.3381082,19.1762165 31.1762165,19.3381082 31.1762165,19.5 C31.1762165,19.6618917 31.3381082,19.8237835 31.5,19.8237835 C31.6618917,19.8237835 31.8237834,19.6618917 31.8237834,19.5 C31.7428376,19.5 31.7428376,19.5 31.7428376,19.419054 L31.7428376,19.419054 Z" id="Path" fill="#000000"></path>
                <path d="M30.2571624,19.419054 L30.3381082,19.5 C30.4190541,19.5 30.5,19.419054 30.5,19.3381082 C30.5,19.2571624 30.4190541,19.1762165 30.3381082,19.1762165 L30.5,19.1762165 C30.6618917,19.1762165 30.8237834,19.3381082 30.8237834,19.5 C30.8237834,19.6618917 30.6618917,19.8237835 30.5,19.8237835 C30.3381082,19.8237835 30.1762165,19.6618917 30.1762165,19.5 C30.2571624,19.5 30.2571624,19.5 30.2571624,19.419054 L30.2571624,19.419054 Z" id="Path" fill="#000000"></path>
                <polygon id="Path" fill="#000000" points="30.5 25.9452023 30.5 25.9452023 31 25.9452023 30.7142857 25.2976354 30.5 25.2166895 30.4285714 25.2166895 30.5714286 25.0547977 30.4285714 25.2166895 30.3571429 25.2166895 30.2857143 25.2976354 30 25.9452023"></polygon>
                <rect id="Rectangle" fill="#000000" x="30" y="25" width="1" height="1"></rect>
                <polygon id="Path" fill="#000000" points="30.4190541 24.2166895 30.5809459 24.2166895 30.8237835 24.7833105 30.1762165 24.7833105"></polygon>
                <path d="M30.2571624,24.5809459 L30.3381082,24.5 C30.4190541,24.5 30.5,24.5809459 30.5,24.6618917 C30.5,24.7428376 30.4190541,24.8237835 30.3381082,24.8237835 L30.5,24.8237835 C30.6618917,24.8237835 30.8237834,24.6618917 30.8237834,24.5 C30.8237834,24.3381083 30.6618917,24.1762165 30.5,24.1762165 C30.3381082,24.1762165 30.1762165,24.3381083 30.1762165,24.5 C30.2571624,24.5 30.2571624,24.5 30.2571624,24.5809459 L30.2571624,24.5809459 Z" id="Path" fill="#000000"></path>
                <path d="M31.7428376,24.5809459 L31.6618917,24.5 C31.5809458,24.5 31.5,24.5809459 31.5,24.6618917 C31.5,24.7428376 31.5809458,24.8237835 31.6618917,24.8237835 L31.5,24.8237835 C31.3381082,24.8237835 31.1762165,24.6618917 31.1762165,24.5 C31.1762165,24.3381083 31.3381082,24.1762165 31.5,24.1762165 C31.6618917,24.1762165 31.8237834,24.3381083 31.8237834,24.5 C31.7428376,24.5 31.7428376,24.5 31.7428376,24.5809459 L31.7428376,24.5809459 Z" id="Path" fill="#000000"></path>
                <polygon id="Path" fill="#000000" points="33.9047293 22.5 33.9047293 22.5 33.9047293 22 33.2571624 22.2857142 33.2571624 22.5 33.2571624 22.5714286 33.0952707 22.5 33.2571624 22.6428572 33.1762165 22.6428572 33.2571624 22.7142857 33.9047293 23"></polygon>
                <rect id="Rectangle" fill="#000000" x="33" y="22" width="1" height="1"></rect>
                <polygon id="Path" fill="#000000" points="33.2571624 22.5809459 33.2571624 22.4190542 33.7428376 22.1762166 33.7428376 22.8237835"></polygon>
                <polyline id="Path" fill="#000000" points="33.5 22.540473 33.5 22.459527 33.5 22.540473 33.5 22.540473"></polyline>
                <path d="M33.5809459,22.7428377 L33.5,22.6618918 C33.5,22.5809458 33.5809459,22.5 33.6618918,22.5 C33.7428376,22.5 33.8237835,22.5809458 33.8237835,22.6618918 L33.8237835,22.5 C33.8237835,22.3381083 33.6618918,22.1762165 33.5,22.1762165 C33.3381083,22.1762165 33.1762166,22.3381083 33.1762166,22.5 C33.1762166,22.6618918 33.3381083,22.8237835 33.5,22.8237835 C33.5,22.8237835 33.5,22.8237835 33.5809459,22.7428377 L33.5809459,22.7428377 Z" id="Path" fill="#000000"></path>
                <path d="M33.5809459,20.2571625 L33.5,20.3381083 C33.5,20.4190542 33.5809459,20.5 33.6618918,20.5 C33.7428376,20.5 33.8237835,20.4190542 33.8237835,20.3381083 L33.8237835,20.5 C33.8237835,20.6618918 33.6618918,20.8237835 33.5,20.8237835 C33.3381083,20.8237835 33.1762166,20.6618918 33.1762166,20.5 C33.1762166,20.3381083 33.3381083,20.1762165 33.5,20.1762165 C33.5,20.1762165 33.5,20.1762165 33.5809459,20.2571625 L33.5809459,20.2571625 Z" id="Path" fill="#000000"></path>
                <polygon id="Path" fill="#000000" points="27.0952706 22.5 27.0952706 22.5 27.0952706 22 27.7428375 22.2857142 27.7428375 22.5 27.7428375 22.5714286 27.9047293 22.5 27.7428375 22.6428572 27.8237834 22.6428572 27.7428375 22.7142857 27.0952706 23"></polygon>
                <rect id="Rectangle" fill="#000000" x="27" y="22" width="1" height="1"></rect>
                <polygon id="Path" fill="#000000" points="28.7428376 22.5809459 28.7428376 22.4190542 28.2571624 22.1762166 28.2571624 22.8237835"></polygon>
                <polyline id="Path" fill="#000000" points="27.5 22.540473 27.5 22.459527 27.5 22.540473 27.5 22.540473"></polyline>
                <path d="M27.419054,22.7428377 L27.5,22.6618918 C27.5,22.5809458 27.419054,22.5 27.3381082,22.5 C27.2571624,22.5 27.1762165,22.5809458 27.1762165,22.6618918 L27.1762165,22.5 C27.1762165,22.3381083 27.3381082,22.1762165 27.5,22.1762165 C27.6618917,22.1762165 27.8237834,22.3381083 27.8237834,22.5 C27.8237834,22.6618918 27.6618917,22.8237835 27.5,22.8237835 C27.5,22.8237835 27.419054,22.8237835 27.419054,22.7428377 L27.419054,22.7428377 Z" id="Path" fill="#000000"></path>
                <path d="M27.419054,20.2571625 L27.5,20.3381083 C27.5,20.4190542 27.419054,20.5 27.3381082,20.5 C27.2571624,20.5 27.1762165,20.4190542 27.1762165,20.3381083 L27.1762165,20.5 C27.1762165,20.6618918 27.3381082,20.8237835 27.5,20.8237835 C27.6618917,20.8237835 27.8237834,20.6618918 27.8237834,20.5 C27.8237834,20.3381083 27.6618917,20.1762165 27.5,20.1762165 C27.5,20.1762165 27.419054,20.1762165 27.419054,20.2571625 L27.419054,20.2571625 Z" id="Path" fill="#000000"></path>
                <g id="Group" transform="translate(14.000000, 52.000000)" fill="#000000">
                    <polygon id="Path" points="3.11868233 0.329005778 3.11868233 9.50461138 14.2879167 9.50461138 14.2879167 0.329005778 17.1164891 0.329005778 17.1164891 21.6778251 14.2879167 21.6778251 14.2879167 11.9173204 3.11868233 11.9173204 3.11868233 21.6778251 0.290109984 21.6778251 0.290109984 0.329005778"></polygon>
                    <polygon id="Path" points="25.2758323 0.329005778 31.948362 18.2780988 38.6571554 0.329005778 42.5011126 0.329005778 42.5011126 21.6778251 39.8175953 21.6778251 39.8175953 3.91151314 39.7450678 3.91151314 33.1450656 21.6778251 30.7516583 21.6778251 24.1516562 3.91151314 24.0791286 3.91151314 24.0791286 21.6778251 21.3956113 21.6778251 21.3956113 0.329005778"></polygon>
                    <path d="M64.0417788,0.329005778 C66.1813398,0.329005778 67.7769452,0.877348739 68.901121,1.97403467 C70.0252972,3.07072059 70.5329896,4.6426371 70.5329896,6.61667174 C70.5329896,8.62726263 69.9890334,10.1626229 68.901121,11.295865 C67.8132085,12.4291071 66.1813398,12.9774501 64.0417788,12.9408939 L57.5868317,12.9408939 L57.5868317,21.6778251 L54.7582596,21.6778251 L54.7582596,0.329005778 L64.0417788,0.329005778 Z M63.0626577,10.5647411 C64.6582626,10.6012973 65.8187027,10.2722915 66.5802413,9.57772376 C67.3055161,8.88315599 67.7044175,7.93269486 67.7044175,6.65322795 C67.7044175,5.37376104 67.3417799,4.42329991 66.5802413,3.72873215 C65.8549665,3.07072059 64.6582626,2.74171482 63.0626577,2.74171482 L57.5505679,2.74171482 L57.5505679,10.5647411 L63.0626577,10.5647411 Z" id="Shape"></path>
                    <path d="M86.7791487,21.6047127 C86.3439839,21.8606061 85.7275001,22.0068309 84.9659615,22.0068309 C84.3132138,22.0068309 83.8055214,21.8240499 83.4066204,21.4584879 C83.007719,21.092926 82.8264004,20.4714706 82.8264004,19.6672343 C82.1373894,20.5080268 81.3395865,21.092926 80.3967293,21.4584879 C79.4901354,21.8240499 78.4747506,22.0068309 77.423102,22.0068309 C76.7340905,22.0068309 76.0813433,21.9337185 75.4648595,21.7509376 C74.8483756,21.5681565 74.3044194,21.3488193 73.8329908,21.0198136 C73.3615622,20.6908078 73.0351884,20.2521335 72.7450783,19.7037905 C72.4912321,19.1554475 72.3461773,18.497436 72.3461773,17.7297558 C72.3461773,16.8524071 72.4912321,16.1212831 72.7813421,15.5729401 C73.0714522,15.0245972 73.4703536,14.5493666 73.9417822,14.2203609 C74.4132108,13.8547989 74.9934308,13.5989055 75.6099147,13.4161245 C76.2263981,13.2333435 76.8791457,13.0871187 77.5318934,12.9774501 C78.2209044,12.8312254 78.873652,12.7215568 79.4901354,12.6484443 C80.1066193,12.575332 80.6505755,12.4656634 81.1220041,12.3559948 C81.5934332,12.20977 81.9560703,12.026989 82.2461804,11.7710956 C82.5362904,11.5152022 82.6450818,11.1496402 82.6450818,10.6744097 C82.6450818,10.1260667 82.5362904,9.65083614 82.318708,9.32183036 C82.1011256,8.99282458 81.8472794,8.73693123 81.5209055,8.55415021 C81.1945317,8.37136923 80.8318941,8.26170064 80.4329931,8.18858826 C80.0340916,8.11547588 79.6351907,8.11547588 79.2362892,8.11547588 C78.1846406,8.11547588 77.2780467,8.33481302 76.5527719,8.73693123 C75.8274971,9.13904939 75.4648595,9.90672954 75.3923318,11.0399716 L72.8538698,11.0399716 C72.8901336,10.0895105 73.107716,9.28527419 73.4340898,8.62726263 C73.796727,7.96925107 74.268156,7.4209081 74.8483756,7.01878994 C75.4285956,6.61667174 76.1176071,6.32422217 76.8791457,6.14144119 C77.6406844,5.95866022 78.4384868,5.88554779 79.3088168,5.88554779 C79.9978278,5.88554779 80.6868393,5.92210401 81.3758503,6.0317726 C82.0648618,6.14144119 82.6813452,6.32422217 83.2253014,6.65322795 C83.7692576,6.94567752 84.2406867,7.38435189 84.5670605,7.96925107 C84.8934339,8.51759404 85.0747529,9.24871798 85.0747529,10.1626229 L85.0747529,18.0953178 C85.0747529,18.6802169 85.1110167,19.1188913 85.1835439,19.4113409 C85.2560715,19.7037905 85.4736539,19.8134591 85.8725553,19.8134591 C86.0901377,19.8134591 86.3439839,19.7769029 86.634094,19.7037905 L86.634094,21.6047127 L86.7791487,21.6047127 Z M82.6813452,13.6720179 C82.3549718,13.9279112 81.9560703,14.0741361 81.4483779,14.1838046 C80.9406855,14.2934732 80.3967293,14.3665856 79.8165092,14.439698 C79.2362892,14.5128104 78.692333,14.5859228 78.112113,14.6955914 C77.5318934,14.7687038 77.0242005,14.9149286 76.5527719,15.1342658 C76.0813433,15.3170468 75.7187057,15.6094964 75.4285956,15.9750583 C75.1384856,16.3406203 74.9934308,16.8524071 74.9934308,17.4738625 C74.9934308,17.8759806 75.0659585,18.2415426 75.2472771,18.5339922 C75.4285956,18.8264417 75.646178,19.0457789 75.9000247,19.2285599 C76.1538709,19.4113409 76.4802443,19.5210095 76.8428819,19.6306781 C77.2055196,19.7037905 77.5681567,19.7403467 77.9670582,19.7403467 C78.8011244,19.7403467 79.5263992,19.6306781 80.1066193,19.4113409 C80.6868393,19.1920037 81.1945317,18.8995541 81.5571693,18.5339922 C81.9198065,18.2049864 82.2099165,17.8028682 82.3912356,17.40075 C82.5725542,16.9986319 82.6450818,16.5965137 82.6450818,16.2675079 L82.6450818,13.6720179 L82.6813452,13.6720179 Z" id="Shape"></path>
                    <path d="M90.6956337,18.2049864 C90.9494799,18.6071046 91.23959,18.8995541 91.6384909,19.1188913 C92.0373924,19.3382285 92.4725572,19.5210095 92.9439862,19.5941219 C93.4154148,19.7037905 93.9231073,19.7403467 94.4307997,19.7403467 C94.8297011,19.7403467 95.2286021,19.7037905 95.6637674,19.6672343 C96.0989322,19.5941219 96.4978332,19.4844533 96.8604708,19.3382285 C97.2231084,19.1920037 97.5132184,18.9361103 97.7670646,18.6436608 C98.0209108,18.3512112 98.1297018,17.949093 98.1297018,17.4738625 C98.1297018,16.8158509 97.8758556,16.3040641 97.404427,15.9750583 C96.8967346,15.6460526 96.2802508,15.353603 95.5549759,15.170822 C94.8297011,14.988041 93.9956349,14.7687038 93.1253048,14.5859228 C92.2549748,14.4031418 91.4571724,14.1838046 90.6956337,13.8547989 C89.9703589,13.5623493 89.3176113,13.1236749 88.8461827,12.5387757 C88.3384902,11.9904328 88.1209074,11.1861965 88.1209074,10.1991791 C88.1209074,9.43149895 88.3022264,8.73693123 88.6286003,8.18858826 C88.9912374,7.64024529 89.4264027,7.1650147 89.9703589,6.83600892 C90.5143151,6.47044697 91.1307985,6.21455357 91.81981,6.06832881 C92.508821,5.88554779 93.1615686,5.81243541 93.8505796,5.81243541 C94.7209097,5.81243541 95.5187121,5.88554779 96.2439869,6.0317726 C96.9692622,6.17799741 97.6220094,6.43389076 98.2022294,6.79945275 C98.7824495,7.1650147 99.2176143,7.6768015 99.5439881,8.29825685 C99.8703619,8.9197122 100.087944,9.72394857 100.124208,10.6378535 L97.5857456,10.6378535 C97.5494822,10.1260667 97.404427,9.72394857 97.1868446,9.39494279 C96.9692622,9.06593701 96.6791522,8.81004361 96.3527784,8.59070642 C96.0264045,8.40792545 95.6637674,8.26170064 95.2286021,8.15203205 C94.8297011,8.07891966 94.4307997,8.00580728 93.9956349,8.00580728 C93.6329972,8.00580728 93.2340963,8.04236345 92.8714586,8.07891966 C92.4725572,8.15203205 92.1461838,8.26170064 91.81981,8.40792545 C91.4934362,8.55415021 91.23959,8.77348739 91.0582714,8.99282458 C90.8769523,9.24871798 90.7681613,9.57772376 90.7681613,9.97984192 C90.7681613,10.4185163 90.9132161,10.7840783 91.23959,11.0765279 C91.5297,11.3689774 91.928601,11.5883146 92.40003,11.8076518 C92.8714586,11.9904328 93.4154148,12.1732138 93.9956349,12.2828824 C94.5758549,12.4291071 95.1923383,12.5387757 95.7725583,12.6850005 C96.3890422,12.8312254 97.005526,12.9774501 97.6220094,13.1967873 C98.2384932,13.3795683 98.7461857,13.6720179 99.2176143,14.0010237 C99.6890433,14.3300295 100.051681,14.7321476 100.341791,15.2439344 C100.631901,15.7557211 100.776956,16.3771765 100.776956,17.1083005 C100.776956,18.0587616 100.595637,18.8264417 100.196736,19.4478971 C99.7978343,20.0693524 99.2901419,20.5811392 98.673658,20.9467012 C98.0571747,21.3122632 97.3318994,21.6047127 96.5703608,21.7509376 C95.8088221,21.8971623 95.0110197,21.9702747 94.2494811,21.9702747 C93.4154148,21.9702747 92.5813486,21.8971623 91.81981,21.7143813 C91.0582714,21.5316004 90.3692599,21.2391508 89.7890399,20.8370326 C89.2088198,20.4349144 88.7373912,19.8865715 88.3747536,19.2285599 C88.0121164,18.5705483 87.8307974,17.766312 87.794534,16.7792947 L90.3329961,16.7792947 C90.3329961,17.3641939 90.4417875,17.8394244 90.6956337,18.2049864 Z" id="Path"></path>
                    <path d="M105.164869,18.2049864 C105.418715,18.6071046 105.708825,18.8995541 106.107727,19.1188913 C106.506628,19.3382285 106.941793,19.5210095 107.413221,19.5941219 C107.88465,19.7037905 108.392342,19.7403467 108.900035,19.7403467 C109.298936,19.7403467 109.697838,19.7037905 110.133003,19.6672343 C110.568167,19.5941219 110.967069,19.4844533 111.329706,19.3382285 C111.692344,19.1920037 111.982454,18.9361103 112.2363,18.6436608 C112.490146,18.3512112 112.598937,17.949093 112.598937,17.4738625 C112.598937,16.8158509 112.345091,16.3040641 111.873663,15.9750583 C111.36597,15.6460526 110.749486,15.353603 110.024211,15.170822 C109.298936,14.988041 108.46487,14.7687038 107.59454,14.5859228 C106.72421,14.4031418 105.926408,14.1838046 105.164869,13.8547989 C104.439594,13.5623493 103.786847,13.1236749 103.315418,12.5387757 C102.807725,11.9904328 102.590143,11.1861965 102.590143,10.1991791 C102.590143,9.43149895 102.771462,8.73693123 103.097835,8.18858826 C103.460473,7.64024529 103.895638,7.1650147 104.439594,6.83600892 C104.98355,6.47044697 105.600034,6.21455357 106.289045,6.06832881 C106.978057,5.88554779 107.630804,5.81243541 108.319815,5.81243541 C109.190145,5.81243541 109.987948,5.88554779 110.713223,6.0317726 C111.438497,6.17799741 112.091245,6.43389076 112.671465,6.79945275 C113.251685,7.1650147 113.68685,7.6768015 114.013224,8.29825685 C114.339598,8.9197122 114.55718,9.72394857 114.593444,10.6378535 L112.054981,10.6378535 C112.018717,10.1260667 111.873663,9.72394857 111.65608,9.39494279 C111.438497,9.06593701 111.148387,8.81004361 110.822014,8.59070642 C110.49564,8.40792545 110.096739,8.26170064 109.697838,8.15203205 C109.298936,8.07891966 108.900035,8.00580728 108.46487,8.00580728 C108.102233,8.00580728 107.703331,8.04236345 107.340694,8.07891966 C106.941793,8.15203205 106.615419,8.26170064 106.289045,8.40792545 C105.962671,8.55415021 105.708825,8.77348739 105.527507,8.99282458 C105.346188,9.24871798 105.237397,9.57772376 105.237397,9.97984192 C105.237397,10.4185163 105.382452,10.7840783 105.708825,11.0765279 C105.998935,11.3689774 106.397837,11.5883146 106.869265,11.8076518 C107.340694,11.9904328 107.88465,12.1732138 108.46487,12.2828824 C109.04509,12.392551 109.661574,12.5387757 110.241794,12.6850005 C110.858277,12.8312254 111.474761,12.9774501 112.091245,13.1967873 C112.707729,13.3795683 113.215421,13.6720179 113.68685,14.0010237 C114.158279,14.3300295 114.520916,14.7321476 114.811026,15.2439344 C115.101136,15.7557211 115.246191,16.3771765 115.246191,17.1083005 C115.246191,18.0587616 115.064872,18.8264417 114.665971,19.4478971 C114.26707,20.0693524 113.759378,20.5811392 113.142894,20.9467012 C112.52641,21.3122632 111.801135,21.6047127 111.039596,21.7509376 C110.241794,21.8971623 109.480255,21.9702747 108.718716,21.9702747 C107.88465,21.9702747 107.050584,21.8971623 106.289045,21.7143813 C105.527507,21.5316004 104.838496,21.2391508 104.258276,20.8370326 C103.678055,20.4349144 103.206627,19.8865715 102.843989,19.2285599 C102.481352,18.5705483 102.300033,17.766312 102.263769,16.7792947 L104.802232,16.7792947 C104.802232,17.3641939 104.911023,17.8394244 105.164869,18.2049864 Z" id="Path"></path>
                    <path d="M120.323116,6.21455357 L120.323116,8.29825685 L120.395643,8.29825685 C120.794545,7.45746432 121.447292,6.83600892 122.353886,6.43389076 C123.26048,6.0317726 124.239601,5.84899163 125.291249,5.84899163 C126.487953,5.84899163 127.503338,6.06832881 128.373668,6.50700314 C129.243998,6.94567752 129.969273,7.5305767 130.585756,8.29825685 C131.165976,9.02938079 131.601142,9.90672954 131.891252,10.8937469 C132.181362,11.8807642 132.326416,12.9043377 132.326416,14.0010237 C132.326416,15.0977096 132.181362,16.1212831 131.891252,17.1083005 C131.601142,18.0953178 131.165976,18.9361103 130.585756,19.6672343 C130.005537,20.3983582 129.280261,20.9832574 128.373668,21.3853756 C127.503338,21.7874937 126.487953,22.0068309 125.291249,22.0068309 C124.928612,22.0068309 124.493447,21.9702747 124.022018,21.8971623 C123.550589,21.8240499 123.115424,21.6778251 122.643996,21.4950442 C122.172567,21.3122632 121.773666,21.0563698 121.338501,20.7639202 C120.939599,20.4714706 120.576962,20.0693524 120.323116,19.6306781 L120.250588,19.6306781 L120.250588,27.5999291 L117.712126,27.5999291 L117.712126,6.21455357 L120.323116,6.21455357 Z M129.389053,11.6979832 C129.207734,11.0034155 128.917624,10.3819601 128.518723,9.87017333 C128.119822,9.32183036 127.648393,8.9197122 127.031909,8.59070642 C126.415425,8.26170064 125.726414,8.11547588 124.928612,8.11547588 C124.094545,8.11547588 123.369271,8.29825685 122.752787,8.62726263 C122.172567,8.95626841 121.664874,9.39494279 121.302237,9.94328575 C120.939599,10.4916287 120.649489,11.1130841 120.504435,11.8076518 C120.323116,12.5022196 120.250588,13.1967873 120.250588,13.9279112 C120.250588,14.6955914 120.323116,15.4267154 120.504435,16.1212831 C120.685753,16.8158509 120.975863,17.4373062 121.338501,17.9856492 C121.737402,18.5339922 122.20883,18.9726665 122.825314,19.3016723 C123.441798,19.6306781 124.167073,19.7769029 125.037403,19.7769029 C125.907733,19.7769029 126.633008,19.5941219 127.213228,19.2651161 C127.793448,18.9361103 128.264877,18.4608797 128.627514,17.9125368 C128.990151,17.3641939 129.243998,16.7061823 129.389053,16.0116145 C129.534108,15.2804906 129.642899,14.5493666 129.642899,13.7816865 C129.642899,13.0871187 129.570371,12.392551 129.389053,11.6979832 Z" id="Shape"></path>
                    <path d="M134.574769,10.7840783 C134.901143,9.79706095 135.372571,8.95626841 135.989055,8.22514447 C136.605538,7.49402048 137.403341,6.90912135 138.346199,6.50700314 C139.289056,6.10488498 140.340704,5.88554779 141.537408,5.88554779 C142.770376,5.88554779 143.822025,6.10488498 144.764882,6.50700314 C145.671476,6.90912135 146.469278,7.49402048 147.085762,8.22514447 C147.702245,8.95626841 148.209938,9.79706095 148.500048,10.7840783 C148.826422,11.7710956 148.971477,12.8312254 148.971477,13.9644675 C148.971477,15.0977096 148.826422,16.1578393 148.500048,17.1448567 C148.173674,18.131874 147.702245,18.9726665 147.085762,19.7037905 C146.469278,20.4349144 145.671476,20.9832574 144.764882,21.4219318 C143.858288,21.8240499 142.770376,22.0433871 141.537408,22.0433871 C140.340704,22.0433871 139.252792,21.8240499 138.346199,21.4219318 C137.403341,21.0198136 136.641802,20.4349144 135.989055,19.7037905 C135.372571,18.9726665 134.864879,18.131874 134.574769,17.1448567 C134.248395,16.1578393 134.10334,15.0977096 134.10334,13.9644675 C134.10334,12.8312254 134.248395,11.7710956 134.574769,10.7840783 Z M137.149495,16.4502889 C137.403341,17.1814128 137.729715,17.8028682 138.16488,18.2780988 C138.600045,18.7533294 139.107737,19.1554475 139.687957,19.4113409 C140.268177,19.6672343 140.884661,19.8134591 141.537408,19.8134591 C142.190156,19.8134591 142.806639,19.6672343 143.386859,19.4113409 C143.967079,19.1554475 144.474772,18.7898855 144.909937,18.2780988 C145.345102,17.8028682 145.671476,17.1814128 145.925322,16.4502889 C146.179168,15.719165 146.287959,14.8783724 146.287959,13.9644675 C146.287959,13.0140063 146.179168,12.20977 145.925322,11.478646 C145.671476,10.7475221 145.345102,10.1260667 144.909937,9.65083614 C144.474772,9.13904939 143.967079,8.77348739 143.386859,8.51759404 C142.806639,8.26170064 142.190156,8.11547588 141.537408,8.11547588 C140.884661,8.11547588 140.268177,8.26170064 139.687957,8.51759404 C139.107737,8.77348739 138.600045,9.13904939 138.16488,9.65083614 C137.729715,10.1626229 137.403341,10.7475221 137.149495,11.478646 C136.895649,12.20977 136.786858,13.0505625 136.786858,13.9644675 C136.786858,14.8783724 136.895649,15.719165 137.149495,16.4502889 Z" id="Shape"></path>
                    <path d="M153.903346,6.21455357 L153.903346,9.46805517 L153.975874,9.46805517 C154.592358,8.22514447 155.353896,7.2746833 156.224226,6.68978416 C157.13082,6.10488498 158.254996,5.81243541 159.596755,5.84899163 L159.596755,8.55415021 C158.58137,8.55415021 157.71104,8.70037501 157.022029,8.95626841 C156.296754,9.24871798 155.752798,9.65083614 155.317633,10.1991791 C154.882468,10.7475221 154.556094,11.4055336 154.374775,12.1732138 C154.193456,12.9408939 154.084665,13.8182427 154.084665,14.80526 L154.084665,21.6778251 L151.546203,21.6778251 L151.546203,6.21455357 L153.903346,6.21455357 Z" id="Path"></path>
                    <path d="M167.68357,6.21455357 L167.68357,8.44448161 L164.637416,8.44448161 L164.637416,18.0587616 C164.637416,18.3512112 164.67368,18.6071046 164.709943,18.7898855 C164.746207,18.9726665 164.854998,19.1188913 165.000053,19.1920037 C165.145108,19.3016723 165.326427,19.3382285 165.580273,19.3747847 C165.834119,19.4113409 166.160493,19.4113409 166.559395,19.4113409 L167.719834,19.4113409 L167.719834,21.641269 L165.797856,21.641269 C165.145108,21.641269 164.601152,21.6047127 164.129724,21.4950442 C163.658294,21.3853756 163.295657,21.2391508 163.005547,21.0198136 C162.715437,20.7639202 162.497855,20.4349144 162.3528,19.9962401 C162.207745,19.5575657 162.135217,18.9726665 162.135217,18.2780988 L162.135217,8.44448161 L159.524228,8.44448161 L159.524228,6.21455357 L162.135217,6.21455357 L162.135217,1.5719165 L164.67368,1.5719165 L164.67368,6.21455357 L167.68357,6.21455357 Z" id="Path"></path>
                </g>
                <g id="Group" transform="translate(13.000000, 88.000000)" fill="#000000">
                    <path d="M0.87247041,7.01638766 C1.30870562,5.69858898 1.92670549,4.55887115 2.7991759,3.52600192 C3.63529338,2.52874886 4.72588141,1.70957669 5.99823409,1.10410161 C7.27058677,0.498626533 8.76105705,0.213697086 10.433292,0.213697086 C12.105527,0.213697086 13.5959973,0.498626533 14.8683499,1.10410161 C16.1407026,1.70957669 17.1949377,2.52874886 18.0674081,3.52600192 C18.9035256,4.523255 19.5578784,5.69858898 19.9941136,7.01638766 C20.4303488,8.33418634 20.6484664,9.68760126 20.6484664,11.1122485 C20.6484664,12.5368957 20.4303488,13.8903106 19.9941136,15.2081093 C19.5578784,16.525908 18.9398785,17.6656258 18.0674081,18.6984951 C17.2312906,19.6957481 16.1407026,20.5149203 14.8683499,21.0847792 C13.5959973,21.6902543 12.105527,21.9751837 10.433292,21.9751837 C8.76105705,21.9751837 7.27058677,21.6902543 5.99823409,21.0847792 C4.72588141,20.4793041 3.67164632,19.6957481 2.7991759,18.6984951 C1.96305843,17.701242 1.30870562,16.525908 0.87247041,15.2081093 C0.436235206,13.8903106 0.218117603,12.5368957 0.218117603,11.1122485 C0.218117603,9.68760126 0.436235206,8.33418634 0.87247041,7.01638766 Z M3.45352871,14.2108562 C3.74435219,15.2437255 4.18058739,16.13413 4.76223431,16.9533022 C5.34388127,17.7724743 6.10729289,18.4135656 7.05246916,18.9121922 C7.99764543,19.4108187 9.08823346,19.6601319 10.3969391,19.6601319 C11.6692918,19.6601319 12.7962327,19.4108187 13.741409,18.9121922 C14.6865853,18.4135656 15.4499969,17.7724743 16.0316438,16.9533022 C16.6132908,16.13413 17.049526,15.2081093 17.3403494,14.2108562 C17.6311729,13.177987 17.7402317,12.1451177 17.7402317,11.1122485 C17.7402317,10.0793792 17.59482,9.04651 17.3403494,8.01364076 C17.049526,6.98077147 16.6132908,6.09036696 16.0316438,5.27119481 C15.4499969,4.45202265 14.6865853,3.81093137 13.741409,3.31230484 C12.7962327,2.8136783 11.7056447,2.56436503 10.3969391,2.56436503 C9.12458641,2.56436503 7.99764543,2.8136783 7.05246916,3.31230484 C6.10729289,3.81093137 5.34388127,4.45202265 4.76223431,5.27119481 C4.18058739,6.09036696 3.74435219,7.01638766 3.45352871,8.01364076 C3.16270524,9.04651 3.05364644,10.0793792 3.05364644,11.1122485 C3.05364644,12.1451177 3.19905818,13.177987 3.45352871,14.2108562 Z" id="Shape"></path>
                    <path d="M21.7027015,8.61911582 L21.7027015,6.44652875 L24.2837598,6.44652875 L24.2837598,4.20270936 C24.2837598,2.99175921 24.6472892,2.0657385 25.3743478,1.42464724 C26.1014065,0.783555982 27.1556416,0.463010354 28.5370531,0.463010354 C28.7915236,0.463010354 29.0459941,0.498626533 29.3368176,0.534242716 C29.6276411,0.569858898 29.9184645,0.64109126 30.1365821,0.712323621 L30.1365821,2.88491067 C29.9184645,2.8136783 29.663994,2.74244594 29.4095235,2.74244594 C29.1550529,2.70682976 28.9005824,2.70682976 28.6824648,2.70682976 C28.0644649,2.70682976 27.5918768,2.8136783 27.2647004,3.06299157 C26.937524,3.31230484 26.7557593,3.73969901 26.7557593,4.41640646 L26.7557593,6.51776114 L29.7366999,6.51776114 L29.7366999,8.69034817 L26.7557593,8.69034817 L26.7557593,21.5834057 L24.211054,21.5834057 L24.211054,8.69034817 L21.7027015,8.69034817 L21.7027015,8.61911582 Z" id="Path"></path>
                    <path d="M29.5912881,8.61911582 L29.5912881,6.44652875 L32.1723464,6.44652875 L32.1723464,4.20270936 C32.1723464,2.99175921 32.5358758,2.0657385 33.2629345,1.42464724 C33.9899931,0.783555982 35.0442282,0.463010354 36.4256397,0.463010354 C36.6801102,0.463010354 36.9345808,0.498626533 37.2254043,0.534242716 C37.5162277,0.569858898 37.8070512,0.64109126 38.0251688,0.712323621 L38.0251688,2.88491067 C37.8070512,2.8136783 37.5525807,2.74244594 37.2981101,2.74244594 C37.0436396,2.70682976 36.789169,2.70682976 36.5710514,2.70682976 C35.9530516,2.70682976 35.4804634,2.8136783 35.153287,3.06299157 C34.8261106,3.31230484 34.6443459,3.73969901 34.6443459,4.41640646 L34.6443459,6.51776114 L37.6252865,6.51776114 L37.6252865,8.69034817 L34.6443459,8.69034817 L34.6443459,21.5834057 L32.0996406,21.5834057 L32.0996406,8.69034817 L29.5912881,8.69034817 L29.5912881,8.61911582 Z" id="Path"></path>
                    <path d="M39.7337567,3.73969901 L39.7337567,0.712323621 L42.2784621,0.712323621 L42.2784621,3.73969901 L39.7337567,3.73969901 Z M42.2421091,6.44652875 L42.2421091,21.5121734 L39.6974038,21.5121734 L39.6974038,6.44652875 L42.2421091,6.44652875 Z" id="Shape"></path>
                    <path d="M55.0019888,9.08212615 C54.3839892,8.54788343 53.5115187,8.29857019 52.4572837,8.29857019 C51.5484602,8.29857019 50.7850487,8.47665108 50.1670487,8.79719672 C49.5490487,9.11774235 49.0764606,9.58075272 48.7129311,10.1149954 C48.3494021,10.6492381 48.0949316,11.2903294 47.9131666,12.002653 C47.7677551,12.7149766 47.6586961,13.4273003 47.6586961,14.2108562 C47.6586961,14.9231799 47.7314021,15.5998873 47.9131666,16.2409786 C48.0949316,16.917686 48.3494021,17.4875449 48.7129311,17.9861714 C49.0764606,18.484798 49.5490487,18.9121922 50.0943427,19.2327377 C50.6759897,19.5532834 51.3666957,19.6957481 52.1301072,19.6957481 C53.3661067,19.6957481 54.3476362,19.3752025 55.0746948,18.7341112 C55.7654003,18.09302 56.2016358,17.2026155 56.3834003,16.0272815 L58.9644588,16.0272815 C58.6736353,17.8793229 57.9829293,19.3395863 56.8559883,20.3368394 C55.7290478,21.3340924 54.1658713,21.8683351 52.2028132,21.8683351 C51.0395192,21.8683351 49.9852841,21.6902543 49.1128136,21.2984763 C48.2039901,20.9423144 47.4405786,20.4080717 46.8589316,19.7313643 C46.240932,19.0546569 45.8046966,18.2354847 45.4775201,17.309464 C45.1866966,16.3834433 45.004932,15.350574 45.004932,14.2108562 C45.004932,13.0711384 45.150344,12.0382692 45.4411675,11.0410161 C45.7319906,10.043763 46.204579,9.1889747 46.786226,8.47665108 C47.4042256,7.76432747 48.1312846,7.1588524 49.0764606,6.76707438 C49.9852841,6.3396802 51.0395192,6.12598316 52.2755187,6.12598316 C53.1479892,6.12598316 53.9477537,6.2328317 54.7111653,6.44652875 C55.4745772,6.66022584 56.1652828,6.98077147 56.7469298,7.40816564 C57.3285768,7.83555982 57.8011648,8.36980254 58.2010469,9.0108938 C58.5645763,9.65198507 58.8190469,10.435541 58.9281058,11.3259456 L56.3106943,11.3259456 C56.0562238,10.3286925 55.6563418,9.58075272 55.0019888,9.08212615 Z" id="Path"></path>
                    <path d="M72.3059852,20.5505365 C71.1426916,21.4053248 69.7249271,21.832719 67.9799861,21.832719 C66.7439865,21.832719 65.6897515,21.6546381 64.780928,21.2628601 C63.8721049,20.8710821 63.108693,20.3368394 62.4906934,19.6245158 C61.8726934,18.9121922 61.4001054,18.09302 61.1092819,17.1313831 C60.8184584,16.1697462 60.6366939,15.1012608 60.6003409,13.961543 C60.6003409,12.8218252 60.7821054,11.7533398 61.1456349,10.8273191 C61.5091639,9.86568216 62.0181049,9.04651 62.6361049,8.33418634 C63.2904579,7.62186273 64.0538695,7.08762001 64.92634,6.69584203 C65.79881,6.30406405 66.7803395,6.12598316 67.8345746,6.12598316 C69.2159861,6.12598316 70.3429271,6.4109126 71.2517501,6.94515532 C72.1605737,7.51501419 72.8876322,8.19172165 73.4329262,9.04651 C73.9782202,9.90129835 74.3417497,10.8273191 74.5598672,11.8601883 C74.7779847,12.8574413 74.8506907,13.8190782 74.8143377,14.7450989 L63.2904579,14.7450989 C63.2541049,15.4218064 63.3631635,16.0272815 63.5449284,16.6327565 C63.726693,17.2382316 64.0175165,17.7368582 64.417399,18.1998685 C64.817281,18.6628789 65.326222,19.0190407 65.944222,19.3039701 C66.562222,19.5888996 67.2892805,19.6957481 68.1253981,19.6957481 C69.1796331,19.6957481 70.0884566,19.4464348 70.7428091,18.9834245 C71.4335151,18.484798 71.8697501,17.7724743 72.0878677,16.7752213 L74.5962202,16.7752213 C74.1963382,18.4135656 73.4692792,19.6957481 72.3059852,20.5505365 Z M71.7243386,10.8629352 C71.5062207,10.3286925 71.1790446,9.90129835 70.8155151,9.50952033 C70.4156326,9.11774235 69.9793976,8.83281291 69.4341036,8.61911582 C68.9251626,8.40541874 68.3435156,8.29857019 67.689163,8.29857019 C67.03481,8.29857019 66.453163,8.40541874 65.907869,8.61911582 C65.398928,8.83281291 64.92634,9.15335854 64.5628105,9.54513652 C64.199281,9.9369145 63.8721049,10.3999249 63.653987,10.8985514 C63.4358695,11.3971779 63.2904579,11.9670368 63.2541049,12.5368957 L72.0878677,12.5368957 C72.0878677,11.9670368 71.9424561,11.3971779 71.7243386,10.8629352 Z" id="Shape"></path>
                </g>
            </g>
        </g>
    </g>
</svg>
