<?xml version="1.0" encoding="utf-8"?>
<!-- Generator: Adobe Illustrator 19.0.0, SVG Export Plug-In . SVG Version: 6.00 Build 0)  -->
<svg version="1.1"
	 id="Layer_1" xmlns:rdf="http://www.w3.org/1999/02/22-rdf-syntax-ns#" xmlns:dc="http://purl.org/dc/elements/1.1/" xmlns:cc="http://creativecommons.org/ns#"
	 xmlns="http://www.w3.org/2000/svg" xmlns:xlink="http://www.w3.org/1999/xlink" x="0px" y="0px" viewBox="-255 299.2 188.1 103.8"
	 style="enable-background:new -255 299.2 188.1 103.8;" xml:space="preserve">
<style type="text/css">
	.st0{fill:#7F3F98;}
	.st1{enable-background:new    ;}
</style>
<g>
	<rect x="-237.5" y="318.4" class="st0" width="2.2" height="65"/>
	<path d="M-213.4,321.4v1.3c0.7,0,1.1,0.2,1.4,0.2C-212.2,322.1-212.7,321.6-213.4,321.4"/>
	<path d="M-214.2,320.5L-214.2,320.5c0,0.4-0.1,0.7-0.2,0.9c0,0,0.2-0.1,0.5-0.1c0.2,0,0.5,0.1,0.5,0.1c-0.1-0.2-0.2-0.5-0.2-0.9
		l0,0c1,0,1.2,0.4,1.2,0.8h0.2v-1.1v-1.1h-0.2c0,0.4-0.3,0.8-1.2,0.8c0-1,0.4-1.2,0.8-1.2v-0.2h-1.1h-1.1v0.2c0.4,0,0.8,0.3,0.8,1.2
		c-1,0-1.2-0.4-1.2-0.8h-0.2v1.1v1.1h0.2C-215.5,320.9-215.2,320.5-214.2,320.5"/>
	<path d="M-214.5,321.4c-0.7,0.2-1.2,0.8-1.4,1.5c0.3-0.1,0.7-0.2,1.4-0.2V321.4z"/>
	<path d="M-213.3,353.6c0,0.4,0.4,0.8,0.8,0.8s0.8-0.4,0.8-0.8c0-0.4-0.4-0.8-0.8-0.8C-212.9,352.9-213.3,353.3-213.3,353.6
		 M-212.8,353.6c0-0.2,0.2-0.4,0.4-0.4c0.2,0,0.4,0.2,0.4,0.4s-0.2,0.4-0.4,0.4C-212.7,354.1-212.8,354-212.8,353.6"/>
	<path d="M-214.8,342.9c0-0.4-0.3-0.7-0.7-0.7h-0.1h-4c-0.4,0-0.6,0.3-0.6,0.6s0.2,0.4,0.4,0.4c0.3,0,0.4-0.2,0.4-0.5
		c0.1,0.1,0.2,0.2,0.3,0.2c-0.1,0.3-0.1,0.6-0.2,1c-0.1-0.1-0.2-0.1-0.3-0.1c-0.2,0-0.3,0.1-0.3,0.3s0.1,0.3,0.3,0.3
		c0.1,0,0.2-0.1,0.3-0.1c0,0.2,0,0.4,0,0.7c-0.1,0-0.1-0.1-0.2-0.1c-0.2,0-0.3,0.1-0.3,0.3s0.1,0.3,0.3,0.3c0.1,0,0.2-0.1,0.3-0.2
		v0.1c0.1,0.2,0.1,0.4,0.2,0.5c0,0-0.1,0-0.2,0c-0.2,0-0.3,0.1-0.3,0.3s0.1,0.3,0.3,0.3c0.2,0,0.3-0.1,0.3-0.3
		c0.1,0.2,0.2,0.4,0.4,0.6c0,0,0,0-0.1,0c-0.2,0-0.3,0.1-0.3,0.3s0.1,0.3,0.3,0.3c0.2,0,0.3-0.1,0.3-0.3l0,0
		c0.5,0.5,1.1,0.9,1.8,1.2l-0.1,1c0,0,0.3,0.1,0.7,0.3s0.9,0.2,0.9,0.2L-214.8,342.9z M-218.5,343.3L-218.5,343.3l2.3,4.6
		C-219,346.6-218.7,344.3-218.5,343.3 M-216.1,347.6l-2.1-4.2c0.1,0,0.3,0,0.4,0l1.8,3.6L-216.1,347.6z M-216,346.6l-1.6-3.2
		c0.1,0,0.2,0,0.3-0.1l1.3,2.7L-216,346.6z M-215.9,345.6l-1.2-2.4c0.1,0,0.2-0.1,0.3-0.1l1,2L-215.9,345.6z M-215.7,344.8l-0.9-1.7
		c0.1-0.1,0.2-0.1,0.3-0.2l0.7,1.3L-215.7,344.8z M-215.5,343.1l-0.1,0.7l-0.5-1.1c0.1,0,0.1,0,0.2,0
		C-215.7,342.6-215.5,342.9-215.5,343.1"/>
	<path d="M-217.5,324.5c0-0.3,0.2-0.5,0.5-0.5s0.5,0.2,0.5,0.5s-0.2,0.5-0.5,0.5C-217.3,325-217.5,324.8-217.5,324.5"/>
	<path d="M-223.8,327.8c0-0.3,0.2-0.5,0.5-0.5s0.5,0.2,0.5,0.5s-0.2,0.5-0.5,0.5S-223.8,328.1-223.8,327.8"/>
	<path d="M-224.1,326.6c0-0.3,0.2-0.5,0.5-0.5s0.5,0.2,0.5,0.5s-0.2,0.5-0.5,0.5S-224.1,326.9-224.1,326.6"/>
	<path d="M-224,325.4c0-0.3,0.2-0.5,0.5-0.5s0.5,0.2,0.5,0.5s-0.2,0.5-0.5,0.5C-223.8,325.8-224,325.6-224,325.4"/>
	<path d="M-223.3,324.3c0-0.3,0.2-0.5,0.5-0.5s0.5,0.2,0.5,0.5s-0.2,0.5-0.5,0.5S-223.3,324.6-223.3,324.3"/>
	<path d="M-222.3,323.5c0-0.3,0.2-0.5,0.5-0.5s0.5,0.2,0.5,0.5s-0.2,0.5-0.5,0.5C-222.1,324.1-222.3,323.8-222.3,323.5"/>
	<path d="M-221.1,323.3c0-0.3,0.2-0.5,0.5-0.5s0.5,0.2,0.5,0.5s-0.2,0.5-0.5,0.5C-220.8,323.8-221.1,323.6-221.1,323.3"/>
	<path d="M-219.8,323.6c0-0.3,0.2-0.5,0.5-0.5s0.5,0.2,0.5,0.5s-0.2,0.5-0.5,0.5S-219.8,323.9-219.8,323.6"/>
	<path d="M-218.7,324.1c0-0.3,0.2-0.5,0.5-0.5s0.5,0.2,0.5,0.5s-0.2,0.5-0.5,0.5C-218.4,324.5-218.7,324.3-218.7,324.1"/>
	<path d="M-210.4,324.5c0-0.3-0.2-0.5-0.5-0.5s-0.5,0.2-0.5,0.5s0.2,0.5,0.5,0.5S-210.4,324.8-210.4,324.5"/>
	<path d="M-204.1,327.8c0-0.3-0.2-0.5-0.5-0.5s-0.5,0.2-0.5,0.5s0.2,0.5,0.5,0.5S-204.1,328.1-204.1,327.8"/>
	<path d="M-203.8,326.6c0-0.3-0.2-0.5-0.5-0.5s-0.5,0.2-0.5,0.5s0.2,0.5,0.5,0.5C-204,327.1-203.8,326.9-203.8,326.6"/>
	<path d="M-203.9,325.4c0-0.3-0.2-0.5-0.5-0.5s-0.5,0.2-0.5,0.5s0.2,0.5,0.5,0.5C-204.1,325.8-203.9,325.6-203.9,325.4"/>
	<path d="M-204.6,324.3c0-0.3-0.2-0.5-0.5-0.5s-0.5,0.2-0.5,0.5s0.2,0.5,0.5,0.5S-204.6,324.6-204.6,324.3"/>
	<path d="M-205.6,323.5c0-0.3-0.2-0.5-0.5-0.5s-0.5,0.2-0.5,0.5s0.2,0.5,0.5,0.5C-205.8,324.1-205.6,323.8-205.6,323.5"/>
	<path d="M-206.8,323.3c0-0.3-0.2-0.5-0.5-0.5s-0.5,0.2-0.5,0.5s0.2,0.5,0.5,0.5C-207.1,323.8-206.8,323.6-206.8,323.3"/>
	<path d="M-208.1,323.6c0-0.3-0.2-0.5-0.5-0.5s-0.5,0.2-0.5,0.5s0.2,0.5,0.5,0.5S-208.1,323.9-208.1,323.6"/>
	<path d="M-209.3,324.1c0-0.3-0.2-0.5-0.5-0.5s-0.5,0.2-0.5,0.5s0.2,0.5,0.5,0.5C-209.5,324.5-209.3,324.3-209.3,324.1"/>
	<path d="M-209.7,331.5c0-0.3-0.3-0.5-0.5-0.5c-0.3,0-0.5,0.3-0.5,0.5c0,0.3,0.3,0.5,0.5,0.5S-209.7,331.8-209.7,331.5"/>
	<path d="M-213.3,334.8v6.2h5.5v-6.2H-213.3z M-208,340.8h-5.2V335h2h0.8h2.4L-208,340.8L-208,340.8z"/>
	<path d="M-212.6,335.1L-212.6,335.1h-0.3v5.1v0.3h0.3h4.1h0.3v-0.3v-4.8v-0.3h-0.3h-1.8h-0.9H-212.6z M-208.5,335.3v0.2h0.2v4.8
		h-0.2v0.2h-4.1v-0.2h-0.2v-4.8h0.2v-0.2H-208.5z"/>
	<path d="M-208.7,336.6l-0.3,0.3l0,0l0,0l0,0l-0.5,0.4c-0.2,0.1-0.2,0.4-0.1,0.5l0.3,0.4v0.1c0,0,0,0.1-0.1,0.1h-0.1
		c0,0-0.1,0-0.1-0.1c0,0-0.3-0.4-0.4-0.6v-0.5l0.7-0.6v-0.5l-0.2-0.2l0.3-0.3h-1.2l-0.3,0.3v0.3h0.1c0.1,0,0.3,0.1,0.3,0.3
		c0,0.1-0.1,0.3-0.3,0.3h-0.1v0.4h-0.4l-0.5-0.7c0.1-0.1,0.1-0.2,0.1-0.3c0-0.2-0.2-0.3-0.3-0.3c-0.1,0-0.1,0-0.2,0.1v0.2v0.3l0,0
		l0,0l0.4,0.6l0.2,0.3h0.4h0.1l-0.3,0.3h-0.6c0-0.1-0.2-0.2-0.3-0.2c-0.1,0-0.3,0.1-0.3,0.2v0.1c0,0,0,0.2,0.1,0.2h0.5h0.8l0.2,0.3
		h-0.5h-0.4l0,0l0.4,0.5l0.2,0.3h-0.4c0-0.1-0.2-0.2-0.3-0.2c-0.1,0-0.3,0.1-0.3,0.2v0.1c0,0.1,0,0.2,0.1,0.2h0.5h0.8h0.4l-0.2-0.3
		l-0.2-0.3h0.5l0.2,0.3l0.2,0.3h0.7h0.1v0.4h-0.1c0-0.1-0.2-0.2-0.3-0.2c-0.2,0-0.3,0.1-0.3,0.2v0.1c0,0.1,0,0.2,0.1,0.2h1v-0.7
		v-0.4h-0.3h-0.3l-0.3-0.4c0.1,0.1,0.1,0.1,0.2,0.1s0.2,0,0.3-0.1s0.1-0.2,0.2-0.3c0-0.1,0-0.2-0.1-0.3l-0.3-0.4
		c-0.1-0.1,0-0.2,0-0.2l0.1-0.1c0.1,0.1,0.3,0.1,0.4,0s0.1-0.1,0.1-0.2l0,0l0,0L-208.7,336.6z"/>
	<polygon points="-214.7,331.5 -214,330.8 -213.2,331.5 -214,332.1 	"/>
	<path d="M-218.2,331.5c0-0.3,0.3-0.5,0.5-0.5s0.5,0.3,0.5,0.5c0,0.3-0.3,0.5-0.5,0.5C-217.9,332-218.2,331.8-218.2,331.5"/>
	<path d="M-208.2,345.4L-208.2,345.4L-208.2,345.4c0-0.1,0-0.1,0-0.2c0-0.2-0.2-0.4-0.4-0.4h-1.4c0-0.2-0.2-0.3-0.3-0.3
		c-0.1,0-0.2,0-0.2,0.1l-0.4,0.4h0.4l0,0h0.5h1.4c0.1,0,0.2,0.1,0.2,0.2s-0.1,0.2-0.2,0.2l0,0h-0.9l0,0h-1.8v-0.4l0.5-0.5h-1.9
		l0.5,0.5v0.7l-0.8-0.6c0.1-0.1,0.1-0.2,0.1-0.3c0-0.2-0.2-0.3-0.3-0.3c-0.1,0-0.2,0-0.2,0.1v0.5l0,0v0.1l1.2,1l-0.5,0.2
		c0-0.1-0.2-0.2-0.3-0.2c-0.2,0-0.3,0.2-0.3,0.3s0,0.2,0.1,0.2h0.4h0.3l2.9-0.9v0.4l-0.4,0.2c0-0.2-0.2-0.3-0.3-0.3
		c-0.2,0-0.3,0.2-0.3,0.3s0,0.2,0.1,0.2h0.4h0.4l0.4-0.2l0.3-0.1l-0.1-0.3v-0.1h1.1v0.1c0,0.1-0.1,0.2-0.1,0.2
		c-0.1-0.1-0.2-0.1-0.3-0.1c-0.2,0-0.3,0.2-0.3,0.3s0,0.2,0.1,0.2h0.5h0.2c0.1-0.2,0.2-0.4,0.2-0.5c0.1-0.3,0.2-0.5,0.2-0.6
		C-207.9,345.4-208.2,345.4-208.2,345.4 M-211.7,345.4l-0.3-0.3h0.6L-211.7,345.4z"/>
	<path d="M-208.2,343c0-0.1,0-0.1,0-0.2c0-0.2-0.2-0.4-0.4-0.4h-1.4c0-0.2-0.2-0.3-0.3-0.3c-0.1,0-0.2,0-0.2,0.1l-0.4,0.4h0.4l0,0
		h0.5h1.5c0.1,0,0.2,0.1,0.2,0.2c0,0.1-0.1,0.2-0.2,0.2h-1h-1.8v-0.4l0.5-0.5h-1.9l0.5,0.5v0.7l-0.8-0.6c0.1-0.1,0.1-0.2,0.1-0.2
		c0-0.2-0.2-0.3-0.3-0.3c-0.1,0-0.2,0-0.2,0.1v0.5v0.1l1.1,0.9l-0.5,0.2c0-0.1-0.2-0.2-0.3-0.2c-0.2,0-0.3,0.2-0.3,0.3
		s0,0.2,0.1,0.2h0.5h0.2l2.9-0.9v0.5l-0.4,0.1c0-0.1-0.2-0.2-0.3-0.2c-0.2,0-0.3,0.2-0.3,0.3s0,0.2,0.1,0.2h0.5h0.2l0.7-0.2l0.4-0.1
		l-0.3-0.3l-0.2-0.2h1.3v0.4c-0.1-0.1-0.2-0.1-0.3-0.1c-0.2,0-0.3,0.2-0.3,0.3s0,0.2,0.1,0.2h0.5h0.3v-0.8v-0.2v-0.2L-208.2,343
		L-208.2,343z M-211.7,343.1l-0.3-0.3h0.6L-211.7,343.1z"/>
	<path d="M-209.4,347.1h-0.6c0-0.2-0.2-0.3-0.3-0.3c-0.1,0-0.2,0-0.2,0.1l-0.4,0.4h0.4l0,0h0.5h0.6c0.1,0,0.2,0.1,0.2,0.2
		s-0.1,0.2-0.2,0.2h-0.9h-1v-0.3l0.5-0.5h-1.9l0.5,0.5v0.8l-0.8-0.7c0.1-0.1,0.1-0.2,0.1-0.3c0-0.2-0.2-0.3-0.3-0.3
		c-0.1,0-0.2,0-0.2,0.1v0.4v0.2l1.2,1.1l0.1-0.1l-0.8,0.9c-0.1-0.1-0.2-0.1-0.2-0.1c-0.2,0-0.3,0.2-0.3,0.4c0,0.1,0,0.1,0.1,0.2
		c0.1,0,0.3,0,0.5-0.1l0.9-1c0.1,0,0.2-0.1,0.4-0.1l0.4,0.3c-0.1,0-0.1,0.1-0.2,0.1c-0.1-0.1-0.2-0.1-0.3-0.1
		c-0.2,0.1-0.3,0.3-0.2,0.4c0,0.1,0.1,0.1,0.1,0.1s0.1,0,0.3-0.1c0.1-0.1,0.3-0.1,0.3-0.1l0,0c0.2-0.1,0.3-0.1,0.4-0.2v-0.4v-0.5
		c0.2-0.1,0.4-0.3,0.6-0.4l0.3,0.3c-0.1,0.1-0.1,0.1-0.2,0.2c-0.1-0.1-0.2-0.1-0.3,0c-0.1,0-0.1,0.1-0.2,0.2v0.1v0.1
		c0,0.1,0.1,0.1,0.2,0.1c0.2-0.1,0.3-0.2,0.4-0.3s0.2-0.2,0.3-0.3l0.1-0.1V348v-0.1h0.2c0.2,0,0.4-0.2,0.4-0.4
		C-209,347.4-209.1,347.1-209.4,347.1 M-211.9,348.4L-211.9,348.4L-211.9,348.4z M-211.7,347.8l-0.3-0.3h0.6L-211.7,347.8z"/>
	<path d="M-215,340c0-0.1,0-0.1,0-0.2c0-0.2-0.2-0.4-0.4-0.4h-1.4c0-0.2-0.2-0.3-0.3-0.3c-0.1,0-0.2,0-0.2,0.1l-0.4,0.4h0.4l0,0h0.5
		h1.5c0.1,0,0.2,0.1,0.2,0.2s-0.1,0.2-0.2,0.2h-1l0,0h-1.8v-0.4l0.5-0.5h-1.9l0.5,0.5v0.7l-0.8-0.6c0.1-0.1,0.1-0.2,0.1-0.2
		c0-0.2-0.2-0.3-0.3-0.3c-0.1,0-0.2,0-0.2,0.1v0.5v0.1l1.1,0.9l-0.5,0.2c0-0.1-0.2-0.2-0.3-0.2c-0.2,0-0.3,0.2-0.3,0.3
		s0,0.2,0.1,0.2c0,0,0.4,0,0.5,0h0.2l2.9-0.9v0.5l-0.4,0.1c0-0.1-0.2-0.2-0.3-0.2c-0.2,0-0.3,0.2-0.3,0.3s0,0.2,0.1,0.2
		c0,0,0.4,0,0.5,0h0.2l0.7-0.2l0.4-0.1l-0.3-0.3l-0.2-0.2h1.3v0.4c-0.1-0.1-0.2-0.1-0.3-0.1c-0.2,0-0.3,0.2-0.3,0.3s0,0.2,0.1,0.2
		h0.5h0.3v-0.8v-0.4L-215,340L-215,340z M-218.6,340l-0.3-0.3h0.6L-218.6,340z"/>
	<path d="M-215,337.6c0-0.1,0-0.1,0-0.2c0-0.2-0.2-0.4-0.4-0.4h-1.4c0-0.2-0.2-0.3-0.3-0.3c-0.1,0-0.2,0-0.2,0.1l-0.4,0.4h0.4l0,0
		h0.5h1.5c0.1,0,0.2,0.1,0.2,0.2s-0.1,0.2-0.2,0.2h-1h-1.8v-0.4l0.5-0.5h-1.9l0.5,0.5v0.7l-0.8-0.6c0.1-0.1,0.1-0.2,0.1-0.2
		c0-0.2-0.2-0.3-0.3-0.3c-0.1,0-0.2,0-0.2,0.1v0.5v0.1l1.1,0.9l-0.5,0.2c0-0.1-0.2-0.2-0.3-0.2c-0.2,0-0.3,0.2-0.3,0.3
		s0,0.2,0.1,0.2h0.5h0.2l2.9-0.9v0.5l-0.4,0.1c0-0.1-0.2-0.2-0.3-0.2c-0.2,0-0.3,0.2-0.3,0.3s0,0.2,0.1,0.2h0.5h0.2l0.7-0.2l0.4-0.1
		l-0.3-0.3l-0.2-0.2h1.3v0.4c-0.1-0.1-0.2-0.1-0.3-0.1c-0.2,0-0.3,0.2-0.3,0.3s0,0.2,0.1,0.2h0.5h0.3v-0.8v-0.4L-215,337.6
		C-215,337.6-215,337.6-215,337.6z M-218.6,337.6l-0.3-0.3h0.6L-218.6,337.6z"/>
	<path d="M-215,335.4c0-0.1,0-0.1,0-0.2c0-0.2-0.2-0.4-0.4-0.4h-1.4c0-0.2-0.2-0.3-0.3-0.3c-0.1,0-0.2,0-0.2,0.1l-0.4,0.4h0.4l0,0
		c0,0,0.4,0,0.5,0h1.5c0.1,0,0.2,0.1,0.2,0.2s-0.1,0.2-0.2,0.2l0,0h-1l0,0h-1.8v-0.4l0.5-0.5h-1.9l0.5,0.5v0.7l-0.8-0.6
		c0.1-0.1,0.1-0.2,0.1-0.2c0-0.2-0.2-0.3-0.3-0.3c-0.1,0-0.2,0-0.2,0.1v0.5v0.1l1.1,0.9l-0.5,0.2c0-0.1-0.2-0.2-0.3-0.2
		c-0.2,0-0.3,0.2-0.3,0.3s0,0.2,0.1,0.2h0.5h0.2l2.9-0.9v0.5l-0.4,0.1c0-0.1-0.2-0.2-0.3-0.2c-0.2,0-0.3,0.2-0.3,0.3s0,0.2,0.1,0.2
		h0.5h0.2l0.7-0.2l0.4-0.1l-0.3-0.3l-0.2-0.2h1.3v0.4c-0.1-0.1-0.2-0.1-0.3-0.1c-0.2,0-0.3,0.2-0.3,0.3s0,0.2,0.1,0.2h0.5h0.3v-0.8
		v-0.4L-215,335.4L-215,335.4z M-218.6,335.5l-0.3-0.3h0.6L-218.6,335.5z"/>
	<path d="M-205,341.1L-205,341.1c0.2-0.1,0.3-0.3,0.3-0.5c0-0.1-0.1-0.2-0.2-0.2c-0.1-0.1-0.2-0.1-0.3,0s-0.2,0.1-0.2,0.2
		c-0.1,0.1-0.1,0.2,0,0.3C-205.4,341.1-205.2,341.3-205,341.1"/>
	<path d="M-206.1,342.1l0.1,0.4l1.3-0.2l1.3,0.6l-0.1-0.4c0,0-0.8-0.4-0.9-0.4c0.1-0.1,0.7-0.7,0.7-0.7l-0.1-0.4l0,0c0,0-1,0.9-1,1
		C-204.8,341.9-206.1,342.1-206.1,342.1"/>
	<path d="M-205.1,343.3c0,0.1,0,0.2,0.1,0.3s0.2,0.1,0.3,0.1c0.1,0,0.2,0,0.3-0.1c0.1-0.1,0.1-0.2,0.1-0.3s0-0.2-0.1-0.3
		s-0.2-0.1-0.3-0.1C-205,342.9-205.1,343.1-205.1,343.3"/>
	<path d="M-206,344v0.4c0,0,1,0.1,1.1,0.2v0.3c0,0.1,0,0.1,0,0.2c0,0.2,0,0.3,0.1,0.4c0.1,0.1,0.3,0.2,0.5,0.3
		c0.4,0.1,0.8-0.2,0.8-0.6l0.1-0.7L-206,344L-206,344z M-204,344.6v0.4c0,0.3-0.3,0.3-0.4,0.3c-0.2,0-0.3-0.2-0.3-0.3c0,0,0,0,0-0.1
		v-0.3C-204.6,344.5-204,344.6-204,344.6"/>
	<path d="M-206.2,345.4l-0.4,1.2l0.4,0.1l0.3-0.9c0,0,0.6,0.2,0.7,0.2c0,0.1-0.3,0.8-0.3,0.8l0.4,0.1l0.3-0.8l0.6,0.2
		c0,0.1-0.3,0.9-0.3,0.9l0.4,0.1l0.4-1.2L-206.2,345.4L-206.2,345.4z"/>
	<path d="M-206.7,346.8l-0.2,0.3c0,0,1.4,0.9,1.5,1c-0.2,0-2.3,0.2-2.3,0.2l-0.2,0.3l2.1,1.3l0.2-0.3c0,0-1.4-0.9-1.5-1
		c0.2,0,2.3-0.2,2.3-0.2l0.2-0.3L-206.7,346.8L-206.7,346.8z"/>
	<path d="M-207.5,349.8c-0.3,0-0.5,0.1-0.6-0.1c-0.1-0.1-0.1-0.3,0-0.4c0.2-0.2,0.4-0.2,0.6-0.2h0.1l-0.4-0.4l0,0
		c-0.3,0-0.4,0.1-0.6,0.3c-0.1,0.1-0.2,0.3-0.2,0.4c0,0.2,0.1,0.4,0.2,0.5c0.3,0.3,0.7,0.3,1,0.2c0.2-0.1,0.4-0.1,0.6,0
		c0,0.1,0.1,0.1,0.1,0.2c0,0.1,0,0.2-0.1,0.3s-0.3,0.2-0.5,0.2h-0.1l0.4,0.4l0,0c0.2,0,0.4-0.1,0.5-0.2c0.2-0.2,0.2-0.3,0.2-0.5
		s-0.1-0.4-0.2-0.5C-206.9,349.6-207.3,349.8-207.5,349.8"/>
	<path d="M-209.1,349.6l-1.1,0.7l0.2,0.3c0,0,0.7-0.5,0.8-0.5c0,0,0.4,0.5,0.4,0.6l-0.7,0.5l0.2,0.3l0.7-0.5c0,0,0.4,0.5,0.4,0.6
		l-0.8,0.5l0.2,0.3l1.1-0.7L-209.1,349.6L-209.1,349.6z"/>
	<path d="M-218.3,351.4l-1-0.6l0.6-0.9l-0.3-0.2l0,0l-1.3,2.1l0.3,0.2c0,0,0.5-0.9,0.6-0.9l1,0.6l-0.6,0.9l0.3,0.2l1.3-2.1l-0.3-0.2
		C-217.7,350.5-218.3,351.3-218.3,351.4"/>
	<path d="M-219.6,349.5c0-0.3-0.1-0.6-0.3-0.8c-0.5-0.6-1.3-0.5-1.8-0.1c-0.3,0.3-0.4,0.6-0.4,0.9c0,0.3,0.1,0.6,0.3,0.9
		c0.4,0.5,1.2,0.5,1.8,0.1C-219.8,350.1-219.6,349.9-219.6,349.5 M-219.9,349.5c0,0.2-0.1,0.5-0.3,0.6c-0.4,0.4-0.9,0.4-1.2,0
		c-0.2-0.2-0.2-0.4-0.2-0.6c0-0.2,0.1-0.4,0.3-0.6c0.2-0.2,0.4-0.3,0.7-0.3c0.2,0,0.4,0.1,0.5,0.3
		C-220,349.1-219.9,349.3-219.9,349.5"/>
	<path d="M-220.9,347.4c0,0-1.5,0.7-1.7,0.8c0.1-0.1,1.1-2.1,1.1-2.1l-0.1-0.3l0,0l-2.2,1.1l0.2,0.3c0,0,1.5-0.7,1.7-0.8
		c-0.1,0.1-1.1,2.1-1.1,2.1l0.1,0.3l2.2-1.1L-220.9,347.4z"/>
	<polygon points="-221.7,345.1 -221.7,345.1 -224.1,345.8 -224,346.1 -221.6,345.6 	"/>
	<path d="M-222.8,344.4c-0.1-0.1-0.2-0.1-0.3-0.1c-0.1,0-0.2,0.1-0.3,0.2c-0.1,0.1-0.1,0.2-0.1,0.3s0.1,0.2,0.2,0.3s0.2,0.1,0.3,0.1
		c0.2,0,0.4-0.2,0.3-0.4C-222.7,344.5-222.8,344.4-222.8,344.4"/>
	<path d="M-223,343.4c0.2-0.2,0.3-0.4,0.5-0.4c0.1,0,0.1,0,0.2,0.1s0.1,0.2,0.1,0.3c0,0.2-0.1,0.4-0.4,0.5l-0.1,0.1h0.5l0,0
		c0.2-0.2,0.2-0.4,0.2-0.6c0-0.2-0.1-0.3-0.2-0.4c-0.1-0.1-0.3-0.2-0.5-0.2c-0.4,0-0.6,0.3-0.8,0.6c-0.1,0.2-0.2,0.4-0.4,0.4
		c-0.1,0-0.1,0-0.2-0.1s-0.1-0.2-0.1-0.3c0-0.2,0.1-0.4,0.3-0.5h0.1h-0.5l0,0c-0.1,0.2-0.2,0.3-0.2,0.5s0.1,0.4,0.2,0.5
		s0.3,0.2,0.5,0.2C-223.4,344-223.2,343.6-223,343.4"/>
	<path d="M-223.2,342.4c0.4,0.1,0.7,0,1-0.1c0.3-0.2,0.4-0.4,0.5-0.7s0-0.6-0.1-0.9c-0.2-0.3-0.5-0.5-0.8-0.6
		c-0.7-0.2-1.4,0.2-1.5,0.9c0,0.1,0,0.2,0,0.3c0,0.2,0.1,0.4,0.2,0.6C-223.8,342.1-223.5,342.3-223.2,342.4 M-223.7,341
		c0.1-0.2,0.2-0.4,0.4-0.5c0.2-0.1,0.4-0.2,0.7-0.1c0.3,0.1,0.5,0.2,0.6,0.4s0.1,0.4,0.1,0.6c-0.1,0.4-0.6,0.7-1.1,0.6
		C-223.6,341.9-223.9,341.5-223.7,341"/>
	<path d="M-202.5,343.4c0-3.1-1.2-5.9-3.3-8.1c-0.3-0.3-0.5-0.5-0.8-0.7v-0.4c0.4,0,0.8-0.4,0.8-0.9s-0.4-0.9-0.9-0.9c0,0,0,0-0.1,0
		l0.8-0.4l-0.3-0.7l1.2-2.9l-0.5-0.2l-1.3,3l-0.7,0.3l0.4,1h-3.7h-6.5h-3.7l0.4-1l-0.7-0.3l-1.3-3l-0.5,0.2l1.2,2.9l-0.3,0.7
		l0.8,0.4l0,0c-0.5,0-0.9,0.4-0.9,0.9c0,0.4,0.4,0.8,0.8,0.9v0.4c-0.3,0.2-0.5,0.5-0.8,0.7c-2.2,2.2-3.3,5-3.3,8.1
		c0,2.4,0.7,4.6,2.1,6.6c1.3,1.9,3.2,3.3,5.3,4.1c0,0,0.1,0,0.3,0.1c0,0.3,0.2,0.6,0.5,0.7c0.3,0.1,0.7,0,0.9-0.2l0,0v3.2
		c0,1.2,1,2.2,2.3,2.2s2.3-1,2.3-2.2v-2.2l5.6-2.7c0.2-0.1,0.4-0.2,0.5-0.3c0.4-0.4,0.5-1.1,0.2-1.9c0.5-0.6,1-1.2,1.3-1.8
		C-203.1,347.4-202.5,345.4-202.5,343.4 M-208.5,333l1.7,0.4l-1.7,0.4V333z M-213.8,350.4v-8.6h6.6v1.6c0,1.6-0.3,2.7-0.7,3.5
		c-0.4,0.6-0.8,1.1-1.3,1.6l-0.1,0.1C-210.5,349.6-212.1,350.3-213.8,350.4 M-211.8,350.6c-0.1,0.3-0.2,0.6-0.3,1
		c-0.6-0.2-1.2-0.4-1.8-0.7l0,0C-213.2,351-212.5,350.8-211.8,350.6 M-213.8,341.5v-7.3h5.5h1v5.7v1.6H-213.8z M-211.5,333l1.7,0.4
		l-1.7,0.4V333z M-214.6,333l1.7,0.4l-1.7,0.4V333z M-217.6,333l1.7,0.4l-1.7,0.4V333z M-220.6,333l1.7,0.4l-1.7,0.4V333z
		 M-220.6,339.9v-5.7h1h5.5v7.3h-6.6v-1.6H-220.6z M-220.6,341.8h6.6v8.6c-1.3,0-2.6-0.4-3.8-1.2l0,0l-0.1-0.1l0,0
		c0,0-0.1,0-0.1-0.1s-0.1-0.1-0.1-0.1l0,0c-0.7-0.5-1.3-1.2-1.8-2c-0.4-0.8-0.7-1.9-0.7-3.4V341.8z M-217.5,353.6
		c-0.1,0-0.2-0.1-0.3-0.1c-2-0.8-3.8-2.1-5-3.9c-1.3-1.8-2-4-2-6.2c0-2.9,1.1-5.6,3.2-7.7c0.1-0.1,0.3-0.3,0.4-0.4v3
		c-0.4-0.3-1-0.6-1-0.7l0.4-0.6l-0.3-0.2l0,0l-1,1.5l0.3,0.2l0.4-0.6c0,0,0.7,0.4,1.2,0.8v1.1l-2.1-1l0,0l-0.2,0.3l2.3,1.1v1.3
		c-0.2,0.6-0.3,1.2-0.3,1.9c0,1.4,0.4,2.6,1,3.8c0.4,0.8,1,1.3,1.5,1.8c0.2,0.2,0.4,0.4,0.7,0.6c0,0,0,0,0.1,0c0,0,0.1,0,0.1,0.1
		s0.1,0,0.1,0.1l0,0c0.2,0.1,0.4,0.3,0.6,0.4l0,0c0.3,0.1,0.7,0.3,1.1,0.5l-0.5,1.2l-0.2-0.1c-0.1-0.1-0.3,0-0.4,0.1s0,0.3,0.1,0.4
		l0.2,0.1L-217.5,353.6z M-212.2,358c0,0.2-0.1,0.4-0.2,0.6c-0.1,0.2-0.3,0.3-0.4,0.3c-0.2,0-0.4-0.1-0.5-0.4c0,0,0-0.1-0.1-0.3
		c0.1,0,0.1,0,0.2,0c0.3,0,0.5-0.2,0.5-0.5s-0.2-0.5-0.5-0.5c-0.2,0-0.3,0.1-0.4,0.2c-0.2-0.6-0.3-1.3-0.3-1.3h-0.1h-0.1
		c0,0-0.2,0.7-0.3,1.3c-0.1-0.1-0.2-0.2-0.4-0.2c-0.3,0-0.5,0.2-0.5,0.5s0.2,0.5,0.5,0.5c0.1,0,0.1,0,0.2,0c0,0.1-0.1,0.3-0.1,0.3
		c-0.1,0.2-0.3,0.4-0.5,0.4s-0.4-0.1-0.4-0.3c-0.1-0.2-0.1-0.4-0.1-0.6v-3.1c1,0.3,2.3,0.7,3.5,1L-212.2,358L-212.2,358z
		 M-212,355.3c-1.8-0.4-3.9-1.1-5.1-1.5c0.1-0.3,0.3-0.8,0.5-1.3l0.3,0.1c0,0,0,0,0,0.1c0,0.4,0.4,0.8,0.8,0.8s0.8-0.4,0.8-0.8
		c0-0.4-0.4-0.8-0.8-0.8c-0.3,0-0.4,0.1-0.6,0.3l-0.4-0.2c0.2-0.5,0.4-0.9,0.5-1.2c1.2,0.5,2.8,1.1,4.3,1.6c1.6,0.5,2.9,0.8,3.8,0.9
		C-209.4,354.1-211.9,355.1-212,355.3 M-206,352.4c-0.2,0.2-0.5,0.3-1.3,0.3c0.5-0.4,1-0.8,1.5-1.3
		C-205.7,351.9-205.7,352.1-206,352.4 M-208.2,352.6c-0.8-0.1-1.8-0.4-3.2-0.8c-0.1,0-0.1,0-0.2-0.1c0.1-0.8,0.4-1.3,0.8-1.6
		c0.7-0.3,1.3-0.8,1.9-1.3c0.5-0.4,1-1,1.4-1.8c0.6-1.1,1-2.4,1-3.8c0-0.6-0.1-1.3-0.3-1.9v-1.2l0.4,0.9l0.4-0.1l-0.4-0.9
		c0.1,0,2-0.8,2-0.8l-0.1-0.4l0,0l-2.1,0.9v-0.2l1.4-2l-0.1-0.2l0,0l-1.3,0.3v-2.4c0.1,0.1,0.3,0.2,0.4,0.4c2,2,3.2,4.8,3.2,7.7
		c0,1.9-0.5,3.8-1.4,5.4C-205.4,350.4-206.7,351.6-208.2,352.6 M-206.5,339c0,0-0.1,0.1-0.1,0.2v-0.4
		C-206.6,338.9-206.5,339-206.5,339 M-206.6,338.1c0.1,0,0.7-0.2,0.8-0.2c-0.1,0.1-0.4,0.6-0.5,0.7
		C-206.3,338.6-206.6,338.1-206.6,338.1"/>
	<path d="M-205.4,325.1c-0.4-0.7-1.2-1-1.7-1c-0.8,0-1.6,0.3-2.3,0.6c-0.9,0.4-1.8,0.7-2.6,0.6c0.1-0.3,0.2-0.6,0.4-0.9l-0.5-0.3
		c0.1-0.2,0.2-0.4,0.2-0.7c-0.1,0-0.8-0.3-2-0.3s-1.8,0.3-1.9,0.3c0,0.3,0.1,0.5,0.2,0.7l-0.5,0.3c0.2,0.3,0.3,0.6,0.4,0.9
		c-0.9,0.1-1.8-0.3-2.6-0.6c-0.8-0.3-1.6-0.6-2.3-0.6c-0.5,0-1.3,0.3-1.7,1c-0.4,0.5-0.6,1.6,0.1,3.2l0,0l0,0l1.1-0.5l0.1,0.2
		c-0.4,0.2-0.7,0.6-0.3,1.5c1-0.4,1-1,0.8-1.3l0.2-0.1l0.5,1.1l0.5,1.1l-0.2,0.1c-0.2-0.4-0.6-0.7-1.5-0.3c0.4,1,1.1,1.3,1.7,1.3
		c1,0,1.7-0.6,1.6-1.2c-0.1-0.4-0.5-0.6-0.6-0.6c-0.2,0-0.3,0.3-0.3,0.4v0.1l0,0c-0.3,0-0.5-0.2-0.5-0.5c-0.1-0.3,0.2-0.6,0.5-0.7
		c0.2,0,0.4,0,0.5,0.2l0.1-0.1c-0.2-0.1-0.3-0.3-0.4-0.5c-0.1-0.5,0.5-1,0.5-1l0,0l0,0c0,0,0.7,0.3,0.8,0.8c0,0.2,0,0.4-0.2,0.6
		l0.1,0.1c0.1-0.2,0.2-0.3,0.4-0.4c0.3-0.1,0.6,0.2,0.7,0.5s-0.1,0.5-0.3,0.6l0,0v-0.1c0-0.2-0.2-0.3-0.4-0.3
		c-0.2,0-0.5,0.3-0.4,0.8c0.2,0.8,0.8,1.3,1.6,1.3s1.6-0.6,1.6-1.6c-1.1,0-1.4,0.5-1.4,1h-0.2v-1.3v-1.3h0.2c0,0.4,0.3,1,1.4,1
		c0-1.1-0.5-1.4-1-1.4v-0.2h1.1h0.4h1.1v0.2c-0.4,0-1,0.3-1,1.4c1.1,0,1.4-0.5,1.4-1h0.2v1.3v1.3h-0.2c0-0.4-0.3-1-1.4-1
		c0,1,0.8,1.6,1.6,1.6c0.8,0,1.4-0.5,1.6-1.3c0.1-0.4-0.2-0.8-0.4-0.8c-0.2,0-0.4,0.1-0.4,0.3v0.1l0,0c-0.2-0.1-0.4-0.4-0.3-0.6
		c0.1-0.3,0.4-0.5,0.7-0.5c0.2,0,0.4,0.2,0.4,0.4l0.1-0.1c-0.1-0.2-0.2-0.4-0.2-0.6c0.1-0.5,0.8-0.8,0.8-0.8s0.6,0.5,0.5,1
		c0,0.2-0.2,0.4-0.4,0.5l0.1,0.1c0.1-0.1,0.3-0.2,0.5-0.2c0.3,0.1,0.5,0.4,0.5,0.7c-0.1,0.3-0.3,0.5-0.5,0.5l0,0V330
		c0-0.2-0.1-0.4-0.3-0.4c-0.2,0-0.6,0.1-0.6,0.6c-0.1,0.6,0.6,1.2,1.6,1.2c0.6,0,1.3-0.4,1.7-1.3c-1-0.4-1.4-0.1-1.5,0.3l-0.2-0.1
		l0.5-1.1l0.5-1.1l0.2,0.1c-0.2,0.4-0.1,0.9,0.8,1.3c0.4-1,0.1-1.4-0.3-1.5l0.1-0.2l1.1,0.5l0,0l0,0
		C-204.8,326.6-205.1,325.6-205.4,325.1 M-215.6,326.5c-0.5,0-1,0.3-1.2,0.7c-0.3-0.5-0.9-0.8-1.5-0.7c-0.4,0.1-0.8,0.4-1,0.8
		c-0.3-0.4-0.7-0.7-1.2-0.7c-0.6,0-1.2,0.4-1.4,1c-0.4-0.9-0.4-1.7,0-2.2s1-0.7,1.2-0.7c0.7,0,1.4,0.3,2.1,0.6c1,0.4,1.9,0.8,3,0.6
		C-215.6,326.1-215.6,326.1-215.6,326.5L-215.6,326.5 M-214,323.5c0.3,0,0.5,0.2,0.6,0.5c-0.2-0.1-0.4-0.2-0.6-0.2s-0.4,0.1-0.6,0.2
		C-214.5,323.6-214.2,323.5-214,323.5 M-214,324.1c0.3,0,0.5,0.2,0.6,0.5c-0.2-0.1-0.4-0.2-0.6-0.2s-0.4,0.1-0.6,0.2
		C-214.5,324.3-214.2,324.1-214,324.1 M-214,327.3c-0.3,0-0.6-0.3-0.6-0.6s0.3-0.6,0.6-0.6s0.6,0.3,0.6,0.6S-213.6,327.3-214,327.3
		 M-213.4,326c-0.2-0.1-0.4-0.2-0.5-0.2c-0.2,0-0.4,0.1-0.5,0.2c0-0.1,0-0.1,0-0.2c0-0.3,0.3-0.6,0.6-0.6c0.3,0,0.6,0.3,0.6,0.6
		C-213.4,325.9-213.4,326-213.4,326 M-213.4,325.1c-0.2-0.1-0.4-0.2-0.6-0.2s-0.4,0.1-0.6,0.2l0,0c0-0.3,0.3-0.6,0.6-0.6
		S-213.4,324.9-213.4,325.1L-213.4,325.1 M-205.9,327.6c-0.2-0.6-0.7-1-1.4-1c-0.5,0-1,0.3-1.2,0.7c-0.2-0.4-0.5-0.7-1-0.8
		c-0.6-0.1-1.2,0.2-1.5,0.7c-0.3-0.4-0.7-0.7-1.2-0.7h-0.1c0-0.2,0.1-0.4,0.1-0.5c1.1,0.2,2.1-0.3,3-0.6c0.7-0.3,1.4-0.6,2.1-0.6
		c0.3,0,0.9,0.2,1.2,0.7C-205.6,325.9-205.6,326.6-205.9,327.6"/>
	<polygon points="-210.5,334.6 -210.5,334.6 -210.8,334.6 -210.6,334.9 -210.5,334.9 -210.5,334.9 -210.5,334.9 -210.5,334.9 
		-210.5,334.9 -210.4,334.9 -210.3,334.6 	"/>
	<polyline points="-213.2,334.8 -213.2,334.9 -213.2,334.9 -213.4,334.9 -213.4,334.8 -213.6,334.5 -213.6,334.4 -213.3,334.6 
		-213.1,334.6 -213.1,334.8 -213.2,334.8 	"/>
	<path d="M-213,334.8C-213.1,334.8-213.1,334.6-213,334.8C-213.1,334.7-213,334.7-213,334.8C-213,334.7-213,334.6-213,334.8
		L-213,334.8c0.1-0.1,0.1-0.1,0.1-0.2c0-0.1-0.1-0.2-0.2-0.2s-0.2,0.1-0.2,0.2S-213.2,334.8-213,334.8L-213,334.8L-213,334.8"/>
	<path d="M-213.3,335C-213.3,335-213.3,334.9-213.3,335c-0.1-0.1-0.1,0-0.1,0S-213.4,335-213.3,335L-213.3,335
		c-0.1,0.1-0.1,0.1-0.2,0.1s-0.2-0.1-0.2-0.2s0.1-0.2,0.2-0.2C-213.3,334.8-213.3,334.9-213.3,335L-213.3,335L-213.3,335"/>
	<polyline points="-213.2,340.9 -213.2,340.9 -213.2,340.8 -213.4,340.8 -213.4,340.9 -213.6,341.1 -213.6,341.3 -213.3,341.1 
		-213.1,341.1 -213.1,340.9 -213.2,340.9 	"/>
	<path d="M-213,340.9C-213.1,340.9-213.1,341-213,340.9C-213.1,340.9-213,340.9-213,340.9C-213,340.9-213,341.1-213,340.9
		L-213,340.9c0.1,0.1,0.1,0.1,0.1,0.2c0,0.1-0.1,0.2-0.2,0.2s-0.2-0.1-0.2-0.2C-213.3,341-213.2,340.9-213,340.9L-213,340.9
		L-213,340.9"/>
	<path d="M-213.3,340.6C-213.3,340.6-213.3,340.8-213.3,340.6c-0.1,0.1-0.1,0-0.1,0S-213.4,340.6-213.3,340.6L-213.3,340.6
		c-0.1-0.1-0.1-0.1-0.2-0.1s-0.2,0.1-0.2,0.2s0.1,0.2,0.2,0.2C-213.3,340.9-213.3,340.9-213.3,340.6L-213.3,340.6L-213.3,340.6"/>
	<polyline points="-207.9,340.9 -207.9,340.9 -207.9,340.8 -207.6,340.8 -207.6,340.9 -207.5,341.1 -207.5,341.3 -207.8,341.1 
		-208,341.1 -208,340.9 -207.9,340.9 	"/>
	<path d="M-208.1,340.9C-208,340.9-208,341-208.1,340.9C-208,340.9-208.1,340.9-208.1,340.9C-208.1,340.9-208.1,341.1-208.1,340.9
		L-208.1,340.9c-0.1,0.1-0.1,0.1-0.1,0.2c0,0.1,0.1,0.2,0.2,0.2s0.2-0.1,0.2-0.2C-207.8,341-207.9,340.9-208.1,340.9L-208.1,340.9
		L-208.1,340.9"/>
	<path d="M-207.8,340.6C-207.8,340.6-207.8,340.8-207.8,340.6c0.1,0.1,0.1,0,0.1,0S-207.7,340.6-207.8,340.6L-207.8,340.6
		c0.1-0.1,0.1-0.1,0.2-0.1s0.2,0.1,0.2,0.2s-0.1,0.2-0.2,0.2C-207.7,340.9-207.8,340.9-207.8,340.6L-207.8,340.6L-207.8,340.6"/>
	<polyline points="-207.9,334.8 -207.9,334.9 -207.9,334.9 -207.6,334.9 -207.6,334.8 -207.5,334.5 -207.5,334.4 -207.8,334.6 
		-208,334.6 -208,334.8 -207.9,334.8 	"/>
	<path d="M-208.1,334.8C-208,334.8-208,334.6-208.1,334.8C-208,334.7-208.1,334.7-208.1,334.8C-208.1,334.7-208.1,334.6-208.1,334.8
		L-208.1,334.8c-0.1-0.1-0.1-0.1-0.1-0.2c0-0.1,0.1-0.2,0.2-0.2s0.2,0.1,0.2,0.2S-207.9,334.8-208.1,334.8L-208.1,334.8
		L-208.1,334.8"/>
	<path d="M-207.8,335C-207.8,335-207.8,334.9-207.8,335c0.1-0.1,0.1,0,0.1,0S-207.7,335-207.8,335L-207.8,335
		c0.1,0.1,0.1,0.1,0.2,0.1s0.2-0.1,0.2-0.2s-0.1-0.2-0.2-0.2C-207.7,334.8-207.8,334.9-207.8,335L-207.8,335L-207.8,335z"/>
	<rect x="-210.8" y="335.1" width="0.5" height="0.2"/>
	<polygon points="-210.5,335.6 -210.6,335.6 -210.7,335.4 -210.4,335.4 	"/>
	<polyline points="-210.3,335.3 -210.3,335.3 -210.3,335.3 -210.3,335.3 	"/>
	<path d="M-210.2,335.4L-210.2,335.4C-210.3,335.4-210.3,335.4-210.2,335.4C-210.3,335.3-210.3,335.3-210.2,335.4L-210.2,335.4
		c-0.2-0.1-0.2,0-0.2,0l0.1,0.1C-210.2,335.6-210.2,335.5-210.2,335.4L-210.2,335.4L-210.2,335.4z"/>
	<path d="M-210.8,335.3L-210.8,335.3L-210.8,335.3L-210.8,335.3z"/>
	<path d="M-210.9,335.4L-210.9,335.4C-210.8,335.4-210.8,335.4-210.9,335.4C-210.8,335.3-210.8,335.3-210.9,335.4L-210.9,335.4
		c0.2-0.1,0.2,0,0.2,0l-0.1,0.1C-210.8,335.4-210.9,335.5-210.9,335.4L-210.9,335.4L-210.9,335.4z"/>
	<polygon points="-210.5,341.1 -210.5,341.1 -210.3,341.1 -210.4,340.9 -210.5,340.8 -210.6,340.8 -210.5,340.8 -210.6,340.8 
		-210.6,340.8 -210.6,340.9 -210.8,341.1 	"/>
	<rect x="-210.8" y="340.3" width="0.5" height="0.2"/>
	<polygon points="-210.6,340.1 -210.5,340.1 -210.4,340.3 -210.7,340.3 	"/>
	<path d="M-210.8,340.4L-210.8,340.4L-210.8,340.4z"/>
	<path d="M-210.9,340.3L-210.9,340.3C-210.8,340.3-210.8,340.3-210.9,340.3C-210.8,340.4-210.8,340.4-210.9,340.3L-210.9,340.3
		c0.2,0.1,0.2,0,0.2,0l-0.1-0.1C-210.8,340.2-210.9,340.1-210.9,340.3L-210.9,340.3L-210.9,340.3z"/>
	<path d="M-210.3,340.4L-210.3,340.4L-210.3,340.4z"/>
	<path d="M-210.2,340.3L-210.2,340.3C-210.3,340.3-210.3,340.3-210.2,340.3C-210.3,340.4-210.3,340.4-210.2,340.3L-210.2,340.3
		c-0.2,0.1-0.2,0-0.2,0l0.1-0.1C-210.2,340.1-210.2,340.1-210.2,340.3L-210.2,340.3L-210.2,340.3z"/>
	<polygon points="-207.6,337.8 -207.6,337.8 -207.6,337.6 -207.9,337.8 -207.9,337.8 -207.9,337.9 -208,337.8 -207.9,337.9 
		-207.9,337.9 -207.9,337.9 -207.6,338.1 	"/>
	<rect x="-208.5" y="337.6" width="0.2" height="0.5"/>
	<polygon points="-208.7,337.9 -208.7,337.8 -208.5,337.6 -208.5,338 	"/>
	<polyline points="-208.3,338.1 -208.3,338.1 -208.3,338.1 -208.3,338.1 	"/>
	<path d="M-208.4,338.1L-208.4,338.1C-208.4,338.1-208.4,338.1-208.4,338.1C-208.3,338.1-208.3,338.1-208.4,338.1L-208.4,338.1
		c0.1-0.2,0-0.2,0-0.2c-0.1,0-0.1,0.1-0.1,0.1S-208.5,338.1-208.4,338.1L-208.4,338.1L-208.4,338.1z"/>
	<path d="M-208.3,337.6L-208.3,337.6L-208.3,337.6L-208.3,337.6"/>
	<path d="M-208.4,337.5L-208.4,337.5C-208.4,337.6-208.4,337.6-208.4,337.5C-208.3,337.6-208.3,337.6-208.4,337.5L-208.4,337.5
		c0.1,0.2,0,0.2,0,0.2c-0.1,0-0.1-0.1-0.1-0.1S-208.5,337.5-208.4,337.5L-208.4,337.5L-208.4,337.5z"/>
	<polygon points="-213.4,337.8 -213.4,337.8 -213.4,337.6 -213.2,337.8 -213.2,337.8 -213.2,337.9 -213.1,337.8 -213.2,337.9 
		-213.2,337.9 -213.2,337.9 -213.4,338.1 	"/>
	<rect x="-212.8" y="337.6" width="0.2" height="0.5"/>
	<polygon points="-212.4,337.9 -212.4,337.8 -212.6,337.6 -212.6,338 	"/>
	<polyline points="-212.7,338.1 -212.7,338.1 -212.7,338.1 -212.7,338.1 	"/>
	<path d="M-212.6,338.1L-212.6,338.1C-212.6,338.1-212.6,338.1-212.6,338.1C-212.7,338.1-212.7,338.1-212.6,338.1L-212.6,338.1
		c-0.1-0.2,0-0.2,0-0.2l0.1,0.1L-212.6,338.1L-212.6,338.1L-212.6,338.1z"/>
	<path d="M-212.7,337.6L-212.7,337.6L-212.7,337.6L-212.7,337.6"/>
	<path d="M-212.6,337.5L-212.6,337.5C-212.6,337.6-212.6,337.6-212.6,337.5C-212.7,337.6-212.7,337.6-212.6,337.5L-212.6,337.5
		c-0.1,0.2,0,0.2,0,0.2l0.1-0.1L-212.6,337.5L-212.6,337.5L-212.6,337.5z"/>
	<g class="st1">
		<path d="M-221.9,364.9v8h9.8v-8h2.5v18.6h-2.5v-8.5h-9.8v8.5h-2.5v-18.6H-221.9z"/>
		<path d="M-206.6,374c0.3-0.9,0.7-1.6,1.2-2.2c0.5-0.6,1.2-1.1,2.1-1.5c0.8-0.4,1.8-0.5,2.8-0.5c1.1,0,2,0.2,2.8,0.5
			c0.8,0.4,1.5,0.9,2,1.5s1,1.4,1.2,2.2c0.3,0.9,0.4,1.8,0.4,2.8s-0.1,1.9-0.4,2.8c-0.3,0.9-0.7,1.6-1.2,2.2c-0.5,0.6-1.2,1.1-2,1.5
			s-1.8,0.5-2.8,0.5c-1.1,0-2-0.2-2.8-0.5c-0.8-0.4-1.5-0.9-2.1-1.5c-0.5-0.6-1-1.4-1.2-2.2c-0.3-0.9-0.4-1.8-0.4-2.8
			S-206.8,374.8-206.6,374z M-204.3,378.9c0.2,0.6,0.5,1.2,0.9,1.6s0.8,0.8,1.3,1s1.1,0.4,1.6,0.4c0.6,0,1.1-0.1,1.6-0.4
			c0.5-0.2,1-0.5,1.3-1c0.4-0.4,0.7-1,0.9-1.6c0.2-0.6,0.3-1.4,0.3-2.2s-0.1-1.5-0.3-2.2c-0.2-0.6-0.5-1.2-0.9-1.6
			c-0.4-0.4-0.8-0.8-1.3-1s-1.1-0.4-1.6-0.4c-0.6,0-1.1,0.1-1.6,0.4c-0.5,0.2-1,0.5-1.3,1c-0.4,0.4-0.7,1-0.9,1.6
			c-0.2,0.6-0.3,1.4-0.3,2.2S-204.5,378.3-204.3,378.9z"/>
		<path d="M-189.5,370v2h0.1c1-1.5,2.5-2.3,4.4-2.3c0.8,0,1.6,0.2,2.3,0.5c0.7,0.4,1.1,0.9,1.4,1.8c0.4-0.7,1.1-1.3,1.8-1.7
			c0.7-0.4,1.6-0.6,2.4-0.6c0.7,0,1.3,0.1,1.8,0.2c0.5,0.2,1,0.4,1.4,0.7s0.7,0.7,0.9,1.2c0.2,0.5,0.3,1.1,0.3,1.8v9.9h-2.2v-8.8
			c0-0.4,0-0.8-0.1-1.2s-0.2-0.7-0.4-1c-0.2-0.3-0.4-0.5-0.8-0.6c-0.4-0.2-0.8-0.2-1.3-0.2c-1.1,0-1.9,0.3-2.6,0.9
			c-0.6,0.6-0.9,1.5-0.9,2.5v8.4h-2.2v-8.8c0-0.4,0-0.8-0.1-1.2s-0.2-0.7-0.4-1c-0.2-0.3-0.4-0.5-0.8-0.6c-0.3-0.2-0.7-0.2-1.2-0.2
			c-0.6,0-1.2,0.1-1.7,0.4c-0.4,0.3-0.8,0.6-1.1,0.9c-0.3,0.4-0.5,0.7-0.6,1.1c-0.1,0.4-0.2,0.7-0.2,1v8.4h-2.2v-13.4h2V370z"/>
		<path d="M-160.1,382.6c-1,0.8-2.3,1.1-3.8,1.1c-1.1,0-2-0.2-2.8-0.5c-0.8-0.4-1.5-0.8-2-1.5c-0.5-0.6-1-1.4-1.2-2.2
			c-0.3-0.9-0.4-1.8-0.4-2.8s0.2-2,0.5-2.8c0.3-0.9,0.8-1.6,1.3-2.2c0.6-0.6,1.2-1.1,2-1.5s1.6-0.5,2.5-0.5c1.2,0,2.2,0.3,3,0.7
			c0.8,0.5,1.4,1.1,1.9,1.9s0.8,1.6,1,2.5s0.3,1.8,0.2,2.6H-168c0,0.6,0.1,1.1,0.2,1.7c0.2,0.5,0.4,1,0.8,1.4s0.8,0.7,1.3,1
			s1.2,0.4,1.9,0.4c0.9,0,1.7-0.2,2.3-0.6c0.6-0.4,1-1.1,1.2-2h2.2C-158.5,380.6-159.1,381.8-160.1,382.6z M-160.7,373.9
			c-0.2-0.5-0.5-0.9-0.8-1.2c-0.4-0.4-0.7-0.6-1.2-0.8c-0.4-0.2-1-0.3-1.5-0.3c-0.6,0-1.1,0.1-1.6,0.3c-0.4,0.2-0.9,0.5-1.2,0.8
			c-0.3,0.4-0.6,0.8-0.8,1.2c-0.2,0.4-0.3,1-0.4,1.5h7.7C-160.4,374.9-160.5,374.4-160.7,373.9z"/>
		<path d="M-149.2,370.5c0.4-1.2,0.9-2.2,1.7-3.1c0.7-0.9,1.7-1.6,2.8-2.2c1.1-0.5,2.4-0.8,3.9-0.8s2.8,0.3,3.9,0.8s2,1.3,2.8,2.2
			c0.7,0.9,1.3,1.9,1.7,3.1s0.6,2.4,0.6,3.7s-0.2,2.5-0.6,3.7s-0.9,2.2-1.7,3.1c-0.7,0.9-1.7,1.6-2.8,2.1c-1.1,0.5-2.4,0.8-3.9,0.8
			s-2.8-0.3-3.9-0.8s-2-1.2-2.8-2.1c-0.7-0.9-1.3-1.9-1.7-3.1s-0.6-2.4-0.6-3.7S-149.6,371.6-149.2,370.5z M-146.9,376.9
			c0.3,0.9,0.6,1.7,1.1,2.5s1.2,1.3,2,1.8c0.8,0.4,1.8,0.7,2.9,0.7s2.1-0.2,2.9-0.7c0.8-0.4,1.5-1,2-1.8s0.9-1.6,1.1-2.5
			c0.3-0.9,0.4-1.8,0.4-2.8s-0.1-1.8-0.4-2.8c-0.3-0.9-0.6-1.7-1.1-2.5c-0.5-0.7-1.2-1.3-2-1.8c-0.8-0.4-1.8-0.7-2.9-0.7
			s-2.1,0.2-2.9,0.7c-0.8,0.4-1.5,1-2,1.8s-0.9,1.6-1.1,2.5c-0.3,0.9-0.4,1.8-0.4,2.8S-147.1,376-146.9,376.9z"/>
		<path d="M-130.9,371.9v-1.9h2.3v-2c0-1.1,0.3-1.9,1-2.5c0.6-0.6,1.6-0.9,2.8-0.9c0.2,0,0.4,0,0.7,0.1c0.3,0,0.5,0.1,0.7,0.2v1.9
			c-0.2-0.1-0.4-0.1-0.6-0.1s-0.4,0-0.6,0c-0.5,0-1,0.1-1.2,0.3c-0.3,0.2-0.4,0.6-0.4,1.2v1.9h2.6v1.9h-2.6v11.5h-2.2V372
			L-130.9,371.9L-130.9,371.9z"/>
		<path d="M-124,371.9v-1.9h2.3v-2c0-1.1,0.3-1.9,1-2.5c0.6-0.6,1.6-0.9,2.8-0.9c0.2,0,0.4,0,0.7,0.1c0.3,0,0.5,0.1,0.7,0.2v1.9
			c-0.2-0.1-0.4-0.1-0.6-0.1s-0.4,0-0.6,0c-0.5,0-1,0.1-1.2,0.3c-0.3,0.2-0.4,0.6-0.4,1.2v1.9h2.6v1.9h-2.5v11.5h-2.2V372
			L-124,371.9L-124,371.9z"/>
		<path d="M-115.1,367.6v-2.7h2.2v2.7H-115.1z M-112.9,370v13.5h-2.2V370H-112.9z"/>
		<path d="M-101.7,372.4c-0.5-0.5-1.3-0.7-2.2-0.7c-0.8,0-1.5,0.2-2,0.4c-0.5,0.3-1,0.7-1.3,1.2s-0.5,1.1-0.7,1.7
			c-0.1,0.6-0.2,1.3-0.2,2c0,0.6,0.1,1.2,0.2,1.8c0.2,0.6,0.4,1.1,0.7,1.6c0.3,0.4,0.7,0.8,1.2,1.1s1.1,0.4,1.8,0.4
			c1.1,0,1.9-0.3,2.6-0.9c0.6-0.6,1-1.4,1.1-2.4h2.3c-0.3,1.7-0.9,3-1.8,3.9s-2.4,1.4-4.1,1.4c-1,0-1.9-0.2-2.7-0.5
			c-0.8-0.3-1.5-0.8-2-1.4c-0.5-0.6-0.9-1.3-1.2-2.2c-0.3-0.8-0.4-1.8-0.4-2.8s0.1-1.9,0.4-2.8s0.7-1.7,1.2-2.3s1.2-1.2,2-1.5
			c0.8-0.4,1.7-0.6,2.8-0.6c0.8,0,1.5,0.1,2.1,0.3c0.7,0.2,1.3,0.5,1.8,0.9s0.9,0.9,1.3,1.4c0.3,0.6,0.5,1.3,0.6,2.1h-2.3
			C-100.8,373.5-101.2,372.8-101.7,372.4z"/>
		<path d="M-86.6,382.6c-1,0.8-2.3,1.1-3.8,1.1c-1.1,0-2-0.2-2.8-0.5c-0.8-0.4-1.5-0.8-2-1.5c-0.5-0.6-1-1.4-1.2-2.2
			c-0.3-0.9-0.4-1.8-0.4-2.8s0.2-2,0.5-2.8c0.3-0.9,0.8-1.6,1.3-2.2c0.6-0.6,1.2-1.1,2-1.5s1.6-0.5,2.5-0.5c1.2,0,2.2,0.3,3,0.7
			c0.8,0.5,1.4,1.1,1.9,1.9s0.8,1.6,1,2.5s0.3,1.8,0.2,2.6h-10.1c0,0.6,0.1,1.1,0.2,1.7c0.2,0.5,0.4,1,0.8,1.4s0.8,0.7,1.3,1
			s1.2,0.4,1.9,0.4c0.9,0,1.7-0.2,2.3-0.6c0.6-0.4,1-1.1,1.2-2h2.2C-84.9,380.6-85.5,381.8-86.6,382.6z M-87.1,373.9
			c-0.2-0.5-0.5-0.9-0.8-1.2c-0.4-0.4-0.7-0.6-1.2-0.8c-0.4-0.2-1-0.3-1.5-0.3c-0.6,0-1.1,0.1-1.6,0.3c-0.4,0.2-0.9,0.5-1.2,0.8
			c-0.3,0.4-0.6,0.8-0.8,1.2c-0.2,0.4-0.3,1-0.4,1.5h7.7C-86.8,374.9-86.9,374.4-87.1,373.9z"/>
	</g>
</g>
</svg>
