<?xml version="1.0" encoding="utf-8"?>
<!-- Generator: Adobe Illustrator 19.0.0, SVG Export Plug-In . SVG Version: 6.00 Build 0)  -->
<svg version="1.1" id="Layer_1" xmlns="http://www.w3.org/2000/svg" xmlns:xlink="http://www.w3.org/1999/xlink" x="0px" y="0px"
	 viewBox="-236 317.9 226.7 67.1" style="enable-background:new -236 317.9 226.7 67.1;" xml:space="preserve">
<style type="text/css">
	.st0{display:none;}
	.st1{fill:#FFFFFF;}
	.st2{fill:#27AE60;}
	.st3{fill:#57EC11;}
	.st4{fill:#2ECC71;}
</style>
<g id="Layer_1_1_" class="st0">
</g>
<g id="Layer_2">
</g>
<g id="XMLID_5_">
	<path id="XMLID_12_" class="st1" d="M-177.8,355.4l7.5-12.4h2.8v20.8h-4v-11.6l-4.9,8.2h-2.8l-4.9-8.2v11.6h-4V343h2.8
		L-177.8,355.4z"/>
	<path id="XMLID_11_" class="st1" d="M-150.6,363.7h-3.7v-1.2c-1.2,1-2.5,1.4-4,1.4c-2.2,0-4.1-1-5.4-2.4c-1.2-1.3-1.8-3.1-1.8-5
		c0-4.2,3.1-7.5,7-7.5c1.6,0,3.1,0.5,4.2,1.4v-1.2h3.7L-150.6,363.7L-150.6,363.7z M-154.5,354.4c-0.8-1.1-2.1-1.8-3.6-1.8
		c-2.2,0-3.7,1.9-3.7,4c0,2.2,1.6,4,3.8,4c1.4,0,2.7-0.7,3.5-1.8V354.4L-154.5,354.4z"/>
	<path id="XMLID_10_" class="st1" d="M-138.8,352.8c-0.3-0.1-0.8-0.2-1.3-0.2c-1.7,0-3.1,1.3-3.5,2.1v9.1h-3.9v-14.4h3.7v1.4
		c0.9-1.1,2.4-1.7,4.1-1.7c0.5,0,0.9,0.1,1.3,0.1L-138.8,352.8z"/>
	<path id="XMLID_9_" class="st1" d="M-130,358.1l4-8.8h4l-6.6,14.4h-2.7l-6.6-14.4h4L-130,358.1z"/>
	<path id="XMLID_8_" class="st1" d="M-108.7,361.4c-1.3,1.6-3.7,2.6-5.9,2.6c-4.3,0-7.5-3-7.5-7.5c0-4,2.7-7.5,7-7.5
		c4,0,6.8,3.3,6.8,7.4c0,0.4,0,0.8-0.1,1.1h-10c0.2,2,1.8,3.4,3.9,3.4c1.6,0,3-0.9,3.6-1.6L-108.7,361.4z M-112.2,354.6
		c-0.1-1.3-1.3-2.5-2.9-2.5c-1.6,0-2.9,1.3-3.1,2.5H-112.2z"/>
	<path id="XMLID_7_" class="st1" d="M-102.4,363.7h-3.9v-21h3.9V363.7z"/>
	<path id="XMLID_6_" class="st1" d="M-95,363.7h-3.9v-21h3.9V363.7z"/>
</g>
<polygon id="XMLID_4_" class="st2" points="-197.3,366.5 -212.4,351.5 -197.3,336.4 -197.3,351.5 "/>
<polygon id="XMLID_3_" class="st2" points="-227.5,366.5 -212.4,351.5 -227.5,336.4 -227.5,351.5 "/>
<polygon id="XMLID_2_" class="st3" points="-197.3,366.5 -212.4,351.4 -227.5,366.5 -212.4,366.5 "/>
<polygon id="XMLID_1_" class="st4" points="-197.3,366.5 -212.4,351.4 -227.5,366.5 -212.4,366.5 "/>
</svg>
