<?xml version="1.0" encoding="UTF-8"?>
<svg width="640px" height="101px" viewBox="0 0 640 101" version="1.1" xmlns="http://www.w3.org/2000/svg" xmlns:xlink="http://www.w3.org/1999/xlink">
    <!-- Generator: Sketch 57 (83077) - https://sketch.com -->
    <title>Untitled 28</title>
    <desc>Created with Sketch.</desc>
    <g id="Page-1" stroke="none" stroke-width="1" fill="none" fill-rule="evenodd">
        <g id="marvell-logo-1">
            <g id="a-link" transform="translate(355.000000, 34.000000)" fill="#FFFFFF" fill-rule="nonzero">
                <path d="M24.39,48.96 C10.23,48.96 0.11,38.85 0.11,24.69 C0.11,11.2 10.23,0.41 23.71,0.41 C30.46,0.41 36.52,3.11 40.91,7.49 C40.64,7.76 38.48,9.92 38.21,10.19 C34.84,6.48 29.78,4.12 24.05,4.12 C12.92,4.12 4.5,13.23 4.5,24.35 C4.5,35.81 12.59,44.58 24.39,44.58 C30.79,44.58 36.52,41.55 39.9,37.16 C40.08,37.37 40.97,38.38 42.59,40.2 C35.4,46.04 29.33,48.96 24.39,48.96 L24.39,48.96 Z" id="a"></path>
            </g>
            <g id="a-link" transform="translate(355.000000, 34.000000)">
                <path d="M24.39,48.96 C10.23,48.96 0.11,38.85 0.11,24.69 C0.11,11.2 10.23,0.41 23.71,0.41 C30.46,0.41 36.52,3.11 40.91,7.49 C40.64,7.76 38.48,9.92 38.21,10.19 C34.84,6.48 29.78,4.12 24.05,4.12 C12.92,4.12 4.5,13.23 4.5,24.35 C4.5,35.81 12.59,44.58 24.39,44.58 C30.79,44.58 36.52,41.55 39.9,37.16 C40.08,37.37 40.97,38.38 42.59,40.2 C35.4,46.04 29.33,48.96 24.39,48.96 L24.39,48.96 Z" id="a"></path>
            </g>
            <g id="b-link" transform="translate(399.000000, 51.000000)" fill="#FFFFFF" fill-rule="nonzero">
                <path d="M0.95,16.12 C0.95,7.35 7.7,0.27 16.8,0.27 C25.9,0.27 32.64,7.35 32.64,16.12 C32.64,24.88 25.9,31.96 16.8,31.96 C7.7,31.96 0.95,24.88 0.95,16.12 Z M5,16.12 C5,22.86 10.06,28.59 16.8,28.59 C23.88,28.59 28.6,23.2 28.6,16.12 C28.6,9.04 23.54,3.64 16.8,3.64 C9.72,3.64 5,9.04 5,16.12 Z" id="b"></path>
            </g>
            <g id="b-link" transform="translate(399.000000, 51.000000)">
                <path d="M0.95,16.12 C0.95,7.35 7.7,0.27 16.8,0.27 C25.9,0.27 32.64,7.35 32.64,16.12 C32.64,24.88 25.9,31.96 16.8,31.96 C7.7,31.96 0.95,24.88 0.95,16.12 Z M5,16.12 C5,22.86 10.06,28.59 16.8,28.59 C23.88,28.59 28.6,23.2 28.6,16.12 C28.6,9.04 23.54,3.64 16.8,3.64 C9.72,3.64 5,9.04 5,16.12 Z" id="b"></path>
            </g>
            <g id="c-link" transform="translate(435.000000, 50.000000)" fill="#FFFFFF" fill-rule="nonzero">
                <path d="M14.85,0.93 C19.23,0.93 23.28,2.62 25.64,5.99 C27.32,8.35 28.34,10.71 28.34,15.77 L28.34,31.95 L24.63,31.95 C24.63,22.24 24.63,16.85 24.63,15.77 C24.63,11.72 23.95,9.7 22.94,8.35 C21.26,5.65 18.22,4.31 14.85,4.31 C10.47,4.31 6.76,6.67 4.4,10.71 L4.4,31.95 L0.69,31.95 L0.69,1.27 L4.4,1.27 L4.4,5.99 L4.06,5.99 C8.33,2.62 11.93,0.93 14.85,0.93 L14.85,0.93 Z" id="c"></path>
            </g>
            <g id="c-link" transform="translate(435.000000, 50.000000)">
                <path d="M14.85,0.93 C19.23,0.93 23.28,2.62 25.64,5.99 C27.32,8.35 28.34,10.71 28.34,15.77 L28.34,31.95 L24.63,31.95 C24.63,22.24 24.63,16.85 24.63,15.77 C24.63,11.72 23.95,9.7 22.94,8.35 C21.26,5.65 18.22,4.31 14.85,4.31 C10.47,4.31 6.76,6.67 4.4,10.71 L4.4,31.95 L0.69,31.95 L0.69,1.27 L4.4,1.27 L4.4,5.99 L4.06,5.99 C8.33,2.62 11.93,0.93 14.85,0.93 L14.85,0.93 Z" id="c"></path>
            </g>
            <g id="d-link" transform="translate(467.000000, 50.000000)" fill="#FFFFFF" fill-rule="nonzero">
                <path d="M12.18,29.25 C15.89,29.25 19.26,27.23 19.26,23.86 C19.26,16.11 1.73,20.15 1.73,9.7 C1.73,3.97 7.12,0.93 12.18,0.93 C16.23,0.93 19.94,2.28 21.96,3.97 C21.76,4.27 20.14,6.7 19.94,7 C17.24,5.32 15.55,4.64 12.18,4.64 C8.81,4.64 5.44,6.33 5.44,10.04 C5.44,16.78 22.97,13.07 22.97,23.86 C22.97,29.59 18.25,32.96 12.52,32.96 C7.46,32.96 3.42,30.94 0.72,28.58 C0.88,28.38 1.66,27.37 3.08,25.55 C6.9,28.02 9.93,29.25 12.18,29.25 L12.18,29.25 Z" id="d"></path>
            </g>
            <g id="d-link" transform="translate(467.000000, 50.000000)">
                <path d="M12.18,29.25 C15.89,29.25 19.26,27.23 19.26,23.86 C19.26,16.11 1.73,20.15 1.73,9.7 C1.73,3.97 7.12,0.93 12.18,0.93 C16.23,0.93 19.94,2.28 21.96,3.97 C21.76,4.27 20.14,6.7 19.94,7 C17.24,5.32 15.55,4.64 12.18,4.64 C8.81,4.64 5.44,6.33 5.44,10.04 C5.44,16.78 22.97,13.07 22.97,23.86 C22.97,29.59 18.25,32.96 12.52,32.96 C7.46,32.96 3.42,30.94 0.72,28.58 C0.88,28.38 1.66,27.37 3.08,25.55 C6.9,28.02 9.93,29.25 12.18,29.25 L12.18,29.25 Z" id="d"></path>
            </g>
            <g id="e-link" transform="translate(495.000000, 51.000000)" fill="#FFFFFF" fill-rule="nonzero">
                <path d="M13.51,31.96 C8.46,31.96 4.41,29.6 2.05,25.56 C1.04,23.53 0.37,20.84 0.37,16.79 C0.37,15.71 0.37,10.32 0.37,0.61 L4.07,0.61 L4.07,16.45 C4.07,20.84 4.75,22.86 5.76,24.21 C7.45,26.57 10.14,28.25 13.51,28.25 C17.56,28.25 21.61,25.56 23.63,21.85 C23.63,20.43 23.63,13.35 23.63,0.61 L27.34,0.61 L27.34,31.29 L23.97,31.29 L23.97,27.24 C19.92,30.39 16.44,31.96 13.51,31.96 L13.51,31.96 Z" id="e"></path>
            </g>
            <g id="e-link" transform="translate(495.000000, 51.000000)">
                <path d="M13.51,31.96 C8.46,31.96 4.41,29.6 2.05,25.56 C1.04,23.53 0.37,20.84 0.37,16.79 C0.37,15.71 0.37,10.32 0.37,0.61 L4.07,0.61 L4.07,16.45 C4.07,20.84 4.75,22.86 5.76,24.21 C7.45,26.57 10.14,28.25 13.51,28.25 C17.56,28.25 21.61,25.56 23.63,21.85 C23.63,20.43 23.63,13.35 23.63,0.61 L27.34,0.61 L27.34,31.29 L23.97,31.29 L23.97,27.24 C19.92,30.39 16.44,31.96 13.51,31.96 L13.51,31.96 Z" id="e"></path>
            </g>
            <g id="f-link" transform="translate(529.000000, 34.000000)" fill="#FFFFFF" fill-rule="nonzero">
                <polygon id="f" points="4.13 0.75 4.13 48.29 0.42 48.29 0.42 0.75"></polygon>
            </g>
            <g id="f-link" transform="translate(529.000000, 34.000000)">
                <polygon id="f" points="4.13 0.75 4.13 48.29 0.42 48.29 0.42 0.75"></polygon>
            </g>
            <g id="g-link" transform="translate(535.000000, 43.000000)" fill="#FFFFFF" fill-rule="nonzero">
                <path d="M13.3,12.32 L13.3,29.17 C13.3,31.87 13.97,33.22 14.65,34.23 C15.66,35.58 17.34,36.25 19.7,36.25 C20.71,36.25 21.73,36.25 23.07,35.92 C23.14,36.25 23.68,38.95 23.75,39.29 C22.74,39.63 21.05,39.96 19.7,39.96 C17.01,39.96 13.63,38.95 11.61,36.59 C10.26,34.91 9.59,32.55 9.59,29.17 C9.59,28.07 9.59,22.57 9.59,12.65 L0.82,12.65 L0.82,8.95 L9.25,8.95 L9.25,0.52 L12.96,0.52 L12.96,8.95 L23.41,8.95 L23.41,12.32 L23.75,12.32 L13.3,12.32 Z" id="g"></path>
            </g>
            <g id="g-link" transform="translate(535.000000, 43.000000)">
                <path d="M13.3,12.32 L13.3,29.17 C13.3,31.87 13.97,33.22 14.65,34.23 C15.66,35.58 17.34,36.25 19.7,36.25 C20.71,36.25 21.73,36.25 23.07,35.92 C23.14,36.25 23.68,38.95 23.75,39.29 C22.74,39.63 21.05,39.96 19.7,39.96 C17.01,39.96 13.63,38.95 11.61,36.59 C10.26,34.91 9.59,32.55 9.59,29.17 C9.59,28.07 9.59,22.57 9.59,12.65 L0.82,12.65 L0.82,8.95 L9.25,8.95 L9.25,0.52 L12.96,0.52 L12.96,8.95 L23.41,8.95 L23.41,12.32 L23.75,12.32 L13.3,12.32 Z" id="g"></path>
            </g>
            <g id="h-link" transform="translate(563.000000, 37.000000)" fill="#FFFFFF" fill-rule="nonzero">
                <path d="M6.87,4.16 C6.87,6.18 5.19,7.53 3.5,7.53 C1.48,7.53 0.13,6.18 0.13,4.16 C0.13,2.13 1.82,0.79 3.5,0.79 C5.53,0.79 6.87,2.47 6.87,4.16 Z M5.53,14.61 L5.53,45.29 L1.82,45.29 L1.82,14.61 L5.53,14.61 Z" id="h"></path>
            </g>
            <g id="h-link" transform="translate(563.000000, 37.000000)">
                <path d="M6.87,4.16 C6.87,6.18 5.19,7.53 3.5,7.53 C1.48,7.53 0.13,6.18 0.13,4.16 C0.13,2.13 1.82,0.79 3.5,0.79 C5.53,0.79 6.87,2.47 6.87,4.16 Z M5.53,14.61 L5.53,45.29 L1.82,45.29 L1.82,14.61 L5.53,14.61 Z" id="h"></path>
            </g>
            <g id="i-link" transform="translate(576.000000, 50.000000)" fill="#FFFFFF" fill-rule="nonzero">
                <path d="M15.11,0.93 C19.5,0.93 23.54,2.62 25.9,5.99 C27.59,8.35 28.6,10.71 28.6,15.77 L28.6,31.95 L24.89,31.95 C24.89,22.24 24.89,16.85 24.89,15.77 C24.89,11.72 24.22,9.7 23.21,8.35 C21.52,5.65 18.49,4.31 15.11,4.31 C10.73,4.31 7.02,6.67 4.66,10.71 L4.66,31.95 L0.95,31.95 L0.95,1.27 L4.66,1.27 L4.66,5.99 L4.33,5.99 C8.6,2.62 12.19,0.93 15.11,0.93 L15.11,0.93 Z" id="i"></path>
            </g>
            <g id="i-link" transform="translate(576.000000, 50.000000)">
                <path d="M15.11,0.93 C19.5,0.93 23.54,2.62 25.9,5.99 C27.59,8.35 28.6,10.71 28.6,15.77 L28.6,31.95 L24.89,31.95 C24.89,22.24 24.89,16.85 24.89,15.77 C24.89,11.72 24.22,9.7 23.21,8.35 C21.52,5.65 18.49,4.31 15.11,4.31 C10.73,4.31 7.02,6.67 4.66,10.71 L4.66,31.95 L0.95,31.95 L0.95,1.27 L4.66,1.27 L4.66,5.99 L4.33,5.99 C8.6,2.62 12.19,0.93 15.11,0.93 L15.11,0.93 Z" id="i"></path>
            </g>
            <g id="j-link" transform="translate(609.000000, 50.000000)" fill="#FFFFFF" fill-rule="nonzero">
                <path d="M15.83,49.15 C10.1,49.15 5.04,46.45 2.01,41.73 C2.31,41.49 4.74,39.6 5.04,39.37 C7.4,43.08 11.11,45.44 15.83,45.44 C20.89,45.44 24.26,43.08 25.61,40.04 C26.62,38.02 26.95,36 26.95,32.29 C26.95,31.85 26.95,28.34 26.95,27.91 C24.59,30.94 20.89,32.96 16.17,32.96 C13.13,32.96 10.1,32.29 7.06,29.93 C3.02,27.23 0.66,22.51 0.66,16.78 C0.66,11.72 3.02,7.34 6.39,4.31 C9.09,2.28 12.46,0.93 16.17,0.93 C20.55,0.93 24.59,2.62 27.29,5.99 C27.29,5.7 27.29,4.24 27.29,1.61 L31,1.61 L31,31.95 C30.66,36.67 30.33,39.71 28.98,42.07 C26.62,46.11 22.23,49.15 15.83,49.15 L15.83,49.15 Z M15.83,4.64 C13.13,4.64 10.43,5.65 8.41,7.34 C5.71,9.7 4.03,13.07 4.03,17.12 C4.03,21.5 6.05,25.21 8.75,27.23 C10.77,28.58 13.13,29.59 15.83,29.59 C20.21,29.59 24.26,26.89 26.62,22.85 C26.62,22.04 26.62,17.99 26.62,10.71 L26.95,10.71 C23.36,6.67 19.65,4.64 15.83,4.64 L15.83,4.64 Z" id="j"></path>
            </g>
            <g id="j-link" transform="translate(609.000000, 50.000000)">
                <path d="M15.83,49.15 C10.1,49.15 5.04,46.45 2.01,41.73 C2.31,41.49 4.74,39.6 5.04,39.37 C7.4,43.08 11.11,45.44 15.83,45.44 C20.89,45.44 24.26,43.08 25.61,40.04 C26.62,38.02 26.95,36 26.95,32.29 C26.95,31.85 26.95,28.34 26.95,27.91 C24.59,30.94 20.89,32.96 16.17,32.96 C13.13,32.96 10.1,32.29 7.06,29.93 C3.02,27.23 0.66,22.51 0.66,16.78 C0.66,11.72 3.02,7.34 6.39,4.31 C9.09,2.28 12.46,0.93 16.17,0.93 C20.55,0.93 24.59,2.62 27.29,5.99 C27.29,5.7 27.29,4.24 27.29,1.61 L31,1.61 L31,31.95 C30.66,36.67 30.33,39.71 28.98,42.07 C26.62,46.11 22.23,49.15 15.83,49.15 L15.83,49.15 Z M15.83,4.64 C13.13,4.64 10.43,5.65 8.41,7.34 C5.71,9.7 4.03,13.07 4.03,17.12 C4.03,21.5 6.05,25.21 8.75,27.23 C10.77,28.58 13.13,29.59 15.83,29.59 C20.21,29.59 24.26,26.89 26.62,22.85 C26.62,22.04 26.62,17.99 26.62,10.71 L26.95,10.71 C23.36,6.67 19.65,4.64 15.83,4.64 L15.83,4.64 Z" id="j"></path>
            </g>
            <g id="k-link" transform="translate(127.000000, 34.000000)" fill="#FFFFFF" fill-rule="nonzero">
                <polygon id="k" points="41.34 0.41 47.74 0.41 47.74 47.95 38.64 47.95 38.64 21.65 27.17 40.2 20.77 40.2 9.31 21.65 9.31 47.95 0.2 47.95 0.2 0.41 6.61 0.41 24.14 28.73"></polygon>
            </g>
            <g id="k-link" transform="translate(127.000000, 34.000000)">
                <polygon id="k" points="41.34 0.41 47.74 0.41 47.74 47.95 38.64 47.95 38.64 21.65 27.17 40.2 20.77 40.2 9.31 21.65 9.31 47.95 0.2 47.95 0.2 0.41 6.61 0.41 24.14 28.73"></polygon>
            </g>
            <g id="l-link" transform="translate(179.000000, 48.000000)" fill="#FFFFFF" fill-rule="nonzero">
                <path d="M26.08,33.61 C26.08,32 26.08,31.1 26.08,30.92 C23.39,33.28 20.35,34.29 16.98,34.29 C12.26,34.29 7.54,32.27 4.51,28.89 C1.81,25.86 0.46,21.81 0.46,17.43 C0.46,7.65 7.54,0.24 16.64,0.24 C20.35,0.24 23.72,1.59 26.08,3.61 C26.08,3.43 26.08,2.53 26.08,0.91 L34.51,0.91 L34.51,33.61 L26.08,33.61 Z M17.66,8.33 C12.6,8.33 9.23,12.71 9.23,17.43 C9.23,22.49 12.94,26.53 17.99,26.53 C21.36,26.53 24.06,24.85 25.75,22.49 C25.75,21.81 25.75,18.44 25.75,12.37 C22.6,9.68 19.9,8.33 17.66,8.33 L17.66,8.33 Z" id="l"></path>
            </g>
            <g id="l-link" transform="translate(179.000000, 48.000000)">
                <path d="M26.08,33.61 C26.08,32 26.08,31.1 26.08,30.92 C23.39,33.28 20.35,34.29 16.98,34.29 C12.26,34.29 7.54,32.27 4.51,28.89 C1.81,25.86 0.46,21.81 0.46,17.43 C0.46,7.65 7.54,0.24 16.64,0.24 C20.35,0.24 23.72,1.59 26.08,3.61 C26.08,3.43 26.08,2.53 26.08,0.91 L34.51,0.91 L34.51,33.61 L26.08,33.61 Z M17.66,8.33 C12.6,8.33 9.23,12.71 9.23,17.43 C9.23,22.49 12.94,26.53 17.99,26.53 C21.36,26.53 24.06,24.85 25.75,22.49 C25.75,21.81 25.75,18.44 25.75,12.37 C22.6,9.68 19.9,8.33 17.66,8.33 L17.66,8.33 Z" id="l"></path>
            </g>
            <g id="m-link" transform="translate(220.000000, 48.000000)" fill="#FFFFFF" fill-rule="nonzero">
                <path d="M17.11,8.33 C13.4,8.33 10.37,11.03 9.02,13.05 L9.02,33.61 L0.26,33.61 L0.26,0.91 L8.68,0.91 L8.68,4.28 C10.71,1.92 14.08,0.24 18.12,0.24 C19.47,0.24 20.15,0.24 21.16,0.57 C21.09,1.11 20.75,3.81 20.15,8.67 C18.8,8.44 17.79,8.33 17.11,8.33 L17.11,8.33 Z" id="m"></path>
            </g>
            <g id="m-link" transform="translate(220.000000, 48.000000)">
                <path d="M17.11,8.33 C13.4,8.33 10.37,11.03 9.02,13.05 L9.02,33.61 L0.26,33.61 L0.26,0.91 L8.68,0.91 L8.68,4.28 C10.71,1.92 14.08,0.24 18.12,0.24 C19.47,0.24 20.15,0.24 21.16,0.57 C21.09,1.11 20.75,3.81 20.15,8.67 C18.8,8.44 17.79,8.33 17.11,8.33 L17.11,8.33 Z" id="m"></path>
            </g>
            <g id="n-link" transform="translate(242.000000, 48.000000)" fill="#FFFFFF" fill-rule="nonzero">
                <polygon id="n" points="27.48 0.91 36.58 0.91 21.41 33.61 15.34 33.61 0.17 0.91 9.27 0.91 18.38 20.8"></polygon>
            </g>
            <g id="n-link" transform="translate(242.000000, 48.000000)">
                <polygon id="n" points="27.48 0.91 36.58 0.91 21.41 33.61 15.34 33.61 0.17 0.91 9.27 0.91 18.38 20.8"></polygon>
            </g>
            <g id="o-link" transform="translate(278.000000, 47.000000)" fill="#FFFFFF" fill-rule="nonzero">
                <path d="M17.78,35.29 C8,35.29 0.58,28.55 0.58,18.09 C0.58,8.99 6.65,0.9 16.43,0.9 C25.53,0.9 31.94,8.65 31.94,17.76 C31.94,18.77 31.94,19.44 31.6,20.12 C29.34,20.12 11.27,20.12 9.01,20.12 C9.35,24.84 13.06,27.87 17.78,27.87 C21.48,27.87 24.52,25.85 25.87,24.16 C26.23,24.52 28.02,26.32 31.26,29.56 C25.64,33.38 21.15,35.29 17.78,35.29 L17.78,35.29 Z M16.76,8.32 C13.06,8.32 10.02,11.01 9.68,14.05 L23.17,14.05 C21.15,10.23 19.01,8.32 16.76,8.32 Z" id="o"></path>
            </g>
            <g id="o-link" transform="translate(278.000000, 47.000000)">
                <path d="M17.78,35.29 C8,35.29 0.58,28.55 0.58,18.09 C0.58,8.99 6.65,0.9 16.43,0.9 C25.53,0.9 31.94,8.65 31.94,17.76 C31.94,18.77 31.94,19.44 31.6,20.12 C29.34,20.12 11.27,20.12 9.01,20.12 C9.35,24.84 13.06,27.87 17.78,27.87 C21.48,27.87 24.52,25.85 25.87,24.16 C26.23,24.52 28.02,26.32 31.26,29.56 C25.64,33.38 21.15,35.29 17.78,35.29 L17.78,35.29 Z M16.76,8.32 C13.06,8.32 10.02,11.01 9.68,14.05 L23.17,14.05 C21.15,10.23 19.01,8.32 16.76,8.32 Z" id="o"></path>
            </g>
            <g id="p-link" transform="translate(314.000000, 33.000000)" fill="#FFFFFF" fill-rule="nonzero">
                <polygon id="p" points="0.66 48.61 0.66 0.4 9.42 0.4 9.42 48.61"></polygon>
            </g>
            <g id="p-link" transform="translate(314.000000, 33.000000)">
                <polygon id="p" points="0.66 48.61 0.66 0.4 9.42 0.4 9.42 48.61"></polygon>
            </g>
            <g id="q-link" transform="translate(331.000000, 33.000000)" fill="#FFFFFF" fill-rule="nonzero">
                <polygon id="q" points="0.94 47.6 0.94 0.4 9.52 0.4 9.52 47.6"></polygon>
            </g>
            <g id="q-link" transform="translate(331.000000, 33.000000)">
                <polygon id="q" points="0.94 47.6 0.94 0.4 9.52 0.4 9.52 47.6"></polygon>
            </g>
            <g id="r-link" transform="translate(49.000000, 0.000000)" fill="#27AE60" fill-rule="nonzero">
                <polygon id="r" points="0.66 50.26 50.56 0.7 50.56 50.26 50.56 100.16"></polygon>
            </g>
            <g id="r-link" transform="translate(49.000000, 0.000000)">
                <polygon id="r" points="0.66 50.26 50.56 0.7 50.56 50.26 50.56 100.16"></polygon>
            </g>
            <g id="s-link" fill="#27AE60" fill-rule="nonzero">
                <polygon id="s" points="49.66 50.26 0.1 0.7 0.1 50.26 0.1 100.16"></polygon>
            </g>
            <g id="s-link">
                <polygon id="s" points="49.66 50.26 0.1 0.7 0.1 50.26 0.1 100.16"></polygon>
            </g>
            <g id="t-link" transform="translate(0.000000, 50.000000)" fill="#9AF470" fill-rule="nonzero">
                <polygon id="t" points="49.66 0.26 0.1 50.16 49.66 50.16 99.56 50.16"></polygon>
            </g>
            <g id="t-link" transform="translate(0.000000, 50.000000)">
                <polygon id="t" points="49.66 0.26 0.1 50.16 49.66 50.16 99.56 50.16"></polygon>
            </g>
            <g id="u-link" transform="translate(0.000000, 50.000000)" fill="#2ECC71" fill-rule="nonzero">
                <polygon id="u" points="49.66 0.26 0.1 50.16 49.66 50.16 99.56 50.16"></polygon>
            </g>
            <g id="u-link" transform="translate(0.000000, 50.000000)">
                <polygon id="u" points="49.66 0.26 0.1 50.16 49.66 50.16 99.56 50.16"></polygon>
            </g>
        </g>
    </g>
</svg>