<?xml version="1.0" encoding="utf-8"?>
<!-- Generator: Adobe Illustrator 19.0.0, SVG Export Plug-In . SVG Version: 6.00 Build 0)  -->
<svg version="1.1" id="Layer_1" xmlns="http://www.w3.org/2000/svg" xmlns:xlink="http://www.w3.org/1999/xlink" x="0px" y="0px"
	 viewBox="-236 317.9 226.7 67.1" style="enable-background:new -236 317.9 226.7 67.1;" xml:space="preserve">
<style type="text/css">
	.st0{display:none;}
	.st1{fill:#FFFFFF;}
	.st2{fill:url(#XMLID_2_);}
</style>
<g id="Layer_1_1_" class="st0">
</g>
<g id="Layer_2">
</g>
<g id="XMLID_1533_">
	<path id="XMLID_1548_" class="st1" d="M-168.6,351.4l5.5-9.1h2.1v15.2h-2.9V349l-3.6,6h-2l-3.6-6v8.4h-2.9v-15.2h2.1L-168.6,351.4z
		"/>
	<path id="XMLID_1545_" class="st1" d="M-148.7,357.4h-2.7v-0.8c-0.9,0.7-1.9,1.1-2.9,1.1c-1.6,0-3-0.7-4-1.8
		c-0.8-1-1.3-2.3-1.3-3.7c0-3.1,2.3-5.5,5.2-5.5c1.2,0,2.3,0.4,3.1,1.1v-0.8h2.7V357.4z M-151.5,350.6c-0.6-0.8-1.5-1.3-2.6-1.3
		c-1.6,0-2.7,1.4-2.7,2.9c0,1.6,1.2,2.9,2.8,2.9c1.1,0,2-0.5,2.5-1.3V350.6z"/>
	<path id="XMLID_1543_" class="st1" d="M-140.1,349.4c-0.2-0.1-0.6-0.1-1-0.1c-1.2,0-2.2,0.9-2.6,1.5v6.6h-2.8v-10.5h2.7v1.1
		c0.6-0.8,1.8-1.3,3.1-1.3c0.4,0,0.6,0,1,0.1L-140.1,349.4z"/>
	<path id="XMLID_1541_" class="st1" d="M-133.2,353.4l2.9-6.4h2.9l-4.8,10.5h-1.9l-4.8-10.5h2.9L-133.2,353.4z"/>
	<path id="XMLID_1538_" class="st1" d="M-117.6,355.8c-1,1.2-2.7,1.9-4.3,1.9c-3.1,0-5.5-2.2-5.5-5.5c0-2.9,2-5.5,5.1-5.5
		c2.9,0,5,2.4,5,5.4c0,0.3,0,0.6-0.1,0.8h-7.3c0.1,1.5,1.3,2.5,2.8,2.5c1.2,0,2.1-0.7,2.6-1.2L-117.6,355.8z M-120.2,350.8
		c-0.1-0.9-0.9-1.8-2.1-1.8c-1.2,0-2.1,0.9-2.3,1.8H-120.2z"/>
	<path id="XMLID_1536_" class="st1" d="M-113,357.4h-2.8v-15.4h2.8V357.4z"/>
	<path id="XMLID_1534_" class="st1" d="M-107.6,357.4h-2.8v-15.4h2.8V357.4z"/>
</g>
<g id="XMLID_1509_">
	<path id="XMLID_1531_" class="st1" d="M-92.2,355.1c-1.2,1.5-3.2,2.6-5.4,2.6c-4.2,0-7.2-3-7.2-7.2c0-4,3-7.2,7-7.2
		c2,0,3.8,0.8,5,2.1l-0.8,0.8c-1-1.1-2.5-1.8-4.2-1.8c-3.3,0-5.8,2.7-5.8,6c0,3.4,2.4,6,5.9,6c1.9,0,3.6-0.9,4.6-2.2L-92.2,355.1z"
		/>
	<path id="XMLID_1528_" class="st1" d="M-87.2,357.6c-2.7,0-4.7-2.1-4.7-4.7c0-2.6,2-4.7,4.7-4.7s4.7,2.1,4.7,4.7
		C-82.5,355.5-84.5,357.6-87.2,357.6z M-87.2,349.3c-2,0-3.5,1.6-3.5,3.7c0,2,1.5,3.7,3.5,3.7s3.5-1.6,3.5-3.7
		C-83.7,350.9-85.2,349.3-87.2,349.3z"/>
	<path id="XMLID_1526_" class="st1" d="M-79.9,349.7c0.7-1,1.9-1.5,3.2-1.5c1.3,0,2.5,0.5,3.2,1.5c0.5,0.7,0.8,1.4,0.8,2.9v4.8h-1.1
		v-4.7c0-1.2-0.2-1.8-0.5-2.2c-0.5-0.8-1.4-1.2-2.4-1.2c-1.3,0-2.4,0.7-3.1,1.9v6.3H-81v-9.1h1.1V349.7z"/>
	<path id="XMLID_1524_" class="st1" d="M-70.7,355.5c0.8,0.7,1.7,1.1,2.7,1.1c1.1,0,2.1-0.6,2.1-1.6c0-2.3-5.2-1.1-5.2-4.2
		c0-1.6,1.6-2.6,3.1-2.6c1.2,0,2.2,0.4,2.9,0.9l-0.6,0.9c-0.8-0.5-1.3-0.7-2.3-0.7c-1,0-2,0.5-2,1.6c0,2,5.2,0.9,5.2,4.1
		c0,1.7-1.4,2.7-3.1,2.7c-1.5,0-2.7-0.6-3.5-1.3L-70.7,355.5z"/>
	<path id="XMLID_1522_" class="st1" d="M-56.2,356.2c-0.6,0.8-1.8,1.4-3.1,1.4c-1.5,0-2.7-0.7-3.4-1.9c-0.3-0.6-0.5-1.4-0.5-2.6
		v-4.8h1.1v4.6c0,1.3,0.2,1.9,0.5,2.3c0.5,0.7,1.3,1.2,2.3,1.2c1.2,0,2.4-0.8,3-1.9v-6.3h1.1v9.1h-1.1V356.2z"/>
	<path id="XMLID_1520_" class="st1" d="M-52.8,343.3h1.1v14.1h-1.1V343.3z"/>
	<path id="XMLID_1518_" class="st1" d="M-44.1,349.5h-3.1v5c0,0.8,0.2,1.2,0.4,1.5c0.3,0.4,0.8,0.6,1.5,0.6c0.3,0,0.6,0,1-0.1l0.2,1
		c-0.3,0.1-0.8,0.2-1.2,0.2c-0.8,0-1.8-0.3-2.4-1c-0.4-0.5-0.6-1.2-0.6-2.2v-4.9h-2.5v-1.1h2.5v-2.5h1.1v2.5h3.1V349.5z"/>
	<path id="XMLID_1515_" class="st1" d="M-41.7,344.2c0.6,0,1,0.5,1,1c0,0.6-0.5,1-1,1c-0.6,0-1-0.4-1-1
		C-42.7,344.7-42.3,344.2-41.7,344.2z M-42.3,348.4h1.1v9.1h-1.1V348.4z"/>
	<path id="XMLID_1513_" class="st1" d="M-37.7,349.7c0.7-1,1.9-1.5,3.2-1.5c1.3,0,2.5,0.5,3.2,1.5c0.5,0.7,0.8,1.4,0.8,2.9v4.8h-1.1
		v-4.7c0-1.2-0.2-1.8-0.5-2.2c-0.5-0.8-1.4-1.2-2.4-1.2c-1.3,0-2.4,0.7-3.1,1.9v6.3h-1.1v-9.1h1.1V349.7z"/>
	<path id="XMLID_1510_" class="st1" d="M-20.6,360.3c-0.7,1.2-1.9,2.1-3.9,2.1c-1.7,0-3.2-0.8-4.1-2.2l0.9-0.7
		c0.7,1.1,1.8,1.7,3.2,1.7c1.5,0,2.5-0.7,2.9-1.5c0.3-0.6,0.4-1.2,0.4-2.3v-1.3c-0.7,0.9-1.8,1.5-3.2,1.5c-0.9,0-1.8-0.2-2.7-0.9
		c-1.2-0.8-1.9-2.2-1.9-3.9c0-1.5,0.7-2.8,1.7-3.7c0.8-0.6,1.8-1,2.9-1c1.3,0,2.5,0.5,3.3,1.5v-1.3h1.1v9
		C-20.1,358.7-20.3,359.6-20.6,360.3z M-21.3,351.1c-0.4-0.7-1.6-1.8-3.3-1.8c-0.8,0-1.5,0.3-2.2,0.8c-0.8,0.7-1.3,1.7-1.3,2.9
		c0,1.3,0.6,2.4,1.4,3c0.6,0.4,1.3,0.7,2,0.7c1.3,0,2.5-0.8,3.2-2V351.1z"/>
</g>
<path id="XMLID_1508_" d="M-213.2,353.7"/>
<linearGradient id="XMLID_2_" gradientUnits="userSpaceOnUse" x1="-227.6389" y1="352.45" x2="-185.1609" y2="352.45">
	<stop  offset="0" style="stop-color:#9AF470"/>
	<stop  offset="1" style="stop-color:#57EC11"/>
</linearGradient>
<path id="XMLID_1507_" class="st2" d="M-188.6,353.7h0.2c3,0,4.1-2,2.5-4.6l-5.1-8c-1.6-2.5-4.3-2.5-5.9,0l-5.1,8
	c-4.7,3-8.7,0-8.7,0l-5.1-8c-1.6-2.5-4.3-2.5-5.9,0l-5.1,8c-1.6,2.5-0.5,4.6,2.5,4.6h0.2c0,0,6.9-0.7,9.7,2.1l5.1,8
	c1.6,2.5,4.3,2.5,5.9,0l5.1-8c0,0,0.5-2.1,9.9-2.1"/>
</svg>
