<svg height="640" preserveAspectRatio="xMidYMid meet" viewBox="0 0 640 640" width="640" xmlns="http://www.w3.org/2000/svg" xmlns:xlink="http://www.w3.org/1999/xlink"><defs><path id="a" d="m379.39 82.96c-14.16 0-24.28-10.11-24.28-24.27 0-13.49 10.12-24.28 23.6-24.28 6.75 0 12.81 2.7 17.2 7.08-.27.27-2.43 2.43-2.7 2.7-3.37-3.71-8.43-6.07-14.16-6.07-11.13 0-19.55 9.11-19.55 20.23 0 11.46 8.09 20.23 19.89 20.23 6.4 0 12.13-3.03 15.51-7.42.18.21 1.07 1.22 2.69 3.04-7.19 5.84-13.26 8.76-18.2 8.76z"/><path id="b" d="m399.95 67.12c0-8.77 6.75-15.85 15.85-15.85s15.84 7.08 15.84 15.85c0 8.76-6.74 15.84-15.84 15.84s-15.85-7.08-15.85-15.84zm4.05 0c0 6.74 5.06 12.47 11.8 12.47 7.08 0 11.8-5.39 11.8-12.47s-5.06-12.48-11.8-12.48c-7.08 0-11.8 5.4-11.8 12.48z"/><path id="c" d="m449.85 50.93c4.38 0 8.43 1.69 10.79 5.06 1.68 2.36 2.7 4.72 2.7 9.78v16.18h-3.71c0-9.71 0-15.1 0-16.18 0-4.05-.68-6.07-1.69-7.42-1.68-2.7-4.72-4.04-8.09-4.04-4.38 0-8.09 2.36-10.45 6.4v21.24h-3.71v-30.68h3.71v4.72h-.34c4.27-3.37 7.87-5.06 10.79-5.06z"/><path id="d" d="m479.18 79.25c3.71 0 7.08-2.02 7.08-5.39 0-7.75-17.53-3.71-17.53-14.16 0-5.73 5.39-8.77 10.45-8.77 4.05 0 7.76 1.35 9.78 3.04-.2.3-1.82 2.73-2.02 3.03-2.7-1.68-4.39-2.36-7.76-2.36s-6.74 1.69-6.74 5.4c0 6.74 17.53 3.03 17.53 13.82 0 5.73-4.72 9.1-10.45 9.1-5.06 0-9.1-2.02-11.8-4.38.16-.2.94-1.21 2.36-3.03 3.82 2.47 6.85 3.7 9.1 3.7z"/><path id="e" d="m508.51 82.96c-5.05 0-9.1-2.36-11.46-6.4-1.01-2.03-1.68-4.72-1.68-8.77 0-1.08 0-6.47 0-16.18h3.7v15.84c0 4.39.68 6.41 1.69 7.76 1.69 2.36 4.38 4.04 7.75 4.04 4.05 0 8.1-2.69 10.12-6.4 0-1.42 0-8.5 0-21.24h3.71v30.68h-3.37v-4.05c-4.05 3.15-7.53 4.72-10.46 4.72z"/><path id="f" d="m533.13 34.75v47.54h-3.71v-47.54z"/><path id="g" d="m548.3 55.32v16.85c0 2.7.67 4.05 1.35 5.06 1.01 1.35 2.69 2.02 5.05 2.02 1.01 0 2.03 0 3.37-.33.07.33.61 3.03.68 3.37-1.01.34-2.7.67-4.05.67-2.69 0-6.07-1.01-8.09-3.37-1.35-1.68-2.02-4.04-2.02-7.42 0-1.1 0-6.6 0-16.52h-8.77v-3.7h8.43v-8.43h3.71v8.43h10.45v3.37h.34z"/><path id="h" d="m569.87 41.16c0 2.02-1.68 3.37-3.37 3.37-2.02 0-3.37-1.35-3.37-3.37 0-2.03 1.69-3.37 3.37-3.37 2.03 0 3.37 1.68 3.37 3.37zm-1.34 10.45v30.68h-3.71v-30.68z"/><path id="i" d="m591.11 50.93c4.39 0 8.43 1.69 10.79 5.06 1.69 2.36 2.7 4.72 2.7 9.78v16.18h-3.71c0-9.71 0-15.1 0-16.18 0-4.05-.67-6.07-1.68-7.42-1.69-2.7-4.72-4.04-8.1-4.04-4.38 0-8.09 2.36-10.45 6.4v21.24h-3.71v-30.68h3.71v4.72h-.33c4.27-3.37 7.86-5.06 10.78-5.06z"/><path id="j" d="m624.83 99.15c-5.73 0-10.79-2.7-13.82-7.42.3-.24 2.73-2.13 3.03-2.36 2.36 3.71 6.07 6.07 10.79 6.07 5.06 0 8.43-2.36 9.78-5.4 1.01-2.02 1.34-4.04 1.34-7.75 0-.44 0-3.95 0-4.38-2.36 3.03-6.06 5.05-10.78 5.05-3.04 0-6.07-.67-9.11-3.03-4.04-2.7-6.4-7.42-6.4-13.15 0-5.06 2.36-9.44 5.73-12.47 2.7-2.03 6.07-3.38 9.78-3.38 4.38 0 8.42 1.69 11.12 5.06 0-.29 0-1.75 0-4.38h3.71v30.34c-.34 4.72-.67 7.76-2.02 10.12-2.36 4.04-6.75 7.08-13.15 7.08zm0-44.51c-2.7 0-5.4 1.01-7.42 2.7-2.7 2.36-4.38 5.73-4.38 9.78 0 4.38 2.02 8.09 4.72 10.11 2.02 1.35 4.38 2.36 7.08 2.36 4.38 0 8.43-2.7 10.79-6.74 0-.81 0-4.86 0-12.14h.33c-3.59-4.04-7.3-6.07-11.12-6.07z"/><path id="k" d="m168.34 34.41h6.4v47.54h-9.1v-26.3l-11.47 18.55h-6.4l-11.46-18.55v26.3h-9.11v-47.54h6.41l17.53 28.32z"/><path id="l" d="m205.08 81.61c0-1.61 0-2.51 0-2.69-2.69 2.36-5.73 3.37-9.1 3.37-4.72 0-9.44-2.02-12.47-5.4-2.7-3.03-4.05-7.08-4.05-11.46 0-9.78 7.08-17.19 16.18-17.19 3.71 0 7.08 1.35 9.44 3.37 0-.18 0-1.08 0-2.7h8.43v32.7zm-8.42-25.28c-5.06 0-8.43 4.38-8.43 9.1 0 5.06 3.71 9.1 8.76 9.1 3.37 0 6.07-1.68 7.76-4.04 0-.68 0-4.05 0-10.12-3.15-2.69-5.85-4.04-8.09-4.04z"/><path id="m" d="m237.11 56.33c-3.71 0-6.74 2.7-8.09 4.72v20.56h-8.76v-32.7h8.42v3.37c2.03-2.36 5.4-4.04 9.44-4.04 1.35 0 2.03 0 3.04.33-.07.54-.41 3.24-1.01 8.1-1.35-.23-2.36-.34-3.04-.34z"/><path id="n" d="m269.48 48.91h9.1l-15.17 32.7h-6.07l-15.17-32.7h9.1l9.11 19.89z"/><path id="o" d="m295.78 82.29c-9.78 0-17.2-6.74-17.2-17.2 0-9.1 6.07-17.19 15.85-17.19 9.1 0 15.51 7.75 15.51 16.86 0 1.01 0 1.68-.34 2.36-2.26 0-20.33 0-22.59 0 .34 4.72 4.05 7.75 8.77 7.75 3.7 0 6.74-2.02 8.09-3.71.36.36 2.15 2.16 5.39 5.4-5.62 3.82-10.11 5.73-13.48 5.73zm-1.02-26.97c-3.7 0-6.74 2.69-7.08 5.73h13.49c-2.02-3.82-4.16-5.73-6.41-5.73z"/><path id="p" d="m314.66 81.61v-48.21h8.76v48.21z"/><path id="q" d="m331.94 80.6v-47.2h8.58v47.2z"/><path id="r" d="m49.66 50.26 49.9-49.56v49.56 49.9z"/><path id="s" d="m49.66 50.26-49.56-49.56v49.56 49.9z"/><path id="t" d="m49.66 50.26-49.56 49.9h49.56 49.9z"/><path id="u" d="m49.66 50.26-49.56 49.9h49.56 49.9z"/></defs><use fill="#fff" xlink:href="#a"/><use fill="none" xlink:href="#a"/><use fill="#fff" xlink:href="#b"/><use fill="none" xlink:href="#b"/><use fill="#fff" xlink:href="#c"/><use fill="none" xlink:href="#c"/><use fill="#fff" xlink:href="#d"/><use fill="none" xlink:href="#d"/><use fill="#fff" xlink:href="#e"/><use fill="none" xlink:href="#e"/><use fill="#fff" xlink:href="#f"/><use fill="none" xlink:href="#f"/><use fill="#fff" xlink:href="#g"/><use fill="none" xlink:href="#g"/><use fill="#fff" xlink:href="#h"/><use fill="none" xlink:href="#h"/><use fill="#fff" xlink:href="#i"/><use fill="none" xlink:href="#i"/><use fill="#fff" xlink:href="#j"/><use fill="none" xlink:href="#j"/><use fill="#fff" xlink:href="#k"/><use fill="none" xlink:href="#k"/><use fill="#fff" xlink:href="#l"/><use fill="none" xlink:href="#l"/><use fill="#fff" xlink:href="#m"/><use fill="none" xlink:href="#m"/><use fill="#fff" xlink:href="#n"/><use fill="none" xlink:href="#n"/><use fill="#fff" xlink:href="#o"/><use fill="none" xlink:href="#o"/><use fill="#fff" xlink:href="#p"/><use fill="none" xlink:href="#p"/><use fill="#fff" xlink:href="#q"/><use fill="none" xlink:href="#q"/><use fill="#27ae60" xlink:href="#r"/><use fill="none" xlink:href="#r"/><use fill="#27ae60" xlink:href="#s"/><use fill="none" xlink:href="#s"/><use fill="#9af470" xlink:href="#t"/><use fill="none" xlink:href="#t"/><use fill="#2ecc71" xlink:href="#u"/><use fill="none" xlink:href="#u"/></svg>