<?xml version="1.0" encoding="UTF-8" standalone="no"?>
<!DOCTYPE svg PUBLIC "-//W3C//DTD SVG 1.1//EN" "http://www.w3.org/Graphics/SVG/1.1/DTD/svg11.dtd">
<svg version="1.1" xmlns="http://www.w3.org/2000/svg" xmlns:xlink="http://www.w3.org/1999/xlink" preserveAspectRatio="xMidYMid meet" viewBox="0 0 640 640" width="640" height="640"><defs><path d="M379.39 82.96C365.23 82.96 355.11 72.85 355.11 58.69C355.11 45.2 365.23 34.41 378.71 34.41C385.46 34.41 391.52 37.11 395.91 41.49C395.64 41.76 393.48 43.92 393.21 44.19C389.84 40.48 384.78 38.12 379.05 38.12C367.92 38.12 359.5 47.23 359.5 58.35C359.5 69.81 367.59 78.58 379.39 78.58C385.79 78.58 391.52 75.55 394.9 71.16C395.08 71.37 395.97 72.38 397.59 74.2C390.4 80.04 384.33 82.96 379.39 82.96Z" id="hvLO5GQdg"></path><path d="M399.95 67.12C399.95 58.35 406.7 51.27 415.8 51.27C424.9 51.27 431.64 58.35 431.64 67.12C431.64 75.88 424.9 82.96 415.8 82.96C406.7 82.96 399.95 75.88 399.95 67.12ZM404 67.12C404 73.86 409.06 79.59 415.8 79.59C422.88 79.59 427.6 74.2 427.6 67.12C427.6 60.04 422.54 54.64 415.8 54.64C408.72 54.64 404 60.04 404 67.12Z" id="a2KcHMEF1F"></path><path d="M449.85 50.93C454.23 50.93 458.28 52.62 460.64 55.99C462.32 58.35 463.34 60.71 463.34 65.77C463.34 66.85 463.34 72.24 463.34 81.95L459.63 81.95C459.63 72.24 459.63 66.85 459.63 65.77C459.63 61.72 458.95 59.7 457.94 58.35C456.26 55.65 453.22 54.31 449.85 54.31C445.47 54.31 441.76 56.67 439.4 60.71C439.4 62.13 439.4 69.21 439.4 81.95L435.69 81.95L435.69 51.27L439.4 51.27L439.4 55.99L439.06 55.99C443.33 52.62 446.93 50.93 449.85 50.93Z" id="b2GkvEIFq"></path><path d="M479.18 79.25C482.89 79.25 486.26 77.23 486.26 73.86C486.26 66.11 468.73 70.15 468.73 59.7C468.73 53.97 474.12 50.93 479.18 50.93C483.23 50.93 486.94 52.28 488.96 53.97C488.76 54.27 487.14 56.7 486.94 57C484.24 55.32 482.55 54.64 479.18 54.64C475.81 54.64 472.44 56.33 472.44 60.04C472.44 66.78 489.97 63.07 489.97 73.86C489.97 79.59 485.25 82.96 479.52 82.96C474.46 82.96 470.42 80.94 467.72 78.58C467.88 78.38 468.66 77.37 470.08 75.55C473.9 78.02 476.93 79.25 479.18 79.25Z" id="aaEIpfuQyv"></path><path d="M508.51 82.96C503.46 82.96 499.41 80.6 497.05 76.56C496.04 74.53 495.37 71.84 495.37 67.79C495.37 66.71 495.37 61.32 495.37 51.61L499.07 51.61C499.07 61.12 499.07 66.4 499.07 67.45C499.07 71.84 499.75 73.86 500.76 75.21C502.45 77.57 505.14 79.25 508.51 79.25C512.56 79.25 516.61 76.56 518.63 72.85C518.63 71.43 518.63 64.35 518.63 51.61L522.34 51.61L522.34 82.29L518.97 82.29L518.97 78.24C514.92 81.39 511.44 82.96 508.51 82.96Z" id="bfrQnIYib"></path><path d="M533.13 34.75L533.13 82.29L529.42 82.29L529.42 34.75L533.13 34.75Z" id="aPAVtEG8O"></path><path d="M548.3 55.32C548.3 65.43 548.3 71.05 548.3 72.17C548.3 74.87 548.97 76.22 549.65 77.23C550.66 78.58 552.34 79.25 554.7 79.25C555.71 79.25 556.73 79.25 558.07 78.92C558.14 79.25 558.68 81.95 558.75 82.29C557.74 82.63 556.05 82.96 554.7 82.96C552.01 82.96 548.63 81.95 546.61 79.59C545.26 77.91 544.59 75.55 544.59 72.17C544.59 71.07 544.59 65.57 544.59 55.65L535.82 55.65L535.82 51.95L544.25 51.95L544.25 43.52L547.96 43.52L547.96 51.95L558.41 51.95L558.41 55.32L558.75 55.32L548.3 55.32Z" id="d1GDbsnCxt"></path><path d="M569.87 41.16C569.87 43.18 568.19 44.53 566.5 44.53C564.48 44.53 563.13 43.18 563.13 41.16C563.13 39.13 564.82 37.79 566.5 37.79C568.53 37.79 569.87 39.47 569.87 41.16ZM568.53 51.61L568.53 82.29L564.82 82.29L564.82 51.61L568.53 51.61Z" id="b4cmG43rAT"></path><path d="M591.11 50.93C595.5 50.93 599.54 52.62 601.9 55.99C603.59 58.35 604.6 60.71 604.6 65.77C604.6 66.85 604.6 72.24 604.6 81.95L600.89 81.95C600.89 72.24 600.89 66.85 600.89 65.77C600.89 61.72 600.22 59.7 599.21 58.35C597.52 55.65 594.49 54.31 591.11 54.31C586.73 54.31 583.02 56.67 580.66 60.71C580.66 62.13 580.66 69.21 580.66 81.95L576.95 81.95L576.95 51.27L580.66 51.27L580.66 55.99L580.33 55.99C584.6 52.62 588.19 50.93 591.11 50.93Z" id="dtkr43lDF"></path><path d="M624.83 99.15C619.1 99.15 614.04 96.45 611.01 91.73C611.31 91.49 613.74 89.6 614.04 89.37C616.4 93.08 620.11 95.44 624.83 95.44C629.89 95.44 633.26 93.08 634.61 90.04C635.62 88.02 635.95 86 635.95 82.29C635.95 81.85 635.95 78.34 635.95 77.91C633.59 80.94 629.89 82.96 625.17 82.96C622.13 82.96 619.1 82.29 616.06 79.93C612.02 77.23 609.66 72.51 609.66 66.78C609.66 61.72 612.02 57.34 615.39 54.31C618.09 52.28 621.46 50.93 625.17 50.93C629.55 50.93 633.59 52.62 636.29 55.99C636.29 55.7 636.29 54.24 636.29 51.61L640 51.61C640 69.81 640 79.93 640 81.95C639.66 86.67 639.33 89.71 637.98 92.07C635.62 96.11 631.23 99.15 624.83 99.15ZM624.83 54.64C622.13 54.64 619.43 55.65 617.41 57.34C614.71 59.7 613.03 63.07 613.03 67.12C613.03 71.5 615.05 75.21 617.75 77.23C619.77 78.58 622.13 79.59 624.83 79.59C629.21 79.59 633.26 76.89 635.62 72.85C635.62 72.04 635.62 67.99 635.62 60.71L635.95 60.71C632.36 56.67 628.65 54.64 624.83 54.64Z" id="a40Adi3k6Y"></path><path d="M168.34 34.41L174.74 34.41L174.74 81.95L165.64 81.95L165.64 55.65L154.17 74.2L147.77 74.2L136.31 55.65L136.31 81.95L127.2 81.95L127.2 34.41L133.61 34.41L151.14 62.73L168.34 34.41Z" id="b2JmFTjlQg"></path><path d="M205.08 81.61C205.08 80 205.08 79.1 205.08 78.92C202.39 81.28 199.35 82.29 195.98 82.29C191.26 82.29 186.54 80.27 183.51 76.89C180.81 73.86 179.46 69.81 179.46 65.43C179.46 55.65 186.54 48.24 195.64 48.24C199.35 48.24 202.72 49.59 205.08 51.61C205.08 51.43 205.08 50.53 205.08 48.91L213.51 48.91L213.51 81.61L213.51 81.61L205.08 81.61ZM196.66 56.33C191.6 56.33 188.23 60.71 188.23 65.43C188.23 70.49 191.94 74.53 196.99 74.53C200.36 74.53 203.06 72.85 204.75 70.49C204.75 69.81 204.75 66.44 204.75 60.37C201.6 57.68 198.9 56.33 196.66 56.33Z" id="e1pPLRkFNK"></path><path d="M237.11 56.33C233.4 56.33 230.37 59.03 229.02 61.05C229.02 62.42 229.02 69.28 229.02 81.61L220.26 81.61L220.26 48.91L228.68 48.91C228.68 50.93 228.68 52.06 228.68 52.28C230.71 49.92 234.08 48.24 238.12 48.24C239.47 48.24 240.15 48.24 241.16 48.57C241.09 49.11 240.75 51.81 240.15 56.67C238.8 56.44 237.79 56.33 237.11 56.33Z" id="c1nHKpCaU2"></path><path d="M269.48 48.91L278.58 48.91L263.41 81.61L257.34 81.61L242.17 48.91L251.27 48.91L260.38 68.8L269.48 48.91Z" id="bniaqer8H"></path><path d="M295.78 82.29C286 82.29 278.58 75.55 278.58 65.09C278.58 55.99 284.65 47.9 294.43 47.9C303.53 47.9 309.94 55.65 309.94 64.76C309.94 65.77 309.94 66.44 309.6 67.12C307.34 67.12 289.27 67.12 287.01 67.12C287.35 71.84 291.06 74.87 295.78 74.87C299.48 74.87 302.52 72.85 303.87 71.16C304.23 71.52 306.02 73.32 309.26 76.56C303.64 80.38 299.15 82.29 295.78 82.29ZM294.76 55.32C291.06 55.32 288.02 58.01 287.68 61.05C288.58 61.05 293.08 61.05 301.17 61.05C299.15 57.23 297.01 55.32 294.76 55.32Z" id="bfhopc4Oz"></path><path d="M314.66 81.61L314.66 33.4L323.42 33.4L323.42 81.61L314.66 81.61Z" id="a7pxMcNwm6"></path><path d="M331.94 80.6L331.94 33.4L340.52 33.4L340.52 80.6L331.94 80.6Z" id="adQpRjVQg"></path><path d="M49.66 50.26L99.56 0.7L99.56 50.26L99.56 100.16L49.66 50.26Z" id="b1Kv1Srw2O"></path><path d="M49.66 50.26L0.1 0.7L0.1 50.26L0.1 100.16L49.66 50.26Z" id="cYnhRT5Fh"></path><path d="M49.66 50.26L0.1 100.16L49.66 100.16L99.56 100.16L49.66 50.26Z" id="cr70KPky9"></path><path d="M49.66 50.26L0.1 100.16L49.66 100.16L99.56 100.16L49.66 50.26Z" id="a2HYEcooyR"></path></defs><g><g><g><use xlink:href="#hvLO5GQdg" opacity="1" fill="#ffffff" fill-opacity="1"></use><g><use xlink:href="#hvLO5GQdg" opacity="1" fill-opacity="0" stroke="#000000" stroke-width="1" stroke-opacity="0"></use></g></g><g><use xlink:href="#a2KcHMEF1F" opacity="1" fill="#ffffff" fill-opacity="1"></use><g><use xlink:href="#a2KcHMEF1F" opacity="1" fill-opacity="0" stroke="#000000" stroke-width="1" stroke-opacity="0"></use></g></g><g><use xlink:href="#b2GkvEIFq" opacity="1" fill="#ffffff" fill-opacity="1"></use><g><use xlink:href="#b2GkvEIFq" opacity="1" fill-opacity="0" stroke="#000000" stroke-width="1" stroke-opacity="0"></use></g></g><g><use xlink:href="#aaEIpfuQyv" opacity="1" fill="#ffffff" fill-opacity="1"></use><g><use xlink:href="#aaEIpfuQyv" opacity="1" fill-opacity="0" stroke="#000000" stroke-width="1" stroke-opacity="0"></use></g></g><g><use xlink:href="#bfrQnIYib" opacity="1" fill="#ffffff" fill-opacity="1"></use><g><use xlink:href="#bfrQnIYib" opacity="1" fill-opacity="0" stroke="#000000" stroke-width="1" stroke-opacity="0"></use></g></g><g><use xlink:href="#aPAVtEG8O" opacity="1" fill="#ffffff" fill-opacity="1"></use><g><use xlink:href="#aPAVtEG8O" opacity="1" fill-opacity="0" stroke="#000000" stroke-width="1" stroke-opacity="0"></use></g></g><g><use xlink:href="#d1GDbsnCxt" opacity="1" fill="#ffffff" fill-opacity="1"></use><g><use xlink:href="#d1GDbsnCxt" opacity="1" fill-opacity="0" stroke="#000000" stroke-width="1" stroke-opacity="0"></use></g></g><g><use xlink:href="#b4cmG43rAT" opacity="1" fill="#ffffff" fill-opacity="1"></use><g><use xlink:href="#b4cmG43rAT" opacity="1" fill-opacity="0" stroke="#000000" stroke-width="1" stroke-opacity="0"></use></g></g><g><use xlink:href="#dtkr43lDF" opacity="1" fill="#ffffff" fill-opacity="1"></use><g><use xlink:href="#dtkr43lDF" opacity="1" fill-opacity="0" stroke="#000000" stroke-width="1" stroke-opacity="0"></use></g></g><g><use xlink:href="#a40Adi3k6Y" opacity="1" fill="#ffffff" fill-opacity="1"></use><g><use xlink:href="#a40Adi3k6Y" opacity="1" fill-opacity="0" stroke="#000000" stroke-width="1" stroke-opacity="0"></use></g></g><g><use xlink:href="#b2JmFTjlQg" opacity="1" fill="#ffffff" fill-opacity="1"></use><g><use xlink:href="#b2JmFTjlQg" opacity="1" fill-opacity="0" stroke="#000000" stroke-width="1" stroke-opacity="0"></use></g></g><g><use xlink:href="#e1pPLRkFNK" opacity="1" fill="#ffffff" fill-opacity="1"></use><g><use xlink:href="#e1pPLRkFNK" opacity="1" fill-opacity="0" stroke="#000000" stroke-width="1" stroke-opacity="0"></use></g></g><g><use xlink:href="#c1nHKpCaU2" opacity="1" fill="#ffffff" fill-opacity="1"></use><g><use xlink:href="#c1nHKpCaU2" opacity="1" fill-opacity="0" stroke="#000000" stroke-width="1" stroke-opacity="0"></use></g></g><g><use xlink:href="#bniaqer8H" opacity="1" fill="#ffffff" fill-opacity="1"></use><g><use xlink:href="#bniaqer8H" opacity="1" fill-opacity="0" stroke="#000000" stroke-width="1" stroke-opacity="0"></use></g></g><g><use xlink:href="#bfhopc4Oz" opacity="1" fill="#ffffff" fill-opacity="1"></use><g><use xlink:href="#bfhopc4Oz" opacity="1" fill-opacity="0" stroke="#000000" stroke-width="1" stroke-opacity="0"></use></g></g><g><use xlink:href="#a7pxMcNwm6" opacity="1" fill="#ffffff" fill-opacity="1"></use><g><use xlink:href="#a7pxMcNwm6" opacity="1" fill-opacity="0" stroke="#000000" stroke-width="1" stroke-opacity="0"></use></g></g><g><use xlink:href="#adQpRjVQg" opacity="1" fill="#ffffff" fill-opacity="1"></use><g><use xlink:href="#adQpRjVQg" opacity="1" fill-opacity="0" stroke="#000000" stroke-width="1" stroke-opacity="0"></use></g></g><g><use xlink:href="#b1Kv1Srw2O" opacity="1" fill="#27ae60" fill-opacity="1"></use><g><use xlink:href="#b1Kv1Srw2O" opacity="1" fill-opacity="0" stroke="#000000" stroke-width="1" stroke-opacity="0"></use></g></g><g><use xlink:href="#cYnhRT5Fh" opacity="1" fill="#27ae60" fill-opacity="1"></use><g><use xlink:href="#cYnhRT5Fh" opacity="1" fill-opacity="0" stroke="#000000" stroke-width="1" stroke-opacity="0"></use></g></g><g><use xlink:href="#cr70KPky9" opacity="1" fill="#9af470" fill-opacity="1"></use><g><use xlink:href="#cr70KPky9" opacity="1" fill-opacity="0" stroke="#000000" stroke-width="1" stroke-opacity="0"></use></g></g><g><use xlink:href="#a2HYEcooyR" opacity="1" fill="#2ecc71" fill-opacity="1"></use><g><use xlink:href="#a2HYEcooyR" opacity="1" fill-opacity="0" stroke="#000000" stroke-width="1" stroke-opacity="0"></use></g></g></g></g></svg>