<?xml version="1.0" encoding="utf-8"?>
<!-- Generator: Adobe Illustrator 19.0.0, SVG Export Plug-In . SVG Version: 6.00 Build 0)  -->
<svg version="1.1" id="Layer_1" xmlns="http://www.w3.org/2000/svg" xmlns:xlink="http://www.w3.org/1999/xlink" x="0px" y="0px"
	 viewBox="-236 317.9 226.7 67.1" style="enable-background:new -236 317.9 226.7 67.1;" xml:space="preserve">
<style type="text/css">
	.st0{display:none;}
	.st1{fill:#FFFFFF;}
	.st2{fill:#27AE60;}
	.st3{fill:#9AF470;}
	.st4{fill:#2ECC71;}
</style>
<g id="Layer_1_1_" class="st0">
</g>
<g id="Layer_2">
</g>
<g id="XMLID_566_">
	<path id="XMLID_567_" class="st1" d="M-112,356.5c-1.2,1.5-3.2,2.6-5.4,2.6c-4.2,0-7.2-3-7.2-7.2c0-4,3-7.2,7-7.2
		c2,0,3.8,0.8,5.1,2.1l-0.8,0.8c-1-1.1-2.5-1.8-4.2-1.8c-3.3,0-5.8,2.7-5.8,6c0,3.4,2.4,6,5.9,6c1.9,0,3.6-0.9,4.6-2.2L-112,356.5z"
		/>
	<path id="XMLID_569_" class="st1" d="M-106.6,359.1c-2.7,0-4.7-2.1-4.7-4.7s2-4.7,4.7-4.7c2.7,0,4.7,2.1,4.7,4.7
		S-103.9,359.1-106.6,359.1z M-106.6,350.7c-2.1,0-3.5,1.6-3.5,3.7c0,2,1.5,3.7,3.5,3.7c2.1,0,3.5-1.6,3.5-3.7
		C-103.1,352.3-104.6,350.7-106.6,350.7z"/>
	<path id="XMLID_674_" class="st1" d="M-99.7,351.1c0.7-1,1.9-1.5,3.2-1.5c1.3,0,2.5,0.5,3.2,1.5c0.5,0.7,0.8,1.4,0.8,2.9v4.8h-1.1
		v-4.8c0-1.2-0.2-1.8-0.5-2.2c-0.5-0.8-1.4-1.2-2.4-1.2c-1.3,0-2.4,0.7-3.1,1.9v6.3h-1.1v-9.1h1.1V351.1z"/>
	<path id="XMLID_676_" class="st1" d="M-90.5,356.9c0.8,0.7,1.7,1.1,2.7,1.1c1.1,0,2.1-0.6,2.1-1.6c0-2.3-5.2-1.1-5.2-4.2
		c0-1.7,1.6-2.6,3.1-2.6c1.2,0,2.3,0.4,2.9,0.9l-0.6,0.9c-0.8-0.5-1.3-0.7-2.3-0.7c-1,0-2,0.5-2,1.6c0,2,5.2,0.9,5.2,4.1
		c0,1.7-1.4,2.7-3.1,2.7c-1.5,0-2.7-0.6-3.5-1.3L-90.5,356.9z"/>
	<path id="XMLID_678_" class="st1" d="M-76,357.7c-0.6,0.8-1.8,1.4-3.1,1.4c-1.5,0-2.7-0.7-3.4-1.9c-0.3-0.6-0.5-1.4-0.5-2.6v-4.8
		h1.1v4.7c0,1.3,0.2,1.9,0.5,2.3c0.5,0.7,1.3,1.2,2.3,1.2c1.2,0,2.4-0.8,3-1.9v-6.3h1.1v9.1H-76V357.7z"/>
	<path id="XMLID_680_" class="st1" d="M-72.9,344.8h1.1v14.1h-1.1V344.8z"/>
	<path id="XMLID_682_" class="st1" d="M-64.2,350.9h-3.1v5c0,0.8,0.2,1.2,0.4,1.5c0.3,0.4,0.8,0.6,1.5,0.6c0.3,0,0.6,0,1-0.1l0.2,1
		c-0.3,0.1-0.8,0.2-1.2,0.2c-0.8,0-1.8-0.3-2.4-1c-0.4-0.5-0.6-1.2-0.6-2.2v-4.9H-71v-1.1h2.5v-2.5h1.1v2.5h3.1V350.9z"/>
	<path id="XMLID_684_" class="st1" d="M-61.9,345.7c0.6,0,1,0.5,1,1c0,0.6-0.5,1-1,1c-0.6,0-1-0.4-1-1
		C-62.9,346.1-62.4,345.7-61.9,345.7z M-62.4,349.8h1.1v9.1h-1.1V349.8z"/>
	<path id="XMLID_687_" class="st1" d="M-57.8,351.1c0.7-1,1.9-1.5,3.2-1.5c1.3,0,2.5,0.5,3.2,1.5c0.5,0.7,0.8,1.4,0.8,2.9v4.8h-1.1
		v-4.8c0-1.2-0.2-1.8-0.5-2.2c-0.5-0.8-1.4-1.2-2.4-1.2c-1.3,0-2.4,0.7-3.1,1.9v6.3h-1.1v-9.1h1.1V351.1z"/>
	<path id="XMLID_689_" class="st1" d="M-40.7,361.8c-0.7,1.2-2,2.1-3.9,2.1c-1.7,0-3.2-0.8-4.1-2.2l0.9-0.7c0.7,1.1,1.8,1.8,3.2,1.8
		c1.5,0,2.5-0.7,2.9-1.6c0.3-0.6,0.4-1.2,0.4-2.3v-1.3c-0.7,0.9-1.8,1.5-3.2,1.5c-0.9,0-1.8-0.2-2.7-0.9c-1.2-0.8-1.9-2.2-1.9-3.9
		c0-1.5,0.7-2.8,1.7-3.7c0.8-0.6,1.8-1,2.9-1c1.3,0,2.5,0.5,3.3,1.5v-1.3h1.1v9C-40.2,360.2-40.3,361.1-40.7,361.8z M-41.3,352.5
		c-0.4-0.7-1.6-1.8-3.3-1.8c-0.8,0-1.6,0.3-2.2,0.8c-0.8,0.7-1.3,1.7-1.3,2.9c0,1.3,0.6,2.4,1.4,3c0.6,0.4,1.3,0.7,2.1,0.7
		c1.3,0,2.5-0.8,3.2-2V352.5z"/>
</g>
<g id="XMLID_548_">
	<path id="XMLID_563_" class="st1" d="M-185.1,353.1l5.1-8.4h1.9v14.1h-2.7v-7.8l-3.4,5.5h-1.9l-3.4-5.5v7.8h-2.7v-14.1h1.9
		L-185.1,353.1z"/>
	<path id="XMLID_560_" class="st1" d="M-166.6,358.7h-2.5v-0.8c-0.8,0.7-1.7,1-2.7,1c-1.4,0-2.8-0.6-3.7-1.6
		c-0.8-0.9-1.2-2.1-1.2-3.4c0-2.9,2.1-5.1,4.8-5.1c1.1,0,2.1,0.4,2.8,1V349h2.5V358.7z M-169.2,352.4c-0.5-0.7-1.4-1.2-2.4-1.2
		c-1.5,0-2.5,1.3-2.5,2.7c0,1.5,1.1,2.7,2.6,2.7c1,0,1.8-0.5,2.3-1.2V352.4z"/>
	<path id="XMLID_558_" class="st1" d="M-158.7,351.3c-0.2-0.1-0.6-0.1-0.9-0.1c-1.1,0-2,0.8-2.4,1.4v6.1h-2.6V349h2.5v1
		c0.6-0.7,1.6-1.2,2.8-1.2c0.4,0,0.6,0,0.9,0.1L-158.7,351.3z"/>
	<path id="XMLID_556_" class="st1" d="M-152.7,354.9l2.7-5.9h2.7l-4.5,9.7h-1.8l-4.5-9.7h2.7L-152.7,354.9z"/>
	<path id="XMLID_553_" class="st1" d="M-138.2,357.2c-0.9,1.1-2.5,1.7-4,1.7c-2.9,0-5.1-2-5.1-5.1c0-2.7,1.8-5.1,4.7-5.1
		c2.7,0,4.6,2.3,4.6,5c0,0.3,0,0.5-0.1,0.7h-6.7c0.1,1.4,1.2,2.3,2.6,2.3c1.1,0,2-0.6,2.4-1.1L-138.2,357.2z M-140.6,352.6
		c-0.1-0.9-0.9-1.7-1.9-1.7c-1.1,0-2,0.8-2.1,1.7H-140.6z"/>
	<path id="XMLID_551_" class="st1" d="M-134,358.7h-2.6v-14.3h2.6V358.7z"/>
	<path id="XMLID_549_" class="st1" d="M-128.9,358.7h-2.6v-14.3h2.6V358.7z"/>
</g>
<polygon id="XMLID_547_" class="st2" points="-200.4,364.2 -215.2,349.4 -200.4,334.7 -200.4,349.4 "/>
<polygon id="XMLID_546_" class="st2" points="-229.9,364.2 -215.2,349.4 -229.9,334.7 -229.9,349.4 "/>
<polygon id="XMLID_545_" class="st3" points="-200.4,364.2 -215.2,349.4 -229.9,364.2 -215.2,364.2 "/>
<polygon id="XMLID_544_" class="st4" points="-200.4,364.2 -215.2,349.4 -229.9,364.2 -215.2,364.2 "/>
</svg>
