<svg height="31" viewBox="0 0 190 31" width="190" xmlns="http://www.w3.org/2000/svg"><g fill="none"><g fill="#112a3e" transform="translate(105 10)"><path d="m13 12.5c-1.2 1.5-3.2 2.6-5.4 2.6-4.2 0-7.2-3-7.2-7.2 0-4 3-7.2 7-7.2 2 0 3.8.8 5.1 2.1l-.8.8c-1-1.1-2.5-1.8-4.2-1.8-3.3 0-5.8 2.7-5.8 6 0 3.4 2.4 6 5.9 6 1.9 0 3.6-.9 4.6-2.2z"/><path d="m18.4 15.1c-2.7 0-4.7-2.1-4.7-4.7s2-4.7 4.7-4.7 4.7 2.1 4.7 4.7-2 4.7-4.7 4.7zm0-8.4c-2.1 0-3.5 1.6-3.5 3.7 0 2 1.5 3.7 3.5 3.7 2.1 0 3.5-1.6 3.5-3.7s-1.5-3.7-3.5-3.7z"/><path d="m25.3 7.1c.7-1 1.9-1.5 3.2-1.5s2.5.5 3.2 1.5c.5.7.8 1.4.8 2.9v4.8h-1.1v-4.8c0-1.2-.2-1.8-.5-2.2-.5-.8-1.4-1.2-2.4-1.2-1.3 0-2.4.7-3.1 1.9v6.3h-1.1v-9.1h1.1v1.4z"/><path d="m34.5 12.9c.8.7 1.7 1.1 2.7 1.1 1.1 0 2.1-.6 2.1-1.6 0-2.3-5.2-1.1-5.2-4.2 0-1.7 1.6-2.6 3.1-2.6 1.2 0 2.3.4 2.9.9l-.6.9c-.8-.5-1.3-.7-2.3-.7s-2 .5-2 1.6c0 2 5.2.9 5.2 4.1 0 1.7-1.4 2.7-3.1 2.7-1.5 0-2.7-.6-3.5-1.3z"/><path d="m49 13.7c-.6.8-1.8 1.4-3.1 1.4-1.5 0-2.7-.7-3.4-1.9-.3-.6-.5-1.4-.5-2.6v-4.8h1.1v4.7c0 1.3.2 1.9.5 2.3.5.7 1.3 1.2 2.3 1.2 1.2 0 2.4-.8 3-1.9v-6.3h1.1v9.1h-1z"/><path d="m52.1.8h1.1v14.1h-1.1z"/><path d="m60.8 6.9h-3.1v5c0 .8.2 1.2.4 1.5.3.4.8.6 1.5.6.3 0 .6 0 1-.1l.2 1c-.3.1-.8.2-1.2.2-.8 0-1.8-.3-2.4-1-.4-.5-.6-1.2-.6-2.2v-4.9h-2.6v-1.1h2.5v-2.5h1.1v2.5h3.1v1z"/><path d="m63.1 1.7c.6 0 1 .5 1 1 0 .6-.5 1-1 1-.6 0-1-.4-1-1s.5-1 1-1zm-.5 4.1h1.1v9.1h-1.1z"/><path d="m67.2 7.1c.7-1 1.9-1.5 3.2-1.5s2.5.5 3.2 1.5c.5.7.8 1.4.8 2.9v4.8h-1.1v-4.8c0-1.2-.2-1.8-.5-2.2-.5-.8-1.4-1.2-2.4-1.2-1.3 0-2.4.7-3.1 1.9v6.3h-1.1v-9.1h1.1v1.4z"/><path d="m84.3 17.8c-.7 1.2-2 2.1-3.9 2.1-1.7 0-3.2-.8-4.1-2.2l.9-.7c.7 1.1 1.8 1.8 3.2 1.8 1.5 0 2.5-.7 2.9-1.6.3-.6.4-1.2.4-2.3v-1.3c-.7.9-1.8 1.5-3.2 1.5-.9 0-1.8-.2-2.7-.9-1.2-.8-1.9-2.2-1.9-3.9 0-1.5.7-2.8 1.7-3.7.8-.6 1.8-1 2.9-1 1.3 0 2.5.5 3.3 1.5v-1.3h1.1v9c-.1 1.4-.2 2.3-.6 3zm-.6-9.3c-.4-.7-1.6-1.8-3.3-1.8-.8 0-1.6.3-2.2.8-.8.7-1.3 1.7-1.3 2.9 0 1.3.6 2.4 1.4 3 .6.4 1.3.7 2.1.7 1.3 0 2.5-.8 3.2-2v-3.6z"/></g><g fill="#112a3e" transform="translate(37 10)"><path d="m7.9 9.1 5.1-8.4h1.9v14.1h-2.7v-7.8l-3.4 5.5h-1.9l-3.4-5.5v7.8h-2.7v-14.1h1.9z"/><path d="m26.4 14.7h-2.5v-.8c-.8.7-1.7 1-2.7 1-1.4 0-2.8-.6-3.7-1.6-.8-.9-1.2-2.1-1.2-3.4 0-2.9 2.1-5.1 4.8-5.1 1.1 0 2.1.4 2.8 1v-.8h2.5zm-2.6-6.3c-.5-.7-1.4-1.2-2.4-1.2-1.5 0-2.5 1.3-2.5 2.7 0 1.5 1.1 2.7 2.6 2.7 1 0 1.8-.5 2.3-1.2z"/><path d="m34.3 7.3c-.2-.1-.6-.1-.9-.1-1.1 0-2 .8-2.4 1.4v6.1h-2.6v-9.7h2.5v1c.6-.7 1.6-1.2 2.8-1.2.4 0 .6 0 .9.1z"/><path d="m40.3 10.9 2.7-5.9h2.7l-4.5 9.7h-1.8l-4.5-9.7h2.7z"/><path d="m54.8 13.2c-.9 1.1-2.5 1.7-4 1.7-2.9 0-5.1-2-5.1-5.1 0-2.7 1.8-5.1 4.7-5.1 2.7 0 4.6 2.3 4.6 5 0 .3 0 .5-.1.7h-6.7c.1 1.4 1.2 2.3 2.6 2.3 1.1 0 2-.6 2.4-1.1zm-2.4-4.6c-.1-.9-.9-1.7-1.9-1.7-1.1 0-2 .8-2.1 1.7z"/><path d="m59 14.7h-2.6v-14.3h2.6z"/><path d="m64.0727273 14.4h-2.5454546v-14h2.5454546z"/></g><path d="m29.6 30.2-14.8-14.8 14.8-14.7v14.7z" fill="#27ae60"/><path d="m.1 30.2 14.7-14.8-14.7-14.7v14.7z" fill="#27ae60"/><path d="m29.6 30.2-14.8-14.8-14.7 14.8h14.7z" fill="#9af470"/><path d="m29.6 30.2-14.8-14.8-14.7 14.8h14.7z" fill="#2ecc71"/></g></svg>