
<svg width="5062px" height="1661px" viewBox="0 0 5062 1661" version="1.1" xmlns="http://www.w3.org/2000/svg" xmlns:xlink="http://www.w3.org/1999/xlink">
    <g id="Page-1" stroke="none" stroke-width="1" fill="none" fill-rule="evenodd">
        <g id="shutterstock_1369642130">
            <polyline id="Fill-4" fill="#27394F" points="1930.76 1660.12 1925.18 1660.12 1925.18 1027.93 897.52 1027.93 897.52 1660.12 891.95 1660.12 891.95 1022.36 1930.76 1022.36 1930.76 1660.12"></polyline>
            <polygon id="Fill-5" fill="#FFFFFE" points="1047.18 954.71 1616.62 954.71 1616.62 582.2 1047.18 582.2"></polygon>
            <path d="M1089,912.89 L1574.8,912.89 L1574.8,624.02 L1089,624.02 L1089,912.89 Z M1083.42,918.47 L1580.38,918.47 L1580.38,618.44 L1083.42,618.44 L1083.42,918.47 Z" id="Fill-6" fill="#27394F"></path>
            <polygon id="Fill-7" fill="#27394F" points="1243.02 1025.14 1420.78 1025.14 1420.78 954.71 1243.02 954.71"></polygon>
            <polygon id="Fill-8" fill="#E98A69" points="1153.48 871.51 1198.08 871.51 1198.08 819.93 1153.48 819.93"></polygon>
            <polygon id="Fill-9" fill="#E98A69" points="1231.54 871.51 1276.14 871.51 1276.14 786.48 1231.54 786.48"></polygon>
            <polygon id="Fill-10" fill="#E98A69" points="1309.6 871.51 1354.2 871.51 1354.2 753.02 1309.6 753.02"></polygon>
            <polygon id="Fill-11" fill="#E98A69" points="1387.66 871.51 1432.26 871.51 1432.26 719.57 1387.66 719.57"></polygon>
            <polygon id="Fill-12" fill="#E98A69" points="1465.71 871.51 1510.32 871.51 1510.32 686.12 1465.71 686.12"></polygon>
            <polyline id="Fill-13" fill="#C95676" points="1154.57 772.11 1152.38 766.98 1308.5 700.07 1310.7 705.2 1154.57 772.11"></polyline>
            <polyline id="Fill-14" fill="#C95676" points="1312.75 729.59 1291.48 685.01 1336.9 690.71 1312.75 729.59"></polyline>
            <path d="M1355.87,834.96 L1293.57,1055.79 C1286.4,1081.22 1298.13,1108.95 1322.3,1119.64 C1349.21,1131.54 1380.01,1119.25 1391.7,1093.05 L1421.29,1026.73 L1445.02,1148.75 L1732.77,1148.75 L1786.48,872.45 C1796.21,822.4 1757.88,775.9 1706.9,775.9 L1433.9,775.9 C1397.6,775.9 1365.72,800.03 1355.87,834.96" id="Fill-15" fill="#4CAA97"></path>
            <path d="M1510.34,1148.75 L1340.52,1148.75 C1288.01,1148.75 1246.88,1193.93 1251.8,1246.21 L1282.46,1605.29 L1375.75,1605.29 L1375.75,1240.07 L1510.34,1240.07 L1510.34,1148.75" id="Fill-16" fill="#5B66A0"></path>
            <path d="M1282.46,1605.29 L1211.59,1638.47 C1207.59,1640.34 1205.04,1644.35 1205.04,1648.76 C1205.04,1655.03 1210.13,1660.12 1216.4,1660.12 L1375.75,1660.12 L1375.75,1605.29 L1282.46,1605.29" id="Fill-17" fill="#E98A69"></path>
            <path d="M1465.02,1605.29 L1394.14,1638.47 C1390.14,1640.34 1387.59,1644.35 1387.59,1648.76 C1387.59,1655.03 1392.68,1660.12 1398.95,1660.12 L1558.3,1660.12 L1558.3,1605.29 L1465.02,1605.29" id="Fill-18" fill="#E98A69"></path>
            <path d="M1532.94,587.86 C1534.75,586.87 1535.84,586.28 1537.21,585.53 L1537.22,585.59 C1546.42,580.57 1556.81,577.45 1568.02,577.45 C1603.71,577.45 1632.64,606.38 1632.64,642.07 C1632.64,674.13 1618.66,729.49 1618.66,729.49 L1579.21,729.49 L1577.8,728.31 C1564.09,716.76 1553.86,702.08 1546.61,685.83 C1549.94,682.39 1552.03,677.74 1552.03,672.57 C1552.03,662.02 1543.48,653.47 1532.94,653.47 C1529.32,653.47 1526.12,654.75 1523.24,656.5 C1518.4,654.72 1514.07,652.58 1510.34,650.06 C1502.5,644.77 1497.06,637.6 1495.85,625.98 C1493.89,607.19 1507,601.95 1532.94,587.86" id="Fill-19" fill="#27394F"></path>
            <path d="M1523.24,656.5 C1526.12,654.75 1529.32,653.47 1532.94,653.47 C1543.48,653.47 1552.03,662.02 1552.03,672.57 C1552.03,677.74 1549.94,682.39 1546.61,685.83 C1553.86,702.08 1564.09,716.76 1577.8,728.31 L1579.21,729.49 L1618.66,729.49 L1618.66,775.9 L1559.91,775.9 L1559.91,723.5 L1535.54,729.88 C1522.65,732.86 1510.34,723.07 1510.34,709.83 L1510.34,650.06 C1514.07,652.58 1518.4,654.72 1523.24,656.5" id="Fill-20" fill="#EEA6AC"></path>
            <path d="M1785.41,942.7 L1559.27,942.7 C1532.24,942.7 1510.34,964.61 1510.34,991.63 L1510.34,1240.07 L1348.56,1240.07 L1348.56,1314.42 L1785.41,1314.42 C1812.44,1314.42 1834.34,1292.51 1834.34,1265.48 L1834.34,991.63 C1834.34,964.61 1812.44,942.7 1785.41,942.7" id="Fill-21" fill="#F7D0A6"></path>
            <path d="M1732.64,911 L1612.04,911 C1586.11,911 1565.09,889.99 1565.09,864.06 C1565.09,838.13 1586.11,817.12 1612.04,817.12 L1732.64,817.12 C1758.57,817.12 1779.58,838.13 1779.58,864.06 C1779.58,889.99 1758.57,911 1732.64,911" id="Fill-22" fill="#F7D0A6"></path>
            <polyline id="Fill-23" fill="#5B66A0" points="1558.3 1314.42 1442.71 1314.42 1465.02 1605.29 1558.3 1605.29 1558.3 1314.42"></polyline>
            <polyline id="Fill-24" fill="#27394F" points="1418.56 1027.27 1405.66 960.93 1411.14 959.86 1424.04 1026.2 1418.56 1027.27"></polyline>
            <path d="M1657.55,1586.83 L1657.55,1314.42 L1651.97,1314.42 L1651.97,1586.83 C1612.79,1588.32 1581.34,1620.57 1581.34,1660.12 L1586.92,1660.12 C1586.92,1622.71 1617.35,1592.27 1654.76,1592.27 C1692.17,1592.27 1722.61,1622.71 1722.61,1660.12 L1728.19,1660.12 C1728.19,1620.57 1696.74,1588.32 1657.55,1586.83" id="Fill-25" fill="#27394F"></path>
            <path d="M650.508,359.72 C651.85,359.43 653.239,359.26 654.668,359.26 C661.475,359.26 667.45,362.78 670.904,368.09 L670.904,352.67 L692.886,333.61 L756.99,333.61 C756.99,333.61 777.05,293.59 732.44,281.05 C732.44,281.05 735.23,298.47 715.02,297.77 C694.808,297.08 665.536,297.77 655.082,313.11 C655.082,313.11 619.191,314.28 642.038,363.99 C644.407,361.94 647.263,360.45 650.421,359.75 L650.508,359.72" id="Fill-26" fill="#27394F"></path>
            <path d="M496.107,855.09 L496.107,855.09" id="Fill-27" fill="#C95676"></path>
            <path d="M906.43,556.45 C899.7,513.72 862.88,482.25 819.63,482.25 L730.13,482.25 C730.13,499.88 706.41,514.17 677.16,514.17 C647.906,514.17 624.191,499.88 624.191,482.25 L509.042,482.25 C479.667,482.25 452.235,496.92 435.938,521.37 L330.129,680.04 C310.468,709.53 312.242,748.37 334.51,775.94 L428.113,891.83 L496.107,855.09 L430.965,730.51 L479.016,668.13 L496.107,855.09 L783.86,855.09 L828.01,706.64 L894.75,989.93 L971.74,971.44 L906.43,556.45" id="Fill-28" fill="#C95676"></path>
            <path d="M692.886,333.61 L670.904,352.67 L670.904,368.09 C667.45,362.78 661.475,359.26 654.668,359.26 C653.239,359.26 651.85,359.43 650.508,359.72 L650.421,359.75 C647.263,360.45 644.407,361.94 642.038,363.99 C637.922,367.53 635.301,372.77 635.301,378.63 C635.301,387.82 641.707,395.5 650.293,397.48 L650.006,482.25 L624.191,482.25 C624.191,499.88 647.906,514.17 677.16,514.17 C706.41,514.17 730.13,499.88 730.13,482.25 L708.27,482.25 L708.27,429.47 L732.21,435.75 C744.89,438.67 756.99,429.05 756.99,416.04 L756.99,333.61 L692.886,333.61" id="Fill-29" fill="#EEA6AC"></path>
            <path d="M800.58,1605.29 L871.46,1638.47 C875.45,1640.34 878,1644.35 878,1648.76 C878,1655.03 872.92,1660.12 866.64,1660.12 L707.3,1660.12 L707.3,1605.29 L800.58,1605.29" id="Fill-30" fill="#5B66A0"></path>
            <path d="M538.982,1579.98 L586.991,1641.79 C589.696,1645.27 590.142,1650 588.135,1653.92 C585.28,1659.51 578.436,1661.73 572.85,1658.87 L430.965,1586.34 L455.92,1537.52 L538.982,1579.98" id="Fill-31" fill="#5B66A0"></path>
            <polyline id="Fill-32" fill="#EEA6AC" points="971.74 971.44 1030.29 995.5 1030.29 1019.57 894.74 1019.57 894.74 989.93 971.74 971.44"></polyline>
            <path d="M783.86,855.09 L800.58,1605.29 L707.3,1605.29 L665.079,954.71 L612.11,954.71 L626.609,1198.33 C628.085,1223.13 625.641,1248.01 619.365,1272.05 L538.982,1579.98 L455.92,1537.52 L510.173,1230.19 L484.663,978.52 C480.457,937.02 484.344,895.11 496.107,855.09 L783.86,855.09" id="Fill-33" fill="#27394F"></path>
            <polyline id="Fill-34" fill="#EEA6AC" points="496.107 855.09 534.051 855.09 534.051 928.66 483.142 954.71 428.112 891.83 496.107 855.09"></polyline>
            <polyline id="Fill-35" fill="#27394F" points="830.69 707.43 825.34 705.84 858.71 593.65 864.05 595.24 830.69 707.43"></polyline>
            <polyline id="Fill-36" fill="#27394F" points="483.29 667.14 478.874 663.75 542.994 580.5 547.41 583.9 483.29 667.14"></polyline>
            <path d="M721.05,401.97 C722.34,408.33 727.98,413.12 734.71,413.12 C741.44,413.12 747.07,408.33 748.37,401.97 L721.05,401.97 Z M734.71,418.7 C723.95,418.7 715.19,409.94 715.19,399.18 L715.19,396.4 L754.22,396.4 L754.22,399.18 C754.22,409.94 745.47,418.7 734.71,418.7 L734.71,418.7 Z" id="Fill-37" fill="#27394F"></path>
            <path d="M2401.63,775.38 L2379.73,609.4 C2374.65,570.88 2341.81,542.09 2302.96,542.09 L2221.33,542.09 L2192.23,601.09 L2163.12,542.09 L2163.09,542.09 C2162.84,542.8 2138.68,610.83 2079.05,608.06 C2047.07,606.57 2027.87,582.07 2025.79,555.97 C2013.14,564.78 2003.12,577.34 1997.48,592.46 L1939.88,746.81 C1924.83,787.13 1965.78,825.66 2005.12,808.2 L2051.07,787.81 L2060.87,857.02 L2326.24,857.02 L2331.15,822.38 C2364.6,841.88 2406.8,814.63 2401.63,775.38" id="Fill-41" fill="#E98A69"></path>
            <path d="M2201.35,355.38 C2186.85,355.38 2172.25,359.82 2160.22,368.13 L2160.22,368.09 C2104.38,400.36 2121.1,474.78 2062.56,498.21 C2035.25,509.13 2023.98,533.16 2025.79,555.97 C2027.87,582.07 2047.07,606.57 2079.05,608.06 C2138.68,610.83 2162.84,542.8 2163.09,542.09 L2163.1,542.06 L2163.1,457.79 C2154.63,455.38 2148.4,447.67 2148.4,438.44 C2148.4,429.2 2154.63,421.49 2163.1,419.08 C2164.86,418.58 2166.69,418.22 2168.61,418.22 C2172.6,418.22 2176.29,419.42 2179.42,421.41 C2193.5,411.3 2197.86,393.4 2197.86,393.4 C2226.44,427.93 2270.09,427.86 2270.09,427.86 C2283.59,370.02 2235.5,355.38 2201.35,355.38" id="Fill-42" fill="#27394F"></path>
            <path d="M2197.86,393.4 C2197.86,393.4 2193.5,411.3 2179.42,421.41 C2176.29,419.42 2172.6,418.22 2168.61,418.22 C2166.69,418.22 2164.86,418.58 2163.1,419.08 C2154.63,421.49 2148.4,429.2 2148.4,438.44 C2148.4,447.67 2154.63,455.38 2163.1,457.79 L2163.1,542.06 L2163.12,542.09 L2192.23,601.09 L2221.33,542.09 L2221.36,542.03 L2221.36,489.26 L2245.31,495.53 C2257.98,498.46 2270.09,488.83 2270.09,475.82 L2270.09,427.86 C2270.09,427.86 2226.44,427.93 2197.86,393.4" id="Fill-43" fill="#EEA6AC"></path>
            <path d="M2016.7,1605.29 L1945.82,1638.47 C1941.83,1640.34 1939.28,1644.35 1939.28,1648.76 C1939.28,1655.03 1944.36,1660.12 1950.64,1660.12 L2093.26,1660.12 L2093.26,1605.29 L2016.7,1605.29" id="Fill-44" fill="#C95676"></path>
            <path d="M2282.01,1605.29 L2211.13,1638.47 C2207.14,1640.34 2204.59,1644.35 2204.59,1648.76 C2204.59,1655.03 2209.67,1660.12 2215.95,1660.12 L2358.57,1660.12 L2358.57,1605.29 L2282.01,1605.29" id="Fill-45" fill="#C95676"></path>
            <path d="M2175.6,697.55 L2171.26,697.55 C2172.69,692.51 2173.5,687.22 2173.5,681.72 L2173.5,655.52 L2175.6,655.52 C2187.19,655.52 2196.62,664.94 2196.62,676.53 C2196.62,688.12 2187.19,697.55 2175.6,697.55 Z M2175.6,649.94 L2082.31,649.94 L2082.31,681.72 C2082.31,697.51 2088.63,711.81 2098.85,722.29 L2156.96,722.29 C2162.28,716.83 2166.51,710.33 2169.37,703.13 L2175.6,703.13 C2190.29,703.13 2202.19,691.22 2202.19,676.53 C2202.19,661.85 2190.29,649.94 2175.6,649.94 L2175.6,649.94 Z" id="Fill-46" fill="#F3E7DF"></path>
            <polyline id="Fill-47" fill="#EEA6AC" points="2016.7 1605.29 2093.26 1605.29 2133.84 1291.08 2035.25 1291.08 2016.7 1605.29"></polyline>
            <path d="M2347.79,957.06 C2347.22,922.62 2339.9,888.63 2326.24,857.02 L2060.87,857.02 L2035.25,1291.08 L2353.35,1291.08 L2347.79,957.06" id="Fill-48" fill="#5B66A0"></path>
            <polyline id="Fill-49" fill="#EEA6AC" points="2260.85 1291.08 2282.01 1605.29 2358.57 1605.29 2353.35 1291.08 2260.85 1291.08"></polyline>
            <polyline id="Fill-50" fill="#EEA6AC" points="2235.01 672.62 2185.76 672.62 2174.14 716.31 2233 742.55 2253.44 689.36 2235.01 672.62"></polyline>
            <polyline id="Fill-51" fill="#27394F" points="2369.94 732.13 2252.54 691.99 2254.35 686.72 2371.75 726.85 2369.94 732.13"></polyline>
            <polyline id="Fill-52" fill="#27394F" points="2326.83 823.1 2231.23 744.71 2234.77 740.4 2330.37 818.79 2326.83 823.1"></polyline>
            <polyline id="Fill-53" fill="#27394F" points="2309.38 707.97 2298.57 629.67 2304.09 628.9 2314.9 707.21 2309.38 707.97"></polyline>
            <polyline id="Fill-54" fill="#EEA6AC" points="2069.53 722.29 2094.63 699.56 2139.7 722.29 2139.7 762.88 2069.53 779.61 2069.53 722.29"></polyline>
            <polyline id="Fill-55" fill="#27394F" points="1983.55 738.84 1982.67 733.33 2069.1 719.54 2069.98 725.05 1983.55 738.84"></polyline>
            <path d="M2231.54,462.97 C2232.81,468.42 2237.71,472.49 2243.54,472.49 C2249.37,472.49 2254.26,468.42 2255.53,462.97 L2231.54,462.97 Z M2243.54,478.07 C2233.68,478.07 2225.65,470.04 2225.65,460.18 L2225.65,457.39 L2261.42,457.39 L2261.42,460.18 C2261.42,470.04 2253.4,478.07 2243.54,478.07 L2243.54,478.07 Z" id="Fill-56" fill="#27394F"></path>
            <polyline id="Fill-57" fill="#27394F" points="2220.06 1182.22 2139.63 955.64 2144.88 953.78 2225.31 1180.36 2220.06 1182.22"></polyline>
            <polygon id="Fill-58" fill="#FFFFFE" points="3334.56 942.7 4064.93 942.7 4064.93 399.18 3334.56 399.18"></polygon>
            <polyline id="Fill-59" fill="#27394F" points="4064.93 945.49 4064.93 939.91 3334.55 939.91 3334.55 945.49 3696.96 945.49 3696.96 1239.73 3695.34 1239.18 3553.14 1659.23 3558.42 1661.01 3696.96 1251.79 3696.96 1660.12 3702.53 1660.12 3702.53 1251.81 3841.07 1661.01 3846.35 1659.23 3704.15 1239.18 3702.53 1239.73 3702.53 945.49 4064.93 945.49"></polyline>
            <polygon id="Fill-60" fill="#5B66A0" points="3638.25 749.39 3761.24 749.39 3761.24 646.19 3638.25 646.19"></polygon>
            <path d="M3734.26,646.19 L3728.68,646.19 L3728.68,602.48 C3728.68,586.53 3715.7,573.54 3699.75,573.54 C3683.79,573.54 3670.81,586.53 3670.81,602.48 L3670.81,646.19 L3665.23,646.19 L3665.23,602.48 C3665.23,583.45 3680.71,567.97 3699.75,567.97 C3718.78,567.97 3734.26,583.45 3734.26,602.48 L3734.26,646.19" id="Fill-61" fill="#27394F"></path>
            <path d="M3699.75,695.01 C3695.74,695.01 3692.48,691.75 3692.48,687.74 C3692.48,683.74 3695.74,680.48 3699.75,680.48 C3703.75,680.48 3707,683.74 3707,687.74 C3707,691.75 3703.75,695.01 3699.75,695.01 Z M3712.58,687.74 C3712.58,680.66 3706.82,674.9 3699.75,674.9 C3692.67,674.9 3686.91,680.66 3686.91,687.74 C3686.91,693.86 3691.22,698.98 3696.96,700.26 L3696.96,720.58 L3702.53,720.58 L3702.53,700.26 C3708.27,698.98 3712.58,693.86 3712.58,687.74 L3712.58,687.74 Z" id="Fill-62" fill="#27394F"></path>
            <path d="M3861.99,668.18 C3861.99,757.65 3789.21,830.43 3699.75,830.43 C3610.28,830.43 3537.5,757.65 3537.5,668.18 C3537.5,578.72 3610.28,505.94 3699.75,505.94 L3768.44,505.94 L3745.33,529.05 L3749.27,532.99 L3779.12,503.15 L3749.27,473.31 L3745.33,477.25 L3768.45,500.36 L3699.75,500.36 C3607.21,500.36 3531.92,575.65 3531.92,668.18 C3531.92,760.72 3607.21,836.01 3699.75,836.01 C3792.28,836.01 3867.569,760.72 3867.569,668.18 L3861.99,668.18" id="Fill-63" fill="#EEA6AC"></path>
            <polyline id="Fill-64" fill="#F7D0A6" points="3847.919 593.02 3822.83 592.97 3822.91 557.78 3848 557.84 3847.919 593.02"></polyline>
            <polyline id="Fill-65" fill="#F7D0A6" points="3891.13 593.12 3866.04 593.06 3866.17 535.58 3891.26 535.63 3891.13 593.12"></polyline>
            <polyline id="Fill-66" fill="#F7D0A6" points="3934.34 593.22 3909.25 593.16 3909.43 513.37 3934.52 513.43 3934.34 593.22"></polyline>
            <polyline id="Fill-67" fill="#F7D0A6" points="3977.55 593.32 3952.46 593.26 3952.69 491.17 3977.79 491.22 3977.55 593.32"></polyline>
            <polyline id="Fill-68" fill="#C95676" points="3438.33 841.81 3460.78 857.02 3438.33 872.23 3438.33 841.81"></polyline>
            <polyline id="Fill-69" fill="#C95676" points="3480.9 841.81 3503.35 857.02 3480.9 872.23 3480.9 841.81"></polyline>
            <polyline id="Fill-70" fill="#C95676" points="3523.48 841.81 3545.93 857.02 3523.48 872.23 3523.48 841.81"></polyline>
            <polyline id="Fill-71" fill="#4CAA97" points="3857.81 779.61 3857.81 865.93 3958.15 865.93 3995.09 893.81 3995.09 779.61 3857.81 779.61"></polyline>
            <path d="M3897.33,822.77 C3897.33,825.99 3894.72,828.6 3891.5,828.6 C3888.29,828.6 3885.68,825.99 3885.68,822.77 C3885.68,819.55 3888.29,816.94 3891.5,816.94 C3894.72,816.94 3897.33,819.55 3897.33,822.77" id="Fill-72" fill="#FFFFFE"></path>
            <path d="M3932.28,822.77 C3932.28,825.99 3929.669,828.6 3926.45,828.6 C3923.23,828.6 3920.62,825.99 3920.62,822.77 C3920.62,819.55 3923.23,816.94 3926.45,816.94 C3929.669,816.94 3932.28,819.55 3932.28,822.77" id="Fill-73" fill="#FFFFFE"></path>
            <path d="M3967.22,822.77 C3967.22,825.99 3964.61,828.6 3961.39,828.6 C3958.169,828.6 3955.56,825.99 3955.56,822.77 C3955.56,819.55 3958.169,816.94 3961.39,816.94 C3964.61,816.94 3967.22,819.55 3967.22,822.77" id="Fill-74" fill="#FFFFFE"></path>
            <path d="M2855.99,1171.65 C2830.24,1171.65 2809.3,1192.59 2809.3,1218.34 C2809.3,1244.08 2830.24,1265.03 2855.99,1265.03 C2863.63,1265.03 2870.83,1263.15 2877.21,1259.88 L2884.15,1181.19 C2876.31,1175.23 2866.57,1171.65 2855.99,1171.65" id="Fill-75" fill="#4CAA97"></path>
            <path d="M3041.73,1218.34 C3041.73,1189.52 3065.18,1166.07 3094,1166.07 C3099.66,1166.07 3105.09,1167 3110.2,1168.67 L3086.48,832.79 L2925.53,832.79 L2925.53,871.51 L2865.55,915.68 L2845.96,899.5 L2790.75,954.71 L2781.39,945.36 C2779.64,963.66 2778.34,982 2777.6,1000.39 L2753.44,1605.29 L2846.72,1605.29 L2876.64,1266.33 C2870.3,1269.07 2863.32,1270.6 2855.99,1270.6 C2827.17,1270.6 2803.72,1247.16 2803.72,1218.34 C2803.72,1189.52 2827.17,1166.07 2855.99,1166.07 C2866.6,1166.07 2876.47,1169.27 2884.72,1174.73 L2906.44,928.66 L2969.8,928.66 L3047.74,1605.29 L3141.03,1605.29 L3117.01,1265.19 C3110.06,1268.62 3102.26,1270.6 3094,1270.6 C3065.18,1270.6 3041.73,1247.16 3041.73,1218.34" id="Fill-76" fill="#4CAA97"></path>
            <path d="M3047.31,1218.34 C3047.31,1244.08 3068.25,1265.03 3094,1265.03 C3102.19,1265.03 3109.89,1262.89 3116.59,1259.17 L3110.63,1174.76 C3105.45,1172.78 3099.86,1171.65 3094,1171.65 C3068.25,1171.65 3047.31,1192.59 3047.31,1218.34" id="Fill-77" fill="#4CAA97"></path>
            <path d="M2775,637.44 L2783.94,711.06 L2844.57,650.43 L2969.8,775.66 L2925.53,819.93 L2925.53,832.79 L3086.48,832.79 L3141.78,625.97 L3176.87,677.09 L3260.98,596.77 L3219.2,520.36 C3198.83,483.11 3159.76,459.94 3117.3,459.94 L3027.03,459.94 C3027.03,472.35 3008.77,482.72 2984.29,485.41 L2970,514.2 L2958.23,485.27 C2934.33,482.39 2916.62,472.16 2916.62,459.94 L2814.84,459.94 C2776.42,459.94 2740.5,478.94 2718.87,510.69 L2652.93,607.47 L2746.56,671.26 L2775,637.44" id="Fill-78" fill="#F7D0A6"></path>
            <polyline id="Fill-79" fill="#F7D0A6" points="2925.53 832.79 3086.48 832.79 2925.53 832.79"></polyline>
            <path d="M2946.26,334.59 C2953.71,334.59 2960.15,338.67 2963.65,344.66 L2994.4,311.31 C2994.4,311.31 3008.48,328.89 2994.4,345.79 L3047.74,345.79 C3047.74,345.79 3069.54,311.58 3036.08,282.77 C3002.63,253.97 2956.16,271.62 2945.94,290.21 C2945.94,290.21 2928.46,287.81 2926.05,311.31 C2924.77,323.79 2928.99,333.28 2933.24,339.46 C2935.4,337.62 2937.94,336.24 2940.75,335.44 C2942.51,334.94 2944.34,334.59 2946.26,334.59" id="Fill-80" fill="#27394F"></path>
            <polyline id="Fill-81" fill="#C95676" points="2793.62 858.49 2701.47 793.53 2665.52 829.48 2781.39 945.36 2790.75 954.71 2845.96 899.5 2812.08 871.51 2793.62 858.49"></polyline>
            <polyline id="Fill-82" fill="#C95676" points="2844.57 650.43 2766.46 728.54 2865.55 814.41 2925.53 819.93 2969.8 775.66 2844.57 650.43"></polyline>
            <path d="M3475.16,485.71 L3421.75,503.15 L3410.52,531.02 L3276.29,624.78 L3260.98,596.77 L3176.87,677.09 L3210.2,725.65 C3228.81,752.76 3266.56,758.3 3292.18,737.68 L3453.1,608.14 L3532.97,553.25 L3475.16,485.71" id="Fill-83" fill="#EEA6AC"></path>
            <path d="M2994.4,311.31 L2963.65,344.66 C2960.15,338.67 2953.71,334.59 2946.26,334.59 C2944.34,334.59 2942.51,334.94 2940.75,335.44 C2937.94,336.24 2935.4,337.62 2933.24,339.46 C2928.88,343.17 2926.05,348.63 2926.05,354.8 C2926.05,364.04 2932.29,371.74 2940.75,374.16 L2940.75,459.94 L2916.62,459.94 C2916.62,472.16 2934.33,482.39 2958.23,485.27 L2970,514.2 L2984.29,485.41 C3008.77,482.72 3027.03,472.35 3027.03,459.94 L2999.01,459.94 L2999.01,407.17 L3022.96,413.44 C3035.64,416.37 3047.74,406.75 3047.74,393.74 L3047.74,345.79 L2994.4,345.79 C3008.48,328.89 2994.4,311.31 2994.4,311.31" id="Fill-84" fill="#EEA6AC"></path>
            <path d="M2788.37,747.53 L2727.09,694.42 L2746.56,671.26 L2652.93,607.47 L2616.58,660.83 C2597.98,688.14 2604.72,725.32 2631.72,744.36 L2793.62,858.49 L2812.08,871.51 L2865.55,915.68 L2925.53,871.51 L2925.53,819.93 L2865.55,814.41 L2788.37,747.53" id="Fill-85" fill="#EEA6AC"></path>
            <path d="M2803.72,1218.34 C2803.72,1247.16 2827.17,1270.6 2855.99,1270.6 C2863.32,1270.6 2870.3,1269.07 2876.64,1266.33 L2877.21,1259.88 C2870.83,1263.15 2863.63,1265.03 2855.99,1265.03 C2830.24,1265.03 2809.3,1244.08 2809.3,1218.34 C2809.3,1192.59 2830.24,1171.65 2855.99,1171.65 C2866.57,1171.65 2876.31,1175.23 2884.15,1181.19 L2884.72,1174.73 C2876.47,1169.27 2866.6,1166.07 2855.99,1166.07 C2827.17,1166.07 2803.72,1189.52 2803.72,1218.34" id="Fill-86" fill="#27394F"></path>
            <path d="M3094,1265.03 C3068.25,1265.03 3047.31,1244.08 3047.31,1218.34 C3047.31,1192.59 3068.25,1171.65 3094,1171.65 C3099.86,1171.65 3105.45,1172.78 3110.63,1174.76 L3110.2,1168.67 C3105.09,1167 3099.66,1166.07 3094,1166.07 C3065.18,1166.07 3041.73,1189.52 3041.73,1218.34 C3041.73,1247.16 3065.18,1270.6 3094,1270.6 C3102.26,1270.6 3110.06,1268.62 3117.01,1265.19 L3116.59,1259.17 C3109.89,1262.89 3102.19,1265.03 3094,1265.03" id="Fill-87" fill="#27394F"></path>
            <path d="M3141.03,1605.29 L3211.9,1638.47 C3215.9,1640.34 3218.45,1644.35 3218.45,1648.76 C3218.45,1655.03 3213.36,1660.12 3207.09,1660.12 L3047.74,1660.12 L3047.74,1605.29 L3141.03,1605.29" id="Fill-88" fill="#27394F"></path>
            <path d="M2846.72,1605.29 L2917.6,1638.47 C2921.59,1640.34 2924.14,1644.35 2924.14,1648.76 C2924.14,1655.03 2919.06,1660.12 2912.78,1660.12 L2753.44,1660.12 L2753.44,1605.29 L2846.72,1605.29" id="Fill-89" fill="#27394F"></path>
            <polyline id="Fill-90" fill="#4CAA97" points="3529.08 567.29 3532.97 587.61 3512.64 583.73 3416 486.2 3432.44 469.76 3529.08 567.29"></polyline>
            <polyline id="Fill-91" fill="#27394F" points="2777.13 639.23 2772.86 635.65 2803.43 599.29 2807.69 602.88 2777.13 639.23"></polyline>
            <polyline id="Fill-92" fill="#27394F" points="3144.47 626.69 3139.08 625.25 3157.26 557.24 3162.65 558.67 3144.47 626.69"></polyline>
            <path d="M3009.45,386 C3010.71,391.2 3015.39,395.07 3020.97,395.07 C3026.55,395.07 3031.23,391.2 3032.49,386 L3009.45,386 Z M3020.97,400.64 C3011.36,400.64 3003.54,392.83 3003.54,383.21 L3003.54,380.43 L3038.4,380.43 L3038.4,383.21 C3038.4,392.83 3030.58,400.64 3020.97,400.64 L3020.97,400.64 Z" id="Fill-93" fill="#27394F"></path>
            <path d="M4727.75,762.73 L4670.71,580.17 C4663.641,557.52 4642.66,542.09 4618.93,542.09 L4510.62,542.09 L4487.18,562.65 L4452.4,593.14 L4452.4,542.09 L4363.87,542.09 C4342.13,542.09 4322.49,555.07 4313.97,575.06 L4279.45,655.98 L4471.37,655.98 L4471.37,818.46 L4581.94,818.46 L4581.94,856.65 L4471.37,856.65 L4471.37,857.02 L4614.21,857.02 L4619.67,818.46 L4686.68,818.46 C4715.65,818.46 4736.33,790.4 4727.75,762.73" id="Fill-94" fill="#5B66A0"></path>
            <path d="M4739.06,584.17 C4735.77,558.8 4710.38,538.4 4684.9,540.64 C4675.52,541.47 4665.689,544.86 4657.02,541.18 C4648.04,537.35 4643.73,527.41 4638.149,519.4 C4628.58,505.66 4613.14,496.17 4596.56,493.84 C4578.27,491.27 4558.84,496.37 4542.67,485.17 C4536.569,480.95 4531.01,475.39 4524.87,471.45 C4532.92,460.94 4541.41,444.63 4541.41,422.29 C4541.41,379.77 4506.56,355.38 4472.41,355.38 C4438.26,355.38 4390.17,370.02 4403.67,427.86 C4403.67,427.86 4447.319,427.93 4475.9,393.4 C4475.9,393.4 4480.26,411.3 4494.33,421.41 C4497.47,419.42 4501.16,418.22 4505.15,418.22 C4507.07,418.22 4508.9,418.58 4510.66,419.08 C4519.12,421.49 4525.36,429.2 4525.36,438.44 C4525.36,447.67 4519.12,455.38 4510.66,457.79 L4510.66,542.06 L4510.62,542.09 L4618.93,542.09 C4642.66,542.09 4663.641,557.52 4670.71,580.17 L4693.08,651.75 C4702.08,647.92 4710.49,642.86 4717.76,636.3 C4732.25,623.22 4741.57,603.53 4739.06,584.17" id="Fill-95" fill="#27394F"></path>
            <polyline id="Fill-96" fill="#27394F" points="4471.37 655.98 4195.83 655.98 4195.83 857.02 4471.37 857.02 4471.37 856.65 4581.94 856.65 4581.94 818.46 4471.37 818.46 4471.37 655.98"></polyline>
            <path d="M4510.66,419.08 C4508.9,418.58 4507.07,418.22 4505.15,418.22 C4501.16,418.22 4497.47,419.42 4494.33,421.41 C4480.26,411.3 4475.9,393.4 4475.9,393.4 C4447.319,427.93 4403.67,427.86 4403.67,427.86 L4403.67,475.82 C4403.67,488.83 4415.77,498.46 4428.45,495.53 L4452.4,489.26 L4452.4,593.14 L4487.18,562.65 L4510.62,542.09 L4510.66,542.06 L4510.66,457.79 C4519.12,455.38 4525.36,447.67 4525.36,438.44 C4525.36,429.2 4519.12,421.49 4510.66,419.08" id="Fill-97" fill="#EEA6AC"></path>
            <path d="M4304.67,1605.29 L4233.79,1638.47 C4229.8,1640.34 4227.25,1644.35 4227.25,1648.76 C4227.25,1655.03 4232.33,1660.12 4238.609,1660.12 L4381.23,1660.12 L4381.23,1605.29 L4304.67,1605.29" id="Fill-98" fill="#E98A69"></path>
            <path d="M4582.37,1605.29 L4511.49,1638.47 C4507.5,1640.34 4504.95,1644.35 4504.95,1648.76 C4504.95,1655.03 4510.029,1660.12 4516.31,1660.12 L4658.92,1660.12 L4658.92,1605.29 L4582.37,1605.29" id="Fill-99" fill="#E98A69"></path>
            <path d="M4348.84,857.02 L4265.64,1605.29 L4414.82,1605.29 L4457.16,933.3 L4499.57,933.3 L4534.54,1605.29 L4658.92,1605.29 L4633.641,976.71 C4632.01,936.17 4625.49,895.99 4614.21,857.02 L4348.84,857.02" id="Fill-100" fill="#C95676"></path>
            <polyline id="Fill-101" fill="#EEA6AC" points="4195.83 879.87 4286.42 879.87 4286.42 857.02 4241.13 830.21 4195.83 836.71 4195.83 879.87"></polyline>
            <path d="M4352.47,756.5 C4352.47,766.92 4344.02,775.37 4333.6,775.37 C4323.18,775.37 4314.73,766.92 4314.73,756.5 C4314.73,746.08 4323.18,737.63 4333.6,737.63 C4344.02,737.63 4352.47,746.08 4352.47,756.5" id="Fill-102" fill="#FFFFFE"></path>
            <polyline id="Fill-103" fill="#EEA6AC" points="4533.149 818.46 4533.149 747.45 4510.66 737.63 4471.37 762.78 4471.37 818.46 4533.149 818.46"></polyline>
            <polyline id="Fill-104" fill="#27394F" points="4533.58 750.2 4532.72 744.69 4658.5 725.18 4659.35 730.69 4533.58 750.2"></polyline>
            <polyline id="Fill-105" fill="#27394F" points="4619.95 734.49 4579.3 617.33 4584.569 615.5 4625.22 732.66 4619.95 734.49"></polyline>
            <polyline id="Fill-106" fill="#27394F" points="4340.8 656.22 4336.62 607.71 4342.17 607.23 4346.35 655.74 4340.8 656.22"></polyline>
            <path d="M4434.65,476.06 C4427.51,476.06 4420.8,473.28 4415.75,468.23 L4419.689,464.29 C4427.68,472.28 4441.62,472.28 4449.62,464.29 L4453.56,468.23 C4448.51,473.28 4441.8,476.06 4434.65,476.06" id="Fill-107" fill="#27394F"></path>
            <polyline id="Fill-108" fill="#27394F" points="4344.26 1574.77 4338.71 1574.25 4400.89 907.02 4406.45 907.55 4344.26 1574.77"></polyline>
            <polyline id="Fill-109" fill="#27394F" points="4593.26 1572.78 4561.49 907.42 4567.06 907.16 4598.819 1572.52 4593.26 1572.78"></polyline>
            <path d="M3123.9,209.39 L3123.9,370.6 L3189.77,314.1 L3357.46,314.1 L3357.46,209.39 L3123.9,209.39 Z M3118.32,382.74 L3118.32,203.82 L3363.03,203.82 L3363.03,319.68 L3191.83,319.68 L3118.32,382.74 L3118.32,382.74 Z" id="Fill-110" fill="#5B66A0"></path>
            <path d="M854.96,283.84 L854.96,404.42 L904.15,364.44 L1164.04,364.44 L1164.04,283.84 L854.96,283.84 Z M849.39,416.14 L849.39,278.26 L1169.61,278.26 L1169.61,370.02 L906.13,370.02 L849.39,416.14 L849.39,416.14 Z" id="Fill-111" fill="#5B66A0"></path>
        </g>
    </g>
</svg>
