
<svg width="1211px" height="1398px" viewBox="0 0 1211 1398" version="1.1" xmlns="http://www.w3.org/2000/svg" xmlns:xlink="http://www.w3.org/1999/xlink">
    <g id="Page-1" stroke="none" stroke-width="1" fill="none" fill-rule="evenodd">
        <g id="shutterstock_1369642130">
            <polyline id="Fill-112" fill="#E98A69" points="241.26 762.72 166.92 762.72 150.19 597.21 257.99 597.21 241.26 762.72"></polyline>
            <path d="M226.86,651.13 C226.86,663.71 216.66,673.9 204.09,673.9 C191.52,673.9 181.32,663.71 181.32,651.13 C181.32,638.56 191.52,628.37 204.09,628.37 C216.66,628.37 226.86,638.56 226.86,651.13" id="Fill-113" fill="#4CAA97"></path>
            <polygon id="Fill-114" fill="#27394F" points="150.19 597.21 257.99 597.21 257.99 580.04 150.19 580.04"></polygon>
            <polygon id="Fill-115" fill="#4CAA97" points="196.39 580.04 211.79 580.04 211.79 518.71 196.39 518.71"></polygon>
            <path d="M894.71,977.65 L894.71,886.32 L628.66,886.32 C593,886.32 561.25,908.9 549.55,942.58 L445.26,1242.62 L518.2,1265.85 L625.45,1082 L602.63,1342.87 L679.19,1342.87 L743.67,1051.99 L601.49,1051.99 L601.49,977.65 L894.71,977.65" id="Fill-148" fill="#5B66A0"></path>
            <polyline id="Fill-149" fill="#27394F" points="0.63 759.93 0.63 1397.69 309.22 1397.69 309.22 765.5 1205.25 765.5 1205.25 1397.69 1210.83 1397.69 1210.83 759.93 0.63 759.93"></polyline>
            <polygon id="Fill-150" fill="#FFFFFE" points="357.76 692.29 927.2 692.29 927.2 319.781 357.76 319.781"></polygon>
            <path d="M399.57,650.47 L885.38,650.47 L885.38,361.6 L399.57,361.6 L399.57,650.47 Z M394,656.05 L890.95,656.05 L890.95,356.024 L394,356.024 L394,656.05 Z" id="Fill-151" fill="#27394F"></path>
            <polygon id="Fill-152" fill="#27394F" points="553.59 762.72 731.36 762.72 731.36 692.29 553.59 692.29"></polygon>
            <path d="M172.22,882.33 L139.55,882.33 C130.04,882.33 122.22,875.27 120.86,866.13 L190.92,866.13 C189.55,875.27 181.73,882.33 172.22,882.33 Z M3.42,860.56 L3.42,866.13 L115.28,866.13 C116.69,878.35 126.97,887.9 139.55,887.9 L172.22,887.9 C184.8,887.9 195.09,878.35 196.49,866.13 L309.22,866.13 L309.22,860.56 L3.42,860.56 L3.42,860.56 Z" id="Fill-153" fill="#F3E7DF"></path>
            <path d="M172.22,985.75 L139.55,985.75 C130.04,985.75 122.22,978.69 120.86,969.55 L190.92,969.55 C189.55,978.69 181.73,985.75 172.22,985.75 Z M3.42,969.55 L115.28,969.55 C116.69,981.77 126.97,991.32 139.55,991.32 L172.22,991.32 C184.8,991.32 195.09,981.77 196.49,969.55 L309.22,969.55 L309.22,963.98 L3.42,963.98 L3.42,969.55 L3.42,969.55 Z" id="Fill-154" fill="#F3E7DF"></path>
            <path d="M139.55,784.49 L172.22,784.49 C185.76,784.49 196.77,773.47 196.77,759.93 L191.2,759.93 C191.2,770.39 182.69,778.91 172.22,778.91 L139.55,778.91 C129.09,778.91 120.58,770.39 120.58,759.93 L115,759.93 C115,773.47 126.02,784.49 139.55,784.49" id="Fill-155" fill="#F3E7DF"></path>
            <polygon id="Fill-156" fill="#F3E7DF" points="573.48 616.6 807.84 616.6 807.84 444.52 573.48 444.52"></polygon>
            <polygon id="Fill-157" fill="#4CAA97" points="573.48 444.52 807.84 444.52 807.84 420.819 573.48 420.819"></polygon>
            <path d="M445.26,1242.62 L367.65,1252.73 C363.28,1253.3 359.63,1256.35 358.3,1260.55 C356.39,1266.53 359.69,1272.92 365.67,1274.82 L501.57,1318.1 L518.2,1265.85 L445.26,1242.62" id="Fill-158" fill="#27394F"></path>
            <path d="M602.63,1342.87 L531.75,1376.04 C527.76,1377.91 525.21,1381.92 525.21,1386.33 C525.21,1392.61 530.29,1397.69 536.57,1397.69 L679.19,1397.69 L679.19,1342.87 L602.63,1342.87" id="Fill-159" fill="#27394F"></path>
            <path d="M947.07,574.35 L944.08,574.35 C945.56,585.09 951.07,595.06 959.24,602.7 C972.64,615.24 981.03,633.06 981.03,652.88 C981.03,691.76 948.81,723.11 909.62,721.7 C873.54,720.41 843.92,690.19 843.3,654.09 C843.24,650.92 843.4,647.81 843.76,644.76 C845.5,630.08 840.43,615.59 829.46,605.68 C820.25,597.35 813.38,586.55 809.74,574.35 L719.94,574.35 C690.64,574.35 664.63,593.09 655.36,620.88 L602.63,778.91 L553.59,762.72 L474.23,784.49 L595.03,888.57 C623.92,913.47 668.67,903.22 683.84,868.23 L705.45,818.4 L715.49,886.32 L980.86,886.32 L1014.47,651.97 C1020.27,610.99 988.46,574.35 947.07,574.35" id="Fill-160" fill="#C95676"></path>
            <path d="M770.32,456.51 L770.32,508.08 C770.32,521.09 782.42,530.71 795.1,527.79 L804.72,525.27 C802.06,518.31 797.72,511.94 792.11,506.69 C778.7,494.15 770.32,476.32 770.32,456.51" id="Fill-161" fill="#EEA6AC"></path>
            <path d="M959.24,602.7 C951.07,595.06 945.56,585.09 944.08,574.35 C943.58,570.74 943.53,567.04 944,563.31 C944.36,560.49 944.54,557.61 944.54,554.69 C944.54,534.45 935.79,516.29 921.88,503.71 C910.91,493.79 905.84,479.31 907.58,464.63 C907.94,461.57 908.1,458.46 908.05,455.3 C907.42,419.201 877.81,388.979 841.72,387.682 C802.53,386.273 770.32,417.628 770.32,456.51 C770.32,476.32 778.7,494.15 792.11,506.69 C797.72,511.94 802.06,518.31 804.72,525.27 C807.22,531.82 808.25,538.89 807.34,546.07 C806.99,548.9 806.8,551.77 806.8,554.69 C806.8,561.54 807.88,568.12 809.74,574.35 C813.38,586.55 820.25,597.35 829.46,605.68 C840.43,615.59 845.5,630.08 843.76,644.76 C843.4,647.81 843.24,650.92 843.3,654.09 C843.92,690.19 873.54,720.41 909.62,721.7 C948.81,723.11 981.03,691.76 981.03,652.88 C981.03,633.06 972.64,615.24 959.24,602.7" id="Fill-162" fill="#27394F"></path>
            <path d="M910.48,1324.41 L910.48,1051.99 L904.9,1051.99 L904.9,1324.41 C865.71,1325.9 834.27,1358.15 834.27,1397.69 L839.84,1397.69 C839.84,1360.29 870.28,1329.85 907.69,1329.85 C945.09,1329.85 975.53,1360.29 975.53,1397.69 L981.11,1397.69 C981.11,1358.15 949.66,1325.9 910.48,1324.41" id="Fill-163" fill="#27394F"></path>
            <path d="M1116.66,680.28 L866.98,680.28 C849.58,680.28 834.61,692.57 831.23,709.63 L778.02,977.65 L601.49,977.65 L601.49,1051.99 L1057.34,1051.99 C1074.74,1051.99 1089.71,1039.7 1093.09,1022.64 L1152.41,723.82 C1156.89,701.28 1139.64,680.28 1116.66,680.28" id="Fill-164" fill="#F7D0A6"></path>
            <path d="M938.75,648.58 L1059.36,648.58 C1085.28,648.58 1106.3,627.56 1106.3,601.64 C1106.3,575.71 1085.28,554.69 1059.36,554.69 L938.75,554.69 C912.83,554.69 891.81,575.71 891.81,601.64 C891.81,627.56 912.83,648.58 938.75,648.58" id="Fill-165" fill="#F7D0A6"></path>
            <polyline id="Fill-166" fill="#EEA6AC" points="474.23 784.49 553.59 762.72 531.84 710.6 451.14 710.6 429.62 762.72 474.23 784.49"></polyline>
            <polyline id="Fill-167" fill="#27394F" points="702.69 818.8 685.91 700.29 691.43 699.51 708.21 818.01 702.69 818.8"></polyline>
            <polygon id="Fill-168" fill="#5B66A0" points="445.26 580.04 544.85 580.04 544.85 405.339 445.26 405.339"></polygon>
            <polygon id="Fill-169" fill="#F3E7DF" points="445.26 617.21 544.85 617.21 544.85 580.04 445.26 580.04"></polygon>
            <polygon id="Fill-170" fill="#F7D0A6" points="514.19 617.21 544.85 617.21 544.85 580.04 514.19 580.04"></polygon>
            <polygon id="Fill-171" fill="#FFFFFE" points="461.67 447.02 491.13 447.02 491.13 432.151 461.67 432.151"></polygon>
            <polygon id="Fill-172" fill="#F7D0A6" points="498.98 475.29 528.44 475.29 528.44 460.42 498.98 460.42"></polygon>
            <polygon id="Fill-173" fill="#FFFFFE" points="461.67 500.13 491.13 500.13 491.13 485.26 461.67 485.26"></polygon>
            <polygon id="Fill-174" fill="#F7D0A6" points="498.98 528.4 528.44 528.4 528.44 513.53 498.98 513.53"></polygon>
            <polygon id="Fill-175" fill="#FFFFFE" points="461.67 553.23 491.13 553.23 491.13 538.36 461.67 538.36"></polygon>
            <path d="M658.11,475.29 C629.18,475.29 605.73,498.74 605.73,527.67 C605.73,556.59 629.18,580.04 658.11,580.04 C687.03,580.04 710.48,556.59 710.48,527.67 L658.11,527.67 L658.11,475.29" id="Fill-176" fill="#E98A69"></path>
            <path d="M668.88,464.52 L668.88,516.89 L721.26,516.89 C721.26,487.96 697.81,464.52 668.88,464.52" id="Fill-177" fill="#F7D0A6"></path>
            <polyline id="Fill-186" fill="#F7D0A6" points="602.2 141.419 526.83 141.419 526.83 216.789 582.82 216.789 602.2 197.412 602.2 141.419"></polyline>
            <polyline id="Fill-187" fill="#E98A69" points="582.82 216.789 602.2 197.412 582.82 197.412 582.82 216.789"></polyline>
            <polygon id="Fill-188" fill="#FFFFFE" points="106.43 216.789 486.87 216.789 486.87 0.827 106.43 0.827"></polygon>
            <path d="M357.75,106.021 L410.5,106.021 L410.5,53.276 L357.75,53.276 L357.75,106.021 Z M357.75,164.344 L410.5,164.344 L410.5,111.598 L357.75,111.598 L357.75,164.344 Z M299.44,164.344 L352.18,164.344 L352.18,111.598 L299.44,111.598 L299.44,164.344 Z M241.12,164.344 L293.86,164.344 L293.86,111.598 L241.12,111.598 L241.12,164.344 Z M182.8,164.344 L235.54,164.344 L235.54,111.598 L182.8,111.598 L182.8,164.344 Z M182.8,106.021 L235.54,106.021 L235.54,53.276 L182.8,53.276 L182.8,106.021 Z M241.12,106.021 L293.86,106.021 L293.86,53.276 L241.12,53.276 L241.12,106.021 Z M299.44,106.021 L352.18,106.021 L352.18,53.276 L299.44,53.276 L299.44,106.021 Z M453.4,53.276 L453.4,47.7 L416.08,47.7 L416.08,21.079 L410.5,21.079 L410.5,47.7 L357.75,47.7 L357.75,21.079 L352.18,21.079 L352.18,47.7 L299.44,47.7 L299.44,21.079 L293.86,21.079 L293.86,47.7 L241.12,47.7 L241.12,21.079 L235.54,21.079 L235.54,47.7 L182.8,47.7 L182.8,21.079 L177.22,21.079 L177.22,47.7 L139.91,47.7 L139.91,53.276 L177.22,53.276 L177.22,106.021 L139.91,106.021 L139.91,111.598 L177.22,111.598 L177.22,164.344 L139.91,164.344 L139.91,169.919 L177.22,169.919 L177.22,196.534 L182.8,196.534 L182.8,169.919 L235.54,169.919 L235.54,196.534 L241.12,196.534 L241.12,169.919 L293.86,169.919 L293.86,196.534 L299.44,196.534 L299.44,169.919 L352.18,169.919 L352.18,196.534 L357.75,196.534 L357.75,169.919 L410.5,169.919 L410.5,196.534 L416.08,196.534 L416.08,169.919 L453.4,169.919 L453.4,164.344 L416.08,164.344 L416.08,111.598 L453.4,111.598 L453.4,106.021 L416.08,106.021 L416.08,53.276 L453.4,53.276 L453.4,53.276 Z" id="Fill-189" fill="#F3E7DF"></path>
            <polygon id="Fill-190" fill="#4CAA97" points="149.01 179.104 211.02 179.104 211.02 143.541 149.01 143.541"></polygon>
            <polygon id="Fill-191" fill="#5B66A0" points="219.26 96.136 281.27 96.136 281.27 60.572 219.26 60.572"></polygon>
            <polygon id="Fill-192" fill="#C95676" points="382.29 153.726 444.29 153.726 444.29 118.162 382.29 118.162"></polygon>
        </g>
    </g>
</svg>
