<?xml version="1.0" encoding="utf-8"?>
<!-- Generator: Adobe Illustrator 19.0.0, SVG Export Plug-In . SVG Version: 6.00 Build 0)  -->
<svg version="1.1" id="Layer_1" xmlns="http://www.w3.org/2000/svg" xmlns:xlink="http://www.w3.org/1999/xlink" x="0px" y="0px"
	 viewBox="-236 317.9 226.7 67.1" style="enable-background:new -236 317.9 226.7 67.1;" xml:space="preserve">
<style type="text/css">
	.st0{display:none;}
	.st1{fill:#FFFFFF;}
	.st2{fill:#57EC11;}
	.st3{fill:#9AF470;}
</style>
<g id="Layer_1_1_" class="st0">
</g>
<g id="Layer_2">
</g>
<g id="XMLID_5_">
	<path id="XMLID_12_" class="st1" d="M-172.3,355.8l8.4-13.8h3.1v23.1h-4.5v-12.9l-5.5,9.1h-3.1l-5.5-9.1v12.9h-4.5V342h3.1
		L-172.3,355.8z"/>
	<path id="XMLID_11_" class="st1" d="M-142,365.1h-4.1v-1.3c-1.3,1.1-2.8,1.6-4.4,1.6c-2.4,0-4.6-1.1-6-2.7c-1.3-1.5-2-3.4-2-5.6
		c0-4.7,3.5-8.3,7.8-8.3c1.8,0,3.4,0.6,4.7,1.6v-1.3h4.1V365.1z M-146.3,354.7c-0.9-1.2-2.3-2-4-2c-2.5,0-4.1,2.1-4.1,4.4
		c0,2.5,1.8,4.4,4.2,4.4c1.6,0,3-0.8,3.9-2V354.7z"/>
	<path id="XMLID_10_" class="st1" d="M-128.9,352.9c-0.3-0.1-0.9-0.2-1.5-0.2c-1.9,0-3.4,1.4-3.9,2.3v10.1h-4.3v-16h4.1v1.6
		c1-1.2,2.7-1.9,4.6-1.9c0.6,0,1,0.1,1.5,0.1L-128.9,352.9z"/>
	<path id="XMLID_9_" class="st1" d="M-119.1,358.8l4.4-9.8h4.5l-7.4,16h-3l-7.4-16h4.5L-119.1,358.8z"/>
	<path id="XMLID_8_" class="st1" d="M-95.3,362.5c-1.5,1.8-4.1,2.9-6.6,2.9c-4.8,0-8.4-3.3-8.4-8.3c0-4.5,3-8.3,7.8-8.3
		c4.4,0,7.6,3.7,7.6,8.2c0,0.4,0,0.9-0.1,1.2h-11.1c0.2,2.2,2,3.8,4.3,3.8c1.8,0,3.3-1,4-1.8L-95.3,362.5z M-99.3,355
		c-0.1-1.4-1.4-2.8-3.2-2.8c-1.8,0-3.2,1.4-3.4,2.8H-99.3z"/>
	<path id="XMLID_7_" class="st1" d="M-88.3,365.1h-4.3v-23.4h4.3V365.1z"/>
	<path id="XMLID_6_" class="st1" d="M-80.1,365.1h-4.3v-23.4h4.3V365.1z"/>
</g>
<polygon id="XMLID_4_" class="st2" points="-194,368.2 -210.8,351.5 -194,334.7 -194,351.5 "/>
<polygon id="XMLID_3_" class="st2" points="-227.6,368.2 -210.8,351.5 -227.6,334.7 -227.6,351.5 "/>
<polygon id="XMLID_2_" class="st2" points="-194,368.2 -210.8,351.4 -227.6,368.2 -210.8,368.2 "/>
<polygon id="XMLID_1_" class="st3" points="-194,368.2 -210.8,351.4 -227.6,368.2 -210.8,368.2 "/>
</svg>
