<?xml version="1.0" encoding="utf-8"?>
<!-- Generator: Adobe Illustrator 19.0.0, SVG Export Plug-In . SVG Version: 6.00 Build 0)  -->
<svg version="1.1" id="Layer_1" xmlns="http://www.w3.org/2000/svg" xmlns:xlink="http://www.w3.org/1999/xlink" x="0px" y="0px"
	 viewBox="-236 317.9 226.7 67.1" style="enable-background:new -236 317.9 226.7 67.1;" xml:space="preserve">
<style type="text/css">
	.st0{display:none;}
	.st1{fill:#FFFFFF;}
	.st2{fill:#9AF470;}
	.st3{fill:#57EC11;}
	.st4{fill:#BCF7A0;}
</style>
<g id="Layer_1_1_" class="st0">
</g>
<g id="Layer_2">
</g>
<g id="XMLID_264_">
	<path id="XMLID_324_" class="st1" d="M-172.5,355.8l8.2-13.6h3.1v22.7h-4.4v-12.7l-5.5,8.9h-3.1l-5.5-8.9v12.7h-4.4v-22.7h3.1
		L-172.5,355.8z"/>
	<path id="XMLID_321_" class="st1" d="M-142.6,364.8h-4v-1.3c-1.3,1.1-2.8,1.6-4.3,1.6c-2.3,0-4.6-1-5.9-2.7c-1.2-1.4-2-3.4-2-5.5
		c0-4.6,3.4-8.2,7.7-8.2c1.8,0,3.4,0.6,4.6,1.6v-1.3h4L-142.6,364.8L-142.6,364.8z M-146.8,354.6c-0.9-1.2-2.2-1.9-3.9-1.9
		c-2.5,0-4,2-4,4.3c0,2.5,1.8,4.3,4.1,4.3c1.6,0,3-0.7,3.8-1.9V354.6z"/>
	<path id="XMLID_319_" class="st1" d="M-129.8,352.8c-0.3-0.1-0.9-0.1-1.5-0.1c-1.9,0-3.3,1.3-3.8,2.2v9.9h-4.2v-15.7h4v1.6
		c1-1.2,2.7-1.9,4.6-1.9c0.6,0,1,0.1,1.4,0.1L-129.8,352.8z"/>
	<path id="XMLID_317_" class="st1" d="M-120.1,358.7l4.3-9.6h4.4l-7.3,15.7h-2.9l-7.3-15.7h4.4L-120.1,358.7z"/>
	<path id="XMLID_308_" class="st1" d="M-96.6,362.4c-1.5,1.8-4,2.8-6.4,2.8c-4.7,0-8.2-3.2-8.2-8.2c0-4.4,3-8.2,7.6-8.2
		c4.3,0,7.4,3.7,7.4,8c0,0.4,0,0.8-0.1,1.2h-10.9c0.2,2.2,2,3.7,4.3,3.7c1.8,0,3.2-1,4-1.8L-96.6,362.4z M-100.6,354.9
		c-0.1-1.4-1.4-2.8-3.1-2.8s-3.1,1.3-3.4,2.8H-100.6z"/>
	<path id="XMLID_306_" class="st1" d="M-89.7,364.8h-4.2v-23.1h4.2V364.8z"/>
	<path id="XMLID_304_" class="st1" d="M-81.6,364.8h-4.2v-23.1h4.2V364.8z"/>
</g>
<polygon id="XMLID_262_" class="st2" points="-193.9,368 -210.4,351.4 -193.9,334.9 -193.9,351.4 "/>
<polygon id="XMLID_260_" class="st2" points="-226.9,368 -210.4,351.4 -226.9,334.9 -226.9,351.4 "/>
<polygon id="XMLID_259_" class="st3" points="-193.9,368 -210.4,351.4 -226.9,368 -210.4,368 "/>
<polygon id="XMLID_258_" class="st4" points="-193.9,368 -210.4,351.4 -226.9,368 -210.4,368 "/>
</svg>
