<?xml version="1.0" encoding="utf-8"?>
<!-- Generator: Adobe Illustrator 19.0.0, SVG Export Plug-In . SVG Version: 6.00 Build 0)  -->
<svg version="1.1" id="Layer_1" xmlns="http://www.w3.org/2000/svg" xmlns:xlink="http://www.w3.org/1999/xlink" x="0px" y="0px"
	 viewBox="-236 317.9 226.7 67.1" style="enable-background:new -236 317.9 226.7 67.1;" xml:space="preserve">
<style type="text/css">
	.st0{display:none;}
	.st1{fill:#FFFFFF;}
	.st2{fill:#010101;}
	.st3{fill:url(#XMLID_2_);}
</style>
<g id="Layer_1_1_" class="st0">
</g>
<g id="Layer_2">
</g>
<g id="XMLID_1005_">
	<path id="XMLID_1020_" class="st1" d="M-166.4,352l5.5-9.1h2.1V358h-2.9v-8.4l-3.6,6h-2l-3.6-6v8.4h-2.9v-15.2h2.1L-166.4,352z"/>
	<path id="XMLID_1017_" class="st1" d="M-146.5,358h-2.7v-0.8c-0.9,0.7-1.9,1.1-2.9,1.1c-1.6,0-3-0.7-4-1.8c-0.8-1-1.3-2.3-1.3-3.7
		c0-3.1,2.3-5.5,5.2-5.5c1.2,0,2.3,0.4,3.1,1.1v-0.8h2.7V358z M-149.3,351.2c-0.6-0.8-1.5-1.3-2.6-1.3c-1.6,0-2.7,1.4-2.7,2.9
		c0,1.6,1.2,2.9,2.8,2.9c1.1,0,2-0.5,2.5-1.3V351.2z"/>
	<path id="XMLID_1015_" class="st1" d="M-137.9,350c-0.2-0.1-0.6-0.1-1-0.1c-1.2,0-2.2,0.9-2.6,1.5v6.6h-2.8v-10.5h2.7v1.1
		c0.6-0.8,1.8-1.3,3.1-1.3c0.4,0,0.6,0,1,0.1L-137.9,350z"/>
	<path id="XMLID_1013_" class="st1" d="M-131,354l2.9-6.4h2.9L-130,358h-1.9l-4.8-10.5h2.9L-131,354z"/>
	<path id="XMLID_1010_" class="st1" d="M-115.4,356.4c-1,1.2-2.7,1.9-4.3,1.9c-3.1,0-5.5-2.2-5.5-5.5c0-2.9,2-5.5,5.1-5.5
		c2.9,0,5,2.4,5,5.4c0,0.3,0,0.6-0.1,0.8h-7.3c0.1,1.5,1.3,2.5,2.8,2.5c1.2,0,2.1-0.7,2.6-1.2L-115.4,356.4z M-118,351.4
		c-0.1-0.9-0.9-1.8-2.1-1.8c-1.2,0-2.1,0.9-2.3,1.8H-118z"/>
	<path id="XMLID_1008_" class="st1" d="M-110.8,358h-2.8v-15.4h2.8V358z"/>
	<path id="XMLID_1006_" class="st1" d="M-105.4,358h-2.8v-15.4h2.8V358z"/>
</g>
<g id="XMLID_981_">
	<path id="XMLID_1003_" class="st1" d="M-90,355.7c-1.2,1.5-3.2,2.6-5.4,2.6c-4.2,0-7.2-3-7.2-7.2c0-4,3-7.2,7-7.2
		c2,0,3.8,0.8,5,2.1l-0.8,0.8c-1-1.1-2.5-1.8-4.2-1.8c-3.3,0-5.8,2.7-5.8,6c0,3.4,2.4,6,5.9,6c1.9,0,3.6-0.9,4.6-2.2L-90,355.7z"/>
	<path id="XMLID_1000_" class="st1" d="M-85,358.2c-2.7,0-4.7-2.1-4.7-4.7c0-2.6,2-4.7,4.7-4.7c2.7,0,4.7,2.1,4.7,4.7
		C-80.3,356.1-82.3,358.2-85,358.2z M-85,349.9c-2,0-3.5,1.6-3.5,3.7s1.5,3.7,3.5,3.7c2,0,3.5-1.6,3.5-3.7S-82.9,349.9-85,349.9z"/>
	<path id="XMLID_998_" class="st1" d="M-77.6,350.3c0.7-1,1.9-1.5,3.2-1.5c1.3,0,2.5,0.5,3.2,1.5c0.5,0.7,0.8,1.4,0.8,2.9v4.8h-1.1
		v-4.7c0-1.2-0.2-1.8-0.5-2.2c-0.5-0.8-1.4-1.2-2.4-1.2c-1.3,0-2.4,0.7-3.1,1.9v6.3h-1.1V349h1.1V350.3z"/>
	<path id="XMLID_996_" class="st1" d="M-68.5,356.1c0.8,0.7,1.7,1.1,2.7,1.1c1.1,0,2.1-0.6,2.1-1.6c0-2.3-5.2-1.1-5.2-4.2
		c0-1.6,1.6-2.6,3.1-2.6c1.2,0,2.2,0.4,2.9,0.9l-0.6,0.9c-0.8-0.5-1.3-0.7-2.3-0.7c-1,0-2,0.5-2,1.6c0,2,5.2,0.9,5.2,4.1
		c0,1.7-1.4,2.7-3.1,2.7c-1.5,0-2.7-0.6-3.5-1.3L-68.5,356.1z"/>
	<path id="XMLID_994_" class="st1" d="M-54,356.8c-0.6,0.8-1.8,1.4-3.1,1.4c-1.5,0-2.7-0.7-3.4-1.9c-0.3-0.6-0.5-1.4-0.5-2.6V349
		h1.1v4.6c0,1.3,0.2,1.9,0.5,2.3c0.5,0.7,1.3,1.2,2.3,1.2c1.2,0,2.4-0.8,3-1.9V349h1.1v9.1H-54V356.8z"/>
	<path id="XMLID_992_" class="st1" d="M-50.6,343.9h1.1V358h-1.1V343.9z"/>
	<path id="XMLID_990_" class="st1" d="M-41.9,350.1h-3.1v5c0,0.8,0.2,1.2,0.4,1.5c0.3,0.4,0.8,0.6,1.5,0.6c0.3,0,0.6,0,1-0.1l0.2,1
		c-0.3,0.1-0.8,0.2-1.2,0.2c-0.8,0-1.8-0.3-2.4-1c-0.4-0.5-0.6-1.2-0.6-2.2v-4.9h-2.5V349h2.5v-2.5h1.1v2.5h3.1V350.1z"/>
	<path id="XMLID_987_" class="st1" d="M-39.5,344.8c0.6,0,1,0.5,1,1c0,0.6-0.5,1-1,1c-0.6,0-1-0.4-1-1
		C-40.5,345.3-40.1,344.8-39.5,344.8z M-40.1,349h1.1v9.1h-1.1V349z"/>
	<path id="XMLID_985_" class="st1" d="M-35.5,350.3c0.7-1,1.9-1.5,3.2-1.5c1.3,0,2.5,0.5,3.2,1.5c0.5,0.7,0.8,1.4,0.8,2.9v4.8h-1.1
		v-4.7c0-1.2-0.2-1.8-0.5-2.2c-0.5-0.8-1.4-1.2-2.4-1.2c-1.3,0-2.4,0.7-3.1,1.9v6.3h-1.1V349h1.1V350.3z"/>
	<path id="XMLID_982_" class="st1" d="M-18.4,360.9c-0.7,1.2-1.9,2.1-3.9,2.1c-1.7,0-3.2-0.8-4.1-2.2l0.9-0.7
		c0.7,1.1,1.8,1.7,3.2,1.7c1.5,0,2.5-0.7,2.9-1.5c0.3-0.6,0.4-1.2,0.4-2.3v-1.3c-0.7,0.9-1.8,1.5-3.2,1.5c-0.9,0-1.8-0.2-2.7-0.9
		c-1.2-0.8-1.9-2.2-1.9-3.9c0-1.5,0.7-2.8,1.7-3.7c0.8-0.6,1.8-1,2.9-1c1.3,0,2.5,0.5,3.3,1.5V349h1.1v9
		C-17.9,359.3-18,360.2-18.4,360.9z M-19,351.7c-0.4-0.7-1.6-1.8-3.3-1.8c-0.8,0-1.5,0.3-2.2,0.8c-0.8,0.7-1.3,1.7-1.3,2.9
		c0,1.3,0.6,2.4,1.4,3c0.6,0.4,1.3,0.7,2,0.7c1.3,0,2.5-0.8,3.2-2V351.7z"/>
</g>
<path id="XMLID_980_" class="st2" d="M-211,354.3"/>
<linearGradient id="XMLID_2_" gradientUnits="userSpaceOnUse" x1="-225.4208" y1="353.0522" x2="-182.9428" y2="353.0522">
	<stop  offset="0" style="stop-color:#F26C63"/>
	<stop  offset="1" style="stop-color:#ED195B"/>
</linearGradient>
<path id="XMLID_979_" class="st3" d="M-186.3,354.3h0.2c3,0,4.1-2,2.5-4.6l-5.1-8c-1.6-2.5-4.3-2.5-5.9,0l-5.1,8c-4.7,3-8.7,0-8.7,0
	l-5.1-8c-1.6-2.5-4.3-2.5-5.9,0l-5.1,8c-1.6,2.5-0.5,4.6,2.5,4.6h0.2c0,0,6.9-0.7,9.7,2.1l5.1,8c1.6,2.5,4.3,2.5,5.9,0l5.1-8
	c0,0,0.5-2.1,9.9-2.1"/>
</svg>
